<svg width="18" height="18" viewBox="0 0 18 18" fill="none" xmlns="http://www.w3.org/2000/svg">
<path fill-rule="evenodd" clip-rule="evenodd" d="M2.8873 7.87529C2.8873 5.12077 5.12028 2.88779 7.8748 2.88779C10.6293 2.88779 12.8623 5.12077 12.8623 7.87529C12.8623 10.6298 10.6293 12.8628 7.8748 12.8628C5.12028 12.8628 2.8873 10.6298 2.8873 7.87529ZM7.8748 1.61279C4.41612 1.61279 1.6123 4.41661 1.6123 7.87529C1.6123 11.334 4.41612 14.1378 7.8748 14.1378C9.18213 14.1378 10.3959 13.7372 11.4 13.0521L14.174 15.8261C14.423 16.075 14.8266 16.075 15.0756 15.8261C15.3245 15.5771 15.3245 15.1735 15.0756 14.9245L12.3782 12.2271C13.4673 11.1004 14.1373 9.56609 14.1373 7.87529C14.1373 4.41661 11.3335 1.61279 7.8748 1.61279Z" fill="#1A1A1A"/>
</svg>
