<svg width="20" height="20" viewBox="0 0 20 20" fill="none" xmlns="http://www.w3.org/2000/svg">
<path d="M10 1.79199C14.5332 1.79199 18.2088 5.46681 18.209 10C18.209 14.5333 14.5333 18.209 10 18.209C5.46681 18.2088 1.79199 14.5332 1.79199 10C1.79217 5.46692 5.46692 1.79217 10 1.79199ZM10 3.20898C6.24932 3.20916 3.20916 6.24932 3.20898 10C3.20898 13.7508 6.24922 16.7918 10 16.792C13.7509 16.792 16.792 13.7509 16.792 10C16.7918 6.24922 13.7508 3.20898 10 3.20898ZM10 5.54199C10.3911 5.54199 10.7088 5.85895 10.709 6.25V9.29199H13.75C14.1411 9.29199 14.4588 9.60895 14.459 10C14.459 10.3912 14.1412 10.709 13.75 10.709H10.709V13.75C10.709 14.1412 10.3912 14.459 10 14.459C9.60895 14.4588 9.29199 14.1411 9.29199 13.75V10.709H6.25C5.85895 10.7088 5.54199 10.3911 5.54199 10C5.54217 9.60906 5.85906 9.29217 6.25 9.29199H9.29199V6.25C9.29217 5.85906 9.60906 5.54217 10 5.54199Z" fill="var(------icon_secondary, #3C3C43)" fill-opacity="0.75"/>
</svg>
