<svg width="8" height="16" viewBox="0 0 8 16" fill="none" xmlns="http://www.w3.org/2000/svg">
<path fill-rule="evenodd" clip-rule="evenodd" d="M1.18281 1.59908C0.961508 1.82038 0.961508 2.17917 1.18281 2.40047L6.42856 7.64622C6.56718 7.78484 6.64673 7.86501 6.70045 7.9283C6.72242 7.95418 6.73334 7.96968 6.73803 7.97687C6.74158 7.99193 6.74158 8.00761 6.73803 8.02267C6.73334 8.02986 6.72242 8.04537 6.70045 8.07125C6.64673 8.13453 6.56718 8.21471 6.42856 8.35333L1.18281 13.5991C0.961508 13.8204 0.961508 14.1792 1.18281 14.4005C1.4041 14.6218 1.7629 14.6218 1.98419 14.4005L7.24344 9.14122C7.36382 9.02086 7.47705 8.90765 7.56444 8.80471C7.65938 8.69288 7.75661 8.55648 7.81366 8.38089C7.89414 8.13319 7.89414 7.86636 7.81366 7.61865C7.75661 7.44306 7.65938 7.30667 7.56444 7.19483C7.47705 7.09189 7.36382 6.97868 7.24344 6.85832L1.98419 1.59908C1.7629 1.37778 1.4041 1.37778 1.18281 1.59908Z" fill="var(------icon_secondary, #3C3C43)" fill-opacity="0.75"/>
</svg>
