<svg width="8" height="16" viewBox="0 0 8 16" fill="none" xmlns="http://www.w3.org/2000/svg">
<path fill-rule="evenodd" clip-rule="evenodd" d="M1.18281 1.59932C0.961508 1.82062 0.961508 2.17941 1.18281 2.40071L6.42856 7.64646C6.56718 7.78508 6.64673 7.86526 6.70045 7.92854C6.72242 7.95442 6.73334 7.96992 6.73803 7.97712C6.74158 7.99218 6.74158 8.00786 6.73803 8.02292C6.73334 8.03011 6.72242 8.04561 6.70045 8.07149C6.64673 8.13478 6.56718 8.21495 6.42856 8.35357L1.18281 13.5993C0.961508 13.8206 0.961508 14.1794 1.18281 14.4007C1.4041 14.622 1.7629 14.622 1.98419 14.4007L7.24344 9.14146C7.36382 9.0211 7.47705 8.90789 7.56444 8.80496C7.65938 8.69312 7.75661 8.55673 7.81366 8.38114C7.89414 8.13343 7.89414 7.8666 7.81366 7.6189C7.75661 7.44331 7.65938 7.30691 7.56444 7.19508C7.47705 7.09214 7.36382 6.97892 7.24344 6.85856L1.98419 1.59932C1.7629 1.37803 1.4041 1.37803 1.18281 1.59932Z" fill="var(------icon_secondary, #3C3C43)" fill-opacity="0.75"/>
</svg>
