<svg width="24" height="24" viewBox="0 0 24 24" fill="none" xmlns="http://www.w3.org/2000/svg">
<path fill-rule="evenodd" clip-rule="evenodd" d="M15.6013 2.39886C15.9332 2.73081 15.9332 3.269 15.6013 3.60094L7.73265 11.4696C7.52472 11.6775 7.40539 11.7978 7.32481 11.8927C7.29186 11.9315 7.27547 11.9548 7.26844 11.9656C7.26312 11.9881 7.26312 12.0117 7.26844 12.0343C7.27547 12.045 7.29186 12.0683 7.32481 12.1071C7.4054 12.202 7.52473 12.3223 7.73265 12.5302L15.6013 20.3989C15.9332 20.7308 15.9332 21.269 15.6013 21.6009C15.2693 21.9329 14.7311 21.9329 14.3992 21.6009L6.51032 13.7121C6.32975 13.5315 6.15991 13.3617 6.02883 13.2073C5.88642 13.0396 5.74058 12.835 5.655 12.5716C5.53427 12.2 5.53427 11.7998 5.655 11.4282C5.74058 11.1648 5.88642 10.9602 6.02883 10.7925C6.15991 10.6381 6.32976 10.4683 6.51033 10.2877L14.3992 2.39886C14.7311 2.06692 15.2693 2.06692 15.6013 2.39886Z" fill="var(--Color-----icon_primary, black)" fill-opacity="0.9"/>
</svg>
