<svg width="24" height="24" viewBox="0 0 24 24" fill="none" xmlns="http://www.w3.org/2000/svg">
<path fill-rule="evenodd" clip-rule="evenodd" d="M4.79917 3.1499C3.33203 3.1499 2.14917 4.34356 2.14917 5.80799V16.8319C2.14917 18.4453 3.57351 19.6929 5.17446 19.4632L8.23167 19.0244C8.7487 18.9503 9.27338 19.0995 9.67567 19.4362L10.8774 20.4422C11.5269 20.9858 12.4714 20.9858 13.1209 20.4422L14.3227 19.4362C14.725 19.0995 15.2496 18.9503 15.7667 19.0244L18.8239 19.4632C20.4248 19.6929 21.8492 18.4453 21.8492 16.8319V5.80799C21.8492 4.34356 20.6663 3.1499 19.1992 3.1499H14.2382C13.7688 3.1499 13.3882 3.53046 13.3882 3.9999C13.3882 4.46934 13.7688 4.8499 14.2382 4.8499H19.1992C19.7203 4.8499 20.1492 5.27526 20.1492 5.80799V16.8319C20.1492 17.4191 19.6332 17.8619 19.0653 17.7804L16.0081 17.3417C15.0122 17.1988 14.0032 17.4866 13.2315 18.1326L12.0297 19.1386C12.0117 19.1537 11.9866 19.1537 11.9686 19.1386L10.7669 18.1326C9.99509 17.4866 8.9861 17.1988 7.99019 17.3417L4.93299 17.7804C4.36518 17.8619 3.84917 17.4191 3.84917 16.8319V5.80799C3.84917 5.27526 4.27809 4.8499 4.79917 4.8499H9.76015C10.2296 4.8499 10.6101 4.46934 10.6101 3.9999C10.6101 3.53046 10.2296 3.1499 9.76015 3.1499H4.79917ZM12.1934 6.79786C12.1438 6.59429 11.8543 6.59429 11.8047 6.79786L10.9373 10.3595C10.9248 10.4108 10.8863 10.4517 10.8359 10.4673L8.1164 11.3089C7.92857 11.367 7.92857 11.6329 8.1164 11.691L10.8359 12.5327C10.8863 12.5483 10.9248 12.5892 10.9373 12.6405L11.8047 16.2021C11.8543 16.4057 12.1438 16.4057 12.1934 16.2021L13.0608 12.6405C13.0733 12.5892 13.1118 12.5483 13.1622 12.5327L15.8817 11.691C16.0695 11.6329 16.0695 11.367 15.8817 11.3089L13.1622 10.4673C13.1118 10.4517 13.0733 10.4108 13.0608 10.3595L12.1934 6.79786Z" fill="#1A1A1A"/>
</svg>
