<svg width="24" height="24" viewBox="0 0 24 24" fill="none" xmlns="http://www.w3.org/2000/svg">
<path fill-rule="evenodd" clip-rule="evenodd" d="M7.1499 7.50002C7.1499 4.82144 9.32132 2.65002 11.9999 2.65002C14.6785 2.65002 16.8499 4.82144 16.8499 7.50002C16.8499 10.1786 14.6785 12.35 11.9999 12.35C9.32132 12.35 7.1499 10.1786 7.1499 7.50002ZM11.9999 4.35002C10.2602 4.35002 8.8499 5.76033 8.8499 7.50002C8.8499 9.23972 10.2602 10.65 11.9999 10.65C13.7396 10.65 15.1499 9.23972 15.1499 7.50002C15.1499 5.76033 13.7396 4.35002 11.9999 4.35002Z" fill="#1A1A1A"/>
<path d="M17.8501 20.5C17.8501 20.9694 17.4695 21.35 17.0001 21.35C16.5307 21.35 16.1501 20.9694 16.1501 20.5V18.35H13.9999C13.5305 18.35 13.1499 17.9695 13.1499 17.5C13.1499 17.0306 13.5305 16.65 13.9999 16.65H16.1501V14.5C16.1501 14.0305 16.5307 13.65 17.0001 13.65C17.4695 13.65 17.8501 14.0305 17.8501 14.5V16.65H19.9999C20.4693 16.65 20.8499 17.0306 20.8499 17.5C20.8499 17.9695 20.4693 18.35 19.9999 18.35H17.8501V20.5Z" fill="#1A1A1A"/>
<path d="M9.00039 15.3499C6.70841 15.3499 4.85039 17.2079 4.85039 19.4999C4.85039 19.5827 4.91755 19.6499 5.00039 19.6499H12.0004C12.4698 19.6499 12.8504 20.0305 12.8504 20.4999C12.8504 20.9693 12.4698 21.3499 12.0004 21.3499H5.00039C3.97866 21.3499 3.15039 20.5216 3.15039 19.4999C3.15039 16.269 5.76952 13.6499 9.00039 13.6499H12.0004C12.4698 13.6499 12.8504 14.0305 12.8504 14.4999C12.8504 14.9693 12.4698 15.3499 12.0004 15.3499H9.00039Z" fill="#1A1A1A"/>
</svg>
