<svg width="24" height="24" viewBox="0 0 24 24" fill="none" xmlns="http://www.w3.org/2000/svg">
<path d="M16.6814 2.77649C16.6251 2.59859 16.3734 2.59859 16.3171 2.77649L15.4881 5.39566C15.474 5.44013 15.4391 5.47497 15.3947 5.48904L12.7755 6.31804C12.5976 6.37434 12.5976 6.62608 12.7755 6.68238L15.3947 7.51138C15.4391 7.52545 15.474 7.56029 15.4881 7.60476L16.3171 10.2239C16.3734 10.4018 16.6251 10.4018 16.6814 10.2239L17.5104 7.60476C17.5245 7.56029 17.5593 7.52545 17.6038 7.51138L20.223 6.68238C20.4008 6.62608 20.4008 6.37434 20.223 6.31804L17.6038 5.48904C17.5593 5.47497 17.5245 5.44013 17.5104 5.39566L16.6814 2.77649Z" fill="#1A1A1A"/>
<path d="M14.741 3.94624C13.6157 3.42797 12.363 3.13892 11.0429 3.13892C6.15515 3.13892 2.19287 7.1012 2.19287 11.9889C2.19287 16.8766 6.15515 20.8389 11.0429 20.8389C13.4214 20.8389 15.5808 19.9006 17.1711 18.3739L19.8625 21.0653C20.1944 21.3972 20.7326 21.3972 21.0646 21.0653C21.3965 20.7334 21.3965 20.1952 21.0646 19.8632L18.2822 17.0808C19.2969 15.6408 19.8929 13.8845 19.8929 11.9889C19.8929 10.6544 19.5975 9.38879 19.0685 8.25403L18.4495 8.44996L17.9344 10.0772C18.1029 10.6857 18.1929 11.3268 18.1929 11.9889C18.1929 15.9378 14.9917 19.1389 11.0429 19.1389C7.09404 19.1389 3.89287 15.9378 3.89287 11.9889C3.89287 8.04008 7.09404 4.83892 11.0429 4.83892C11.679 4.83892 12.2957 4.92199 12.8828 5.07788L14.5498 4.55026L14.741 3.94624Z" fill="#1A1A1A"/>
</svg>
