<svg width="24" height="24" viewBox="0 0 24 24" fill="none" xmlns="http://www.w3.org/2000/svg">
<path d="M15.2031 3.84999C15.8904 3.84999 16.088 3.85603 16.263 3.90021C16.4393 3.94472 16.607 4.01806 16.7593 4.11726C16.9106 4.21573 17.0492 4.35676 17.5158 4.86138L18.3127 5.72311C18.7316 6.17612 18.8483 6.30966 18.9298 6.4512C19.0119 6.59375 19.0722 6.74777 19.1087 6.90816C19.145 7.06739 19.1499 7.24473 19.1499 7.86173V11C19.1499 11.4694 19.5305 11.85 19.9999 11.85C20.4693 11.85 20.8499 11.4694 20.8499 11L20.8499 7.78062C20.8502 7.28039 20.8503 6.89983 20.7663 6.53071C20.6921 6.20508 20.5697 5.89237 20.4031 5.60295C20.2142 5.27488 19.9557 4.99559 19.6159 4.62848L18.7024 3.64062C18.3249 3.23188 18.0377 2.92104 17.6869 2.69262C17.3776 2.49122 17.0371 2.34232 16.6792 2.25195C16.2733 2.14946 15.8502 2.14968 15.2937 2.14996L7.96489 2.14999C7.29459 2.14998 6.74037 2.14997 6.28869 2.18688C5.81925 2.22523 5.38622 2.30765 4.97904 2.51512C4.34869 2.8363 3.83621 3.34878 3.51503 3.97913C3.30756 4.38631 3.22514 4.81934 3.18679 5.28878C3.14988 5.74046 3.14989 6.29468 3.1499 6.96497V17.035C3.14989 17.7053 3.14988 18.2595 3.18679 18.7112C3.22514 19.1807 3.30756 19.6137 3.51503 20.0209C3.83621 20.6512 4.34869 21.1637 4.97904 21.4849C5.38622 21.6923 5.81925 21.7748 6.28869 21.8131C6.74039 21.85 7.29463 21.85 7.96496 21.85H9.4999C9.96935 21.85 10.3499 21.4694 10.3499 21C10.3499 20.5306 9.96935 20.15 9.4999 20.15H7.9999C7.28581 20.15 6.80136 20.1493 6.42713 20.1188C6.06281 20.089 5.87841 20.0352 5.75082 19.9702C5.44035 19.812 5.18793 19.5595 5.02974 19.2491C4.96473 19.1215 4.91091 18.9371 4.88114 18.5728C4.85056 18.1985 4.8499 17.7141 4.8499 17V6.99999C4.8499 6.2859 4.85056 5.80145 4.88114 5.42722C4.91091 5.0629 4.96473 4.8785 5.02974 4.75091C5.18793 4.44044 5.44035 4.18802 5.75082 4.02983C5.87841 3.96482 6.06281 3.911 6.42712 3.88123C6.80136 3.85065 7.28581 3.84999 7.9999 3.84999H15.2031Z" fill="#1A1A1A"/>
<path fill-rule="evenodd" clip-rule="evenodd" d="M14.4374 14.65C14.0596 14.65 13.7272 14.8993 13.6214 15.262L11.8714 21.262C11.74 21.7127 11.9987 22.1846 12.4494 22.316C12.9001 22.4474 13.372 22.1887 13.5034 21.738L13.9077 20.3518H16.2796L16.6839 21.738C16.8153 22.1887 17.2872 22.4474 17.7379 22.316C18.1886 22.1846 18.4473 21.7127 18.3159 21.262L16.5659 15.262C16.4601 14.8993 16.1277 14.65 15.7499 14.65H14.4374ZM15.7838 18.6518H14.4035L15.0749 16.35H15.1124L15.7838 18.6518Z" fill="#1A1A1A"/>
<path d="M20.8499 15.5C20.8499 15.0306 20.4693 14.65 19.9999 14.65C19.5305 14.65 19.1499 15.0306 19.1499 15.5V21.5C19.1499 21.9694 19.5305 22.35 19.9999 22.35C20.4693 22.35 20.8499 21.9694 20.8499 21.5V15.5Z" fill="#1A1A1A"/>
<path d="M6.6499 8.49999C6.6499 8.03055 7.03046 7.64999 7.4999 7.64999H14.4999C14.9693 7.64999 15.3499 8.03055 15.3499 8.49999C15.3499 8.96944 14.9693 9.34999 14.4999 9.34999H7.4999C7.03046 9.34999 6.6499 8.96944 6.6499 8.49999Z" fill="#1A1A1A"/>
<path d="M7.4999 12.15C7.03046 12.15 6.6499 12.5306 6.6499 13C6.6499 13.4694 7.03046 13.85 7.4999 13.85H11.4999C11.9693 13.85 12.3499 13.4694 12.3499 13C12.3499 12.5306 11.9693 12.15 11.4999 12.15H7.4999Z" fill="#1A1A1A"/>
</svg>
