<svg width="24" height="24" viewBox="0 0 24 24" fill="none" xmlns="http://www.w3.org/2000/svg">
<path d="M3.2611 3.05902C2.92915 2.72707 2.39096 2.72707 2.05902 3.05902C1.72707 3.39096 1.72707 3.92915 2.05902 4.2611L19.7367 21.9388C20.0686 22.2707 20.6068 22.2707 20.9388 21.9388C21.2707 21.6068 21.2707 21.0686 20.9388 20.7367L3.2611 3.05902Z" fill="#1A1A1A"/>
<path d="M3.15054 6.99999L3.15059 6.97872L4.83492 8.66304C4.75887 9.05448 4.41421 9.34999 4.00054 9.34999C3.5311 9.34999 3.15054 8.96944 3.15054 8.49999V6.99999Z" fill="#1A1A1A"/>
<path d="M16.1005 9.99998C16.1005 11.1759 15.6055 12.2361 14.8125 12.9838L13.6095 11.7808C14.0953 11.3416 14.4005 10.7064 14.4005 9.99998C14.4005 8.6745 13.326 7.59998 12.0005 7.59998C11.2941 7.59998 10.6589 7.90522 10.2197 8.391L9.01675 7.18802C9.76438 6.395 10.8246 5.89998 12.0005 5.89998C14.2649 5.89998 16.1005 7.73561 16.1005 9.99998Z" fill="#1A1A1A"/>
<path d="M13.0947 16.9228L11.3434 15.1716C9.76422 15.2762 8.34119 15.7571 7.09409 16.5266C6.69458 16.7731 6.57056 17.2968 6.81708 17.6963C7.0636 18.0958 7.58731 18.2199 7.98681 17.9733C9.14186 17.2606 10.4788 16.85 12.0006 16.85C12.3774 16.85 12.742 16.8748 13.0947 16.9228Z" fill="#1A1A1A"/>
<path d="M17.0218 20.8499L15.3375 19.1656C14.946 19.2416 14.6505 19.5863 14.6505 20C14.6505 20.4694 15.031 20.85 15.5005 20.85H17.0005L17.0218 20.8499Z" fill="#1A1A1A"/>
<path d="M19.1296 17.3009L20.4796 18.6508C20.7174 18.1505 20.8505 17.5908 20.8505 17V15.5C20.8505 15.0305 20.4699 14.65 20.0005 14.65C19.531 14.65 19.1505 15.0305 19.1505 15.5V17C19.1505 17.1021 19.1434 17.2025 19.1296 17.3009Z" fill="#1A1A1A"/>
<path d="M5.34964 3.52091L6.69962 4.87089C6.79795 4.85711 6.89841 4.84999 7.00054 4.84999H8.50054C8.96998 4.84999 9.35054 4.46944 9.35054 3.99999C9.35054 3.53055 8.96998 3.14999 8.50054 3.14999H7.00054C6.40971 3.14999 5.84996 3.28308 5.34964 3.52091Z" fill="#1A1A1A"/>
<path d="M20.0005 9.34999C19.531 9.34999 19.1505 8.96944 19.1505 8.49999V6.99999C19.1505 5.81258 18.1879 4.84999 17.0005 4.84999H15.5005C15.031 4.84999 14.6505 4.46944 14.6505 3.99999C14.6505 3.53055 15.031 3.14999 15.5005 3.14999H17.0005C19.1268 3.14999 20.8505 4.8737 20.8505 6.99999V8.49999C20.8505 8.96944 20.4699 9.34999 20.0005 9.34999Z" fill="#1A1A1A"/>
<path d="M4.85054 15.5C4.85054 15.0305 4.46998 14.65 4.00054 14.65C3.5311 14.65 3.15054 15.0305 3.15054 15.5V17C3.15054 19.1263 4.87424 20.85 7.00054 20.85H8.50054C8.96998 20.85 9.35054 20.4694 9.35054 20C9.35054 19.5305 8.96998 19.15 8.50054 19.15H7.00054C5.81312 19.15 4.85054 18.1874 4.85054 17V15.5Z" fill="#1A1A1A"/>
</svg>
