<svg width="24" height="24" viewBox="0 0 24 24" fill="none" xmlns="http://www.w3.org/2000/svg">
<path d="M6.9999 9.3999C6.53046 9.3999 6.1499 9.78046 6.1499 10.2499C6.1499 10.7193 6.53046 11.0999 6.9999 11.0999H9.9999C10.4693 11.0999 10.8499 10.7193 10.8499 10.2499C10.8499 9.78046 10.4693 9.3999 9.9999 9.3999H6.9999Z" fill="#1A1A1A"/>
<path fill-rule="evenodd" clip-rule="evenodd" d="M12.8499 2.9999C12.8499 2.53046 12.4693 2.1499 11.9999 2.1499C11.5305 2.1499 11.1499 2.53046 11.1499 2.9999V4.1499H10.9533C9.58836 4.14989 8.49918 4.14988 7.62773 4.23853C6.73218 4.32963 5.97278 4.52134 5.30539 4.96728C4.77582 5.32112 4.32112 5.77582 3.96728 6.30539C3.52134 6.97278 3.32963 7.73218 3.23853 8.62773C3.14988 9.49917 3.14989 10.5884 3.1499 11.9533V12.0465C3.14989 13.4114 3.14988 14.5006 3.23853 15.3721C3.32963 16.2676 3.52134 17.027 3.96728 17.6944C4.32112 18.224 4.77582 18.6787 5.30539 19.0325C5.97278 19.4785 6.73218 19.6702 7.62773 19.7613C8.49917 19.8499 9.58835 19.8499 10.9533 19.8499H11.1499V20.9999C11.1499 21.4693 11.5305 21.8499 11.9999 21.8499C12.4693 21.8499 12.8499 21.4693 12.8499 20.9999V19.8499H13.0465C14.4114 19.8499 15.5006 19.8499 16.3721 19.7613C17.2676 19.6702 18.027 19.4785 18.6944 19.0325C19.224 18.6787 19.6787 18.224 20.0325 17.6944C20.4785 17.027 20.6702 16.2676 20.7613 15.3721C20.8499 14.5006 20.8499 13.4115 20.8499 12.0466V11.9533C20.8499 10.5884 20.8499 9.49916 20.7613 8.62773C20.6702 7.73218 20.4785 6.97278 20.0325 6.30539C19.6787 5.77582 19.224 5.32112 18.6944 4.96728C18.027 4.52134 17.2676 4.32963 16.3721 4.23853C15.5006 4.14988 14.4114 4.14989 13.0465 4.1499H12.8499V2.9999ZM10.9999 5.8499C9.57775 5.8499 8.57512 5.85093 7.79978 5.9298C7.03864 6.00723 6.59136 6.15259 6.24986 6.38077C5.90591 6.61059 5.61059 6.90591 5.38077 7.24986C5.15259 7.59136 5.00723 8.03864 4.9298 8.79978C4.85093 9.57512 4.8499 10.5777 4.8499 11.9999C4.8499 13.4221 4.85093 14.4247 4.9298 15.2C5.00723 15.9612 5.15259 16.4084 5.38077 16.7499C5.61059 17.0939 5.90591 17.3892 6.24986 17.619C6.59136 17.8472 7.03864 17.9926 7.79978 18.07C8.57512 18.1489 9.57775 18.1499 10.9999 18.1499H12.9999C14.4221 18.1499 15.4247 18.1489 16.2 18.07C16.9612 17.9926 17.4084 17.8472 17.7499 17.619C18.0939 17.3892 18.3892 17.0939 18.619 16.7499C18.8472 16.4084 18.9926 15.9612 19.07 15.2C19.1489 14.4247 19.1499 13.4221 19.1499 11.9999C19.1499 10.5777 19.1489 9.57512 19.07 8.79978C18.9926 8.03864 18.8472 7.59136 18.619 7.24986C18.3892 6.90591 18.0939 6.61059 17.7499 6.38077C17.4084 6.15259 16.9612 6.00723 16.2 5.9298C15.4247 5.85093 14.4221 5.8499 12.9999 5.8499H10.9999Z" fill="#1A1A1A"/>
</svg>
