<svg width="24" height="24" viewBox="0 0 24 24" fill="none" xmlns="http://www.w3.org/2000/svg">
<path d="M7.0009 15.8542L11.5009 15.8501C11.9703 15.8497 12.3506 15.4688 12.3501 14.9993C12.3497 14.5299 11.9688 14.1497 11.4993 14.1501L6.99934 14.1542C6.5299 14.1547 6.14969 14.5356 6.15012 15.005C6.15055 15.4745 6.53146 15.8547 7.0009 15.8542Z" fill="#1A1A1A"/>
<path d="M6.15402 11.0063C6.15373 10.5369 6.53406 10.1561 7.0035 10.1558L14.9991 10.1509C15.4685 10.1506 15.8493 10.5309 15.8496 11.0004C15.8499 11.4698 15.4696 11.8506 15.0001 11.8509L7.00454 11.8558C6.5351 11.8561 6.15431 11.4757 6.15402 11.0063Z" fill="#1A1A1A"/>
<path fill-rule="evenodd" clip-rule="evenodd" d="M17.3266 6.15063H17.5349C18.2052 6.15062 18.7594 6.15061 19.2111 6.18752C19.6806 6.22587 20.1136 6.30829 20.5208 6.51576C21.1511 6.83694 21.6636 7.34942 21.9848 7.97977C22.1922 8.38695 22.2747 8.81998 22.313 9.28942C22.3499 9.7411 22.3499 10.2953 22.3499 10.9656V16.0357C22.3499 16.706 22.3499 17.2602 22.313 17.7118C22.2747 18.1813 22.1922 18.6143 21.9848 19.0215C21.6636 19.6518 21.1511 20.1643 20.5208 20.4855C20.1136 20.693 19.6806 20.7754 19.2111 20.8137C18.7594 20.8507 18.2052 20.8506 17.5349 20.8506H6.46491C5.7946 20.8506 5.24038 20.8507 4.78869 20.8137C4.31925 20.7754 3.88622 20.693 3.47904 20.4855C2.84869 20.1643 2.33621 19.6518 2.01503 19.0215C1.80756 18.6143 1.72514 18.1813 1.68679 17.7118C1.64988 17.2602 1.64989 16.706 1.6499 16.0357V10.9656C1.64989 10.2953 1.64988 9.7411 1.68679 9.28942C1.72514 8.81998 1.80756 8.38695 2.01503 7.97977C2.33621 7.34942 2.84869 6.83694 3.47904 6.51576C3.88622 6.30829 4.31925 6.22587 4.78869 6.18752C5.24037 6.15061 5.79458 6.15062 6.46487 6.15063H6.67335L10.7624 2.47051C11.4659 1.8373 12.534 1.8373 13.2375 2.47051L17.3266 6.15063ZM9.21459 6.15063H14.7853L12.1003 3.73411C12.0433 3.68277 11.9567 3.68277 11.8996 3.73411L9.21459 6.15063ZM4.25082 8.03047C4.37841 7.96546 4.56281 7.91164 4.92713 7.88187C5.30136 7.8513 5.78581 7.85063 6.4999 7.85063H17.4999C18.214 7.85063 18.6984 7.8513 19.0727 7.88187C19.437 7.91164 19.6214 7.96546 19.749 8.03047C20.0595 8.18866 20.3119 8.44108 20.4701 8.75155C20.5351 8.87914 20.5889 9.06354 20.6187 9.42786C20.6492 9.80209 20.6499 10.2865 20.6499 11.0006V16.0006C20.6499 16.7147 20.6492 17.1992 20.6187 17.5734C20.5889 17.9377 20.5351 18.1221 20.4701 18.2497C20.3119 18.5602 20.0595 18.8126 19.749 18.9708C19.6214 19.0358 19.437 19.0896 19.0727 19.1194C18.6984 19.15 18.214 19.1506 17.4999 19.1506H6.4999C5.78581 19.1506 5.30136 19.15 4.92713 19.1194C4.56281 19.0896 4.37841 19.0358 4.25082 18.9708C3.94035 18.8126 3.68793 18.5602 3.52974 18.2497C3.46473 18.1221 3.41091 17.9377 3.38114 17.5734C3.35056 17.1992 3.3499 16.7147 3.3499 16.0006V11.0006C3.3499 10.2865 3.35056 9.80209 3.38114 9.42786C3.41091 9.06354 3.46473 8.87914 3.52974 8.75155C3.68793 8.44108 3.94035 8.18866 4.25082 8.03047Z" fill="#1A1A1A"/>
</svg>
