<svg width="24" height="24" viewBox="0 0 24 24" fill="none" xmlns="http://www.w3.org/2000/svg">
<path fill-rule="evenodd" clip-rule="evenodd" d="M3.8499 12.0004C3.8499 7.49927 7.49878 3.85039 11.9999 3.85039C16.501 3.85039 20.1499 7.49927 20.1499 12.0004C20.1499 16.5015 16.501 20.1504 11.9999 20.1504C7.49878 20.1504 3.8499 16.5015 3.8499 12.0004ZM11.9999 2.15039C6.5599 2.15039 2.1499 6.56039 2.1499 12.0004C2.1499 17.4404 6.5599 21.8504 11.9999 21.8504C17.4399 21.8504 21.8499 17.4404 21.8499 12.0004C21.8499 6.56039 17.4399 2.15039 11.9999 2.15039ZM12.8499 7.00039C12.8499 6.53095 12.4693 6.15039 11.9999 6.15039C11.5305 6.15039 11.1499 6.53095 11.1499 7.00039V14.4484L9.10095 12.3994C8.76901 12.0674 8.23082 12.0674 7.89887 12.3993C7.56692 12.7313 7.56691 13.2695 7.89885 13.6014L10.6916 16.3943C11.4141 17.1168 12.5854 17.1168 13.3079 16.3943L16.1009 13.6014C16.4329 13.2695 16.4329 12.7313 16.101 12.3994C15.769 12.0674 15.2308 12.0674 14.8989 12.3993L12.8499 14.4482L12.8499 7.00039Z" fill="#1A1A1A"/>
</svg>
