<svg width="24" height="24" viewBox="0 0 24 24" fill="none" xmlns="http://www.w3.org/2000/svg">
<path d="M11.4919 7.42587C11.983 7.31436 12.2838 6.85429 12.1637 6.39829C12.0436 5.94228 11.5481 5.66302 11.0569 5.77453C10.1319 5.98454 9.29777 6.45124 8.66565 7.11247C8.03353 7.77369 7.63343 8.59805 7.51866 9.4757C7.45771 9.94172 7.81521 10.3654 8.31716 10.422C8.81911 10.4785 9.27543 10.1466 9.33637 9.68061C9.4063 9.14594 9.65003 8.64375 10.0351 8.24094C10.4202 7.83812 10.9283 7.55381 11.4919 7.42587Z" fill="#1A1A1A"/>
<path fill-rule="evenodd" clip-rule="evenodd" d="M3.65393 10.0004C3.65393 5.38881 7.39235 1.65039 12.0039 1.65039C16.6155 1.65039 20.3539 5.38881 20.3539 10.0004C20.3539 13.2405 18.5085 16.048 15.8144 17.432C15.6117 18.5237 14.6544 19.3504 13.5039 19.3504H10.5039C9.3535 19.3504 8.39616 18.5237 8.19349 17.432C5.49933 16.048 3.65393 13.2405 3.65393 10.0004ZM12.0039 3.35039C8.33124 3.35039 5.35393 6.3277 5.35393 10.0004C5.35393 12.726 6.99382 15.0705 9.34425 16.0974C9.65384 16.2327 9.85393 16.5385 9.85393 16.8763V17.0004C9.85393 17.3594 10.1449 17.6504 10.5039 17.6504H13.5039C13.8629 17.6504 14.1539 17.3594 14.1539 17.0004V16.8763C14.1539 16.5385 14.354 16.2327 14.6636 16.0974C17.014 15.0705 18.6539 12.726 18.6539 10.0004C18.6539 6.3277 15.6766 3.35039 12.0039 3.35039Z" fill="#1A1A1A"/>
<path d="M9.15393 21.0004C9.15393 20.5309 9.53449 20.1504 10.0039 20.1504H14.0039C14.4734 20.1504 14.8539 20.5309 14.8539 21.0004C14.8539 21.4698 14.4734 21.8504 14.0039 21.8504H10.0039C9.53449 21.8504 9.15393 21.4698 9.15393 21.0004Z" fill="#1A1A1A"/>
</svg>
