<svg width="24" height="24" viewBox="0 0 24 24" fill="none" xmlns="http://www.w3.org/2000/svg">
<path d="M6.1499 10C6.1499 9.53058 6.53046 9.15002 6.9999 9.15002H12.9999C13.4693 9.15002 13.8499 9.53058 13.8499 10C13.8499 10.4695 13.4693 10.85 12.9999 10.85H6.9999C6.53046 10.85 6.1499 10.4695 6.1499 10Z" fill="#1A1A1A"/>
<path d="M6.9999 13.15C6.53046 13.15 6.1499 13.5306 6.1499 14C6.1499 14.4695 6.53046 14.85 6.9999 14.85H12.9999C13.4693 14.85 13.8499 14.4695 13.8499 14C13.8499 13.5306 13.4693 13.15 12.9999 13.15H6.9999Z" fill="#1A1A1A"/>
<path fill-rule="evenodd" clip-rule="evenodd" d="M11.1909 3.40002H12.8089C14.5231 3.40001 15.8907 3.39999 16.9691 3.53626C18.0813 3.67679 19.0042 3.97411 19.757 4.65641C19.8746 4.76302 19.9869 4.87534 20.0935 4.99296C20.7758 5.74577 21.0731 6.66865 21.2137 7.78083C21.3499 8.85922 21.3499 10.2268 21.3499 11.941V12.059C21.3499 13.7732 21.3499 15.1408 21.2137 16.2192C21.0731 17.3314 20.7758 18.2543 20.0935 19.0071C19.9869 19.1247 19.8746 19.237 19.757 19.3436C19.0042 20.0259 18.0813 20.3233 16.9691 20.4638C15.8907 20.6001 14.5232 20.6 12.8089 20.6H11.1909C9.4767 20.6 8.1091 20.6001 7.03071 20.4638C5.91852 20.3233 4.99565 20.0259 4.24284 19.3436C4.12522 19.237 4.0129 19.1247 3.90629 19.0071C3.22399 18.2543 2.92667 17.3314 2.78613 16.2192C2.64987 15.1408 2.64989 13.7733 2.6499 12.059V11.941C2.64989 10.2268 2.64987 8.85922 2.78613 7.78083C2.92667 6.66865 3.22399 5.74577 3.90629 4.99296C4.0129 4.87534 4.12522 4.76302 4.24284 4.65641C4.99565 3.97411 5.91852 3.67679 7.03071 3.53626C8.1091 3.39999 9.47666 3.40001 11.1909 3.40002ZM7.24382 5.22284C6.30587 5.34136 5.77495 5.56214 5.38449 5.91603C5.3081 5.98527 5.23515 6.05822 5.16591 6.13461C4.81201 6.52508 4.59124 7.05599 4.47272 7.99395C4.3515 8.95335 4.3499 10.2133 4.3499 12C4.3499 13.7868 4.3515 15.0467 4.47272 16.0061C4.59124 16.9441 4.81201 17.475 5.16591 17.8654C5.23515 17.9418 5.3081 18.0148 5.38449 18.084C5.77495 18.4379 6.30587 18.6587 7.24382 18.7772C8.20323 18.8984 9.46317 18.9 11.2499 18.9H12.7499C14.5366 18.9 15.7966 18.8984 16.756 18.7772C17.6939 18.6587 18.2249 18.4379 18.6153 18.084C18.6917 18.0148 18.7647 17.9418 18.8339 17.8654C19.1878 17.475 19.4086 16.9441 19.5271 16.0061C19.6483 15.0467 19.6499 13.7868 19.6499 12C19.6499 10.2133 19.6483 8.95335 19.5271 7.99395C19.4086 7.05599 19.1878 6.52508 18.8339 6.13461C18.7647 6.05822 18.6917 5.98527 18.6153 5.91603C18.2249 5.56214 17.6939 5.34136 16.756 5.22284C15.7966 5.10162 14.5366 5.10003 12.7499 5.10003H11.2499C9.46316 5.10003 8.20323 5.10162 7.24382 5.22284Z" fill="#1A1A1A"/>
</svg>
