<svg width="24" height="24" viewBox="0 0 24 24" fill="none" xmlns="http://www.w3.org/2000/svg">
<path d="M11.9538 2.1499C10.5889 2.14989 9.49966 2.14988 8.62822 2.23853C7.73266 2.32963 6.97326 2.52134 6.30588 2.96728C5.7763 3.32112 5.32161 3.77582 4.96776 4.30539C4.52183 4.97278 4.33012 5.73218 4.23902 6.62773C4.15037 7.49918 4.15038 8.58836 4.15039 9.95329V14.0465C4.15038 15.4114 4.15037 16.5006 4.23902 17.3721C4.33012 18.2676 4.52183 19.027 4.96776 19.6944C5.32161 20.224 5.7763 20.6787 6.30588 21.0325C6.97326 21.4785 7.73266 21.6702 8.62822 21.7613C9.49964 21.8499 10.5888 21.8499 11.9537 21.8499H12.047C12.7189 21.8499 13.3244 21.8499 13.8695 21.8393C13.3192 21.3797 12.8691 20.8039 12.5571 20.1497C12.379 20.1499 12.1935 20.1499 12.0004 20.1499C10.5782 20.1499 9.5756 20.1489 8.80026 20.07C8.03913 19.9926 7.59185 19.8472 7.25034 19.619C6.9064 19.3892 6.61108 19.0939 6.38126 18.7499C6.15308 18.4084 6.00772 17.9612 5.93029 17.2C5.85142 16.4247 5.85039 15.4221 5.85039 13.9999V9.9999C5.85039 8.57775 5.85142 7.57512 5.93029 6.79978C6.00772 6.03864 6.15308 5.59136 6.38126 5.24986C6.61108 4.90591 6.9064 4.61059 7.25034 4.38077C7.59185 4.15259 8.03913 4.00723 8.80026 3.9298C9.5756 3.85093 10.5782 3.8499 12.0004 3.8499C13.4225 3.8499 14.4252 3.85093 15.2005 3.9298C15.9617 4.00723 16.4089 4.15259 16.7504 4.38077C17.0944 4.61059 17.3897 4.90591 17.6195 5.24986C17.8477 5.59136 17.9931 6.03864 18.0705 6.79978C18.1494 7.57512 18.1504 8.57775 18.1504 9.9999V13.1163C18.7675 13.2519 19.3419 13.5015 19.8504 13.8418V9.95331C19.8504 8.58842 19.8504 7.49916 19.7618 6.62773C19.6707 5.73218 19.479 4.97278 19.033 4.30539C18.6792 3.77582 18.2245 3.32112 17.6949 2.96728C17.0275 2.52134 16.2681 2.32963 15.3726 2.23853C14.5011 2.14988 13.4119 2.14989 12.047 2.1499H11.9538Z" fill="#1A1A1A"/>
<path d="M8.1499 6.85708C8.1499 6.38764 8.53046 6.00708 8.9999 6.00708H14.9999C15.4693 6.00708 15.8499 6.38764 15.8499 6.85708C15.8499 7.32652 15.4693 7.70708 14.9999 7.70708H8.9999C8.53046 7.70708 8.1499 7.32652 8.1499 6.85708Z" fill="#1A1A1A"/>
<path d="M15.5846 10.633C15.9253 10.9559 15.9398 11.4939 15.6168 11.8346L11.8258 15.8346C11.6653 16.0039 11.4423 16.0999 11.209 16.0999C10.9757 16.0999 10.7526 16.0041 10.5921 15.8348L8.38318 13.5059C8.06013 13.1653 8.07436 12.6273 8.41496 12.3043C8.75557 11.9812 9.29357 11.9954 9.61663 12.336L11.2086 14.0145L14.383 10.6652C14.7059 10.3245 15.2439 10.31 15.5846 10.633Z" fill="#1A1A1A"/>
<path fill-rule="evenodd" clip-rule="evenodd" d="M17.0722 14.1499C14.9459 14.1499 13.2222 15.8736 13.2222 17.9999C13.2222 20.1262 14.9459 21.8499 17.0722 21.8499C19.1985 21.8499 20.9222 20.1262 20.9222 17.9999C20.9222 15.8736 19.1985 14.1499 17.0722 14.1499ZM15.0743 17.2039C14.9762 17.4501 14.9222 17.7187 14.9222 17.9999C14.9222 19.1873 15.8848 20.1499 17.0722 20.1499C17.3534 20.1499 17.622 20.0959 17.8682 19.9977L15.0743 17.2039ZM19.0701 18.7956L16.2765 16.0019C16.5226 15.9038 16.7911 15.8499 17.0722 15.8499C18.2596 15.8499 19.2222 16.8125 19.2222 17.9999C19.2222 18.281 19.1682 18.5495 19.0701 18.7956Z" fill="#1A1A1A"/>
</svg>
