<svg width="24" height="24" viewBox="0 0 24 24" fill="none" xmlns="http://www.w3.org/2000/svg">
<path d="M16.1839 11.2173C16.1839 11.7947 14.3117 12.2628 12.0021 12.2628C9.69258 12.2628 7.82031 11.7947 7.82031 11.2173C7.82031 10.6399 9.69258 10.1719 12.0021 10.1719C14.3117 10.1719 16.1839 10.6399 16.1839 11.2173Z" fill="#1A1A1A"/>
<path fill-rule="evenodd" clip-rule="evenodd" d="M23.9177 8.69546C24.3776 6.94102 22.5119 5.93985 20.8621 6.69349L20.4302 6.8908C18.7015 4.04534 15.5726 2.14456 11.9999 2.14453C8.45647 2.14456 5.34976 4.01427 3.61247 6.82093L3.33351 6.69349C1.68378 5.93985 -0.181988 6.94102 0.277924 8.69547C0.61203 9.96999 1.24314 11.2594 2.14865 12.3439C2.32899 17.6294 6.67055 21.8588 12 21.8588C17.2489 21.8588 21.5395 17.7562 21.8402 12.5827C22.8569 11.4514 23.5587 10.0649 23.9177 8.69546ZM2.62711 8.23978C2.2764 8.07957 2.00536 8.14711 1.90918 8.19986C1.91128 8.21593 1.91522 8.23721 1.92234 8.26439C2.19729 9.31323 2.7186 10.3741 3.45359 11.2544L3.82774 11.7025L3.84764 12.2859C3.99684 16.6588 7.59002 20.1588 12 20.1588C16.343 20.1588 19.8943 16.7638 20.1431 12.484L20.1776 11.8893L20.5758 11.4463C21.3973 10.5322 21.9774 9.39297 22.2733 8.26439C22.2804 8.23721 22.2844 8.21592 22.2865 8.19986C22.1903 8.14711 21.9192 8.07957 21.5685 8.23978L19.762 9.06503L19.115 7.99C18.3956 6.60818 15.9651 3.84453 11.9984 3.84453C9.06862 3.84509 6.78016 4.66837 5.34 6.995L4.31 9.005L2.62711 8.23978Z" fill="#1A1A1A"/>
</svg>
