<svg width="24" height="24" viewBox="0 0 24 24" fill="none" xmlns="http://www.w3.org/2000/svg">
<path fill-rule="evenodd" clip-rule="evenodd" d="M18.0332 21.2462L11.9997 18.3333L5.96627 21.2462C4.78989 21.8142 3.44971 20.9438 3.44971 19.6566V8.37123C3.4497 7.38085 3.44969 6.58581 3.50223 5.94281C3.55622 5.28197 3.66991 4.70722 3.93994 4.17727C4.37115 3.33095 5.05923 2.64288 5.90554 2.21166C6.43549 1.94164 7.01024 1.82795 7.67108 1.77396C8.31408 1.72142 9.10911 1.72143 10.0995 1.72144H13.8999C14.8903 1.72143 15.6853 1.72142 16.3283 1.77396C16.9892 1.82795 17.5639 1.94164 18.0939 2.21166C18.9402 2.64288 19.6283 3.33095 20.0595 4.17727C20.3295 4.70721 20.4432 5.28197 20.4972 5.94281C20.5497 6.58578 20.5497 7.38077 20.5497 8.3711V19.6566C20.5497 20.9438 19.2095 21.8142 18.0332 21.2462ZM13.8633 3.42144C14.8988 3.42144 15.6243 3.4221 16.1899 3.46831C16.7456 3.51371 17.0717 3.59881 17.3221 3.72638C17.8485 3.99461 18.2765 4.42261 18.5448 4.94905C18.6723 5.1994 18.7574 5.52553 18.8028 6.08124C18.849 6.64688 18.8497 7.37238 18.8497 8.40788V11.938L16.505 10.5842C17.0107 8.85512 16.2936 6.94084 14.6641 6.00002C12.7509 4.89545 10.3045 5.55095 9.19995 7.46412C8.09538 9.37729 8.75088 11.8237 10.6641 12.9282C12.3554 13.9047 14.4633 13.5057 15.6926 12.0782L18.8497 13.9009V19.6566C18.8497 19.6752 18.8456 19.6846 18.8424 19.6903C18.8382 19.6977 18.831 19.7058 18.8208 19.7123C18.8107 19.7187 18.8017 19.7209 18.7961 19.7213C18.7926 19.7216 18.7859 19.7219 18.7723 19.7153L11.9997 16.4455L5.22714 19.7153C5.21355 19.7219 5.20677 19.7216 5.20336 19.7213C5.19774 19.7209 5.18874 19.7187 5.1786 19.7123C5.16845 19.7058 5.16126 19.6977 5.15703 19.6903C5.15383 19.6846 5.14971 19.6752 5.14971 19.6566V8.40788C5.14971 7.37238 5.15037 6.64688 5.19658 6.08125C5.24199 5.52554 5.32709 5.1994 5.45465 4.94905C5.72288 4.42261 6.15089 3.99461 6.67732 3.72638C6.92767 3.59881 7.25381 3.51371 7.80952 3.46831C8.37515 3.4221 9.10065 3.42144 10.1362 3.42144L13.8633 3.42144ZM14.6559 10.6141C15.291 9.51405 14.9141 8.10739 13.8141 7.47226C12.714 6.83713 11.3073 7.21405 10.6722 8.31412C10.0371 9.41419 10.414 10.8209 11.5141 11.456C12.6141 12.0911 14.0208 11.7142 14.6559 10.6141Z" fill="#1A1A1A"/>
</svg>
