<svg width="24" height="24" viewBox="0 0 24 24" fill="none" xmlns="http://www.w3.org/2000/svg">
<path fill-rule="evenodd" clip-rule="evenodd" d="M19.6487 15.8856C19.6004 15.5873 19.6326 15.2815 19.7419 14.9997C20.1018 14.0716 20.3 13.061 20.3 12C20.3 7.41604 16.584 3.7 12 3.7C7.41604 3.7 3.7 7.41604 3.7 12C3.7 16.584 7.41604 20.3 12 20.3C13.6941 20.3 15.2648 19.7943 16.5759 18.926C16.9321 18.6901 17.3641 18.5969 17.7859 18.6651L20.16 19.0489L19.6487 15.8856ZM17.5146 20.3433C15.9338 21.3903 14.0381 22 12 22C6.47715 22 2 17.5228 2 12C2 6.47715 6.47715 2 12 2C17.5228 2 22 6.47715 22 12C22 13.2745 21.7616 14.4934 21.3269 15.6143L21.9561 19.5071C22.0831 20.2926 21.4038 20.972 20.6182 20.845L17.5146 20.3433Z" fill="#1A1A1A"/>
</svg>
