<svg width="24" height="24" viewBox="0 0 24 24" fill="none" xmlns="http://www.w3.org/2000/svg">
<path d="M11.9999 7.3999C12.4693 7.3999 12.8499 7.78046 12.8499 8.2499V12.7499C12.8499 13.2193 12.4693 13.5999 11.9999 13.5999C11.5305 13.5999 11.1499 13.2193 11.1499 12.7499V8.2499C11.1499 7.78046 11.5305 7.3999 11.9999 7.3999Z" fill="#1A1A1A"/>
<path d="M12.8499 16.2499C12.8499 15.7805 12.4693 15.3999 11.9999 15.3999C11.5305 15.3999 11.1499 15.7805 11.1499 16.2499C11.1499 16.7193 11.5305 17.1 11.9999 17.1C12.4693 17.1 12.8499 16.7193 12.8499 16.2499Z" fill="#1A1A1A"/>
<path fill-rule="evenodd" clip-rule="evenodd" d="M10.4267 2.0407C11.4277 1.59255 12.5722 1.59255 13.5732 2.0407C14.2358 2.33736 14.7394 2.89385 15.2174 3.57799C15.6931 4.25873 16.2212 5.18445 16.8855 6.34898L20.6653 12.975C21.3191 14.1211 21.8393 15.0329 22.1785 15.7787C22.5199 16.529 22.74 17.2372 22.6622 17.9523C22.5445 19.0343 21.9744 20.0159 21.0929 20.6542C20.5103 21.0761 19.7861 21.2359 18.9652 21.3112C18.1493 21.386 17.0995 21.386 15.78 21.386H8.2199C6.90037 21.386 5.85057 21.386 5.03466 21.3112C4.21376 21.2359 3.48958 21.0761 2.90697 20.6542C2.02549 20.0159 1.45537 19.0343 1.33767 17.9523C1.25989 17.2372 1.47998 16.529 1.82133 15.7787C2.16059 15.0329 2.68075 14.1211 3.33456 12.975L7.11434 6.34907C7.77865 5.18451 8.30675 4.25875 8.78245 3.57798C9.26051 2.89385 9.7641 2.33736 10.4267 2.0407ZM12.8785 3.59229C12.3195 3.34202 11.6803 3.34202 11.1214 3.59229C10.8896 3.69606 10.6045 3.93843 10.1759 4.55172C9.75029 5.16087 9.26026 6.01815 8.56893 7.23005L4.8332 13.7788C4.15246 14.9721 3.67183 15.8163 3.36873 16.4826C3.06392 17.1527 3.00036 17.5171 3.02771 17.7685C3.09343 18.3727 3.41181 18.9209 3.90407 19.2773C4.10886 19.4256 4.45692 19.551 5.18996 19.6183C5.91888 19.6851 6.89036 19.686 8.2642 19.686H15.7357C17.1095 19.686 18.081 19.6851 18.8099 19.6183C19.5429 19.551 19.891 19.4256 20.0958 19.2773C20.5881 18.9209 20.9064 18.3727 20.9722 17.7685C20.9995 17.5171 20.9359 17.1527 20.6311 16.4826C20.328 15.8163 19.8474 14.9721 19.1667 13.7788L15.4309 7.23005C14.7396 6.01816 14.2496 5.16088 13.8239 4.55173C13.3954 3.93843 13.1103 3.69606 12.8785 3.59229Z" fill="#1A1A1A"/>
</svg>
