<svg width="24" height="24" viewBox="0 0 24 24" fill="none" xmlns="http://www.w3.org/2000/svg">
<path d="M12.0001 7.40039C12.4696 7.40039 12.8501 7.78095 12.8501 8.25039V12.7504C12.8501 13.2198 12.4696 13.6004 12.0001 13.6004C11.5307 13.6004 11.1501 13.2198 11.1501 12.7504V8.25039C11.1501 7.78095 11.5307 7.40039 12.0001 7.40039Z" fill="#1A1A1A"/>
<path d="M12.8501 16.2504C12.8501 15.7809 12.4696 15.4004 12.0001 15.4004C11.5307 15.4004 11.1501 15.7809 11.1501 16.2504C11.1501 16.7198 11.5307 17.1005 12.0001 17.1005C12.4696 17.1005 12.8501 16.7198 12.8501 16.2504Z" fill="#1A1A1A"/>
<path fill-rule="evenodd" clip-rule="evenodd" d="M10.4269 2.04119C11.4279 1.59304 12.5725 1.59304 13.5734 2.04119C14.236 2.33784 14.7396 2.89434 15.2177 3.57847C15.6933 4.25922 16.2214 5.18494 16.8857 6.34947L20.6655 12.9754C21.3194 14.1216 21.8395 15.0334 22.1788 15.7792C22.5201 16.5295 22.7402 17.2377 22.6624 17.9528C22.5447 19.0348 21.9746 20.0164 21.0931 20.6547C20.5105 21.0766 19.7864 21.2363 18.9654 21.3117C18.1495 21.3865 17.0997 21.3865 15.7802 21.3865H8.22014C6.90062 21.3865 5.85082 21.3865 5.03491 21.3117C4.214 21.2363 3.48983 21.0766 2.90722 20.6547C2.02574 20.0164 1.45561 19.0348 1.33792 17.9528C1.26013 17.2377 1.48022 16.5295 1.82157 15.7792C2.16083 15.0334 2.681 14.1216 3.33481 12.9755L7.11458 6.34956C7.7789 5.185 8.307 4.25923 8.78269 3.57847C9.26075 2.89434 9.76435 2.33784 10.4269 2.04119ZM12.8787 3.59277C12.3198 3.34251 11.6806 3.34251 11.1216 3.59277C10.8898 3.69654 10.6047 3.93892 10.1762 4.55221C9.75053 5.16136 9.26051 6.01864 8.56918 7.23054L4.83344 13.7793C4.1527 14.9726 3.67208 15.8168 3.36898 16.4831C3.06417 17.1532 3.00061 17.5176 3.02795 17.769C3.09367 18.3732 3.41206 18.9214 3.90431 19.2778C4.1091 19.4261 4.45717 19.5515 5.19021 19.6188C5.91913 19.6856 6.8906 19.6865 8.26444 19.6865H15.7359C17.1098 19.6865 18.0812 19.6856 18.8101 19.6188C19.5432 19.5515 19.8913 19.4261 20.096 19.2778C20.5883 18.9214 20.9067 18.3732 20.9724 17.769C20.9997 17.5176 20.9362 17.1532 20.6314 16.4831C20.3283 15.8168 19.8477 14.9726 19.1669 13.7793L15.4312 7.23054C14.7398 6.01865 14.2498 5.16136 13.8242 4.55221C13.3956 3.93892 13.1105 3.69654 12.8787 3.59277Z" fill="#1A1A1A"/>
</svg>
