<svg width="24" height="24" viewBox="0 0 24 24" fill="none" xmlns="http://www.w3.org/2000/svg">
<path fill-rule="evenodd" clip-rule="evenodd" d="M20.9284 15.9402C21.5944 14.839 21.5944 13.3186 21.5944 10.3342C21.5944 7.29244 21.5944 5.77157 20.8893 4.66519C20.5364 4.11134 20.0665 3.64146 19.5127 3.28852C18.4063 2.5835 16.8854 2.5835 13.8437 2.5835C11.18 2.5835 9.68263 2.5835 8.60856 3.05695C8.45612 3.12415 8.31219 3.20089 8.17468 3.28852C7.76505 3.54956 7.40135 3.87456 7.09692 4.2502H13.0152C16.183 4.2502 17.7669 4.2502 18.7511 5.23432C19.7352 6.21844 19.7352 7.80236 19.7352 10.9702V17.2285C20.1929 16.8968 20.5847 16.4812 20.8893 16.0032C20.9026 15.9823 20.9156 15.9613 20.9284 15.9402Z" fill="#1A1A1A"/>
<path fill-rule="evenodd" clip-rule="evenodd" d="M9.43861 5.6499H11.5612C12.9233 5.64988 14.0313 5.64986 14.905 5.76732C15.8162 5.88983 16.5987 6.15395 17.2223 6.77754C17.8459 7.40114 18.11 8.18363 18.2325 9.09483C18.35 9.96851 18.3499 11.0765 18.3499 12.4386V14.5612C18.3499 15.9233 18.35 17.0313 18.2325 17.905C18.11 18.8162 17.8459 19.5987 17.2223 20.2223C16.5987 20.8459 15.8162 21.11 14.905 21.2325C14.0313 21.35 12.9233 21.3499 11.5612 21.3499H9.43864C8.07653 21.3499 6.96851 21.35 6.09483 21.2325C5.18363 21.11 4.40114 20.8459 3.77754 20.2223C3.15395 19.5987 2.88983 18.8162 2.76732 17.905C2.64986 17.0313 2.64988 15.9233 2.6499 14.5612V12.4386C2.64988 11.0765 2.64986 9.9685 2.76732 9.09483C2.88983 8.18363 3.15395 7.40114 3.77754 6.77754C4.40114 6.15395 5.18363 5.88983 6.09483 5.76732C6.9685 5.64986 8.07652 5.64988 9.43861 5.6499ZM6.32135 7.45216C5.59866 7.54932 5.23471 7.72454 4.97962 7.97962C4.72454 8.23471 4.54932 8.59866 4.45216 9.32135C4.35171 10.0685 4.3499 11.0617 4.3499 12.4999V14.4999C4.3499 15.9381 4.35171 16.9313 4.45216 17.6785C4.54932 18.4011 4.72454 18.7651 4.97962 19.0202C5.23471 19.2753 5.59866 19.4505 6.32135 19.5476C7.06849 19.6481 8.06166 19.6499 9.4999 19.6499H11.4999C12.9381 19.6499 13.9313 19.6481 14.6785 19.5476C15.4011 19.4505 15.7651 19.2753 16.0202 19.0202C16.2753 18.7651 16.4505 18.4011 16.5476 17.6785C16.6481 16.9313 16.6499 15.9381 16.6499 14.4999V12.4999C16.6499 11.0617 16.6481 10.0685 16.5476 9.32135C16.4505 8.59866 16.2753 8.23471 16.0202 7.97962C15.7651 7.72454 15.4011 7.54932 14.6785 7.45216C13.9313 7.35171 12.9381 7.3499 11.4999 7.3499H9.4999C8.06166 7.3499 7.06849 7.35171 6.32135 7.45216Z" fill="#1A1A1A"/>
</svg>
