<svg width="24" height="24" viewBox="0 0 24 24" fill="none" xmlns="http://www.w3.org/2000/svg">
<path fill-rule="evenodd" clip-rule="evenodd" d="M4.29406 2.05518C4.04256 1.92618 3.74295 1.93277 3.49737 2.07272C3.25179 2.21266 3.09339 2.46706 3.07617 2.74919C3.0461 3.24193 2.98651 3.73974 2.89909 4.23091C2.86895 4.40022 2.83554 4.56861 2.79892 4.73559C2.692 5.22318 2.55245 5.72273 2.37701 6.21977C2.21407 6.68136 2.02066 7.13936 1.79453 7.58278C1.66469 7.83736 1.67367 8.14057 1.81832 8.38703C1.96298 8.63348 2.22335 8.78914 2.50892 8.79989C3.00527 8.81859 3.4983 8.87324 3.97999 8.95725C4.48078 9.0446 4.9679 9.16344 5.43204 9.30576C5.59643 9.35617 5.7603 9.41022 5.9232 9.46778C6.36832 9.62505 6.80539 9.80817 7.22587 10.0139C7.80288 10.7696 8.5232 11.562 9.34857 12.3552C10.3483 13.316 11.4899 14.2661 12.6946 15.1418C13.8993 16.0174 15.1448 16.8023 16.3468 17.4414C16.4349 17.4882 16.5227 17.5343 16.6102 17.5794C16.0844 18.0006 15.5008 18.3462 14.876 18.605C14.0085 18.9643 13.0788 19.1493 12.1398 19.1493C11.2009 19.1493 10.2711 18.9643 9.40364 18.605C8.53616 18.2457 7.74795 17.719 7.08401 17.0551C6.42007 16.3911 5.8934 15.6029 5.53408 14.7354C5.17476 13.868 4.98982 12.9382 4.98982 11.9993C4.98982 11.474 5.0477 10.9516 5.1616 10.4414C4.85008 10.3467 4.21172 10.1677 3.50655 10.0527C3.36285 10.69 3.28982 11.3428 3.28982 11.9993C3.28982 13.1615 3.51873 14.3123 3.96349 15.386C4.40824 16.4597 5.06013 17.4354 5.88193 18.2572C6.70372 19.079 7.67934 19.7308 8.75307 20.1756C9.8268 20.6203 10.9776 20.8493 12.1398 20.8493C13.302 20.8493 14.4528 20.6203 15.5266 20.1756C16.5548 19.7497 17.493 19.1339 18.2923 18.3608C18.7826 18.5609 19.2534 18.7265 19.6979 18.8538C20.681 19.1353 21.6158 19.2533 22.3662 19.0662C22.758 18.9685 23.1318 18.779 23.4153 18.4567C23.703 18.1297 23.8404 17.7308 23.866 17.3199C23.914 16.5484 23.574 15.6908 23.0722 14.8567C22.5744 14.0295 21.8594 13.1311 20.9872 12.2167C20.9889 12.1443 20.9898 12.0718 20.9898 11.9993C20.9898 10.8371 20.7609 9.68624 20.3162 8.61251C19.8714 7.53878 19.2195 6.56316 18.3977 5.74136C17.5759 4.91956 16.6003 4.26768 15.5266 3.82292C14.4528 3.37817 13.302 3.14926 12.1398 3.14926C11.6919 3.14926 11.2458 3.18325 10.805 3.2505C11.0759 3.75816 11.1331 4.38087 10.8898 4.95937C11.3015 4.88628 11.7197 4.84926 12.1398 4.84926C13.0788 4.84926 14.0085 5.0342 14.876 5.39352C15.7435 5.75284 16.5317 6.27951 17.1956 6.94345C17.8596 7.60738 18.3862 8.39559 18.7456 9.26307C19.1049 10.1306 19.2898 11.0603 19.2898 11.9993C19.2898 12.9382 19.1049 13.868 18.7456 14.7354C18.5142 15.294 18.2135 15.8197 17.8514 16.3005C17.6208 16.1882 17.385 16.0681 17.1449 15.9404C16.0196 15.3421 14.8412 14.6004 13.6941 13.7667C12.5472 12.933 11.4659 12.0323 10.5265 11.1295C9.72154 10.3559 9.0459 9.60494 8.52745 8.91688C8.55814 8.56709 8.60466 8.21641 8.6667 7.86846C8.69544 7.70732 8.72748 7.54686 8.76278 7.38747C8.86777 6.91348 9.00547 6.43222 9.17852 5.95507C9.34464 5.49706 9.54293 5.04392 9.77542 4.60526C9.90944 4.35238 9.90502 4.04857 9.7637 3.79969C9.62237 3.55082 9.36372 3.39137 9.07788 3.37692C8.58104 3.3518 8.08914 3.29015 7.60985 3.19939C7.09282 3.10149 6.59201 2.96999 6.11745 2.81493C5.96315 2.76452 5.80945 2.71091 5.6567 2.65428C5.18914 2.48093 4.73156 2.27959 4.29406 2.05518ZM4.54778 4.52436C4.57589 4.36643 4.60146 4.20783 4.62445 4.04883C4.77343 4.10988 4.92355 4.16845 5.07456 4.22444C5.24765 4.28861 5.42203 4.34944 5.59733 4.40672C6.13627 4.58281 6.70672 4.73274 7.29828 4.84476C7.45735 4.87488 7.61805 4.90228 7.78018 4.92672C7.71825 5.07887 7.65964 5.23143 7.60426 5.38412C7.40539 5.93244 7.24778 6.48364 7.1278 7.02533C7.08745 7.20752 7.05087 7.39071 7.0181 7.57451C6.98932 7.73595 6.96345 7.89794 6.94053 8.06025C6.78833 8.00042 6.63509 7.94325 6.48108 7.88884C6.29613 7.82349 6.10995 7.76207 5.92297 7.70473C5.39519 7.5429 4.84023 7.40741 4.26774 7.30755C4.10858 7.27979 3.94795 7.25477 3.78607 7.23269C3.84586 7.08098 3.90251 6.92903 3.95612 6.77718C4.15582 6.21142 4.31383 5.64526 4.43465 5.09429C4.47605 4.90549 4.51379 4.71535 4.54778 4.52436ZM20.3162 15.386C20.4494 15.0643 20.5633 14.7357 20.6574 14.4019C21.0482 14.8767 21.3695 15.3243 21.6155 15.7332C22.0647 16.4797 22.1846 16.9682 22.1693 17.2144C22.166 17.2663 22.1573 17.2964 22.1517 17.311C22.1465 17.3244 22.1421 17.3302 22.1389 17.3339C22.135 17.3382 22.0961 17.3815 21.9549 17.4167C21.6395 17.4953 21.0532 17.4736 20.1659 17.2195C19.9389 17.1545 19.7002 17.0766 19.451 16.9862C19.7928 16.4851 20.0829 15.949 20.3162 15.386Z" fill="#1A1A1A"/>
</svg>
