<svg width="24" height="24" viewBox="0 0 24 24" fill="none" xmlns="http://www.w3.org/2000/svg">
<path fill-rule="evenodd" clip-rule="evenodd" d="M12.5 1C13.0523 1 13.5 1.44772 13.5 2V4C13.5 4.55228 13.0523 5 12.5 5C11.9477 5 11.5 4.55228 11.5 4V2C11.5 1.44772 11.9477 1 12.5 1ZM12.4999 7.85039C10.2079 7.85039 8.3499 9.70841 8.3499 12.0004C8.3499 14.2924 10.2079 16.1504 12.4999 16.1504C14.7919 16.1504 16.6499 14.2924 16.6499 12.0004C16.6499 9.70841 14.7919 7.85039 12.4999 7.85039ZM6.6499 12.0004C6.6499 8.76952 9.26904 6.15039 12.4999 6.15039C15.7308 6.15039 18.3499 8.76952 18.3499 12.0004C18.3499 15.2313 15.7308 17.8504 12.4999 17.8504C9.26904 17.8504 6.6499 15.2313 6.6499 12.0004ZM13.5 20C13.5 19.4477 13.0523 19 12.5 19C11.9477 19 11.5 19.4477 11.5 20V22C11.5 22.5523 11.9477 23 12.5 23C13.0523 23 13.5 22.5523 13.5 22V20ZM5.5 12C5.5 12.5523 5.05228 13 4.5 13H2.5C1.94772 13 1.5 12.5523 1.5 12C1.5 11.4477 1.94772 11 2.5 11H4.5C5.05228 11 5.5 11.4477 5.5 12ZM22.5 13C23.0523 13 23.5 12.5523 23.5 12C23.5 11.4477 23.0523 11 22.5 11H20.5C19.9477 11 19.5 11.4477 19.5 12C19.5 12.5523 19.9477 13 20.5 13H22.5ZM4.7928 4.29289C5.18332 3.90237 5.81649 3.90237 6.20701 4.29289L7.62123 5.70711C8.01175 6.09763 8.01175 6.7308 7.62123 7.12132C7.2307 7.51184 6.59754 7.51184 6.20701 7.12132L4.7928 5.70711C4.40228 5.31658 4.40228 4.68342 4.7928 4.29289ZM18.707 16.7929C18.3165 16.4024 17.6833 16.4024 17.2928 16.7929C16.9023 17.1834 16.9023 17.8166 17.2928 18.2071L18.707 19.6213C19.0975 20.0118 19.7307 20.0118 20.1212 19.6213C20.5118 19.2308 20.5118 18.5976 20.1212 18.2071L18.707 16.7929ZM7.70711 16.793C8.09763 17.1836 8.09763 17.8167 7.70711 18.2073L6.29289 19.6215C5.90237 20.012 5.2692 20.012 4.87868 19.6215C4.48816 19.2309 4.48816 18.5978 4.87868 18.2073L6.29289 16.793C6.68342 16.4025 7.31658 16.4025 7.70711 16.793ZM20.2071 5.70726C20.5976 5.31673 20.5976 4.68357 20.2071 4.29304C19.8166 3.90252 19.1834 3.90252 18.7929 4.29304L17.3787 5.70726C16.9882 6.09778 16.9882 6.73095 17.3787 7.12147C17.7692 7.512 18.4024 7.512 18.7929 7.12147L20.2071 5.70726Z" fill="#1A1A1A"/>
</svg>
