<svg width="24" height="24" viewBox="0 0 24 24" fill="none" xmlns="http://www.w3.org/2000/svg">
<g clip-path="url(#clip0_82776_55573)">
<path fill-rule="evenodd" clip-rule="evenodd" d="M12 0.464355C12.4694 0.464355 12.85 0.844913 12.85 1.31436V4.31436C12.85 4.7838 12.4694 5.16436 12 5.16436C11.5305 5.16436 11.15 4.7838 11.15 4.31436V1.31436C11.15 0.844913 11.5305 0.464355 12 0.464355ZM12 18.4643C12.4694 18.4643 12.85 18.8449 12.85 19.3143V22.3143C12.85 22.7838 12.4694 23.1643 12 23.1643C11.5305 23.1643 11.15 22.7838 11.15 22.3143V19.3143C11.15 18.8449 11.5305 18.4643 12 18.4643ZM20.0259 4.98958C20.3578 4.65764 20.3578 4.11945 20.0259 3.7875C19.6939 3.45556 19.1558 3.45556 18.8238 3.7875L16.7025 5.90882C16.3705 6.24077 16.3705 6.77896 16.7025 7.1109C17.0344 7.44285 17.5726 7.44285 17.9046 7.11091L20.0259 4.98958ZM7.29787 16.5154C7.62981 16.8474 7.62981 17.3856 7.29787 17.7175L5.17655 19.8388C4.8446 20.1708 4.30641 20.1708 3.97447 19.8388C3.64252 19.5069 3.64252 18.9687 3.97446 18.6368L6.09579 16.5154C6.42773 16.1835 6.96592 16.1835 7.29787 16.5154ZM22.5001 12.6641C22.9696 12.6641 23.3501 12.2835 23.3501 11.8141C23.3501 11.3446 22.9696 10.9641 22.5001 10.9641H19.5001C19.0307 10.9641 18.6501 11.3446 18.6501 11.8141C18.6501 12.2835 19.0307 12.6641 19.5001 12.6641H22.5001ZM5.35015 11.8141C5.35015 12.2835 4.96959 12.6641 4.50015 12.6641H1.50015C1.0307 12.6641 0.650146 12.2835 0.650146 11.8141C0.650146 11.3446 1.0307 10.9641 1.50015 10.9641H4.50015C4.96959 10.9641 5.35015 11.3446 5.35015 11.8141ZM18.8239 19.8392C19.1558 20.1711 19.694 20.1711 20.026 19.8392C20.3579 19.5073 20.3579 18.9691 20.026 18.6371L17.9046 16.5158C17.5727 16.1839 17.0345 16.1839 16.7026 16.5158C16.3706 16.8477 16.3706 17.3859 16.7026 17.7179L18.8239 19.8392ZM7.29793 7.11126C6.96599 7.44321 6.4278 7.44321 6.09585 7.11126L3.97453 4.98994C3.64259 4.658 3.64259 4.11981 3.97453 3.78786C4.30648 3.45592 4.84467 3.45592 5.17661 3.78786L7.29793 5.90918C7.62988 6.24113 7.62988 6.77932 7.29793 7.11126ZM15.8 11.8143C15.8 13.913 14.0987 15.6143 12 15.6143C9.90132 15.6143 8.2 13.913 8.2 11.8143C8.2 9.71565 9.90132 8.01433 12 8.01433C14.0987 8.01433 15.8 9.71565 15.8 11.8143ZM17.5 11.8143C17.5 14.8519 15.0376 17.3143 12 17.3143C8.96243 17.3143 6.5 14.8519 6.5 11.8143C6.5 8.77676 8.96243 6.31433 12 6.31433C15.0376 6.31433 17.5 8.77676 17.5 11.8143Z" fill="#1A1A1A"/>
</g>
<defs>
<clipPath id="clip0_82776_55573">
<rect width="24" height="24" fill="white"/>
</clipPath>
</defs>
</svg>
