<svg width="24" height="24" viewBox="0 0 24 24" fill="none" xmlns="http://www.w3.org/2000/svg">
<path d="M16.8989 6.44867C17.2309 6.11672 17.7691 6.11672 18.101 6.44867L21.9901 10.3378C22.9078 11.2555 22.9078 12.7434 21.9901 13.6612L18.101 17.5502C17.7691 17.8822 17.2309 17.8822 16.8989 17.5502C16.567 17.2183 16.567 16.6801 16.8989 16.3482L20.788 12.4591C21.0418 12.2052 21.0418 11.7937 20.788 11.5398L16.8989 7.65075C16.567 7.3188 16.567 6.78061 16.8989 6.44867Z" fill="#1A1A1A"/>
<path d="M7.101 17.5513C6.76906 17.8832 6.23087 17.8832 5.89892 17.5513L2.00983 13.6622C1.0921 12.7445 1.0921 11.2565 2.00983 10.3388L5.89892 6.4497C6.23086 6.11775 6.76906 6.11775 7.101 6.4497C7.43295 6.78164 7.43295 7.31983 7.101 7.65178L3.21191 11.5409C2.95807 11.7947 2.95807 12.2063 3.21191 12.4601L7.101 16.3492C7.43295 16.6811 7.43295 17.2193 7.101 17.5513Z" fill="#1A1A1A"/>
<path d="M13.8715 8.76969C13.9925 8.3161 13.7228 7.85033 13.2692 7.72937C12.8156 7.60842 12.3499 7.87807 12.2289 8.33166L10.2289 15.8316C10.1079 16.2852 10.3776 16.751 10.8312 16.8719C11.2848 16.9929 11.7505 16.7232 11.8715 16.2696L13.8715 8.76969Z" fill="#1A1A1A"/>
</svg>
