<svg width="52" height="52" viewBox="0 0 52 52" fill="none" xmlns="http://www.w3.org/2000/svg">
<g clip-path="url(#clip0_834_43907)">
<g clip-path="url(#clip1_834_43907)">
<path d="M13.6248 52.0135H38.3718C43.0381 52.0135 45.3713 52.0135 46.8209 50.5639C48.2706 49.1142 48.2706 46.7811 48.2706 42.1147V13.651C48.2706 11.8025 48.2706 10.8781 47.9513 10.0329C47.6321 9.18761 47.021 8.4941 45.7989 7.10707L42.5325 3.39975C41.0774 1.74827 40.3498 0.922532 39.3784 0.483727C38.4069 0.0449219 37.3064 0.0449219 35.1053 0.0449219H13.6249C8.95852 0.0449219 6.62536 0.0449219 5.17572 1.49456C3.72607 2.94421 3.72607 5.27738 3.72607 9.94371V42.1147C3.72607 46.7811 3.72607 49.1142 5.17572 50.5639C6.62536 52.0135 8.95852 52.0135 13.6248 52.0135Z" fill="#FCFCFC"/>
<path opacity="0.4" fill-rule="evenodd" clip-rule="evenodd" d="M35.1052 0.0449219C37.3061 0.0449219 38.4068 0.0452219 39.3782 0.483968C40.3496 0.922758 41.0775 1.7483 42.5325 3.39966L45.7989 7.10722C47.0208 8.49411 47.632 9.1878 47.9513 10.033C48.1906 10.6668 48.2505 11.3453 48.2655 12.4244L48.2708 13.6511V42.1145L48.2676 43.7581C48.2478 47.3505 48.0892 49.2954 46.8208 50.5638L46.6823 50.6955C45.223 52.0134 42.892 52.0137 38.3716 52.0137H13.6247L11.9817 52.0105C8.51731 51.9914 6.58499 51.8435 5.31405 50.6955L5.17546 50.5638C3.90727 49.2954 3.74854 47.3503 3.72872 43.7581L3.72607 42.1145V9.94356C3.72607 5.42303 3.72615 3.09205 5.04427 1.63289L5.17546 1.4943C6.44392 0.225931 8.38921 0.0673807 11.9817 0.0475667L13.6247 0.0449219H35.1052ZM13.6247 0.748983C11.2718 0.748983 9.57785 0.750655 8.28792 0.924072C7.01829 1.09477 6.24592 1.42047 5.67375 1.99259C5.1016 2.56474 4.77594 3.33719 4.60522 4.60677C4.43181 5.89666 4.43014 7.59071 4.43014 9.94356V42.1145C4.43014 44.4675 4.43182 46.1619 4.60522 47.4519C4.77593 48.7214 5.10166 49.4939 5.67375 50.066L5.78324 50.1702C6.34421 50.6782 7.09753 50.9745 8.28792 51.1346C9.57784 51.308 11.2718 51.3091 13.6247 51.3091H38.3716C40.7247 51.3091 42.4189 51.308 43.7089 51.1346C44.9785 50.9639 45.7509 50.6382 46.3231 50.066L46.4273 49.956C46.935 49.3951 47.2316 48.642 47.3916 47.4519C47.565 46.1619 47.5662 44.4675 47.5662 42.1145V18.6674H47.5471V13.5591C47.5471 12.7523 47.5466 12.1789 47.4926 11.741C47.4397 11.3118 47.3399 11.0603 47.1758 10.8724C47.1314 10.8216 47.0833 10.7735 47.0324 10.7291C46.8446 10.5651 46.5931 10.4657 46.1639 10.4128C45.726 10.3588 45.1531 10.3577 44.3463 10.3577C43.2916 10.3577 42.4679 10.3586 41.8221 10.2789C41.2087 10.2033 40.7134 10.0512 40.3044 9.72721L40.2235 9.66003C40.128 9.57658 40.0382 9.48631 39.9548 9.39079C39.5844 8.96674 39.4166 8.44693 39.3359 7.79277C39.2563 7.14691 39.2571 6.32319 39.2571 5.26851V4.12752C39.2571 3.24283 39.2561 2.6145 39.192 2.13806C39.1372 1.73023 39.0405 1.47394 38.8863 1.28536L38.8164 1.20813C38.621 1.0127 38.3528 0.895253 37.8865 0.83256C37.41 0.768503 36.7818 0.768026 35.8971 0.768026H30.9475V0.748983H13.6247ZM39.7908 1.55725C39.834 1.70957 39.8665 1.87165 39.8897 2.04443C39.9615 2.57867 39.9611 3.26278 39.9611 4.12752V5.26851C39.9611 6.34126 39.9616 7.1138 40.0347 7.70654C40.1067 8.29075 40.2449 8.65265 40.4854 8.92794L40.5827 9.03215C40.6163 9.06573 40.6511 9.0982 40.6869 9.12948L40.7948 9.21517C41.0564 9.4036 41.3971 9.51711 41.9083 9.58016C42.501 9.65327 43.2735 9.65369 44.3463 9.65369C45.135 9.65369 45.7591 9.65343 46.2501 9.71399C46.5917 9.75613 46.8906 9.83134 47.1536 9.9679C46.902 9.47265 46.4849 8.95947 45.7074 8.06995L45.2704 7.57271L42.004 3.86515C40.9576 2.67755 40.3409 1.98818 39.7908 1.55725Z" fill="#009CFF"/>
<path d="M21.705 38.0981H18.9202L22.3546 23.2731C22.7207 21.6927 23.2254 19.5874 24.8476 19.5874H26.6309C27.0852 19.5874 27.3123 19.5874 27.4312 19.7351C27.5501 19.8827 27.5016 20.1046 27.4046 20.5484L27.3667 20.7216L24.177 34.407L24.1706 34.4344C23.8034 36.0102 23.3168 38.0981 21.705 38.0981Z" fill="#009CFF"/>
<path d="M18.3137 38.0981H21.0985L17.6641 23.2731C17.298 21.6927 16.7933 19.5874 15.1711 19.5874H12.3876L15.8417 34.407L15.8481 34.4344C16.2153 36.0102 16.7019 38.0981 18.3137 38.0981Z" fill="#009CFF"/>
<path d="M30.2887 38.0981H33.0735L29.6391 23.2731C29.273 21.6927 28.7683 19.5874 27.146 19.5874H25.2785C24.8962 19.5874 24.705 19.5874 24.5908 19.6943C24.5624 19.7209 24.538 19.7517 24.5185 19.7855C24.4403 19.9209 24.4837 20.1071 24.5705 20.4794L27.8167 34.407L27.8231 34.4344C28.1903 36.0102 28.6769 38.0981 30.2887 38.0981Z" fill="#009CFF"/>
<path d="M33.683 38.0981H30.8982L34.3326 23.2731C34.6987 21.6927 35.2034 19.5874 36.8256 19.5874H39.6091L36.155 34.407L36.1486 34.4344C35.7814 36.0102 35.2948 38.0981 33.683 38.0981Z" fill="#009CFF"/>
</g>
</g>
<defs>
<clipPath id="clip0_834_43907">
<rect width="52" height="52" fill="white"/>
</clipPath>
<clipPath id="clip1_834_43907">
<rect width="52" height="52" fill="white"/>
</clipPath>
</defs>
</svg>
