<svg width="24" height="24" viewBox="0 0 24 24" fill="none" xmlns="http://www.w3.org/2000/svg">
<path d="M20.1553 15.3301C20.6252 15.3301 21.0059 15.7107 21.0059 16.1807V18.3984C21.0058 19.974 19.7289 21.2509 18.1533 21.251H5.85352C4.27794 21.2508 3.00108 19.974 3.00098 18.3984V16.1807C3.00098 15.7107 3.3816 15.3301 3.85156 15.3301C4.32153 15.3301 4.70215 15.7107 4.70215 16.1807V18.3984C4.70225 19.0341 5.21787 19.5497 5.85352 19.5498H18.1533C18.789 19.5497 19.3046 19.0341 19.3047 18.3984V16.1807C19.3047 15.7107 19.6853 15.3301 20.1553 15.3301ZM12 2.75C12.47 2.75 12.8506 3.13062 12.8506 3.60059V13.9814L16.9023 9.92969C17.2347 9.59738 17.7741 9.59739 18.1064 9.92969C18.4384 10.2619 18.4384 10.8006 18.1064 11.1328L13.3135 15.9248C12.5869 16.6513 11.4091 16.6513 10.6826 15.9248L5.89062 11.1328L5.83203 11.0684C5.55945 10.7341 5.5791 10.2412 5.89062 9.92969C6.20216 9.61815 6.69507 9.59851 7.0293 9.87109L7.09375 9.92969L11.1494 13.9854V3.60059C11.1494 3.13063 11.5301 2.75002 12 2.75Z" fill="#1A1A1A"/>
</svg>
