<svg width="24" height="24" viewBox="0 0 24 24" fill="none" xmlns="http://www.w3.org/2000/svg">
<path d="M10.0783 2.33917C11.989 1.95911 13.9695 2.15417 15.7693 2.89969C17.5692 3.64522 19.1075 4.90772 20.1899 6.52754C21.2722 8.14736 21.8499 10.0518 21.8499 11.9999C21.8499 12.4693 21.4693 12.8499 20.9999 12.8499C20.5305 12.8499 20.1499 12.4693 20.1499 11.9999C20.1499 10.388 19.6719 8.81227 18.7764 7.47201C17.8808 6.13175 16.608 5.08714 15.1188 4.47029C13.6296 3.85343 11.9909 3.69204 10.4099 4.00651C8.82897 4.32098 7.37678 5.09719 6.23699 6.23699C5.09719 7.37678 4.32098 8.82897 4.00651 10.4099C3.69204 11.9909 3.85343 13.6296 4.47029 15.1188C5.08714 16.608 6.13175 17.8808 7.47201 18.7764C8.81227 19.6719 10.388 20.1499 11.9999 20.1499C12.4693 20.1499 12.8499 20.5305 12.8499 20.9999C12.8499 21.4693 12.4693 21.8499 11.9999 21.8499C10.0518 21.8499 8.14736 21.2722 6.52754 20.1899C4.90772 19.1075 3.64522 17.5692 2.89969 15.7693C2.15417 13.9695 1.95911 11.989 2.33917 10.0783C2.71924 8.16755 3.65736 6.41245 5.0349 5.0349C6.41245 3.65736 8.16755 2.71924 10.0783 2.33917Z" fill="#1A1A1A"/>
<path d="M16.6332 14.675C16.8679 14.2685 16.7286 13.7486 16.3221 13.5139C15.9155 13.2792 15.3957 13.4185 15.1609 13.825C14.8406 14.3799 14.3798 14.8407 13.8249 15.161C13.2701 15.4814 12.6407 15.65 11.9999 15.65C11.3592 15.65 10.7298 15.4814 10.1749 15.161C9.62007 14.8407 9.1593 14.3799 8.83895 13.825C8.60423 13.4185 8.08438 13.2792 7.67783 13.5139C7.27128 13.7486 7.13198 14.2685 7.36671 14.675C7.83627 15.4883 8.51164 16.1637 9.32494 16.6333C10.1382 17.1028 11.0608 17.35 11.9999 17.35C12.9391 17.35 13.8616 17.1028 14.6749 16.6333C15.4882 16.1637 16.1636 15.4883 16.6332 14.675Z" fill="#1A1A1A"/>
<path d="M8.84951 7.55005C9.31895 7.55005 9.69951 7.93061 9.69951 8.40005V11.1C9.69951 11.5695 9.31895 11.95 8.84951 11.95C8.38007 11.95 7.99951 11.5695 7.99951 11.1V8.40005C7.99951 7.93061 8.38007 7.55005 8.84951 7.55005Z" fill="#1A1A1A"/>
<path d="M15.9983 8.40005C15.9983 7.93061 15.6178 7.55005 15.1483 7.55005C14.6789 7.55005 14.2983 7.93061 14.2983 8.40005V11.1C14.2983 11.5695 14.6789 11.95 15.1483 11.95C15.6178 11.95 15.9983 11.5695 15.9983 11.1V8.40005Z" fill="#1A1A1A"/>
<path d="M15.1499 18.7499C15.1499 18.2805 15.5305 17.8999 15.9999 17.8999H18.1499V15.7499C18.1499 15.2804 18.5304 14.8999 18.9999 14.8999C19.4693 14.8999 19.8499 15.2804 19.8499 15.7499V17.8999H21.9999C22.4693 17.8999 22.8499 18.2805 22.8499 18.7499C22.8499 19.2193 22.4693 19.5999 21.9999 19.5999H19.8499V21.7499C19.8499 22.2193 19.4693 22.5999 18.9999 22.5999C18.5304 22.5999 18.1499 22.2193 18.1499 21.7499V19.5999H15.9999C15.5305 19.5999 15.1499 19.2193 15.1499 18.7499Z" fill="#1A1A1A"/>
</svg>
