<svg width="24" height="24" viewBox="0 0 24 24" fill="none" xmlns="http://www.w3.org/2000/svg">
<path fill-rule="evenodd" clip-rule="evenodd" d="M12.5695 2.69806C13.1871 2.40973 13.794 2.63523 14.1491 3.00971C14.4889 3.36808 14.666 3.91642 14.5159 4.46646C14.1528 5.79737 14.2837 7.24584 14.6453 8.49789C14.847 9.19663 15.1075 9.79078 15.3609 10.2407C15.5494 9.87569 15.6537 9.48702 15.7115 9.03237C15.7821 8.47648 16.1485 8.02184 16.6448 7.84511C17.1805 7.65436 17.8096 7.81752 18.1735 8.36649C19.455 10.2999 20.0764 13.0727 19.7746 15.0839C19.1323 19.364 15.8686 21.8499 12.0004 21.8499C8.13225 21.8499 4.86858 19.3641 4.22538 15.0841C4.06594 14.0232 4.16624 12.7387 4.45895 11.4982C4.75246 10.2543 5.25555 8.98599 5.95776 7.96862C6.29529 7.4796 6.87773 7.2781 7.41754 7.4584C7.72423 7.56084 7.96945 7.76982 8.12654 8.03742C8.66993 6.14491 9.87915 3.95397 12.5695 2.69806ZM13.012 8.96951C12.6323 7.65443 12.4451 6.07419 12.7587 4.51458C9.40522 6.45653 9.38343 10.4337 9.38343 11.4424V13.1559L8.01914 12.1191C7.27453 11.5533 6.94074 10.7265 6.77729 9.9565C6.49781 10.5531 6.27252 11.2148 6.11352 11.8886C5.85511 12.9837 5.78789 14.0423 5.9065 14.8315C6.41897 18.2415 8.93459 20.1499 12.0004 20.1499C15.0663 20.1499 17.5817 18.2415 18.0934 14.8317C18.2911 13.5145 17.9645 11.643 17.2229 10.1254C17.0071 10.8894 16.6229 11.5794 15.9706 12.2533L15.3902 12.853L14.78 12.2835C14.1061 11.6547 13.4243 10.3973 13.012 8.96951Z" fill="#1A1A1A"/>
</svg>
