<svg width="24" height="24" viewBox="0 0 24 24" fill="none" xmlns="http://www.w3.org/2000/svg">
<path d="M18.4397 3.43896C19.0255 2.8533 19.975 2.85322 20.5608 3.43896C21.1464 4.02472 21.1464 4.97432 20.5608 5.56006L14.1213 11.9995L20.5608 18.439C21.1464 19.0247 21.1464 19.9743 20.5608 20.5601C19.9751 21.1458 19.0255 21.1457 18.4397 20.5601L12.0002 14.1206L5.56079 20.5601C4.97506 21.1458 4.0255 21.1457 3.4397 20.5601C2.85391 19.9743 2.85391 19.0248 3.4397 18.439L9.87915 11.9995L3.4397 5.56006C2.85391 4.97427 2.85391 4.02475 3.4397 3.43896C4.02549 2.8533 4.97505 2.85322 5.56079 3.43896L12.0002 9.87842L18.4397 3.43896Z" fill="#1A1A1A"/>
</svg>
