<svg width="24" height="24" viewBox="0 0 24 24" fill="none" xmlns="http://www.w3.org/2000/svg">
<path fill-rule="evenodd" clip-rule="evenodd" d="M7.39896 2.39935C7.06702 2.7313 7.06702 3.26949 7.39896 3.60143L15.2676 11.4701C15.4755 11.678 15.5948 11.7983 15.6754 11.8932C15.7084 11.932 15.7248 11.9553 15.7318 11.966C15.7371 11.9886 15.7371 12.0122 15.7318 12.0347C15.7248 12.0455 15.7084 12.0688 15.6754 12.1076C15.5948 12.2025 15.4755 12.3228 15.2676 12.5307L7.39896 20.3994C7.06702 20.7313 7.06702 21.2695 7.39896 21.6014C7.73091 21.9334 8.2691 21.9334 8.60104 21.6014L16.4899 13.7126C16.6705 13.532 16.8403 13.3622 16.9714 13.2078C17.1138 13.0401 17.2597 12.8355 17.3452 12.5721C17.466 12.2005 17.466 11.8003 17.3452 11.4287C17.2597 11.1653 17.1138 10.9607 16.9714 10.793C16.8403 10.6386 16.6705 10.4688 16.4899 10.2882L8.60104 2.39935C8.2691 2.0674 7.73091 2.0674 7.39896 2.39935Z" fill="#1A1A1A" stroke="#1A1A1A" stroke-width="1.5" stroke-linecap="round" stroke-linejoin="round"/>
</svg>
