<svg width="24" height="24" viewBox="0 0 24 24" fill="none" xmlns="http://www.w3.org/2000/svg">
<path fill-rule="evenodd" clip-rule="evenodd" d="M11.9484 2.17988C11.2042 1.4751 10.186 1.22714 9.30977 1.16652C8.22386 1.0914 7.13454 1.28381 6.44758 1.48516C6.08545 1.59129 5.83665 1.92348 5.83665 2.30084C5.83665 4.21374 6.84315 5.44005 8.04549 6.14587C9.04537 6.73284 10.1894 6.97315 11.063 7.02807C11.3295 7.28565 11.6534 7.48645 12.0105 7.62877C12.2087 7.70778 12.4834 7.78803 12.816 7.88519C13.7595 8.16084 15.1688 8.57256 16.6189 9.47814C18.4801 10.6404 20.1499 12.5073 20.1499 15.6998C20.1499 17.3471 19.7633 18.4449 19.2259 19.1908C18.6881 19.9373 17.9433 20.409 17.0894 20.7045C15.6372 21.207 14.0336 21.1634 12.8387 21.1309C12.573 21.1237 12.3275 21.117 12.1083 21.117C11.9889 21.117 11.8591 21.118 11.7204 21.1191C10.5277 21.1287 8.67277 21.1436 7.03132 20.5468C6.13585 20.2212 5.35488 19.7287 4.79512 18.9914C4.24073 18.2611 3.8499 17.2209 3.8499 15.6998C3.8499 13.8795 4.58806 12.2786 5.53367 11.0987C6.00547 10.5099 6.51766 10.0407 6.99132 9.71237C7.47989 9.37368 7.86963 9.22448 8.09742 9.19487C8.56294 9.13436 8.89127 8.70793 8.83076 8.2424C8.77025 7.77688 8.34382 7.44854 7.87829 7.50905C7.27475 7.5875 6.62534 7.89754 6.02279 8.31524C5.40533 8.74328 4.77445 9.3276 4.2071 10.0355C3.0744 11.4489 2.1499 13.4139 2.1499 15.6998C2.1499 17.5284 2.62654 18.9464 3.44113 20.0193C4.25034 21.0852 5.33986 21.7407 6.45042 22.1445C8.40481 22.8551 10.5812 22.832 11.7473 22.8197C11.8817 22.8183 12.0027 22.817 12.1083 22.817C12.2642 22.817 12.4587 22.823 12.6844 22.83C13.8545 22.8662 15.8611 22.9284 17.6453 22.311C18.7432 21.9311 19.8147 21.2818 20.6052 20.1845C21.3961 19.0868 21.8499 17.6182 21.8499 15.6998C21.8499 11.7605 19.7246 9.41328 17.5194 8.03621C15.8018 6.96359 13.854 6.40463 13.0193 6.16513C12.8311 6.11111 12.6995 6.07334 12.6399 6.0496C12.3522 5.93492 12.194 5.77992 12.116 5.64222C12.0462 5.51896 12.0096 5.35684 12.0567 5.13805C12.6318 3.57563 13.3704 3.10832 13.9557 2.99365C15.0245 2.82344 15.7707 3.20919 16.4461 3.76744C16.3212 3.9048 16.16 4.04447 15.9643 4.1812C15.5681 4.45804 15.134 4.65032 14.8765 4.73586C14.431 4.88384 14.1898 5.36496 14.3378 5.81047C14.4858 6.25597 14.9669 6.49716 15.4124 6.34918C15.8055 6.2186 16.3908 5.95704 16.9379 5.57475C17.4695 5.20333 18.0777 4.63961 18.3361 3.86715C18.441 3.55355 18.3545 3.20758 18.1144 2.98024C17.2408 2.15322 15.8681 0.960316 13.6714 1.31753L13.6496 1.32137C13.0266 1.4394 12.4542 1.7222 11.9484 2.17988ZM7.60288 2.96079C7.77677 3.77553 8.2767 4.31032 8.90612 4.67982C9.35278 4.94202 9.85865 5.11358 10.3381 5.21605C10.3459 5.04115 10.372 4.86427 10.4164 4.68735C10.4234 4.65962 10.4317 4.63226 10.4414 4.60538C10.5807 4.21996 10.7359 3.86941 10.9059 3.55292C10.5862 3.15274 10.0012 2.91841 9.19245 2.86247C8.64563 2.82464 8.08037 2.87632 7.60288 2.96079Z" fill="#1A1A1A"/>
<path d="M8.99941 11.3643C9.46886 11.3643 9.84941 11.7448 9.84941 12.2143V14.7857C9.84941 15.2551 9.46886 15.6357 8.99941 15.6357C8.52997 15.6357 8.14941 15.2551 8.14941 14.7857V12.2143C8.14941 11.7448 8.52997 11.3643 8.99941 11.3643Z" fill="#1A1A1A"/>
<path d="M16.5924 12.6709C16.963 12.3827 17.0297 11.8486 16.7415 11.4781C16.4533 11.1075 15.9193 11.0408 15.5487 11.329L13.6201 12.829C13.4072 12.9946 13.2855 13.2516 13.2923 13.5213C13.299 13.7911 13.4335 14.0416 13.6545 14.1963L15.7974 15.6963C16.182 15.9655 16.712 15.872 16.9812 15.4874C17.2504 15.1028 17.1569 14.5728 16.7723 14.3036L15.5728 13.4639L16.5924 12.6709Z" fill="#1A1A1A"/>
</svg>
