<svg width="24" height="24" viewBox="0 0 24 24" fill="none" xmlns="http://www.w3.org/2000/svg">
<path fill-rule="evenodd" clip-rule="evenodd" d="M11.9533 2.1499H12.0465C13.4114 2.14989 14.5006 2.14988 15.3721 2.23853C16.2676 2.32963 17.027 2.52134 17.6944 2.96728C18.224 3.32112 18.6787 3.77582 19.0325 4.30539C19.4785 4.97278 19.6702 5.73218 19.7613 6.62773C19.8499 7.49918 19.8499 8.58837 19.8499 9.95331V14.0465C19.8499 15.4114 19.8499 16.5006 19.7613 17.3721C19.6702 18.2676 19.4785 19.027 19.0325 19.6944C18.6787 20.224 18.224 20.6787 17.6944 21.0325C17.027 21.4785 16.2676 21.6702 15.3721 21.7613C14.5006 21.8499 13.4115 21.8499 12.0465 21.8499H11.9533C10.5884 21.8499 9.49917 21.8499 8.62773 21.7613C7.73218 21.6702 6.97278 21.4785 6.30539 21.0325C5.77582 20.6787 5.32112 20.224 4.96728 19.6944C4.52134 19.027 4.32963 18.2676 4.23853 17.3721C4.14988 16.5006 4.14989 15.4114 4.1499 14.0465V9.95329C4.14989 8.58836 4.14988 7.49917 4.23853 6.62773C4.32963 5.73218 4.52134 4.97278 4.96728 4.30539C5.32112 3.77582 5.77582 3.32112 6.30539 2.96728C6.97278 2.52134 7.73218 2.32963 8.62773 2.23853C9.49917 2.14988 10.5884 2.14989 11.9533 2.1499ZM8.79978 3.9298C8.03864 4.00723 7.59136 4.15259 7.24986 4.38077C6.90591 4.61059 6.61059 4.90591 6.38077 5.24986C6.15259 5.59136 6.00723 6.03864 5.9298 6.79978C5.85093 7.57512 5.8499 8.57775 5.8499 9.9999V13.9999C5.8499 15.4221 5.85093 16.4247 5.9298 17.2C6.00723 17.9612 6.15259 18.4084 6.38077 18.7499C6.61059 19.0939 6.90591 19.3892 7.24986 19.619C7.59136 19.8472 8.03864 19.9926 8.79978 20.07C9.57512 20.1489 10.5777 20.1499 11.9999 20.1499C13.4221 20.1499 14.4247 20.1489 15.2 20.07C15.9612 19.9926 16.4084 19.8472 16.7499 19.619C17.0939 19.3892 17.3892 19.0939 17.619 18.7499C17.8472 18.4084 17.9926 17.9612 18.07 17.2C18.1489 16.4247 18.1499 15.4221 18.1499 13.9999V9.9999C18.1499 8.57775 18.1489 7.57512 18.07 6.79978C17.9926 6.03864 17.8472 5.59136 17.619 5.24986C17.3892 4.90591 17.0939 4.61059 16.7499 4.38077C16.4084 4.15259 15.9612 4.00723 15.2 3.9298C14.4247 3.85093 13.4221 3.8499 11.9999 3.8499C10.5777 3.8499 9.57512 3.85093 8.79978 3.9298ZM8.1499 6.85708C8.1499 6.38764 8.53046 6.00708 8.9999 6.00708H14.9999C15.4693 6.00708 15.8499 6.38764 15.8499 6.85708C15.8499 7.32652 15.4693 7.70708 14.9999 7.70708H8.9999C8.53046 7.70708 8.1499 7.32652 8.1499 6.85708ZM15.5846 10.633C15.9253 10.9559 15.9398 11.4939 15.6168 11.8346L11.8258 15.8346C11.6653 16.0039 11.4423 16.0999 11.209 16.0999C10.9757 16.0999 10.7526 16.0041 10.5921 15.8348L8.38318 13.5059C8.06013 13.1653 8.07436 12.6273 8.41496 12.3043C8.75557 11.9812 9.29357 11.9954 9.61662 12.336L11.2086 14.0145L14.383 10.6652C14.7059 10.3245 15.2439 10.31 15.5846 10.633Z" fill="#1A1A1A"/>
</svg>
