<svg width="24" height="24" viewBox="0 0 24 24" fill="none" xmlns="http://www.w3.org/2000/svg">
<path fill-rule="evenodd" clip-rule="evenodd" d="M1.63097 14.3793C1.34312 13.1494 1.49466 11.8297 2.43883 10.9907C3.87663 9.71296 6.74502 8.07422 12 8.07422C17.255 8.07422 20.1234 9.71296 21.5612 10.9907C22.5054 11.8297 22.6569 13.1494 22.3691 14.3793L22.3 14.6742C22.1965 15.1166 21.7797 15.4128 21.3278 15.365L17.1176 14.9197C16.7247 14.8781 16.4047 14.5855 16.3282 14.1979L15.9797 12.4318C15.9422 12.2416 15.8247 12.077 15.648 11.9972C15.1208 11.7592 13.8485 11.2909 11.9998 11.2909C10.1499 11.2909 8.84743 11.7599 8.30588 11.9977C8.12494 12.0771 8.00374 12.2442 7.96549 12.4381L7.61713 14.2037C7.54065 14.5913 7.22064 14.8839 6.82775 14.9255L2.67227 15.365C2.22035 15.4128 1.80355 15.1166 1.69998 14.6741L1.63097 14.3793Z" fill="#1A1A1A"/>
</svg>
