<svg width="24" height="24" viewBox="0 0 24 24" fill="none" xmlns="http://www.w3.org/2000/svg">
<path fill-rule="evenodd" clip-rule="evenodd" d="M9.62942 3.30045C9.70927 2.80665 9.3737 2.34161 8.87989 2.26175C8.38609 2.1819 7.92105 2.51747 7.8412 3.01127L7.22335 6.83192H3.60887C3.10865 6.83192 2.70314 7.23743 2.70314 7.73765C2.70314 8.23787 3.10865 8.64337 3.60887 8.64337H6.93042L5.84484 15.3564H2.40963C1.90941 15.3564 1.50391 15.7619 1.50391 16.2621C1.50391 16.7623 1.90941 17.1678 2.40963 17.1678H5.55191L4.98079 20.6996C4.90094 21.1934 5.23651 21.6584 5.73031 21.7382C6.22411 21.8181 6.68916 21.4825 6.76901 20.9887L7.38689 17.1678H14.9504L14.3793 20.6996C14.2994 21.1934 14.635 21.6584 15.1288 21.7382C15.6226 21.8181 16.0876 21.4825 16.1675 20.9887L16.7854 17.1678H20.3982C20.8984 17.1678 21.3039 16.7623 21.3039 16.2621C21.3039 15.7619 20.8984 15.3564 20.3982 15.3564H17.0783L18.1639 8.64337H21.5974C22.0977 8.64337 22.5032 8.23787 22.5032 7.73765C22.5032 7.23743 22.0977 6.83192 21.5974 6.83192H18.4568L19.0279 3.30045C19.1077 2.80665 18.7722 2.34161 18.2784 2.26175C17.7846 2.1819 17.3195 2.51747 17.2397 3.01127L16.6218 6.83192H9.05833L9.62942 3.30045ZM8.7654 8.64337L7.67982 15.3564H15.2433L16.3289 8.64337H8.7654Z" fill="#1A1A1A"/>
</svg>
