<svg width="24" height="24" viewBox="0 0 24 24" fill="none" xmlns="http://www.w3.org/2000/svg">
<path fill-rule="evenodd" clip-rule="evenodd" d="M13.3475 3.10564C12.732 2.08393 11.268 2.08392 10.6526 3.10564L8.6681 6.40001H4.94304C3.70543 6.40001 2.94908 7.77762 3.60151 8.84348L5.53368 12L3.60151 15.1565C2.94908 16.2224 3.70542 17.6 4.94304 17.6H8.6681L10.6526 20.8944C11.268 21.9161 12.732 21.9161 13.3475 20.8944L15.3319 17.6H19.0681C20.3007 17.6 21.0578 16.2325 20.4156 15.1663L18.5083 12L20.4156 8.83372C21.0578 7.76754 20.3007 6.40001 19.0681 6.40001H15.3319L13.3475 3.10564ZM9.85455 7.69292L12 4.13127L14.1455 7.69292C14.2978 7.94577 14.569 8.10001 14.8613 8.10001H18.8923L16.8098 11.5571C16.646 11.829 16.646 12.171 16.8098 12.4429L18.8923 15.9H14.8613C14.569 15.9 14.2978 16.0542 14.1455 16.3071L12 19.8687L9.85455 16.3071C9.70224 16.0542 9.43102 15.9 9.13871 15.9H5.12037L7.23334 12.4481C7.40135 12.1736 7.40135 11.8264 7.23334 11.5519L5.12037 8.10001H9.13871C9.43102 8.10001 9.70224 7.94577 9.85455 7.69292Z" fill="#1A1A1A"/>
</svg>
