<svg width="24" height="24" viewBox="0 0 24 24" fill="none" xmlns="http://www.w3.org/2000/svg">
<path fill-rule="evenodd" clip-rule="evenodd" d="M11.4351 7.33106C11.4233 7.32053 11.4118 7.30962 11.4005 7.29832L8.82459 4.72243C8.48706 4.38491 7.93983 4.38491 7.6023 4.72243C7.26478 5.05995 7.26478 5.60719 7.6023 5.94472L8.45845 6.80086C8.47683 6.8182 8.49501 6.83586 8.513 6.85385L11.3919 9.73278C11.7239 10.0647 11.7239 10.6029 11.3919 10.9349C11.06 11.2668 10.5218 11.2668 10.1899 10.9349L9.61391 10.3589C9.60315 10.3492 9.59257 10.3391 9.5822 10.3288L7.27896 8.02553C6.93969 7.71873 6.4157 7.72886 6.08863 8.05593C5.75111 8.39345 5.75111 8.94069 6.08863 9.27821L10.0282 13.2178C10.0395 13.2291 10.0504 13.2406 10.061 13.2524L10.3293 13.5208C10.6613 13.8527 10.6613 14.3909 10.3293 14.7228C9.99737 15.0548 9.45918 15.0548 9.12724 14.7228L7.30896 12.9046C6.97144 12.567 6.4242 12.567 6.08668 12.9046C5.74915 13.2421 5.74915 13.7893 6.08668 14.1268L9.71464 17.7548C10.5708 18.562 12.0748 19.5716 13.7624 19.9733C15.4116 20.3658 17.2066 20.1794 18.8349 18.6623C20.3393 17.1554 21.0114 15.9102 21.3227 14.9107C21.6115 13.9833 21.609 13.221 21.6066 12.498C21.6064 12.4329 21.6062 12.3681 21.6062 12.3035L21.6063 12.2924C21.6058 12.281 21.6056 12.2695 21.6056 12.258V5.40082C21.6056 4.6868 21.0268 4.10797 20.3127 4.10797C19.5987 4.10797 19.0199 4.6868 19.0199 5.40082V7.97225C19.0199 8.16051 18.9574 8.34344 18.8422 8.49234C18.4589 8.98784 17.8877 9.87301 17.4603 10.8673C17.0237 11.8832 16.7927 12.8857 16.9313 13.6712C17.0129 14.1335 16.7043 14.5744 16.242 14.6559C15.7797 14.7375 15.3388 14.4289 15.2572 13.9666C15.0321 12.6914 15.4172 11.3157 15.8985 10.196C16.2421 9.39648 16.6633 8.66248 17.0428 8.09009L12.766 3.81325C12.4285 3.47573 11.8812 3.47573 11.5437 3.81325C11.2062 4.15078 11.2062 4.69801 11.5437 5.03554L13.5135 7.00533C13.8455 7.33728 13.8455 7.87547 13.5135 8.20741C13.1816 8.53936 12.6434 8.53936 12.3114 8.20741L11.4351 7.33106ZM23.3062 12.3035C23.3062 12.292 23.306 12.2805 23.3055 12.269L23.3056 12.258V5.40082C23.3056 3.74791 21.9656 2.40797 20.3127 2.40797C18.6598 2.40797 17.3199 3.74791 17.3199 5.40082V5.96296L13.9681 2.61117C12.9667 1.60975 11.343 1.60975 10.3416 2.61117C10.1232 2.82956 9.95247 3.07755 9.82933 3.34222C8.82219 2.52295 7.33825 2.58232 6.40022 3.52035C5.66021 4.26036 5.46704 5.34013 5.82071 6.25752C5.47982 6.38163 5.15999 6.5804 4.88655 6.85385C3.88513 7.85526 3.88513 9.47888 4.88655 10.4803L5.60257 11.1963C5.34281 11.319 5.09939 11.4877 4.8846 11.7025C3.88318 12.7039 3.88318 14.3275 4.8846 15.3289L8.52949 18.9738L8.53807 18.9819C9.55218 19.9412 11.3168 21.1386 13.3688 21.6271C15.4613 22.1251 17.8797 21.8839 20.0064 19.8943L20.0168 19.8846L20.0268 19.8746C21.6972 18.2042 22.538 16.7253 22.9458 15.4163C23.3156 14.229 23.3105 13.2257 23.3069 12.5017C23.3065 12.4331 23.3062 12.367 23.3062 12.3035ZM2.05318 17.479C2.38512 17.811 2.92331 17.811 3.25526 17.479C3.5872 17.1471 3.5872 16.6089 3.25526 16.277C2.81363 15.8353 2.46051 15.3149 2.21573 14.746C1.97096 14.1772 1.83973 13.5722 1.82784 12.9661C1.81596 12.3601 1.92359 11.7649 2.14274 11.2141C2.36186 10.6633 2.68855 10.1665 3.10374 9.75137C3.43568 9.41942 3.43568 8.88123 3.10374 8.54928C2.77179 8.21734 2.2336 8.21734 1.90165 8.54928C1.32192 9.12902 0.867248 9.82126 0.563154 10.5856C0.259093 11.3499 0.11191 12.1703 0.128167 12.9994C0.144422 13.8285 0.323729 14.6501 0.654173 15.418C0.984597 16.1859 1.46009 16.8859 2.05318 17.479Z" fill="#1A1A1A"/>
</svg>
