<svg width="24" height="24" viewBox="0 0 24 24" fill="none" xmlns="http://www.w3.org/2000/svg">
<path d="M18.0465 0.724917C17.9395 0.439602 17.688 0.233384 17.3872 0.184409C17.0865 0.135433 16.7825 0.251193 16.5905 0.487823L14.6395 2.8926L12.8015 1.80661C12.5068 1.63248 12.1364 1.65213 11.8617 1.85646C11.5871 2.06078 11.4618 2.40992 11.5439 2.74224L12.0645 4.84987C12.177 5.30561 12.6377 5.58381 13.0935 5.47124C13.5492 5.35867 13.8274 4.89796 13.7149 4.44222L13.6798 4.30012L14.4055 4.72893C14.768 4.94312 15.2327 4.85964 15.498 4.53266L16.9757 2.71126L17.2963 3.56628C17.4519 3.98103 17.8998 4.20682 18.3257 4.08513L20.2744 3.52839L19.032 5.23668C18.8837 5.44055 18.8336 5.6997 18.8951 5.94415C18.9567 6.1886 19.1235 6.39313 19.3506 6.50248L20.9188 7.25751L19.2996 8.17704C18.8914 8.40886 18.7484 8.92771 18.9803 9.33592C19.2121 9.74413 19.7309 9.88711 20.1391 9.65529L23.169 7.93458C23.4439 7.77846 23.6095 7.48264 23.5988 7.16666C23.5881 6.85069 23.4029 6.56676 23.118 6.42961L21.006 5.41271L23.1 2.53339C23.3134 2.24005 23.3171 1.84366 23.1092 1.5464C22.9014 1.24914 22.5279 1.1165 22.1791 1.21615L18.6128 2.2351L18.0465 0.724917Z" fill="#1A1A1A"/>
<path d="M10.4672 14.2627C11.1301 14.4403 11.8718 13.822 12.1238 12.8817C12.3758 11.9414 12.0426 11.0351 11.3796 10.8575C10.7166 10.6798 9.97491 11.2981 9.72295 12.2384C9.47099 13.1787 9.80419 14.085 10.4672 14.2627Z" fill="#1A1A1A"/>
<path d="M6.33126 14.2627C6.99424 14.4403 7.73594 13.8221 7.9879 12.8817C8.23986 11.9414 7.90666 11.0351 7.24368 10.8575C6.5807 10.6798 5.839 11.2981 5.58704 12.2384C5.33509 13.1788 5.66828 14.0851 6.33126 14.2627Z" fill="#1A1A1A"/>
<path fill-rule="evenodd" clip-rule="evenodd" d="M10.9942 23.6742C16.0062 23.6742 20.0692 19.6112 20.0692 14.5992C20.0692 9.58719 16.0062 5.52417 10.9942 5.52417C5.98221 5.52417 1.91919 9.58719 1.91919 14.5992C1.91919 19.6112 5.98221 23.6742 10.9942 23.6742ZM10.9942 21.9742C15.0673 21.9742 18.3692 18.6723 18.3692 14.5992C18.3692 10.5261 15.0673 7.22417 10.9942 7.22417C6.92109 7.22417 3.61919 10.5261 3.61919 14.5992C3.61919 18.6723 6.92109 21.9742 10.9942 21.9742Z" fill="#1A1A1A"/>
</svg>
