<svg width="24" height="24" viewBox="0 0 24 24" fill="none" xmlns="http://www.w3.org/2000/svg">
<path d="M14.4233 7.67809C14.2927 7.35863 13.9818 7.14991 13.6366 7.1499C13.2915 7.1499 12.9806 7.35861 12.8499 7.67806L10.3638 13.755L9.51416 11.6781C9.38347 11.3586 9.07259 11.1499 8.72745 11.1499H6.00013C5.53069 11.1499 5.15013 11.5305 5.15013 11.9999C5.15013 12.4693 5.53069 12.8499 6.00013 12.8499H8.1568L9.57712 16.3217C9.70781 16.6412 10.0187 16.8499 10.3638 16.8499C10.709 16.8499 11.0199 16.6412 11.1505 16.3217L13.6366 10.2449L14.4861 12.3217C14.6168 12.6412 14.9277 12.8499 15.2728 12.8499H18.0001C18.4696 12.8499 18.8501 12.4693 18.8501 11.9999C18.8501 11.5305 18.4696 11.1499 18.0001 11.1499H15.8435L14.4233 7.67809Z" fill="#1A1A1A"/>
<path fill-rule="evenodd" clip-rule="evenodd" d="M12.3623 22.1573C5.77375 22.1573 1.71924 17.5749 1.71924 12.0211C1.71924 6.42294 6.25741 1.88477 11.8555 1.88477C17.4536 1.88477 21.9918 6.42294 21.9918 12.0211C21.9918 14.0783 21.6274 15.5981 20.8137 16.775C20.4975 17.2322 20.4901 17.8587 20.9167 18.2153C21.0962 18.3654 21.2889 18.5213 21.4847 18.6754C22.0468 19.1179 22.0108 20.004 21.3652 20.312C18.582 21.64 15.5408 22.1573 12.3623 22.1573ZM3.38087 12.0211C3.38087 16.6595 6.69369 20.4957 12.3623 20.4957C14.9535 20.4957 17.3819 20.1315 19.609 19.2626C18.605 18.1974 18.8448 16.7009 19.447 15.83C19.9956 15.0364 20.3302 13.897 20.3302 12.0211C20.3302 7.34063 16.5359 3.54639 11.8555 3.54639C7.1751 3.54639 3.38087 7.34063 3.38087 12.0211Z" fill="#1A1A1A"/>
</svg>
