<svg width="24" height="24" viewBox="0 0 24 24" fill="none" xmlns="http://www.w3.org/2000/svg">
<path d="M14.082 11.2071H14.65C15.1194 11.2071 15.5 11.5877 15.5 12.0571C15.5 12.5265 15.1194 12.9071 14.65 12.9071H13.0004C12.9452 12.9071 12.9004 12.9519 12.9004 13.0071V13.9069C12.9004 13.9621 12.9452 14.0069 13.0004 14.0069H14.65C15.1194 14.0069 15.5 14.3875 15.5 14.8569C15.5 15.3263 15.1194 15.7069 14.65 15.7069H13.0004C12.9452 15.7069 12.9004 15.7517 12.9004 15.8069V16.7571C12.9004 17.2265 12.5198 17.6071 12.0504 17.6071C11.5809 17.6071 11.2004 17.2265 11.2004 16.7571V15.8069C11.2004 15.7517 11.1556 15.7069 11.1004 15.7069H9.35C8.88056 15.7069 8.5 15.3263 8.5 14.8569C8.5 14.3875 8.88056 14.0069 9.35 14.0069H11.1004C11.1556 14.0069 11.2004 13.9621 11.2004 13.9069V13.0071C11.2004 12.9519 11.1556 12.9071 11.1004 12.9071H9.35C8.88056 12.9071 8.5 12.5265 8.5 12.0571C8.5 11.5877 8.88056 11.2071 9.35 11.2071H9.87945C9.95643 11.2071 10.0045 11.1238 9.96605 11.0571L9.52502 10.2932C9.2903 9.88668 9.42959 9.36682 9.83614 9.1321C10.2427 8.89738 10.7625 9.03668 10.9973 9.44322L11.9473 11.0887C11.9618 11.1139 12.0009 11.1135 12.0149 11.0879L12.0246 11.0706L12.9746 9.42514C13.2093 9.01859 13.7292 8.8793 14.1357 9.11402C14.5423 9.34874 14.6816 9.86859 14.4469 10.2751L13.9954 11.0571C13.9569 11.1238 14.005 11.2071 14.082 11.2071Z" fill="#1A1A1A"/>
<path fill-rule="evenodd" clip-rule="evenodd" d="M11.9999 2.1499C10.4035 2.1499 8.80269 2.66382 7.47974 3.69607L7.47611 3.69885L7.46863 3.70484C7.09948 4.00068 6.83245 4.39771 6.79112 4.88721C6.75195 5.35117 6.92946 5.74714 7.12139 6.03437C7.26468 6.2488 7.44622 6.4475 7.64137 6.62717C6.36272 7.23961 5.02067 8.23197 4.47175 9.75119L4.46588 9.768L2.98672 14.1466C2.77832 14.7318 2.6499 15.3783 2.6499 16.0621C2.6499 19.2763 5.30441 21.8499 8.54296 21.8499H15.4568C18.6954 21.8499 21.3499 19.2763 21.3499 16.0621C21.3499 15.3783 21.2215 14.7318 21.0131 14.1466L19.5339 9.768L19.5281 9.75119C18.9791 8.23197 17.6371 7.23961 16.3584 6.62717C16.5536 6.4475 16.7351 6.24879 16.8784 6.03437C17.0703 5.74714 17.2479 5.35117 17.2087 4.88721C17.1674 4.39771 16.9004 4.00064 16.5312 3.7048L16.5212 3.69693L16.5201 3.69607C15.1971 2.66382 13.5963 2.1499 11.9999 2.1499ZM8.50983 5.0497C8.51534 5.04489 8.52151 5.03969 8.5284 5.03411C9.53966 4.24611 10.7676 3.8499 11.9999 3.8499C13.2322 3.8499 14.4602 4.24611 15.4714 5.03412C15.4783 5.0397 15.4845 5.04489 15.49 5.04969C15.4834 5.06119 15.4752 5.07456 15.465 5.08983C15.3071 5.32605 14.9482 5.61701 14.5209 5.88565C13.7708 6.35738 13.8931 7.50361 14.7385 7.79712C16.138 8.28305 17.493 9.1342 17.9264 10.3211L19.4048 14.6975L19.4097 14.7117C19.5608 15.1342 19.6499 15.5899 19.6499 16.0621C19.6499 18.3038 17.7905 20.1499 15.4568 20.1499H8.54296C6.20932 20.1499 4.3499 18.3038 4.3499 16.0621C4.3499 15.5899 4.43897 15.1342 4.59007 14.7117L4.59499 14.6975L6.0734 10.3211C6.50679 9.13419 7.86179 8.28305 9.26134 7.79712C10.1067 7.50361 10.229 6.35738 9.47886 5.88565C9.05165 5.61701 8.6927 5.32605 8.53485 5.08983C8.52464 5.07456 8.51642 5.0612 8.50983 5.0497Z" fill="#1A1A1A"/>
</svg>
