<svg width="24" height="24" viewBox="0 0 24 24" fill="none" xmlns="http://www.w3.org/2000/svg">
<path d="M16.974 18.5898L18.0653 19.6811C18.0106 19.782 17.9333 19.8727 17.8347 19.9452C17.8079 19.9649 17.781 19.9846 17.754 20.0041C17.3934 20.2637 16.8905 20.1819 16.6308 19.8212C16.3711 19.4606 16.4529 18.9577 16.8135 18.6981C16.8362 18.6818 16.8587 18.6654 16.8811 18.6488C16.9111 18.6268 16.9421 18.6071 16.974 18.5898Z" fill="#1A1A1A"/>
<path d="M4.3186 5.93441L5.40988 7.02569C5.39256 7.0575 5.37288 7.08852 5.35082 7.11852C5.33431 7.14096 5.31792 7.16349 5.30163 7.1861C5.04195 7.54674 4.53907 7.62857 4.17844 7.36889C3.8178 7.1092 3.73597 6.60633 3.99565 6.2457C4.0151 6.21868 4.03469 6.19177 4.05441 6.16497C4.12693 6.06637 4.21768 5.98911 4.3186 5.93441Z" fill="#1A1A1A"/>
<path d="M11.9997 2.14282L11.9496 2.14294C11.5052 2.14516 11.1468 2.50721 11.149 2.95161C11.1512 3.39601 11.5132 3.75447 11.9576 3.75225L11.9997 3.75215L12.0419 3.75225C12.4862 3.75447 12.8482 3.39601 12.8505 2.95161C12.8527 2.50721 12.4943 2.14516 12.0498 2.14294L11.9997 2.14282Z" fill="#1A1A1A"/>
<path d="M14.9989 2.60763C14.5756 2.47253 14.1228 2.70624 13.9877 3.12961C13.8527 3.55299 14.0863 4.00571 14.5098 4.1408C14.5363 4.14928 14.5628 4.15789 14.5892 4.16663C15.0113 4.30604 15.4663 4.07698 15.6057 3.65502C15.7451 3.23304 15.5161 2.77795 15.0942 2.63855C15.0625 2.62808 15.0307 2.61778 14.9989 2.60763Z" fill="#1A1A1A"/>
<path d="M9.4897 4.1408C9.91308 4.00571 10.1468 3.55299 10.0117 3.12961C9.8766 2.70624 9.42388 2.47253 9.0005 2.60763C8.9687 2.61778 8.93697 2.62808 8.90529 2.63855C8.48333 2.77795 8.25427 3.23304 8.39368 3.65502C8.53309 4.07698 8.98818 4.30604 9.41016 4.16663C9.43661 4.15789 9.46313 4.14928 9.4897 4.1408Z" fill="#1A1A1A"/>
<path d="M17.754 3.9959C17.3934 3.73621 16.8905 3.81804 16.6308 4.17868C16.3711 4.53931 16.4529 5.04219 16.8135 5.30188C16.8362 5.31816 16.8587 5.33455 16.8811 5.35106C17.2392 5.61438 17.7428 5.53763 18.0061 5.17964C18.2695 4.82164 18.1927 4.31797 17.8347 4.05466C17.8079 4.03494 17.781 4.01535 17.754 3.9959Z" fill="#1A1A1A"/>
<path d="M19.945 6.16496C19.6818 5.80697 19.178 5.73022 18.8201 5.99354C18.4621 6.25685 18.3853 6.76052 18.6486 7.11852C18.6652 7.14096 18.6816 7.16349 18.6979 7.1861C18.9575 7.54674 19.4604 7.62857 19.821 7.36889C20.1817 7.10919 20.2634 6.60633 20.0038 6.2457C19.9843 6.21868 19.9647 6.19177 19.945 6.16496Z" fill="#1A1A1A"/>
<path d="M21.3611 8.90555C21.2217 8.48357 20.7666 8.25451 20.3447 8.39393C19.9226 8.53334 19.6936 8.98843 19.833 9.4104C19.8418 9.43686 19.8504 9.46338 19.8589 9.48995C19.994 9.91333 20.4467 10.147 20.87 10.0119C21.2934 9.87685 21.5272 9.42412 21.3921 9.00075C21.3819 8.96894 21.3716 8.93721 21.3611 8.90555Z" fill="#1A1A1A"/>
<path d="M4.16639 9.4104C4.3058 8.98843 4.07674 8.53334 3.65477 8.39393C3.2328 8.25451 2.77771 8.48357 2.63829 8.90555C2.62783 8.93721 2.61753 8.96894 2.60738 9.00075C2.47229 9.42412 2.70599 9.87685 3.12937 10.0119C3.55274 10.147 4.00547 9.91333 4.14055 9.48995C4.14903 9.46338 4.15765 9.43686 4.16639 9.4104Z" fill="#1A1A1A"/>
<path d="M3.75201 11.9578C3.75422 11.5134 3.39576 11.1514 2.95137 11.1492C2.50697 11.147 2.14491 11.5054 2.1427 11.9499L2.14258 12L2.1427 12.0501C2.14491 12.4945 2.50697 12.8529 2.95137 12.8507C3.39576 12.8485 3.75422 12.4865 3.75201 12.0421L3.75191 12L3.75201 11.9578Z" fill="#1A1A1A"/>
<path d="M21.8568 11.9499C21.8545 11.5054 21.4924 11.147 21.0481 11.1492C20.6037 11.1514 20.2452 11.5134 20.2474 11.9578L20.2475 12L20.2474 12.0421C20.2452 12.4865 20.6037 12.8485 21.0481 12.8507C21.4924 12.8529 21.8545 12.4945 21.8568 12.0501L21.8569 12L21.8568 11.9499Z" fill="#1A1A1A"/>
<path d="M21.3921 14.9992C21.5272 14.5758 21.2934 14.1231 20.87 13.988C20.4467 13.8529 19.994 14.0866 19.8589 14.51C19.8504 14.5366 19.8418 14.563 19.833 14.5895C19.6936 15.0115 19.9226 15.4666 20.3447 15.606C20.7666 15.7454 21.2217 15.5163 21.3611 15.0944C21.3716 15.0627 21.3819 15.0309 21.3921 14.9992Z" fill="#1A1A1A"/>
<path d="M4.14055 14.51C4.00547 14.0866 3.55274 13.8529 3.12937 13.988C2.70599 14.1231 2.47229 14.5758 2.60738 14.9992C2.61753 15.0309 2.62783 15.0627 2.63829 15.0944C2.77771 15.5163 3.2328 15.7454 3.65477 15.606C4.07674 15.4666 4.3058 15.0115 4.16639 14.5895C4.15765 14.563 4.14903 14.5366 4.14055 14.51Z" fill="#1A1A1A"/>
<path d="M5.30163 16.8139C5.04195 16.4532 4.53907 16.3713 4.17844 16.631C3.8178 16.8907 3.73597 17.3936 3.99565 17.7542C4.0151 17.7813 4.03469 17.8081 4.05441 17.835C4.31773 18.193 4.8214 18.2697 5.17939 18.0064C5.53738 17.7431 5.61413 17.2394 5.35082 16.8814C5.33431 16.8589 5.31792 16.8364 5.30163 16.8139Z" fill="#1A1A1A"/>
<path d="M7.11827 18.6488C6.76028 18.3856 6.25661 18.4623 5.99329 18.8203C5.72997 19.1783 5.80673 19.682 6.16471 19.9452C6.19152 19.9649 6.21844 19.9846 6.24544 20.0041C6.60608 20.2637 7.10895 20.1819 7.36864 19.8212C7.62833 19.4606 7.54649 18.9577 7.18585 18.6981C7.16324 18.6818 7.14071 18.6654 7.11827 18.6488Z" fill="#1A1A1A"/>
<path d="M9.41016 19.8333C8.98818 19.6939 8.53309 19.9229 8.39369 20.3449C8.25427 20.7669 8.48333 21.2219 8.9053 21.3613C8.93697 21.3718 8.9687 21.3822 9.0005 21.3923C9.42388 21.5274 9.8766 21.2936 10.0117 20.8703C10.1468 20.4469 9.91308 19.9942 9.48971 19.8591C9.46313 19.8507 9.43661 19.842 9.41016 19.8333Z" fill="#1A1A1A"/>
<path d="M15.0942 21.3613C15.5161 21.2219 15.7451 20.7669 15.6057 20.3449C15.4663 19.9229 15.0113 19.6939 14.5892 19.8333C14.5628 19.842 14.5363 19.8507 14.5098 19.8591C14.0863 19.9942 13.8527 20.4469 13.9877 20.8703C14.1228 21.2936 14.5756 21.5274 14.9989 21.3923C15.0307 21.3822 15.0625 21.3718 15.0942 21.3613Z" fill="#1A1A1A"/>
<path d="M11.9576 20.2477C11.5132 20.2455 11.1512 20.6039 11.149 21.0483C11.1468 21.4927 11.5052 21.8548 11.9496 21.857L11.9997 21.8571L12.0498 21.857C12.4943 21.8548 12.8527 21.4927 12.8505 21.0483C12.8482 20.6039 12.4862 20.2455 12.0419 20.2477L11.9997 20.2478L11.9576 20.2477Z" fill="#1A1A1A"/>
<path d="M5.1499 11.9999C5.1499 10.5208 5.61869 9.15122 6.41578 8.03159L7.64066 9.25647C7.13974 10.0507 6.8499 10.9915 6.8499 11.9999C6.8499 14.8442 9.15564 17.1499 11.9999 17.1499C13.0083 17.1499 13.9491 16.8601 14.7433 16.3591L15.9682 17.584C14.8486 18.3811 13.479 18.8499 11.9999 18.8499C8.21675 18.8499 5.1499 15.7831 5.1499 11.9999Z" fill="#1A1A1A"/>
<path d="M9.31351 5.69673L10.6464 7.02961C11.0777 6.91244 11.5315 6.8499 11.9999 6.8499C14.8442 6.8499 17.1499 9.15564 17.1499 11.9999C17.1499 12.4683 17.0874 12.9221 16.9702 13.3534L18.3031 14.6863C18.6551 13.8614 18.8499 12.9534 18.8499 11.9999C18.8499 8.21675 15.7831 5.1499 11.9999 5.1499C11.0464 5.1499 10.1384 5.34472 9.31351 5.69673Z" fill="#1A1A1A"/>
<path d="M12.4744 14.0903L9.91006 11.5259C9.87561 11.6784 9.85742 11.8371 9.85742 12C9.85742 13.1835 10.8168 14.1429 12.0003 14.1429C12.1632 14.1429 12.3219 14.1247 12.4744 14.0903Z" fill="#1A1A1A"/>
<path d="M4.60094 2.39886C4.269 2.06692 3.73081 2.06692 3.39886 2.39886C3.06692 2.73081 3.06692 3.269 3.39886 3.60094L19.3989 19.6009C19.7308 19.9329 20.269 19.9329 20.6009 19.6009C20.9329 19.269 20.9329 18.7308 20.6009 18.3989L4.60094 2.39886Z" fill="#1A1A1A"/>
</svg>
