<svg width="24" height="24" viewBox="0 0 24 24" fill="none" xmlns="http://www.w3.org/2000/svg">
<path fill-rule="evenodd" clip-rule="evenodd" d="M14.5688 8.29297C12.9947 8.29297 11.7188 9.56896 11.7188 11.143C11.7188 12.717 12.9947 13.993 14.5688 13.993C16.1428 13.993 17.4187 12.717 17.4187 11.143C17.4187 9.56896 16.1428 8.29297 14.5688 8.29297ZM13.4187 11.143C13.4187 10.5078 13.9336 9.99297 14.5688 9.99297C15.2039 9.99297 15.7188 10.5078 15.7188 11.143C15.7188 11.7781 15.2039 12.293 14.5688 12.293C13.9336 12.293 13.4187 11.7781 13.4187 11.143Z" fill="#1A1A1A"/>
<path fill-rule="evenodd" clip-rule="evenodd" d="M8.62188 3.50039C8.62188 3.03095 8.24132 2.65039 7.77188 2.65039C7.30243 2.65039 6.92188 3.03095 6.92188 3.50039V4.71512C6.71714 4.72977 6.52177 4.74774 6.33539 4.76977C5.29497 4.89275 4.42479 5.15243 3.69507 5.7513C3.44949 5.95283 3.22431 6.17801 3.02278 6.42359C2.42391 7.15331 2.16423 8.02349 2.04125 9.06391C1.92185 10.074 1.92186 11.3484 1.92188 12.9456V13.0552C1.92186 14.6524 1.92185 15.9268 2.04125 16.9369C2.16423 17.9773 2.42391 18.8475 3.02278 19.5772C3.22431 19.8228 3.44949 20.048 3.69507 20.2495C4.42479 20.8484 5.29497 21.108 6.33539 21.231C7.34548 21.3504 8.61978 21.3504 10.217 21.3504H13.3267C14.9239 21.3504 16.1983 21.3504 17.2084 21.231C18.2488 21.108 19.119 20.8484 19.8487 20.2495C20.0943 20.048 20.3194 19.8228 20.521 19.5772C21.1198 18.8475 21.3795 17.9773 21.5025 16.9369C21.6219 15.9268 21.6219 14.6525 21.6219 13.0552V12.9456C21.6219 11.3484 21.6219 10.074 21.5025 9.06391C21.3795 8.02349 21.1198 7.15331 20.521 6.42359C20.3194 6.17801 20.0943 5.95283 19.8487 5.7513C19.119 5.15243 18.2488 4.89275 17.2084 4.76977C17.022 4.74774 16.8266 4.72977 16.6219 4.71512V3.50039C16.6219 3.03095 16.2413 2.65039 15.7719 2.65039C15.3024 2.65039 14.9219 3.03095 14.9219 3.50039V4.65587C14.4298 4.65038 13.899 4.65039 13.3267 4.6504H10.2171C9.64478 4.65039 9.11395 4.65038 8.62188 4.65587V3.50039ZM4.77354 7.06541C5.15017 6.75632 5.65503 6.56202 6.53494 6.45801C7.43362 6.35179 8.60731 6.3504 10.2719 6.3504H13.2719C14.9364 6.3504 16.1101 6.35179 17.0088 6.45801C17.8887 6.56202 18.3936 6.75632 18.7702 7.06541C18.9297 7.19631 19.076 7.34256 19.2069 7.50206C19.516 7.87869 19.7102 8.38355 19.8143 9.26346C19.9205 10.1621 19.9219 11.3358 19.9219 13.0004C19.9219 14.665 19.9205 15.8386 19.8143 16.7373C19.7102 17.6172 19.516 18.1221 19.2069 18.4987C19.076 18.6582 18.9297 18.8045 18.7702 18.9354C18.3936 19.2445 17.8887 19.4388 17.0088 19.5428C16.5406 19.5981 15.9977 19.625 15.3497 19.6381C14.4002 16.9489 12.2394 15.2749 9.99982 14.2497C7.73631 13.2135 5.29672 12.7925 3.64734 12.6522L3.62194 12.65C3.62261 11.169 3.63088 10.0977 3.72949 9.26346C3.8335 8.38355 4.0278 7.87869 4.33689 7.50206C4.46779 7.34256 4.61404 7.19631 4.77354 7.06541ZM9.29222 15.7954C11.1141 16.6294 12.6933 17.8583 13.5216 19.6504L10.2719 19.6504C8.60731 19.6504 7.43362 19.649 6.53494 19.5428C5.65503 19.4388 5.15017 19.2445 4.77354 18.9354C4.61404 18.8045 4.46779 18.6582 4.33689 18.4987C4.0278 18.1221 3.8335 17.6172 3.72949 16.7373C3.65475 16.105 3.63191 15.3366 3.62494 14.3568C5.15277 14.4974 7.31943 14.8923 9.29222 15.7954Z" fill="#1A1A1A"/>
</svg>
