<svg width="24" height="24" viewBox="0 0 24 24" fill="none" xmlns="http://www.w3.org/2000/svg">
<path fill-rule="evenodd" clip-rule="evenodd" d="M13.7754 3.15082C14.2447 3.15092 14.626 3.53105 14.626 4.00043C14.6257 4.46962 14.2446 4.84994 13.7754 4.85004H8.1875C6.04086 4.85004 4.2998 6.59109 4.2998 8.73774V18.4653C4.30003 18.5671 4.38348 18.6508 4.48535 18.6508C4.6041 18.6506 4.71646 18.5939 4.78711 18.4985L5.78418 17.1479C6.12557 16.6861 6.66595 16.4137 7.24023 16.4135H15.2129C17.3593 16.4134 19.1003 14.6732 19.1006 12.5268V11.1206C19.1006 10.6511 19.4808 10.27 19.9502 10.27C20.4196 10.2701 20.7998 10.6512 20.7998 11.1206V12.5268C20.7995 15.6121 18.2982 18.1136 15.2129 18.1137H7.24023C7.20518 18.1139 7.17221 18.1304 7.15137 18.1586L6.1543 19.5082C5.76312 20.0375 5.14347 20.3498 4.48535 20.35C3.44459 20.35 2.60081 19.506 2.60059 18.4653V8.73774C2.60059 5.65221 5.10197 3.15082 8.1875 3.15082H13.7754ZM15.5928 11.6508C16.0622 11.6508 16.4434 12.031 16.4434 12.5004C16.4433 12.9699 16.0622 13.35 15.5928 13.35H7.4502C6.98077 13.35 6.60061 12.9699 6.60059 12.5004C6.60059 12.031 6.98075 11.6508 7.4502 11.6508H15.5928ZM12.1729 7.65082C12.6423 7.65086 13.0234 8.03101 13.0234 8.50043C13.0232 8.96966 12.6421 9.35001 12.1729 9.35004H7.4502C6.98089 9.35004 6.60081 8.96968 6.60059 8.50043C6.60059 8.03099 6.98075 7.65082 7.4502 7.65082H12.1729ZM18.9336 2.27289C19.0673 1.909 19.582 1.90907 19.7158 2.27289L19.9941 3.03168C20.2795 3.80819 20.8924 4.42019 21.6689 4.70551L22.4268 4.98383C22.7907 5.11755 22.7907 5.63234 22.4268 5.76606L21.6689 6.04438C20.8923 6.32973 20.2795 6.94257 19.9941 7.71918L19.7158 8.477C19.5821 8.84093 19.0673 8.84093 18.9336 8.477L18.6553 7.71918C18.3699 6.94262 17.758 6.32975 16.9814 6.04438L16.2227 5.76606C15.8589 5.63226 15.8589 5.1176 16.2227 4.98383L16.9814 4.70551C17.7579 4.42017 18.3699 3.80807 18.6553 3.03168L18.9336 2.27289Z" fill="#1A1A1A"/>
</svg>
