<svg width="24" height="24" viewBox="0 0 24 24" fill="none" xmlns="http://www.w3.org/2000/svg">
<path fill-rule="evenodd" clip-rule="evenodd" d="M8.07133 5.0999C7.12061 5.0999 6.3499 5.87061 6.3499 6.82133V17.6785C6.3499 18.6292 7.12061 19.3999 8.07133 19.3999H15.9285C16.8792 19.3999 17.6499 18.6292 17.6499 17.6785V16.4999C17.6499 16.0305 18.0305 15.6499 18.4999 15.6499C18.9693 15.6499 19.3499 16.0305 19.3499 16.4999V17.6785C19.3499 19.5681 17.8181 21.0999 15.9285 21.0999H8.07133C6.18173 21.0999 4.6499 19.5681 4.6499 17.6785V6.82133C4.6499 4.93173 6.18173 3.3999 8.07133 3.3999H14.1352C14.9199 3.3999 15.6807 3.66959 16.2901 4.16378L18.0834 5.61784C18.8846 6.26748 19.3499 7.24391 19.3499 8.27539V9.3499C19.3499 9.81934 18.9693 10.1999 18.4999 10.1999C18.0305 10.1999 17.6499 9.81934 17.6499 9.3499V8.27539C17.6499 7.75642 17.4158 7.26515 17.0127 6.93829L15.2194 5.48423C14.9128 5.23559 14.53 5.0999 14.1352 5.0999H8.07133ZM14.2948 16.8295C13.9628 17.1614 13.4246 17.1614 13.0927 16.8295L9.84271 13.5794C9.51076 13.2475 9.51077 12.7093 9.84271 12.3773L13.0927 9.12738C13.4247 8.79543 13.9628 8.79543 14.2948 9.12738C14.6267 9.45933 14.6267 9.99752 14.2948 10.3295L12.4958 12.1284H18.5722C19.0416 12.1284 19.4222 12.509 19.4222 12.9784C19.4222 13.4479 19.0416 13.8284 18.5722 13.8284H12.4958L14.2948 15.6274C14.6267 15.9593 14.6267 16.4975 14.2948 16.8295Z" fill="#1A1A1A"/>
</svg>
