<svg width="24" height="24" viewBox="0 0 24 24" fill="none" xmlns="http://www.w3.org/2000/svg">
<path fill-rule="evenodd" clip-rule="evenodd" d="M16.053 5.07893C15.9471 5.13445 15.8809 5.24406 15.8809 5.36359L15.8809 12.6694L15.8728 12.6642L15.8728 12.6696C15.8728 14.8909 14.0721 16.6917 11.8507 16.6917C9.62937 16.6917 7.82861 14.8909 7.82861 12.6696C7.82861 10.4482 9.62937 8.64746 11.8507 8.64746C12.7734 8.64746 13.6236 8.95818 14.3022 9.48068L14.3022 4.69202C14.3022 4.39872 14.4649 4.1296 14.7245 3.99322C15.2187 3.73365 16.7448 2.93338 18.0407 2.25552C18.427 2.05347 18.9038 2.20312 19.1056 2.58952C19.3074 2.97592 19.1579 3.45274 18.7716 3.6548C17.8237 4.15062 16.7525 4.71202 16.053 5.07893ZM11.8507 15.113C13.2002 15.113 14.2942 14.019 14.2942 12.6696C14.2942 11.3201 13.2002 10.2261 11.8507 10.2261C10.5012 10.2261 9.40728 11.3201 9.40728 12.6696C9.40728 14.019 10.5012 15.113 11.8507 15.113Z" fill="#1A1A1A"/>
<path d="M12.7775 3.93984C12.7775 3.52817 12.4648 3.18016 12.0532 3.17155C11.9858 3.17014 11.9183 3.16943 11.8506 3.16943C6.60388 3.16943 2.35059 7.42273 2.35059 12.6694C2.35059 17.9161 6.60388 22.1694 11.8506 22.1694C17.0973 22.1694 21.3506 17.9161 21.3506 12.6694C21.3506 10.4034 20.5572 8.32263 19.233 6.68983C18.7487 6.09261 17.8775 6.48305 17.8775 7.25197C17.8775 7.467 17.9553 7.67384 18.087 7.84381C19.1204 9.17747 19.7356 10.8516 19.7356 12.6694C19.7356 17.0242 16.2054 20.5544 11.8506 20.5544C7.49582 20.5544 3.96559 17.0242 3.96559 12.6694C3.96559 8.31467 7.49582 4.78443 11.8506 4.78443L11.8811 4.78449C12.3595 4.7863 12.7775 4.4182 12.7775 3.93984Z" fill="#1A1A1A"/>
</svg>
