<svg width="29" height="29" viewBox="0 0 29 29" fill="none" xmlns="http://www.w3.org/2000/svg">
<path d="M10.7778 5.36931C11.2424 5.43652 11.5647 5.86763 11.4976 6.3322L11.1138 8.98455H19.3169L19.7378 6.08806L19.7544 6.00212C19.8593 5.58447 20.2663 5.30602 20.7017 5.36931C21.1658 5.43704 21.4877 5.86796 21.4204 6.3322L21.0347 8.98455H24.9995L25.0864 8.98943C25.5149 9.03304 25.8491 9.39513 25.8491 9.83513C25.8489 10.275 25.5148 10.6363 25.0864 10.6799L24.9995 10.6847H20.7876L19.6333 18.6242H23.895L23.9819 18.6281C24.4106 18.6716 24.7456 19.0337 24.7456 19.4738C24.7456 19.9139 24.4106 20.276 23.9819 20.3195L23.895 20.3234H19.4741C19.4445 20.3234 19.4151 20.3215 19.3862 20.3185L19.0093 22.9123C18.9582 23.2624 18.6957 23.5446 18.3501 23.6203C18.0042 23.6959 17.647 23.5484 17.4546 23.2511C16.7306 22.1335 14.9534 20.4957 12.5093 19.132C11.6753 18.6667 10.7747 18.2408 9.82666 17.881L9.1001 22.9113C9.03291 23.3758 8.60172 23.6981 8.13721 23.631C7.67279 23.5637 7.35042 23.1326 7.41748 22.6681L8.18701 17.3429C7.02551 17.0216 5.81314 16.8123 4.57861 16.7619L3.99951 16.7492L3.9126 16.7453C3.48399 16.7018 3.1499 16.3397 3.1499 15.8996C3.15001 15.4302 3.53014 15.05 3.99951 15.05L4.646 15.0627C5.94815 15.1156 7.21859 15.3273 8.43213 15.6486L9.1499 10.6847H5.104C4.63482 10.6846 4.25463 10.3043 4.25439 9.83513C4.25444 9.36581 4.6347 8.98468 5.104 8.98455H9.396L9.81494 6.08806L9.83154 6.0031C9.93594 5.58519 10.3423 5.30647 10.7778 5.36931ZM10.0757 16.1613C11.2425 16.5803 12.3391 17.0897 13.3374 17.6467C15.0586 18.607 16.5324 19.7288 17.5991 20.7922L19.0688 10.6847H10.8677L10.0757 16.1613Z" fill="#1A1A1A"/>
</svg>
