<svg width="29" height="29" viewBox="0 0 29 29" fill="none" xmlns="http://www.w3.org/2000/svg">
<path d="M10.252 4.41876C13.2055 3.89855 16.2317 3.92971 19.1768 4.51349L19.5977 4.59747L19.8662 4.65607C22.628 5.31009 24.786 7.4863 25.4063 10.2723L25.5606 10.9637C26.0964 13.3707 26.012 15.8745 25.3155 18.2401C25.1828 18.6903 24.7101 18.9478 24.2598 18.8152C23.8097 18.6826 23.5521 18.2098 23.6846 17.7596C24.2997 15.6703 24.3747 13.4588 23.9014 11.3328L23.7471 10.6414C23.2688 8.49291 21.6044 6.8149 19.4746 6.31037L19.2666 6.26447L18.8467 6.18146C15.9253 5.60234 12.9175 5.60709 9.99808 6.19611C7.6816 6.66364 5.84263 8.41081 5.24808 10.6844L5.19437 10.9061L5.17484 10.994C4.64558 13.3712 4.64556 15.8364 5.17484 18.2137C5.71297 20.63 7.65061 22.4863 10.0879 22.9197L10.4004 22.9754C13.0649 23.449 15.7909 23.4688 18.462 23.034L20.1133 22.7654C20.5767 22.69 21.0135 23.0042 21.0889 23.4676C21.1641 23.9308 20.8499 24.3677 20.3868 24.4432L18.7344 24.7117C15.8742 25.1773 12.9557 25.1564 10.1026 24.6492L9.79105 24.5936C6.67798 24.0401 4.20189 21.6691 3.51468 18.5828C2.9313 15.9624 2.93131 13.2453 3.51468 10.6248L3.53519 10.536L3.60355 10.2537C4.36195 7.35401 6.70763 5.12628 9.66215 4.53009L10.252 4.41876ZM23.5 19.9998C24.3285 19.9998 25 20.6714 25 21.4998C25 22.2765 24.4098 22.9153 23.6534 22.992L23.5 22.9998C22.6716 22.9998 22 22.3282 22 21.4998C22 20.6714 22.6716 19.9998 23.5 19.9998ZM10.8096 11.075C11.0268 10.3154 11.8184 9.87464 12.5782 10.0916L12.8614 10.1727C14.879 10.7492 16.7837 11.6678 18.4912 12.8875L18.6983 13.035L18.875 13.1785C19.6992 13.9365 19.64 15.2917 18.6983 15.9647L18.4912 16.1121L18.169 16.3377C16.5455 17.4457 14.7529 18.2865 12.8614 18.827L12.5782 18.908L12.4356 18.9402C11.7692 19.0596 11.1072 18.6922 10.8565 18.0633L10.8096 17.9246C10.21 15.826 10.1726 13.6093 10.6973 11.4959L10.8096 11.075ZM12.375 11.8016C11.9169 13.5711 11.917 15.4275 12.375 17.1971L12.3946 17.1922C14.1108 16.7018 15.7369 15.9386 17.21 14.9334L17.503 14.7293L17.71 14.5809C17.7516 14.5509 17.7624 14.4967 17.7412 14.4549L17.71 14.4188L17.503 14.2703C16.0502 13.2327 14.4406 12.4356 12.7364 11.909L12.3946 11.8074L12.375 11.8016Z" fill="#1A1A1A"/>
</svg>
