<svg width="29" height="29" viewBox="0 0 29 29" fill="none" xmlns="http://www.w3.org/2000/svg">
<path d="M23.1504 16.2773V9.86914C23.1504 8.33984 21.9102 7.09961 20.3809 7.09961H8.61914C7.08984 7.09961 5.84961 8.33984 5.84961 9.86914V23.1279C5.84961 23.156 5.85675 23.172 5.86328 23.1826C5.87131 23.1955 5.88508 23.2091 5.9043 23.2197C5.92384 23.2304 5.94366 23.2346 5.95898 23.2344C5.97136 23.2341 5.98828 23.2318 6.01172 23.2168L10.7197 20.2031H19.2246C21.3924 20.2031 23.1504 18.4451 23.1504 16.2773ZM24.8496 16.2773C24.8496 19.384 22.3313 21.9033 19.2246 21.9033H11.2158L6.92773 24.6484C5.72633 25.417 4.15039 24.5542 4.15039 23.1279V9.86914C4.15039 7.40095 6.15095 5.40039 8.61914 5.40039H20.3809C22.849 5.40039 24.8496 7.40095 24.8496 9.86914V16.2773Z" fill="#1A1A1A"/>
</svg>
