<svg width="29" height="29" viewBox="0 0 29 29" fill="none" xmlns="http://www.w3.org/2000/svg">
<path d="M14.502 4.6582C14.9713 4.65831 15.3516 5.03844 15.3516 5.50781C15.3516 5.97719 14.9713 6.35731 14.502 6.35742C12.9924 6.35744 11.5145 6.77783 10.2324 7.56738L9.97853 7.73047C8.72335 8.5692 7.72693 9.73863 7.09963 11.1074L6.97951 11.3838C6.36331 12.8714 6.20253 14.5086 6.51662 16.0879C6.83075 17.6671 7.60567 19.1182 8.74416 20.2568L8.96193 20.4658C10.0653 21.4904 11.4325 22.1908 12.9131 22.4854L13.21 22.5391C14.6965 22.7779 16.2226 22.6 17.6172 22.0225L17.8936 21.9014C19.2625 21.2741 20.4327 20.2787 21.2715 19.0234L21.4346 18.7695C22.2242 17.4875 22.6435 16.0096 22.6436 14.5C22.6436 14.0306 23.0248 13.6495 23.4942 13.6494C23.9634 13.6496 24.3438 14.0307 24.3438 14.5C24.3437 16.3249 23.8364 18.1114 22.8819 19.6611L22.6856 19.9678C21.6717 21.4851 20.2571 22.689 18.6026 23.4473L18.2686 23.5928C16.5826 24.2911 14.7375 24.5056 12.9404 24.2168L12.582 24.1523C10.7922 23.7963 9.1385 22.9505 7.80471 21.7119L7.54201 21.459C6.16577 20.0826 5.22837 18.3289 4.84865 16.4199C4.46891 14.5108 4.6643 12.5318 5.4092 10.7334L5.55471 10.3994C6.313 8.74477 7.51688 7.33027 9.0342 6.31641L9.34084 6.12012C10.8906 5.16562 12.6771 4.65823 14.502 4.6582ZM22.8057 6.03711C23.2238 5.85119 23.6508 6.27822 23.4649 6.69629L22.4375 9.00488L23.4649 11.3135C23.6509 11.7315 23.2237 12.1594 22.8057 11.9736L20.7002 11.0361C20.5711 10.9787 20.4231 10.9788 20.294 11.0361L18.1885 11.9736C17.7704 12.1597 17.3423 11.7316 17.5283 11.3135L18.5557 9.00488L17.5283 6.69629C17.3425 6.27822 17.7704 5.85109 18.1885 6.03711L20.4971 7.06445L22.8057 6.03711Z" fill="#1A1A1A"/>
</svg>
