<svg width="29" height="29" viewBox="0 0 29 29" fill="none" xmlns="http://www.w3.org/2000/svg">
<path d="M12.1487 4.05675C13.3712 2.59333 15.6882 2.8367 16.5794 4.52257L18.4349 8.03136L23.3108 9.30773L23.4915 9.36144C25.2537 9.95134 25.8914 12.1363 24.7239 13.5821L24.6009 13.7247L21.3958 17.1886L22.0521 21.4532C22.3541 23.4171 20.4901 25.0165 18.595 24.42L13.6321 22.8556L10.0491 24.337C8.38694 25.0238 6.53338 23.9127 6.35577 22.1232L5.86651 17.1886L3.50518 13.2921C2.61776 11.8274 3.3114 9.91711 4.93194 9.36339L8.8294 8.03136L12.1487 4.05675ZM15.0765 5.31652C14.7501 4.69966 13.9022 4.61054 13.4544 5.14562L9.8294 9.48741L5.48174 10.9718C4.88819 11.1745 4.63433 11.8748 4.95928 12.4112L7.42022 16.4737L7.52081 16.6378L7.53936 16.8302L8.04717 21.9552C8.11216 22.6106 8.79097 23.0171 9.39971 22.7657L13.555 21.0499L19.1058 22.798C19.7997 23.0162 20.4819 22.4311 20.3714 21.712L19.5911 16.6378L23.3528 12.5704L23.4388 12.464C23.7963 11.954 23.5861 11.2334 23.0101 10.9962L22.8812 10.9523L17.2815 9.48741L15.0765 5.31652ZM10.5814 10.8946C10.7313 10.4911 11.1664 10.2589 11.5921 10.3693C12.0178 10.4801 12.2838 10.8948 12.2181 11.3204L12.2015 11.4054L11.639 13.5694C11.521 14.0236 11.057 14.2965 10.6028 14.1788C10.1487 14.0608 9.87479 13.5969 9.99249 13.1427L10.555 10.9786L10.5814 10.8946ZM14.0814 10.8946C14.2314 10.4912 14.6655 10.2589 15.0911 10.3693C15.5171 10.4799 15.7837 10.8946 15.7181 11.3204L15.7005 11.4054L15.139 13.5694C15.021 14.0237 14.5561 14.2966 14.1019 14.1788C13.6478 14.0607 13.3747 13.5968 13.4925 13.1427L14.055 10.9786L14.0814 10.8946Z" fill="#1A1A1A"/>
</svg>
