<svg width="24" height="24" viewBox="0 0 24 24" fill="none" xmlns="http://www.w3.org/2000/svg">
<path fill-rule="evenodd" clip-rule="evenodd" d="M18.5 8.52265C18.5 11.9096 14.792 15.9943 12.9772 17.7905C12.4246 18.3375 11.561 18.3517 10.9945 17.8193C9.16973 16.1043 5.5 12.1984 5.5 8.52265C5.5 4.89895 8.4765 2 12 2C15.5235 2 18.5 4.89895 18.5 8.52265ZM12 10.6888C13.4103 10.6888 14.5536 9.54552 14.5536 8.13522C14.5536 6.72492 13.4103 5.58165 12 5.58165C10.5897 5.58165 9.44643 6.72492 9.44643 8.13522C9.44643 9.54552 10.5897 10.6888 12 10.6888Z" fill="#1A1A1A"/>
<path d="M19 20.6C19 21.4837 15.866 22.2 12 22.2C8.13401 22.2 5 21.4837 5 20.6C5 19.7163 8.13401 19 12 19C15.866 19 19 19.7163 19 20.6Z" fill="#1A1A1A"/>
</svg>
