<svg width="30" height="30" viewBox="0 0 30 30" fill="none" xmlns="http://www.w3.org/2000/svg">
<circle cx="15" cy="15" r="15" fill="black" fill-opacity="0.04"/>
<path d="M16.2634 8.44321C16.6539 8.05283 17.287 8.05274 17.6775 8.44321C18.0677 8.8337 18.0678 9.46681 17.6775 9.85727L12.5622 14.9715C12.5524 14.9812 12.5429 14.9907 12.5339 14.9998L17.6775 20.1434C18.0676 20.5339 18.0678 21.167 17.6775 21.5574C17.287 21.9477 16.6539 21.9476 16.2634 21.5574L11.1481 16.4432C11.0312 16.3262 10.9004 16.1962 10.7975 16.075C10.6871 15.9449 10.5516 15.76 10.4704 15.5106C10.3627 15.1792 10.3628 14.8214 10.4704 14.4901C10.5515 14.2405 10.6871 14.0557 10.7975 13.9256C10.9004 13.8044 11.0311 13.6744 11.1481 13.5574L16.2634 8.44321Z" fill="black" fill-opacity="0.6"/>
</svg>
