<svg width="24" height="24" viewBox="0 0 24 24" fill="none" xmlns="http://www.w3.org/2000/svg">
<path d="M16.8499 7.99993C16.8499 7.65613 16.6428 7.34619 16.3252 7.21463C16.0076 7.08307 15.642 7.15579 15.3989 7.39889L13.3989 9.39889C13.0669 9.73083 13.0669 10.269 13.3989 10.601C13.7308 10.9329 14.269 10.9329 14.6009 10.601L15.1499 10.052V15.9999C15.1499 16.4694 15.5305 16.8499 15.9999 16.8499C16.4693 16.8499 16.8499 16.4694 16.8499 15.9999V7.99993Z" fill="#1A1A1A"/>
<path d="M5.61377 11.9999C5.61377 11.5305 5.99433 11.1499 6.46377 11.1499H8.18525V9.42837C8.18525 8.95893 8.56581 8.57837 9.03525 8.57837C9.5047 8.57837 9.88525 8.95893 9.88525 9.42837V11.1499H11.6066C12.0761 11.1499 12.4566 11.5305 12.4566 11.9999C12.4566 12.4693 12.0761 12.8499 11.6066 12.8499H9.88525V14.5712C9.88525 15.0407 9.5047 15.4212 9.03525 15.4212C8.56581 15.4212 8.18525 15.0407 8.18525 14.5712V12.8499H6.46377C5.99433 12.8499 5.61377 12.4693 5.61377 11.9999Z" fill="#1A1A1A"/>
<path fill-rule="evenodd" clip-rule="evenodd" d="M11.9994 2.1499C6.55941 2.1499 2.14941 6.5599 2.14941 11.9999C2.14941 17.4399 6.55941 21.8499 11.9994 21.8499C17.4394 21.8499 21.8494 17.4399 21.8494 11.9999C21.8494 6.5599 17.4394 2.1499 11.9994 2.1499ZM3.84941 11.9999C3.84941 7.49878 7.49829 3.8499 11.9994 3.8499C16.5005 3.8499 20.1494 7.49878 20.1494 11.9999C20.1494 16.501 16.5005 20.1499 11.9994 20.1499C7.49829 20.1499 3.84941 16.501 3.84941 11.9999Z" fill="#1A1A1A"/>
</svg>
