<svg width="24" height="24" viewBox="0 0 24 24" fill="none" xmlns="http://www.w3.org/2000/svg">
<path d="M12 2.15039C17.4398 2.15044 21.8494 6.56021 21.8496 12C21.8496 17.44 17.44 21.8505 12 21.8506C6.56 21.8506 2.14941 17.44 2.14941 12C2.14963 6.56017 6.56013 2.15039 12 2.15039ZM12 3.85059C7.49901 3.85059 3.84982 7.49906 3.84961 12C3.84961 16.5011 7.49888 20.1504 12 20.1504C16.5011 20.1503 20.1504 16.5011 20.1504 12C20.1502 7.49909 16.5009 3.85064 12 3.85059ZM9.58105 8C10.1462 8 10.6044 8.45835 10.6045 9.02344V14.9766C10.6045 15.5417 10.1462 16 9.58105 16C9.01607 15.9998 8.55762 15.5416 8.55762 14.9766V9.02344C8.55768 8.45847 9.01611 8.00018 9.58105 8ZM14.418 8C14.9831 8 15.4413 8.45835 15.4414 9.02344V14.9766C15.4414 15.5417 14.9831 16 14.418 16C13.8531 15.9996 13.3955 15.5415 13.3955 14.9766V9.02344C13.3956 8.45858 13.8532 8.00037 14.418 8Z" fill="#1A1A1A"/>
</svg>
