<svg width="24" height="24" viewBox="0 0 24 24" fill="none" xmlns="http://www.w3.org/2000/svg">
<path fill-rule="evenodd" clip-rule="evenodd" d="M12.3665 3.06847C12.0985 2.80045 11.6768 2.76352 11.3662 2.98089L5.8533 6.83994C3.97096 8.15758 2.8499 10.3107 2.8499 12.6084V12.8331C2.8499 16.5978 5.90183 19.6498 9.66657 19.6498H11.9999C12.3589 19.6498 12.6499 19.3587 12.6499 18.9998C12.6499 18.6408 12.3589 18.3498 11.9999 18.3498C11.5305 18.3498 11.1499 17.9692 11.1499 17.4998C11.1499 17.0303 11.5305 16.6498 11.9999 16.6498H13.9999C14.3589 16.6498 14.6499 16.3587 14.6499 15.9998C14.6499 15.6408 14.3589 15.3498 13.9999 15.3498H11.9999C11.5305 15.3498 11.1499 14.9692 11.1499 14.4998C11.1499 14.0303 11.5305 13.6498 11.9999 13.6498H15.9999C16.3589 13.6498 16.6499 13.3587 16.6499 12.9998C16.6499 12.6408 16.3589 12.3498 15.9999 12.3498H12.9999C12.5305 12.3498 12.1499 11.9692 12.1499 11.4998C12.1499 11.0303 12.5305 10.6498 12.9999 10.6498H20.4999C20.8589 10.6498 21.1499 10.3587 21.1499 9.99976C21.1499 9.64078 20.8589 9.34976 20.4999 9.34976H9.9999C9.67316 9.34976 9.37534 9.16247 9.2338 8.86797C9.09225 8.57348 9.13205 8.22392 9.33616 7.96877L12.4241 4.10879C12.6728 3.79798 12.648 3.34992 12.3665 3.06847ZM18.2589 12.3498C18.3181 12.5562 18.3499 12.7743 18.3499 12.9998C18.3499 14.2115 17.4328 15.209 16.2549 15.3361C16.3167 15.5466 16.3499 15.7693 16.3499 15.9998C16.3499 17.2115 15.4328 18.209 14.2549 18.3361C14.3167 18.5466 14.3499 18.7693 14.3499 18.9998C14.3499 20.2976 13.2978 21.3498 11.9999 21.3498H9.66657C4.96294 21.3498 1.1499 17.5367 1.1499 12.8331V12.6084C1.1499 9.75601 2.54162 7.083 4.87841 5.44725L10.3913 1.58819C11.3777 0.897775 12.7173 1.01507 13.5686 1.86639C14.4626 2.76036 14.5414 4.18355 13.7516 5.17077L11.7684 7.64976H20.4999C21.7978 7.64976 22.8499 8.70189 22.8499 9.99976C22.8499 11.2976 21.7978 12.3498 20.4999 12.3498H18.2589Z" fill="#1A1A1A"/>
</svg>
