<svg width="24" height="24" viewBox="0 0 24 24" fill="none" xmlns="http://www.w3.org/2000/svg">
<path fill-rule="evenodd" clip-rule="evenodd" d="M1.6834 13.7364C1.81393 14.1873 2.2853 14.447 2.73623 14.3165L11.3464 11.8241C11.7043 11.7205 11.7902 11.6985 11.8705 11.6894C11.9565 11.6797 12.0433 11.6797 12.1292 11.6894C12.2096 11.6985 12.2955 11.7205 12.6533 11.8241L21.2635 14.3165C21.7145 14.447 22.1858 14.1873 22.3164 13.7364C22.4469 13.2854 22.1872 12.8141 21.7362 12.6835L13.126 10.1911C13.1086 10.186 13.0913 10.181 13.0742 10.1761C12.7937 10.0947 12.5621 10.0276 12.3204 10.0002C12.1074 9.97609 11.8924 9.97609 11.6793 10.0002C11.4377 10.0276 11.2061 10.0947 10.9256 10.1761C10.9085 10.181 10.8912 10.186 10.8737 10.1911L2.26353 12.6835C1.8126 12.8141 1.55287 13.2854 1.6834 13.7364Z" fill="#1A1A1A"/>
</svg>
