<svg width="24" height="24" viewBox="0 0 24 24" fill="none" xmlns="http://www.w3.org/2000/svg">
<path fill-rule="evenodd" clip-rule="evenodd" d="M12.8511 1.50003C12.8512 1.03098 12.4713 0.650533 12.0022 0.649903C11.5332 0.649275 11.1523 1.0287 11.1511 1.49775C11.1489 2.36591 11.1499 2.80887 11.1508 3.25078L11.1508 3.25204L11.1507 4.22936C10.9479 4.27521 10.7479 4.33771 10.5528 4.41685L8.15523 5.38923L7.29089 3.1891C7.11924 2.75216 6.62589 2.53711 6.18895 2.70876C5.75202 2.88042 5.53696 3.37377 5.70862 3.81071L6.70235 6.3402C6.97709 7.03954 7.76996 7.37999 8.46625 7.09759L11.1917 5.99221C11.6831 5.7929 12.3145 5.79213 12.8078 5.99221L15.5333 7.09759C16.2296 7.37999 17.0224 7.03954 17.2972 6.3402L18.2909 3.81071C18.4625 3.37377 18.2475 2.88042 17.8106 2.70876C17.3736 2.53711 16.8803 2.75216 16.7086 3.1891L15.8443 5.38923L13.4467 4.41685C13.2526 4.3381 13.0536 4.27584 12.8518 4.23005C12.8521 3.82465 12.8515 3.53662 12.8508 3.24903L12.8508 3.24777L12.8511 1.50206L12.8511 1.50003ZM12.3238 8.73636C12.1153 8.65589 11.8843 8.65589 11.6757 8.73636L6.69721 10.6576C6.28487 10.8168 6.04909 11.2517 6.14084 11.6841L7.44773 17.8426C7.49206 18.0515 7.6092 18.2378 7.77823 18.3682L11.9845 21.6147C11.9935 21.6216 12.006 21.6216 12.015 21.6147L16.2213 18.3682C16.3903 18.2378 16.5075 18.0515 16.5518 17.8426L17.8587 11.6841C17.9504 11.2517 17.7146 10.8168 17.3023 10.6576L12.3238 8.73636ZM11.0637 7.15037C11.6661 6.91789 12.3334 6.91789 12.9358 7.15037L17.9144 9.07163C19.1056 9.53133 19.7867 10.788 19.5216 12.037L18.2147 18.1955C18.0867 18.7989 17.7483 19.3371 17.26 19.714L13.0537 22.9605C12.4328 23.4397 11.5667 23.4397 10.9458 22.9605L6.73953 19.714C6.25122 19.3371 5.91281 18.7989 5.78477 18.1955L4.47788 12.037C4.21282 10.788 4.89394 9.53133 6.08516 9.07163L11.0637 7.15037ZM21.9753 10.33C21.5175 10.2265 21.0624 10.5138 20.9588 10.9717L19.3791 17.9603C19.2756 18.4182 19.5629 18.8733 20.0208 18.9768C20.4787 19.0803 20.9338 18.793 21.0373 18.3351L22.617 11.3465C22.7205 10.8886 22.4332 10.4335 21.9753 10.33ZM3.03742 10.9717C2.93392 10.5138 2.47882 10.2265 2.02093 10.33C1.56304 10.4335 1.27575 10.8886 1.37926 11.3465L2.95901 18.3351C3.06252 18.793 3.51762 19.0803 3.97551 18.9768C4.43339 18.8733 4.72068 18.4182 4.61718 17.9603L3.03742 10.9717Z" fill="#1A1A1A"/>
</svg>
