<svg width="24" height="24" viewBox="0 0 24 24" fill="none" xmlns="http://www.w3.org/2000/svg">
<path d="M11.7292 2.58984H13.1165C14.6344 2.58984 15.8312 2.58983 16.7909 2.67658C17.7711 2.76518 18.5869 2.94956 19.3164 3.36938C20.2115 3.8844 20.9542 4.62714 21.4692 5.52216C21.889 6.25174 22.0734 7.06754 22.162 8.04772C22.2162 8.64654 22.2365 9.33765 22.2442 10.1415C21.805 9.39333 21.2142 8.77223 20.4796 8.32592C20.4762 8.28364 20.4726 8.24193 20.4689 8.20076C20.391 7.33813 20.2422 6.79833 19.9958 6.37003C19.6304 5.73511 19.1035 5.2082 18.4686 4.84285C18.0403 4.5964 17.5005 4.44765 16.6378 4.36968C15.7636 4.29065 14.6436 4.28984 13.0746 4.28984H11.7866C9.65502 4.28984 8.13306 4.29131 6.96586 4.43279C5.81838 4.57189 5.12813 4.83545 4.60597 5.28003C4.43721 5.42373 4.28022 5.58071 4.13653 5.74947C3.69195 6.27163 3.42838 6.96189 3.28929 8.10936C3.16737 9.11515 3.14942 10.3844 3.14679 12.0801H11.7133C11.8264 12.0801 11.9343 12.1022 12.033 12.1423C11.9254 12.6546 11.8667 13.1946 11.8584 13.7543L11.8583 13.7678C11.8112 13.7759 11.7628 13.7801 11.7133 13.7801H3.14782C3.15468 15.2518 3.19191 15.9276 3.38251 16.4681C3.80017 17.6527 4.73181 18.5843 5.91634 19.002C6.55155 19.2259 7.37357 19.2381 9.45439 19.2381H10.5253L10.5289 19.2674L10.5393 19.3335L10.5619 19.4462L10.574 19.4992C10.5889 19.5592 10.6062 19.6182 10.6264 19.6766L10.6537 19.7494L10.6888 19.8357L10.7417 19.9428C10.956 20.3529 11.2966 20.6904 11.8908 20.8139L11.9035 20.816L11.8908 20.8648C11.8848 20.8891 11.8794 20.9136 11.8746 20.9381L9.26261 20.9382C7.43781 20.9386 6.29707 20.9388 5.35104 20.6052C3.68128 20.0165 2.368 18.7032 1.77925 17.0334C1.44568 16.0874 1.44593 14.9467 1.44632 13.1219L1.44634 12.8727C1.44633 10.8112 1.44632 9.18617 1.60164 7.90479C1.7608 6.59181 2.09373 5.5264 2.84215 4.64739C3.04471 4.4095 3.26599 4.18821 3.50389 3.98565C4.3829 3.23724 5.44831 2.9043 6.76129 2.74515C8.04267 2.58982 9.66768 2.58983 11.7292 2.58984Z" fill="#1A1A1A"/>
<path fill-rule="evenodd" clip-rule="evenodd" d="M17.5006 8.97266C14.6732 8.97266 13.1074 11.2932 13.0668 14.2579L13.0664 14.4366L13.0676 14.5135L12.7066 15.4739L12.576 15.8431L12.4872 16.1057L12.4093 16.3474L12.3418 16.5702C12.3189 16.6486 12.2972 16.7258 12.2767 16.8018L12.2115 17.0546L12.1935 17.1294L12.1503 17.3205L12.0993 17.5763L12.0905 17.6251L12.0556 17.8437L12.0374 17.98L12.0216 18.1252L12.0102 18.263L12.0077 18.3019L12.0019 18.4292L12.0007 18.4761L12 18.5713L12.0006 18.6233L12.0034 18.7083L12.0066 18.7667L12.0124 18.8418L12.025 18.9552L12.0331 19.0115L12.0508 19.1076L12.0603 19.1527C12.072 19.2038 12.0855 19.2541 12.1013 19.3039L12.1228 19.3658L12.1503 19.4394L12.1918 19.5306C12.3597 19.8801 12.6266 20.1676 13.0922 20.2728L13.1021 20.2746L13.0922 20.3162C13.0125 20.6722 13.0603 21.0469 13.2445 21.3764C13.497 21.8278 13.8095 21.9837 14.2338 22.0908C14.3993 22.1326 14.5811 22.1594 14.7909 22.178L15.0671 22.197L15.2453 22.2045L15.4414 22.2095L15.6402 22.2117L15.8408 22.2114L16.0415 22.2091L16.3367 22.2022L16.626 22.1917L16.9843 22.1737L17.2318 22.1575L17.3833 22.1458L17.5009 22.1346L17.5472 22.1395L17.8164 22.1609L18.1173 22.1793L18.3355 22.19L18.5593 22.1988L18.9023 22.208L19.1015 22.211L19.3577 22.2117L19.6126 22.2084L19.7821 22.2036L19.9444 22.1965L20.1025 22.1867L20.3037 22.1689L20.3525 22.1635L20.4829 22.1462C20.6698 22.1174 20.8139 22.0845 20.9542 22.0344C21.2793 21.9184 21.5505 21.7451 21.7567 21.3764L21.7917 21.3099C21.9468 20.997 21.9834 20.6485 21.909 20.3162L21.8984 20.2733L21.9156 20.2699C22.2244 20.1932 22.4614 20.0199 22.6359 19.8033L22.6793 19.7494L22.7619 19.6213L22.7877 19.5725C22.8204 19.511 22.8479 19.449 22.8714 19.3861L22.8932 19.323L22.9065 19.2813L22.9225 19.2265C22.9354 19.1788 22.9464 19.1305 22.9559 19.0813L22.9727 18.9797L22.982 18.9078L22.9966 18.7369L23.0014 18.5554L23.0009 18.5001L22.9983 18.3997L22.9896 18.245L22.9778 18.1066L22.9638 17.9799L22.9299 17.74L22.8963 17.5464L22.8746 17.4341L22.8349 17.2478L22.7851 17.0363L22.7279 16.8146L22.682 16.6486L22.6594 16.5701C22.5938 16.3455 22.5119 16.0931 22.4148 15.813L22.3024 15.495L21.9333 14.5135L21.9352 14.3752C21.9352 11.3582 20.3686 8.97266 17.5006 8.97266ZM17.5007 10.3948C19.6429 10.3948 20.5337 12.3394 20.5606 14.3047L20.5611 14.4361L20.5554 14.7587L20.9945 15.926L21.0544 16.0939C21.1535 16.3746 21.2481 16.6576 21.3206 16.9061L21.35 17.0087L21.3774 17.1083L21.4269 17.2988L21.4693 17.4778L21.505 17.6454L21.5206 17.725L21.5472 17.8759L21.5583 17.9472L21.5766 18.0818C21.5819 18.1249 21.5863 18.1662 21.5899 18.2057L21.5948 18.2638L21.6014 18.3721L21.604 18.4702L21.6038 18.5155L21.6012 18.5986L21.5987 18.6365L21.5917 18.7052L21.5823 18.7643L21.5709 18.8141L21.558 18.8549L21.5511 18.8719L21.5439 18.8866L21.5291 18.9097C21.519 18.9222 21.5087 18.9289 21.4987 18.9302C21.4282 18.9393 21.3149 18.8323 21.1935 18.6827L21.1267 18.5973L21.0277 18.4615L20.932 18.3215L20.8606 18.2124L20.74 18.0203L20.6437 17.8595C20.6437 18.4965 20.3357 19.328 19.6679 19.9272C19.9186 20.0087 20.2281 20.1349 20.4263 20.2901C20.6029 20.4283 20.5809 20.5691 20.5491 20.626C20.5245 20.6699 20.4348 20.7032 20.3 20.728L20.2474 20.7369L20.1147 20.7541L19.9646 20.7676L19.8336 20.7759L19.6945 20.7822L19.5487 20.7865L19.3204 20.7896L19.0846 20.789L18.9057 20.7864L18.5859 20.7779L18.379 20.7698L18.1812 20.7602L17.9087 20.7437L17.6756 20.7255L17.5007 20.7077L17.4538 20.713L17.286 20.729L17.154 20.7393L16.9312 20.754L16.5987 20.7708L16.332 20.7806L16.0583 20.7871L15.8754 20.7893L15.6946 20.7896L15.518 20.7878L15.3478 20.7836L15.186 20.7769L15.1089 20.7725L14.9636 20.7617C14.6861 20.737 14.4905 20.6941 14.4524 20.626C14.4206 20.5691 14.3986 20.4283 14.5751 20.2901C14.7585 20.1465 15.0372 20.0277 15.2764 19.9462L15.3321 19.9275L15.2512 19.8518C14.6672 19.2849 14.383 18.5383 14.3594 17.9401L14.3578 17.8595L14.3242 17.9164L14.2056 18.1105L14.1058 18.2663L14.0318 18.3774L13.954 18.4892L13.8853 18.5833L13.8168 18.6717C13.6921 18.827 13.5749 18.9395 13.5027 18.9302C13.4887 18.9284 13.4741 18.9159 13.4604 18.892L13.4504 18.8719L13.4368 18.8356L13.4305 18.8141L13.4246 18.7904L13.4142 18.7359L13.406 18.672L13.4003 18.5986L13.3976 18.5155L13.3983 18.4224L13.4028 18.3192L13.4115 18.2057L13.4248 18.0818L13.4431 17.9472L13.4737 17.7637L13.5135 17.563L13.5525 17.3898L13.5745 17.2988L13.624 17.1083C13.6417 17.0429 13.6606 16.9755 13.6808 16.9061C13.7157 16.7868 13.7555 16.6596 13.7986 16.5285L13.8883 16.2623L14.0069 15.926L14.446 14.7587L14.4406 14.4638L14.4409 14.3047C14.4678 12.3394 15.3585 10.3948 17.5007 10.3948Z" fill="#1A1A1A"/>
</svg>
