<svg width="24" height="24" viewBox="0 0 24 24" fill="none" xmlns="http://www.w3.org/2000/svg">
<path d="M12.8199 7.38835C12.8199 6.78367 13.3101 6.29348 13.9148 6.29348C14.5194 6.29348 15.0096 6.78367 15.0096 7.38835C15.0096 7.99303 14.5194 8.48321 13.9148 8.48321C13.3101 8.48321 12.8199 7.99303 12.8199 7.38835Z" fill="#1A1A1A"/>
<path fill-rule="evenodd" clip-rule="evenodd" d="M13.1 11.9562C15.734 11.5476 17.75 9.26995 17.75 6.52148C17.75 3.48392 15.2876 1.02148 12.25 1.02148C9.21243 1.02148 6.75 3.48392 6.75 6.52148C6.75 9.26998 8.76606 11.5476 11.4 11.9562V16.7512C11.4 17.2206 11.7806 17.6012 12.25 17.6012C12.7195 17.6012 13.1 17.2206 13.1 16.7512V11.9562ZM16.05 6.52148C16.05 8.62017 14.3487 10.3215 12.25 10.3215C10.1513 10.3215 8.45 8.62017 8.45 6.52148C8.45 4.4228 10.1513 2.72148 12.25 2.72148C14.3487 2.72148 16.05 4.4228 16.05 6.52148Z" fill="#1A1A1A"/>
<path d="M8.48798 15.5691C8.94841 15.4775 9.24743 15.0301 9.15586 14.5696C9.0643 14.1092 8.61683 13.8102 8.1564 13.9017C6.59177 14.2129 5.21299 14.7066 4.20152 15.3547C3.218 15.9849 2.3999 16.8883 2.3999 18.0512C2.3999 18.8615 2.80466 19.5527 3.36603 20.0961C3.92488 20.6369 4.68906 21.0848 5.56392 21.443C7.31779 22.1609 9.68208 22.5854 12.2499 22.5854C14.8177 22.5854 17.182 22.1609 18.9359 21.443C19.8107 21.0848 20.5749 20.6369 21.1338 20.0961C21.6951 19.5527 22.0999 18.8615 22.0999 18.0512C22.0999 16.8883 21.2818 15.9849 20.2983 15.3547C19.2868 14.7066 17.908 14.2129 16.3434 13.9017C15.883 13.8102 15.4355 14.1092 15.3439 14.5696C15.2524 15.0301 15.5514 15.4775 16.0118 15.5691C17.4498 15.855 18.6071 16.2901 19.3811 16.7861C20.1831 17.2999 20.3999 17.7559 20.3999 18.0512C20.3999 18.2582 20.301 18.5363 19.9515 18.8745C19.5995 19.2152 19.0457 19.5611 18.2918 19.8697C16.7884 20.4852 14.6526 20.8854 12.2499 20.8854C9.84716 20.8854 7.71145 20.4852 6.20796 19.8697C5.45414 19.5611 4.9003 19.2152 4.5483 18.8745C4.19883 18.5363 4.0999 18.2582 4.0999 18.0512C4.0999 17.7559 4.31667 17.2999 5.11866 16.7861C5.89269 16.2901 7.05005 15.855 8.48798 15.5691Z" fill="#1A1A1A"/>
</svg>
