<svg width="24" height="24" viewBox="0 0 24 24" fill="none" xmlns="http://www.w3.org/2000/svg">
<path d="M2.40504 14.5109L2.40376 14.5087C1.72147 11.9564 2.08058 9.23753 3.40215 6.94984C4.72372 4.66215 6.8996 2.99284 9.45151 2.30882C9.62341 2.2621 9.90852 2.18607 10.2223 2.12172C10.4399 2.07708 10.4837 2.29356 10.2794 2.38076C9.91577 2.53594 9.55752 2.71459 9.20654 2.91723C5.24923 5.20198 3.47078 9.81133 4.60019 14.0246L4.5961 14.0257C4.72805 14.5078 4.52704 15.0355 4.07605 15.2958C3.5392 15.6058 2.85141 15.4196 2.53984 14.8799C2.47187 14.7622 2.42742 14.6374 2.40504 14.5109Z" fill="#1A1A1A"/>
<path d="M19.0527 18.9677L19.0514 18.9699C17.1821 20.837 14.648 21.8854 12.006 21.8848C9.36401 21.8841 6.8304 20.8344 4.96207 18.9664C4.83566 18.8409 4.62726 18.632 4.41465 18.3924C4.26717 18.2263 4.43274 18.0801 4.61044 18.2134C4.92663 18.4508 5.26047 18.6717 5.61145 18.8743C9.56876 21.1591 14.4498 20.3946 17.5339 17.3098L17.5369 17.3128C17.8884 16.9575 18.4459 16.8678 18.8969 17.1281C19.4338 17.4381 19.6164 18.1268 19.3048 18.6665C19.2368 18.7842 19.151 18.8851 19.0527 18.9677Z" fill="#1A1A1A"/>
<path d="M14.5536 2.27878L14.551 2.27878C14.4303 2.23495 14.3 2.21104 14.1641 2.21104C13.5409 2.21104 13.0358 2.71357 13.0358 3.33348C13.0358 3.85424 13.3923 4.29217 13.8757 4.41893L13.8746 4.42302C18.0882 5.55156 21.1907 9.39642 21.1907 13.9659C21.1907 14.3712 21.1663 14.7708 21.1189 15.1633C21.0923 15.3838 21.3016 15.4541 21.3718 15.2433C21.473 14.9394 21.5497 14.6545 21.5952 14.4823C22.2787 11.9303 21.921 9.21123 20.6006 6.92287C19.2802 4.63451 17.1051 2.96409 14.5536 2.27878Z" fill="#1A1A1A"/>
<path fill-rule="evenodd" clip-rule="evenodd" d="M12 6.28906C9.56083 6.28906 8.20996 8.29101 8.17495 10.8486L8.17465 11.0028L8.17562 11.0691L7.86418 11.8977L7.75157 12.2161L7.67496 12.4427L7.60773 12.6512L7.54951 12.8434C7.52977 12.9111 7.51104 12.9777 7.49332 13.0432L7.43713 13.2613L7.42155 13.3258L7.38434 13.4907L7.34033 13.7114L7.33274 13.7535L7.30259 13.9421L7.28686 14.0596L7.2733 14.1849L7.26342 14.3038L7.26124 14.3374L7.2563 14.4472L7.25526 14.4877L7.25464 14.5698L7.25519 14.6146L7.25756 14.688L7.26031 14.7384L7.26531 14.8031L7.27617 14.901L7.28322 14.9496L7.2985 15.0324L7.30666 15.0713C7.31672 15.1154 7.32843 15.1588 7.34207 15.2018L7.36055 15.2552L7.38428 15.3186L7.42007 15.3974C7.56493 15.6988 7.79521 15.9469 8.19688 16.0377L8.20546 16.0392L8.19685 16.0751C8.12809 16.3822 8.16932 16.7055 8.3283 16.9897C8.5461 17.3791 8.8157 17.5136 9.18169 17.606C9.32452 17.6421 9.48132 17.6652 9.6623 17.6813L9.90064 17.6977L10.0543 17.7041L10.2235 17.7084L10.3951 17.7103L10.5681 17.7101L10.7413 17.7081L10.9959 17.7021L11.2454 17.6931L11.5546 17.6775L11.7681 17.6636L11.8988 17.6534L12.0003 17.6439L12.0402 17.6481L12.2724 17.6665L12.532 17.6824L12.7202 17.6916L12.9133 17.6992L13.2092 17.7072L13.3811 17.7097L13.6021 17.7104L13.822 17.7075L13.9683 17.7033L14.1082 17.6972L14.2446 17.6887L14.4182 17.6734L14.4603 17.6688L14.5728 17.6539C14.734 17.629 14.8583 17.6006 14.9794 17.5574C15.2599 17.4573 15.4938 17.3078 15.6717 16.9897L15.7019 16.9323C15.8357 16.6624 15.8673 16.3617 15.8031 16.0751L15.794 16.0381L15.8088 16.0351C16.0752 15.969 16.2796 15.8194 16.4302 15.6326L16.4676 15.5861L16.5389 15.4756L16.5612 15.4335C16.5893 15.3805 16.6131 15.327 16.6334 15.2727L16.6522 15.2183L16.6636 15.1823L16.6775 15.135C16.6886 15.0939 16.6981 15.0522 16.7062 15.0098L16.7207 14.9221L16.7288 14.8601L16.7413 14.7126L16.7455 14.5561L16.7451 14.5083L16.7428 14.4218L16.7354 14.2883L16.7251 14.1689L16.7131 14.0596L16.6839 13.8526L16.6548 13.6856L16.6361 13.5887L16.6019 13.428L16.5589 13.2456L16.5096 13.0543L16.4699 12.9111L16.4504 12.8434C16.3939 12.6496 16.3232 12.4318 16.2394 12.1902L16.1424 11.9159L15.8241 11.0691L15.8257 10.9499C15.8257 8.34704 14.4742 6.28906 12 6.28906ZM12 7.74401C13.7541 7.74401 14.4835 9.3363 14.5055 10.9455L14.5059 11.0531L14.5013 11.3172L14.8608 12.273L14.9098 12.4105C14.991 12.6404 15.0684 12.872 15.1278 13.0756L15.1519 13.1596L15.1744 13.2412L15.2148 13.3971L15.2495 13.5437L15.2788 13.6809L15.2915 13.7461L15.3133 13.8696L15.3225 13.928L15.3375 14.0382C15.3417 14.0735 15.3454 14.1073 15.3483 14.1397L15.3524 14.1872L15.3577 14.2759L15.3599 14.3562L15.3597 14.3933L15.3575 14.4614L15.3555 14.4924L15.3498 14.5486L15.3421 14.597L15.3328 14.6379L15.3222 14.6712L15.3165 14.6851L15.3107 14.6972L15.2985 14.7161C15.2903 14.7263 15.2819 14.7319 15.2737 14.7329C15.2159 14.7403 15.1231 14.6527 15.0237 14.5302L14.969 14.4604L14.888 14.3491L14.8097 14.2345L14.7511 14.1451L14.6524 13.9879L14.5736 13.8562C14.5736 14.3778 14.3214 15.0586 13.7746 15.5493C13.9798 15.6159 14.2333 15.7194 14.3956 15.8464C14.5401 15.9595 14.5221 16.0749 14.4961 16.1215C14.476 16.1573 14.4025 16.1847 14.2921 16.205L14.249 16.2123L14.1404 16.2263L14.0175 16.2374L13.9103 16.2442L13.7964 16.2493L13.677 16.2528L13.49 16.2554L13.297 16.2549L13.1505 16.2528L12.8886 16.2458L12.7192 16.2392L12.5572 16.2313L12.3341 16.2178L12.1432 16.2029L12.0001 16.1883L11.9617 16.1927L11.8243 16.2058L11.7162 16.2142L11.5338 16.2262L11.2615 16.24L11.0431 16.248L10.819 16.2533L10.6692 16.2552L10.5212 16.2554L10.3766 16.2539L10.2372 16.2505L10.1047 16.245L10.0416 16.2414L9.92268 16.2325C9.69541 16.2123 9.53526 16.1772 9.50407 16.1215C9.478 16.0749 9.46 15.9595 9.60455 15.8464C9.75473 15.7288 9.98295 15.6315 10.1788 15.5648L10.2244 15.5495L10.1582 15.4875C9.67994 15.0234 9.44723 14.412 9.42789 13.9222L9.42658 13.8562L9.39914 13.9028L9.30198 14.0617L9.22031 14.1893L9.15966 14.2803L9.09602 14.3718L9.03976 14.4489L8.98362 14.5213C8.8815 14.6484 8.78558 14.7405 8.72646 14.7329C8.71501 14.7314 8.70307 14.7212 8.69186 14.7016L8.6836 14.6851L8.6725 14.6555L8.66735 14.6379L8.66252 14.6184L8.65399 14.5738L8.64724 14.5215L8.6426 14.4614L8.6404 14.3933L8.64098 14.3171L8.64466 14.2326L8.65178 14.1397L8.66268 14.0382L8.67767 13.928L8.70268 13.7778L8.73527 13.6134L8.76723 13.4716L8.78528 13.3971L8.82576 13.2412C8.84025 13.1876 8.85575 13.1324 8.87232 13.0756C8.90082 12.9779 8.93348 12.8737 8.96872 12.7663L9.04215 12.5484L9.13931 12.273L9.49885 11.3172L9.49444 11.0758L9.49462 10.9455C9.51665 9.3363 10.246 7.74401 12 7.74401Z" fill="#1A1A1A"/>
</svg>
