<svg width="24" height="24" viewBox="0 0 24 24" fill="none" xmlns="http://www.w3.org/2000/svg">
<path d="M14.25 18.502C14.9402 18.5022 15.5 19.0617 15.5 19.752C15.4998 20.442 14.94 21.0017 14.25 21.002C13.5598 21.002 13.0002 20.4421 13 19.752C13 19.0616 13.5596 18.502 14.25 18.502Z" fill="#1A1A1A"/>
<path d="M19.75 18.502C20.4404 18.502 21 19.0616 21 19.752C20.9998 20.4421 20.4402 21.002 19.75 21.002C19.06 21.0017 18.5002 20.442 18.5 19.752C18.5 19.0617 19.0598 18.5022 19.75 18.502Z" fill="#1A1A1A"/>
<path fill-rule="evenodd" clip-rule="evenodd" d="M7 12.998C7.92989 12.998 8.39489 12.9984 8.77637 13.1006C9.81152 13.378 10.62 14.1866 10.8975 15.2217C10.9997 15.6031 11 16.0683 11 16.998C11 17.9277 10.9996 18.393 10.8975 18.7744C10.6201 19.8097 9.8116 20.6181 8.77637 20.8955C8.39487 20.9977 7.92997 20.998 7 20.998C6.18617 20.998 5.7284 20.9982 5.37109 20.9297L5.22363 20.8955C4.25306 20.6354 3.48132 19.9087 3.16016 18.9658L3.10254 18.7744C3.00042 18.393 3 17.9277 3 16.998C3 16.1845 2.99986 15.7264 3.06836 15.3691L3.10254 15.2217C3.3627 14.2512 4.08938 13.4793 5.03223 13.1582L5.22363 13.1006C5.60511 12.9984 6.07011 12.998 7 12.998ZM7 14.6982C5.96089 14.6982 5.77392 14.7125 5.66309 14.7422C5.2149 14.8624 4.8645 15.213 4.74414 15.6611C4.71445 15.7719 4.7002 15.959 4.7002 16.998C4.7002 18.0363 4.71451 18.2241 4.74414 18.335C4.8644 18.7832 5.21482 19.1336 5.66309 19.2539C5.77391 19.2836 5.96058 19.2979 7 19.2979C8.03942 19.2979 8.22609 19.2836 8.33691 19.2539C8.78518 19.1336 9.1356 18.7832 9.25586 18.335C9.28549 18.2241 9.2998 18.0363 9.2998 16.998C9.2998 15.959 9.28555 15.7719 9.25586 15.6611C9.1355 15.213 8.7851 14.8624 8.33691 14.7422C8.22608 14.7125 8.03911 14.6982 7 14.6982Z" fill="#1A1A1A"/>
<path d="M17 15.75C17.6904 15.75 18.25 16.3096 18.25 17C18.25 17.6904 17.6904 18.25 17 18.25C16.3096 18.25 15.75 17.6904 15.75 17C15.75 16.3096 16.3096 15.75 17 15.75Z" fill="#1A1A1A"/>
<path d="M14.25 12.998C14.94 12.9983 15.4998 13.558 15.5 14.248C15.5 14.9383 14.9402 15.4978 14.25 15.498C13.5596 15.498 13 14.9384 13 14.248C13.0002 13.5579 13.5598 12.998 14.25 12.998Z" fill="#1A1A1A"/>
<path d="M19.75 12.998C20.4402 12.998 20.9998 13.5579 21 14.248C21 14.9384 20.4404 15.498 19.75 15.498C19.0598 15.4978 18.5 14.9383 18.5 14.248C18.5002 13.558 19.06 12.9983 19.75 12.998Z" fill="#1A1A1A"/>
<path fill-rule="evenodd" clip-rule="evenodd" d="M7 3C7.92997 3 8.39487 3.00032 8.77637 3.10254C9.81164 3.37994 10.6201 4.18836 10.8975 5.22363C10.9997 5.60513 11 6.07003 11 7C11 7.92997 10.9997 8.39487 10.8975 8.77637C10.6201 9.81164 9.81164 10.6201 8.77637 10.8975C8.39487 10.9997 7.92997 11 7 11C6.18617 11 5.7284 11.0001 5.37109 10.9316L5.22363 10.8975C4.25302 10.6374 3.48133 9.91073 3.16016 8.96777L3.10254 8.77637C3.00032 8.39487 3 7.92997 3 7C3 6.18617 2.99985 5.7284 3.06836 5.37109L3.10254 5.22363C3.36261 4.25302 4.08927 3.48133 5.03223 3.16016L5.22363 3.10254C5.60513 3.00032 6.07003 3 7 3ZM7 4.7002C5.96058 4.7002 5.77391 4.71445 5.66309 4.74414C5.21478 4.86441 4.86441 5.21478 4.74414 5.66309C4.71445 5.77391 4.7002 5.96058 4.7002 7C4.7002 8.03942 4.71445 8.22609 4.74414 8.33691C4.86441 8.78522 5.21478 9.13559 5.66309 9.25586C5.77391 9.28555 5.96058 9.2998 7 9.2998C8.03942 9.2998 8.22609 9.28555 8.33691 9.25586C8.78522 9.13559 9.13559 8.78522 9.25586 8.33691C9.28555 8.22609 9.2998 8.03942 9.2998 7C9.2998 5.96058 9.28555 5.77391 9.25586 5.66309C9.13559 5.21478 8.78522 4.86441 8.33691 4.74414C8.22609 4.71445 8.03942 4.7002 7 4.7002Z" fill="#1A1A1A"/>
<path fill-rule="evenodd" clip-rule="evenodd" d="M17 3C17.9297 3 18.3949 3.00033 18.7764 3.10254C19.8115 3.38003 20.6201 4.18848 20.8975 5.22363C20.9997 5.60511 21 6.07011 21 7C21 7.92989 20.9997 8.39489 20.8975 8.77637C20.6201 9.81152 19.8115 10.62 18.7764 10.8975C18.3949 10.9997 17.9297 11 17 11C16.1865 11 15.7283 11.0001 15.3711 10.9316L15.2236 10.8975C14.2531 10.6374 13.4814 9.91068 13.1602 8.96777L13.1025 8.77637C13.0003 8.39487 13 7.92997 13 7C13 6.18617 12.9999 5.7284 13.0684 5.37109L13.1025 5.22363C13.3626 4.25306 14.0893 3.48132 15.0322 3.16016L15.2236 3.10254C15.6051 3.00042 16.0703 3 17 3ZM17 4.7002C15.9617 4.7002 15.774 4.71451 15.6631 4.74414C15.2148 4.8644 14.8644 5.21482 14.7441 5.66309C14.7144 5.77391 14.7002 5.96058 14.7002 7C14.7002 8.03942 14.7144 8.22609 14.7441 8.33691C14.8644 8.78518 15.2148 9.1356 15.6631 9.25586C15.774 9.28549 15.9617 9.2998 17 9.2998C18.0391 9.2998 18.2261 9.28555 18.3369 9.25586C18.7851 9.1355 19.1356 8.7851 19.2559 8.33691C19.2855 8.22608 19.2998 8.03911 19.2998 7C19.2998 5.96089 19.2855 5.77392 19.2559 5.66309C19.1356 5.2149 18.7851 4.8645 18.3369 4.74414C18.2261 4.71445 18.0391 4.7002 17 4.7002Z" fill="#1A1A1A"/>
</svg>
