<svg width="24" height="24" viewBox="0 0 24 24" fill="none" xmlns="http://www.w3.org/2000/svg">
<path fill-rule="evenodd" clip-rule="evenodd" d="M8.1499 6.00039C8.1499 4.42638 9.42589 3.15039 10.9999 3.15039H12.9999C14.5739 3.15039 15.8499 4.42638 15.8499 6.00039V11.3919C16.2016 11.2366 16.5907 11.1504 16.9999 11.1504H18.9999C20.5739 11.1504 21.8499 12.4264 21.8499 14.0004V18.0004C21.8499 19.5744 20.5739 20.8504 18.9999 20.8504H4.9999C3.42589 20.8504 2.1499 19.5744 2.1499 18.0004V10.0004C2.1499 8.42638 3.42589 7.15039 4.9999 7.15039H6.9999C7.40911 7.15039 7.79817 7.23663 8.1499 7.39193V6.00039ZM9.8499 19.1504H14.1499V6.00039C14.1499 5.36526 13.635 4.85039 12.9999 4.85039H10.9999C10.3648 4.85039 9.8499 5.36526 9.8499 6.00039V19.1504ZM8.1499 10.0004C8.1499 9.36526 7.63503 8.85039 6.9999 8.85039H4.9999C4.36478 8.85039 3.8499 9.36526 3.8499 10.0004V18.0004C3.8499 18.6355 4.36477 19.1504 4.9999 19.1504H8.1499V10.0004ZM15.8499 19.1504V14.0004C15.8499 13.3653 16.3648 12.8504 16.9999 12.8504H18.9999C19.635 12.8504 20.1499 13.3653 20.1499 14.0004V18.0004C20.1499 18.6355 19.635 19.1504 18.9999 19.1504H15.8499Z" fill="#1A1A1A"/>
</svg>
