<svg width="24" height="24" viewBox="0 0 24 24" fill="none" xmlns="http://www.w3.org/2000/svg">
<path d="M15.4766 11.971C15.8342 12.2751 15.8776 12.8115 15.5735 13.1691L14.7706 14.1133L15.8593 14.545C16.2957 14.7181 16.5091 15.2122 16.3361 15.6485C16.163 16.0849 15.669 16.2984 15.2326 16.1253L13.0414 15.2563C12.7866 15.1552 12.5962 14.9376 12.53 14.6717C12.4637 14.4058 12.5297 14.1243 12.7072 13.9155L14.2785 12.0678C14.5826 11.7102 15.119 11.6669 15.4766 11.971Z" fill="#1A1A1A"/>
<path d="M9.95968 17.1796C10.7216 17.0058 11.1043 15.8354 10.8145 14.5656C10.5247 13.2958 9.67219 12.4073 8.91029 12.5812C8.1484 12.755 7.76567 13.9254 8.05545 15.1952C8.34523 16.465 9.19779 17.3535 9.95968 17.1796Z" fill="#1A1A1A"/>
<path fill-rule="evenodd" clip-rule="evenodd" d="M17.4926 3.60512C17.8622 3.31563 17.9271 2.78137 17.6376 2.41181C17.3481 2.04225 16.8138 1.97734 16.4443 2.26683L2.2673 13.3722L2.26205 13.3763C-0.731899 15.7599 0.836071 20.786 4.7418 20.786H23.0444C23.5138 20.786 23.8944 20.4054 23.8944 19.936C23.8944 19.4665 23.5138 19.086 23.0444 19.086H21.6053C21.0732 13.8136 19.2147 8.87434 16.3271 4.51812L17.4926 3.60512ZM14.9844 5.56991L3.31847 14.7083C1.49683 16.1619 2.56017 19.086 4.7418 19.086H19.8962C19.3758 14.2144 17.6556 9.63574 14.9844 5.56991Z" fill="#1A1A1A"/>
</svg>
