<svg width="24" height="24" viewBox="0 0 24 24" fill="none" xmlns="http://www.w3.org/2000/svg">
<path fill-rule="evenodd" clip-rule="evenodd" d="M9.43287 4.97435C11.0583 4.38041 12.8394 4.36844 14.4726 4.94047C15.8922 5.43766 17.1237 6.3493 18.0124 7.55H15.15C14.6806 7.55 14.3 7.93056 14.3 8.4C14.3 8.86944 14.6806 9.25 15.15 9.25H19.65C20.1195 9.25 20.5 8.86944 20.5 8.4V3.9C20.5 3.43056 20.1195 3.05 19.65 3.05C19.1806 3.05 18.8 3.43056 18.8 3.9V5.83289C17.7786 4.70663 16.4867 3.84464 15.0346 3.33603C13.0301 2.63399 10.8442 2.64868 8.84941 3.37761C6.85458 4.10653 5.1742 5.50459 4.09459 7.33357C3.01499 9.16254 2.60296 11.3093 2.9287 13.408C3.25445 15.5067 4.29782 17.4275 5.88103 18.8432C7.46425 20.2589 9.48935 21.0818 11.6113 21.1718C13.7332 21.2617 15.8207 20.6131 17.518 19.3365C19.2154 18.0599 20.4176 16.2343 20.9198 14.1707C21.0308 13.7145 20.751 13.2548 20.2949 13.1438C19.8387 13.0328 19.379 13.3126 19.268 13.7687C18.8588 15.4501 17.8792 16.9377 16.4962 17.9779C15.1132 19.0181 13.4123 19.5466 11.6833 19.4733C9.9543 19.4 8.30422 18.7295 7.01419 17.576C5.72416 16.4224 4.87401 14.8573 4.60859 13.1473C4.34317 11.4372 4.6789 9.688 5.55857 8.19772C6.43825 6.70744 7.80745 5.56829 9.43287 4.97435Z" fill="#1A1A1A"/>
</svg>
