<svg width="24" height="24" viewBox="0 0 24 24" fill="none" xmlns="http://www.w3.org/2000/svg">
<path fill-rule="evenodd" clip-rule="evenodd" d="M8.0634 3.15039H15.9364C16.8855 3.15038 17.6495 3.15038 18.2679 3.2009C18.9041 3.25288 19.4606 3.36254 19.9748 3.62451C20.7933 4.04156 21.4587 4.70703 21.8758 5.52553C22.1378 6.03968 22.2474 6.59618 22.2994 7.23238C22.3499 7.85074 22.3499 8.61475 22.3499 9.56387V12.0004C22.3499 12.4698 21.9693 12.8504 21.4999 12.8504C21.0305 12.8504 20.6499 12.4698 20.6499 12.0004V9.60039C20.6499 8.60627 20.6492 7.91181 20.605 7.37082C20.5617 6.83975 20.4806 6.53186 20.3611 6.29732C20.107 5.79869 19.7016 5.39329 19.203 5.13922C18.9684 5.01972 18.6605 4.93864 18.1295 4.89525C17.5885 4.85105 16.894 4.85039 15.8999 4.85039H8.0999C7.10578 4.85039 6.41132 4.85105 5.87033 4.89525C5.33926 4.93864 5.03138 5.01972 4.79683 5.13922C4.2982 5.39329 3.8928 5.79869 3.63874 6.29732C3.51923 6.53186 3.43815 6.83975 3.39476 7.37082C3.35056 7.91181 3.3499 8.60627 3.3499 9.60039V11.1504H3.41405C8.12689 11.1504 12.0275 14.8148 12.3214 19.5184C12.3666 20.2402 11.7933 20.8504 11.0701 20.8504H8.06346C7.11435 20.8504 6.35026 20.8504 5.73189 20.7999C5.0957 20.7479 4.53919 20.6382 4.02504 20.3763C3.20654 19.9592 2.54107 19.2938 2.12402 18.4752C1.86206 17.9611 1.75239 17.4046 1.70041 16.7684C1.64989 16.15 1.64989 15.386 1.6499 14.4369V9.56389C1.64989 8.61477 1.64989 7.85075 1.70041 7.23238C1.75239 6.59618 1.86206 6.03968 2.12402 5.52553C2.54107 4.70703 3.20654 4.04156 4.02504 3.62451C4.53919 3.36254 5.0957 3.25288 5.73189 3.2009C6.35026 3.15038 7.11428 3.15038 8.0634 3.15039ZM3.3499 12.8504V14.4004C3.3499 15.3945 3.35056 16.089 3.39476 16.63C3.43815 17.161 3.51923 17.4689 3.63874 17.7035C3.8928 18.2021 4.2982 18.6075 4.79683 18.8616C5.03138 18.9811 5.33926 19.0621 5.87033 19.1055C6.41132 19.1497 7.10578 19.1504 8.0999 19.1504H10.5796C10.121 15.5734 7.06931 12.8504 3.41405 12.8504H3.3499Z" fill="#1A1A1A"/>
<path fill-rule="evenodd" clip-rule="evenodd" d="M12.6499 9.00039C12.6499 7.42638 13.9259 6.15039 15.4999 6.15039C17.0739 6.15039 18.3499 7.42638 18.3499 9.00039C18.3499 10.5744 17.0739 11.8504 15.4999 11.8504C13.9259 11.8504 12.6499 10.5744 12.6499 9.00039ZM15.4999 7.85039C14.8648 7.85039 14.3499 8.36526 14.3499 9.00039C14.3499 9.63552 14.8648 10.1504 15.4999 10.1504C16.135 10.1504 16.6499 9.63552 16.6499 9.00039C16.6499 8.36526 16.135 7.85039 15.4999 7.85039Z" fill="#1A1A1A"/>
<path d="M22.1009 16.1495C22.4329 15.8286 22.4329 15.3084 22.1009 14.9875C21.769 14.6666 21.2308 14.6666 20.8989 14.9875L17.106 18.6539C17.0474 18.7106 16.9524 18.7106 16.8938 18.6539L15.1009 16.9208C14.769 16.5999 14.2308 16.5999 13.8989 16.9208C13.5669 17.2417 13.5669 17.7619 13.8989 18.0828L15.6918 19.8159C16.4142 20.5143 17.5856 20.5143 18.3081 19.8159L22.1009 16.1495Z" fill="#1A1A1A"/>
</svg>
