<svg width="24" height="24" viewBox="0 0 24 24" fill="none" xmlns="http://www.w3.org/2000/svg">
<path d="M4.47505 1.6499C2.91463 1.6499 1.64966 2.91488 1.64966 4.4753V7.06143C1.64966 7.53087 2.03022 7.91143 2.49966 7.91143C2.9691 7.91143 3.34966 7.53087 3.34966 7.06143V4.4753C3.34966 3.85376 3.85351 3.3499 4.47505 3.3499H7.20183C7.67127 3.3499 8.05183 2.96934 8.05183 2.4999C8.05183 2.03046 7.67127 1.6499 7.20183 1.6499H4.47505Z" fill="#1A1A1A"/>
<path d="M22.3497 15.9507C22.3497 15.4813 21.9691 15.1007 21.4997 15.1007C21.0302 15.1007 20.6497 15.4813 20.6497 15.9507V19.5245C20.6497 20.146 20.1458 20.6499 19.5243 20.6499H16.338C15.8686 20.6499 15.488 21.0305 15.488 21.4999C15.488 21.9693 15.8686 22.3499 16.338 22.3499H19.5243C21.0847 22.3499 22.3497 21.0849 22.3497 19.5245V15.9507Z" fill="#1A1A1A"/>
<path fill-rule="evenodd" clip-rule="evenodd" d="M13.0553 4.08519C12.5692 3.29217 11.4484 3.27258 10.942 4.06317C10.7569 4.35217 10.513 4.75754 10.2178 5.30161C9.17886 7.21687 7.40589 9.17308 5.3574 10.2675C4.93651 10.4924 4.58641 10.6855 4.31071 10.8406C3.40733 11.3488 3.42811 12.6343 4.33418 13.1208C4.61151 13.2698 4.96323 13.4557 5.38481 13.673C7.42595 14.7248 9.1872 16.6104 10.2183 18.5276C10.4729 19.0009 10.6867 19.3872 10.8545 19.6852C11.3631 20.5881 12.6495 20.5689 13.1384 19.6641C13.2996 19.3656 13.5057 18.9792 13.7521 18.5068C14.7495 16.5946 16.4642 14.7189 18.5185 13.6723C18.9124 13.4716 19.2537 13.2983 19.5324 13.157C20.4881 12.6725 20.5079 11.3077 19.5552 10.8023C19.2783 10.6554 18.9387 10.4756 18.5457 10.268C16.484 9.179 14.7577 7.23304 13.7527 5.32254C13.4673 4.78003 13.2327 4.37467 13.0553 4.08519ZM11.6859 6.09799C11.7937 5.89924 11.8934 5.72174 11.9845 5.56415C12.073 5.72266 12.1698 5.90089 12.2746 6.1001C13.4059 8.25072 15.3529 10.4704 17.7657 11.7448L18.1865 11.9672L17.7603 12.1842C15.352 13.4112 13.4044 15.5619 12.2712 17.7344C12.1683 17.9318 12.0726 18.1137 11.9845 18.2801C11.8937 18.1146 11.7951 17.9333 11.6892 17.7364C10.5208 15.564 8.53061 13.4152 6.14989 12.1883C5.99858 12.1104 5.85662 12.0366 5.72421 11.9673C5.8548 11.8961 5.99493 11.8205 6.14442 11.7406C8.52952 10.4664 10.5194 8.24845 11.6859 6.09799Z" fill="#1A1A1A"/>
</svg>
