<svg width="24" height="24" viewBox="0 0 24 24" fill="none" xmlns="http://www.w3.org/2000/svg">
<path d="M4.97488 6.76883C4.89361 7.02392 4.8499 7.29445 4.84988 7.57254V14.4427C4.85002 14.6633 4.90683 14.8806 5.01395 15.0735C6.35225 17.4823 8.5151 19.3281 11.1048 20.2698L11.4905 20.4095C11.8198 20.529 12.1808 20.5291 12.51 20.4095L12.8958 20.2698C14.5189 19.6796 15.9736 18.7334 17.1634 17.5169L18.4397 18.6419C17.0618 20.0695 15.3692 21.1793 13.4768 21.8675L13.0911 22.0071C12.3865 22.2633 11.6141 22.2632 10.9095 22.0071L10.5237 21.8675C7.54923 20.7858 5.06478 18.6664 3.52762 15.8997C3.28008 15.4541 3.1508 14.9524 3.15066 14.4427V7.57254C3.15069 6.86368 3.32285 6.18555 3.63211 5.58426L4.97488 6.76883Z" fill="#1A1A1A"/>
<path d="M2.88016 2.45535C3.19079 2.1037 3.72651 2.07067 4.0784 2.38113L21.0462 17.3509L21.1087 17.4114C21.4012 17.7276 21.4125 18.2201 21.1214 18.5501C20.8303 18.8799 20.3407 18.9297 19.9905 18.679L19.9221 18.6243L2.95438 3.65457C2.60249 3.34397 2.56962 2.80732 2.88016 2.45535Z" fill="#1A1A1A"/>
<path d="M13.0999 13.9329V15.1497H13.2005L13.2874 15.1536C13.7156 15.1975 14.0501 15.5595 14.0501 15.9993C14.0498 16.4389 13.7154 16.8011 13.2874 16.845L13.2005 16.8489H11.0003C10.5312 16.8487 10.151 16.4684 10.1507 15.9993C10.1507 15.53 10.531 15.1499 11.0003 15.1497H11.4007V12.4339L13.0999 13.9329Z" fill="#1A1A1A"/>
<path d="M10.7024 2.01492C11.5472 1.75094 12.4533 1.75092 13.2981 2.01492L17.7981 3.42117C19.6137 3.98889 20.8498 5.67024 20.8499 7.57254V14.4427C20.8498 14.8523 20.7641 15.2559 20.6028 15.6302L19.1507 14.3489V7.57254C19.1506 6.41363 18.3964 5.38903 17.2903 5.04324L12.7903 3.63699C12.2759 3.47632 11.7247 3.47635 11.2102 3.63699L8.1116 4.60477L6.62137 3.28934L10.7024 2.01492Z" fill="#1A1A1A"/>
<path d="M12.0013 6.30105C12.6635 6.30162 13.2014 6.83886 13.2014 7.50125C13.2012 7.95282 12.9504 8.34533 12.5813 8.55008L10.887 7.05496C11.0641 6.61315 11.4962 6.30105 12.0013 6.30105Z" fill="#1A1A1A"/>
</svg>
