<svg width="24" height="24" viewBox="0 0 24 24" fill="none" xmlns="http://www.w3.org/2000/svg">
<path d="M12.1301 2.70047C12.0726 2.59926 11.9268 2.59926 11.8693 2.70047L8.77515 8.14717L2.51563 9.27251C2.39693 9.29385 2.35067 9.43945 2.4353 9.52539L6.80289 13.9604L5.97728 20.0688C5.96147 20.1858 6.08072 20.2743 6.18813 20.2254L11.9997 17.5769L14.1509 18.5573C13.957 19.012 13.8497 19.5125 13.8497 20.038V20.2882L11.9997 19.4451L6.8931 21.7723C5.56833 22.376 4.0976 21.2838 4.2926 19.8411L5.00652 14.5591L1.22404 10.7182C0.180286 9.65835 0.750764 7.86254 2.21483 7.59933L7.69042 6.61492L10.3911 1.86077C11.1003 0.61249 12.8992 0.612489 13.6083 1.86077L16.309 6.61493L21.7846 7.59933C23.2486 7.86254 23.8191 9.65835 22.7754 10.7182L19.1538 14.3957C18.6153 14.6302 18.2023 15.1542 18.2023 15.8488V16.2595H17.6282C17.5878 16.2595 17.5476 16.2602 17.5075 16.2614L17.2141 14.0904C15.5901 14.6392 12.7098 15.3024 9.29217 15.185C8.80472 15.1682 8.31973 15.1139 8.04792 15.0643C7.7561 15.011 7.70925 14.6958 7.88757 14.5452C8.86052 13.7241 11.7793 11.6093 12.6192 11.0008C12.7569 10.901 12.8388 10.8417 12.847 10.8353C12.9156 10.7813 12.9191 10.7024 12.8566 10.6486C12.7692 10.5734 10.709 9.84352 7.55504 10.3284C7.33951 10.3615 7.21292 10.066 7.42385 9.95385C8.31255 9.48143 10.3384 8.89781 12.4006 8.91466C13.8416 8.92651 15.0862 9.36026 15.4388 9.62199C15.6227 9.75848 15.5829 9.92642 15.4316 10.0551C14.9481 10.4664 13.9109 11.2173 13.012 11.8681C12.4687 12.2614 11.9759 12.6182 11.6864 12.8414C11.5959 12.9111 11.6291 13.0188 11.7272 13.0565C12.8966 13.5058 14.5816 13.6812 15.9184 13.7241C16.5232 13.7436 17.0567 13.7359 17.439 13.7142L21.5641 9.52539C21.6487 9.43946 21.6025 9.29385 21.4838 9.27251L15.2243 8.14717L12.1301 2.70047Z" fill="#1A1A1A"/>
<path d="M22.8088 18.2539C23.0638 18.5089 23.0638 18.9223 22.8088 19.1773L20.0958 21.8903C19.8215 22.1645 19.3526 21.9703 19.3526 21.5825V20.0214H17.1257C16.5516 20.0214 16.0139 20.3026 15.6864 20.7742L15 21.7626V20.038C15 18.5863 16.1768 17.4095 17.6285 17.4095H19.3526V15.8488C19.3526 15.461 19.8215 15.2667 20.0958 15.541L22.8088 18.2539Z" fill="#1A1A1A"/>
</svg>
