<svg width="24" height="24" viewBox="0 0 24 24" fill="none" xmlns="http://www.w3.org/2000/svg">
<path fill-rule="evenodd" clip-rule="evenodd" d="M20.7826 9.05623L13.3078 6.45607C12.8503 6.29694 12.3525 6.29693 11.895 6.45607L4.42021 9.05623L11.8016 12.0143C12.315 12.22 12.8878 12.22 13.4012 12.0143L20.7826 9.05623ZM21.9723 7.67017C23.2389 8.11074 23.28 9.88681 22.0353 10.3856L20.1243 11.1515V16.0963C20.1243 16.8491 19.6682 17.5267 18.9709 17.8102L14.0286 19.819C13.1045 20.1946 12.0707 20.1969 11.145 19.8254L6.12298 17.81C5.42163 17.5286 4.96199 16.8488 4.96199 16.0931V11.1048L3.95798 10.7024V15.0994C3.95798 15.5689 3.57742 15.9494 3.10798 15.9494C2.63854 15.9494 2.25798 15.5689 2.25798 15.0994V9.09975C2.23484 8.5073 2.56198 7.90271 3.23046 7.67017L11.3365 4.85044C12.1557 4.56548 13.0471 4.56548 13.8663 4.85044L21.9723 7.67017ZM14.0335 13.5923L18.4243 11.8327V16.0963C18.4243 16.1574 18.3873 16.2123 18.3308 16.2353L13.3884 18.2441C12.8724 18.4539 12.2951 18.4552 11.7781 18.2477L6.75612 16.2323C6.69925 16.2095 6.66199 16.1544 6.66199 16.0931V11.786L11.1692 13.5923C12.0885 13.9607 13.1143 13.9607 14.0335 13.5923Z" fill="#1A1A1A"/>
</svg>
