<svg width="24" height="24" viewBox="0 0 24 24" fill="none" xmlns="http://www.w3.org/2000/svg">
<path fill-rule="evenodd" clip-rule="evenodd" d="M3.8499 10.5004C3.8499 6.8277 6.82721 3.85039 10.4999 3.85039C14.1726 3.85039 17.1499 6.8277 17.1499 10.5004C17.1499 14.1731 14.1726 17.1504 10.4999 17.1504C6.82721 17.1504 3.8499 14.1731 3.8499 10.5004ZM10.4999 2.15039C5.88832 2.15039 2.1499 5.88881 2.1499 10.5004C2.1499 15.112 5.88832 18.8504 10.4999 18.8504C12.243 18.8504 13.8613 18.3163 15.2002 17.4028L18.8989 21.1014C19.2308 21.4334 19.769 21.4334 20.1009 21.1014C20.4329 20.7695 20.4329 20.2313 20.1009 19.8993L16.5044 16.3028C17.9565 14.8005 18.8499 12.7548 18.8499 10.5004C18.8499 5.88881 15.1115 2.15039 10.4999 2.15039Z" fill="#1A1A1A"/>
</svg>
