<svg width="24" height="24" viewBox="0 0 24 24" fill="none" xmlns="http://www.w3.org/2000/svg">
<path fill-rule="evenodd" clip-rule="evenodd" d="M3.28562 3.8999C2.10609 3.8999 1.1499 4.8561 1.1499 6.03562C1.1499 10.7655 4.98426 14.5999 9.71419 14.5999H10.7142C10.8475 14.5999 10.9779 14.5877 11.1044 14.5643C10.7861 17.3764 8.87786 19.2171 7.77105 19.8999H5.4999C5.03046 19.8999 4.6499 20.2805 4.6499 20.7499C4.6499 21.2193 5.03046 21.5999 5.4999 21.5999H7.98435C7.99532 21.6001 8.0063 21.6001 8.01729 21.5999H18.4999C18.9693 21.5999 19.3499 21.2193 19.3499 20.7499C19.3499 20.2805 18.9693 19.8999 18.4999 19.8999H10.3892C11.3617 18.8544 12.2991 17.382 12.6761 15.5116C12.8693 15.5691 13.074 15.5999 13.2858 15.5999H14.2858C19.0157 15.5999 22.8501 11.7655 22.8501 7.03562C22.8501 5.8561 21.8939 4.8999 20.7144 4.8999H19.7144C16.5034 4.8999 13.7052 6.66697 12.2391 9.2817C10.9759 6.12765 7.89091 3.8999 4.28562 3.8999H3.28562ZM2.8499 6.03562C2.8499 5.79498 3.04498 5.5999 3.28562 5.5999H4.28562C8.07666 5.5999 11.1499 8.67315 11.1499 12.4642C11.1499 12.7048 10.9548 12.8999 10.7142 12.8999H9.71419C5.92315 12.8999 2.8499 9.82666 2.8499 6.03562ZM21.1501 7.03562C21.1501 6.79498 20.955 6.5999 20.7144 6.5999H19.7144C15.9233 6.5999 12.8501 9.67315 12.8501 13.4642C12.8501 13.7048 13.0452 13.8999 13.2858 13.8999H14.2858C18.0769 13.8999 21.1501 10.8267 21.1501 7.03562Z" fill="#1A1A1A"/>
</svg>
