<svg width="24" height="24" viewBox="0 0 24 24" fill="none" xmlns="http://www.w3.org/2000/svg">
<path d="M10.1995 7.85C10.1995 7.38056 9.8189 7 9.34946 7C8.88002 7 8.49946 7.38056 8.49946 7.85V8.65C8.49946 9.11944 8.88002 9.5 9.34946 9.5C9.8189 9.5 10.1995 9.11944 10.1995 8.65V7.85Z" fill="#1A1A1A"/>
<path d="M14.5547 16.5508C14.2227 16.8828 13.6845 16.8828 13.3526 16.5508L12.0774 15.2756L10.8022 16.5509C10.4702 16.8828 9.93204 16.8828 9.60009 16.5509C9.26814 16.2189 9.26814 15.6807 9.60009 15.3488L10.8753 14.0736L9.60491 12.8031C9.27296 12.4712 9.27296 11.933 9.60491 11.6011C9.93685 11.2691 10.475 11.2691 10.807 11.6011L12.0774 12.8715L13.3478 11.6011C13.6797 11.2692 14.2179 11.2692 14.5498 11.6011C14.8818 11.9331 14.8818 12.4712 14.5498 12.8032L13.2795 14.0736L14.5547 15.3487C14.8866 15.6807 14.8866 16.2189 14.5547 16.5508Z" fill="#1A1A1A"/>
<path d="M14.3495 7C14.8189 7 15.1995 7.38056 15.1995 7.85V8.65C15.1995 9.11944 14.8189 9.5 14.3495 9.5C13.88 9.5 13.4995 9.11944 13.4995 8.65V7.85C13.4995 7.38056 13.88 7 14.3495 7Z" fill="#1A1A1A"/>
<path fill-rule="evenodd" clip-rule="evenodd" d="M11.9999 2.1499C6.5599 2.1499 2.1499 6.5599 2.1499 11.9999C2.1499 17.4399 6.5599 21.8499 11.9999 21.8499C17.4399 21.8499 21.8499 17.4399 21.8499 11.9999C21.8499 6.5599 17.4399 2.1499 11.9999 2.1499ZM3.8499 11.9999C3.8499 7.49878 7.49878 3.8499 11.9999 3.8499C16.501 3.8499 20.1499 7.49878 20.1499 11.9999C20.1499 16.501 16.501 20.1499 11.9999 20.1499C7.49878 20.1499 3.8499 16.501 3.8499 11.9999Z" fill="#1A1A1A"/>
</svg>
