<svg width="24" height="24" viewBox="0 0 24 24" fill="none" xmlns="http://www.w3.org/2000/svg">
<path d="M4.03719 2.5C2.73971 2.5 1.91527 3.8888 2.53657 5.02786C3.90496 7.53656 5.89691 9.65019 8.32018 11.1647L8.50001 11.2771L8.49999 17.2663C8.49977 17.8514 8.49961 18.2559 8.6185 18.6282C8.72336 18.9565 8.89498 19.2596 9.12258 19.5185C9.38064 19.8119 9.72754 20.0199 10.2294 20.3207L11.3252 20.9782C11.7059 21.2066 12.0216 21.396 12.2825 21.5218C12.5453 21.6483 12.829 21.7501 13.1321 21.7213C13.5599 21.6808 13.9498 21.4586 14.2028 21.1113C14.3821 20.8652 14.4392 20.5693 14.4642 20.2787C14.4892 19.99 14.4872 19.6222 14.4848 19.1782L14.442 11.2784L14.6466 11.1523C17.09 9.64761 19.0982 7.53091 20.4723 5.01172C21.0896 3.87993 20.2704 2.5 18.9812 2.5H4.03719Z" fill="#1A1A1A"/>
<path d="M16.15 15.0004C16.15 14.5309 16.5306 14.1504 17 14.1504H21.5C21.9695 14.1504 22.35 14.5309 22.35 15.0004C22.35 15.4698 21.9695 15.8504 21.5 15.8504H17C16.5306 15.8504 16.15 15.4698 16.15 15.0004Z" fill="#1A1A1A"/>
<path d="M17 18.1504C16.5306 18.1504 16.15 18.5309 16.15 19.0004C16.15 19.4698 16.5306 19.8504 17 19.8504H21.5C21.9695 19.8504 22.35 19.4698 22.35 19.0004C22.35 18.5309 21.9695 18.1504 21.5 18.1504H17Z" fill="#1A1A1A"/>
</svg>
