<svg width="24" height="24" viewBox="0 0 24 24" fill="none" xmlns="http://www.w3.org/2000/svg">
<path fill-rule="evenodd" clip-rule="evenodd" d="M18.5005 4.03111C18.594 2.12076 16.4879 0.904841 14.8802 1.94096L12.4796 3.48812L9.81728 2.46481C8.0217 1.77464 6.20281 3.41636 6.70597 5.27304L7.44575 8.00281L5.66348 10.2018C4.45651 11.6909 5.44415 13.9209 7.35803 14.0278L10.223 14.1879L11.7941 16.589C12.8436 18.193 15.2687 17.9333 15.9548 16.1435L16.968 13.5005L19.702 12.7763C21.5615 12.2837 22.0738 9.88763 20.5783 8.67769L18.3609 6.88369L18.5005 4.03111ZM15.8012 3.36991C16.2459 3.08332 16.8284 3.41964 16.8025 3.94803L16.6543 6.97807C16.6332 7.40825 16.8187 7.82266 17.1535 8.09356L19.5091 9.99931C19.9227 10.334 19.781 10.9967 19.2667 11.133L16.3596 11.903C15.9404 12.0141 15.6 12.3198 15.4448 12.7248L14.3675 15.5349C14.1777 16.03 13.5069 16.1018 13.2166 15.6582L11.5487 13.1091C11.3139 12.7503 10.9225 12.5243 10.4944 12.5004L7.45286 12.3305C6.9235 12.3009 6.65032 11.6841 6.98416 11.2722L8.87918 8.93412C9.15226 8.59719 9.24684 8.14957 9.1334 7.73097L8.34679 4.82837C8.20761 4.31482 8.71071 3.86073 9.20736 4.05163L12.0355 5.13868C12.4376 5.29321 12.8892 5.24663 13.2512 5.01331L15.8012 3.36991Z" fill="#1A1A1A"/>
<path d="M9.99281 16.4359C10.2327 16.0324 10.1001 15.5108 9.69657 15.2709C9.29306 15.031 8.77147 15.1636 8.53156 15.5671L5.56384 20.5587C5.32394 20.9622 5.45657 21.4838 5.86008 21.7237C6.26359 21.9636 6.78518 21.831 7.02508 21.4275L9.99281 16.4359Z" fill="#1A1A1A"/>
</svg>
