<svg width="24" height="24" viewBox="0 0 24 24" fill="none" xmlns="http://www.w3.org/2000/svg">
<path fill-rule="evenodd" clip-rule="evenodd" d="M11.9423 1.22412H12.0575C14.1235 1.22411 15.7522 1.2241 17.0362 1.38007C18.3519 1.53989 19.4193 1.87424 20.2992 2.62575C20.5322 2.82478 20.7492 3.04181 20.9483 3.27485C21.6998 4.15475 22.0341 5.22212 22.194 6.53785C22.3499 7.82188 22.3499 9.45051 22.3499 11.5166V11.6316C22.3499 13.6977 22.3499 15.3264 22.194 16.6104C22.0341 17.9261 21.6998 18.9935 20.9483 19.8734C20.7492 20.1064 20.5322 20.3235 20.2992 20.5225C19.4193 21.274 18.3519 21.6083 17.0362 21.7682C15.7521 21.9241 14.1235 21.9241 12.0574 21.9241H11.9424C9.8763 21.9241 8.24766 21.9241 6.96363 21.7682C5.6479 21.6083 4.58053 21.274 3.70063 20.5225C3.4676 20.3235 3.25056 20.1064 3.05153 19.8734C2.30003 18.9935 1.96568 17.9261 1.80585 16.6104C1.64988 15.3264 1.64989 13.6978 1.6499 11.6317V11.5166C1.64989 9.45049 1.64988 7.82187 1.80585 6.53785C1.96568 5.22212 2.30003 4.15475 3.05153 3.27485C3.25056 3.04181 3.4676 2.82478 3.70063 2.62575C4.58053 1.87424 5.6479 1.53989 6.96363 1.38007C8.24765 1.2241 9.87627 1.22411 11.9423 1.22412ZM7.16862 3.06767C6.01882 3.20733 5.32744 3.47197 4.80469 3.91844C4.63938 4.05963 4.48541 4.2136 4.34422 4.37891C3.89775 4.90166 3.63312 5.59304 3.49345 6.74284C3.35137 7.91244 3.3499 9.4378 3.3499 11.5741C3.3499 13.7104 3.35137 15.2358 3.49345 16.4054C3.63312 17.5552 3.89775 18.2466 4.34422 18.7693C4.48541 18.9346 4.63938 19.0886 4.80469 19.2298C5.32744 19.6763 6.01882 19.9409 7.16862 20.0806C8.33822 20.2227 9.86358 20.2241 11.9999 20.2241C14.1362 20.2241 15.6616 20.2227 16.8312 20.0806C17.981 19.9409 18.6724 19.6763 19.1951 19.2298C19.3604 19.0886 19.5144 18.9346 19.6556 18.7693C20.1021 18.2466 20.3667 17.5552 20.5064 16.4054C20.6484 15.2358 20.6499 13.7104 20.6499 11.5741C20.6499 9.4378 20.6484 7.91244 20.5064 6.74284C20.3667 5.59304 20.1021 4.90166 19.6556 4.37891C19.5144 4.2136 19.3604 4.05963 19.1951 3.91844C18.6724 3.47197 17.981 3.20733 16.8312 3.06767C15.6616 2.92559 14.1362 2.92412 11.9999 2.92412C9.86358 2.92412 8.33822 2.92559 7.16862 3.06767Z" fill="#1A1A1A"/>
</svg>
