<svg width="24" height="24" viewBox="0 0 24 24" fill="none" xmlns="http://www.w3.org/2000/svg">
<path fill-rule="evenodd" clip-rule="evenodd" d="M20.3821 4.09863C20.3821 5.89356 18.927 7.34863 17.1321 7.34863C15.3372 7.34863 13.8821 5.89356 13.8821 4.09863C13.8821 2.30371 15.3372 0.848633 17.1321 0.848633C18.927 0.848633 20.3821 2.30371 20.3821 4.09863ZM17.1321 5.64863C17.9881 5.64863 18.6821 4.95467 18.6821 4.09863C18.6821 3.24259 17.9881 2.54863 17.1321 2.54863C16.276 2.54863 15.5821 3.24259 15.5821 4.09863C15.5821 4.95467 16.276 5.64863 17.1321 5.64863Z" fill="#1A1A1A"/>
<path d="M6.32189 2.33276C6.63102 1.97947 7.16802 1.94367 7.52131 2.2528C9.24398 3.76014 12.1694 6.35369 13.7225 7.7322C14.6732 8.57605 14.5055 10.0985 13.4054 10.7225L10.8902 12.1493C10.8009 12.1999 10.7878 12.3234 10.8644 12.3917L21.4909 21.8655C21.8413 22.1779 21.8721 22.7152 21.5597 23.0656C21.2473 23.416 20.71 23.4468 20.3596 23.1345L9.73312 13.6606C8.78772 12.8178 8.94977 11.2955 10.0514 10.6706L12.5666 9.24384C12.6586 9.19167 12.6682 9.06953 12.5939 9.0036C11.04 7.62429 8.11917 5.03484 6.40185 3.53218C6.04856 3.22305 6.01276 2.68605 6.32189 2.33276Z" fill="#1A1A1A"/>
<path d="M3.34361 11.271C2.99416 10.9575 2.45676 10.9867 2.1433 11.3361C1.82983 11.6856 1.85901 12.223 2.20846 12.5365L8.21956 17.9285C8.56901 18.242 9.10641 18.2128 9.41987 17.8633C9.73334 17.5139 9.70416 16.9765 9.35471 16.663L3.34361 11.271Z" fill="#1A1A1A"/>
</svg>
