<svg width="24" height="24" viewBox="0 0 24 24" fill="none" xmlns="http://www.w3.org/2000/svg">
<path fill-rule="evenodd" clip-rule="evenodd" d="M10.5752 2.9204C11.1692 1.75766 12.8308 1.75765 13.4248 2.9204L15.7122 7.39764L20.6806 8.18695C21.9713 8.39199 22.4851 9.9742 21.5611 10.8984L18.0071 14.453L18.7908 19.4161C18.9945 20.7063 17.65 21.6838 16.4855 21.0921L12 18.8127L7.51445 21.0921C6.35 21.6838 5.00548 20.7063 5.2092 19.4161L5.9929 14.453L2.43894 10.8984C1.5149 9.97421 2.02865 8.39199 3.31937 8.18695L8.28775 7.39764L10.5752 2.9204ZM12 3.86814L9.60496 8.55601C9.48138 8.79789 9.24964 8.96615 8.98139 9.00877L3.77979 9.83512L7.50109 13.5571C7.69335 13.7493 7.78201 14.022 7.7396 14.2906L6.91895 19.4878L11.6149 17.1015C11.8569 16.9786 12.1431 16.9786 12.3851 17.1015L17.081 19.4878L16.2604 14.2906C16.218 14.022 16.3066 13.7493 16.4989 13.5571L20.2202 9.83512L15.0186 9.00877C14.7504 8.96615 14.5186 8.79789 14.395 8.55601L12 3.86814Z" fill="#1A1A1A"/>
</svg>
