<svg width="24" height="24" viewBox="0 0 24 24" fill="none" xmlns="http://www.w3.org/2000/svg">
<path d="M10.3516 6.00137C10.3516 5.53185 9.97097 5.15123 9.50145 5.15123C9.03193 5.15123 8.65131 5.53185 8.65131 6.00137V7.50161C8.65131 7.97113 9.03193 8.35175 9.50145 8.35175C9.97097 8.35175 10.3516 7.97113 10.3516 7.50161V6.00137Z" fill="#1A1A1A"/>
<path d="M13.002 5.15123C13.4715 5.15123 13.8522 5.53185 13.8522 6.00137V7.50161C13.8522 7.97113 13.4715 8.35175 13.002 8.35175C12.5325 8.35175 12.1519 7.97113 12.1519 7.50161V6.00137C12.1519 5.53185 12.5325 5.15123 13.002 5.15123Z" fill="#1A1A1A"/>
<path d="M17.3527 6.00137C17.3527 5.53185 16.9721 5.15123 16.5026 5.15123C16.0331 5.15123 15.6524 5.53185 15.6524 6.00137V7.50161C15.6524 7.97113 16.0331 8.35175 16.5026 8.35175C16.9721 8.35175 17.3527 7.97113 17.3527 7.50161V6.00137Z" fill="#1A1A1A"/>
<path fill-rule="evenodd" clip-rule="evenodd" d="M3.15042 13.8616C3.15042 13.1215 3.4382 12.4105 3.95292 11.8789L4.32684 11.4926C4.53454 11.2781 4.65066 10.9912 4.65066 10.6926V6.50145C4.65066 4.09862 6.59854 2.15074 9.00137 2.15074H16.5026C18.9054 2.15074 20.8533 4.09862 20.8533 6.50145V17.5032C20.8533 19.9061 18.9054 21.8539 16.5026 21.8539H7.50112C5.09829 21.8539 3.15042 19.9061 3.15042 17.5032V13.8616ZM5.17451 13.0615C4.96682 13.2761 4.85069 13.563 4.85069 13.8616L4.85069 17.5032C4.85069 18.967 6.03733 20.1537 7.50112 20.1537H16.5026C17.9664 20.1537 19.153 18.967 19.153 17.5032V6.50145C19.153 5.03766 17.9664 3.85102 16.5026 3.85102H9.00137C7.53758 3.85102 6.35094 5.03766 6.35094 6.50145V10.6926C6.35094 11.4326 6.06315 12.1436 5.54843 12.6753L5.17451 13.0615Z" fill="#1A1A1A"/>
</svg>
