<svg width="24" height="24" viewBox="0 0 24 24" fill="none" xmlns="http://www.w3.org/2000/svg">
<path d="M5.1499 11.0746C5.1499 10.6052 5.53046 10.2246 5.9999 10.2246H7.9999C8.46934 10.2246 8.8499 10.6052 8.8499 11.0746C8.8499 11.5441 8.46934 11.9246 7.9999 11.9246H5.9999C5.53046 11.9246 5.1499 11.5441 5.1499 11.0746Z" fill="#1A1A1A"/>
<path d="M15.9999 14.2246C15.5305 14.2246 15.1499 14.6052 15.1499 15.0746C15.1499 15.5441 15.5305 15.9246 15.9999 15.9246H17.9999C18.4693 15.9246 18.8499 15.5441 18.8499 15.0746C18.8499 14.6052 18.4693 14.2246 17.9999 14.2246H15.9999Z" fill="#1A1A1A"/>
<path d="M10.1499 11.0746C10.1499 10.6052 10.5305 10.2246 10.9999 10.2246H17.9999C18.4693 10.2246 18.8499 10.6052 18.8499 11.0746C18.8499 11.5441 18.4693 11.9246 17.9999 11.9246H10.9999C10.5305 11.9246 10.1499 11.5441 10.1499 11.0746Z" fill="#1A1A1A"/>
<path d="M5.9999 14.2246C5.53046 14.2246 5.1499 14.6052 5.1499 15.0746C5.1499 15.5441 5.53046 15.9246 5.9999 15.9246H12.9999C13.4693 15.9246 13.8499 15.5441 13.8499 15.0746C13.8499 14.6052 13.4693 14.2246 12.9999 14.2246H5.9999Z" fill="#1A1A1A"/>
<path fill-rule="evenodd" clip-rule="evenodd" d="M10.9557 2.22461H13.0441C14.6434 2.2246 15.9043 2.2246 16.9133 2.32053C17.9441 2.41854 18.7993 2.62267 19.5565 3.08666C20.3437 3.56903 21.0055 4.23084 21.4878 5.01799C21.9518 5.77517 22.156 6.63038 22.254 7.66125C22.3499 8.67018 22.3499 9.93111 22.3499 11.5303V11.6188C22.3499 13.218 22.3499 14.479 22.254 15.488C22.156 16.5188 21.9518 17.3741 21.4878 18.1312C21.0055 18.9184 20.3437 19.5802 19.5565 20.0626C18.7993 20.5266 17.9441 20.7307 16.9133 20.8287C15.9043 20.9246 14.6434 20.9246 13.0442 20.9246H10.9557C9.35648 20.9246 8.09547 20.9246 7.08654 20.8287C6.05567 20.7307 5.20046 20.5266 4.44329 20.0626C3.65614 19.5802 2.99432 18.9184 2.51196 18.1312C2.04796 17.3741 1.84383 16.5188 1.74582 15.488C1.64989 14.479 1.64989 13.2181 1.6499 11.6188V11.5304C1.64989 9.93114 1.64989 8.67019 1.74582 7.66125C1.84383 6.63038 2.04796 5.77517 2.51196 5.01799C2.99432 4.23084 3.65614 3.56903 4.44329 3.08666C5.20046 2.62267 6.05567 2.41854 7.08654 2.32053C8.09549 2.2246 9.35643 2.2246 10.9557 2.22461ZM7.24746 4.01289C6.34102 4.09908 5.77671 4.26335 5.33153 4.53615C4.77313 4.87834 4.30364 5.34784 3.96145 5.90624C3.68864 6.35141 3.52437 6.91573 3.43819 7.82216C3.3508 8.74124 3.3499 9.92144 3.3499 11.5746C3.3499 13.2278 3.3508 14.408 3.43819 15.3271C3.52437 16.2335 3.68864 16.7978 3.96145 17.243C4.30364 17.8014 4.77313 18.2709 5.33153 18.6131C5.77671 18.8859 6.34102 19.0501 7.24746 19.1363C8.16654 19.2237 9.34673 19.2246 10.9999 19.2246H12.9999C14.6531 19.2246 15.8333 19.2237 16.7523 19.1363C17.6588 19.0501 18.2231 18.8859 18.6683 18.6131C19.2267 18.2709 19.6962 17.8014 20.0384 17.243C20.3112 16.7978 20.4754 16.2335 20.5616 15.3271C20.649 14.408 20.6499 13.2278 20.6499 11.5746C20.6499 9.92144 20.649 8.74124 20.5616 7.82216C20.4754 6.91573 20.3112 6.35141 20.0384 5.90624C19.6962 5.34784 19.2267 4.87834 18.6683 4.53615C18.2231 4.26335 17.6588 4.09908 16.7523 4.01289C15.8333 3.92551 14.6531 3.92461 12.9999 3.92461H10.9999C9.34673 3.92461 8.16654 3.92551 7.24746 4.01289Z" fill="#1A1A1A"/>
</svg>
