<svg width="24" height="24" viewBox="0 0 24 24" fill="none" xmlns="http://www.w3.org/2000/svg">
<path fill-rule="evenodd" clip-rule="evenodd" d="M12.1093 5.35731C12.0501 5.29429 11.9499 5.29429 11.8907 5.35731L8.06302 9.42922C7.56362 9.96049 6.79874 10.1489 6.10974 9.91028L3.25522 8.92185C3.14969 8.88531 3.04267 8.97277 3.05746 9.08346L4.13533 17.1487C4.21165 17.7198 4.69877 18.1462 5.27492 18.1464L18.7246 18.1496C19.3009 18.1497 19.7884 17.7232 19.8647 17.1519L20.9426 9.08343C20.9574 8.97274 20.8504 8.88528 20.7449 8.92182L17.8903 9.91028C17.2013 10.1489 16.4364 9.96049 15.937 9.42922L12.1093 5.35731ZM10.6521 4.19295C11.3826 3.41575 12.6174 3.41575 13.348 4.19295L17.1756 8.26486C17.2161 8.30794 17.2782 8.32321 17.334 8.30386L20.1886 7.3154C21.4901 6.86474 22.81 7.94339 22.6277 9.30854L21.5497 17.377C21.3606 18.7928 20.1526 19.8499 18.7242 19.8496L5.27451 19.8464C3.84667 19.846 2.63945 18.7892 2.45031 17.3739L1.37244 9.30865C1.18999 7.94347 2.50997 6.86476 3.81148 7.31543L6.66599 8.30386C6.72186 8.32321 6.78387 8.30794 6.82437 8.26486L10.6521 4.19295Z" fill="#1A1A1A"/>
</svg>
