<svg width="24" height="24" viewBox="0 0 24 24" fill="none" xmlns="http://www.w3.org/2000/svg">
<path fill-rule="evenodd" clip-rule="evenodd" d="M11.163 3.38323C11.2274 4.04674 11.1259 4.76462 10.8904 5.30865C10.7163 5.71063 10.3643 5.92434 10.0508 5.99836C9.48703 6.13149 8.94805 6.32834 8.44181 6.58092C6.62434 7.48773 5.23173 9.11132 4.63636 11.0749C4.4304 11.7542 4.31939 12.4754 4.31939 13.224C4.31939 14.4285 4.60774 15.5666 5.11968 16.5732L6.02642 13.2485C6.10773 12.9503 6.33103 12.7115 6.62308 12.6104L11.953 10.7655C12.7457 10.4911 13.4711 11.3179 13.096 12.0682L12.656 12.9481L17.1404 12.1749C17.6008 12.0956 18.0493 12.3681 18.191 12.8133L18.2236 12.9159C17.9932 12.8865 17.7582 12.8713 17.5197 12.8713C15.9862 12.8713 14.5992 13.4985 13.6011 14.5102L11.4555 14.8802C10.6996 15.0105 10.1165 14.2258 10.4596 13.5396L10.7367 12.9855L7.56037 14.085L6.39385 18.3622C7.7513 19.7718 9.66203 20.6499 11.7804 20.6499C12.0201 20.6499 12.2572 20.6387 12.4911 20.6167C12.7508 21.1985 13.1085 21.7269 13.5432 22.181C12.9727 22.2919 12.3833 22.3499 11.7804 22.3499C6.72431 22.3499 2.61939 18.2675 2.61939 13.224C2.61939 12.515 2.7007 11.8241 2.85478 11.1604C1.56825 10.0618 1.14437 8.58195 1.15046 7.19493C1.15713 5.67342 1.67261 4.20113 2.16553 3.24146C2.38257 2.81888 2.82483 2.55926 3.30224 2.57911C5.53075 2.67177 7.31574 3.88287 8.26444 4.79455C8.63333 4.6417 9.01443 4.51216 9.40587 4.40777C9.48994 4.0822 9.51226 3.65356 9.43342 3.31023C9.35423 2.96536 9.40667 2.59374 9.5798 2.28713C9.76051 1.96708 10.1209 1.65439 10.6368 1.65008C11.3511 1.64411 12.2552 1.7861 13.0778 2.26717C13.8756 2.73373 14.556 3.49754 14.8983 4.64042C15.1663 4.73703 15.4284 4.84573 15.6841 4.96584C16.6014 3.87958 18.3721 2.49877 20.7851 2.56425C21.208 2.57572 21.5945 2.80535 21.8068 3.17146C22.3479 4.1048 22.8997 5.56561 22.8469 7.11511C22.7976 8.55901 22.2189 10.0517 20.713 11.1906C20.8626 11.8451 20.9414 12.5258 20.9414 13.224C20.9414 13.4975 20.9294 13.7683 20.9057 14.0357C20.4115 13.6496 19.8497 13.3461 19.241 13.1459C19.2336 12.4252 19.1233 11.7305 18.9245 11.0749C18.3728 9.25553 17.1367 7.72778 15.5117 6.79172C15.0821 6.5443 14.6257 6.33839 14.1478 6.17938C13.7197 6.03693 13.4133 5.6847 13.3093 5.27178C13.1054 4.46227 12.683 4.00561 12.2196 3.73466C11.8917 3.54288 11.5222 3.43323 11.163 3.38323ZM3.48092 9.35561C4.18877 7.85083 5.29614 6.57129 6.66632 5.65137C5.93617 5.06767 4.8308 4.43677 3.54077 4.30043C3.17994 5.08734 2.85503 6.15629 2.85044 7.20238C2.84698 7.99079 3.02133 8.73386 3.48092 9.35561ZM17.1734 5.84618C18.4441 6.76941 19.4678 8.01102 20.1258 9.45471C20.8543 8.72695 21.1196 7.88494 21.1479 7.05713C21.1828 6.0324 20.8494 5.00439 20.4678 4.26495C19.0017 4.31928 17.8508 5.1291 17.1734 5.84618Z" fill="#1A1A1A"/>
<path fill-rule="evenodd" clip-rule="evenodd" d="M13.1499 18.4999C13.1499 16.0975 15.0975 14.1499 17.4999 14.1499C19.9023 14.1499 21.8499 16.0975 21.8499 18.4999C21.8499 20.9023 19.9023 22.8499 17.4999 22.8499C15.0975 22.8499 13.1499 20.9023 13.1499 18.4999ZM15.1727 17.2313C14.9669 17.608 14.8499 18.0403 14.8499 18.4999C14.8499 19.9635 16.0363 21.1499 17.4999 21.1499C17.9595 21.1499 18.3918 21.0329 18.7685 20.8271L15.1727 17.2313ZM16.4233 16.0777L19.9221 19.5765C20.0685 19.2475 20.1499 18.8832 20.1499 18.4999C20.1499 17.0363 18.9635 15.8499 17.4999 15.8499C17.1166 15.8499 16.7523 15.9313 16.4233 16.0777Z" fill="#1A1A1A"/>
</svg>
