<svg width="24" height="24" viewBox="0 0 24 24" fill="none" xmlns="http://www.w3.org/2000/svg">
<path fill-rule="evenodd" clip-rule="evenodd" d="M9.4999 2.65002C7.37361 2.65002 5.6499 4.37373 5.6499 6.50002V7.09887C4.82046 6.39936 4.1554 5.72328 3.51198 4.93323L3.37444 4.76204L3.36035 4.74272C3.34567 4.72259 3.3301 4.70311 3.3137 4.68434L3.2618 4.62493C3.25106 4.61264 3.23996 4.60066 3.22853 4.58901C2.93072 4.28538 2.51125 4.11994 2.06513 4.18806C1.6348 4.25378 1.29753 4.51722 1.07851 4.83484C0.679209 5.41387 0.601895 6.22689 0.673947 7.03808C0.675941 7.06054 0.678828 7.0829 0.6826 7.10512C0.917306 8.48788 1.38718 9.63063 2.06795 10.54C1.85606 10.6035 1.63308 10.7151 1.4487 10.9124C1.05942 11.3289 1.07267 11.8566 1.19173 12.2555C1.19949 12.2815 1.20849 12.3071 1.21871 12.3322C1.79171 13.7428 2.69268 14.6501 3.89681 15.0581C3.67649 15.3196 3.46243 15.6237 3.31645 15.9541C3.16467 16.2976 3.05602 16.7408 3.17649 17.211C3.38932 18.0417 4.09236 18.4808 4.61918 18.7015C5.08802 18.898 5.58674 18.9959 5.96758 19.0339C6.56027 20.3969 7.91878 21.35 9.4999 21.35H14.4999C16.0776 21.35 17.4337 20.401 18.0284 19.0427C18.4191 19.0128 18.9658 18.9157 19.477 18.7015C20.0038 18.4808 20.7069 18.0417 20.9197 17.211C21.0402 16.7408 20.9315 16.2976 20.7797 15.9541C20.6338 15.6237 20.4197 15.3196 20.1994 15.0581C21.4035 14.6501 22.3045 13.7428 22.8775 12.3322C22.8877 12.3071 22.8967 12.2815 22.9045 12.2555C23.0235 11.8566 23.0368 11.3289 22.6475 10.9124C22.4631 10.7151 22.2401 10.6035 22.0282 10.54C22.709 9.63063 23.1789 8.48788 23.4136 7.10512C23.4174 7.0829 23.4202 7.06054 23.4222 7.03808C23.4943 6.22689 23.417 5.41387 23.0177 4.83484C22.7987 4.51722 22.4614 4.25378 22.0311 4.18806C21.5849 4.11994 21.1655 4.28538 20.8677 4.58901C20.8562 4.60066 20.8451 4.61264 20.8344 4.62493L20.7825 4.68434C20.7661 4.70311 20.7505 4.72259 20.7358 4.74272L20.7217 4.76204L20.5842 4.93323C19.9161 5.75365 19.2246 6.45116 18.3499 7.17965V6.50002C18.3499 4.37373 16.6262 2.65002 14.4999 2.65002H9.4999ZM18.3499 9.34281V13.5973L18.5176 13.6044L18.8767 13.6127C19.0205 13.6135 19.0743 13.6097 19.0891 13.6082L19.1019 13.6046L19.136 13.5943L19.1657 13.5853C19.228 13.5663 19.3105 13.5421 19.4262 13.514C20.086 13.3532 20.6465 12.9675 21.0816 12.1638L20.9234 12.1731L19.8791 12.2527C19.4806 12.2831 19.1148 12.0318 19.0002 11.649C18.8856 11.2661 19.0531 10.8552 19.4027 10.6616L19.4094 10.6579L19.5486 10.5711C19.6377 10.5129 19.7257 10.4509 19.8126 10.3846C20.7359 9.68064 21.4337 8.57167 21.7317 6.85456C21.7538 6.5857 21.7487 6.37509 21.731 6.21419C20.7807 7.34735 19.7725 8.27159 18.3998 9.30562L18.3499 9.34281ZM18.3499 15.6012V17.2792C18.5065 17.2445 18.6697 17.1966 18.8201 17.1336C19.1654 16.9889 19.2532 16.8503 19.271 16.7957C19.2707 16.7833 19.2666 16.7358 19.2248 16.6412C19.1631 16.5016 19.0476 16.326 18.8771 16.1274C18.718 15.9419 18.5333 15.762 18.3499 15.6012ZM5.6499 17.2563V15.6874C5.49893 15.8252 5.35032 15.9744 5.21904 16.1274C5.04862 16.326 4.93311 16.5016 4.87142 16.6412C4.8296 16.7358 4.82552 16.7833 4.82523 16.7957C4.84302 16.8503 4.93074 16.9889 5.27611 17.1336C5.39587 17.1838 5.52372 17.2243 5.6499 17.2563ZM5.6499 13.6014V9.27055C4.3009 8.25065 3.30469 7.33453 2.36523 6.21419C2.34753 6.37509 2.34239 6.5857 2.36445 6.85456C2.66253 8.57167 3.36027 9.68064 4.28359 10.3846C4.37049 10.4509 4.45845 10.5129 4.54764 10.5711L4.6868 10.6579L4.69348 10.6616C5.04309 10.8552 5.21063 11.2661 5.09602 11.649C4.9814 12.0318 4.61558 12.2831 4.21711 12.2527L3.17283 12.1731L3.01457 12.1638C3.44971 12.9675 4.01014 13.3532 4.67004 13.514C4.78572 13.5421 4.86815 13.5663 4.93054 13.5853L4.96017 13.5943L4.99428 13.6046L5.00709 13.6082C5.02185 13.6097 5.07568 13.6135 5.21951 13.6127L5.57863 13.6044L5.6499 13.6014ZM7.3499 6.50002C7.3499 5.31261 8.31249 4.35002 9.4999 4.35002H14.4999C15.6873 4.35002 16.6499 5.31261 16.6499 6.50002V17.5C16.6499 18.6874 15.6873 19.65 14.4999 19.65H9.4999C8.31249 19.65 7.3499 18.6874 7.3499 17.5V6.50002Z" fill="#1A1A1A"/>
</svg>
