<svg width="24" height="24" viewBox="0 0 24 24" fill="none" xmlns="http://www.w3.org/2000/svg">
<path fill-rule="evenodd" clip-rule="evenodd" d="M2.1499 3.50039C2.1499 3.03095 2.53046 2.65039 2.9999 2.65039C6.53018 2.65039 8.86753 3.151 10.4628 4.2348C11.5535 4.97581 12.2308 5.94367 12.7143 7.0442C13.5847 5.99846 14.7054 5.31983 15.8944 4.88879C17.5856 4.27563 19.4435 4.15039 20.9999 4.15039C21.4693 4.15039 21.8499 4.53095 21.8499 5.00039C21.8499 8.75212 20.9977 11.1139 19.5305 12.5361C18.074 13.9481 16.1834 14.2622 14.5281 14.332L15.0772 17.8811C15.1295 18.219 15.1749 18.5125 15.1965 18.7567C15.219 19.0122 15.2228 19.2803 15.156 19.5551C14.9788 20.2847 14.4636 20.8857 13.7697 21.1723C13.5084 21.2803 13.2429 21.3176 12.9869 21.3344C12.7423 21.3504 12.4453 21.3504 12.1034 21.3504H12.0513C11.7145 21.3504 11.4217 21.3504 11.1802 21.3346C10.9271 21.3181 10.6648 21.2815 10.406 21.1757C9.71789 20.8944 9.20344 20.3042 9.0188 19.5841C8.94934 19.3132 8.94887 19.0484 8.96707 18.7955C8.98445 18.554 9.02446 18.264 9.07047 17.9303L9.5687 14.3171C9.56502 14.3168 9.56131 14.3166 9.55757 14.3163C6.4455 14.0925 4.50829 12.7666 3.41421 10.6878C2.36904 8.70188 2.1499 6.12701 2.1499 3.50039ZM3.85923 4.36154C3.90979 6.59137 4.17674 8.48647 4.91858 9.89603C5.70527 11.3908 7.07738 12.4335 9.6795 12.6207L9.70255 12.6223C9.85184 12.633 10.0071 12.6442 10.1372 12.6633C10.2728 12.6833 10.4825 12.7242 10.6865 12.8529C10.942 13.014 11.1282 13.2437 11.2328 13.5271C11.314 13.7468 11.3139 13.952 11.3058 14.0911C11.2984 14.2187 11.278 14.3663 11.2591 14.5031C11.2581 14.5107 11.257 14.5183 11.256 14.5258L10.7581 18.1369C10.7075 18.5036 10.6756 18.7381 10.6627 18.9175C10.6502 19.0915 10.6618 19.1472 10.6655 19.1618C10.7166 19.361 10.8589 19.5243 11.0492 19.6021C11.0632 19.6078 11.1168 19.6269 11.2909 19.6383C11.4703 19.65 11.7071 19.6504 12.0772 19.6504C12.4528 19.6504 12.6934 19.65 12.8756 19.638C13.0527 19.6264 13.1069 19.6068 13.1206 19.6011C13.3126 19.5218 13.455 19.3556 13.5041 19.1538C13.5076 19.1394 13.5186 19.0828 13.503 18.906C13.487 18.7241 13.4506 18.4863 13.3932 18.1152L12.842 14.5527C12.8409 14.545 12.8396 14.5372 12.8384 14.5294C12.8171 14.3915 12.7938 14.2416 12.7846 14.1113C12.7744 13.9675 12.7725 13.7583 12.8549 13.5336C12.9612 13.2437 13.1575 13.0049 13.4214 12.8446C13.6293 12.7183 13.8398 12.6807 13.9815 12.6635C14.1131 12.6475 14.2683 12.6412 14.4139 12.6353L14.4375 12.6343C15.9847 12.5709 17.348 12.2842 18.3473 11.3155C19.2574 10.4332 20.0111 8.83951 20.1327 5.86589C18.8957 5.9122 17.6159 6.07295 16.4738 6.48699C15.0857 6.99024 13.933 7.85337 13.278 9.34262C13.1337 9.67049 12.7995 9.87277 12.4421 9.84842C12.0848 9.82408 11.781 9.57832 11.6826 9.23392C11.1992 7.54198 10.636 6.40771 9.50744 5.64098C8.44394 4.91844 6.7566 4.43927 3.85923 4.36154Z" fill="#1A1A1A"/>
</svg>
