<svg width="24" height="24" viewBox="0 0 24 24" fill="none" xmlns="http://www.w3.org/2000/svg">
<path fill-rule="evenodd" clip-rule="evenodd" d="M10.5322 8.1463C9.35311 7.47251 7.88599 8.32392 7.88599 9.68198V14.7181C7.88599 16.1175 9.43406 16.9627 10.6112 16.206L14.7586 13.5398C15.8755 12.8218 15.8325 11.175 14.6797 10.5163L10.5322 8.1463ZM9.58599 9.68198C9.58599 9.66225 9.59042 9.65299 9.59374 9.64745C9.59838 9.63971 9.60699 9.63022 9.62022 9.62254C9.63344 9.61487 9.64596 9.6121 9.65498 9.61191C9.66144 9.61178 9.67168 9.61252 9.68881 9.62231L13.8362 11.9923C13.8526 12.0016 13.8586 12.0099 13.8619 12.0157C13.8665 12.0236 13.8705 12.0354 13.8708 12.0501C13.8712 12.0649 13.8679 12.0769 13.8638 12.085C13.8607 12.091 13.8552 12.0996 13.8393 12.1098L9.69188 14.776C9.67422 14.7873 9.6639 14.7883 9.65787 14.7884C9.64891 14.7885 9.63589 14.7862 9.62178 14.7785C9.60767 14.7708 9.59865 14.7611 9.59394 14.7535C9.59076 14.7483 9.58599 14.7391 9.58599 14.7181V9.68198Z" fill="#1A1A1A"/>
<path fill-rule="evenodd" clip-rule="evenodd" d="M5.83656 2.79031C4.53014 3.51793 3.58422 4.75502 3.22445 6.20648L3.16514 6.44577C2.26103 10.0933 2.26103 13.9065 3.16514 17.554L3.22445 17.7933C3.58422 19.2448 4.53014 20.4819 5.83656 21.2095C7.22652 21.9836 8.88727 22.105 10.375 21.541L11.5486 21.0962C14.3445 20.0364 16.9345 18.4978 19.2026 16.5494L19.5797 16.2255C20.8116 15.1672 21.5203 13.624 21.5203 11.9999C21.5203 10.3758 20.8116 8.83261 19.5797 7.77431L19.2026 7.45035C16.9345 5.50195 14.3445 3.96338 11.5486 2.9036L10.375 2.45874C8.88727 1.89483 7.22652 2.01616 5.83656 2.79031ZM18.0948 8.73986L18.4719 9.06382C19.3279 9.79916 19.8203 10.8714 19.8203 11.9999C19.8203 13.1284 19.3279 14.2006 18.4719 14.936L18.0948 15.2599C15.9765 17.0797 13.5574 18.5167 10.946 19.5066L9.77245 19.9514C8.7534 20.3377 7.61583 20.2546 6.66374 19.7243C5.76888 19.2259 5.12095 18.3785 4.87452 17.3843L4.81521 17.145C3.97768 13.7661 3.97768 10.2337 4.81521 6.85477L4.87452 6.61548C5.12095 5.62127 5.76888 4.77389 6.66374 4.27549C7.61583 3.74522 8.7534 3.66211 9.77245 4.04838L10.946 4.49323C13.5574 5.48306 15.9765 6.92007 18.0948 8.73986Z" fill="#1A1A1A"/>
</svg>
