<svg width="24" height="24" viewBox="0 0 24 24" fill="none" xmlns="http://www.w3.org/2000/svg">
<g clip-path="url(#clip0_237861_5188)">
<path d="M21.2991 14.6991C21.631 14.3675 22.1694 14.3673 22.5012 14.6991C22.8328 15.0309 22.8326 15.5684 22.5012 15.9003L15.9016 22.5009C15.7423 22.6602 15.5254 22.7498 15.3 22.7499C15.0748 22.7498 14.8588 22.6601 14.6995 22.5009L11.3997 19.2011C11.0678 18.8691 11.0677 18.3309 11.3997 17.9989C11.7316 17.6674 12.269 17.6672 12.6008 17.9989L15.3 20.6972L21.2991 14.6991Z" fill="#1A1A1A"/>
<path fill-rule="evenodd" clip-rule="evenodd" d="M10.5208 2.43837C10.9402 2.22959 11.4515 2.40012 11.6614 2.81923L12.761 5.01943C12.9704 5.43876 12.7998 5.94876 12.3811 6.15908C12.3494 6.17492 12.316 6.18852 12.2834 6.20009H19.7004C20.1694 6.20048 20.5498 6.5807 20.55 7.0497C20.5499 7.51881 20.1695 7.89892 19.7004 7.89931H17.1008C17.0177 8.12478 16.9089 8.40653 16.7678 8.73037C16.39 9.59742 15.7875 10.7831 14.885 12.0741C14.4225 12.7357 13.8794 13.425 13.2483 14.1142C13.9788 14.7792 14.8089 15.426 15.7522 16.0194C16.1492 16.2692 16.269 16.7941 16.0198 17.1913C15.7698 17.5884 15.2442 17.7087 14.8469 17.4589C13.7871 16.7922 12.8585 16.0639 12.0442 15.3163C10.3268 16.8926 8.09749 18.377 5.22681 19.4003C4.78473 19.5577 4.29848 19.3267 4.14087 18.8847C3.98374 18.4427 4.21473 17.9564 4.65649 17.7987C7.25722 16.8716 9.27904 15.5349 10.8411 14.1132C9.82446 13.0028 9.03924 11.892 8.44458 10.9003C7.83575 9.88494 7.42398 8.9909 7.16235 8.34658C7.09498 8.18064 7.03784 8.03046 6.9895 7.89931H4.30005C3.83072 7.89926 3.45055 7.51901 3.45044 7.0497C3.45068 6.5805 3.8308 6.20014 4.30005 6.20009H11.7161C11.5162 6.12923 11.3428 5.98382 11.2405 5.77919L10.1399 3.579C9.93056 3.15927 10.1011 2.64818 10.5208 2.43837ZM8.81958 7.89931C9.05557 8.45752 9.40515 9.19565 9.90259 10.0253C10.4378 10.9178 11.141 11.9134 12.0461 12.9101C12.6014 12.2986 13.081 11.6876 13.4915 11.1005C14.3185 9.91741 14.8682 8.83332 15.2092 8.05068C15.2315 7.99945 15.2512 7.94786 15.2717 7.89931H8.81958Z" fill="#1A1A1A"/>
</g>
<defs>
<clipPath id="clip0_237861_5188">
<rect width="24" height="24" fill="white"/>
</clipPath>
</defs>
</svg>
