<svg width="24" height="24" viewBox="0 0 24 24" fill="none" xmlns="http://www.w3.org/2000/svg">
<path fill-rule="evenodd" clip-rule="evenodd" d="M20.059 19.5909L20.0557 19.5877L12.673 12.832C12.3196 12.5086 12.1183 12.0516 12.1183 11.5726V11.1072C12.1183 10.128 12.8985 9.5023 13.6015 9.3188C13.8737 9.24775 14.1339 9.13097 14.3705 8.97178C14.7862 8.69225 15.1109 8.29435 15.3029 7.82776C15.495 7.36112 15.5453 6.84732 15.4473 6.35158C15.3494 5.85586 15.1077 5.40127 14.7538 5.045C14.3999 4.68879 13.9497 4.44685 13.4604 4.34889C12.9712 4.25093 12.464 4.30116 12.0028 4.49345C11.5416 4.68577 11.1464 5.01182 10.868 5.43126C10.5895 5.85075 10.4406 6.34452 10.4406 6.8501C10.4406 7.31954 10.06 7.7001 9.59055 7.7001C9.12111 7.7001 8.74055 7.31954 8.74055 6.8501C8.74055 6.01076 8.98779 5.18983 9.45163 4.49107C9.91552 3.79224 10.5754 3.24673 11.3486 2.92437C12.1218 2.60199 12.973 2.51755 13.7942 2.68197C14.6154 2.84639 15.3689 3.25208 15.9598 3.84687C16.5506 4.4416 16.9524 5.19866 17.1151 6.02201C17.2778 6.84533 17.1943 7.69879 16.875 8.47469C16.5557 9.25063 16.0146 9.91475 15.3193 10.3824C14.9233 10.6487 14.4875 10.8445 14.0309 10.9637C13.9476 10.9854 13.8814 11.0288 13.8447 11.0685C13.8279 11.0867 13.8214 11.0995 13.8193 11.1043L13.8183 11.1072L13.8183 11.5726C13.8183 11.5746 13.8192 11.5765 13.8207 11.5779L21.2033 18.3335C22.3525 19.3851 21.6085 21.3001 20.0508 21.3001L5.31699 21.3001C3.79878 21.3001 3.0359 19.4668 4.1059 18.3898L4.76533 17.726C5.09618 17.393 5.63437 17.3912 5.9674 17.7221C6.30043 18.0529 6.3022 18.5911 5.97134 18.9242L5.31192 19.5879L5.30886 19.5912L5.31039 19.5957L5.31252 19.6L5.31699 19.6001H20.0508L20.0554 19.6L20.0575 19.5955L20.059 19.5909Z" fill="#1A1A1A"/>
<path fill-rule="evenodd" clip-rule="evenodd" d="M7.24539 7.76107C7.08976 7.52 6.82301 7.37372 6.53607 7.3721C6.24913 7.37048 5.98074 7.51373 5.8224 7.75303C5.48972 8.25582 5.11105 8.74126 4.70284 9.1888C4.11276 9.83574 3.40952 10.4594 2.62243 10.9701C2.37907 11.128 2.23305 11.3991 2.23513 11.6892C2.23721 11.9793 2.3871 12.2483 2.6327 12.4027C3.41093 12.892 4.10922 13.492 4.6991 14.1256C5.11081 14.5679 5.49058 15.0485 5.82316 15.5494C5.98161 15.788 6.24961 15.9308 6.53606 15.9292C6.8225 15.9276 7.08888 15.7818 7.24464 15.5414C7.56584 15.0457 7.93426 14.569 8.3374 14.1288C8.92127 13.4914 9.61466 12.8916 10.3936 12.4034C10.6398 12.2491 10.7902 11.9797 10.7922 11.6892C10.7943 11.3986 10.6478 11.1272 10.4039 10.9694C9.61609 10.4599 8.91786 9.83649 8.33372 9.18558C7.93393 8.74008 7.56663 8.25868 7.24539 7.76107ZM6.51513 10.3902C7.21101 10.3902 7.77513 10.9543 7.77513 11.6502C7.77513 12.346 7.21101 12.9102 6.51513 12.9102C5.81925 12.9102 5.25513 12.346 5.25513 11.6502C5.25513 10.9543 5.81925 10.3902 6.51513 10.3902Z" fill="#1A1A1A"/>
</svg>
