<svg width="24" height="24" viewBox="0 0 24 24" fill="none" xmlns="http://www.w3.org/2000/svg">
<path d="M15.6849 5.1593L16.0708 4.40194V4.40194L15.6849 5.1593ZM4.28673 5.1593L3.90084 4.40194L3.90084 4.40194L4.28673 5.1593ZM2.84533 6.6007L2.08798 6.21481L2.08798 6.21481L2.84533 6.6007ZM2.84533 17.3989L2.08798 17.7848H2.08798L2.84533 17.3989ZM4.28673 18.8403L3.90084 19.5977L4.28673 18.8403ZM15.6849 18.8403L16.0708 19.5977V19.5977L15.6849 18.8403ZM17.1263 17.3989L17.8837 17.7848V17.7848L17.1263 17.3989ZM17.48 15.1607L18.01 14.4962C17.7567 14.2942 17.4106 14.2537 17.1175 14.3919C16.8244 14.5301 16.6354 14.8229 16.6301 15.1469L17.48 15.1607ZM17.9313 15.4806L18.4095 14.7779L18.4095 14.7779L17.9313 15.4806ZM18.257 15.7023L17.7789 16.4051L17.7855 16.4095L18.257 15.7023ZM18.2571 15.7023L18.7353 14.9995L18.7286 14.995L18.2571 15.7023ZM20.1207 16.674L20.0757 15.8252L20.0757 15.8252L20.1207 16.674ZM21.0121 16.2024L20.3357 15.6876L20.3357 15.6876L21.0121 16.2024ZM21.0121 7.79742L21.6885 7.28269L21.6885 7.28269L21.0121 7.79742ZM20.1207 7.32578L20.1658 6.47698V6.47698L20.1207 7.32578ZM18.2571 8.29746L17.7789 7.59471C17.7681 7.60205 17.7575 7.60964 17.7471 7.61746L18.2571 8.29746ZM18.2571 8.29747L18.7352 9.00022C18.746 8.99288 18.7566 8.9853 18.7671 8.97747L18.2571 8.29747ZM17.9313 8.5191L18.4095 9.22185H18.4095L17.9313 8.5191ZM17.48 8.83904L16.6301 8.85281C16.6354 9.17681 16.8244 9.46964 17.1175 9.60785C17.4105 9.74605 17.7567 9.70559 18.01 9.50352L17.48 8.83904ZM17.1263 6.6007L17.8837 6.21481V6.21481L17.1263 6.6007ZM12.2086 5.6498C13.1462 5.6498 13.7983 5.65047 14.3057 5.69192C14.8031 5.73256 15.0861 5.80814 15.2991 5.91665L16.0708 4.40194C15.5783 4.15096 15.0467 4.0468 14.4441 3.99756C13.8515 3.94914 13.1182 3.9498 12.2086 3.9498V5.6498ZM7.7631 5.6498H12.2086V3.9498H7.7631V5.6498ZM4.67263 5.91665C4.8856 5.80814 5.16858 5.73256 5.66601 5.69192C6.17336 5.65047 6.82546 5.6498 7.7631 5.6498V3.9498C6.85352 3.9498 6.12021 3.94914 5.52757 3.99756C4.92501 4.0468 4.39341 4.15096 3.90084 4.40194L4.67263 5.91665ZM3.60269 6.98659C3.83741 6.52592 4.21195 6.15138 4.67263 5.91665L3.90084 4.40194C3.12029 4.79965 2.48569 5.43426 2.08798 6.21481L3.60269 6.98659ZM3.33584 10.0771C3.33584 9.13943 3.3365 8.48733 3.37795 7.97997C3.4186 7.48254 3.49417 7.19956 3.60269 6.98659L2.08798 6.21481C1.837 6.70738 1.73283 7.23898 1.6836 7.84154C1.63518 8.43418 1.63584 9.16748 1.63584 10.0771H3.33584ZM3.33584 13.9225V10.0771H1.63584V13.9225H3.33584ZM3.60269 17.013C3.49417 16.8 3.4186 16.5171 3.37795 16.0196C3.3365 15.5123 3.33584 14.8602 3.33584 13.9225H1.63584C1.63584 14.8321 1.63518 15.5654 1.6836 16.1581C1.73283 16.7606 1.837 17.2922 2.08798 17.7848L3.60269 17.013ZM4.67263 18.083C4.21195 17.8482 3.83741 17.4737 3.60269 17.013L2.08798 17.7848C2.48569 18.5654 3.12029 19.2 3.90084 19.5977L4.67263 18.083ZM7.7631 18.3498C6.82546 18.3498 6.17336 18.3491 5.66601 18.3077C5.16857 18.267 4.8856 18.1915 4.67263 18.083L3.90084 19.5977C4.39341 19.8486 4.92501 19.9528 5.52757 20.002C6.12021 20.0505 6.85352 20.0498 7.7631 20.0498V18.3498ZM12.2086 18.3498H7.7631V20.0498H12.2086V18.3498ZM15.2991 18.083C15.0861 18.1915 14.8031 18.267 14.3057 18.3077C13.7983 18.3491 13.1462 18.3498 12.2086 18.3498V20.0498C13.1182 20.0498 13.8515 20.0505 14.4441 20.002C15.0467 19.9528 15.5783 19.8486 16.0708 19.5977L15.2991 18.083ZM16.369 17.013C16.1343 17.4737 15.7597 17.8482 15.2991 18.083L16.0708 19.5977C16.8514 19.2 17.486 18.5654 17.8837 17.7848L16.369 17.013ZM16.6301 15.1469C16.6127 16.2198 16.5376 16.682 16.369 17.013L17.8837 17.7848C18.2518 17.0624 18.3128 16.2282 18.3299 15.1745L16.6301 15.1469ZM18.4095 14.7779C18.1994 14.635 18.0883 14.5587 18.01 14.4962L16.9499 15.8252C17.0904 15.9373 17.2647 16.0552 17.4531 16.1834L18.4095 14.7779ZM18.7352 14.9995L18.4095 14.7779L17.4531 16.1834L17.7789 16.405L18.7352 14.9995ZM18.7286 14.995L18.7285 14.995L17.7855 16.4095L17.7856 16.4095L18.7286 14.995ZM20.0757 15.8252C20.1211 15.8228 20.0741 15.845 19.8144 15.701C19.5627 15.5616 19.2357 15.3401 18.7352 14.9995L17.7789 16.405C18.2514 16.7266 18.6542 17.0017 18.9902 17.1879C19.318 17.3696 19.7163 17.5466 20.1658 17.5228L20.0757 15.8252ZM20.3357 15.6876C20.2734 15.7694 20.1784 15.8197 20.0757 15.8252L20.1658 17.5228C20.767 17.4909 21.3239 17.1963 21.6885 16.7171L20.3357 15.6876ZM20.4071 14.1149C20.4071 14.7203 20.4063 15.1152 20.3801 15.4017C20.353 15.6975 20.3082 15.7238 20.3357 15.6876L21.6885 16.7171C21.9611 16.3589 22.0388 15.93 22.073 15.5567C22.108 15.1742 22.1071 14.6865 22.1071 14.1149H20.4071ZM20.4071 11.9999V14.1149H22.1071V11.9999H20.4071ZM20.4071 9.88486V11.9999H22.1071V9.88486H20.4071ZM20.3357 8.31215C20.3082 8.276 20.353 8.30231 20.3801 8.59806C20.4063 8.88454 20.4071 9.27949 20.4071 9.88486H22.1071C22.1071 9.31329 22.108 8.82553 22.073 8.44303C22.0388 8.0698 21.9611 7.64086 21.6885 7.28269L20.3357 8.31215ZM20.0757 8.17459C20.1784 8.18004 20.2734 8.23034 20.3357 8.31215L21.6885 7.28269C21.3239 6.80352 20.7671 6.50888 20.1658 6.47698L20.0757 8.17459ZM18.7352 9.00022C19.2357 8.65967 19.5627 8.4382 19.8144 8.29873C20.0741 8.15475 20.1211 8.177 20.0757 8.17459L20.1658 6.47698C19.7163 6.45313 19.318 6.63017 18.9902 6.81187C18.6542 6.99809 18.2515 7.27318 17.7789 7.59471L18.7352 9.00022ZM18.7671 8.97747L18.7671 8.97746L17.7471 7.61746L17.7471 7.61747L18.7671 8.97747ZM18.4095 9.22185L18.7352 9.00022L17.7789 7.59472L17.4532 7.81635L18.4095 9.22185ZM18.01 9.50352C18.0883 9.44109 18.1994 9.36478 18.4095 9.22185L17.4532 7.81635C17.2647 7.94456 17.0905 8.06246 16.9499 8.17455L18.01 9.50352ZM16.369 6.98659C16.5377 7.31761 16.6127 7.7799 16.6301 8.85281L18.3299 8.82526C18.3128 7.77146 18.2518 6.93724 17.8837 6.21481L16.369 6.98659ZM15.2991 5.91665C15.7597 6.15138 16.1343 6.52592 16.369 6.98659L17.8837 6.21481C17.486 5.43426 16.8514 4.79965 16.0708 4.40194L15.2991 5.91665Z" fill="#1A1A1A"/>
</svg>
