<svg width="24" height="24" viewBox="0 0 24 24" fill="none" xmlns="http://www.w3.org/2000/svg">
<path d="M11.0098 3.08036C11.4289 2.83181 11.9218 2.75298 12.3848 2.87626C12.928 3.02095 13.3722 3.43197 13.5498 4.02372L13.7012 4.56962C14.0554 5.96816 14.4111 8.24698 14.4111 11.7581C14.4111 15.6925 13.9987 18.2329 13.6455 19.6858C13.4875 20.3354 13.0186 20.7939 12.4404 20.9593C11.9441 21.1011 11.4042 21.0182 10.9512 20.7278L10.7627 20.5911L6.29004 16.9222C6.23712 16.8789 6.17091 16.8549 6.10254 16.8548H4.41602C3.462 16.8546 2.68852 16.0813 2.68848 15.1272V8.37235C2.68864 7.4184 3.46208 6.645 4.41602 6.64481H6.12988C6.19395 6.64476 6.25633 6.62363 6.30762 6.58524L10.835 3.19657L11.0098 3.08036ZM11.8652 4.46122L11.8076 4.49637L7.28027 7.88505C6.94832 8.13351 6.54452 8.26781 6.12988 8.26786H4.41602C4.35828 8.26805 4.31168 8.31461 4.31152 8.37235V15.1272C4.31156 15.1851 4.35821 15.2315 4.41602 15.2317H6.10254C6.54619 15.2318 6.97626 15.386 7.31934 15.6673L11.792 19.3362L11.8574 19.3792C11.9196 19.4099 11.9697 19.407 11.9951 19.3997C12.0128 19.3946 12.0246 19.3862 12.0332 19.3772C12.0408 19.3693 12.057 19.3488 12.0684 19.302L12.1914 18.7581C12.482 17.3651 12.7891 15.1016 12.7891 11.7581C12.789 8.35396 12.4428 6.21279 12.1279 4.96903L11.9961 4.48954C11.9909 4.47236 11.9857 4.46182 11.9824 4.45633C11.9793 4.45118 11.9771 4.44808 11.9766 4.44755C11.9762 4.44725 11.9736 4.44546 11.9668 4.44364C11.9552 4.44072 11.9181 4.43692 11.8652 4.46122ZM17.3574 8.48172C17.6686 8.13028 18.2061 8.09735 18.5576 8.40848C19.0862 8.87651 19.512 9.43816 19.8047 10.0638L19.9072 10.3001C20.1328 10.8583 20.25 11.4504 20.25 12.0501L20.2432 12.3069C20.2146 12.8185 20.1005 13.3218 19.9072 13.8001L19.8047 14.0364C19.512 14.662 19.0861 15.2237 18.5576 15.6917C18.2061 16.0027 17.6686 15.9699 17.3574 15.6184C17.0466 15.267 17.0795 14.7304 17.4307 14.4192C17.7934 14.0981 18.0749 13.7221 18.2646 13.3167L18.3311 13.1634C18.4557 12.855 18.527 12.5342 18.5449 12.2112L18.5498 12.0501C18.5498 11.6728 18.4764 11.2965 18.3311 10.9368L18.2646 10.7835C18.0749 10.378 17.7934 10.0021 17.4307 9.68094C17.0794 9.36984 17.0466 8.83316 17.3574 8.48172Z" fill="#1A1A1A"/>
</svg>
