<svg width="24" height="24" viewBox="0 0 24 24" fill="none" xmlns="http://www.w3.org/2000/svg">
<path d="M6.91107 9.73964V15.1273C6.91118 15.185 6.958 15.2314 7.01556 15.2318H8.70208C9.14564 15.232 9.57585 15.3862 9.91888 15.6674L14.3915 19.3363L14.457 19.3793C14.5188 19.4098 14.5691 19.407 14.5947 19.3998C14.6121 19.3947 14.6242 19.3861 14.6327 19.3773C14.6404 19.3694 14.6566 19.3486 14.6679 19.3021L14.791 18.7582C14.8502 18.4739 14.9078 18.1529 14.9658 17.7943L16.3564 19.185C16.3181 19.3642 16.2826 19.5316 16.2451 19.6859C16.087 20.3354 15.618 20.794 15.04 20.9594C14.5438 21.101 14.0036 21.0182 13.5507 20.7279L13.3622 20.5912L8.88958 16.9223C8.83671 16.8791 8.77036 16.855 8.70208 16.8549H7.01556C6.06179 16.8545 5.28813 16.0812 5.28802 15.1273V8.37245C5.28804 8.29194 5.29492 8.21273 5.3056 8.13515L6.91107 9.73964ZM3.59955 3.59901C3.9315 3.26747 4.46889 3.26726 4.80072 3.59901L20.3574 19.1557L20.416 19.2201C20.6879 19.5538 20.6681 20.0457 20.3574 20.3568C20.0462 20.668 19.5535 20.6877 19.2197 20.4154L19.1552 20.3568L3.59955 4.80116C3.2676 4.46922 3.2676 3.93096 3.59955 3.59901ZM13.6093 3.08046C14.0284 2.83202 14.5215 2.75322 14.9843 2.87636C15.5275 3.02106 15.9718 3.4321 16.1494 4.02382L16.3007 4.56972C16.6549 5.96826 17.0106 8.24712 17.0107 11.7582C17.0107 12.6129 16.9901 13.402 16.956 14.1283L15.3788 12.5512C15.3827 12.294 15.3886 12.0295 15.3886 11.7582C15.3886 8.35411 15.0424 6.21289 14.7275 4.96913L14.5956 4.48964C14.5905 4.47247 14.5852 4.46193 14.582 4.45644C14.5789 4.45133 14.5767 4.44818 14.5761 4.44765C14.5753 4.44712 14.5724 4.44537 14.5663 4.44374C14.5544 4.44084 14.5171 4.43731 14.4648 4.46132L14.4072 4.49647L10.3554 7.52773L9.19622 6.36855L13.4345 3.19667L13.6093 3.08046Z" fill="#1A1A1A"/>
</svg>
