<svg width="24" height="24" viewBox="0 0 24 24" fill="none" xmlns="http://www.w3.org/2000/svg">
<path fill-rule="evenodd" clip-rule="evenodd" d="M13.0547 3.65002H10.9451C9.34787 3.65001 8.07353 3.65 7.06341 3.7694C6.023 3.89238 5.15281 4.15206 4.4231 4.75092C4.17752 4.95246 3.95234 5.17764 3.7508 5.42322C3.15194 6.15293 2.89226 7.02312 2.76927 8.06354C2.64988 9.07365 2.64989 10.348 2.6499 11.9452V12.0548C2.64989 13.6521 2.64988 14.9264 2.76927 15.9365C2.89226 16.9769 3.15194 17.8471 3.7508 18.5768C3.95234 18.8224 4.17752 19.0476 4.4231 19.2491C5.15281 19.848 6.023 20.1077 7.06341 20.2307C8.07353 20.3501 9.34784 20.35 10.9451 20.35H13.0547C14.6519 20.35 15.9263 20.3501 16.9364 20.2307C17.9768 20.1077 18.847 19.848 19.5767 19.2491C19.8223 19.0476 20.0475 18.8224 20.249 18.5768C20.8479 17.8471 21.1076 16.9769 21.2305 15.9365C21.3499 14.9264 21.3499 13.6521 21.3499 12.0549V11.9452C21.3499 10.348 21.3499 9.07365 21.2305 8.06354C21.1076 7.02312 20.8479 6.15293 20.249 5.42322C20.0475 5.17764 19.8223 4.95246 19.5767 4.75092C18.847 4.15206 17.9768 3.89238 16.9364 3.7694C15.9263 3.65 14.6519 3.65001 13.0547 3.65002ZM5.50156 6.06504C5.8782 5.75595 6.38305 5.56165 7.26297 5.45764C8.16165 5.35142 9.33534 5.35003 10.9999 5.35003H12.9999C14.6645 5.35003 15.8382 5.35142 16.7368 5.45764C17.6168 5.56165 18.1216 5.75595 18.4982 6.06504C18.6577 6.19594 18.804 6.34219 18.9349 6.50169C19.2305 6.86188 19.4211 7.33934 19.5281 8.14998L14.8711 8.14998C12.7448 8.14998 11.0211 9.87368 11.0211 12C11.0211 14.1263 12.7448 15.85 14.8711 15.85L19.5282 15.85C19.4211 16.6607 19.2305 17.1382 18.9349 17.4984C18.804 17.6579 18.6577 17.8041 18.4982 17.935C18.1216 18.2441 17.6168 18.4384 16.7368 18.5424C15.8382 18.6486 14.6645 18.65 12.9999 18.65H10.9999C9.33534 18.65 8.16165 18.6486 7.26297 18.5424C6.38305 18.4384 5.8782 18.2441 5.50156 17.935C5.34207 17.8041 5.19582 17.6579 5.06492 17.4984C4.75583 17.1217 4.56153 16.6169 4.45752 15.737C4.35129 14.8383 4.3499 13.6646 4.3499 12C4.3499 10.3355 4.35129 9.16177 4.45752 8.26309C4.56153 7.38318 4.75583 6.87832 5.06492 6.50169C5.19582 6.34219 5.34207 6.19594 5.50156 6.06504ZM19.6361 14.15C19.6496 13.5375 19.6499 12.8297 19.6499 12C19.6499 11.1703 19.6496 10.4625 19.6361 9.84998L14.8711 9.84998C13.6837 9.84998 12.7211 10.8126 12.7211 12C12.7211 13.1874 13.6837 14.15 14.8711 14.15L19.6361 14.15Z" fill="#1A1A1A"/>
</svg>
