<svg width="24" height="24" viewBox="0 0 24 24" fill="none" xmlns="http://www.w3.org/2000/svg">
<g opacity="0.9">
<mask id="path-1-inside-1_205298_5282" fill="white">
<path fill-rule="evenodd" clip-rule="evenodd" d="M17.9676 19.8851H6.60427C6.45454 19.8978 6.30304 19.9043 6.15002 19.9043C3.22619 19.9043 0.855957 17.5341 0.855957 14.6103C0.855957 11.7158 3.17879 9.3639 6.06204 9.31692C7.15431 6.63158 9.68924 4.75 12.642 4.75C16.043 4.75 18.8897 7.24615 19.6161 10.5915C21.6465 11.125 23.1441 12.9731 23.1441 15.171C23.1441 17.5693 21.3608 19.5512 19.0478 19.8628V19.8851H18.8516C18.706 19.8986 18.5586 19.9055 18.4096 19.9055C18.2606 19.9055 18.1131 19.8986 17.9676 19.8851Z"/>
</mask>
<path d="M17.9676 19.8851L18.1243 18.1924L18.0461 18.1851H17.9676V19.8851ZM6.60427 19.8851V18.1851H6.53217L6.46032 18.1912L6.60427 19.8851ZM6.06204 9.31692L6.08974 11.0167L7.21335 10.9984L7.63676 9.95744L6.06204 9.31692ZM19.6161 10.5915L17.9548 10.9523L18.176 11.9709L19.1841 12.2357L19.6161 10.5915ZM19.0478 19.8628L18.8208 18.1781L17.3478 18.3765V19.8628H19.0478ZM19.0478 19.8851V21.5851H20.7478V19.8851H19.0478ZM18.8516 19.8851V18.1851H18.773L18.6948 18.1924L18.8516 19.8851ZM17.9676 18.1851H6.60427V21.5851H17.9676V18.1851ZM6.46032 18.1912C6.35842 18.1999 6.25494 18.2043 6.15002 18.2043V21.6043C6.35114 21.6043 6.55067 21.5958 6.74822 21.579L6.46032 18.1912ZM6.15002 18.2043C4.16507 18.2043 2.55596 16.5952 2.55596 14.6103H-0.844043C-0.844043 18.473 2.28731 21.6043 6.15002 21.6043V18.2043ZM2.55596 14.6103C2.55596 12.6454 4.13293 11.0486 6.08974 11.0167L6.03435 7.61715C2.22465 7.67922 -0.844043 10.7862 -0.844043 14.6103H2.55596ZM7.63676 9.95744C8.49306 7.85223 10.4438 6.45 12.642 6.45V3.05C8.93469 3.05 5.81556 5.41093 4.48732 8.6764L7.63676 9.95744ZM12.642 6.45C15.1703 6.45 17.3822 8.31509 17.9548 10.9523L21.2774 10.2308C20.3972 6.17721 16.9157 3.05 12.642 3.05V6.45ZM19.1841 12.2357C20.4859 12.5778 21.4441 13.7646 21.4441 15.171H24.8441C24.8441 12.1816 22.8071 9.67229 20.0481 8.94735L19.1841 12.2357ZM21.4441 15.171C21.4441 16.7068 20.3016 17.9785 18.8208 18.1781L19.2748 21.5476C22.4199 21.1238 24.8441 18.4319 24.8441 15.171H21.4441ZM17.3478 19.8628V19.8851H20.7478V19.8628H17.3478ZM19.0478 18.1851H18.8516V21.5851H19.0478V18.1851ZM18.6948 18.1924C18.6014 18.201 18.5062 18.2055 18.4096 18.2055V21.6055C18.611 21.6055 18.8107 21.5962 19.0083 21.5779L18.6948 18.1924ZM18.4096 18.2055C18.3129 18.2055 18.2178 18.201 18.1243 18.1924L17.8109 21.5779C18.0084 21.5962 18.2082 21.6055 18.4096 21.6055V18.2055Z" fill="#1A1A1A" mask="url(#path-1-inside-1_205298_5282)"/>
<path d="M6.21826 10.1328C7.9148 10.1328 9.42496 10.9308 10.3938 12.172" stroke="#1A1A1A" stroke-width="1.7" stroke-linecap="round"/>
</g>
</svg>
