<svg width="24" height="24" viewBox="0 0 24 24" fill="none" xmlns="http://www.w3.org/2000/svg">
<path d="M12 2.15039C17.4398 2.15044 21.8494 6.56021 21.8496 12C21.8496 17.44 17.44 21.8505 12 21.8506C6.56 21.8506 2.14941 17.44 2.14941 12C2.14963 6.56017 6.56013 2.15039 12 2.15039ZM12 3.85059C7.49901 3.85059 3.84982 7.49906 3.84961 12C3.84961 16.5011 7.49888 20.1504 12 20.1504C16.5011 20.1503 20.1504 16.5011 20.1504 12C20.1502 7.49909 16.5009 3.85064 12 3.85059ZM14.293 6.65039C15.9813 6.65048 17.3496 8.01873 17.3496 9.70703V9.78906C17.3494 11.4906 15.9701 12.8701 14.2686 12.8701V11.1699C15.0312 11.1699 15.6502 10.5517 15.6504 9.78906V9.70703C15.6504 8.95761 15.0424 8.3497 14.293 8.34961C13.5435 8.34961 12.9356 8.95756 12.9355 9.70703V14.207C12.9355 15.9459 11.5187 17.3495 9.78613 17.3496C8.05355 17.3495 6.65039 15.9295 6.65039 14.2051C6.65039 12.5003 8.03066 11.0898 9.75 11.0898V12.79C8.98406 12.79 8.34961 13.4246 8.34961 14.2051C8.34961 14.9988 9.00066 15.6503 9.78613 15.6504C10.5861 15.6503 11.2363 15.0007 11.2363 14.207V9.70703C11.2364 8.01868 12.6046 6.65039 14.293 6.65039Z" fill="#1A1A1A"/>
</svg>
