<svg width="24" height="24" viewBox="0 0 24 24" fill="none" xmlns="http://www.w3.org/2000/svg">
<path d="M22.0283 8.80031C22.3014 8.48171 22.3 8.00859 22.0065 7.70869C19.465 5.11169 15.9207 3.5 12 3.5C8.07926 3.5 4.53497 5.11169 1.99347 7.70869C1.69998 8.00859 1.69859 8.48171 1.97168 8.80031C2.30878 9.19359 2.91668 9.19024 3.28209 8.82312C5.50955 6.58519 8.59301 5.2 12 5.2C15.407 5.2 18.4904 6.58519 20.7179 8.82312C21.0833 9.19024 21.6912 9.19359 22.0283 8.80031Z" fill="#1A1A1A"/>
<path d="M19.195 12.1058C19.4612 11.7952 19.466 11.3347 19.1813 11.0409C17.3636 9.16557 14.8179 8 12 8C9.18205 8 6.63635 9.16557 4.81869 11.0409C4.53396 11.3347 4.53873 11.7952 4.80498 12.1058C5.14792 12.5059 5.77033 12.4901 6.14375 12.1183C7.64473 10.6238 9.71448 9.7 12 9.7C14.2855 9.7 16.3552 10.6238 17.8562 12.1183C18.2296 12.4901 18.8521 12.5059 19.195 12.1058Z" fill="#1A1A1A"/>
<path d="M16.3818 14.4012C16.6417 14.679 16.624 15.1053 16.3765 15.3941C16.0196 15.8105 15.3559 15.7562 14.9579 15.3789C14.1871 14.6482 13.1459 14.2 12 14.2C10.8541 14.2 9.81287 14.6482 9.04212 15.3789C8.64412 15.7562 7.98042 15.8105 7.62351 15.3941C7.37596 15.1053 7.35828 14.679 7.61819 14.4012C8.71309 13.2312 10.2711 12.5 12 12.5C13.7288 12.5 15.2869 13.2312 16.3818 14.4012Z" fill="#1A1A1A"/>
<path d="M12.0001 20C12.8285 20 13.5001 19.3284 13.5001 18.5C13.5001 17.6716 12.8285 17 12.0001 17C11.1717 17 10.5001 17.6716 10.5001 18.5C10.5001 19.3284 11.1717 20 12.0001 20Z" fill="#1A1A1A"/>
</svg>
