<svg width="24" height="24" viewBox="0 0 24 24" fill="none" xmlns="http://www.w3.org/2000/svg">
<path d="M13.2753 3.99559C12.5169 3.43675 11.4829 3.43675 10.7245 3.9956L4.22452 8.78507C3.67456 9.19031 3.3499 9.83279 3.3499 10.5159V18.5C3.3499 19.6874 4.31249 20.65 5.4999 20.65H9.65928C9.73835 20.7889 9.81434 20.9298 9.88716 21.0725L10.2183 21.7214C10.3437 21.9673 10.5159 22.1796 10.7208 22.35H5.4999C3.37361 22.35 1.6499 20.6263 1.6499 18.5V10.5159C1.6499 9.29264 2.23126 8.14214 3.21609 7.41647L9.71609 2.627C11.0742 1.62629 12.9256 1.62629 14.2837 2.627L20.7837 7.41647C21.7685 8.14213 22.3499 9.29263 22.3499 10.5159V18.5C22.3499 20.6263 20.6262 22.35 18.4999 22.35H13.2788C13.4836 22.1796 13.6558 21.9673 13.7813 21.7214L14.1124 21.0725C14.1852 20.9298 14.2612 20.7889 14.3402 20.65H18.4999C19.6873 20.65 20.6499 19.6874 20.6499 18.5V10.5159C20.6499 9.8328 20.3252 9.19031 19.7753 8.78507L13.2753 3.99559Z" fill="#1A1A1A"/>
<path fill-rule="evenodd" clip-rule="evenodd" d="M12.7573 9.61357C12.6121 9.32902 12.3196 9.1499 12.0002 9.1499C11.6807 9.1499 11.3882 9.32902 11.243 9.61357L10.9119 10.2625C10.061 11.9302 8.82066 13.3682 7.29602 14.4547L6.93237 14.7139C6.70856 14.8734 6.57568 15.1313 6.57568 15.4061C6.57568 15.6809 6.70856 15.9388 6.93237 16.0983L7.29602 16.3575C8.82066 17.444 10.061 18.882 10.9119 20.5497L11.243 21.1986C11.3882 21.4832 11.6807 21.6623 12.0002 21.6623C12.3196 21.6623 12.6121 21.4832 12.7573 21.1986L13.0884 20.5497C13.9393 18.882 15.1797 17.444 16.7043 16.3575L17.0679 16.0983C17.2917 15.9388 17.4246 15.6809 17.4246 15.4061C17.4246 15.1313 17.2917 14.8734 17.0679 14.7139L16.7043 14.4547C15.1797 13.3682 13.9393 11.9302 13.0884 10.2625L12.7573 9.61357ZM8.85689 15.4061C10.113 14.4047 11.1777 13.185 12.0002 11.8061C12.8226 13.185 13.8873 14.4047 15.1434 15.4061C13.8873 16.4075 12.8226 17.6272 12.0002 19.0061C11.1777 17.6272 10.113 16.4075 8.85689 15.4061Z" fill="#1A1A1A"/>
</svg>
