<svg width="24" height="24" viewBox="0 0 24 24" fill="none" xmlns="http://www.w3.org/2000/svg">
<path fill-rule="evenodd" clip-rule="evenodd" d="M6.40995 10.6051C7.19954 10.4464 7.77925 10.0229 8.25318 9.44062C8.35998 9.29974 8.49555 9.10527 8.65819 8.87199C9.46852 7.70964 10.9506 5.58371 12.8921 4.32132L12.9171 4.30511C12.9865 4.26031 13.0566 4.21662 13.1272 4.17412C13.2225 4.11674 13.3189 4.06153 13.4163 4.00871C13.9629 3.71231 13.9956 2.89569 13.3842 2.78276C13.167 2.74265 12.9366 2.70717 12.6953 2.67916C12.6496 2.67385 12.6034 2.6688 12.5569 2.66405L12.5439 2.66272C12.2344 2.63149 11.9085 2.61304 11.5709 2.61304C11.255 2.61304 10.9916 2.61304 10.6757 2.66593C8.51638 2.82482 6.56799 3.72442 5.14663 4.8889C4.67207 5.25936 3.98763 5.89449 3.67154 6.42384C3.35565 6.84719 3.19761 7.37654 3.19761 7.90589C3.19761 8.06456 3.19761 8.22346 3.25029 8.38213C3.46081 9.70529 4.61939 10.658 5.93602 10.658C6.09385 10.658 6.2519 10.658 6.40995 10.6051ZM10.354 4.30653C8.72999 4.51917 7.25687 5.22844 6.16062 6.12657L6.14604 6.13851L6.13118 6.15011C5.69382 6.49153 5.2041 6.97812 5.04526 7.24414L5.00309 7.31475L4.95391 7.38067C4.86535 7.49936 4.79761 7.68434 4.79761 7.90589L4.79769 7.95711L4.79779 7.96532L4.80991 8.00184L4.83042 8.13073C4.91385 8.65515 5.3836 9.05799 5.93602 9.05799L5.98684 9.05791L5.99168 9.05786L5.99683 9.05613L6.09471 9.03646C6.43474 8.96813 6.70541 8.80073 6.99407 8.45275C7.04781 8.38011 7.13465 8.25583 7.24724 8.09468C7.60767 7.57881 8.23209 6.68512 8.87995 5.89814C9.30223 5.38518 9.79514 4.8345 10.354 4.30653Z" fill="#1A1A1A"/>
<path fill-rule="evenodd" clip-rule="evenodd" d="M14.6043 8.05299C14.0221 7.57906 13.5985 6.99935 13.4398 6.20975C13.3869 6.0517 13.3869 5.89366 13.3869 5.73582C13.3869 4.41919 14.3396 3.26061 15.6628 3.0501C15.8215 2.99742 15.9803 2.99742 16.139 2.99742C16.6684 2.99742 17.1977 3.15546 17.6211 3.47134C18.1504 3.78743 18.7856 4.47188 19.156 4.94644C20.3205 6.3678 21.2201 8.31619 21.379 10.4755C21.4319 10.7914 21.4319 11.0548 21.4319 11.3707C21.4319 11.7083 21.4134 12.0342 21.3822 12.3437L21.3809 12.3567C21.3761 12.4032 21.3711 12.4494 21.3658 12.4951C21.3377 12.7364 21.3023 12.9668 21.2622 13.184C21.1492 13.7954 20.3326 13.7627 20.0362 13.2161C19.9834 13.1187 19.9282 13.0223 19.8708 12.927C19.8283 12.8564 19.7846 12.7863 19.7398 12.7169L19.7236 12.6919C18.4612 10.7504 16.3353 9.26833 15.1729 8.458C14.9397 8.29537 14.7452 8.15978 14.6043 8.05299ZM17.9184 5.96043C18.8165 7.05667 19.5258 8.5298 19.7384 10.1538C19.2104 9.59495 18.6597 9.10204 18.1468 8.67975C17.3598 8.03189 16.4662 7.40752 15.9503 7.04709C15.7892 6.9345 15.6648 6.84762 15.5922 6.79387C15.2442 6.50521 15.0768 6.23455 15.0085 5.89452L14.9888 5.79664L14.9871 5.79149L14.987 5.78664L14.9869 5.73582C14.9869 5.1834 15.3898 4.71366 15.9142 4.63022L16.0431 4.60972L16.0796 4.59759L16.0878 4.5975L16.139 4.59742C16.3606 4.59742 16.5456 4.66515 16.6643 4.75371L16.7302 4.8029L16.8008 4.84506C17.0668 5.00391 17.5534 5.49363 17.8948 5.93099L17.9064 5.94585L17.9184 5.96043Z" fill="#1A1A1A"/>
<path fill-rule="evenodd" clip-rule="evenodd" d="M9.09711 15.4033C9.67936 15.8772 10.1029 16.457 10.2616 17.2465C10.3145 17.4046 10.3145 17.5626 10.3145 17.7205C10.3145 19.0371 9.36179 20.1957 8.03863 20.4062C7.87995 20.4589 7.72107 20.4589 7.56239 20.4589C7.03304 20.4589 6.50369 20.3008 6.08033 19.985C5.55099 19.6689 4.91585 18.9844 4.54539 18.5099C3.38091 17.0885 2.48131 15.1401 2.32242 12.9808C2.26953 12.6649 2.26953 12.4015 2.26953 12.0856C2.26953 11.748 2.28798 11.4221 2.31922 11.1126L2.32054 11.0996C2.3253 11.0531 2.33034 11.0069 2.33565 10.9612C2.36367 10.7199 2.39915 10.4895 2.43926 10.2723C2.55218 9.66092 3.36881 9.69362 3.66521 10.2402C3.71803 10.3376 3.77323 10.434 3.83062 10.5293C3.87311 10.5999 3.9168 10.67 3.9616 10.7394L3.97782 10.7644C5.24021 12.7059 7.36613 14.188 8.52847 14.9983C8.76173 15.1609 8.95624 15.2965 9.09711 15.4033ZM5.78306 17.4959C4.88494 16.3996 4.17566 14.9265 3.96302 13.3025C4.491 13.8614 5.04167 14.3543 5.55463 14.7765C6.34161 15.4244 7.23524 16.0488 7.75111 16.4092C7.9122 16.5218 8.03662 16.6087 8.10925 16.6624C8.45723 16.9511 8.62462 17.2217 8.69296 17.5618L8.71263 17.6597L8.71435 17.6648L8.71441 17.6697L8.71449 17.7205C8.71449 18.2729 8.31164 18.7426 7.78723 18.8261L7.65834 18.8466L7.62182 18.8587L7.6136 18.8588L7.56238 18.8589C7.34084 18.8589 7.15586 18.7911 7.03717 18.7026L6.97125 18.6534L6.90063 18.6112C6.63462 18.4524 6.14803 17.9627 5.8066 17.5253L5.79501 17.5105L5.78306 17.4959Z" fill="#1A1A1A"/>
<path fill-rule="evenodd" clip-rule="evenodd" d="M15.4482 14.5596C15.9222 13.9774 16.5019 13.5538 17.2915 13.3951C17.4495 13.3422 17.6076 13.3422 17.7654 13.3422C19.082 13.3422 20.2406 14.295 20.4511 15.6181C20.5038 15.7768 20.5038 15.9357 20.5038 16.0943C20.5038 16.6237 20.3458 17.1531 20.0299 17.5764C19.7138 18.1058 19.0293 18.7409 18.5548 19.1113C17.1334 20.2758 15.185 21.1754 13.0257 21.3343C12.7098 21.3872 12.4464 21.3872 12.1305 21.3872C11.7929 21.3872 11.467 21.3688 11.1575 21.3375L11.1445 21.3362C11.098 21.3314 11.0519 21.3264 11.0061 21.3211C10.7648 21.2931 10.5344 21.2576 10.3173 21.2175C9.70585 21.1046 9.73854 20.2879 10.2851 19.9915C10.3825 19.9387 10.4789 19.8835 10.5742 19.8261C10.6448 19.7836 10.7149 19.7399 10.7843 19.6951L10.8094 19.6789C12.7508 18.4165 14.2329 16.2906 15.0432 15.1283C15.2058 14.895 15.3414 14.7005 15.4482 14.5596ZM17.5408 17.8737C16.4445 18.7718 14.9714 19.4811 13.3474 19.6937C13.9063 19.1657 14.3992 18.6151 14.8215 18.1021C15.4693 17.3151 16.0937 16.4215 16.4541 15.9056C16.5667 15.7445 16.6536 15.6201 16.7073 15.5475C16.996 15.1995 17.2667 15.0321 17.6067 14.9638L17.7046 14.9441L17.7097 14.9424L17.7146 14.9423L17.7654 14.9423C18.3178 14.9423 18.7876 15.3451 18.871 15.8695L18.8915 15.9984L18.9036 16.0349L18.9037 16.0431L18.9038 16.0944C18.9038 16.3159 18.8361 16.5009 18.7475 16.6196L18.6983 16.6855L18.6562 16.7561C18.4973 17.0221 18.0076 17.5087 17.5702 17.8501L17.5554 17.8617L17.5408 17.8737Z" fill="#1A1A1A"/>
</svg>
