<svg width="534" height="358" viewBox="0 0 534 358" fill="none" xmlns="http://www.w3.org/2000/svg">
<path d="M304.688 0.000860858C311.887 0.000843438 318.672 -0.0388355 324.34 0.424038C328.796 0.78816 333.687 1.52965 338.675 3.30693L343.674 5.44927L347.138 7.38001C354.983 12.1937 361.371 19.1025 365.573 27.3487L367.715 32.3475C369.493 37.3348 370.234 42.2259 370.598 46.6826C371.061 52.3503 371.021 59.1348 371.021 66.3339V104.261C371.021 116.975 360.725 127.271 348.011 127.271C335.297 127.271 325.001 116.975 325.001 104.261V66.3339C325.001 58.3836 324.984 53.7972 324.71 50.4383C324.602 49.1206 324.44 48.3653 324.366 48.005C324.022 47.4385 323.561 46.9691 322.991 46.6297C322.619 46.5554 321.865 46.417 320.584 46.3123C317.225 46.0385 312.638 46.0214 304.688 46.0214H208.548V379.168H293.844L296.198 379.273C307.807 380.452 316.855 390.258 316.855 402.178C316.855 414.097 307.807 423.903 296.198 425.082L293.844 425.188H77.1778C64.4637 425.188 54.1675 414.892 54.1675 402.178C54.1675 389.464 64.4637 379.168 77.1778 379.168H162.501V46.0214H66.3339C58.3836 46.0214 53.7972 46.0385 50.4383 46.3123C49.1268 46.4195 48.3673 46.5561 48.005 46.6297C47.4395 46.9708 46.9708 47.4395 46.6297 48.005C46.5561 48.3673 46.4195 49.1268 46.3123 50.4383C46.0385 53.7972 46.0214 58.3836 46.0214 66.3339V104.261L45.9156 106.615C44.7367 118.223 34.9306 127.271 23.0111 127.271C11.0921 127.271 1.28549 118.223 0.106655 106.615L0.000860857 104.261V66.3339C0.0008403 59.1348 -0.0388965 52.3503 0.424038 46.6826C0.909337 40.7434 2.04496 34.0307 5.44927 27.3487L7.38001 23.8839C12.1938 16.0389 19.1023 9.65109 27.3487 5.44927L32.3475 3.30693C37.3349 1.52949 42.2258 0.788208 46.6826 0.424038C52.3503 -0.0388965 59.1348 0.000840297 66.3339 0.000860858H304.688Z" fill="var(------icon_allwhite_primary, white)"/>
<path d="M487.395 180.909C491.06 180.909 495.205 180.882 498.768 181.174C501.642 181.409 505.259 181.909 509.136 183.289L513.077 184.982L515.669 186.437C520.687 189.517 524.912 193.745 527.994 198.762L529.448 201.354L531.141 205.295C532.521 209.168 533.021 212.789 533.257 215.662C533.548 219.223 533.548 223.373 533.548 227.035V245.073C533.548 257.787 523.225 268.11 510.511 268.11C497.799 268.108 487.501 257.786 487.501 245.073V227.035L487.474 226.93H448.225V379.168H483.428L485.782 379.273C497.39 380.452 506.438 390.258 506.438 402.178C506.438 414.097 497.39 423.903 485.782 425.082L483.428 425.188H375.094C362.38 425.188 352.084 414.892 352.084 402.178C352.084 389.464 362.38 379.168 375.094 379.168H402.178V226.93H363.96V245.073L363.854 247.427C362.681 259.041 352.873 268.11 340.949 268.11C329.026 268.11 319.218 259.041 318.045 247.427L317.939 245.073V227.035L317.966 221.322C317.997 219.385 318.058 217.444 318.204 215.662C318.518 211.832 319.3 206.677 322.012 201.354L323.467 198.762C327.066 192.903 332.223 188.121 338.384 184.982L342.325 183.289C346.201 181.909 349.818 181.409 352.693 181.174C356.256 180.882 360.401 180.909 364.065 180.909H487.395Z" fill="var(------icon_allwhite_primary, white)"/>
</svg>
