<svg width="16" height="16" viewBox="0 0 16 16" fill="none" xmlns="http://www.w3.org/2000/svg">
<path fill-rule="evenodd" clip-rule="evenodd" d="M4.10005 4.13862C4.12113 2.64108 5.34167 1.43359 6.84422 1.43359H10.2908C10.9235 1.43359 11.4329 1.43358 11.8451 1.46727C12.2692 1.50192 12.6402 1.57503 12.983 1.74968C13.5287 2.02771 13.9723 2.47135 14.2504 3.01702C14.425 3.35978 14.4981 3.73079 14.5328 4.15492C14.5664 4.56715 14.5664 5.07648 14.5664 5.70921V9.15582C14.5664 10.6584 13.359 11.8789 11.8614 11.9C11.825 12.3016 11.7508 12.6555 11.5837 12.9835C11.3057 13.5292 10.862 13.9728 10.3163 14.2508C9.97358 14.4255 9.60258 14.4986 9.17845 14.5333C8.76621 14.5669 8.25689 14.5669 7.62415 14.5669H5.70878C5.07605 14.5669 4.56667 14.5669 4.15443 14.5333C3.7303 14.4986 3.3593 14.4255 3.01653 14.2508C2.47086 13.9728 2.02722 13.5292 1.74919 12.9835C1.57454 12.6407 1.50143 12.2697 1.46678 11.8456C1.4331 11.4334 1.4331 10.924 1.43311 10.2913V8.37593C1.4331 7.74318 1.4331 7.23383 1.46678 6.82159C1.50143 6.39746 1.57454 6.02645 1.74919 5.68369C2.02722 5.13802 2.47086 4.69437 3.01653 4.41634C3.34457 4.2492 3.69847 4.17506 4.10005 4.13862ZM10.2664 2.56693C10.9292 2.56693 11.3922 2.56737 11.7528 2.59684C12.1069 2.62576 12.3121 2.67981 12.4685 2.75948C12.8009 2.92886 13.0712 3.19912 13.2406 3.53154C13.3202 3.68791 13.3743 3.89317 13.4032 4.24721C13.4327 4.60787 13.4331 5.07085 13.4331 5.73359V9.15582C13.4331 10.0197 12.7531 10.7248 11.8992 10.7651C11.8998 10.6154 11.8998 10.4576 11.8998 10.2913V8.37593C11.8998 7.74318 11.8998 7.23383 11.8661 6.82159C11.8314 6.39746 11.7583 6.02645 11.5837 5.68369C11.3057 5.13802 10.862 4.69437 10.3163 4.41634C9.97358 4.2417 9.60258 4.16859 9.17845 4.13393C8.7662 4.10025 8.25686 4.10026 7.62412 4.10026H5.70877C5.54246 4.10026 5.38466 4.10026 5.23492 4.10087C5.27519 3.24691 5.9803 2.56693 6.84422 2.56693H10.2664ZM3.53106 5.42615C3.68742 5.34648 3.89268 5.29243 4.24672 5.2635C4.60738 5.23404 5.07036 5.23359 5.73311 5.23359H7.59977C8.26252 5.23359 8.7255 5.23404 9.08616 5.2635C9.4402 5.29243 9.64546 5.34648 9.80182 5.42615C10.1342 5.59553 10.4045 5.86579 10.5739 6.19821C10.6536 6.35458 10.7076 6.55983 10.7365 6.91388C10.766 7.27454 10.7664 7.73752 10.7664 8.40026V10.2669C10.7664 10.9297 10.766 11.3927 10.7365 11.7533C10.7076 12.1074 10.6536 12.3126 10.5739 12.469C10.4045 12.8014 10.1342 13.0717 9.80182 13.241C9.64546 13.3207 9.4402 13.3748 9.08616 13.4037C8.7255 13.4332 8.26252 13.4336 7.59977 13.4336H5.73311C5.07036 13.4336 4.60738 13.4332 4.24672 13.4037C3.89268 13.3748 3.68742 13.3207 3.53106 13.241C3.19864 13.0717 2.92837 12.8014 2.75899 12.469C2.67932 12.3126 2.62527 12.1074 2.59635 11.7533C2.56688 11.3927 2.56644 10.9297 2.56644 10.2669V8.40026C2.56644 7.73752 2.56688 7.27454 2.59635 6.91388C2.62527 6.55983 2.67932 6.35458 2.75899 6.19821C2.92837 5.86579 3.19864 5.59553 3.53106 5.42615Z" fill="var(------icon_primary_light, #6B6B70)"/>
</svg>
