<svg width="20" height="20" viewBox="0 0 20 20" fill="none" xmlns="http://www.w3.org/2000/svg">
<g clip-path="url(#clip0_3463_4194)">
<path d="M5.24033 20.0055H14.7584C16.5531 20.0055 17.4505 20.0055 18.0081 19.4479C18.5656 18.8904 18.5656 17.993 18.5656 16.1983V5.25069C18.5656 4.53969 18.5656 4.18419 18.4428 3.85909C18.32 3.534 18.085 3.26727 17.615 2.73381L17.615 2.73379L16.3586 1.3079C15.799 0.672712 15.5192 0.35512 15.1455 0.186349C14.7719 0.0175781 14.3486 0.0175781 13.502 0.0175781H5.24033C3.44559 0.0175781 2.54822 0.0175781 1.99066 0.575133C1.43311 1.13269 1.43311 2.03006 1.43311 3.8248V16.1983C1.43311 17.993 1.43311 18.8904 1.99066 19.4479C2.54822 20.0055 3.44559 20.0055 5.24033 20.0055Z" fill="#FCFCFC"/>
<path opacity="0.4" d="M13.5024 0.0175781C13.7958 0.0175781 14.0383 0.0202837 14.2456 0.0273438C14.3186 0.0291054 14.3869 0.0317911 14.4507 0.0361328C14.7341 0.0558373 14.9472 0.0967119 15.146 0.186523C15.5194 0.355344 15.7995 0.672714 16.3589 1.30762L17.6147 2.7334C18.0848 3.26686 18.3201 3.53428 18.4429 3.85938C18.5656 4.1844 18.5659 4.54017 18.5659 5.25098V16.1982L18.5571 17.3848C18.531 18.4205 18.4265 19.0301 18.0083 19.4482L17.8989 19.5459C17.3343 20.0052 16.4407 20.0059 14.7583 20.0059H5.24072L4.0542 19.9971C3.10444 19.9731 2.51321 19.883 2.09912 19.5459L1.99072 19.4482C1.43317 18.8907 1.43311 17.993 1.43311 16.1982V3.8252C1.43311 2.14271 1.43275 1.24817 1.89209 0.683594L1.99072 0.575195C2.40894 0.156978 3.01829 0.0524866 4.0542 0.0263672L5.24072 0.0175781H13.5024ZM5.24072 0.288086C4.33592 0.288086 3.68408 0.288815 3.18799 0.355469C2.69964 0.421125 2.4022 0.546532 2.18213 0.766602C1.96206 0.986671 1.83665 1.28411 1.771 1.77246C1.70434 2.26855 1.70361 2.9204 1.70361 3.8252V16.1982C1.70361 17.1033 1.70429 17.7548 1.771 18.251C1.83665 18.7393 1.96206 19.0368 2.18213 19.2568C2.40218 19.4768 2.69978 19.6014 3.18799 19.667C3.68409 19.7337 4.33587 19.7344 5.24072 19.7344H14.7583C15.6633 19.7344 16.3149 19.7337 16.811 19.667C17.2994 19.6013 17.5968 19.4769 17.8169 19.2568C18.037 19.0368 18.1614 18.7393 18.2271 18.251C18.2938 17.7548 18.2944 17.1033 18.2944 16.1982V7.17969H18.2876V5.21484C18.2876 4.90509 18.2868 4.68487 18.2661 4.5166C18.2457 4.35154 18.2072 4.25387 18.144 4.18164C18.1271 4.16224 18.1088 4.14392 18.0894 4.12695C18.0171 4.06387 17.9204 4.02526 17.7554 4.00488C17.587 3.98411 17.3664 3.98437 17.0562 3.98438C16.6506 3.98438 16.3338 3.98471 16.0854 3.9541C15.8338 3.92306 15.6333 3.85833 15.4702 3.71582C15.4336 3.68383 15.3997 3.64891 15.3677 3.6123C15.2252 3.44919 15.1604 3.24872 15.1294 2.99707C15.0988 2.74873 15.0991 2.43175 15.0991 2.02637V1.58789C15.0991 1.24767 15.0984 1.0055 15.0737 0.822266C15.0496 0.643227 15.0043 0.539955 14.9292 0.464844C14.8541 0.389774 14.7509 0.344422 14.5718 0.320312C14.3885 0.295677 14.1464 0.295898 13.8062 0.295898H11.9028V0.288086H5.24072ZM15.3022 0.599609C15.3189 0.658097 15.3333 0.719807 15.3423 0.786133C15.3699 0.9916 15.3696 1.25531 15.3696 1.58789V2.02637C15.3696 2.43863 15.3699 2.73596 15.3979 2.96387C15.4256 3.18829 15.4785 3.32776 15.5708 3.43359C15.5949 3.4612 15.6213 3.4876 15.6489 3.51172C15.7548 3.60419 15.894 3.65686 16.1187 3.68457C16.3466 3.71266 16.6437 3.71289 17.0562 3.71289C17.3594 3.71289 17.5998 3.71304 17.7886 3.73633C17.9194 3.75248 18.0333 3.78285 18.1343 3.83496C18.0544 3.67737 17.9326 3.51434 17.7231 3.26953L17.4116 2.91309L16.1558 1.4873C15.7526 1.02972 15.5143 0.765266 15.3022 0.599609Z" fill="#F0544C"/>
<path fill-rule="evenodd" clip-rule="evenodd" d="M14.5958 12.617L14.9158 11.5802C12.2292 10.7509 10.3217 8.45826 10.3217 6.1875H8.5171L8.51711 6.19388C8.5171 7.26297 8.26251 8.70115 7.73624 10.1209C7.209 11.5433 6.43813 12.8688 5.4624 13.7731L5.46766 13.7787C5.46668 13.7795 5.4657 13.7802 5.46472 13.7809L6.54044 15.2298C7.67726 14.3858 9.31135 13.8072 10.8922 13.4948C11.6732 13.3404 12.4166 13.2559 13.0451 13.2329C13.6905 13.2093 14.1566 13.2529 14.4103 13.3198L14.5958 12.617ZM11.2525 11.5994C10.6586 11.1016 10.1368 10.5311 9.71251 9.9064C9.62666 10.1874 9.53189 10.4687 9.42833 10.7481C9.25286 11.2215 9.04955 11.6963 8.81743 12.1604C9.39859 11.9793 9.98168 11.8352 10.5423 11.7244C10.7817 11.6771 11.019 11.6355 11.2525 11.5994Z" fill="#F0544C"/>
</g>
<defs>
<clipPath id="clip0_3463_4194">
<rect width="20" height="20" fill="white"/>
</clipPath>
</defs>
</svg>
