<svg width="24" height="24" viewBox="0 0 24 24" fill="none" xmlns="http://www.w3.org/2000/svg">
<path d="M10.3115 3.22868C10.4232 2.77283 10.883 2.49407 11.3389 2.60563C11.7947 2.71734 12.0735 3.1771 11.9619 3.63297L10.0322 11.5177C10.8868 11.7801 11.6888 12.0997 12.4189 12.4836C12.502 12.5272 12.5827 12.5749 12.6641 12.6203L12.5596 13.1115L12.668 13.133L11.208 20.7677C11.1197 21.2285 10.6747 21.5314 10.2139 21.4435C9.75292 21.3554 9.45019 20.9093 9.53809 20.4484L9.56445 20.3127H6.21875C4.09245 20.3127 2.36914 18.5884 2.36914 16.4621V7.19352C2.3694 5.06744 4.09261 3.34391 6.21875 3.34391H10.2832L10.3115 3.22868ZM17.7783 3.34391C19.9043 3.34407 21.6277 5.06754 21.6279 7.19352V16.4621C21.6279 18.5883 19.9045 20.3125 17.7783 20.3127H12.5967L12.9609 18.6125H14.959C14.8983 17.3782 14.4323 16.3326 13.6221 15.4631L14.0312 13.5363C15.5752 14.7809 16.5793 16.4615 16.6592 18.6125H17.7783C18.9656 18.6123 19.9277 17.6494 19.9277 16.4621V7.19352C19.9275 6.00643 18.9654 5.04329 17.7783 5.04313H12.9385L13.3311 3.34391H17.7783ZM4.06836 16.4621C4.06836 17.6495 5.03134 18.6125 6.21875 18.6125H9.88965L10.8438 13.6183C8.98206 12.824 6.62548 12.3881 4.06836 12.3097V16.4621ZM15.8799 6.87907C17.1308 7.0064 18.1074 8.06334 18.1074 9.34782L18.0938 9.60172C17.9663 10.8524 16.9102 11.8291 15.626 11.8293L15.3721 11.8156C14.2046 11.697 13.2761 10.7691 13.1572 9.60172L13.1445 9.34782C13.1445 7.97749 14.2556 6.86637 15.626 6.86637L15.8799 6.87907ZM6.21875 5.04313C5.0315 5.04313 4.06862 6.00633 4.06836 7.19352V10.6105C5.5615 10.6535 7.02043 10.812 8.38574 11.0968L9.86719 5.04313H6.21875ZM15.626 8.56657C15.1945 8.56657 14.8447 8.91637 14.8447 9.34782C14.845 9.77901 15.1947 10.1291 15.626 10.1291C16.0571 10.1289 16.4069 9.77889 16.4072 9.34782C16.4072 8.91649 16.0573 8.56676 15.626 8.56657Z" fill="var(------icon_tertiary, #CCCCCE)"/>
</svg>
