<svg width="24" height="24" viewBox="0 0 24 24" fill="none" xmlns="http://www.w3.org/2000/svg">
<g clip-path="url(#paint0_angular_3463_3520_clip_path)" data-figma-skip-parse="true"><g transform="matrix(0.0096 0 0 0.0096 11.9999 12.0004)"><foreignObject x="-1000" y="-1000" width="2000" height="2000"><div xmlns="http://www.w3.org/1999/xhtml" style="background:conic-gradient(from 90deg,rgba(153, 153, 153, 0.9045) 0deg,rgba(153, 153, 153, 1) 16.6436deg,rgba(153, 153, 153, 0.16) 230.182deg,rgba(153, 153, 153, 0.9045) 360deg);height:100%;width:100%;opacity:1"></div></foreignObject></g></g><path d="M11.9995 2.40039C17.3013 2.40039 21.5999 6.69825 21.6001 12C21.6001 17.3019 17.3014 21.6006 11.9995 21.6006C6.69776 21.6004 2.3999 17.3018 2.3999 12C2.40011 11.4384 2.85582 10.9834 3.41748 10.9834C3.97898 10.9836 4.43387 11.4385 4.43408 12C4.43408 16.1782 7.82135 19.5662 11.9995 19.5664C16.1779 19.5664 19.5659 16.1783 19.5659 12C19.5657 7.82183 16.1777 4.43457 11.9995 4.43457C11.438 4.43436 10.9831 3.97947 10.9829 3.41797C10.9829 2.8563 11.4379 2.4006 11.9995 2.40039ZM4.18018 6.43555C4.50611 5.97847 5.14075 5.87181 5.59814 6.19727C6.0557 6.52323 6.16239 7.15865 5.83643 7.61621C5.65859 7.86585 5.49634 8.12624 5.3501 8.39551C5.08199 8.8892 4.46391 9.07279 3.97021 8.80469C3.47665 8.53653 3.29394 7.91844 3.56201 7.4248C3.7477 7.08288 3.95449 6.75234 4.18018 6.43555ZM8.07568 3.2373C8.58825 3.00733 9.19043 3.23646 9.42041 3.74902C9.65038 4.26157 9.42122 4.86376 8.90869 5.09375C8.6149 5.22556 8.32967 5.37574 8.05518 5.54395C7.57622 5.83747 6.94935 5.68788 6.65576 5.20898C6.36224 4.73004 6.51282 4.10316 6.9917 3.80957C7.34022 3.59598 7.7024 3.40479 8.07568 3.2373Z" data-figma-gradient-fill="{&#34;type&#34;:&#34;GRADIENT_ANGULAR&#34;,&#34;stops&#34;:[{&#34;color&#34;:{&#34;r&#34;:0.60000002384185791,&#34;g&#34;:0.60000002384185791,&#34;b&#34;:0.60000002384185791,&#34;a&#34;:1.0},&#34;position&#34;:0.046232271939516068},{&#34;color&#34;:{&#34;r&#34;:0.60000002384185791,&#34;g&#34;:0.60000002384185791,&#34;b&#34;:0.60000002384185791,&#34;a&#34;:0.15999999642372131},&#34;position&#34;:0.63939577341079712}],&#34;stopsVar&#34;:[],&#34;transform&#34;:{&#34;m00&#34;:19.200000762939453,&#34;m01&#34;:0.0,&#34;m02&#34;:2.399902343750,&#34;m10&#34;:0.0,&#34;m11&#34;:19.200000762939453,&#34;m12&#34;:2.4003906250},&#34;opacity&#34;:1.0,&#34;blendMode&#34;:&#34;NORMAL&#34;,&#34;visible&#34;:true}"/>
<defs>
<clipPath id="paint0_angular_3463_3520_clip_path"><path d="M11.9995 2.40039C17.3013 2.40039 21.5999 6.69825 21.6001 12C21.6001 17.3019 17.3014 21.6006 11.9995 21.6006C6.69776 21.6004 2.3999 17.3018 2.3999 12C2.40011 11.4384 2.85582 10.9834 3.41748 10.9834C3.97898 10.9836 4.43387 11.4385 4.43408 12C4.43408 16.1782 7.82135 19.5662 11.9995 19.5664C16.1779 19.5664 19.5659 16.1783 19.5659 12C19.5657 7.82183 16.1777 4.43457 11.9995 4.43457C11.438 4.43436 10.9831 3.97947 10.9829 3.41797C10.9829 2.8563 11.4379 2.4006 11.9995 2.40039ZM4.18018 6.43555C4.50611 5.97847 5.14075 5.87181 5.59814 6.19727C6.0557 6.52323 6.16239 7.15865 5.83643 7.61621C5.65859 7.86585 5.49634 8.12624 5.3501 8.39551C5.08199 8.8892 4.46391 9.07279 3.97021 8.80469C3.47665 8.53653 3.29394 7.91844 3.56201 7.4248C3.7477 7.08288 3.95449 6.75234 4.18018 6.43555ZM8.07568 3.2373C8.58825 3.00733 9.19043 3.23646 9.42041 3.74902C9.65038 4.26157 9.42122 4.86376 8.90869 5.09375C8.6149 5.22556 8.32967 5.37574 8.05518 5.54395C7.57622 5.83747 6.94935 5.68788 6.65576 5.20898C6.36224 4.73004 6.51282 4.10316 6.9917 3.80957C7.34022 3.59598 7.7024 3.40479 8.07568 3.2373Z"/></clipPath></defs>
</svg>
