<svg width="30" height="30" viewBox="0 0 30 30" fill="none" xmlns="http://www.w3.org/2000/svg">
<path fill-rule="evenodd" clip-rule="evenodd" d="M18.7929 9.79289C19.1834 9.40237 19.8164 9.40237 20.207 9.79289C20.5975 10.1834 20.5975 10.8164 20.207 11.207L16.414 14.9999L20.207 18.7929C20.5975 19.1834 20.5975 19.8164 20.207 20.207C19.8164 20.5975 19.1834 20.5975 18.7929 20.207L14.9999 16.414L11.207 20.207C10.8164 20.5975 10.1834 20.5975 9.79289 20.207C9.40237 19.8164 9.40237 19.1834 9.79289 18.7929L13.5859 14.9999L9.79289 11.207C9.40237 10.8164 9.40237 10.1834 9.79289 9.79289C10.1834 9.40237 10.8164 9.40237 11.207 9.79289L14.9999 13.5859L18.7929 9.79289Z" fill="var(------overlay_surface_fg, black)" fill-opacity="0.6"/>
</svg>
