<svg width="24" height="24" viewBox="0 0 24 24" fill="none" xmlns="http://www.w3.org/2000/svg">
<path d="M7.57133 4.3499C6.62061 4.3499 5.8499 5.12061 5.8499 6.07133V15.0028C6.24124 14.8151 6.67972 14.71 7.14276 14.71H7.23091C7.32817 14.6712 7.43428 14.6499 7.54536 14.6499H16.4285C17.3792 14.6499 18.1499 13.8792 18.1499 12.9285V11.4999C18.1499 11.0305 18.5305 10.6499 18.9999 10.6499C19.4693 10.6499 19.8499 11.0305 19.8499 11.4999V12.9285C19.8499 14.6859 18.525 16.1338 16.8195 16.3278C16.7089 16.3805 16.5851 16.41 16.4544 16.41H7.14276C6.42873 16.41 5.8499 16.9888 5.8499 17.7028V18.4171C5.8499 19.1311 6.42873 19.71 7.14276 19.71H18.9999C19.4693 19.71 19.8499 20.0905 19.8499 20.56C19.8499 21.0294 19.4693 21.41 18.9999 21.41H7.14276C5.54918 21.41 4.2465 20.1645 4.15503 18.5938C4.15164 18.563 4.1499 18.5317 4.1499 18.4999V6.07133C4.1499 4.18173 5.68173 2.6499 7.57133 2.6499H12.4241C12.8936 2.6499 13.2741 3.03046 13.2741 3.4999C13.2741 3.96934 12.8936 4.3499 12.4241 4.3499H7.57133Z" fill="#1A1A1A"/>
<path d="M17.6892 4.67194C17.7047 4.67182 17.7203 4.66929 17.7354 4.66425L20.8299 3.63267C20.8524 3.62516 20.8745 3.62172 20.8957 3.62174C21.0491 3.62152 21.1565 3.80302 21.0545 3.94119L19.1172 6.56535C19.0882 6.60463 19.0801 6.65556 19.0955 6.70188L20.1271 9.79626C20.1742 9.93748 20.0616 10.061 19.9358 10.0604C19.8964 10.0604 19.8556 10.0481 19.8181 10.0204L17.2038 8.09037C17.1777 8.07112 17.1467 8.06119 17.1154 8.06104C17.0933 8.06101 17.0711 8.06584 17.0505 8.0757L12.1526 10.4161C12.122 10.4308 12.0917 10.4372 12.0631 10.4372C11.9037 10.4371 11.7912 10.2344 11.9209 10.0979L15.6603 6.16304C15.6985 6.12285 15.7114 6.06487 15.6939 6.01227L14.6662 2.92947C14.6192 2.78857 14.7312 2.66525 14.8567 2.66528C14.8964 2.66519 14.9374 2.67742 14.9752 2.70532L17.5994 4.64262C17.6257 4.66205 17.6573 4.67209 17.6892 4.67194Z" fill="#1A1A1A"/>
</svg>
