<svg width="24" height="24" viewBox="0 0 24 24" fill="none" xmlns="http://www.w3.org/2000/svg">
<path d="M5.80943 2.60254C5.86836 2.41634 6.13185 2.41634 6.19078 2.60254L6.93827 4.96419C6.953 5.01074 6.98947 5.04721 7.03601 5.06194L9.39767 5.80943C9.58387 5.86836 9.58387 6.13185 9.39767 6.19078L7.03602 6.93827C6.98947 6.953 6.953 6.98947 6.93827 7.03601L6.19078 9.39767C6.13185 9.58387 5.86836 9.58387 5.80943 9.39767L5.06194 7.03602C5.04721 6.98947 5.01074 6.953 4.96419 6.93827L2.60254 6.19078C2.41634 6.13185 2.41634 5.86836 2.60254 5.80943L4.96419 5.06194C5.01074 5.04721 5.04721 5.01074 5.06194 4.96419L5.80943 2.60254Z" fill="#1A1A1A"/>
<path fill-rule="evenodd" clip-rule="evenodd" d="M15.444 4.73303C16.3131 3.86395 17.7221 3.86395 18.5912 4.73303L20.6483 6.79017C21.5174 7.65925 21.5174 9.0683 20.6483 9.93738L11.4946 19.0911C11.2245 19.3612 10.8893 19.5573 10.5215 19.6604L7.66351 20.4612C5.99213 20.9295 4.45184 19.3892 4.92018 17.7178L5.721 14.8599C5.82408 14.492 6.02013 14.1569 6.29027 13.8867L15.444 4.73303ZM17.3891 5.93511C17.1839 5.72992 16.8512 5.72992 16.6461 5.93511L14.6596 7.92156L17.4598 10.7218L19.4462 8.7353C19.6514 8.53011 19.6514 8.19744 19.4462 7.99225L17.3891 5.93511ZM16.2577 11.9238L13.4575 9.12365L7.49235 15.0888C7.42857 15.1526 7.38229 15.2317 7.35795 15.3186L6.55713 18.1765C6.44656 18.5711 6.81021 18.9348 7.20482 18.8242L10.0628 18.0234C10.1496 17.9991 10.2288 17.9528 10.2925 17.889L16.2577 11.9238Z" fill="#1A1A1A"/>
</svg>
