<svg width="24" height="24" viewBox="0 0 24 24" fill="none" xmlns="http://www.w3.org/2000/svg">
<path fill-rule="evenodd" clip-rule="evenodd" d="M12.2284 3.53301C11.5933 3.53301 11.0784 4.04788 11.0784 4.68301V7.91016C11.0784 8.3796 10.6979 8.76016 10.2284 8.76016H7.27042C6.62868 8.76016 6.09435 9.29125 6.09239 9.95435C6.0911 10.3893 6.08705 10.9076 6.07838 11.4721H19.3784V9.91016C19.3784 9.27503 18.8636 8.76016 18.2284 8.76016H14.7284C14.259 8.76016 13.8784 8.3796 13.8784 7.91016V4.68301C13.8784 4.04788 13.3636 3.53301 12.7284 3.53301L12.2284 3.53301ZM19.3784 13.1721H6.03966C6.02663 13.5944 6.01063 14.0218 5.99108 14.4427C5.91762 16.0242 5.79032 17.6361 5.545 18.4848C5.36452 19.1092 5.06547 19.8479 4.80357 20.448C5.91234 20.448 7.02417 20.448 8.13759 20.4481C8.13774 20.4479 8.13788 20.4478 8.13802 20.4476C8.28186 20.2876 8.47369 20.0578 8.6643 19.7811C9.06214 19.2037 9.37843 18.5316 9.37843 17.9102V16.7342C9.37843 16.2648 9.75899 15.8842 10.2284 15.8842C10.6979 15.8842 11.0784 16.2648 11.0784 16.7342V17.9102C11.0784 18.891 10.6706 19.7862 10.2591 20.4482C11.1825 20.4482 12.1064 20.4483 13.0299 20.4483C13.1167 20.2981 13.2191 20.1081 13.3214 19.8894C13.5931 19.3086 13.8324 18.5926 13.8324 17.9102V15.8024C13.8324 15.333 14.213 14.9524 14.6824 14.9524C15.1519 14.9524 15.5324 15.333 15.5324 15.8024V17.9102C15.5324 18.8699 15.2323 19.7774 14.9348 20.4483C15.3664 20.4483 15.7979 20.4483 16.229 20.4483C17.9684 20.4482 19.3784 19.0381 19.3784 17.2985V13.1721ZM9.37842 4.68301C9.37842 3.109 10.6544 1.83301 12.2284 1.83301L12.7284 1.83301C14.3024 1.83301 15.5784 3.109 15.5784 4.68301V7.06016H18.2284C19.8024 7.06016 21.0784 8.33615 21.0784 9.91016V17.2985C21.0784 19.9768 18.9075 22.1482 16.2291 22.1483C13.8405 22.1484 11.4432 22.1482 9.05147 22.1481C7.45703 22.1481 5.8651 22.148 4.27998 22.148C3.27381 22.1479 2.64159 21.1023 3.0448 20.2176C3.33556 19.5797 3.71729 18.6859 3.91186 18.0128C4.09084 17.3936 4.21715 15.9949 4.29291 14.3639C4.36673 12.7747 4.38905 11.0809 4.3924 9.94932C4.39707 8.37074 5.67046 7.06016 7.27042 7.06016H9.37842V4.68301Z" fill="#1A1A1A"/>
</svg>
