<svg width="24" height="24" viewBox="0 0 24 24" fill="none" xmlns="http://www.w3.org/2000/svg">
<path fill-rule="evenodd" clip-rule="evenodd" d="M8.73453 6.85003C9.18837 6.85003 9.59102 7.14116 9.73324 7.57214L11.6461 13.3688H5.82292L7.73581 7.57214C7.87804 7.14116 8.28069 6.85003 8.73453 6.85003ZM13.4274 18.7664L12.2071 15.0688H5.38295C5.3428 15.0688 5.30329 15.066 5.26461 15.0606L4.0417 18.7664C3.89458 19.2122 3.41393 19.4543 2.96814 19.3072C2.52234 19.1601 2.28021 18.6795 2.42732 18.2337L6.12144 7.0394C6.49356 5.91176 7.54707 5.15002 8.73453 5.15002C9.92198 5.15002 10.9755 5.91176 11.3476 7.0394L15.0417 18.2337C15.1888 18.6795 14.9467 19.1601 14.5009 19.3072C14.0551 19.4543 13.5745 19.2122 13.4274 18.7664ZM15.2405 15.0707H18.6052C18.7117 15.0707 18.8137 15.0511 18.9076 15.0154L20.1461 18.7683C20.2932 19.2141 20.7738 19.4563 21.2196 19.3092C21.6654 19.162 21.9076 18.6814 21.7604 18.2356L18.0663 7.04133C17.6942 5.91369 16.6407 5.15196 15.4532 5.15196C14.2658 5.15196 13.2123 5.91369 12.8402 7.04133L12.7425 7.33736L13.628 10.0788L14.4545 7.57407C14.5968 7.14309 14.9994 6.85196 15.4532 6.85196C15.9071 6.85196 16.3097 7.14309 16.452 7.57407L18.3648 13.3707H14.6913L15.2405 15.0707Z" fill="#1A1A1A"/>
</svg>
