<svg width="24" height="24" viewBox="0 0 24 24" fill="none" xmlns="http://www.w3.org/2000/svg">
<path fill-rule="evenodd" clip-rule="evenodd" d="M19.4845 5.84532L18.9405 7.2616C18.8324 7.54284 18.4345 7.54284 18.3265 7.2616L17.7299 5.70873L16.1771 5.11222C15.8958 5.00418 15.8958 4.60628 16.1771 4.49825L17.7299 3.90173L18.3265 2.34887C18.4345 2.06763 18.8324 2.06763 18.9405 2.34887L19.537 3.90173L21.0899 4.49825C21.3711 4.60628 21.3711 5.00418 21.0899 5.11222L19.6736 5.65626C19.5866 5.68967 19.5179 5.75837 19.4845 5.84532ZM3.85015 12.0002C3.85015 7.49908 7.49903 3.8502 12.0001 3.8502C12.6834 3.8502 13.3458 3.93409 13.9783 4.09171C14.4338 4.20524 14.8951 3.92801 15.0086 3.4725C15.1221 3.01699 14.8449 2.5557 14.3894 2.44217C13.6235 2.2513 12.8231 2.1502 12.0001 2.1502C6.56014 2.1502 2.15015 6.5602 2.15015 12.0002C2.15015 17.4402 6.56014 21.8502 12.0001 21.8502C17.4402 21.8502 21.8501 17.4402 21.8501 12.0002C21.8501 11.1802 21.7498 10.3825 21.5602 9.61921C21.4471 9.1636 20.986 8.88597 20.5304 8.9991C20.0748 9.11224 19.7972 9.57329 19.9103 10.0289C20.0669 10.6593 20.1501 11.3194 20.1501 12.0002C20.1501 16.5013 16.5013 20.1502 12.0001 20.1502C7.49903 20.1502 3.85015 16.5013 3.85015 12.0002ZM10.9375 8.32945C10.9261 8.55333 10.8609 8.7944 10.7066 9.03293C10.5519 9.27223 10.462 9.55683 10.462 9.86502C10.462 10.7131 11.1495 11.4006 11.9975 11.4006C12.8456 11.4006 13.5331 10.7131 13.5331 9.86502C13.5331 9.01695 12.8456 8.32945 11.9975 8.32945H10.9375ZM9.32598 6.75109C9.51882 6.63758 9.70168 6.62945 9.77793 6.62945H11.9975C13.7845 6.62945 15.2331 8.07806 15.2331 9.86502C15.2331 11.652 13.7845 13.1006 11.9975 13.1006C10.2106 13.1006 8.76196 11.652 8.76196 9.86502C8.76196 9.26912 8.92381 8.70882 9.20615 8.22809C9.1972 8.21319 9.18705 8.197 9.17505 8.17835L9.12982 8.10864L9.12038 8.09603L9.11839 8.09338C9.10703 8.07834 9.07029 8.0297 9.03739 7.97552C9.01918 7.94553 8.98664 7.88907 8.95848 7.81518C8.93507 7.75377 8.88122 7.59645 8.90579 7.39313C8.93678 7.13665 9.08338 6.8939 9.32598 6.75109ZM9.05407 16.9258C10.5401 14.992 13.4553 14.992 14.9413 16.9258C15.2274 17.2981 15.761 17.368 16.1333 17.0819C16.5055 16.7959 16.5754 16.2623 16.2893 15.89C14.1228 13.0706 9.87257 13.0706 7.70608 15.89C7.42004 16.2623 7.48993 16.7959 7.86216 17.0819C8.2344 17.368 8.76804 17.2981 9.05407 16.9258Z" fill="#1A1A1A"/>
</svg>
