<svg width="24" height="24" viewBox="0 0 24 24" fill="none" xmlns="http://www.w3.org/2000/svg">
<path d="M12 4C12.8284 4 13.5 3.32843 13.5 2.5C13.5 1.67157 12.8284 1 12 1C11.1716 1 10.5 1.67157 10.5 2.5C10.5 3.32843 11.1716 4 12 4Z" fill="#1A1A1A"/>
<path d="M10.5 12C10.5 12.8284 10.0523 13.5 9.5 13.5C8.94772 13.5 8.5 12.8284 8.5 12C8.5 11.1716 8.94772 10.5 9.5 10.5C10.0523 10.5 10.5 11.1716 10.5 12Z" fill="#1A1A1A"/>
<path d="M15.5 12C15.5 12.8284 15.0523 13.5 14.5 13.5C13.9477 13.5 13.5 12.8284 13.5 12C13.5 11.1716 13.9477 10.5 14.5 10.5C15.0523 10.5 15.5 11.1716 15.5 12Z" fill="#1A1A1A"/>
<path fill-rule="evenodd" clip-rule="evenodd" d="M12 4C16.9706 4 21 8.02944 21 13C21 17.9706 16.9706 22 12 22C7.02944 22 3 17.9706 3 13C3 8.02944 7.02944 4 12 4ZM9.14041 8C6.85373 8 5 9.79086 5 12C5 14.2091 6.85373 16 9.14041 16H14.8596C17.1463 16 19 14.2091 19 12C19 9.79086 17.1463 8 14.8596 8H9.14041Z" fill="#1A1A1A"/>
</svg>
