<svg width="24" height="24" viewBox="0 0 24 24" fill="none" xmlns="http://www.w3.org/2000/svg">
<path d="M14.0685 6.04598C13.2094 5.90739 12.4006 6.49145 12.262 7.35056C12.1234 8.20967 12.7075 9.01843 13.5666 9.15702C14.4257 9.29562 15.2345 8.71155 15.3731 7.85244C15.5117 6.99333 14.9276 6.18458 14.0685 6.04598Z" fill="#1A1A1A"/>
<path d="M8.85153 7.04297C7.99242 6.90437 7.18366 7.48844 7.04507 8.34755C6.90648 9.20666 7.49054 10.0154 8.34965 10.154C9.20876 10.2926 10.0175 9.70854 10.1561 8.84942C10.2947 7.99031 9.71064 7.18156 8.85153 7.04297Z" fill="#1A1A1A"/>
<path d="M8.50454 12.0431C7.64543 11.9045 6.83668 12.4886 6.69808 13.3477C6.55949 14.2068 7.14355 15.0156 8.00266 15.1542C8.86177 15.2928 9.67053 14.7087 9.80912 13.8496C9.94772 12.9905 9.36365 12.1817 8.50454 12.0431Z" fill="#1A1A1A"/>
<path fill-rule="evenodd" clip-rule="evenodd" d="M2.1499 11.9999C2.1499 6.5599 6.5599 2.1499 11.9999 2.1499C17.4399 2.1499 21.8499 6.5599 21.8499 11.9999C21.8499 13.1091 20.9995 13.9219 20.0286 14.0933L18.1201 14.4301C16.2369 14.7624 14.7624 16.2369 14.4301 18.1201L14.0933 20.0286C13.9219 20.9995 13.1091 21.8499 11.9999 21.8499C6.5599 21.8499 2.1499 17.4399 2.1499 11.9999ZM11.9999 3.8499C7.49878 3.8499 3.8499 7.49878 3.8499 11.9999C3.8499 16.501 7.49878 20.1499 11.9999 20.1499C12.164 20.1499 12.3692 20.0162 12.4191 19.7332L12.7559 17.8247C13.2124 15.2378 15.2378 13.2124 17.8247 12.7559L19.7332 12.4191C20.0162 12.3692 20.1499 12.164 20.1499 11.9999C20.1499 7.49878 16.501 3.8499 11.9999 3.8499Z" fill="#1A1A1A"/>
<path d="M18.8089 15.6025C18.8679 15.4163 19.1314 15.4163 19.1903 15.6025L19.9378 17.9642C19.9525 18.0107 19.989 18.0472 20.0355 18.0619L22.3972 18.8094C22.5834 18.8684 22.5834 19.1318 22.3972 19.1908L20.0355 19.9383C19.989 19.953 19.9525 19.9895 19.9378 20.036L19.1903 22.3977C19.1314 22.5839 18.8679 22.5839 18.8089 22.3977L18.0614 20.036C18.0467 19.9895 18.0103 19.953 17.9637 19.9383L15.6021 19.1908C15.4159 19.1318 15.4159 18.8684 15.6021 18.8094L17.9637 18.0619C18.0103 18.0472 18.0467 18.0107 18.0614 17.9642L18.8089 15.6025Z" fill="#1A1A1A"/>
</svg>
