<svg width="24" height="24" viewBox="0 0 24 24" fill="none" xmlns="http://www.w3.org/2000/svg">
<path d="M13.6143 1.91699C18.3237 1.91701 22.083 5.89198 22.083 10.7217C22.0828 14.5636 19.7111 17.8529 16.3721 19.0479C16.0292 19.1707 15.9333 19.4851 15.9951 19.6543C16.0155 19.7098 16.0365 19.7755 16.0537 19.8486C16.0669 19.9043 16.0876 19.9963 16.1035 20.0957C16.1162 20.1748 16.1398 20.3373 16.124 20.5C16.0182 21.5888 14.8342 22.4666 13.6533 21.9131L7.01855 18.8027C6.96366 18.7781 6.9088 18.7525 6.85449 18.7266C6.71198 18.6586 6.57161 18.5865 6.43359 18.5107L6.42285 18.5039L6.4209 18.5029C6.28882 18.43 6.15802 18.3532 6.03027 18.2734C3.55848 16.7298 1.91713 13.9188 1.91699 10.7217C1.91699 10.3813 1.9353 10.0447 1.97168 9.71387C2.40556 10.2076 2.93051 10.6197 3.52051 10.9229C3.5872 13.472 4.91477 15.6795 6.85645 16.9023L7.71289 17.3594L14.334 20.4639C14.3611 20.4765 14.3821 20.4797 14.3984 20.4785C14.415 20.4773 14.4322 20.4713 14.4521 20.459C14.4899 20.4357 14.5142 20.4011 14.5244 20.3691C14.5236 20.3634 14.5236 20.3568 14.5225 20.3496C14.5151 20.3036 14.5037 20.2533 14.4951 20.2168L14.4912 20.2061C14.0597 19.0303 14.8361 17.8978 15.833 17.541C18.5214 16.5789 20.4823 13.9022 20.4824 10.7217C20.4824 6.71061 17.3752 3.51761 13.6143 3.51758H10.4004C10.0458 2.93703 9.58112 2.43068 9.03613 2.02734C9.47505 1.95453 9.92611 1.91699 10.3857 1.91699H13.6143ZM5.07715 2.5C5.16958 2.11655 5.6834 2.04456 5.87793 2.3877L7.15332 4.6377L9.66699 5.24316C10.0503 5.3357 10.1224 5.84942 9.7793 6.04395L7.53027 7.31934L6.92383 9.83398C6.83115 10.2171 6.31756 10.2892 6.12305 9.94629L4.94043 7.86035C4.88109 7.75581 4.78091 7.68055 4.66406 7.65234L2.33301 7.09082C1.94976 6.99822 1.87764 6.48356 2.2207 6.28906L4.4707 5.01465L5.07715 2.5Z" fill="#1A1A1A"/>
</svg>
