<svg width="24" height="24" viewBox="0 0 24 24" fill="none" xmlns="http://www.w3.org/2000/svg">
<path fill-rule="evenodd" clip-rule="evenodd" d="M19.5898 4.29317L19.7083 4.41166C20.0839 4.78732 20.4017 5.10508 20.6409 5.38683C20.8916 5.68213 21.1055 5.99331 21.2282 6.37086C21.4141 6.94326 21.4141 7.55985 21.2282 8.13225C21.1055 8.5098 20.8916 8.82098 20.6409 9.11628C20.4017 9.39799 20.084 9.71571 19.7084 10.0913L19.5898 10.2099C19.2142 10.5856 18.8963 10.9034 18.6146 11.1426C18.3193 11.3933 18.0081 11.6072 17.6306 11.7298C17.0582 11.9158 16.4416 11.9158 15.8692 11.7298C15.4916 11.6072 15.1805 11.3933 14.8852 11.1426C14.6034 10.9034 14.2856 10.5856 13.91 10.2099L13.7915 10.0914C13.4158 9.71579 13.098 9.39803 12.8589 9.11628C12.6082 8.82098 12.3943 8.5098 12.2716 8.13225C12.0856 7.55985 12.0856 6.94326 12.2716 6.37086C12.3943 5.99331 12.6082 5.68213 12.8589 5.38683C13.098 5.10508 13.4158 4.78732 13.7915 4.41166L13.91 4.29317C14.2856 3.9175 14.6034 3.59972 14.8852 3.36053C15.1805 3.10984 15.4916 2.89595 15.8692 2.77328C16.4416 2.58729 17.0582 2.58729 17.6306 2.77328C18.0081 2.89595 18.3193 3.10984 18.6146 3.36053C18.8964 3.59972 19.2141 3.9175 19.5898 4.29317ZM17.5144 4.65651C17.2995 4.47408 17.1844 4.41578 17.1052 4.39007C16.8743 4.31503 16.6255 4.31503 16.3945 4.39007C16.3154 4.41578 16.2002 4.47408 15.9854 4.65651C15.7629 4.84537 15.4941 5.11321 15.0882 5.51914L15.0175 5.58985C14.6115 5.99579 14.3437 6.26456 14.1548 6.48704C13.9724 6.70192 13.9141 6.81708 13.8884 6.89619C13.8134 7.12716 13.8134 7.37596 13.8884 7.60693C13.9141 7.68603 13.9724 7.80119 14.1548 8.01608C14.3437 8.23855 14.6115 8.50732 15.0175 8.91326L15.0882 8.98397C15.4941 9.3899 15.7629 9.65774 15.9854 9.8466C16.2002 10.029 16.3154 10.0873 16.3945 10.113C16.6255 10.1881 16.8743 10.1881 17.1052 10.113C17.1844 10.0873 17.2995 10.029 17.5144 9.8466C17.7369 9.65774 18.0056 9.3899 18.4116 8.98397L18.4823 8.91326C18.8882 8.50732 19.1561 8.23855 19.3449 8.01608C19.5274 7.80119 19.5857 7.68603 19.6114 7.60693C19.6864 7.37596 19.6864 7.12716 19.6114 6.89619C19.5857 6.81708 19.5274 6.70192 19.3449 6.48704C19.1561 6.26456 18.8882 5.99579 18.4823 5.58985L18.4116 5.51914C18.0056 5.11321 17.7369 4.84537 17.5144 4.65651Z" fill="#1A1A1A"/>
<path fill-rule="evenodd" clip-rule="evenodd" d="M7.33369 3.15055H7.16612C6.63485 3.15053 6.18545 3.15052 5.81709 3.18062C5.43102 3.21216 5.05974 3.28095 4.70603 3.46118C4.16977 3.73442 3.73377 4.17041 3.46054 4.70667C3.28031 5.06038 3.21152 5.43166 3.17998 5.81773C3.14988 6.18609 3.14989 6.63548 3.1499 7.16673V7.33433C3.14989 7.86558 3.14988 8.315 3.17998 8.68336C3.21152 9.06943 3.28031 9.44071 3.46054 9.79442C3.73377 10.3307 4.16977 10.7667 4.70603 11.0399C5.05974 11.2201 5.43102 11.2889 5.81709 11.3205C6.18545 11.3506 6.63483 11.3506 7.16608 11.3505H7.3337C7.86495 11.3506 8.31436 11.3506 8.68272 11.3205C9.06879 11.2889 9.44007 11.2201 9.79378 11.0399C10.33 10.7667 10.766 10.3307 11.0393 9.79442C11.2195 9.44071 11.2883 9.06943 11.3198 8.68336C11.3499 8.315 11.3499 7.86562 11.3499 7.33437V7.16675C11.3499 6.6355 11.3499 6.18609 11.3198 5.81773C11.2883 5.43166 11.2195 5.06038 11.0393 4.70667C10.766 4.17041 10.33 3.73442 9.79378 3.46118C9.44007 3.28095 9.06879 3.21216 8.68272 3.18062C8.31435 3.15052 7.86495 3.15053 7.33369 3.15055ZM5.47781 4.97589C5.55193 4.93813 5.67459 4.89792 5.95552 4.87497C6.24639 4.85121 6.62583 4.85055 7.1999 4.85055H7.2999C7.87398 4.85055 8.25342 4.85121 8.54428 4.87497C8.82522 4.89792 8.94788 4.93813 9.02199 4.97589C9.23838 5.08614 9.41431 5.26207 9.52456 5.47846C9.56232 5.55257 9.60253 5.67523 9.62548 5.95617C9.64924 6.24703 9.6499 6.62647 9.6499 7.20055V7.30055C9.6499 7.87462 9.64924 8.25406 9.62548 8.54492C9.60253 8.82586 9.56232 8.94852 9.52456 9.02263C9.41431 9.23902 9.23838 9.41495 9.02199 9.5252C8.94788 9.56297 8.82522 9.60317 8.54428 9.62612C8.25342 9.64988 7.87398 9.65055 7.2999 9.65055H7.1999C6.62583 9.65055 6.24639 9.64988 5.95552 9.62612C5.67459 9.60317 5.55193 9.56297 5.47781 9.5252C5.26143 9.41495 5.0855 9.23902 4.97525 9.02263C4.93748 8.94852 4.89728 8.82586 4.87433 8.54492C4.85057 8.25406 4.8499 7.87462 4.8499 7.30055V7.20055C4.8499 6.62647 4.85057 6.24703 4.87433 5.95617C4.89728 5.67523 4.93748 5.55257 4.97525 5.47846C5.0855 5.26207 5.26143 5.08614 5.47781 4.97589Z" fill="#1A1A1A"/>
<path fill-rule="evenodd" clip-rule="evenodd" d="M7.33369 12.6505H7.16612C6.63486 12.6505 6.18545 12.6505 5.81709 12.6806C5.43102 12.7122 5.05974 12.781 4.70603 12.9612C4.16977 13.2344 3.73377 13.6704 3.46054 14.2067C3.28031 14.5604 3.21152 14.9317 3.17998 15.3177C3.14988 15.6861 3.14989 16.1355 3.1499 16.6667V16.8343C3.14989 17.3656 3.14988 17.815 3.17998 18.1834C3.21152 18.5694 3.28031 18.9407 3.46054 19.2944C3.73377 19.8307 4.16977 20.2667 4.70603 20.5399C5.05974 20.7201 5.43102 20.7889 5.81709 20.8205C6.18545 20.8506 6.63484 20.8506 7.16611 20.8505H7.3337C7.86496 20.8506 8.31436 20.8506 8.68272 20.8205C9.06879 20.7889 9.44007 20.7201 9.79378 20.5399C10.33 20.2667 10.766 19.8307 11.0393 19.2944C11.2195 18.9407 11.2883 18.5694 11.3198 18.1834C11.3499 17.815 11.3499 17.3656 11.3499 16.8344V16.6667C11.3499 16.1355 11.3499 15.6861 11.3198 15.3177C11.2883 14.9317 11.2195 14.5604 11.0393 14.2067C10.766 13.6704 10.33 13.2344 9.79378 12.9612C9.44007 12.781 9.06879 12.7122 8.68272 12.6806C8.31436 12.6505 7.86494 12.6505 7.33369 12.6505ZM5.47781 14.4759C5.55193 14.4381 5.67459 14.3979 5.95552 14.375C6.24639 14.3512 6.62583 14.3505 7.1999 14.3505H7.2999C7.87398 14.3505 8.25342 14.3512 8.54428 14.375C8.82522 14.3979 8.94788 14.4381 9.02199 14.4759C9.23838 14.5861 9.41431 14.7621 9.52456 14.9785C9.56232 15.0526 9.60253 15.1752 9.62548 15.4562C9.64924 15.747 9.6499 16.1265 9.6499 16.7005V16.8005C9.6499 17.3746 9.64924 17.7541 9.62548 18.0449C9.60253 18.3259 9.56232 18.4485 9.52456 18.5226C9.41431 18.739 9.23838 18.9149 9.02199 19.0252C8.94788 19.063 8.82522 19.1032 8.54428 19.1261C8.25342 19.1499 7.87398 19.1505 7.2999 19.1505H7.1999C6.62583 19.1505 6.24639 19.1499 5.95552 19.1261C5.67459 19.1032 5.55193 19.063 5.47781 19.0252C5.26143 18.9149 5.0855 18.739 4.97525 18.5226C4.93748 18.4485 4.89728 18.3259 4.87433 18.0449C4.85057 17.7541 4.8499 17.3746 4.8499 16.8005V16.7005C4.8499 16.1265 4.85057 15.747 4.87433 15.4562C4.89728 15.1752 4.93748 15.0526 4.97525 14.9785C5.0855 14.7621 5.26143 14.5861 5.47781 14.4759Z" fill="#1A1A1A"/>
<path fill-rule="evenodd" clip-rule="evenodd" d="M16.8337 12.6505H16.6661C16.1349 12.6505 15.6855 12.6505 15.3171 12.6806C14.931 12.7122 14.5597 12.781 14.206 12.9612C13.6698 13.2344 13.2338 13.6704 12.9605 14.2067C12.7803 14.5604 12.7115 14.9317 12.68 15.3177C12.6499 15.6861 12.6499 16.1355 12.6499 16.6668V16.8343C12.6499 17.3656 12.6499 17.815 12.68 18.1834C12.7115 18.5694 12.7803 18.9407 12.9605 19.2944C13.2338 19.8307 13.6698 20.2667 14.206 20.5399C14.5597 20.7201 14.931 20.7889 15.3171 20.8205C15.6855 20.8506 16.1348 20.8506 16.6661 20.8505H16.8337C17.365 20.8506 17.8144 20.8506 18.1827 20.8205C18.5688 20.7889 18.9401 20.7201 19.2938 20.5399C19.83 20.2667 20.266 19.8307 20.5393 19.2944C20.7195 18.9407 20.7883 18.5694 20.8198 18.1834C20.8499 17.815 20.8499 17.3656 20.8499 16.8343V16.6667C20.8499 16.1355 20.8499 15.6861 20.8198 15.3177C20.7883 14.9317 20.7195 14.5604 20.5393 14.2067C20.266 13.6704 19.83 13.2344 19.2938 12.9612C18.9401 12.781 18.5688 12.7122 18.1827 12.6806C17.8144 12.6505 17.365 12.6505 16.8337 12.6505ZM14.9778 14.4759C15.0519 14.4381 15.1746 14.3979 15.4555 14.375C15.7464 14.3512 16.1258 14.3505 16.6999 14.3505H16.7999C17.374 14.3505 17.7534 14.3512 18.0443 14.375C18.3252 14.3979 18.4479 14.4381 18.522 14.4759C18.7384 14.5861 18.9143 14.7621 19.0246 14.9785C19.0623 15.0526 19.1025 15.1752 19.1255 15.4562C19.1492 15.747 19.1499 16.1265 19.1499 16.7005V16.8005C19.1499 17.3746 19.1492 17.7541 19.1255 18.0449C19.1025 18.3259 19.0623 18.4485 19.0246 18.5226C18.9143 18.739 18.7384 18.9149 18.522 19.0252C18.4479 19.063 18.3252 19.1032 18.0443 19.1261C17.7534 19.1499 17.374 19.1505 16.7999 19.1505H16.6999C16.1258 19.1505 15.7464 19.1499 15.4555 19.1261C15.1746 19.1032 15.0519 19.063 14.9778 19.0252C14.7614 18.9149 14.5855 18.739 14.4752 18.5226C14.4375 18.4485 14.3973 18.3259 14.3743 18.0449C14.3506 17.7541 14.3499 17.3746 14.3499 16.8005V16.7005C14.3499 16.1265 14.3506 15.747 14.3743 15.4562C14.3973 15.1752 14.4375 15.0526 14.4752 14.9785C14.5855 14.7621 14.7614 14.5861 14.9778 14.4759Z" fill="#1A1A1A"/>
</svg>
