<svg width="24" height="24" viewBox="0 0 24 24" fill="none" xmlns="http://www.w3.org/2000/svg">
<path d="M11.9999 2.15039C11.8704 2.15039 11.7415 2.15289 11.6132 2.15785C11.1441 2.17599 10.7785 2.57097 10.7967 3.04006C10.8148 3.50915 11.2098 3.87472 11.6789 3.85659C11.7853 3.85247 11.8924 3.85039 11.9999 3.85039C12.1075 3.85039 12.2145 3.85247 12.3209 3.85659C12.79 3.87472 13.185 3.50915 13.2031 3.04006C13.2213 2.57097 12.8557 2.17599 12.3866 2.15785C12.2583 2.15289 12.1294 2.15039 11.9999 2.15039Z" fill="#1A1A1A"/>
<path d="M15.4101 2.75695C14.9697 2.59442 14.4809 2.81968 14.3184 3.26009C14.1559 3.7005 14.3811 4.18928 14.8215 4.35181C15.0223 4.42591 15.2194 4.50771 15.4125 4.59685C15.8386 4.79366 16.3437 4.60771 16.5405 4.18151C16.7373 3.75532 16.5514 3.25027 16.1252 3.05346C15.8916 2.94562 15.6531 2.84664 15.4101 2.75695Z" fill="#1A1A1A"/>
<path d="M9.17828 4.35181C9.61868 4.18928 9.84395 3.7005 9.68142 3.26009C9.51888 2.81968 9.0301 2.59442 8.5897 2.75695C8.34667 2.84664 8.10817 2.94562 7.87464 3.05346C7.44845 3.25027 7.26249 3.75532 7.4593 4.18151C7.65611 4.60771 8.16116 4.79366 8.58735 4.59685C8.78039 4.50771 8.97748 4.42591 9.17828 4.35181Z" fill="#1A1A1A"/>
<path d="M18.6862 4.76739C18.3416 4.44865 17.8038 4.46965 17.4851 4.8143C17.1663 5.15895 17.1873 5.69673 17.532 6.01547C17.6888 6.16046 17.8398 6.31153 17.9848 6.46831C18.3036 6.81296 18.8413 6.83396 19.186 6.51522C19.5306 6.19648 19.5516 5.6587 19.2329 5.31405C19.0579 5.1248 18.8755 4.94243 18.6862 4.76739Z" fill="#1A1A1A"/>
<path d="M6.46782 6.01547C6.81247 5.69673 6.83347 5.15895 6.51473 4.8143C6.19599 4.46966 5.65821 4.44865 5.31357 4.76739C5.12431 4.94243 4.94194 5.1248 4.76691 5.31405C4.44817 5.6587 4.46917 6.19648 4.81381 6.51522C5.15846 6.83396 5.69624 6.81296 6.01498 6.46831C6.15997 6.31153 6.31105 6.16046 6.46782 6.01547Z" fill="#1A1A1A"/>
<path d="M20.9468 7.87513C20.75 7.44893 20.245 7.26298 19.8188 7.45979C19.3926 7.6566 19.2066 8.16164 19.4034 8.58784C19.4926 8.78088 19.5744 8.97797 19.6485 9.17876C19.811 9.61917 20.2998 9.84444 20.7402 9.6819C21.1806 9.51937 21.4059 9.03059 21.2433 8.59018C21.1537 8.34716 21.0547 8.10866 20.9468 7.87513Z" fill="#1A1A1A"/>
<path d="M4.59636 8.58784C4.79317 8.16164 4.60722 7.6566 4.18102 7.45979C3.75483 7.26298 3.24979 7.44894 3.05298 7.87513C2.94513 8.10866 2.84615 8.34716 2.75646 8.59019C2.59393 9.03059 2.81919 9.51937 3.2596 9.6819C3.70001 9.84444 4.18879 9.61917 4.35132 9.17876C4.42542 8.97797 4.50722 8.78088 4.59636 8.58784Z" fill="#1A1A1A"/>
<path d="M3.8561 11.6794C3.87423 11.2103 3.50866 10.8153 3.03957 10.7972C2.57048 10.779 2.1755 11.1446 2.15737 11.6137C2.1524 11.742 2.1499 11.8709 2.1499 12.0004C2.1499 12.1298 2.1524 12.2588 2.15737 12.3871C2.1755 12.8562 2.57048 13.2218 3.03957 13.2036C3.50866 13.1855 3.87423 12.7905 3.8561 12.3214C3.85198 12.215 3.8499 12.1079 3.8499 12.0004C3.8499 11.8928 3.85198 11.7858 3.8561 11.6794Z" fill="#1A1A1A"/>
<path d="M21.8424 11.6137C21.8243 11.1446 21.4293 10.779 20.9602 10.7972C20.4911 10.8153 20.1256 11.2103 20.1437 11.6794C20.1478 11.7858 20.1499 11.8928 20.1499 12.0004C20.1499 12.1079 20.1478 12.215 20.1437 12.3214C20.1256 12.7905 20.4911 13.1855 20.9602 13.2036C21.4293 13.2218 21.8243 12.8562 21.8424 12.3871C21.8474 12.2588 21.8499 12.1298 21.8499 12.0004C21.8499 11.8709 21.8474 11.742 21.8424 11.6137Z" fill="#1A1A1A"/>
<path d="M21.2433 15.4106C21.4059 14.9702 21.1806 14.4814 20.7402 14.3189C20.2998 14.1563 19.811 14.3816 19.6485 14.822C19.5744 15.0228 19.4926 15.2199 19.4034 15.4129C19.2066 15.8391 19.3926 16.3442 19.8188 16.541C20.245 16.7378 20.75 16.5518 20.9468 16.1257C21.0547 15.8921 21.1537 15.6536 21.2433 15.4106Z" fill="#1A1A1A"/>
<path d="M4.35132 14.822C4.18879 14.3816 3.70001 14.1563 3.2596 14.3189C2.81919 14.4814 2.59393 14.9702 2.75646 15.4106C2.84615 15.6536 2.94513 15.8921 3.05298 16.1257C3.24979 16.5518 3.75483 16.7378 4.18102 16.541C4.60722 16.3442 4.79317 15.8391 4.59636 15.4129C4.50722 15.2199 4.42542 15.0228 4.35132 14.822Z" fill="#1A1A1A"/>
<path d="M6.01498 17.5325C5.69624 17.1878 5.15846 17.1668 4.81381 17.4856C4.46917 17.8043 4.44817 18.3421 4.76691 18.6867C4.94194 18.876 5.12431 19.0584 5.31357 19.2334C5.65821 19.5521 6.19599 19.5311 6.51473 19.1865C6.83347 18.8418 6.81247 18.3041 6.46782 17.9853C6.31105 17.8403 6.15997 17.6892 6.01498 17.5325Z" fill="#1A1A1A"/>
<path d="M19.2329 18.6867C19.5516 18.3421 19.5306 17.8043 19.186 17.4856C18.8413 17.1668 18.3036 17.1878 17.9848 17.5325C17.8398 17.6892 17.6888 17.8403 17.532 17.9853C17.1873 18.3041 17.1663 18.8418 17.4851 19.1865C17.8038 19.5311 18.3416 19.5521 18.6862 19.2334C18.8755 19.0584 19.0579 18.876 19.2329 18.6867Z" fill="#1A1A1A"/>
<path d="M8.58735 19.4039C8.16116 19.2071 7.65611 19.3931 7.4593 19.8193C7.26249 20.2455 7.44845 20.7505 7.87464 20.9473C8.10817 21.0552 8.34667 21.1541 8.5897 21.2438C9.0301 21.4064 9.51888 21.1811 9.68142 20.7407C9.84395 20.3003 9.61868 19.8115 9.17828 19.649C8.97748 19.5749 8.78039 19.4931 8.58735 19.4039Z" fill="#1A1A1A"/>
<path d="M16.1252 20.9473C16.5514 20.7505 16.7373 20.2455 16.5405 19.8193C16.3437 19.3931 15.8386 19.2071 15.4125 19.4039C15.2194 19.4931 15.0223 19.5749 14.8215 19.649C14.3811 19.8115 14.1559 20.3003 14.3184 20.7407C14.4809 21.1811 14.9697 21.4064 15.4101 21.2438C15.6531 21.1541 15.8916 21.0552 16.1252 20.9473Z" fill="#1A1A1A"/>
<path d="M11.6789 20.1442C11.2098 20.1261 10.8148 20.4916 10.7967 20.9607C10.7785 21.4298 11.1441 21.8248 11.6132 21.8429C11.7415 21.8479 11.8704 21.8504 11.9999 21.8504C12.1294 21.8504 12.2583 21.8479 12.3866 21.8429C12.8557 21.8248 13.2213 21.4298 13.2031 20.9607C13.185 20.4916 12.79 20.1261 12.3209 20.1442C12.2145 20.1483 12.1075 20.1504 11.9999 20.1504C11.8924 20.1504 11.7853 20.1483 11.6789 20.1442Z" fill="#1A1A1A"/>
<path d="M11.15 14.4484L9.10108 12.3994C8.76914 12.0674 8.23095 12.0674 7.89899 12.3993C7.56704 12.7313 7.56703 13.2695 7.89897 13.6014L10.6918 16.3943C11.4142 17.1168 12.5856 17.1168 13.3081 16.3943L16.1011 13.6014C16.433 13.2695 16.433 12.7313 16.1011 12.3994C15.7691 12.0674 15.2309 12.0674 14.899 12.3993L12.85 14.4482V7.00039C12.85 6.53095 12.4695 6.15039 12 6.15039C11.5306 6.15039 11.15 6.53095 11.15 7.00039L11.15 14.4484Z" fill="#1A1A1A"/>
</svg>
