<svg width="28" height="28" viewBox="0 0 28 28" fill="none" xmlns="http://www.w3.org/2000/svg">
<rect width="28" height="28" fill="white"/>
<path d="M12.7291 14.1382C12.7934 14.163 12.8441 14.214 12.8687 14.2784L13.7725 16.6465C13.8522 16.8554 14.1476 16.8554 14.2273 16.6466L15.1311 14.2784C15.1557 14.214 15.2065 14.1631 15.2708 14.1382L17.628 13.2269C17.8355 13.1467 17.8355 12.8531 17.628 12.7728L15.2708 11.8614C15.2065 11.8366 15.1558 11.7856 15.1312 11.7212L14.2274 9.35306C14.1477 9.14425 13.8523 9.14425 13.7726 9.35306L12.8687 11.7212C12.8441 11.7856 12.7934 11.8365 12.7291 11.8614L10.3719 12.7727C10.1644 12.853 10.1644 13.1465 10.3719 13.2268L12.7291 14.1382Z" fill="#1A1A1A"/>
<path fill-rule="evenodd" clip-rule="evenodd" d="M12.0849 2.15015C6.56277 2.15015 2.14795 6.81283 2.14795 12.4867C2.14795 16.2422 4.07557 19.5429 6.97617 21.3544C7.12616 21.4481 7.27923 21.5381 7.43431 21.6237L7.43598 21.6246L7.44914 21.6318C7.61122 21.7209 7.77601 21.8055 7.94336 21.8854C8.00765 21.9161 8.0723 21.9461 8.1373 21.9753L15.9995 25.6622C17.3286 26.2855 18.6664 25.2994 18.7861 24.0673C18.8035 23.8878 18.7773 23.7063 18.7625 23.6135C18.7441 23.4987 18.7204 23.3922 18.7051 23.3274C18.6858 23.2454 18.662 23.1719 18.6388 23.1088C18.5439 22.8499 18.6947 22.4245 19.146 22.263C23.0627 20.861 25.8479 16.9996 25.8479 12.4867C25.8479 6.81283 21.4331 2.15015 15.911 2.15015H12.0849ZM7.85298 19.8977L8.87314 20.4428L16.7213 24.123C16.8116 24.1654 16.8867 24.155 16.9557 24.1126C17.029 24.0674 17.0758 23.996 17.0902 23.9277C17.0889 23.9162 17.0869 23.9012 17.0839 23.8826C17.0746 23.8246 17.0611 23.7622 17.0506 23.7178L17.05 23.7158L17.049 23.7121C17.0477 23.7081 17.0458 23.7024 17.0429 23.6944C16.5547 22.364 17.4306 21.0714 18.5731 20.6624C21.7991 19.5077 24.1479 16.2974 24.1479 12.4867C24.1479 7.68202 20.426 3.85015 15.911 3.85015H12.0849C7.56986 3.85015 3.84795 7.68202 3.84795 12.4867C3.84795 15.644 5.46151 18.3927 7.85298 19.8977Z" fill="#1A1A1A"/>
</svg>
