<svg width="24" height="24" viewBox="0 0 24 24" fill="none" xmlns="http://www.w3.org/2000/svg">
<path fill-rule="evenodd" clip-rule="evenodd" d="M17.7271 3.97046C16.8438 3.85171 15.6738 3.8499 13.9999 3.8499H10.2666C8.96596 3.8499 7.90532 4.87733 7.85201 6.16483C8.47815 6.14988 9.17194 6.14989 9.93751 6.1499H9.93752H10.0623H10.0623C11.6592 6.14988 12.9438 6.14986 13.9536 6.28562C15.001 6.42644 15.879 6.72717 16.5758 7.42399C17.2726 8.12081 17.5734 8.99884 17.7142 10.0462C17.8499 11.056 17.8499 12.3406 17.8499 13.9375V13.9375V14.0623V14.0623C17.8499 14.8279 17.8499 15.5217 17.835 16.1478C19.1225 16.0945 20.1499 15.0338 20.1499 13.7332V9.9999C20.1499 8.32596 20.1481 7.15601 20.0293 6.27271C19.9139 5.41387 19.702 4.95438 19.3737 4.62607C19.0454 4.29776 18.5859 4.08593 17.7271 3.97046ZM6.1499 6.26657H6.19711C6.14614 6.2726 6.09583 6.27895 6.04619 6.28562C4.99884 6.42644 4.12081 6.72717 3.42399 7.42399C2.72717 8.12081 2.42644 8.99884 2.28562 10.0462C2.14986 11.056 2.14988 12.3406 2.1499 13.9375V13.9375V14.0623V14.0623C2.14988 15.6592 2.14986 16.9438 2.28562 17.9536C2.42644 19.001 2.72717 19.879 3.42399 20.5758C4.12081 21.2726 4.99884 21.5734 6.04619 21.7142C7.05597 21.8499 8.34059 21.8499 9.9375 21.8499H9.93752H9.93754H10.0623H10.0623H10.0623C11.6592 21.8499 12.9438 21.8499 13.9536 21.7142C15.001 21.5734 15.879 21.2726 16.5758 20.5758C17.2726 19.879 17.5734 19.001 17.7142 17.9536C17.7209 17.904 17.7272 17.8537 17.7332 17.8027V17.8499C20.0068 17.8499 21.8499 16.0068 21.8499 13.7332V9.93751V9.93749V9.93747C21.8499 8.34057 21.8499 7.05597 21.7142 6.04619C21.5734 4.99884 21.2726 4.12081 20.5758 3.42399C19.879 2.72717 19.001 2.42644 17.9536 2.28562C16.9438 2.14986 15.6592 2.14988 14.0623 2.1499H14.0623H10.2666C7.993 2.1499 6.1499 3.993 6.1499 6.26657ZM6.27271 7.97046C5.41387 8.08593 4.95438 8.29776 4.62607 8.62607C4.29776 8.95438 4.08593 9.41387 3.97046 10.2727C3.85171 11.156 3.8499 12.326 3.8499 13.9999C3.8499 15.6738 3.85171 16.8438 3.97046 17.7271C4.08593 18.5859 4.29776 19.0454 4.62607 19.3737C4.95438 19.702 5.41387 19.9139 6.27271 20.0293C7.15601 20.1481 8.32596 20.1499 9.9999 20.1499C11.6738 20.1499 12.8438 20.1481 13.7271 20.0293C14.5859 19.9139 15.0454 19.702 15.3737 19.3737C15.702 19.0454 15.9139 18.5859 16.0293 17.7271C16.1481 16.8438 16.1499 15.6738 16.1499 13.9999C16.1499 12.326 16.1481 11.156 16.0293 10.2727C15.9139 9.41387 15.702 8.95438 15.3737 8.62607C15.0454 8.29776 14.5859 8.08593 13.7271 7.97046C12.8438 7.85171 11.6738 7.8499 9.9999 7.8499C8.32596 7.8499 7.15601 7.85171 6.27271 7.97046ZM13.6396 12.0596C13.9487 11.7064 13.9129 11.1694 13.5596 10.8602C13.2063 10.5511 12.6693 10.5869 12.3602 10.9402L9.4585 14.2564L8.10094 12.8989C7.769 12.5669 7.23081 12.5669 6.89886 12.8989C6.56692 13.2308 6.56692 13.769 6.89886 14.101L8.89886 16.101C9.06521 16.2673 9.29307 16.3573 9.52819 16.3494C9.76331 16.3416 9.98468 16.2367 10.1396 16.0596L13.6396 12.0596Z" fill="#1A1A1A"/>
</svg>
