<svg width="28" height="13" viewBox="0 0 28 13" fill="none" xmlns="http://www.w3.org/2000/svg">
<g clip-path="url(#clip0_3157_2509)">
<path opacity="0.35" d="M20.7 0.5H4.3C2.20132 0.5 0.5 2.20132 0.5 4.3V8.7C0.5 10.7987 2.20132 12.5 4.3 12.5H20.7C22.7987 12.5 24.5 10.7987 24.5 8.7V4.3C24.5 2.20132 22.7987 0.5 20.7 0.5Z" stroke="black"/>
<path opacity="0.4" d="M26 4.78125V8.85672C26.8047 8.51155 27.328 7.70859 27.328 6.81898C27.328 5.92938 26.8047 5.12642 26 4.78125Z" fill="black"/>
<path d="M20.5 2H4.5C3.11929 2 2 3.11929 2 4.5V8.5C2 9.88071 3.11929 11 4.5 11H20.5C21.8807 11 23 9.88071 23 8.5V4.5C23 3.11929 21.8807 2 20.5 2Z" fill="black"/>
</g>
<defs>
<clipPath id="clip0_3157_2509">
<rect width="28" height="13" fill="white"/>
</clipPath>
</defs>
</svg>
