<svg width="24" height="24" viewBox="0 0 24 24" fill="none" xmlns="http://www.w3.org/2000/svg">
<path d="M12 4C12.5523 4 13 3.55228 13 3C13 2.44772 12.5523 2 12 2C11.4477 2 11 2.44772 11 3C11 3.55228 11.4477 4 12 4Z" fill="#1A1A1A"/>
<path fill-rule="evenodd" clip-rule="evenodd" d="M11.9999 4.65039C12.4693 4.65039 12.8499 5.03095 12.8499 5.50039V8.65039H14.9999C15.0501 8.65039 15.1001 8.65102 15.1499 8.65228V5.50039C15.1499 5.03095 15.5305 4.65039 15.9999 4.65039C16.4693 4.65039 16.8499 5.03095 16.8499 5.50039V8.94894C19.1741 9.72311 20.8499 11.916 20.8499 14.5004V19.6504H21.9999C22.4693 19.6504 22.8499 20.0309 22.8499 20.5004C22.8499 20.9698 22.4693 21.3504 21.9999 21.3504H1.9999C1.53046 21.3504 1.1499 20.9698 1.1499 20.5004C1.1499 20.0309 1.53046 19.6504 1.9999 19.6504H3.1499V14.5004C3.1499 11.916 4.82569 9.72311 7.1499 8.94894V5.50039C7.1499 5.03095 7.53046 4.65039 7.9999 4.65039C8.46934 4.65039 8.8499 5.03095 8.8499 5.50039V8.65228C8.89975 8.65102 8.94975 8.65039 8.9999 8.65039H11.1499V5.50039C11.1499 5.03095 11.5305 4.65039 11.9999 4.65039ZM11.9999 10.3504L14.9999 10.3504C17.2919 10.3504 19.1499 12.2084 19.1499 14.5004V15.6245L18.3801 15.2396C16.8818 14.4904 15.1182 14.4904 13.6199 15.2396C12.6001 15.7495 11.3999 15.7495 10.3801 15.2396C8.88181 14.4904 7.1182 14.4904 5.61987 15.2396L4.8499 15.6246V14.5004C4.8499 12.2084 6.70792 10.3504 8.9999 10.3504L11.9999 10.3504ZM19.1499 17.5251V19.6504H4.8499V17.5253L6.38014 16.7601C7.39987 16.2503 8.60014 16.2503 9.61987 16.7601C11.1182 17.5093 12.8818 17.5093 14.3801 16.7601C15.3999 16.2503 16.6001 16.2503 17.6199 16.7601L19.1499 17.5251Z" fill="#1A1A1A"/>
<path d="M9 3C9 3.55228 8.55228 4 8 4C7.44772 4 7 3.55228 7 3C7 2.44772 7.44772 2 8 2C8.55228 2 9 2.44772 9 3Z" fill="#1A1A1A"/>
<path d="M16 4C16.5523 4 17 3.55228 17 3C17 2.44772 16.5523 2 16 2C15.4477 2 15 2.44772 15 3C15 3.55228 15.4477 4 16 4Z" fill="#1A1A1A"/>
</svg>
