<svg width="24" height="24" viewBox="0 0 24 24" fill="none" xmlns="http://www.w3.org/2000/svg">
<path d="M9.4999 8.65039C9.03046 8.65039 8.6499 9.03095 8.6499 9.50039C8.6499 9.96983 9.03046 10.3504 9.4999 10.3504H12.7937L10.6994 16.2145C10.5415 16.6566 10.7719 17.143 11.214 17.3009C11.6561 17.4588 12.1425 17.2284 12.3004 16.7863L14.8004 9.78628C14.8934 9.52596 14.8539 9.2367 14.6947 9.01075C14.5355 8.7848 14.2763 8.65039 13.9999 8.65039H9.4999Z" fill="#1A1A1A"/>
<path fill-rule="evenodd" clip-rule="evenodd" d="M9.3499 3.00039C9.3499 2.53095 8.96934 2.15039 8.4999 2.15039C8.03046 2.15039 7.6499 2.53095 7.6499 3.00039V4.65243C7.10696 4.65633 6.63801 4.66772 6.23189 4.7009C5.5957 4.75288 5.03919 4.86254 4.52504 5.12451C3.70654 5.54156 3.04107 6.20703 2.62402 7.02553C2.36206 7.53968 2.25239 8.09618 2.20041 8.73238C2.14989 9.35075 2.14989 10.1148 2.1499 11.0639V13.9369C2.14989 14.886 2.14989 15.65 2.20041 16.2684C2.25239 16.9046 2.36206 17.4611 2.62402 17.9752C3.04107 18.7938 3.70654 19.4592 4.52504 19.8763C5.03919 20.1382 5.5957 20.2479 6.23189 20.2999C6.85023 20.3504 7.61421 20.3504 8.56328 20.3504H15.4364C16.3855 20.3504 17.1496 20.3504 17.7679 20.2999C18.4041 20.2479 18.9606 20.1382 19.4748 19.8763C20.2933 19.4592 20.9587 18.7938 21.3758 17.9752C21.6378 17.4611 21.7474 16.9046 21.7994 16.2684C21.8499 15.65 21.8499 14.886 21.8499 13.9369V11.064C21.8499 10.1148 21.8499 9.35074 21.7994 8.73238C21.7474 8.09618 21.6378 7.53968 21.3758 7.02553C20.9587 6.20703 20.2933 5.54156 19.4748 5.12451C18.9606 4.86254 18.4041 4.75288 17.7679 4.7009C17.3618 4.66772 16.8928 4.65633 16.3499 4.65243V3.00039C16.3499 2.53095 15.9693 2.15039 15.4999 2.15039C15.0305 2.15039 14.6499 2.53095 14.6499 3.00039V4.65039H9.3499V3.00039ZM5.29683 6.63922C5.53138 6.51972 5.83926 6.43864 6.37033 6.39525C6.91132 6.35105 7.60578 6.35039 8.5999 6.35039H15.3999C16.394 6.35039 17.0885 6.35105 17.6295 6.39525C18.1605 6.43864 18.4684 6.51972 18.703 6.63922C19.2016 6.89329 19.607 7.29869 19.8611 7.79732C19.9806 8.03186 20.0617 8.33975 20.105 8.87082C20.1492 9.41181 20.1499 10.1063 20.1499 11.1004V13.9004C20.1499 14.8945 20.1492 15.589 20.105 16.13C20.0617 16.661 19.9806 16.9689 19.8611 17.2035C19.607 17.7021 19.2016 18.1075 18.703 18.3616C18.4684 18.4811 18.1605 18.5621 17.6295 18.6055C17.0885 18.6497 16.394 18.6504 15.3999 18.6504H8.5999C7.60579 18.6504 6.91132 18.6497 6.37033 18.6055C5.83926 18.5621 5.53138 18.4811 5.29683 18.3616C4.7982 18.1075 4.3928 17.7021 4.13874 17.2035C4.01923 16.9689 3.93815 16.661 3.89476 16.13C3.85056 15.589 3.8499 14.8945 3.8499 13.9004V11.1004C3.8499 10.1063 3.85056 9.41181 3.89476 8.87082C3.93815 8.33975 4.01923 8.03186 4.13874 7.79732C4.3928 7.29869 4.7982 6.89329 5.29683 6.63922Z" fill="#1A1A1A"/>
</svg>
