<svg width="24" height="24" viewBox="0 0 24 24" fill="none" xmlns="http://www.w3.org/2000/svg">
<path d="M18.3024 13.1481C17.9752 13.6753 17.4642 14.081 16.8448 14.0445C15.9015 13.9889 14.336 13.5618 12.5106 11.7364C10.6853 9.91107 10.2581 8.34551 10.2025 7.40226C10.166 6.78286 10.5718 6.27183 11.099 5.94461L11.2254 5.86614C11.4151 5.74841 11.6627 5.79032 11.8031 5.9639L13.1107 7.5809C13.2328 7.73181 13.2423 7.9446 13.1342 8.1058L12.6416 8.84065C12.5885 8.91978 12.5721 9.01775 12.6058 9.10686C12.7063 9.37265 12.9856 9.97726 13.6277 10.6194C14.2703 11.262 14.8856 11.5515 15.1563 11.657C15.2468 11.6923 15.3469 11.6763 15.4275 11.6223L16.1622 11.1297C16.3234 11.0216 16.5362 11.0312 16.6871 11.1532L18.2832 12.4439C18.4567 12.5843 18.4987 12.8319 18.3809 13.0216L18.3024 13.1481Z" fill="#1A1A1A"/>
<path fill-rule="evenodd" clip-rule="evenodd" d="M9.36316 21.85H12.7612C12.9822 21.85 13.1268 21.85 13.254 21.8433C15.5691 21.722 17.4496 19.9865 17.7939 17.7384C18.3076 17.6658 18.7695 17.5418 19.202 17.3214C20.1146 16.8564 20.8565 16.1145 21.3215 15.2019C21.6107 14.6343 21.734 14.016 21.7928 13.2964C21.8502 12.5947 21.8502 11.7258 21.8501 10.637V9.36304C21.8502 8.27429 21.8502 7.40534 21.7928 6.70362C21.734 5.98404 21.6107 5.36579 21.3215 4.79817C20.8565 3.88558 20.1146 3.14363 19.202 2.67864C18.6344 2.38943 18.0161 2.26614 17.2966 2.20734C16.5948 2.15001 15.7259 2.15002 14.6371 2.15002L13.3632 2.15002C12.2744 2.15002 11.4055 2.15001 10.7037 2.20734C9.98417 2.26614 9.36592 2.38943 8.7983 2.67864C7.88571 3.14363 7.14375 3.88558 6.67877 4.79817C6.4584 5.23066 6.33437 5.69255 6.26179 6.20625C4.0137 6.55051 2.27813 8.43106 2.15679 10.7462C2.15013 10.8733 2.15014 11.0179 2.15015 11.2389L2.15015 14.637C2.15014 15.7258 2.15013 16.5947 2.20747 17.2964C2.26626 18.016 2.38955 18.6342 2.67876 19.2018C3.14375 20.1144 3.88571 20.8564 4.79829 21.3214C5.36591 21.6106 5.98416 21.7339 6.70374 21.7927C7.40544 21.85 8.27445 21.85 9.36316 21.85ZM6.15614 7.96468C4.87655 8.31967 3.92657 9.45924 3.85446 10.8351C3.85044 10.9119 3.85015 11.0083 3.85015 11.2667L3.85015 14.6C3.85015 15.7341 3.85081 16.5336 3.90182 17.158C3.95202 17.7724 4.04672 18.142 4.19348 18.4301C4.49548 19.0228 4.97737 19.5047 5.57008 19.8067C5.8581 19.9534 6.22773 20.0481 6.84217 20.0983C7.46654 20.1493 8.26602 20.15 9.40015 20.15L12.7335 20.15C12.9919 20.15 13.0882 20.1497 13.165 20.1457C14.5409 20.0736 15.6804 19.1236 16.0355 17.844C15.6145 17.85 15.1502 17.85 14.6371 17.85L13.3632 17.85C12.2744 17.85 11.4055 17.85 10.7037 17.7927C9.98416 17.7339 9.36591 17.6106 8.79829 17.3214C7.88571 16.8564 7.14375 16.1145 6.67877 15.2019C6.38955 14.6343 6.26626 14.016 6.20747 13.2964C6.15013 12.5947 6.15014 11.7258 6.15015 10.637V9.36304C6.15014 8.84994 6.15014 8.38565 6.15614 7.96468ZM17.1581 16.0984C17.7726 16.0482 18.1422 15.9535 18.4302 15.8067C19.0229 15.5047 19.5048 15.0228 19.8068 14.4301C19.9536 14.1421 20.0483 13.7724 20.0985 13.158C20.1495 12.5336 20.1501 11.7342 20.1501 10.6V9.40003C20.1501 8.26589 20.1495 7.46642 20.0985 6.84205C20.0483 6.22761 19.9536 5.85798 19.8068 5.56995C19.5048 4.97724 19.0229 4.49536 18.4302 4.19335C18.1422 4.0466 17.7726 3.9519 17.1581 3.9017C16.5338 3.85069 15.7343 3.85003 14.6001 3.85003H13.4001C12.266 3.85003 11.4665 3.85069 10.8422 3.9017C10.2277 3.9519 9.8581 4.0466 9.57008 4.19335C8.97737 4.49536 8.49548 4.97724 8.19348 5.56995C8.04672 5.85798 7.95202 6.22761 7.90182 6.84205C7.85081 7.46641 7.85015 8.26589 7.85015 9.40002V10.6C7.85015 11.7342 7.85081 12.5336 7.90182 13.158C7.95202 13.7724 8.04672 14.1421 8.19348 14.4301C8.49548 15.0228 8.97737 15.5047 9.57008 15.8067C9.8581 15.9535 10.2277 16.0481 10.8422 16.0984C11.4665 16.1494 12.266 16.15 13.4001 16.15H14.6001C15.7343 16.15 16.5338 16.1494 17.1581 16.0984Z" fill="#1A1A1A"/>
</svg>
