<svg width="24" height="24" viewBox="0 0 24 24" fill="none" xmlns="http://www.w3.org/2000/svg">
<path fill-rule="evenodd" clip-rule="evenodd" d="M11.9998 7.15039C9.3212 7.15039 7.14978 9.32181 7.14978 12.0004C7.14978 14.679 9.3212 16.8504 11.9998 16.8504C14.6784 16.8504 16.8498 14.679 16.8498 12.0004C16.8498 9.32181 14.6784 7.15039 11.9998 7.15039ZM8.84978 12.0004C8.84978 10.2607 10.2601 8.85039 11.9998 8.85039C13.7395 8.85039 15.1498 10.2607 15.1498 12.0004C15.1498 13.7401 13.7395 15.1504 11.9998 15.1504C10.2601 15.1504 8.84978 13.7401 8.84978 12.0004Z" fill="#1A1A1A"/>
<path fill-rule="evenodd" clip-rule="evenodd" d="M9.28651 2.57812C8.2439 2.57812 7.27643 3.12072 6.73276 4.01036L6.03659 5.14955H5.22758C3.33798 5.14955 1.80615 6.68138 1.80615 8.57098V17.1424C1.80615 19.032 3.33798 20.5638 5.22758 20.5638H18.9419C20.8315 20.5638 22.3633 19.032 22.3633 17.1424V8.57098C22.3633 6.68138 20.8315 5.14955 18.9419 5.14955H18.1329L17.4367 4.01036C16.893 3.12072 15.9255 2.57812 14.8829 2.57812H9.28651ZM8.18334 4.89682C8.4182 4.51251 8.83612 4.27813 9.28651 4.27813H14.8829C15.3333 4.27813 15.7513 4.51251 15.9861 4.89682L16.9309 6.44279C17.0853 6.69545 17.36 6.84955 17.6562 6.84955H18.9419C19.8926 6.84955 20.6633 7.62026 20.6633 8.57098V17.1424C20.6633 18.0931 19.8926 18.8638 18.9419 18.8638H5.22758C4.27686 18.8638 3.50615 18.0931 3.50615 17.1424V8.57098C3.50615 7.62026 4.27686 6.84955 5.22758 6.84955H6.5133C6.80941 6.84955 7.08418 6.69545 7.23858 6.44279L8.18334 4.89682Z" fill="#1A1A1A"/>
</svg>
