<svg width="24" height="24" viewBox="0 0 24 24" fill="none" xmlns="http://www.w3.org/2000/svg">
<path d="M11.9522 2.15039C10.4872 2.15038 9.32275 2.15037 8.39217 2.24504C7.43745 2.34216 6.63496 2.5459 5.93154 3.01592C5.37077 3.39061 4.88929 3.87209 4.5146 4.43286C4.22296 4.86933 4.03383 5.34395 3.90909 5.86941L5.4085 7.36882C5.41627 7.26418 5.42506 7.16319 5.43499 7.06554C5.51844 6.24524 5.67583 5.75486 5.9281 5.37733C6.17876 5.00218 6.50086 4.68008 6.87601 4.42941C7.25354 4.17715 7.74392 4.01976 8.56422 3.93631C9.39873 3.85142 10.4766 3.85039 11.9991 3.85039C13.5215 3.85039 14.5994 3.85142 15.4339 3.93631C16.2542 4.01976 16.7446 4.17715 17.1221 4.42941C17.4973 4.68008 17.8194 5.00218 18.0701 5.37732C18.3223 5.75486 18.4797 6.24524 18.5632 7.06554C18.648 7.90005 18.6491 8.97792 18.6491 10.5004V13.0422C19.2568 13.1211 19.8302 13.3091 20.3491 13.5859V10.4535C20.3491 8.98848 20.3491 7.8241 20.2544 6.89349C20.1573 5.93877 19.9536 5.13628 19.4835 4.43286C19.1089 3.87209 18.6274 3.39061 18.0666 3.01591C17.3632 2.5459 16.5607 2.34216 15.606 2.24504C14.6754 2.15037 13.511 2.15038 12.0461 2.15039H11.9522Z" fill="#1A1A1A"/>
<path d="M3.64907 11.2662L5.34907 12.9662V13.5004C5.34907 15.0229 5.3501 16.1007 5.43499 16.9352C5.51844 17.7555 5.67583 18.2459 5.9281 18.6235C6.17876 18.9986 6.50086 19.3207 6.87601 19.5714C7.25354 19.8236 7.74392 19.981 8.56422 20.0645C9.39873 20.1494 10.4766 20.1504 11.9991 20.1504C12.1835 20.1504 12.3613 20.1504 12.533 20.1502L14.2171 21.8343C13.5783 21.8504 12.8584 21.8504 12.0461 21.8504H11.9521C10.4871 21.8504 9.32277 21.8504 8.39217 21.7557C7.43745 21.6586 6.63496 21.4549 5.93154 20.9849C5.37077 20.6102 4.88929 20.1287 4.5146 19.5679C4.04459 18.8645 3.84084 18.062 3.74372 17.1073C3.64905 16.1767 3.64906 15.0123 3.64907 13.5473V11.2662Z" fill="#1A1A1A"/>
<path fill-rule="evenodd" clip-rule="evenodd" d="M21.9995 18.0003C21.9995 19.6279 21.0275 21.0284 19.6322 21.653C19.5577 21.5389 19.4704 21.4307 19.3702 21.3305L14.3657 16.326C14.9994 14.9531 16.3882 14.0003 17.9995 14.0003C20.2087 14.0003 21.9995 15.7912 21.9995 18.0003ZM17.9995 15.5003C18.2757 15.5003 18.4995 15.7242 18.4995 16.0003V17.5003H19.9995C20.2757 17.5003 20.4995 17.7242 20.4995 18.0003C20.4995 18.2764 20.2757 18.5003 19.9995 18.5003H18.0853C17.7618 18.5003 17.4995 18.2381 17.4995 17.9146V16.0003C17.4995 15.7242 17.7234 15.5003 17.9995 15.5003Z" fill="#1A1A1A"/>
<path d="M12.6996 13.5606C12.4544 13.7039 12.2169 13.8338 11.9906 13.9509L9.42807 11.3884C9.42965 10.7184 9.47024 10.1334 9.525 9.64653C9.60444 8.94042 9.64416 8.58736 10.0262 8.37213C10.4082 8.1569 10.7348 8.30772 11.3879 8.60935C11.7818 8.79123 12.228 9.01752 12.6996 9.29303C13.247 9.61279 13.7545 9.96772 14.1838 10.2949C14.8047 10.7682 15.1152 11.0048 15.1148 11.4297C15.1144 11.8546 14.8039 12.0904 14.1829 12.562C13.7561 12.8862 13.2502 13.2388 12.6996 13.5606Z" fill="#1A1A1A"/>
<path d="M1.93639 5.17135C1.60445 4.83941 1.06626 4.83941 0.734311 5.17135C0.402365 5.5033 0.402365 6.04149 0.734311 6.37344L17.7049 23.344C18.0368 23.6759 18.575 23.6759 18.907 23.344C19.2389 23.0121 19.2389 22.4739 18.907 22.1419L1.93639 5.17135Z" fill="#1A1A1A"/>
</svg>
