<svg width="24" height="24" viewBox="0 0 24 24" fill="none" xmlns="http://www.w3.org/2000/svg">
<path fill-rule="evenodd" clip-rule="evenodd" d="M10.7655 8.51432C10.8289 8.10499 10.5485 7.72176 10.1392 7.65836C9.72983 7.59496 9.3466 7.87539 9.2832 8.28472L9.13971 9.21113H7.46216C7.04794 9.21113 6.71216 9.54692 6.71216 9.96113C6.71216 10.3753 7.04794 10.7111 7.46216 10.7111H8.90737L8.70413 12.0233C8.17155 11.9183 7.61853 11.8582 7.05396 11.8582C6.63974 11.8582 6.30396 12.194 6.30396 12.6082C6.30396 13.0224 6.63974 13.3582 7.05396 13.3582C7.53505 13.3582 8.01154 13.4121 8.47429 13.5071L8.1768 15.4278C8.11339 15.8372 8.39382 16.2204 8.80316 16.2838C9.21249 16.3472 9.59572 16.0668 9.65912 15.6574L9.92404 13.947C10.2294 14.0696 10.5223 14.2065 10.7994 14.3528C11.8935 14.9306 12.6526 15.6079 12.9375 16.0244C13.1114 16.2785 13.4228 16.4005 13.723 16.3322C14.0231 16.2639 14.2511 16.0191 14.2978 15.7148L14.3889 15.1219H16.0993C16.5135 15.1219 16.8493 14.7861 16.8493 14.3719C16.8493 13.9577 16.5135 13.6219 16.0993 13.6219H14.6194L15.0666 10.7111H16.6434C17.0576 10.7111 17.3934 10.3753 17.3934 9.96113C17.3934 9.54692 17.0576 9.21113 16.6434 9.21113H15.297L15.4042 8.51341C15.4671 8.104 15.1862 7.72112 14.7768 7.65822C14.3674 7.59532 13.9845 7.87622 13.9216 8.28563L13.7794 9.21113H10.6576L10.7655 8.51432ZM11.4998 13.0264C11.0864 12.8081 10.6366 12.6049 10.1588 12.4311L10.4253 10.7111H13.549L13.0402 14.0228C12.5979 13.6726 12.0743 13.3298 11.4998 13.0264Z" fill="#1A1A1A"/>
<path fill-rule="evenodd" clip-rule="evenodd" d="M11.8477 3C13.2133 3 14.419 3.03866 15.409 3.1701C17.5954 3.45876 18.7616 4.08505 19.7123 4.9201C20.6397 5.77577 21.3353 6.82732 21.6575 8.79381C21.8036 9.68299 21.8477 10.7706 21.8477 12C21.8477 13.2294 21.8036 14.3144 21.6575 15.2062C21.3353 17.1727 20.6374 18.2242 19.7123 19.0799C18.7616 19.9124 17.5931 20.5387 15.409 20.8299C14.419 20.9613 13.2133 21 11.8477 21C10.482 21 9.27636 20.9613 8.28633 20.8299C6.09992 20.5412 4.93368 19.9149 3.98306 19.0799C3.05563 18.2242 2.36006 17.1727 2.03778 15.2062V15.2036C1.89171 14.3144 1.84766 13.2268 1.84766 11.9974C1.84766 10.768 1.89171 9.68299 2.03778 8.79124C2.36006 6.82474 3.05563 5.7732 3.98306 4.9201C4.93368 4.08763 6.10224 3.46134 8.28633 3.1701C9.27636 3.03866 10.482 3 11.8477 3ZM15.1865 4.85548C17.0636 5.1033 17.9074 5.60113 18.5747 6.18364C19.213 6.77621 19.7203 7.48472 19.9799 9.06875C20.1027 9.81638 20.1477 10.7916 20.1477 12C20.1477 13.2078 20.1029 14.1804 19.9799 14.9312C19.7208 16.5123 19.2126 17.2222 18.5749 17.8162C17.907 18.3969 17.0592 18.8948 15.1843 19.1448C14.3102 19.2608 13.197 19.3 11.8477 19.3C10.4979 19.3 9.38429 19.2607 8.51007 19.1447L8.50884 19.1445C6.63173 18.8967 5.78794 18.3989 5.12062 17.8164C4.49502 17.2355 3.99518 16.5433 3.73114 15.0245L3.71529 14.928C3.59248 14.1804 3.54766 13.2058 3.54766 11.9974C3.54766 10.7896 3.59242 9.81704 3.7154 9.06618C3.97506 7.4819 4.48243 6.77436 5.1187 6.18536C5.78676 5.60403 6.63421 5.10558 8.51007 4.85532C9.38414 4.73935 10.4983 4.7 11.8477 4.7C13.1975 4.7 14.311 4.73925 15.1852 4.85532L15.1865 4.85548Z" fill="#1A1A1A"/>
</svg>
