<svg width="20" height="20" viewBox="0 0 20 20" fill="none" xmlns="http://www.w3.org/2000/svg">
<g clip-path="url(#clip0_3230_2500)">
<path d="M19.375 10C19.375 4.82233 15.1777 0.625 10 0.625C4.82233 0.625 0.625 4.82233 0.625 10C0.625 15.1777 4.82233 19.375 10 19.375C15.1777 19.375 19.375 15.1777 19.375 10Z" fill="#0099FF"/>
<path d="M19.375 10C19.375 4.82233 15.1777 0.625 10 0.625C4.82233 0.625 0.625 4.82233 0.625 10C0.625 15.1777 4.82233 19.375 10 19.375C15.1777 19.375 19.375 15.1777 19.375 10Z" stroke="#0099FF" stroke-width="1.25"/>
<path d="M9.07942 14.1136C8.80408 14.1136 8.572 13.9975 8.38325 13.7655L5.98189 10.7742C5.90716 10.6837 5.85405 10.5972 5.82258 10.5145C5.79112 10.428 5.77539 10.3395 5.77539 10.249C5.77539 10.0484 5.84201 9.88322 5.97524 9.75339C6.10848 9.61963 6.27916 9.55275 6.48762 9.55275C6.72137 9.55275 6.91606 9.65307 7.07174 9.85372L9.05345 12.4026L12.8909 6.30186C12.9814 6.1681 13.0738 6.07366 13.1682 6.01871C13.2626 5.95965 13.3804 5.93011 13.5222 5.93011C13.7266 5.93011 13.8939 5.99505 14.0237 6.12494C14.1574 6.25072 14.2242 6.41395 14.2242 6.61455C14.2242 6.69323 14.2105 6.77385 14.183 6.85645C14.1594 6.93905 14.1181 7.0256 14.059 7.11606L9.77567 13.4811C9.61052 13.725 9.37845 13.8469 9.07942 13.8469V14.1136Z" fill="white"/>
</g>
<defs>
<clipPath id="clip0_3230_2500">
<rect width="20" height="20" fill="white"/>
</clipPath>
</defs>
</svg>
