<svg width="24" height="24" viewBox="0 0 24 24" fill="none" xmlns="http://www.w3.org/2000/svg">
<path fill-rule="evenodd" clip-rule="evenodd" d="M7.39896 2.39895C7.06702 2.7309 7.06702 3.26909 7.39896 3.60103L15.2676 11.4697C15.4755 11.6776 15.5948 11.7979 15.6754 11.8928C15.7084 11.9316 15.7248 11.9549 15.7318 11.9656C15.7371 11.9882 15.7371 12.0118 15.7318 12.0343C15.7248 12.0451 15.7084 12.0684 15.6754 12.1072C15.5948 12.2021 15.4755 12.3224 15.2676 12.5303L7.39896 20.399C7.06702 20.7309 7.06702 21.2691 7.39896 21.601C7.73091 21.933 8.2691 21.933 8.60105 21.601L16.4899 13.7122C16.6705 13.5316 16.8403 13.3618 16.9714 13.2074C17.1138 13.0397 17.2597 12.8351 17.3452 12.5717C17.466 12.2001 17.466 11.7999 17.3452 11.4283C17.2597 11.1649 17.1138 10.9603 16.9714 10.7926C16.8403 10.6382 16.6705 10.4684 16.4899 10.2878L8.60105 2.39895C8.2691 2.06701 7.73091 2.06701 7.39896 2.39895Z" fill="#1A1A1A"/>
</svg>
