<svg width="16" height="16" viewBox="0 0 16 16" fill="none" xmlns="http://www.w3.org/2000/svg">
<path fill-rule="evenodd" clip-rule="evenodd" d="M14.0674 5.26602C13.8461 5.04472 13.4873 5.04472 13.266 5.26602L8.35362 10.1784C8.215 10.3171 8.13482 10.3966 8.07154 10.4503C8.04566 10.4723 8.03016 10.4832 8.02297 10.4879C8.00791 10.4915 7.99222 10.4915 7.97716 10.4879C7.96997 10.4832 7.95447 10.4723 7.92859 10.4503C7.86531 10.3966 7.78513 10.3171 7.64651 10.1784L2.73409 5.26602C2.5128 5.04472 2.154 5.04472 1.93271 5.26602C1.71141 5.48731 1.71141 5.84611 1.9327 6.0674L6.85861 10.9933C6.97897 11.1137 7.09219 11.2269 7.19512 11.3143C7.30696 11.4093 7.44335 11.5065 7.61894 11.5635C7.86665 11.644 8.13348 11.644 8.38119 11.5635C8.55678 11.5065 8.69317 11.4093 8.80501 11.3143C8.90794 11.2269 9.02116 11.1137 9.14152 10.9933L14.0674 6.0674C14.2887 5.84611 14.2887 5.48731 14.0674 5.26602Z" fill="black" fill-opacity="0.9"/>
</svg>
