<svg width="24" height="24" viewBox="0 0 24 24" fill="none" xmlns="http://www.w3.org/2000/svg">
<path fill-rule="evenodd" clip-rule="evenodd" d="M21.1011 7.89896C20.7692 7.56702 20.231 7.56702 19.8991 7.89896L12.5304 15.2676C12.3225 15.4755 12.2022 15.5948 12.1073 15.6754C12.0685 15.7084 12.0452 15.7248 12.0344 15.7318C12.0119 15.7371 11.9883 15.7371 11.9657 15.7318C11.955 15.7248 11.9317 15.7084 11.8929 15.6754C11.798 15.5948 11.6777 15.4755 11.4698 15.2676L4.10114 7.89896C3.76919 7.56702 3.231 7.56702 2.89906 7.89896C2.56711 8.23091 2.56711 8.7691 2.89906 9.10105L10.2879 16.4899C10.4685 16.6705 10.6383 16.8403 10.7927 16.9714C10.9604 17.1138 11.165 17.2597 11.4284 17.3452C11.8 17.466 12.2002 17.466 12.5718 17.3452C12.8352 17.2597 13.0398 17.1138 13.2075 16.9714C13.3619 16.8403 13.5317 16.6705 13.7123 16.4899L21.1011 9.10105C21.4331 8.7691 21.4331 8.23091 21.1011 7.89896Z" fill="#1A1A1A"/>
</svg>
