<svg width="16" height="16" viewBox="0 0 16 16" fill="none" xmlns="http://www.w3.org/2000/svg">
<path fill-rule="evenodd" clip-rule="evenodd" d="M4.93281 1.59932C4.71151 1.82062 4.71151 2.17941 4.93281 2.40071L10.1786 7.64646C10.3172 7.78508 10.3967 7.86526 10.4505 7.92854C10.4724 7.95442 10.4833 7.96992 10.488 7.97712C10.4916 7.99218 10.4916 8.00786 10.488 8.02292C10.4833 8.03011 10.4724 8.04561 10.4505 8.07149C10.3967 8.13478 10.3172 8.21495 10.1786 8.35357L4.93281 13.5993C4.71151 13.8206 4.71151 14.1794 4.93281 14.4007C5.1541 14.622 5.5129 14.622 5.73419 14.4007L10.9934 9.14146C11.1138 9.0211 11.2271 8.90789 11.3144 8.80496C11.4094 8.69312 11.5066 8.55673 11.5637 8.38114C11.6441 8.13343 11.6441 7.8666 11.5637 7.6189C11.5066 7.44331 11.4094 7.30691 11.3144 7.19508C11.2271 7.09214 11.1138 6.97892 10.9934 6.85856L5.73419 1.59932C5.5129 1.37803 5.1541 1.37803 4.93281 1.59932Z" fill="#3C3C43" fill-opacity="0.75"/>
</svg>
