<svg width="24" height="24" viewBox="0 0 24 24" fill="none" xmlns="http://www.w3.org/2000/svg">
<path d="M12.7703 3.70629C15.8748 0.941375 20.1696 2.0385 23.3373 4.02742C23.5917 4.18716 23.7419 4.46987 23.7321 4.77068C23.7224 5.07148 23.5542 5.3455 23.2899 5.49108C23.1278 5.58035 23.0034 5.71632 22.8815 5.98373C22.7476 6.27752 22.652 6.64628 22.5143 7.17738L22.508 7.20165C22.2357 8.25189 21.8589 9.65868 20.7084 11.1141C20.1415 11.8313 19.3074 12.5514 18.4431 13.0968C17.6027 13.6271 16.5994 14.0777 15.6992 14.0898C15.2296 14.0962 14.8457 13.721 14.8417 13.2517C14.8377 12.7825 15.2152 12.397 15.6848 12.3907C16.1094 12.3849 16.7848 12.1379 17.5402 11.6613C18.2716 11.1997 18.9502 10.6035 19.3758 10.065C20.2916 8.90653 20.5987 7.79778 20.8618 6.78321L20.8871 6.68566C21.0065 6.22335 21.1365 5.72002 21.3343 5.286C21.3877 5.16895 21.4474 5.05332 21.5151 4.94079C18.7691 3.49233 15.8828 3.20494 13.8983 4.97231C13.2716 5.53046 12.8271 6.67128 12.7288 7.9843C12.6659 8.82382 12.7542 9.60212 12.9432 10.2033C13.1937 9.81526 13.4678 9.44226 13.7585 9.09108C14.8985 7.71411 16.3972 6.54981 17.9413 6.15026C18.3958 6.03267 18.8595 6.30576 18.9771 6.76024C19.0947 7.21471 18.8216 7.67846 18.3672 7.79606C17.2936 8.07384 16.0783 8.95491 15.068 10.1752C14.0633 11.3888 13.3634 12.8156 13.2071 14.0521C13.2846 14.3994 13.3443 14.7733 13.3911 15.1523C13.4856 15.9162 13.5351 16.7685 13.5515 17.5988C13.5837 19.2317 13.4896 20.8937 13.3147 21.6836C13.2132 22.1419 12.7594 22.4312 12.301 22.3298C11.8427 22.2283 11.5534 21.7745 11.6549 21.3161C11.7837 20.7344 11.8836 19.2421 11.8518 17.6324C11.8362 16.8415 11.7892 16.0504 11.704 15.3608C11.6166 14.6541 11.4963 14.1173 11.3612 13.7977C10.8032 12.4775 9.18029 11.6497 7.65715 11.5107C7.18966 11.468 6.84528 11.0544 6.88797 10.5869C6.93066 10.1194 7.34424 9.77501 7.81174 9.81769C9.02109 9.92812 10.4496 10.402 11.5456 11.3109C11.2109 10.5793 11.0448 9.70295 11.0137 8.82744C10.9856 8.80469 10.9587 8.77991 10.9332 8.75309C10.6978 8.50544 10.0661 8.11913 9.26159 7.91711C8.46812 7.71787 7.68847 7.74296 7.09459 8.07836C6.0008 8.69609 5.21522 9.31678 4.50168 9.88055C4.43066 9.93667 4.36035 9.99222 4.29051 10.0472C3.86523 10.3817 3.43243 10.7158 2.95755 10.9883C3.67345 11.8271 4.38349 12.5352 5.1939 13.0228C6.21549 13.6375 7.43527 13.9226 9.125 13.5312C9.58877 13.4238 10.0488 13.7023 10.1525 14.1532C10.2562 14.6042 9.96424 15.0569 9.50046 15.1643C7.36981 15.6579 5.68458 15.3027 4.27581 14.4551C2.91626 13.6371 1.85611 12.3821 0.899748 11.1864C0.722436 10.9647 0.672878 10.6692 0.767941 10.4005C0.863005 10.1317 1.08988 9.92592 1.37135 9.85315C1.94638 9.70449 2.44907 9.35379 3.22162 8.74608C3.29047 8.69192 3.36091 8.63622 3.4331 8.57913C4.14603 8.01536 5.03039 7.31603 6.24797 6.6284C7.38258 5.98761 8.67677 6.03092 9.71226 6.29093C10.2325 6.42157 10.7342 6.61843 11.1693 6.85132C11.4044 5.65229 11.9103 4.47218 12.7703 3.70629Z" fill="#1A1A1A"/>
</svg>
