<svg width="20" height="20" viewBox="0 0 20 20" fill="none" xmlns="http://www.w3.org/2000/svg">
<path d="M9.99902 1.66602C14.6013 1.66602 18.3328 5.3968 18.333 9.99902C18.333 14.6014 14.6014 18.333 9.99902 18.333C5.3968 18.3328 1.66602 14.6013 1.66602 9.99902C1.66619 5.39691 5.39691 1.66619 9.99902 1.66602ZM13.5654 6.43457C13.2531 6.12223 12.747 6.1224 12.4346 6.43457L9.99902 8.86914L7.56543 6.43457C7.25309 6.12223 6.74701 6.1224 6.43457 6.43457C6.12223 6.74691 6.12142 7.25299 6.43359 7.56543L8.86816 10L6.43457 12.4346C6.12215 12.747 6.12215 13.253 6.43457 13.5654C6.74701 13.8776 7.25309 13.8778 7.56543 13.5654L9.99902 11.1309L12.4336 13.5654C12.7459 13.8778 13.252 13.8776 13.5645 13.5654C13.8769 13.253 13.8769 12.747 13.5645 12.4346L11.1299 10L13.5654 7.56543C13.8775 7.25307 13.8775 6.74693 13.5654 6.43457Z" fill="#929296"/>
</svg>
