<svg width="24" height="24" viewBox="0 0 24 24" fill="none" xmlns="http://www.w3.org/2000/svg">
<path fill-rule="evenodd" clip-rule="evenodd" d="M4.39886 4.39895C4.73081 4.06701 5.269 4.06701 5.60094 4.39895L11.9999 10.7979L18.3989 4.39895C18.7308 4.06701 19.269 4.06701 19.6009 4.39895C19.9329 4.7309 19.9329 5.26909 19.6009 5.60103L13.202 12L19.6009 18.399C19.9329 18.7309 19.9329 19.2691 19.6009 19.601C19.269 19.933 18.7308 19.933 18.3989 19.601L11.9999 13.2021L5.60094 19.601C5.269 19.933 4.73081 19.933 4.39886 19.601C4.06692 19.2691 4.06692 18.7309 4.39886 18.399L10.7978 12L4.39886 5.60103C4.06692 5.26909 4.06692 4.7309 4.39886 4.39895Z" fill="#1A1A1A"/>
</svg>
