<svg width="24" height="24" viewBox="0 0 24 24" fill="none" xmlns="http://www.w3.org/2000/svg">
<path fill-rule="evenodd" clip-rule="evenodd" d="M6.9422 3.1499H17.0576C17.9511 3.14987 18.7062 3.14984 19.3077 3.23071C19.9466 3.31661 20.538 3.50751 21.0152 3.98465C21.4923 4.4618 21.6832 5.05322 21.7691 5.6921C21.85 6.29363 21.8499 7.04867 21.8499 7.94222V13.0576C21.8499 13.9511 21.85 14.7062 21.7691 15.3077C21.6832 15.9466 21.4923 16.538 21.0152 17.0152C20.538 17.4923 19.9466 17.6832 19.3077 17.7691C18.7062 17.85 17.9511 17.8499 17.0576 17.8499H12.8499V19.1499H16.9999C17.4693 19.1499 17.8499 19.5305 17.8499 19.9999C17.8499 20.4693 17.4693 20.8499 16.9999 20.8499H6.9999C6.53046 20.8499 6.1499 20.4693 6.1499 19.9999C6.1499 19.5305 6.53046 19.1499 6.9999 19.1499H11.1499V17.8499H6.94222C6.04867 17.8499 5.29363 17.85 4.6921 17.7691C4.05322 17.6832 3.4618 17.4923 2.98465 17.0152C2.50751 16.538 2.31661 15.9466 2.23071 15.3077C2.14984 14.7062 2.14987 13.9512 2.1499 13.0577V7.9422C2.14987 7.04867 2.14984 6.29362 2.23071 5.6921C2.31661 5.05322 2.50751 4.4618 2.98465 3.98465C3.4618 3.50751 4.05322 3.31661 4.6921 3.23071C5.29362 3.14984 6.04867 3.14987 6.9422 3.1499ZM4.91862 4.91555C4.46825 4.9761 4.29537 5.07809 4.18673 5.18673C4.07809 5.29537 3.9761 5.46825 3.91555 5.91862C3.85171 6.39345 3.84991 7.03307 3.84991 7.99991V12.9999C3.84991 13.9667 3.85171 14.6064 3.91555 15.0812C3.9761 15.5316 4.07809 15.7044 4.18673 15.8131C4.29537 15.9217 4.46825 16.0237 4.91862 16.0843C5.39345 16.1481 6.03307 16.1499 6.99991 16.1499H16.9999C17.9667 16.1499 18.6064 16.1481 19.0812 16.0843C19.5316 16.0237 19.7044 15.9217 19.8131 15.8131C19.9217 15.7044 20.0237 15.5316 20.0843 15.0812C20.1481 14.6064 20.1499 13.9667 20.1499 12.9999V7.99991C20.1499 7.03307 20.1481 6.39345 20.0843 5.91862C20.0237 5.46825 19.9217 5.29537 19.8131 5.18673C19.7044 5.07809 19.5316 4.9761 19.0812 4.91555C18.6064 4.85171 17.9667 4.84991 16.9999 4.84991H6.99991C6.03307 4.84991 5.39345 4.85171 4.91862 4.91555Z" fill="#1A1A1A"/>
</svg>
