<svg width="24" height="24" viewBox="0 0 24 24" fill="none" xmlns="http://www.w3.org/2000/svg">
<path d="M15.8499 8.9999C15.8499 8.53046 15.4693 8.1499 14.9999 8.1499C14.5305 8.1499 14.1499 8.53046 14.1499 8.9999V14.9999C14.1499 15.4693 14.5305 15.8499 14.9999 15.8499C15.4693 15.8499 15.8499 15.4693 15.8499 14.9999V8.9999Z" fill="#1A1A1A"/>
<path fill-rule="evenodd" clip-rule="evenodd" d="M6.9999 3.6499C4.32132 3.6499 2.1499 5.82132 2.1499 8.4999V8.91166C2.1499 9.3811 2.53046 9.76166 2.9999 9.76166H3.34135C4.5775 9.76166 5.57959 10.7638 5.57959 11.9999C5.57959 13.236 4.5775 14.2381 3.34135 14.2381H2.9999C2.53046 14.2381 2.1499 14.6187 2.1499 15.0881V15.4999C2.1499 18.1785 4.32132 20.3499 6.9999 20.3499H16.9999C19.6785 20.3499 21.8499 18.1785 21.8499 15.4999V15.0881C21.8499 14.6187 21.4693 14.2381 20.9999 14.2381H20.803C19.5668 14.2381 18.5647 13.236 18.5647 11.9999C18.5647 10.7638 19.5668 9.76166 20.803 9.76166H20.9999C21.4693 9.76166 21.8499 9.3811 21.8499 8.91166V8.4999C21.8499 5.82132 19.6785 3.6499 16.9999 3.6499H6.9999ZM7.27959 11.9999C7.27959 10.006 5.7978 8.35816 3.87536 8.09756C4.07293 6.54786 5.39652 5.3499 6.9999 5.3499H16.9999C18.6108 5.3499 19.9393 6.55915 20.1272 8.11943C18.2741 8.43989 16.8647 10.0553 16.8647 11.9999C16.8647 13.9445 18.2741 15.5599 20.1272 15.8804C19.9393 17.4407 18.6108 18.6499 16.9999 18.6499H6.9999C5.39651 18.6499 4.07292 17.4519 3.87536 15.9022C5.7978 15.6416 7.27959 13.9938 7.27959 11.9999Z" fill="#1A1A1A"/>
</svg>
