<svg width="24" height="24" viewBox="0 0 24 24" fill="none" xmlns="http://www.w3.org/2000/svg">
<path fill-rule="evenodd" clip-rule="evenodd" d="M6.7251 7.35C6.7251 4.67142 8.89652 2.5 11.5751 2.5C14.2537 2.5 16.4251 4.67142 16.4251 7.35C16.4251 10.0286 14.2537 12.2 11.5751 12.2C8.89652 12.2 6.7251 10.0286 6.7251 7.35ZM11.5751 4.2C9.8354 4.2 8.4251 5.6103 8.4251 7.35C8.4251 9.0897 9.8354 10.5 11.5751 10.5C13.3148 10.5 14.7251 9.0897 14.7251 7.35C14.7251 5.6103 13.3148 4.2 11.5751 4.2Z" fill="#1A1A1A"/>
<path d="M4.4251 19.35C4.4251 17.058 6.28312 15.2 8.5751 15.2H11.5751C12.0445 15.2 12.4251 14.8194 12.4251 14.35C12.4251 13.8806 12.0445 13.5 11.5751 13.5H8.5751C5.34423 13.5 2.7251 16.1191 2.7251 19.35C2.7251 20.3717 3.55337 21.2 4.5751 21.2H11.5751C12.0445 21.2 12.4251 20.8194 12.4251 20.35C12.4251 19.8806 12.0445 19.5 11.5751 19.5H4.5751C4.49226 19.5 4.4251 19.4328 4.4251 19.35Z" fill="#1A1A1A"/>
<path fill-rule="evenodd" clip-rule="evenodd" d="M17.7354 13.389C17.5798 13.1479 17.313 13.0016 17.0261 13C16.7391 12.9984 16.4707 13.1417 16.3124 13.381C16.0652 13.7546 15.7923 14.1189 15.5006 14.4654C15.4001 14.5849 15.2974 14.7021 15.1928 14.8167C14.8875 15.1515 14.5511 15.4808 14.1878 15.7918C13.8503 16.0805 13.4908 16.3525 13.1124 16.598C12.8691 16.7559 12.723 17.0271 12.7251 17.3172C12.7272 17.6073 12.8771 17.8763 13.1227 18.0307C13.5037 18.2702 13.866 18.5366 14.2063 18.8211C14.5601 19.1168 14.8889 19.4311 15.1891 19.7535C15.2954 19.8677 15.3996 19.9846 15.5016 20.1037C15.7941 20.4457 16.0667 20.8061 16.3132 21.1773C16.4716 21.416 16.7396 21.5587 17.026 21.5571C17.3125 21.5555 17.5789 21.4097 17.7346 21.1693C17.976 20.7969 18.2441 20.4349 18.5338 20.0911C18.6294 19.9775 18.7274 19.866 18.8274 19.7568C19.1248 19.432 19.4512 19.1165 19.8035 18.8203C20.1416 18.5359 20.5026 18.2701 20.8836 18.0313C21.1298 17.877 21.2801 17.6076 21.2822 17.3171C21.2843 17.0266 21.1378 16.7551 20.8939 16.5973C20.5154 16.3525 20.1572 16.0812 19.8219 15.7926C19.4602 15.4812 19.1263 15.1507 18.8237 14.8135C18.7253 14.7039 18.6289 14.592 18.5345 14.4782C18.2457 14.1297 17.9774 13.7638 17.7354 13.389ZM18.267 17.2814C18.267 17.9781 17.7029 18.5429 17.007 18.5429C16.3111 18.5429 15.747 17.9781 15.747 17.2814C15.747 16.5847 16.3111 16.0199 17.007 16.0199C17.7029 16.0199 18.267 16.5847 18.267 17.2814Z" fill="#1A1A1A"/>
</svg>
