<svg width="24" height="24" viewBox="0 0 24 24" fill="none" xmlns="http://www.w3.org/2000/svg">
<path fill-rule="evenodd" clip-rule="evenodd" d="M8.00002 2.65002C8.46947 2.65002 8.85002 3.03058 8.85002 3.50002V4.75532C9.32826 4.75036 9.8428 4.75036 10.3961 4.75037H10.3961H10.451H13.451H13.5058C14.0971 4.75036 14.6442 4.75036 15.15 4.75641V3.50002C15.15 3.03058 15.5306 2.65002 16 2.65002C16.4695 2.65002 16.85 3.03058 16.85 3.50002V4.81868C17.037 4.83265 17.216 4.84947 17.3874 4.86974C18.4279 4.99272 19.298 5.2524 20.0278 5.85127C20.2733 6.0528 20.4985 6.27798 20.7001 6.52356C21.2989 7.25328 21.5586 8.12347 21.6816 9.16388C21.801 10.174 21.801 11.4483 21.801 13.0455V13.0456V13.1004V13.1552V13.1552C21.801 14.7524 21.801 16.0267 21.6816 17.0369C21.5586 18.0773 21.2989 18.9475 20.7001 19.6772C20.4985 19.9227 20.2733 20.1479 20.0278 20.3495C19.298 20.9483 18.4279 21.208 17.3874 21.331C16.3773 21.4504 15.103 21.4504 13.5058 21.4504H13.5057H13.451H10.451H10.3962H10.3961C8.79889 21.4504 7.52458 21.4504 6.51446 21.331C5.47405 21.208 4.60386 20.9483 3.87415 20.3495C3.62857 20.1479 3.40339 19.9227 3.20185 19.6772C2.60299 18.9475 2.3433 18.0773 2.22032 17.0369C2.10092 16.0267 2.10094 14.7524 2.10095 13.1552V13.1004V13.0455C2.10094 11.4483 2.10092 10.174 2.22032 9.16388C2.3433 8.12347 2.60299 7.25328 3.20185 6.52356C3.40339 6.27798 3.62857 6.0528 3.87415 5.85127C4.60386 5.2524 5.47405 4.99272 6.51446 4.86974C6.71568 4.84595 6.92738 4.82691 7.15002 4.81166V3.50002C7.15002 3.03058 7.53058 2.65002 8.00002 2.65002ZM4.95261 7.16538C5.32925 6.85629 5.8341 6.66199 6.71402 6.55798C7.6127 6.45176 8.78639 6.45037 10.451 6.45037H13.451C15.1155 6.45037 16.2892 6.45176 17.1879 6.55798C18.0678 6.66199 18.5727 6.85629 18.9493 7.16538C19.1088 7.29628 19.255 7.44253 19.3859 7.60203C19.695 7.97866 19.8893 8.48352 19.9933 9.36343C20.0996 10.2621 20.101 11.4358 20.101 13.1004C20.101 14.7649 20.0996 15.9386 19.9933 16.8373C19.8893 17.7172 19.695 18.2221 19.3859 18.5987C19.255 18.7582 19.1088 18.9045 18.9493 19.0354C18.5727 19.3444 18.0678 19.5387 17.1879 19.6427C16.2892 19.749 15.1155 19.7504 13.451 19.7504H10.451C8.78639 19.7504 7.6127 19.749 6.71402 19.6427C5.8341 19.5387 5.32925 19.3444 4.95261 19.0354C4.79312 18.9045 4.64687 18.7582 4.51597 18.5987C4.20687 18.2221 4.01258 17.7172 3.90857 16.8373C3.80234 15.9386 3.80095 14.7649 3.80095 13.1004C3.80095 11.4358 3.80234 10.2621 3.90857 9.36343C4.01258 8.48352 4.20687 7.97866 4.51597 7.60203C4.64687 7.44253 4.79312 7.29628 4.95261 7.16538ZM16.5493 11.0115C16.883 10.6814 16.886 10.1432 16.5558 9.80947C16.2257 9.47572 15.6875 9.47279 15.3538 9.80292L10.8965 14.2119L8.54907 11.8915C8.2152 11.5615 7.67702 11.5647 7.34701 11.8985C7.017 12.2324 7.02013 12.7706 7.354 13.1006L10.2992 16.0118C10.6304 16.3391 11.1634 16.339 11.4945 16.0115L16.5493 11.0115Z" fill="#1A1A1A"/>
</svg>
