<svg width="24" height="24" viewBox="0 0 24 24" fill="none" xmlns="http://www.w3.org/2000/svg">
<path fill-rule="evenodd" clip-rule="evenodd" d="M12.0004 6.43817C9.32316 4.50753 5.56556 4.74688 3.15622 7.15622C0.481129 9.83131 0.481129 14.1685 3.15622 16.8436C5.56556 19.2529 9.32316 19.4923 12.0004 17.5616C14.6776 19.4923 18.4352 19.2529 20.8445 16.8436C23.5196 14.1685 23.5196 9.83131 20.8445 7.15622C18.4352 4.74688 14.6776 4.50753 12.0004 6.43817ZM16.0256 10.3382C16.9433 11.2559 16.9433 12.7439 16.0256 13.6616L13.3006 16.3866C15.2856 17.6108 17.9215 17.3624 19.6424 15.6415C21.6536 13.6303 21.6536 10.3695 19.6424 8.3583C17.9215 6.63736 15.2856 6.38899 13.3006 7.61321L16.0256 10.3382ZM12.0004 8.71717L14.8235 11.5403C15.0773 11.7941 15.0773 12.2057 14.8235 12.4595L12.0004 15.2826L9.17727 12.4595C8.92343 12.2057 8.92343 11.7941 9.17727 11.5403L12.0004 8.71717ZM10.7002 7.61321L7.97518 10.3382C7.05745 11.2559 7.05745 12.7439 7.97518 13.6616L10.7002 16.3866C8.71514 17.6108 6.07925 17.3624 4.3583 15.6415C2.3471 13.6303 2.3471 10.3695 4.3583 8.3583C6.07925 6.63736 8.71514 6.38899 10.7002 7.61321Z" fill="#1A1A1A"/>
</svg>
