<svg width="24" height="24" viewBox="0 0 24 24" fill="none" xmlns="http://www.w3.org/2000/svg">
<path d="M11.4956 5.47395L9.80063 3.77901C8.93155 2.90993 7.5225 2.90993 6.65342 3.77901L3.85298 6.57944C2.9839 7.44852 2.9839 8.85757 3.85298 9.72665L5.54793 11.4216L6.75001 10.2195L5.05506 8.52457C4.84988 8.31939 4.84987 7.98671 5.05506 7.78152L7.8555 4.98109C8.06069 4.7759 8.39336 4.7759 8.59855 4.98109L10.2935 6.67603L11.4956 5.47395Z" fill="#1A1A1A"/>
<path d="M13.5807 17.0502L15.5745 19.044C15.7796 19.2491 16.1121 19.2492 16.3173 19.0443L19.1183 16.2433C19.3232 16.0381 19.3231 15.7056 19.118 15.5006L17.1242 13.5067L18.3263 12.3047L20.3201 14.2985C21.1887 15.1671 21.1892 16.5753 20.3212 17.4446L18.9214 18.8464L17.5185 20.2472C16.6493 21.1153 15.2411 21.1148 14.3724 20.2461L12.3786 18.2523L13.5807 17.0502Z" fill="#1A1A1A"/>
<path fill-rule="evenodd" clip-rule="evenodd" d="M14.5455 4.04992C15.4146 3.18085 16.8237 3.18085 17.6927 4.04992L19.7499 6.10706C20.619 6.97614 20.619 8.3852 19.7499 9.25428L10.5962 18.408C10.326 18.6781 9.9909 18.8742 9.62303 18.9772L6.76507 19.7781C5.09369 20.2464 3.55341 18.7061 4.02174 17.0347L4.82256 14.1768C4.92564 13.8089 5.12169 13.4738 5.39184 13.2036L14.5455 4.04992ZM16.4907 5.25201C16.2855 5.04682 15.9528 5.04682 15.7476 5.25201L13.7621 7.23748L16.5623 10.0377L18.5478 8.05219C18.753 7.84701 18.753 7.51433 18.5478 7.30914L16.4907 5.25201ZM6.59392 14.4057L12.5601 8.43956L15.3602 11.2398L9.39411 17.2059C9.33033 17.2697 9.2512 17.316 9.16435 17.3403L6.30639 18.1411C5.91178 18.2517 5.54812 17.888 5.65869 17.4934L6.45951 14.6355C6.48385 14.5486 6.53014 14.4695 6.59392 14.4057Z" fill="#1A1A1A"/>
</svg>
