<svg width="24" height="24" viewBox="0 0 24 24" fill="none" xmlns="http://www.w3.org/2000/svg">
<path fill-rule="evenodd" clip-rule="evenodd" d="M4.64388 13.8343L4.64262 13.833C4.55013 13.7334 4.5119 13.5958 4.5119 13.4369C4.5119 13.2891 4.54446 13.156 4.61393 13.0419C4.67316 12.9396 4.74023 12.8296 4.81509 12.712L6.59051 9.8169C6.70013 9.63605 6.81417 9.48526 6.93319 9.36623C7.07169 9.22774 7.27883 9.16895 7.5319 9.16895H7.7079C7.92716 9.16895 8.11574 9.22393 8.26521 9.34194C8.42742 9.46562 8.50384 9.64713 8.5039 9.86895L8.51164 12.8409H8.9719C9.03995 12.8409 9.10415 12.8582 9.15945 12.8972C9.2136 12.9353 9.2524 12.9893 9.27918 13.0521C9.33291 13.1662 9.3599 13.2868 9.3599 13.4129C9.3599 13.5412 9.32927 13.6635 9.26887 13.7786C9.23941 13.8372 9.2003 13.8875 9.14882 13.9232C9.09616 13.9596 9.03597 13.9769 8.9719 13.9769H8.5119V14.7729C8.5119 14.851 8.49019 14.9232 8.4439 14.9849C8.39892 15.0449 8.33539 15.0888 8.26078 15.1202C8.12503 15.1848 7.98035 15.2169 7.8279 15.2169C7.6752 15.2169 7.53029 15.1847 7.39434 15.1199C7.32165 15.088 7.26006 15.0436 7.2167 14.9833C7.1724 14.9217 7.1519 14.85 7.1519 14.7729V13.9769H5.0119C4.86735 13.9769 4.74165 13.9321 4.64519 13.8357L4.64388 13.8343ZM7.15207 12.841H6.02271L7.15207 10.9993V12.841Z" fill="#1A1A1A"/>
<path fill-rule="evenodd" clip-rule="evenodd" d="M11.8147 15.2569C11.1345 15.2569 10.5827 15.1097 10.1707 14.8049C9.75848 14.4958 9.55471 14.0537 9.55471 13.4929C9.55471 13.1114 9.68094 12.7826 9.93371 12.5126L9.93448 12.5118C10.119 12.3191 10.3349 12.1755 10.5811 12.0812C10.3695 11.979 10.189 11.8358 10.0408 11.6516L10.04 11.6506C9.83404 11.3875 9.73071 11.0857 9.73071 10.7489C9.73071 10.4453 9.82002 10.171 9.99826 9.92956L9.99917 9.92834C10.1818 9.68863 10.4313 9.50277 10.7433 9.36903C11.0566 9.23475 11.4145 9.16895 11.8147 9.16895C12.2097 9.16895 12.5647 9.23477 12.8778 9.3689C13.195 9.5025 13.4474 9.6883 13.6303 9.92834C13.8142 10.1698 13.9067 10.4445 13.9067 10.7489C13.9067 11.085 13.8065 11.3864 13.6063 11.6495L13.6057 11.6503C13.465 11.8312 13.2918 11.9735 13.0876 12.0774C13.3268 12.1693 13.5355 12.312 13.7125 12.5054C13.9599 12.7759 14.0827 13.1071 14.0827 13.4929C14.0827 14.0543 13.8759 14.4964 13.4582 14.8053C13.0462 15.1101 12.4949 15.2569 11.8147 15.2569ZM12.2494 11.3409L12.2507 11.3397C12.3804 11.2192 12.4427 11.0775 12.4427 10.9089C12.4427 10.718 12.3841 10.5826 12.2767 10.488L12.2758 10.4873L12.275 10.4865C12.1638 10.3842 12.0138 10.3289 11.8147 10.3289C11.6161 10.3289 11.4663 10.384 11.3552 10.4859C11.2507 10.5863 11.1947 10.7235 11.1947 10.9089C11.1947 11.0787 11.2554 11.2208 11.3801 11.3409C11.5063 11.4625 11.6497 11.5209 11.8147 11.5209C11.9797 11.5209 12.1231 11.4625 12.2494 11.3409ZM12.4201 13.8824L12.4214 13.8812C12.5523 13.7683 12.6187 13.6209 12.6187 13.4289C12.6187 13.2831 12.5792 13.1639 12.5036 13.0661L12.5027 13.0649L12.5018 13.0638C12.4276 12.9617 12.3303 12.8849 12.2078 12.833L12.2063 12.8324L12.2048 12.8317C12.079 12.7737 11.9492 12.7449 11.8147 12.7449C11.5967 12.7449 11.4083 12.8097 11.2455 12.9388C11.0939 13.063 11.0187 13.2234 11.0187 13.4289C11.0187 13.6221 11.0833 13.7699 11.2093 13.8824C11.3331 13.9929 11.5288 14.0569 11.8147 14.0569C12.1006 14.0569 12.2963 13.9929 12.4201 13.8824Z" fill="#1A1A1A"/>
<path fill-rule="evenodd" clip-rule="evenodd" d="M15.3969 14.8525C15.7532 15.124 16.1916 15.2569 16.7055 15.2569C17.2195 15.2569 17.6578 15.124 18.0141 14.8525C18.3666 14.5839 18.6304 14.2187 18.8068 13.7609C18.9827 13.3048 19.0695 12.7883 19.0695 12.2129C19.0695 11.6376 18.9827 11.1211 18.8068 10.665C18.6304 10.2072 18.3666 9.84196 18.0141 9.5734C17.6578 9.30192 17.2195 9.16895 16.7055 9.16895C16.1916 9.16895 15.7532 9.30192 15.3969 9.5734C15.0444 9.84196 14.7807 10.2072 14.6042 10.665C14.4284 11.1211 14.3415 11.6376 14.3415 12.2129C14.3415 12.7883 14.4284 13.3048 14.6042 13.7609C14.7807 14.2187 15.0444 14.5839 15.3969 14.8525ZM17.2201 10.6123L17.2211 10.6134C17.3516 10.7681 17.4502 10.9836 17.5118 11.2663C17.5741 11.5515 17.6055 11.8669 17.6055 12.2129C17.6055 12.5644 17.574 12.8825 17.5118 13.1676C17.4503 13.4442 17.3519 13.6603 17.2206 13.821C17.0981 13.9659 16.9305 14.0409 16.7055 14.0409C16.4806 14.0409 16.3129 13.9659 16.1904 13.821C16.0591 13.6603 15.9607 13.4441 15.8992 13.1673C15.837 12.8823 15.8055 12.5643 15.8055 12.2129C15.8055 11.8669 15.837 11.5515 15.8992 11.2663C15.9609 10.9836 16.0594 10.7681 16.19 10.6134L16.1909 10.6123C16.3138 10.4621 16.4814 10.3849 16.7055 10.3849C16.9297 10.3849 17.0972 10.4621 17.2201 10.6123Z" fill="#1A1A1A"/>
<path fill-rule="evenodd" clip-rule="evenodd" d="M10.9557 2.65137H13.0441C14.6434 2.65136 15.9043 2.65135 16.9133 2.74728C17.9441 2.8453 18.7993 3.04943 19.5565 3.51342C20.3437 3.99579 21.0055 4.6576 21.4878 5.44475C21.9518 6.20193 22.156 7.05714 22.254 8.08801C22.3499 9.09693 22.3499 10.3579 22.3499 11.9571V12.0457C22.3499 13.6449 22.3499 14.9058 22.254 15.9147C22.156 16.9456 21.9518 17.8008 21.4878 18.558C21.0055 19.3451 20.3437 20.0069 19.5565 20.4893C18.7993 20.9533 17.9441 21.1574 16.9133 21.2555C15.9043 21.3514 14.6433 21.3514 13.0441 21.3514H10.9556C9.35638 21.3514 8.09546 21.3514 7.08654 21.2555C6.05568 21.1574 5.20046 20.9533 4.44329 20.4893C3.65614 20.0069 2.99432 19.3451 2.51196 18.558C2.04796 17.8008 1.84383 16.9456 1.74582 15.9147C1.64989 14.9058 1.64989 13.6448 1.6499 12.0456V11.9572C1.64989 10.3579 1.64989 9.09695 1.74582 8.08801C1.84383 7.05714 2.04796 6.20193 2.51196 5.44475C2.99432 4.6576 3.65614 3.99579 4.44329 3.51342C5.20046 3.04943 6.05567 2.8453 7.08654 2.74728C8.09549 2.65135 9.35643 2.65136 10.9557 2.65137ZM7.24746 4.43965C6.34102 4.52584 5.77671 4.69011 5.33153 4.96291C4.77313 5.3051 4.30364 5.77459 3.96145 6.333C3.68864 6.77817 3.52437 7.34249 3.43819 8.24892C3.3508 9.168 3.3499 10.3482 3.3499 12.0014C3.3499 13.6545 3.3508 14.8347 3.43819 15.7538C3.52437 16.6602 3.68864 17.2246 3.96145 17.6697C4.30364 18.2281 4.77313 18.6976 5.33153 19.0398C5.77671 19.3126 6.34102 19.4769 7.24746 19.5631C8.16654 19.6505 9.34673 19.6514 10.9999 19.6514H12.9999C14.6531 19.6514 15.8333 19.6505 16.7523 19.5631C17.6588 19.4769 18.2231 19.3126 18.6683 19.0398C19.2267 18.6976 19.6962 18.2281 20.0384 17.6697C20.3112 17.2246 20.4754 16.6602 20.5616 15.7538C20.649 14.8347 20.6499 13.6545 20.6499 12.0014C20.6499 10.3482 20.649 9.168 20.5616 8.24892C20.4754 7.34249 20.3112 6.77817 20.0384 6.333C19.6962 5.77459 19.2267 5.3051 18.6683 4.96291C18.2231 4.69011 17.6588 4.52584 16.7523 4.43965C15.8333 4.35226 14.6531 4.35137 12.9999 4.35137H10.9999C9.34673 4.35137 8.16654 4.35226 7.24746 4.43965Z" fill="#1A1A1A"/>
</svg>
