<svg width="24" height="24" viewBox="0 0 24 24" fill="none" xmlns="http://www.w3.org/2000/svg">
<path fill-rule="evenodd" clip-rule="evenodd" d="M10.9557 2.6499H13.0441C14.6434 2.64989 15.9043 2.64989 16.9133 2.74582C17.9441 2.84383 18.7993 3.04796 19.5565 3.51196C20.3437 3.99432 21.0055 4.65614 21.4878 5.44329C21.9518 6.20046 22.156 7.05567 22.254 8.08654C22.3499 9.09548 22.3499 10.3564 22.3499 11.9557V12.0441C22.3499 13.6434 22.3499 14.9043 22.254 15.9133C22.156 16.9441 21.9518 17.7993 21.4878 18.5565C21.0055 19.3437 20.3437 20.0055 19.5565 20.4878C18.7993 20.9518 17.9441 21.156 16.9133 21.254C15.9043 21.3499 14.6434 21.3499 13.0441 21.3499H10.9557C9.35642 21.3499 8.09548 21.3499 7.08654 21.254C6.05567 21.156 5.20046 20.9518 4.44329 20.4878C3.65614 20.0055 2.99432 19.3437 2.51196 18.5565C2.04796 17.7993 1.84383 16.9441 1.74582 15.9133C1.64989 14.9043 1.64989 13.6434 1.6499 12.0441V11.9557C1.64989 10.3564 1.64989 9.09549 1.74582 8.08654C1.84383 7.05567 2.04796 6.20046 2.51196 5.44329C2.99432 4.65614 3.65614 3.99432 4.44329 3.51196C5.20046 3.04796 6.05567 2.84383 7.08654 2.74582C8.09549 2.64989 9.35643 2.64989 10.9557 2.6499ZM7.24746 4.43819C6.34102 4.52437 5.77671 4.68864 5.33153 4.96145C4.77313 5.30364 4.30364 5.77313 3.96145 6.33153C3.68864 6.77671 3.52437 7.34102 3.43819 8.24746C3.3508 9.16654 3.3499 10.3467 3.3499 11.9999C3.3499 13.6531 3.3508 14.8333 3.43819 15.7523C3.52437 16.6588 3.68864 17.2231 3.96145 17.6683C4.30364 18.2267 4.77313 18.6962 5.33153 19.0384C5.77671 19.3112 6.34102 19.4754 7.24746 19.5616C8.16654 19.649 9.34673 19.6499 10.9999 19.6499H12.9999C14.6531 19.6499 15.8333 19.649 16.7523 19.5616C17.6588 19.4754 18.2231 19.3112 18.6683 19.0384C19.2267 18.6962 19.6962 18.2267 20.0384 17.6683C20.3112 17.2231 20.4754 16.6588 20.5616 15.7523C20.649 14.8333 20.6499 13.6531 20.6499 11.9999C20.6499 10.3467 20.649 9.16654 20.5616 8.24746C20.4754 7.34102 20.3112 6.77671 20.0384 6.33153C19.6962 5.77313 19.2267 5.30364 18.6683 4.96145C18.2231 4.68864 17.6588 4.52437 16.7523 4.43819C15.8333 4.3508 14.6531 4.3499 12.9999 4.3499H10.9999C9.34673 4.3499 8.16654 4.3508 7.24746 4.43819Z" fill="#1A1A1A"/>
<path fill-rule="evenodd" clip-rule="evenodd" d="M18.2929 10.8508C18.188 10.7226 18.0451 10.6565 17.8523 10.6565C17.6595 10.6565 17.5166 10.7226 17.4117 10.8508L17.4107 10.852C17.2982 10.9853 17.2127 11.1718 17.159 11.4178C17.1048 11.6664 17.0773 11.9415 17.0773 12.2435C17.0773 12.5503 17.1048 12.8277 17.159 13.0762C17.2125 13.3167 17.2979 13.5038 17.4112 13.6425C17.5157 13.7661 17.6586 13.8305 17.8523 13.8305C18.0459 13.8305 18.1889 13.7661 18.2934 13.6425C18.4067 13.5038 18.4922 13.3166 18.5457 13.0759C18.5998 12.8274 18.6273 12.5502 18.6273 12.2435C18.6273 11.9415 18.5998 11.6664 18.5456 11.4178C18.4919 11.1718 18.4064 10.9853 18.2939 10.852L18.2929 10.8508ZM17.8523 14.9195C17.4003 14.9195 17.014 14.8025 16.6997 14.563C16.3892 14.3265 16.1571 14.0049 16.002 13.6025C15.8475 13.2017 15.7713 12.7481 15.7713 12.2435C15.7713 11.7388 15.8475 11.2853 16.002 10.8845C16.1571 10.4821 16.3892 10.1605 16.6997 9.92394C17.014 9.68445 17.4003 9.56748 17.8523 9.56748C18.3042 9.56748 18.6906 9.68445 19.0049 9.92394C19.3154 10.1605 19.5474 10.4821 19.7026 10.8845C19.8571 11.2853 19.9333 11.7388 19.9333 12.2435C19.9333 12.7481 19.8571 13.2017 19.7026 13.6025C19.5474 14.0049 19.3154 14.3265 19.0049 14.563C18.6906 14.8025 18.3042 14.9195 17.8523 14.9195Z" fill="#1A1A1A"/>
<path fill-rule="evenodd" clip-rule="evenodd" d="M12.3268 14.5215C11.9626 14.2483 11.7828 13.8576 11.7828 13.3635C11.7828 13.0266 11.8944 12.7358 12.1178 12.4971L12.1186 12.4963C12.2747 12.3332 12.4564 12.2101 12.6626 12.1269C12.4868 12.0377 12.3358 11.9154 12.2109 11.7602L12.2101 11.7591C12.0281 11.5267 11.9368 11.2599 11.9368 10.9625C11.9368 10.6941 12.0158 10.4516 12.1734 10.2381L12.1743 10.2369C12.3356 10.0252 12.5557 9.86131 12.8304 9.74357C13.1064 9.62528 13.4212 9.56748 13.7728 9.56748C14.1198 9.56748 14.4322 9.62531 14.7079 9.74343C14.9871 9.86104 15.2098 10.0248 15.3714 10.2369C15.534 10.4504 15.6158 10.6933 15.6158 10.9625C15.6158 11.2592 15.5273 11.5256 15.3504 11.758L15.3498 11.7589C15.2311 11.9114 15.0864 12.0328 14.9167 12.1233C15.1171 12.2046 15.2928 12.3272 15.4426 12.491C15.6613 12.7301 15.7698 13.023 15.7698 13.3635C15.7698 13.8581 15.5873 14.2489 15.2183 14.5219C14.855 14.7906 14.3697 14.9195 13.7728 14.9195C13.176 14.9195 12.6901 14.7902 12.3268 14.5215ZM14.1458 11.4702C14.2568 11.3671 14.3098 11.2463 14.3098 11.1025C14.3098 10.9382 14.2595 10.8234 14.1688 10.7436L14.1679 10.7428L14.1671 10.7421C14.0726 10.6551 13.9446 10.6075 13.7728 10.6075C13.6016 10.6075 13.4737 10.6548 13.3793 10.7414C13.2908 10.8265 13.2428 10.9431 13.2428 11.1025C13.2428 11.2476 13.2945 11.3687 13.4012 11.4714C13.5094 11.5757 13.6319 11.6255 13.7728 11.6255C13.9138 11.6255 14.0362 11.5757 14.1445 11.4714L14.1458 11.4702ZM14.2955 13.6937C14.4071 13.5975 14.4638 13.4721 14.4638 13.3075C14.4638 13.1823 14.4299 13.0808 14.3657 12.9976L14.3648 12.9965L14.364 12.9953C14.3004 12.9079 14.2171 12.8421 14.1119 12.7976L14.1104 12.797L14.1089 12.7963C14.0004 12.7462 13.8887 12.7215 13.7728 12.7215C13.5848 12.7215 13.4228 12.7772 13.2826 12.8883C13.153 12.9946 13.0888 13.1313 13.0888 13.3075C13.0888 13.4733 13.1441 13.5991 13.2514 13.6949C13.3566 13.7888 13.5243 13.8445 13.7728 13.8445C14.0214 13.8445 14.1891 13.7888 14.2942 13.6949L14.2955 13.6937Z" fill="#1A1A1A"/>
<path fill-rule="evenodd" clip-rule="evenodd" d="M10.148 10.8508C10.0431 10.7226 9.90019 10.6565 9.70736 10.6565C9.51454 10.6565 9.37166 10.7226 9.26676 10.8508L9.26579 10.852C9.15328 10.9853 9.06774 11.1718 9.01406 11.4178C8.95983 11.6664 8.93236 11.9415 8.93236 12.2435C8.93236 12.5502 8.95983 12.8275 9.01402 13.0759C9.06752 13.3166 9.15294 13.5038 9.26627 13.6426C9.37076 13.7661 9.51373 13.8305 9.70736 13.8305C9.90099 13.8305 10.044 13.7661 10.1485 13.6426C10.2618 13.5038 10.3472 13.3167 10.4007 13.076C10.4549 12.8276 10.4824 12.5502 10.4824 12.2435C10.4824 11.9415 10.4549 11.6664 10.4007 11.4178C10.347 11.1718 10.2614 10.9853 10.1489 10.852L10.148 10.8508ZM9.70736 14.9195C9.25542 14.9195 8.86908 14.8025 8.55476 14.563C8.24428 14.3265 8.01221 14.0049 7.85706 13.6025C7.70254 13.2017 7.62636 12.7481 7.62636 12.2435C7.62636 11.7388 7.70254 11.2853 7.85706 10.8845C8.01221 10.4821 8.24428 10.1605 8.55476 9.92394C8.86908 9.68445 9.25542 9.56748 9.70736 9.56748C10.1593 9.56748 10.5456 9.68445 10.86 9.92394C11.1704 10.1605 11.4025 10.4821 11.5577 10.8845C11.7122 11.2853 11.7884 11.7388 11.7884 12.2435C11.7884 12.7481 11.7122 13.2017 11.5577 13.6025C11.4025 14.0049 11.1704 14.3265 10.86 14.563C10.5456 14.8025 10.1593 14.9195 9.70736 14.9195Z" fill="#1A1A1A"/>
<path fill-rule="evenodd" clip-rule="evenodd" d="M4.05136 10.6363L4.0512 10.6342C4.04554 10.5606 4.05479 10.4901 4.08596 10.4278C4.11763 10.3644 4.16818 10.3171 4.23172 10.2853L5.12154 9.82985L5.12276 9.82927C5.23182 9.7771 5.35459 9.72282 5.49092 9.66639C5.64112 9.60141 5.78971 9.56748 5.9359 9.56748C6.16219 9.56748 6.34648 9.63796 6.46426 9.79696C6.57264 9.94328 6.6239 10.1216 6.6239 10.3255V14.4555C6.6239 14.5294 6.60255 14.5978 6.55868 14.6569C6.51586 14.7145 6.45545 14.7581 6.38448 14.791C6.2549 14.853 6.11904 14.8845 5.9779 14.8845C5.83651 14.8845 5.70042 14.8529 5.57063 14.7906C5.50138 14.7574 5.44268 14.7133 5.40128 14.6554C5.35914 14.5964 5.3389 14.5285 5.3389 14.4555V11.0539L4.7927 11.3519C4.67065 11.4165 4.54193 11.39 4.42443 11.3117L4.42212 11.3101L4.4199 11.3085C4.31416 11.2292 4.22989 11.1288 4.16724 11.0087C4.10583 10.891 4.0671 10.7674 4.05162 10.6384L4.05136 10.6363Z" fill="#1A1A1A"/>
</svg>
