<svg width="24" height="24" viewBox="0 0 24 24" fill="none" xmlns="http://www.w3.org/2000/svg">
<path d="M7.9999 2.1499C7.53046 2.1499 7.1499 2.53046 7.1499 2.9999C7.1499 3.46934 7.53046 3.8499 7.9999 3.8499H15.9999C16.4693 3.8499 16.8499 3.46934 16.8499 2.9999C16.8499 2.53046 16.4693 2.1499 15.9999 2.1499H7.9999Z" fill="#1A1A1A"/>
<path d="M9.9999 16.8501C9.53046 16.8501 9.1499 16.4695 9.1499 16.0001V11.0001C9.1499 10.5307 9.53046 10.1501 9.9999 10.1501C10.4693 10.1501 10.8499 10.5307 10.8499 11.0001V16.0001C10.8499 16.4695 10.4693 16.8501 9.9999 16.8501Z" fill="#1A1A1A"/>
<path d="M13.1499 16.0001C13.1499 16.4695 13.5305 16.8501 13.9999 16.8501C14.4693 16.8501 14.8499 16.4695 14.8499 16.0001V11.0001C14.8499 10.5307 14.4693 10.1501 13.9999 10.1501C13.5305 10.1501 13.1499 10.5307 13.1499 11.0001V16.0001Z" fill="#1A1A1A"/>
<path fill-rule="evenodd" clip-rule="evenodd" d="M2.1499 6.9999C2.1499 6.53046 2.53046 6.1499 2.9999 6.1499H20.9999C21.4693 6.1499 21.8499 6.53046 21.8499 6.9999C21.8499 7.46934 21.4693 7.8499 20.9999 7.8499H19.7932L19.2726 15.3798C19.2111 16.2685 19.1616 16.9854 19.0751 17.5651C18.9859 18.1627 18.849 18.6827 18.5762 19.1597C18.1404 19.9215 17.4844 20.5337 16.6944 20.9158C16.1998 21.1551 15.6715 21.2558 15.0692 21.3036C14.4849 21.3499 13.7663 21.3499 12.8755 21.3499H11.1244C10.2335 21.3499 9.51488 21.3499 8.9306 21.3036C8.32831 21.2558 7.80005 21.1551 7.30544 20.9158C6.51538 20.5337 5.85939 19.9215 5.42365 19.1597C5.15085 18.6827 5.01392 18.1627 4.92474 17.5651C4.83822 16.9854 4.78866 16.2685 4.72723 15.3798L4.20664 7.8499H2.9999C2.53046 7.8499 2.1499 7.46934 2.1499 6.9999ZM5.9107 7.8499H18.0891L17.5791 15.2275C17.5146 16.1594 17.4691 16.809 17.3937 17.3142C17.3198 17.8091 17.2259 18.0963 17.1005 18.3156C16.835 18.7797 16.4354 19.1527 15.9541 19.3855C15.7267 19.4955 15.4337 19.5694 14.9348 19.6089C14.4256 19.6493 13.7745 19.6499 12.8404 19.6499H11.1594C10.2253 19.6499 9.57417 19.6493 9.06498 19.6089C8.56614 19.5694 8.27309 19.4955 8.04569 19.3855C7.56439 19.1527 7.16477 18.7797 6.89931 18.3156C6.7739 18.0963 6.67998 17.8091 6.60611 17.3142C6.53071 16.809 6.48519 16.1594 6.42076 15.2275L5.9107 7.8499Z" fill="#1A1A1A"/>
</svg>
