<svg width="24" height="24" viewBox="0 0 24 24" fill="none" xmlns="http://www.w3.org/2000/svg">
<path fill-rule="evenodd" clip-rule="evenodd" d="M2.6499 11.9999C2.6499 6.83604 6.83604 2.6499 11.9999 2.6499C17.1638 2.6499 21.3499 6.83604 21.3499 11.9999V18.4999C21.3499 20.0739 20.0739 21.3499 18.4999 21.3499H17.2499C16.2282 21.3499 15.3999 20.5216 15.3999 19.4999V15.4999C15.3999 13.9259 16.6759 12.6499 18.2499 12.6499H19.6499V11.9999C19.6499 7.77492 16.2249 4.3499 11.9999 4.3499C7.77492 4.3499 4.3499 7.77492 4.3499 11.9999V12.6499H5.7499C7.32391 12.6499 8.5999 13.9259 8.5999 15.4999V19.4999C8.5999 20.5216 7.77163 21.3499 6.7499 21.3499H5.4999C3.92589 21.3499 2.6499 20.0739 2.6499 18.4999V11.9999ZM4.3499 14.3499V18.4999C4.3499 19.135 4.86477 19.6499 5.4999 19.6499H6.7499C6.83274 19.6499 6.8999 19.5827 6.8999 19.4999V15.4999C6.8999 14.8648 6.38503 14.3499 5.7499 14.3499H4.3499ZM19.6499 14.3499H18.2499C17.6148 14.3499 17.0999 14.8648 17.0999 15.4999V19.4999C17.0999 19.5827 17.1671 19.6499 17.2499 19.6499H18.4999C19.135 19.6499 19.6499 19.135 19.6499 18.4999V14.3499Z" fill="#1A1A1A"/>
</svg>
