<svg width="24" height="24" viewBox="0 0 24 24" fill="none" xmlns="http://www.w3.org/2000/svg">
<path fill-rule="evenodd" clip-rule="evenodd" d="M12 21C16.9706 21 21 16.9706 21 12C21 7.02944 16.9706 3 12 3C7.02944 3 3 7.02944 3 12C3 16.9706 7.02944 21 12 21ZM16.6332 14.675C16.868 14.2685 16.7287 13.7486 16.3221 13.5139C15.9156 13.2792 15.3957 13.4185 15.161 13.825C14.8406 14.3799 14.3799 14.8406 13.825 15.161C13.2701 15.4813 12.6407 15.65 12 15.65C11.3593 15.65 10.7299 15.4813 10.175 15.161C9.62013 14.8406 9.15936 14.3799 8.83901 13.825C8.60429 13.4185 8.08443 13.2792 7.67789 13.5139C7.27134 13.7486 7.13204 14.2685 7.36676 14.675C7.83632 15.4883 8.5117 16.1637 9.325 16.6332C10.1383 17.1028 11.0609 17.35 12 17.35C12.9391 17.35 13.8617 17.1028 14.675 16.6332C15.4883 16.1637 16.1637 15.4883 16.6332 14.675ZM8.84961 7.55002C9.31905 7.55002 9.69961 7.93058 9.69961 8.40002V11.1C9.69961 11.5695 9.31905 11.95 8.84961 11.95C8.38017 11.95 7.99961 11.5695 7.99961 11.1V8.40002C7.99961 7.93058 8.38017 7.55002 8.84961 7.55002ZM15.9984 8.40002C15.9984 7.93058 15.6179 7.55002 15.1484 7.55002C14.679 7.55002 14.2984 7.93058 14.2984 8.40002V11.1C14.2984 11.5695 14.679 11.95 15.1484 11.95C15.6179 11.95 15.9984 11.5695 15.9984 11.1V8.40002Z" fill="#1A1A1A"/>
</svg>
