<svg width="16" height="16" viewBox="0 0 16 16" fill="none" xmlns="http://www.w3.org/2000/svg">
<path fill-rule="evenodd" clip-rule="evenodd" d="M11.3711 9.79928C11.5924 9.5783 11.9507 9.57814 12.1719 9.79928C12.3931 10.0205 12.3929 10.3787 12.1719 10.6001L8.40044 14.3715L8.35747 14.4106C8.1349 14.5921 7.80711 14.579 7.59966 14.3715L3.82817 10.6001L3.78911 10.5581C3.60758 10.3355 3.62071 10.0068 3.82817 9.79928C4.03564 9.59186 4.36441 9.5787 4.58696 9.76022L4.62895 9.79928L8.00005 13.1704L11.3711 9.79928ZM7.64263 1.58932C7.86517 1.40791 8.19301 1.42101 8.40044 1.62839L12.1719 5.39987L12.211 5.44284C12.3923 5.66539 12.3793 5.99327 12.1719 6.20065C11.9645 6.40812 11.6357 6.42125 11.4131 6.23971L11.3711 6.20065L8.00005 2.82956L4.62895 6.20065C4.40764 6.42175 4.0494 6.42188 3.82817 6.20065C3.607 5.97942 3.60709 5.62116 3.82817 5.39987L7.59966 1.62839L7.64263 1.58932Z" fill="#3C3C43" fill-opacity="0.75"/>
</svg>
