<svg width="24" height="24" viewBox="0 0 24 24" fill="none" xmlns="http://www.w3.org/2000/svg">
<path fill-rule="evenodd" clip-rule="evenodd" d="M20.2071 5.38529L20.2109 5.3841L20.2143 5.38682L20.2173 5.39004L20.2164 5.39391L16.48 19.1226L16.479 19.1258L16.4755 19.1274L16.4732 19.1281L16.4716 19.1283L16.4688 19.1264L12.5063 16.1346C11.9686 15.7286 11.2425 15.6768 10.6526 16.0024L8.89863 16.9706L8.89488 16.9726L8.89098 16.9702L8.88749 16.9672L8.88816 16.9631L9.25114 15.0633C9.39104 14.331 9.03962 13.5927 8.3831 13.2395L4.17268 10.9745L4.1689 10.9723L4.16894 10.9676L4.16964 10.963L4.17372 10.9614L20.2071 5.38529ZM21.8567 5.84034C22.2173 4.51543 20.9456 3.32858 19.6487 3.77963L3.61529 9.35575C2.21186 9.84384 2.05874 11.7676 3.36729 12.4716L7.57771 14.7366C7.58046 14.7381 7.58193 14.7412 7.58134 14.7442L7.21837 16.644C6.94698 18.0645 8.45414 19.1578 9.72019 18.4589L11.4742 17.4907C11.4767 17.4894 11.4797 17.4896 11.4819 17.4913L15.4445 20.4831C16.4086 21.2111 17.8031 20.7347 18.1204 19.569L21.8567 5.84034ZM16.7076 8.75528C16.7852 8.69356 16.7135 8.57135 16.6218 8.60888L11.2249 10.8169C11.1541 10.8458 11.1538 10.946 11.2244 10.9753L12.8126 11.6356C12.8676 11.6584 12.8831 11.729 12.8427 11.7728L10.823 13.9648C10.7579 14.0354 10.8403 14.1432 10.9255 14.099L15.9858 11.4727C16.0508 11.439 16.0463 11.3446 15.9784 11.3172L14.4636 10.7047C14.4027 10.6801 14.391 10.599 14.4423 10.5581L16.7076 8.75528Z" fill="#1A1A1A"/>
</svg>
