<svg width="24" height="24" viewBox="0 0 24 24" fill="none" xmlns="http://www.w3.org/2000/svg">
<path d="M4.8499 8.49941C4.8499 8.96886 4.46934 9.34941 3.9999 9.34941C3.53046 9.34941 3.1499 8.96886 3.1499 8.49941V6.99941C3.1499 4.87312 4.87361 3.14941 6.9999 3.14941H8.4999C8.96934 3.14941 9.3499 3.52997 9.3499 3.99941C9.3499 4.46886 8.96934 4.84941 8.4999 4.84941H6.9999C5.81249 4.84941 4.8499 5.812 4.8499 6.99941V8.49941Z" fill="#1A1A1A"/>
<path d="M19.1501 15.5002C19.1501 15.0308 19.5307 14.6502 20.0001 14.6502C20.4695 14.6502 20.8501 15.0308 20.8501 15.5002V17.0002C20.8501 19.1265 19.1264 20.8502 17.0001 20.8502H15.5001C15.0307 20.8502 14.6501 20.4696 14.6501 20.0002C14.6501 19.5308 15.0307 19.1502 15.5001 19.1502H17.0001C18.1875 19.1502 19.1501 18.1876 19.1501 17.0002V15.5002Z" fill="#1A1A1A"/>
<path d="M20.0001 9.34941C19.5307 9.34941 19.1501 8.96886 19.1501 8.49941V6.99941C19.1501 5.812 18.1875 4.84941 17.0001 4.84941H15.5001C15.0307 4.84941 14.6501 4.46886 14.6501 3.99941C14.6501 3.52997 15.0307 3.14941 15.5001 3.14941H17.0001C19.1264 3.14941 20.8501 4.87312 20.8501 6.99941V8.49941C20.8501 8.96886 20.4695 9.34941 20.0001 9.34941Z" fill="#1A1A1A"/>
<path d="M4.8499 15.5002C4.8499 15.0308 4.46934 14.6502 3.9999 14.6502C3.53046 14.6502 3.1499 15.0308 3.1499 15.5002V17.0002C3.1499 19.1265 4.87361 20.8502 6.9999 20.8502H8.4999C8.96934 20.8502 9.3499 20.4696 9.3499 20.0002C9.3499 19.5308 8.96934 19.1502 8.4999 19.1502H6.9999C5.81249 19.1502 4.8499 18.1876 4.8499 17.0002V15.5002Z" fill="#1A1A1A"/>
<path d="M8.4999 8.1502C8.96934 8.1502 9.3499 8.53075 9.3499 9.0002V10.5002C9.3499 10.9696 8.96934 11.3502 8.4999 11.3502C8.03046 11.3502 7.6499 10.9696 7.6499 10.5002V9.0002C7.6499 8.53075 8.03046 8.1502 8.4999 8.1502Z" fill="#1A1A1A"/>
<path d="M16.3502 8.99895C16.3502 8.52951 15.9697 8.14893 15.5003 8.14892C15.0308 8.1489 14.6502 8.52945 14.6502 8.99889L14.6502 10.4989C14.6502 10.9683 15.0307 11.3489 15.5001 11.3489C15.9696 11.3489 16.3502 10.9684 16.3502 10.499L16.3502 8.99895Z" fill="#1A1A1A"/>
<path d="M11.9999 8.1502C12.4693 8.1502 12.8499 8.53075 12.8499 9.0002V12.0002C12.8499 12.4696 12.4693 12.8502 11.9999 12.8502C11.5305 12.8502 11.1499 12.4696 11.1499 12.0002V9.0002C11.1499 8.53075 11.5305 8.1502 11.9999 8.1502Z" fill="#1A1A1A"/>
<path d="M9.99236 13.9273C9.63062 13.6281 9.09483 13.6788 8.79562 14.0405C8.49642 14.4022 8.54712 14.938 8.90886 15.2372C9.77289 15.9519 10.8578 16.3451 11.9791 16.3499C13.1004 16.3548 14.1887 15.9709 15.0589 15.2637C15.4232 14.9677 15.4785 14.4323 15.1824 14.068C14.8863 13.7037 14.351 13.6484 13.9867 13.9445C13.4215 14.4038 12.7147 14.6531 11.9865 14.6499C11.2582 14.6468 10.5535 14.3914 9.99236 13.9273Z" fill="#1A1A1A"/>
</svg>
