<svg width="24" height="24" viewBox="0 0 24 24" fill="none" xmlns="http://www.w3.org/2000/svg">
<path d="M18.5059 13.374C18.5059 13.0476 18.8905 12.8787 19.126 13.1016L22.833 16.6104C23.0555 16.821 23.0555 17.179 22.833 17.3896L19.126 20.8984C18.8905 21.1214 18.5059 20.9524 18.5059 20.626V18.6992H16.2764C15.7062 18.6993 15.1714 18.9786 14.8398 19.4482L14.3818 20.0967C14.2627 20.2653 14 20.18 14 19.9727V17.9893C14.0002 16.5081 15.1864 15.3076 16.6494 15.3076H18.5059V13.374ZM9.7041 3.65039C10.3253 3.64997 10.8086 3.64955 11.2607 3.78516C11.6586 3.90464 12.0305 4.101 12.3535 4.3623C12.7203 4.65927 12.9929 5.05807 13.3428 5.57129C13.3624 5.6001 13.3822 5.63063 13.4023 5.66016L13.623 5.9834H17.0166C17.6897 5.98339 18.2468 5.98349 18.7002 6.02051C19.1713 6.05903 19.6064 6.14166 20.0146 6.34961C20.6469 6.67189 21.1622 7.18608 21.4844 7.81836C21.6923 8.22658 21.775 8.66171 21.8135 9.13281C21.8505 9.58625 21.8506 10.1433 21.8506 10.8164V13.3389L20.2949 11.8672C20.2478 11.8226 20.1993 11.7813 20.1504 11.7422V10.8164C20.1504 10.1184 20.1492 9.6404 20.1191 9.27148C20.0893 8.90662 20.0353 8.71984 19.9697 8.59082C19.8105 8.27837 19.5555 8.02358 19.2432 7.86426C19.1142 7.79855 18.9278 7.74475 18.5625 7.71484C18.1935 7.6847 17.7149 7.68358 17.0166 7.68359H12.7256L12.2188 6.94141L11.998 6.61816C11.9776 6.58815 11.957 6.55796 11.9375 6.5293C11.5512 5.9626 11.419 5.7928 11.2842 5.68359C11.133 5.56132 10.9586 5.47004 10.7725 5.41406C10.6063 5.36419 10.3921 5.35013 9.70605 5.35059H6.98438C6.28606 5.35057 5.80747 5.35172 5.43848 5.38184C5.07316 5.41169 4.88685 5.46561 4.75781 5.53125C4.44517 5.69055 4.19056 5.94517 4.03125 6.25781C3.96557 6.38684 3.91171 6.57308 3.88184 6.93848C3.85172 7.30747 3.85057 7.78605 3.85059 8.48438V15.5166C3.85057 16.2149 3.85169 16.6935 3.88184 17.0625C3.91172 17.4277 3.96557 17.6142 4.03125 17.7432C4.19057 18.0556 4.44535 18.3105 4.75781 18.4697C4.88683 18.5353 5.07348 18.5893 5.43848 18.6191C5.80747 18.6493 6.2861 18.6504 6.98438 18.6504H12.2998V19.9727C12.2998 20.1039 12.3136 20.2299 12.3369 20.3506H6.98438C6.31109 20.3506 5.75333 20.3505 5.2998 20.3135C4.82895 20.275 4.39436 20.192 3.98633 19.9844C3.35399 19.6622 2.83891 19.1469 2.5166 18.5146C2.30878 18.1066 2.22603 17.672 2.1875 17.2012C2.15045 16.7477 2.15038 16.1899 2.15039 15.5166V8.48438C2.15038 7.81105 2.15047 7.25334 2.1875 6.7998C2.22601 6.32881 2.30876 5.89447 2.5166 5.48633C2.83889 4.85381 3.35381 4.33889 3.98633 4.0166C4.39446 3.80881 4.82882 3.726 5.2998 3.6875C5.75334 3.65047 6.31106 3.65038 6.98438 3.65039H9.7041Z" fill="#1A1A1A"/>
</svg>
