<svg width="24" height="24" viewBox="0 0 24 24" fill="none" xmlns="http://www.w3.org/2000/svg">
<path d="M8.42825 7.1499C7.95881 7.1499 7.57825 7.53046 7.57825 7.9999C7.57825 8.46934 7.95881 8.8499 8.42825 8.8499H12.5711C13.0405 8.8499 13.4211 8.46934 13.4211 7.9999C13.4211 7.53046 13.0405 7.1499 12.5711 7.1499H8.42825Z" fill="#1A1A1A"/>
<path d="M7.57825 11.9999C7.57825 11.5305 7.95881 11.1499 8.42825 11.1499H15.5711C16.0405 11.1499 16.4211 11.5305 16.4211 11.9999C16.4211 12.4693 16.0405 12.8499 15.5711 12.8499H8.42825C7.95881 12.8499 7.57825 12.4693 7.57825 11.9999Z" fill="#1A1A1A"/>
<path d="M8.42825 15.1501C7.95881 15.1501 7.57825 15.5307 7.57825 16.0001C7.57825 16.4696 7.95881 16.8501 8.42825 16.8501H15.5711C16.0405 16.8501 16.4211 16.4696 16.4211 16.0001C16.4211 15.5307 16.0405 15.1501 15.5711 15.1501H8.42825Z" fill="#1A1A1A"/>
<path fill-rule="evenodd" clip-rule="evenodd" d="M7.50002 2.6499C5.37373 2.6499 3.65002 4.37361 3.65002 6.4999V17.4999C3.65002 19.6262 5.37373 21.3499 7.50002 21.3499H16.5C18.6263 21.3499 20.35 19.6262 20.35 17.4999V8.02549C20.35 6.81742 19.783 5.67939 18.8185 4.95188L16.7961 3.42629C16.1281 2.92245 15.3142 2.6499 14.4776 2.6499H7.50002ZM5.35002 6.4999C5.35002 5.31249 6.31261 4.3499 7.50002 4.3499H14.4776C14.9448 4.3499 15.3993 4.5021 15.7723 4.78347L17.7948 6.30906C18.3334 6.71533 18.65 7.35085 18.65 8.02549V17.4999C18.65 18.6873 17.6874 19.6499 16.5 19.6499H7.50002C6.31261 19.6499 5.35002 18.6873 5.35002 17.4999V6.4999Z" fill="#1A1A1A"/>
</svg>
