<svg width="24" height="24" viewBox="0 0 24 24" fill="none" xmlns="http://www.w3.org/2000/svg">
<path d="M11.9998 3C16.2421 3 18.3634 3.00063 19.6814 4.31836C20.9994 5.63634 20.9998 7.75758 20.9998 12C20.9998 12.2053 20.9989 12.406 20.9988 12.6016C20.5551 12.4331 20.1124 12.3668 19.6921 12.335C19.5675 12.3255 19.4361 12.3185 19.2986 12.3135C19.2986 12.2108 19.2996 12.1061 19.2996 12C19.2996 9.83098 19.2961 8.37478 19.1501 7.28906C19.0107 6.25242 18.7697 5.81098 18.4792 5.52051C18.1887 5.23013 17.7473 4.98897 16.7107 4.84961C15.6249 4.7037 14.1688 4.7002 11.9998 4.7002C9.83068 4.7002 8.37456 4.70367 7.28882 4.84961C6.25211 4.98901 5.81075 5.23004 5.52026 5.52051C5.22979 5.81098 4.98878 6.25237 4.84937 7.28906C4.70342 8.37478 4.69995 9.83098 4.69995 12C4.69995 14.169 4.70346 15.6252 4.84937 16.7109C4.98873 17.7475 5.22989 18.189 5.52026 18.4795C5.81074 18.77 6.25212 19.011 7.28882 19.1504C8.37456 19.2963 9.83068 19.2998 11.9998 19.2998C12.1059 19.2998 12.2105 19.2989 12.3132 19.2988C12.3183 19.4364 12.3253 19.5677 12.3347 19.6924C12.3666 20.1126 12.4328 20.5553 12.6013 20.999C12.4058 20.9992 12.2051 21 11.9998 21C7.89008 21 5.7708 20.9998 4.44409 19.8018L4.31812 19.6816C3.00039 18.3636 2.99976 16.2423 2.99976 12C2.99976 7.89038 2.99995 5.77103 4.198 4.44434L4.31812 4.31836C5.63611 3.00041 7.75733 3 11.9998 3Z" fill="#1A1A1A"/>
<rect x="14.85" y="14.85" width="6.3" height="6.3" rx="1.65" fill="#1A1A1A" stroke="#1A1A1A" stroke-width="1.7"/>
</svg>
