<svg width="24" height="24" viewBox="0 0 24 24" fill="none" xmlns="http://www.w3.org/2000/svg">
<path d="M17.0556 2.74212C17.3875 2.41018 17.9257 2.41018 18.2577 2.74212C19.0795 3.56392 19.7314 4.53954 20.1761 5.61327C20.6209 6.687 20.8498 7.83782 20.8498 9.00002C20.8498 10.1622 20.6209 11.313 20.1761 12.3868C19.7314 13.4605 19.0795 14.4361 18.2577 15.2579C17.9257 15.5899 17.3875 15.5899 17.0556 15.2579C16.7237 14.926 16.7237 14.3878 17.0556 14.0558C17.7195 13.3919 18.2462 12.6037 18.6055 11.7362C18.9648 10.8687 19.1498 9.93897 19.1498 9.00002C19.1498 8.06107 18.9648 7.13131 18.6055 6.26383C18.2462 5.39635 17.7195 4.60814 17.0556 3.9442C16.7237 3.61226 16.7237 3.07407 17.0556 2.74212Z" fill="#1A1A1A"/>
<path d="M6.94409 2.74212C7.27603 3.07407 7.27603 3.61226 6.94409 3.9442C6.28015 4.60814 5.75348 5.39635 5.39416 6.26383C5.03484 7.13131 4.8499 8.06107 4.8499 9.00002C4.8499 9.93897 5.03484 10.8687 5.39416 11.7362C5.75349 12.6037 6.28015 13.3919 6.94409 14.0558C7.27604 14.3878 7.27604 14.926 6.94409 15.2579C6.61214 15.5899 6.07395 15.5899 5.74201 15.2579C4.92021 14.4361 4.26832 13.4605 3.82357 12.3868C3.37881 11.313 3.1499 10.1622 3.1499 9.00002C3.1499 7.83782 3.37881 6.687 3.82357 5.61327C4.26832 4.53954 4.92021 3.56392 5.74201 2.74212C6.07395 2.41018 6.61214 2.41018 6.94409 2.74212Z" fill="#1A1A1A"/>
<path d="M9.45738 6.45849C9.78932 6.12654 9.78932 5.58835 9.45738 5.25641C9.12543 4.92446 8.58724 4.92446 8.2553 5.25641C7.76366 5.74804 7.37368 6.3317 7.10761 6.97405C6.84153 7.6164 6.70459 8.30487 6.70459 9.00014C6.70459 9.69542 6.84153 10.3839 7.10761 11.0262C7.37368 11.6686 7.76366 12.2522 8.2553 12.7439C8.58724 13.0758 9.12543 13.0758 9.45738 12.7439C9.78932 12.4119 9.78932 11.8737 9.45738 11.5418C9.1236 11.208 8.85884 10.8118 8.6782 10.3757C8.49756 9.93958 8.40459 9.47217 8.40459 9.00014C8.40459 8.52811 8.49756 8.06071 8.6782 7.62461C8.85884 7.18851 9.1236 6.79226 9.45738 6.45849Z" fill="#1A1A1A"/>
<path d="M11.9987 10.3332C11.2623 10.3332 10.6654 9.73622 10.6654 8.99984C10.6654 8.26346 11.2623 7.6665 11.9987 7.6665C12.7351 7.6665 13.332 8.26346 13.332 8.99984C13.332 9.73622 12.7351 10.3332 11.9987 10.3332Z" fill="#1A1A1A"/>
<path d="M15.7428 5.25641C15.4108 4.92446 14.8727 4.92446 14.5407 5.25641C14.2088 5.58835 14.2088 6.12654 14.5407 6.45849C14.8745 6.79226 15.1392 7.18851 15.3199 7.62461C15.5005 8.06071 15.5935 8.52811 15.5935 9.00014C15.5935 9.47217 15.5005 9.93958 15.3199 10.3757C15.1392 10.8118 14.8745 11.208 14.5407 11.5418C14.2088 11.8737 14.2088 12.4119 14.5407 12.7439C14.8727 13.0758 15.4108 13.0758 15.7428 12.7439C16.2344 12.2522 16.6244 11.6686 16.8905 11.0262C17.1566 10.3839 17.2935 9.69542 17.2935 9.00014C17.2935 8.30487 17.1566 7.6164 16.8905 6.97405C16.6244 6.3317 16.2344 5.74804 15.7428 5.25641Z" fill="#1A1A1A"/>
<path fill-rule="evenodd" clip-rule="evenodd" d="M13.207 12.755C12.5403 12.0883 11.4594 12.0883 10.7928 12.755L4.86208 18.6857C3.78663 19.7611 4.54831 21.6 6.06921 21.6H17.9306C19.4515 21.6 20.2131 19.7611 19.1377 18.6857L13.207 12.755ZM11.9948 13.9571C11.996 13.956 11.9966 13.9556 11.9966 13.9556C11.9968 13.9555 11.9972 13.9554 11.9977 13.9553C11.9983 13.9551 11.9991 13.955 11.9999 13.955C12.0017 13.955 12.0029 13.9555 12.0032 13.9556C12.0032 13.9556 12.0036 13.9558 12.0044 13.9566C12.0042 13.9564 12.0046 13.9567 12.0044 13.9566L17.9356 19.8878L17.9387 19.891C17.9383 19.8924 17.9378 19.8939 17.9372 19.8956C17.9365 19.897 17.9357 19.8988 17.935 19.8998L17.9306 19.9H6.06921L6.06473 19.8999C6.06403 19.8987 6.0633 19.8972 6.06261 19.8956C6.06192 19.8939 6.06143 19.8924 6.06108 19.891L6.06416 19.8878L11.9948 13.9571Z" fill="#1A1A1A"/>
</svg>
