<svg width="24" height="24" viewBox="0 0 24 24" fill="none" xmlns="http://www.w3.org/2000/svg">
<path fill-rule="evenodd" clip-rule="evenodd" d="M6.94719 1.6499C4.84777 1.6499 3.1499 3.35595 3.1499 5.45545C3.1499 7.55496 4.84777 9.26101 6.94719 9.26101C9.04662 9.26101 10.7445 7.55496 10.7445 5.45545C10.7445 3.35595 9.04662 1.6499 6.94719 1.6499ZM4.8499 5.45545C4.8499 4.29035 5.79113 3.3499 6.94719 3.3499C8.10326 3.3499 9.04449 4.29035 9.04449 5.45545C9.04449 6.62056 8.10326 7.56101 6.94719 7.56101C5.79113 7.56101 4.8499 6.62056 4.8499 5.45545Z" fill="#1A1A1A"/>
<path d="M5.81385 14.2438C6.01524 12.7159 7.76951 12.1376 8.79793 13.1467L10.7829 15.0946L10.461 15.4066C10.0372 15.7681 9.72737 16.2455 9.56887 16.7799C9.40694 17.3259 9.41015 17.9077 9.57793 18.4517C9.74571 18.9957 10.0704 19.4775 10.5114 19.8363C10.9519 20.1948 11.489 20.4153 12.0551 20.4681C12.6211 20.5209 13.1898 20.4035 13.6888 20.1325C14.1884 19.8612 14.5964 19.4476 14.8614 18.9438C15.1264 18.44 15.2366 17.8687 15.1778 17.3022C15.1191 16.7361 14.8945 16.1994 14.5316 15.7609C14.2324 15.3992 13.6972 15.3494 13.3364 15.6497C12.9755 15.95 12.9256 16.4866 13.2249 16.8483C13.373 17.0273 13.4652 17.247 13.4892 17.4791C13.5132 17.7107 13.4682 17.9443 13.3599 18.1502C13.2516 18.3561 13.085 18.525 12.881 18.6357C12.6764 18.7468 12.4438 18.7946 12.2131 18.7731C11.9825 18.7516 11.7625 18.6616 11.5817 18.5144C11.4013 18.3676 11.2685 18.1706 11.1999 17.948C11.1312 17.7254 11.1299 17.4875 11.1961 17.2644C11.2624 17.0409 11.3933 16.8421 11.5715 16.6938L11.5963 16.6732L11.9964 16.2854L11.9998 16.2886L12.5411 15.7574L12.589 15.711C12.5968 15.7034 12.6045 15.6957 12.612 15.6879L15.2017 13.1467C16.2301 12.1376 17.9843 12.7159 18.1857 14.2438L19.1569 21.6112C19.2182 22.0766 19.6453 22.4041 20.1107 22.3428C20.5761 22.2814 20.9036 21.8544 20.8423 21.389L19.8712 14.0216C19.4957 11.1735 16.0899 9.89339 14.011 11.9334L11.9998 13.9069L9.9886 11.9334C7.90971 9.89339 4.50386 11.1735 4.12843 14.0216L3.15729 21.389C3.09594 21.8544 3.4235 22.2814 3.88892 22.3428C4.35433 22.4041 4.78136 22.0766 4.84271 21.6112L5.81385 14.2438Z" fill="#1A1A1A"/>
<path fill-rule="evenodd" clip-rule="evenodd" d="M13.2554 5.45545C13.2554 3.35595 14.9532 1.6499 17.0527 1.6499C19.1521 1.6499 20.85 3.35595 20.85 5.45545C20.85 7.55496 19.1521 9.26101 17.0527 9.26101C14.9532 9.26101 13.2554 7.55496 13.2554 5.45545ZM17.0527 3.3499C15.8966 3.3499 14.9554 4.29035 14.9554 5.45545C14.9554 6.62056 15.8966 7.56101 17.0527 7.56101C18.2087 7.56101 19.15 6.62056 19.15 5.45545C19.15 4.29035 18.2087 3.3499 17.0527 3.3499Z" fill="#1A1A1A"/>
</svg>
