<svg width="24" height="24" viewBox="0 0 24 24" fill="none" xmlns="http://www.w3.org/2000/svg">
<path fill-rule="evenodd" clip-rule="evenodd" d="M4.10094 2.89935C3.769 2.5674 3.23081 2.5674 2.89886 2.89935C2.56692 3.2313 2.56692 3.76949 2.89886 4.10143L18.3989 19.6014C18.7308 19.9334 19.269 19.9334 19.6009 19.6014C19.9329 19.2695 19.9329 18.7313 19.6009 18.3994L4.10094 2.89935ZM2.82429 12.5881C1.32476 10.4459 1.43278 7.61284 2.98753 5.6026L4.2036 6.81868C3.22232 8.23517 3.19309 10.1505 4.21698 11.6132L4.31796 11.7575C4.87407 12.5519 5.49854 13.2962 6.18425 13.9819L11.894 19.6917C11.9526 19.7502 12.0475 19.7502 12.1061 19.6917L14.5914 17.2064L15.7934 18.4085L13.3082 20.8937C12.5857 21.6162 11.4144 21.6162 10.6919 20.8937L4.98217 15.184C4.22643 14.4283 3.53818 13.6079 2.92527 12.7323L2.82429 12.5881ZM6.12785 3.51034L7.62815 5.01063C8.79243 5.00369 9.9548 5.47832 10.791 6.419L11.3648 7.06452L12.0001 7.77923L12.6354 7.06452L13.2091 6.419C14.7725 4.66018 17.4764 4.53061 19.2008 6.13185C20.736 7.55741 20.9845 9.89689 19.7831 11.6132L19.6821 11.7575C19.126 12.5519 18.5016 13.2962 17.8159 13.9819L17.2076 14.5901L18.4097 15.7922L19.0179 15.184C19.7737 14.4283 20.4619 13.6079 21.0748 12.7323L21.1758 12.5881C22.864 10.1765 22.5147 6.88919 20.3575 4.8861C17.957 2.65701 14.2056 2.81506 12.0001 5.22144C10.4657 3.54737 8.1832 2.96143 6.12785 3.51034Z" fill="#1A1A1A"/>
</svg>
