<svg width="24" height="24" viewBox="0 0 24 24" fill="none" xmlns="http://www.w3.org/2000/svg">
<path fill-rule="evenodd" clip-rule="evenodd" d="M10.791 6.41918C9.22757 4.66037 6.52375 4.53079 4.79934 6.13203C3.26412 7.55759 3.01557 9.89707 4.21698 11.6134L4.31796 11.7576C4.87407 12.5521 5.49854 13.2964 6.18425 13.9821L11.894 19.6918C11.9526 19.7504 12.0475 19.7504 12.1061 19.6918L17.8159 13.9821C18.5016 13.2964 19.126 12.5521 19.6821 11.7576L19.7831 11.6134C20.9845 9.89707 20.736 7.55759 19.2008 6.13203C17.4764 4.53079 14.7725 4.66037 13.2091 6.41918L12.0001 7.77941L10.791 6.41918ZM12.0001 5.22163C9.79448 2.81524 6.04313 2.65719 3.64257 4.88628C1.48539 6.88937 1.13615 10.1766 2.82429 12.5883L2.92527 12.7325C3.53818 13.6081 4.22643 14.4284 4.98217 15.1842L10.6919 20.8939C11.4144 21.6164 12.5857 21.6164 13.3082 20.8939L19.0179 15.1842C19.7737 14.4284 20.4619 13.6081 21.0748 12.7325L21.1758 12.5883C22.864 10.1766 22.5147 6.88937 20.3575 4.88628C17.957 2.65719 14.2056 2.81524 12.0001 5.22163Z" fill="#1A1A1A"/>
</svg>
