<svg width="20" height="20" viewBox="0 0 20 20" fill="none" xmlns="http://www.w3.org/2000/svg">
<path fill-rule="evenodd" clip-rule="evenodd" d="M8.99255 5.34941C7.68972 3.88373 5.43654 3.77575 3.99953 5.11012C2.72018 6.29809 2.51305 8.24765 3.51423 9.67791L3.59839 9.79813C4.06181 10.4602 4.5822 11.0804 5.15362 11.6518L9.91174 16.41C9.96055 16.4588 10.0397 16.4588 10.0885 16.41L14.8466 11.6518C15.4181 11.0804 15.9384 10.4602 16.4019 9.79812L16.486 9.67791C17.4872 8.24765 17.2801 6.29809 16.0007 5.11012C14.5637 3.77575 12.3105 3.88373 11.0077 5.34941L10.0001 6.48293L8.99255 5.34941ZM10.0001 4.35145C8.16215 2.34613 5.03603 2.21442 3.03555 4.072C1.23791 5.74124 0.94687 8.48062 2.35365 10.4903L2.43781 10.6105C2.94856 11.3402 3.5221 12.0238 4.15189 12.6536L8.91 17.4117C9.51206 18.0138 10.4882 18.0138 11.0903 17.4117L15.8484 12.6536C16.4782 12.0238 17.0517 11.3402 17.5624 10.6105L17.6466 10.4903C19.0534 8.48062 18.7623 5.74124 16.9647 4.072C14.9642 2.21442 11.8381 2.34613 10.0001 4.35145Z" fill="#3C3C43" fill-opacity="0.76"/>
</svg>
