<svg width="24" height="24" viewBox="0 0 24 24" fill="none" xmlns="http://www.w3.org/2000/svg">
<path d="M16.263 3.90067C16.088 3.85649 15.8904 3.85045 15.2031 3.85045H7.9999C7.28581 3.85045 6.80136 3.85111 6.42712 3.88169C6.06281 3.91145 5.87841 3.96528 5.75082 4.03029C5.44035 4.18848 5.18793 4.4409 5.02974 4.75137C4.96473 4.87896 4.91091 5.06336 4.88114 5.42767C4.85056 5.80191 4.8499 6.28636 4.8499 7.00045V17.0005C4.8499 17.7145 4.85056 18.199 4.88114 18.5732C4.91091 18.9375 4.96473 19.1219 5.02974 19.2495C5.18793 19.56 5.44035 19.8124 5.75082 19.9706C5.87841 20.0356 6.06281 20.0894 6.42713 20.1192C6.80136 20.1498 7.28581 20.1505 7.9999 20.1505H9.4999C9.96935 20.1505 10.3499 20.531 10.3499 21.0005C10.3499 21.4699 9.96935 21.8505 9.4999 21.8505H7.96496C7.29463 21.8505 6.74039 21.8505 6.28869 21.8136C5.81925 21.7752 5.38622 21.6928 4.97904 21.4853C4.34869 21.1641 3.83621 20.6517 3.51503 20.0213C3.30756 19.6141 3.22514 19.1811 3.18679 18.7117C3.14988 18.26 3.14989 17.7058 3.1499 17.0355V6.96545C3.14989 6.29515 3.14988 5.74092 3.18679 5.28924C3.22514 4.81979 3.30756 4.38677 3.51503 3.97958C3.83621 3.34924 4.34869 2.83676 4.97904 2.51558C5.38622 2.30811 5.81925 2.22569 6.28869 2.18733C6.74037 2.15043 7.29459 2.15044 7.96489 2.15045L15.2937 2.15042C15.8502 2.15013 16.2733 2.14991 16.6792 2.25241C17.0371 2.34278 17.3776 2.49168 17.6869 2.69308C18.0377 2.9215 18.3249 3.23234 18.7024 3.64108L19.6159 4.62894C19.9557 4.99605 20.2142 5.27534 20.4031 5.60341C20.5697 5.89283 20.6921 6.20554 20.7663 6.53117C20.8503 6.90028 20.8502 7.28085 20.8499 7.78108L20.8499 11.0005C20.8499 11.4699 20.4693 11.8505 19.9999 11.8505C19.5305 11.8505 19.1499 11.4699 19.1499 11.0005V7.86219C19.1499 7.24519 19.145 7.06785 19.1087 6.90861C19.0722 6.74823 19.0119 6.5942 18.9298 6.45165C18.8483 6.31012 18.7316 6.17658 18.3127 5.72357L17.5158 4.86184C17.0492 4.35721 16.9106 4.21619 16.7593 4.11772C16.607 4.01852 16.4393 3.94518 16.263 3.90067Z" fill="#1A1A1A"/>
<path d="M6.6499 8.50039C6.6499 8.03095 7.03046 7.65039 7.4999 7.65039H14.4999C14.9693 7.65039 15.3499 8.03095 15.3499 8.50039C15.3499 8.96983 14.9693 9.35039 14.4999 9.35039H7.4999C7.03046 9.35039 6.6499 8.96983 6.6499 8.50039Z" fill="#1A1A1A"/>
<path d="M7.4999 12.1504C7.03046 12.1504 6.6499 12.5309 6.6499 13.0004C6.6499 13.4698 7.03046 13.8504 7.4999 13.8504H11.4999C11.9693 13.8504 12.3499 13.4698 12.3499 13.0004C12.3499 12.5309 11.9693 12.1504 11.4999 12.1504H7.4999Z" fill="#1A1A1A"/>
<path fill-rule="evenodd" clip-rule="evenodd" d="M12.1499 17.5004C12.1499 15.098 14.0975 13.1504 16.4999 13.1504C18.9023 13.1504 20.8499 15.098 20.8499 17.5004C20.8499 19.9028 18.9023 21.8504 16.4999 21.8504C14.0975 21.8504 12.1499 19.9028 12.1499 17.5004ZM14.1239 16.3255C13.9485 16.6796 13.8499 17.0785 13.8499 17.5004C13.8499 18.9639 15.0363 20.1504 16.4999 20.1504C16.9218 20.1504 17.3207 20.0518 17.6748 19.8764L14.1239 16.3255ZM15.3263 15.1238L18.8765 18.674C19.0515 18.3202 19.1499 17.9218 19.1499 17.5004C19.1499 16.0368 17.9635 14.8504 16.4999 14.8504C16.0785 14.8504 15.6801 14.9487 15.3263 15.1238Z" fill="#1A1A1A"/>
</svg>
