<svg width="24" height="24" viewBox="0 0 24 24" fill="none" xmlns="http://www.w3.org/2000/svg">
<path d="M10.8822 12.7306C11.1386 12.4053 11.6102 12.3494 11.9355 12.6059C12.0288 12.6794 12.1123 12.7477 12.1904 12.8116C12.4489 13.023 12.6485 13.1862 12.9492 13.3321C13.3131 13.5086 13.8524 13.6623 14.7846 13.6623C15.1354 13.6623 15.5853 13.5554 16.0346 13.3598C16.4835 13.1645 16.8661 12.9093 17.1001 12.6702C17.3899 12.3742 17.8647 12.3691 18.1607 12.6589C18.4567 12.9486 18.4618 13.4235 18.1721 13.7195C17.7692 14.1311 17.2093 14.4845 16.6332 14.7352C16.0576 14.9858 15.4001 15.1623 14.7846 15.1623C13.6795 15.1623 12.906 14.9783 12.2945 14.6817C11.8187 14.4509 11.4531 14.1496 11.1794 13.9241C11.1173 13.8729 11.0598 13.8255 11.0069 13.7839C10.6816 13.5274 10.6258 13.0558 10.8822 12.7306Z" fill="#1A1A1A"/>
<path d="M11.7826 9.86574C11.4981 10.6097 10.903 11.0735 10.4566 10.9029C10.0103 10.7322 9.87901 9.98827 10.1635 9.24434C10.4479 8.50041 11.043 8.03655 11.4894 8.20722C11.9401 8.37788 12.067 9.12181 11.7826 9.86574Z" fill="#1A1A1A"/>
<path d="M17.605 8.1623C17.288 8.28452 17.2307 8.91087 17.479 9.56396C17.7272 10.2171 18.1855 10.6486 18.5025 10.5264C18.8195 10.4042 18.8768 9.77784 18.6286 9.12475C18.3803 8.47166 17.922 8.04008 17.605 8.1623Z" fill="#1A1A1A"/>
<path d="M16.6808 10.9762C16.6869 11.3917 15.9842 11.737 15.1103 11.7461C14.2365 11.7553 13.5276 11.4284 13.5215 11.0128C13.5154 10.5973 14.2182 10.252 15.092 10.2429C15.9658 10.2337 16.6747 10.5606 16.6808 10.9762Z" fill="#1A1A1A"/>
<path fill-rule="evenodd" clip-rule="evenodd" d="M23.295 11.192L23.2994 11.1994C23.4291 11.4185 23.7579 12.0977 23.469 12.8808L23.4674 12.885C23.3086 13.3127 22.9083 13.8932 21.8939 14.2385C21.5487 14.3638 21.179 14.4279 20.8062 14.4279C20.6381 14.4279 20.4701 14.4157 20.3021 14.3882C20.1824 14.6084 20.083 14.8047 19.9908 14.9869C19.6063 15.7462 19.3454 16.2614 18.258 17.2443C17.852 17.6113 17.4074 17.9178 16.9338 18.1642C17.3698 18.5763 17.756 19.1349 18.0081 19.9335C18.1494 20.3812 17.9011 20.8586 17.4534 21C17.0057 21.1413 16.5283 20.893 16.3869 20.4453C16.208 19.8784 15.9508 19.5565 15.6942 19.3346C15.4745 19.1446 15.2643 19.0272 15.005 18.8824C14.9744 18.8653 14.9431 18.8478 14.911 18.8297C14.1067 18.9611 13.2659 18.9571 12.4215 18.8192C12.0011 18.869 11.6005 19.0865 11.2367 19.4223C10.8656 19.7648 10.5766 20.1918 10.4 20.5496C10.1921 20.9706 9.68244 21.1433 9.2615 20.9355C8.84057 20.7277 8.6678 20.218 8.87561 19.7971C9.12836 19.2851 9.53466 18.6798 10.0837 18.173C10.104 18.1543 10.1246 18.1356 10.1454 18.1171C9.97215 18.0374 9.8001 17.9518 9.62954 17.8603C8.5403 17.2764 7.4542 16.3567 6.6335 15.1829C6.30774 14.717 6.02379 14.2111 5.79806 13.6702C5.65141 13.7985 5.49558 13.9177 5.32753 14.0246C5.00688 14.2279 4.65851 14.3803 4.295 14.4787C3.98653 14.5623 3.66717 14.607 3.34458 14.6113H3.23153C2.54712 14.6143 1.87493 14.3638 1.34024 13.9085C1.08664 13.6946 0.888036 13.4349 0.741377 13.1355C0.594717 12.8391 0.515277 12.5183 0.5 12.1883V12.1333C0.527499 11.3878 0.83915 10.6912 1.37996 10.1779L1.52967 10.0282C2.48601 9.1207 3.34458 8.12159 4.0901 7.04914C4.52702 6.39529 5.32753 5.20368 6.82468 5.59172C7.3441 5.72921 7.75047 6.06225 8.10795 6.37084C9.50121 5.51228 11.3283 5.05091 13.4396 5.02952C14.9704 4.96536 16.4981 5.28618 17.8852 5.95837C17.9983 5.85143 18.1205 5.75671 18.258 5.67727C18.7285 5.40839 19.3213 5.35951 19.8407 5.552C20.3112 5.72616 20.959 6.18141 21.3776 7.35468C21.6861 8.15481 22.045 8.94488 22.4495 9.71341C22.712 10.2122 22.9937 10.702 23.2933 11.1795L23.2994 11.1892H23.2933L23.295 11.192ZM21.7851 11.9737C20.9954 10.6997 20.3242 9.34778 19.7914 7.96642C19.7863 7.95299 19.7812 7.93949 19.7764 7.92593C19.6382 7.53859 19.4912 7.34789 19.4068 7.26075C19.324 7.17514 19.2656 7.15184 19.2506 7.1463C19.2311 7.13906 19.201 7.13345 19.1667 7.1362C19.1356 7.13868 19.1144 7.14668 19.1044 7.1517C19.0961 7.15695 19.0798 7.16849 19.0535 7.19336C18.5401 7.67899 17.7798 7.79637 17.1439 7.48821C16.0062 6.93691 14.7573 6.67578 13.5108 6.72803C13.4928 6.72879 13.4748 6.72925 13.4568 6.72944C11.5684 6.74857 10.0651 7.16166 8.9998 7.81812C8.36866 8.20705 7.55826 8.14213 6.99708 7.65769C6.82302 7.50743 6.70376 7.41043 6.59236 7.33711C6.49147 7.2707 6.42911 7.24603 6.39296 7.23601C6.27298 7.20563 6.22102 7.2176 6.20888 7.2204C6.18959 7.22484 6.14857 7.23819 6.07924 7.29014C5.90205 7.42292 5.73764 7.64337 5.50357 7.99366L5.48596 8.01949C4.67812 9.18158 3.74936 10.2633 2.71632 11.2457L2.58204 11.38C2.57159 11.3904 2.561 11.4007 2.55028 11.4109C2.34556 11.6052 2.22234 11.8638 2.20125 12.1522C2.21003 12.2407 2.2328 12.3164 2.26503 12.3815L2.2681 12.3877C2.31644 12.4864 2.37211 12.5549 2.43623 12.609L2.44232 12.6141C2.67789 12.8147 2.95944 12.9125 3.22394 12.9113L3.23153 12.9112L3.33113 12.9113C3.71996 12.9045 4.09598 12.7922 4.416 12.5897C4.50234 12.5346 4.58912 12.4691 4.67861 12.3908C5.09024 12.0306 5.65004 11.8905 6.18282 12.0143C6.71559 12.1381 7.15626 12.5107 7.36692 13.0155C7.99284 14.5152 9.21253 15.7078 10.4328 16.3621C12.91 17.6902 15.519 17.4285 17.118 15.9832C17.7124 15.446 17.956 15.132 18.1169 14.8774C18.2064 14.7359 18.2876 14.5852 18.3973 14.3703C18.4194 14.327 18.443 14.2803 18.4682 14.2306C18.5615 14.0463 18.6756 13.8208 18.8083 13.5766C19.1535 12.9412 19.863 12.5937 20.5766 12.7105C20.6452 12.7217 20.7208 12.7279 20.8062 12.7279C20.9853 12.7279 21.1585 12.6969 21.3141 12.6404L21.3216 12.6377L21.3462 12.6292C21.6372 12.5301 21.7645 12.4247 21.8117 12.3784C21.8593 12.3318 21.871 12.3005 21.8738 12.293C21.8814 12.2727 21.8837 12.2574 21.8843 12.2435C21.885 12.2274 21.8835 12.2055 21.8774 12.1775C21.8712 12.1489 21.8615 12.1206 21.8511 12.0962C21.8435 12.0782 21.8375 12.0672 21.8364 12.0653C21.8183 12.0353 21.8012 12.0046 21.7851 11.9737Z" fill="#1A1A1A"/>
</svg>
