<svg width="24" height="24" viewBox="0 0 24 24" fill="none" xmlns="http://www.w3.org/2000/svg">
<path fill-rule="evenodd" clip-rule="evenodd" d="M12 8.17845C10.0117 8.17845 8.39997 9.79023 8.39997 11.7785C8.39997 13.7667 10.0117 15.3785 12 15.3785C13.9882 15.3785 15.6 13.7667 15.6 11.7785C15.6 9.79023 13.9882 8.17845 12 8.17845ZM10.1 11.7785C10.1 10.7291 10.9506 9.87845 12 9.87845C13.0493 9.87845 13.9 10.7291 13.9 11.7785C13.9 12.8278 13.0493 13.6785 12 13.6785C10.9506 13.6785 10.1 12.8278 10.1 11.7785Z" fill="#1A1A1A"/>
<path fill-rule="evenodd" clip-rule="evenodd" d="M21.8815 10.4769C21.6538 9.86778 21.248 9.36076 20.7233 8.84675C20.2098 8.34379 19.5172 7.77365 18.6512 7.06075L18.5944 7.01403C17.5403 6.14625 16.7131 5.46524 15.9997 4.96122C15.2718 4.44695 14.6149 4.08171 13.8888 3.87343C12.6545 3.5194 11.3456 3.5194 10.1114 3.87343C9.38525 4.08171 8.72839 4.44695 8.00047 4.96122C7.28705 5.46525 6.45983 6.14624 5.4057 7.01403L5.34894 7.06075C4.48294 7.77365 3.79036 8.34379 3.27687 8.84675C2.75209 9.36076 2.34636 9.86778 2.11866 10.4769C1.75146 11.4591 1.75146 12.541 2.11866 13.5233C2.34636 14.1323 2.7521 14.6394 3.27687 15.1534C3.79037 15.6563 4.48296 16.2265 5.34898 16.9394L5.40577 16.9862C6.45986 17.8539 7.28706 18.5349 8.00047 19.0389C8.72839 19.5532 9.38525 19.9184 10.1114 20.1267C11.3456 20.4807 12.6545 20.4807 13.8888 20.1267C14.6149 19.9184 15.2718 19.5532 15.9997 19.0389C16.7131 18.5349 17.5403 17.8539 18.5944 16.9862L18.6512 16.9394C19.5172 16.2265 20.2098 15.6563 20.7233 15.1534C21.248 14.6394 21.6538 14.1323 21.8815 13.5233C22.2487 12.541 22.2487 11.4591 21.8815 10.4769ZM17.54 8.34792C18.4438 9.09193 19.079 9.61581 19.5337 10.0612C19.9832 10.5015 20.1879 10.8015 20.2891 11.0721C20.5128 11.6705 20.5128 12.3296 20.2891 12.928C20.1879 13.1986 19.9832 13.4986 19.5337 13.9389C19.079 14.3843 18.4438 14.9082 17.54 15.6522C16.4542 16.546 15.675 17.1868 15.0187 17.6505C14.3712 18.108 13.8913 18.3574 13.42 18.4926C12.4921 18.7588 11.508 18.7588 10.5801 18.4926C10.1089 18.3574 9.62897 18.108 8.98139 17.6505C8.32517 17.1868 7.5459 16.546 6.46014 15.6522C5.55638 14.9082 4.92117 14.3843 4.46643 13.9389C4.01692 13.4986 3.8122 13.1986 3.71104 12.928C3.48734 12.3296 3.48734 11.6705 3.71104 11.0721C3.8122 10.8015 4.01692 10.5015 4.46643 10.0612C4.92117 9.61581 5.55638 9.09193 6.46014 8.34792C7.5459 7.4541 8.32517 6.81328 8.98139 6.34967C9.62897 5.89216 10.1089 5.64271 10.5801 5.50754C11.508 5.24137 12.4921 5.24137 13.42 5.50754C13.8913 5.64271 14.3712 5.89216 15.0187 6.34967C15.675 6.81328 16.4542 7.4541 17.54 8.34792Z" fill="#1A1A1A"/>
</svg>
