<svg width="24" height="24" viewBox="0 0 24 24" fill="none" xmlns="http://www.w3.org/2000/svg">
<path d="M3.47937 2.9226C3.05363 2.7248 2.54815 2.90958 2.35035 3.33532C1.0752 6.07992 0.421546 9.07213 0.436026 12.0985C0.450507 15.1248 1.13277 18.1106 2.43413 20.8429C2.63599 21.2667 3.14321 21.4466 3.56703 21.2448C3.99086 21.0429 4.17079 20.5357 3.96893 20.1118C2.77515 17.6054 2.14929 14.8665 2.13601 12.0903C2.12273 9.31418 2.72235 6.56932 3.89208 4.05161C4.08988 3.62588 3.9051 3.1204 3.47937 2.9226Z" fill="#1A1A1A"/>
<path fill-rule="evenodd" clip-rule="evenodd" d="M10.4343 5.75298C10.6707 5.09145 11.2974 4.6499 11.9999 4.6499C12.7024 4.6499 13.329 5.09145 13.5654 5.75298L14.8374 9.31261L18.2067 10.4206C18.8889 10.6449 19.3499 11.2818 19.3499 11.9999C19.3499 12.718 18.8888 13.3549 18.2067 13.5792L14.8374 14.6872L13.5654 18.2468C13.329 18.9084 12.7024 19.3499 11.9999 19.3499C11.2974 19.3499 10.6707 18.9084 10.4343 18.2468L9.16234 14.6872L5.79302 13.5792C5.11089 13.3549 4.64987 12.718 4.64987 11.9999C4.64987 11.2818 5.11089 10.6449 5.79302 10.4206L9.16234 9.31261L10.4343 5.75298ZM11.9999 6.42385L13.2407 9.8962C13.4146 10.383 13.8036 10.7622 14.2947 10.9237L17.5673 11.9999L14.2947 13.0761C13.8036 13.2376 13.4146 13.6168 13.2407 14.1036L11.9999 17.576L10.7591 14.1036C10.5851 13.6168 10.1961 13.2376 9.70506 13.0761L6.43241 11.9999L9.70506 10.9237C10.1961 10.7622 10.5851 10.383 10.7591 9.8962L11.9999 6.42385Z" fill="#1A1A1A"/>
<path d="M21.6496 3.33532C21.4518 2.90958 20.9463 2.7248 20.5206 2.9226C20.0948 3.1204 19.9101 3.62588 20.1079 4.05161C21.2776 6.56932 21.8772 9.31418 21.8639 12.0903C21.8506 14.8665 21.2248 17.6054 20.031 20.1118C19.8291 20.5357 20.0091 21.0429 20.4329 21.2448C20.8567 21.4466 21.3639 21.2667 21.5658 20.8429C22.8672 18.1106 23.5494 15.1248 23.5639 12.0985C23.5784 9.07213 22.9247 6.07992 21.6496 3.33532Z" fill="#1A1A1A"/>
</svg>
