<svg width="20" height="20" viewBox="0 0 20 20" fill="none" xmlns="http://www.w3.org/2000/svg">
<path fill-rule="evenodd" clip-rule="evenodd" d="M4.99984 6.79207C3.22792 6.79207 1.7915 8.22849 1.7915 10.0004V15.0004C1.7915 16.7723 3.22792 18.2087 4.99984 18.2087H6.12484V18.2076H12.5797C14.8167 18.2076 16.7666 16.6851 17.3092 14.5149L18.2436 10.7774C18.7498 8.75249 17.2183 6.79095 15.131 6.79095H12.5567L13.1068 4.40739C13.4722 2.82373 12.5738 1.2218 11.0319 0.707839C10.4781 0.523214 9.87178 0.765046 9.59703 1.2802L6.92856 6.28358C6.76201 6.59587 6.43689 6.79094 6.08296 6.79094L5.41488 6.79093C5.40141 6.79093 5.38797 6.79131 5.37459 6.79207H4.99984ZM4.70654 16.7682V8.23263C3.85656 8.3726 3.20817 9.11078 3.20817 10.0004V15.0004C3.20817 15.89 3.85656 16.6282 4.70654 16.7682ZM6.12484 8.20724C6.98566 8.19213 7.77238 7.71185 8.17856 6.95025L10.7552 2.11906C11.4981 2.45699 11.9137 3.27727 11.7264 4.08884L10.9761 7.34C10.9276 7.55034 10.9776 7.77133 11.112 7.94025C11.2464 8.10918 11.4504 8.20761 11.6663 8.20761H15.131C16.2966 8.20761 17.1519 9.30302 16.8692 10.4338L15.9348 14.1713C15.5499 15.7109 14.1667 16.7909 12.5797 16.7909H6.12484V8.20724Z" fill="#3C3C43" fill-opacity="0.76"/>
</svg>
