<svg width="24" height="24" viewBox="0 0 24 24" fill="none" xmlns="http://www.w3.org/2000/svg">
<path fill-rule="evenodd" clip-rule="evenodd" d="M18.0002 13.3333C20.5774 13.3335 22.6663 15.4231 22.6663 18.0003C22.6661 20.5774 20.5773 22.6662 18.0002 22.6663C15.423 22.6663 13.3334 20.5775 13.3333 18.0003C13.3333 15.423 15.4229 13.3333 18.0002 13.3333ZM17.9387 15.7259C17.0742 15.726 16.3919 16.1907 16.3918 16.7191C16.3919 16.9558 16.5684 17.1222 16.8147 17.1224C16.981 17.1223 17.1155 17.0548 17.2307 16.9046C17.4259 16.6455 17.6441 16.5239 17.9192 16.5237C18.2779 16.5237 18.5276 16.7288 18.5276 17.0267C18.5274 17.3243 18.2717 17.5422 17.926 17.5423H17.676C17.4521 17.5425 17.2913 17.7157 17.2913 17.9398C17.2915 18.1731 17.4554 18.3429 17.676 18.3431H17.9358C18.352 18.3432 18.6301 18.574 18.6301 18.9134C18.6298 19.2558 18.3544 19.4769 17.9319 19.4769C17.6216 19.4766 17.3683 19.3418 17.1731 19.0794C17.0291 18.9003 16.9009 18.8265 16.7473 18.8265C16.5139 18.8267 16.3442 18.9994 16.344 19.2425C16.3441 19.7899 17.042 20.2735 17.9319 20.2737C18.9407 20.2737 19.6554 19.7262 19.6555 18.9544C19.6554 18.3974 19.2616 17.952 18.7366 17.9134V17.8431C19.1782 17.7884 19.5273 17.3692 19.5276 16.8987C19.5276 16.2102 18.8739 15.7259 17.9387 15.7259Z" fill="#1A1A1A"/>
<path fill-rule="evenodd" clip-rule="evenodd" d="M12.0002 7.33331C14.5774 7.33349 16.6662 9.4231 16.6663 12.0003C16.6663 12.1209 16.6596 12.2404 16.6506 12.3587C14.5313 12.8638 12.8637 14.5314 12.3586 16.6507C12.2403 16.6597 12.1209 16.6663 12.0002 16.6663C9.42305 16.6663 7.33343 14.5775 7.33325 12.0003C7.33327 9.423 9.42295 7.33334 12.0002 7.33331ZM11.6956 9.4798C10.8027 9.48014 10.1155 10.0501 10.1155 10.6585C10.1158 10.9067 10.2959 11.0831 10.554 11.0833C10.7436 11.0833 10.8681 10.9979 11.012 10.7757C11.1558 10.4847 11.3591 10.3442 11.637 10.3441C11.9804 10.3441 12.2129 10.5598 12.2131 10.8802C12.2131 11.1288 12.0651 11.3645 11.7151 11.721L10.5833 12.886C10.2563 13.2065 10.1487 13.3773 10.1487 13.5735C10.1488 13.8481 10.3581 14.0284 10.675 14.0286H12.9133C13.2207 14.0285 13.4074 13.8677 13.4075 13.6028C13.4075 13.3346 13.2175 13.1713 12.9133 13.1712H11.552V13.1253L12.4846 12.1829C13.0308 11.6466 13.253 11.2407 13.2532 10.7796C13.2532 10.0303 12.5953 9.4798 11.6956 9.4798Z" fill="#1A1A1A"/>
<path fill-rule="evenodd" clip-rule="evenodd" d="M6.00024 1.33331C8.57742 1.33349 10.6663 3.42308 10.6663 6.00031C10.6663 6.12096 10.6596 6.24036 10.6506 6.3587C8.53131 6.8638 6.86366 8.53135 6.35864 10.6507C6.2403 10.6597 6.12089 10.6663 6.00024 10.6663C3.42302 10.6663 1.33343 8.57748 1.33325 6.00031C1.33325 3.42298 3.42292 1.33331 6.00024 1.33331ZM5.92993 3.74347C5.71059 3.74361 5.47725 3.81906 5.22192 3.98273L4.68872 4.34015C4.49567 4.46133 4.39673 4.60549 4.39673 4.76593C4.39692 4.98167 4.55413 5.13854 4.76978 5.13898C4.87781 5.13898 4.97074 5.10628 5.14087 4.99835L5.48462 4.76593H5.49731V7.71124C5.49739 8.07792 5.69171 8.28724 6.0354 8.28741C6.3758 8.28723 6.56853 8.08118 6.5686 7.71124V4.40167C6.56845 4.00215 6.31316 3.74347 5.92993 3.74347Z" fill="#1A1A1A"/>
</svg>
