<svg width="24" height="24" viewBox="0 0 24 24" fill="none" xmlns="http://www.w3.org/2000/svg">
<path d="M6.50006 4.72863C4.96944 4.72863 3.72863 5.96944 3.72863 7.50006V11.0001C3.72863 11.4024 3.40243 11.7286 3.00006 11.7286C2.59768 11.7286 2.27148 11.4024 2.27148 11.0001V7.50006C2.27148 5.16468 4.16468 3.27148 6.50006 3.27148H17.5001C19.8354 3.27148 21.7286 5.16468 21.7286 7.50006V11.0001C21.7286 11.4024 21.4024 11.7286 21.0001 11.7286C20.5977 11.7286 20.2715 11.4024 20.2715 11.0001V7.50006C20.2715 5.96944 19.0307 4.72863 17.5001 4.72863H6.50006Z" fill="#1A1A1A"/>
<path fill-rule="evenodd" clip-rule="evenodd" d="M17.6777 6.43431C18.3416 7.0982 18.3416 8.17458 17.6777 8.83846L13.2525 13.2637L15.1556 15.1668C16.4047 14.3691 18.0827 14.5159 19.174 15.6072C20.4348 16.868 20.4348 18.9122 19.174 20.1731C17.9132 21.4339 15.8689 21.4339 14.6081 20.1731C13.5945 19.1594 13.3957 17.6395 14.0119 16.4273L12.0504 14.4658L10.0912 16.425C10.7084 17.6374 10.5099 19.1582 9.49586 20.1723C8.23503 21.4331 6.19082 21.4331 4.92999 20.1723C3.66915 18.9114 3.66914 16.8672 4.92997 15.6064C6.02077 14.5156 7.69793 14.3685 8.94688 15.1651L10.8483 13.2637L6.42478 8.84023C5.76089 8.17633 5.76089 7.09995 6.42478 6.43606L12.0504 12.0617L17.6777 6.43431ZM5.96032 16.6368C6.6521 15.945 7.7737 15.945 8.46549 16.6368C9.15727 17.3286 9.15728 18.4502 8.4655 19.1419C7.77372 19.8337 6.65212 19.8337 5.96033 19.1419C5.26855 18.4501 5.26854 17.3285 5.96032 16.6368ZM15.6385 16.6375C14.9467 17.3293 14.9467 18.4509 15.6385 19.1427C16.3303 19.8345 17.4519 19.8345 18.1436 19.1427C18.8354 18.4509 18.8354 17.3293 18.1436 16.6375C17.4519 15.9457 16.3303 15.9457 15.6385 16.6375Z" fill="#1A1A1A"/>
</svg>
