<svg width="24" height="24" viewBox="0 0 24 24" fill="none" xmlns="http://www.w3.org/2000/svg">
<path d="M5.8499 5.00039C5.8499 4.36526 6.36477 3.85039 6.9999 3.85039H16.9999C17.635 3.85039 18.1499 4.36526 18.1499 5.00039V5.50039C18.1499 5.96983 18.5305 6.35039 18.9999 6.35039C19.4693 6.35039 19.8499 5.96983 19.8499 5.50039V5.00039C19.8499 3.42638 18.5739 2.15039 16.9999 2.15039H6.9999C5.42589 2.15039 4.1499 3.42638 4.1499 5.00039V5.50039C4.1499 5.96983 4.53046 6.35039 4.9999 6.35039C5.46934 6.35039 5.8499 5.96983 5.8499 5.50039V5.00039Z" fill="#1A1A1A"/>
<path fill-rule="evenodd" clip-rule="evenodd" d="M5.91193 7.15046H18.0882C18.4637 7.14998 18.8057 7.14954 19.1083 7.23061C19.9192 7.44791 20.5527 8.08135 20.77 8.89232C20.8511 9.19489 20.8506 9.53689 20.8501 9.9124L20.8501 10.0005L20.8501 10.0887C20.8506 10.4642 20.8511 10.8062 20.77 11.1088C20.5527 11.9197 19.9192 12.5532 19.1083 12.7705C18.8057 12.8515 18.4637 12.8511 18.0882 12.8506H5.91193C5.53641 12.8511 5.19441 12.8515 4.89183 12.7705C4.08086 12.5532 3.44742 11.9197 3.23013 11.1088C3.14905 10.8062 3.14949 10.4642 3.14998 10.0887L3.15005 10.0005L3.14998 9.91242C3.14949 9.5369 3.14905 9.1949 3.23013 8.89232C3.44742 8.08135 4.08086 7.44791 4.89183 7.23061C5.19441 7.14954 5.53641 7.14998 5.91193 7.15046ZM6.00005 8.85054C5.48034 8.85054 5.38723 8.85784 5.33182 8.87269C5.10751 8.93279 4.9323 9.108 4.8722 9.33231C4.85735 9.38772 4.85005 9.48083 4.85005 10.0005C4.85005 10.5203 4.85735 10.6134 4.8722 10.6688C4.9323 10.8931 5.10751 11.0683 5.33182 11.1284C5.38723 11.1432 5.48034 11.1505 6.00005 11.1505H18.0001C18.5198 11.1505 18.6129 11.1432 18.6683 11.1284C18.8926 11.0683 19.0678 10.8931 19.1279 10.6688C19.1428 10.6134 19.1501 10.5203 19.1501 10.0005C19.1501 9.48083 19.1428 9.38772 19.1279 9.33231C19.0678 9.108 18.8926 8.93279 18.6683 8.87269C18.6129 8.85784 18.5198 8.85054 18.0001 8.85054H6.00005Z" fill="#1A1A1A"/>
<path d="M4.9999 13.6504C5.46935 13.6504 5.8499 14.0309 5.8499 14.5004V17.8004C5.8499 18.3745 5.85056 18.7539 5.87433 19.0448C5.89728 19.3257 5.93748 19.4484 5.97525 19.5225C6.0855 19.7389 6.26143 19.9148 6.47781 20.025C6.55193 20.0628 6.67459 20.103 6.95552 20.126C7.24639 20.1497 7.62583 20.1504 8.1999 20.1504H15.7999C16.374 20.1504 16.7534 20.1497 17.0443 20.126C17.3252 20.103 17.4479 20.0628 17.522 20.025C17.7384 19.9148 17.9143 19.7389 18.0246 19.5225C18.0623 19.4484 18.1025 19.3257 18.1255 19.0448C18.1492 18.7539 18.1499 18.3745 18.1499 17.8004V14.5004C18.1499 14.0309 18.5305 13.6504 18.9999 13.6504C19.4693 13.6504 19.8499 14.0309 19.8499 14.5004V17.8342C19.8499 18.3654 19.8499 18.8148 19.8198 19.1832C19.7883 19.5693 19.7195 19.9406 19.5393 20.2943C19.266 20.8305 18.83 21.2665 18.2938 21.5398C17.9401 21.72 17.5688 21.7888 17.1827 21.8203C16.8144 21.8504 16.365 21.8504 15.8337 21.8504H8.16611C7.63484 21.8504 7.18545 21.8504 6.81709 21.8203C6.43102 21.7888 6.05974 21.72 5.70603 21.5398C5.16977 21.2665 4.73377 20.8305 4.46053 20.2943C4.28031 19.9406 4.21152 19.5693 4.17997 19.1832C4.14988 18.8148 4.14989 18.3654 4.1499 17.8342L4.1499 14.5004C4.1499 14.0309 4.53046 13.6504 4.9999 13.6504Z" fill="#1A1A1A"/>
</svg>
