<svg width="24" height="24" viewBox="0 0 24 24" fill="none" xmlns="http://www.w3.org/2000/svg">
<path d="M9.63075 9.43988C10.0851 9.55794 10.3577 10.022 10.2397 10.4763L9.77431 12.2674C9.65625 12.7217 9.19222 12.9944 8.73786 12.8763C8.28351 12.7583 8.01088 12.2942 8.12894 11.8399L8.59431 10.0488C8.71237 9.59445 9.1764 9.32183 9.63075 9.43988Z" fill="#1A1A1A"/>
<path d="M14.1362 10.4763C14.2542 10.022 13.9816 9.55794 13.5272 9.43988C13.0729 9.32183 12.6088 9.59445 12.4908 10.0488L12.0254 11.8399C11.9074 12.2942 12.18 12.7583 12.6343 12.8763C13.0887 12.9944 13.5527 12.7217 13.6708 12.2674L14.1362 10.4763Z" fill="#1A1A1A"/>
<path fill-rule="evenodd" clip-rule="evenodd" d="M9.76965 3.33752C10.9115 1.97524 13.0694 2.20241 13.9025 3.77261L15.5942 6.96091L20.0346 8.11838C21.8683 8.59635 22.5279 10.8584 21.2386 12.247L18.3276 15.3825L18.9235 19.2425C19.2066 21.0761 17.4678 22.5704 15.6977 22.015L11.1638 20.5923L7.89088 21.9395C6.33918 22.5781 4.61056 21.5405 4.4445 19.8708L3.99811 15.3822L1.84574 11.8437C1.01293 10.4746 1.66197 8.68634 3.17908 8.17013L6.73242 6.96107L9.76965 3.33752ZM12.4008 4.5694C12.1331 4.06474 11.4395 3.99172 11.0725 4.42956L7.72997 8.41736L3.72668 9.77952C3.23908 9.94543 3.03048 10.5202 3.29814 10.9602L5.6515 14.8291L6.13616 19.7025C6.18953 20.2392 6.74511 20.5727 7.24384 20.3674L11.0858 18.7861L16.2066 20.393C16.7756 20.5715 17.3344 20.0912 17.2434 19.5019L16.522 14.8288L19.9928 11.0904C20.4072 10.6441 20.1952 9.91703 19.6058 9.76341L14.4426 8.41753L12.4008 4.5694Z" fill="#1A1A1A"/>
</svg>
