<svg width="24" height="24" viewBox="0 0 24 24" fill="none" xmlns="http://www.w3.org/2000/svg">
<path d="M14.5996 2.15039C15.7057 2.15039 16.5872 2.14905 17.2969 2.20703C18.0163 2.26584 18.6346 2.38956 19.2022 2.67871C20.1145 3.14366 20.8563 3.88548 21.3213 4.79785L21.4219 5.01367C21.64 5.52199 21.7415 6.0737 21.793 6.70313C21.851 7.41278 21.8496 8.29431 21.8496 9.40039V12C21.8496 12.4694 21.4694 12.8496 21 12.8496C20.5306 12.8496 20.1504 12.4694 20.1504 12V9.40039C20.1504 8.26626 20.1496 7.46617 20.0986 6.8418C20.0547 6.30405 19.9766 5.95376 19.8594 5.68164L19.8066 5.57032C19.5046 4.97761 19.0224 4.49536 18.4297 4.19336C18.1417 4.04671 17.7723 3.95156 17.1582 3.90137C16.5338 3.85036 15.7337 3.84961 14.5996 3.84961H9.40039C8.26626 3.84961 7.46617 3.85036 6.8418 3.90137C6.22769 3.95156 5.85827 4.04671 5.57032 4.19336C4.97761 4.49536 4.49536 4.97761 4.19336 5.57032C4.04671 5.85827 3.95156 6.22769 3.90137 6.8418C3.85036 7.46617 3.84961 8.26626 3.84961 9.40039V14.5996C3.84961 15.7337 3.85036 16.5338 3.90137 17.1582C3.95156 17.7723 4.04671 18.1417 4.19336 18.4297C4.49536 19.0224 4.97761 19.5046 5.57032 19.8066L5.68164 19.8594C5.95376 19.9766 6.30405 20.0547 6.8418 20.0986C7.46617 20.1496 8.26626 20.1504 9.40039 20.1504H12L12.0869 20.1543C12.5155 20.1978 12.8496 20.5599 12.8496 21C12.8496 21.4401 12.5155 21.8022 12.0869 21.8457L12 21.8496H9.40039C8.29431 21.8496 7.41278 21.851 6.70313 21.793C6.0737 21.7415 5.52199 21.64 5.01367 21.4219L4.79785 21.3213C3.88548 20.8563 3.14366 20.1145 2.67871 19.2022C2.38956 18.6346 2.26584 18.0163 2.20703 17.2969C2.14905 16.5872 2.15039 15.7057 2.15039 14.5996V9.40039C2.15039 8.29432 2.14905 7.41278 2.20703 6.70313C2.26584 5.98374 2.38956 5.36536 2.67871 4.79785C3.14366 3.88548 3.88548 3.14366 4.79785 2.67871C5.36536 2.38956 5.98374 2.26584 6.70313 2.20703C7.41278 2.14905 8.29431 2.15039 9.40039 2.15039H14.5996ZM18.1895 14.1543C18.6303 14.176 19.065 14.2741 19.4736 14.4434L19.6465 14.5195C19.9886 14.6814 20.3045 14.8933 20.585 15.1475L20.7227 15.2773L20.8525 15.415C21.1489 15.7421 21.3873 16.1178 21.5566 16.5264L21.625 16.7031C21.7737 17.1189 21.8496 17.5575 21.8496 18L21.8457 18.1895C21.8271 18.5674 21.7525 18.9406 21.625 19.2969L21.5566 19.4736C21.3873 19.8822 21.1489 20.2579 20.8525 20.585L20.7227 20.7227C20.4098 21.0355 20.0456 21.2917 19.6465 21.4805L19.4736 21.5566C19.065 21.7259 18.6303 21.824 18.1895 21.8457L18 21.8496C17.5575 21.8496 17.1189 21.7737 16.7031 21.625L16.5264 21.5566C16.1178 21.3873 15.7421 21.1489 15.415 20.8525L15.2773 20.7227C14.9645 20.4098 14.7083 20.0456 14.5195 19.6465L14.4434 19.4736C14.2741 19.065 14.176 18.6303 14.1543 18.1895L14.1504 18C14.1504 17.4944 14.2499 16.9935 14.4434 16.5264L14.5195 16.3535C14.7083 15.9544 14.9645 15.5902 15.2773 15.2773L15.415 15.1475C15.7421 14.8511 16.1178 14.6127 16.5264 14.4434L16.7031 14.375C17.1189 14.2263 17.5575 14.1504 18 14.1504L18.1895 14.1543ZM18 15.8496C17.7882 15.8496 17.5779 15.8811 17.376 15.9424L17.1768 16.0137C16.9814 16.0946 16.7997 16.2043 16.6367 16.3379L16.4795 16.4795C16.3297 16.6293 16.203 16.8002 16.1035 16.9863L16.0137 17.1768C15.9056 17.4376 15.8496 17.7177 15.8496 18L15.8604 18.2109C15.8811 18.4209 15.9326 18.6276 16.0137 18.8232L16.1035 19.0137C16.203 19.1998 16.3297 19.3707 16.4795 19.5205L16.6367 19.6621C16.7997 19.7957 16.9814 19.9054 17.1768 19.9863L17.376 20.0576C17.5779 20.1189 17.7882 20.1504 18 20.1504L18.2109 20.1397C18.4209 20.1189 18.6276 20.0674 18.8232 19.9863L19.0137 19.8965C19.1998 19.797 19.3707 19.6703 19.5205 19.5205L19.6621 19.3633C19.7957 19.2004 19.9054 19.0186 19.9863 18.8232L20.0576 18.624C20.1189 18.4221 20.1504 18.2118 20.1504 18L20.1397 17.7891C20.1258 17.649 20.0985 17.5106 20.0576 17.376L19.9863 17.1768C19.9054 16.9814 19.7957 16.7997 19.6621 16.6367L19.5205 16.4795C19.3707 16.3297 19.1998 16.203 19.0137 16.1035L18.8232 16.0137C18.6276 15.9326 18.4209 15.8811 18.2109 15.8604L18 15.8496ZM10.0869 11.1543C10.5155 11.1978 10.8496 11.5599 10.8496 12C10.8496 12.4401 10.5155 12.8022 10.0869 12.8457L10 12.8496H7C6.53056 12.8496 6.15039 12.4694 6.15039 12C6.15039 11.5306 6.53056 11.1504 7 11.1504H10L10.0869 11.1543ZM13.0869 7.1543C13.5155 7.19783 13.8496 7.5599 13.8496 8C13.8496 8.44011 13.5155 8.80218 13.0869 8.84571L13 8.84961H7C6.53056 8.84961 6.15039 8.46944 6.15039 8C6.15039 7.53056 6.53056 7.15039 7 7.15039H13L13.0869 7.1543Z" fill="#1A1A1A"/>
</svg>
