<svg width="24" height="24" viewBox="0 0 24 24" fill="none" xmlns="http://www.w3.org/2000/svg">
<path d="M3 5C3 5.82843 3.67157 6.5 4.5 6.5C5.32843 6.5 6 5.82843 6 5C6 4.17157 5.32843 3.5 4.5 3.5C3.67157 3.5 3 4.17157 3 5Z" fill="#1A1A1A"/>
<path d="M6 12C6 12.8284 5.32843 13.5 4.5 13.5C3.67157 13.5 3 12.8284 3 12C3 11.1716 3.67157 10.5 4.5 10.5C5.32843 10.5 6 11.1716 6 12Z" fill="#1A1A1A"/>
<path d="M6 19C6 19.8284 5.32843 20.5 4.5 20.5C3.67157 20.5 3 19.8284 3 19C3 18.1716 3.67157 17.5 4.5 17.5C5.32843 17.5 6 18.1716 6 19Z" fill="#1A1A1A"/>
<path d="M13.5 12C13.5 12.8284 12.8284 13.5 12 13.5C11.1716 13.5 10.5 12.8284 10.5 12C10.5 11.1716 11.1716 10.5 12 10.5C12.8284 10.5 13.5 11.1716 13.5 12Z" fill="#1A1A1A"/>
<path d="M10.5 19C10.5 19.8284 11.1716 20.5 12 20.5C12.8284 20.5 13.5 19.8284 13.5 19C13.5 18.1716 12.8284 17.5 12 17.5C11.1716 17.5 10.5 18.1716 10.5 19Z" fill="#1A1A1A"/>
<path d="M13.5 5C13.5 5.82843 12.8284 6.5 12 6.5C11.1716 6.5 10.5 5.82843 10.5 5C10.5 4.17157 11.1716 3.5 12 3.5C12.8284 3.5 13.5 4.17157 13.5 5Z" fill="#1A1A1A"/>
<path d="M18 12C18 12.8284 18.6716 13.5 19.5 13.5C20.3284 13.5 21 12.8284 21 12C21 11.1716 20.3284 10.5 19.5 10.5C18.6716 10.5 18 11.1716 18 12Z" fill="#1A1A1A"/>
<path d="M21 19C21 19.8284 20.3284 20.5 19.5 20.5C18.6716 20.5 18 19.8284 18 19C18 18.1716 18.6716 17.5 19.5 17.5C20.3284 17.5 21 18.1716 21 19Z" fill="#1A1A1A"/>
<path d="M18 5C18 5.82843 18.6716 6.5 19.5 6.5C20.3284 6.5 21 5.82843 21 5C21 4.17157 20.3284 3.5 19.5 3.5C18.6716 3.5 18 4.17157 18 5Z" fill="#1A1A1A"/>
</svg>
