<svg width="29" height="29" viewBox="0 0 29 29" fill="none" xmlns="http://www.w3.org/2000/svg">
<path fill-rule="evenodd" clip-rule="evenodd" d="M14.501 7.93652C16.9646 7.93677 18.9619 9.93381 18.9619 12.3975C18.9618 14.861 16.9645 16.8581 14.501 16.8584C12.0372 16.8584 10.0402 14.8612 10.04 12.3975C10.04 9.93366 12.0372 7.93652 14.501 7.93652ZM14.501 9.63574C12.9761 9.63574 11.7393 10.8725 11.7393 12.3975C11.7394 13.9223 12.9761 15.1582 14.501 15.1582C16.0256 15.158 17.2616 13.9221 17.2617 12.3975C17.2617 10.8727 16.0257 9.63599 14.501 9.63574Z" fill="#1A1A1A"/>
<path fill-rule="evenodd" clip-rule="evenodd" d="M14.5 4.15039C20.2161 4.15039 24.8496 8.78385 24.8496 14.5C24.8496 20.2161 20.2161 24.8496 14.5 24.8496C8.78385 24.8496 4.15039 20.2161 4.15039 14.5C4.15039 8.78385 8.78385 4.15039 14.5 4.15039ZM12.3408 19.6357C10.9759 19.6357 9.7294 20.1483 8.78711 20.9932C10.3111 22.3351 12.3099 23.1504 14.5 23.1504C16.689 23.1504 18.6862 22.3349 20.21 20.9941C19.2686 20.1501 18.026 19.636 16.6621 19.6357H12.3408ZM14.5 5.84961C9.72274 5.84961 5.84961 9.72274 5.84961 14.5C5.84961 16.4761 6.51367 18.2964 7.62891 19.7529C8.87479 18.6244 10.5273 17.9365 12.3408 17.9365H16.6621C18.4747 17.9368 20.1248 18.6251 21.3701 19.7529C22.4856 18.2963 23.1504 16.4763 23.1504 14.5C23.1504 9.72274 19.2773 5.84961 14.5 5.84961Z" fill="#1A1A1A"/>
</svg>
