<svg width="29" height="29" viewBox="0 0 29 29" fill="none" xmlns="http://www.w3.org/2000/svg">
<path d="M5.46926 22.9146C10.7491 18.6909 18.252 18.6907 23.5318 22.9146C23.8977 23.2078 23.9574 23.7425 23.6646 24.1089C23.3714 24.4754 22.8358 24.5347 22.4693 24.2417C17.8104 20.5147 11.1907 20.5148 6.53176 24.2417C6.16527 24.5349 5.62975 24.4752 5.33645 24.1089C5.0434 23.7424 5.10307 23.2078 5.46926 22.9146ZM14.5015 4.40576C17.9125 4.40612 20.6773 7.17146 20.6773 10.5825C20.677 13.9934 17.9123 16.7579 14.5015 16.7583C11.0904 16.7583 8.32499 13.9936 8.32473 10.5825C8.32473 7.17124 11.0902 4.40576 14.5015 4.40576ZM14.5015 6.10498C12.0291 6.10498 10.024 8.11012 10.024 10.5825C10.0242 13.0547 12.0293 15.0591 14.5015 15.0591C16.9734 15.0587 18.9778 13.0545 18.9781 10.5825C18.9781 8.11035 16.9736 6.10534 14.5015 6.10498Z" fill="#1A1A1A"/>
</svg>
