<svg width="24" height="24" viewBox="0 0 24 24" fill="none" xmlns="http://www.w3.org/2000/svg">
<path fill-rule="evenodd" clip-rule="evenodd" d="M11.9999 6.25732C10.0117 6.25732 8.3999 7.8691 8.3999 9.85732C8.3999 11.8455 10.0117 13.4573 11.9999 13.4573C13.9881 13.4573 15.5999 11.8455 15.5999 9.85732C15.5999 7.8691 13.9881 6.25732 11.9999 6.25732ZM10.0999 9.85732C10.0999 8.80798 10.9506 7.95732 11.9999 7.95732C13.0492 7.95732 13.8999 8.80798 13.8999 9.85732C13.8999 10.9067 13.0492 11.7573 11.9999 11.7573C10.9506 11.7573 10.0999 10.9067 10.0999 9.85732Z" fill="#1A1A1A"/>
<path fill-rule="evenodd" clip-rule="evenodd" d="M11.9999 2.3999C7.74059 2.3999 4.1499 5.89776 4.1499 10.2743C4.1499 12.5141 5.25635 14.7315 6.52328 16.5567C7.80421 18.4021 9.33038 19.9613 10.3349 20.9054C11.2808 21.7945 12.7324 21.7677 13.6502 20.8592C14.6454 19.8741 16.1733 18.249 17.4582 16.3905C18.7222 14.562 19.8499 12.3689 19.8499 10.2743C19.8499 5.89776 16.2592 2.3999 11.9999 2.3999ZM5.8499 10.2743C5.8499 6.84594 8.67015 4.0999 11.9999 4.0999C15.3297 4.0999 18.1499 6.84594 18.1499 10.2743C18.1499 11.8271 17.281 13.6573 16.0598 15.4237C14.8594 17.1601 13.4135 18.7016 12.4543 19.651C12.182 19.9206 11.7734 19.9244 11.4991 19.6666C10.5385 18.7638 9.10616 17.2965 7.91981 15.5873C6.71946 13.858 5.8499 11.993 5.8499 10.2743Z" fill="#1A1A1A"/>
</svg>
