<svg width="30" height="30" viewBox="0 0 30 30" fill="none" xmlns="http://www.w3.org/2000/svg">
<circle cx="15" cy="15" r="15" fill="black" fill-opacity="0.04"/>
<path d="M18.793 9.79297C19.1835 9.40244 19.8165 9.40244 20.207 9.79297C20.5976 10.1835 20.5976 10.8165 20.207 11.207L16.4141 15L20.207 18.793C20.5976 19.1835 20.5976 19.8165 20.207 20.207C19.8165 20.5976 19.1835 20.5976 18.793 20.207L15 16.4141L11.207 20.207C10.8165 20.5976 10.1835 20.5976 9.79297 20.207C9.40244 19.8165 9.40244 19.1835 9.79297 18.793L13.5859 15L9.79297 11.207C9.40244 10.8165 9.40244 10.1835 9.79297 9.79297C10.1835 9.40244 10.8165 9.40244 11.207 9.79297L15 13.5859L18.793 9.79297Z" fill="black" fill-opacity="0.6"/>
</svg>
