<svg width="20" height="20" viewBox="0 0 20 20" fill="none" xmlns="http://www.w3.org/2000/svg">
<circle cx="10" cy="10" r="10" fill="white" fill-opacity="0.3"/>
<path fill-rule="evenodd" clip-rule="evenodd" d="M12.4343 13.5659C12.7467 13.8783 13.2532 13.8783 13.5656 13.5659C13.8781 13.2535 13.8781 12.7469 13.5656 12.4345L11.1313 10.0002L13.5656 7.56588C13.8781 7.25346 13.8781 6.74693 13.5656 6.43451C13.2532 6.12209 12.7467 6.12209 12.4343 6.43451L9.99995 8.86882L7.56564 6.43451C7.25322 6.12209 6.74669 6.12209 6.43427 6.43451C6.12185 6.74693 6.12185 7.25346 6.43427 7.56588L8.86858 10.0002L6.43427 12.4345C6.12185 12.7469 6.12185 13.2535 6.43427 13.5659C6.74669 13.8783 7.25322 13.8783 7.56564 13.5659L9.99995 11.1316L12.4343 13.5659Z" fill="white"/>
</svg>
