<svg width="20" height="20" viewBox="0 0 20 20" fill="none" xmlns="http://www.w3.org/2000/svg">
<circle cx="10" cy="10" r="10" fill="black" fill-opacity="0.04"/>
<path fill-rule="evenodd" clip-rule="evenodd" d="M12.6342 13.7661C12.9466 14.0785 13.4532 14.0785 13.7656 13.7661C14.078 13.4537 14.078 12.9471 13.7656 12.6347L11.3313 10.2004L13.7656 7.76608C14.078 7.45366 14.078 6.94712 13.7656 6.63471C13.4532 6.32229 12.9467 6.32229 12.6342 6.63471L10.1999 9.06903L7.76559 6.63471C7.45317 6.32229 6.94664 6.32229 6.63422 6.63471C6.3218 6.94712 6.3218 7.45366 6.63422 7.76608L9.06854 10.2004L6.63424 12.6347C6.32182 12.9471 6.32182 13.4537 6.63424 13.7661C6.94666 14.0785 7.45319 14.0785 7.76561 13.7661L10.1999 11.3318L12.6342 13.7661Z" fill="black" fill-opacity="0.6"/>
</svg>
