<svg width="24" height="24" viewBox="0 0 24 24" fill="none" xmlns="http://www.w3.org/2000/svg">
<path d="M4.92515 7.91431C2.71774 8.65598 1.1272 10.7409 1.1272 13.1991C1.1272 15.724 2.80525 17.8546 5.10505 18.541C5.55489 18.6752 6.02838 18.4194 6.16263 17.9695C6.29687 17.5197 6.04103 17.0462 5.59119 16.912C3.99177 16.4347 2.8272 14.9518 2.8272 13.1991C2.8272 11.3587 4.11143 9.81614 5.83351 9.42249C6.11166 9.3589 6.40195 9.32514 6.70117 9.32514C7.84299 9.32514 8.86852 9.81804 9.57874 10.6054C9.89318 10.9539 10.4307 10.9816 10.7792 10.6672C11.1278 10.3527 11.1555 9.81524 10.841 9.46667C9.84497 8.36247 8.41036 7.65733 6.81164 7.62621C7.65155 5.60102 9.64867 4.17656 11.9772 4.17656C14.9454 4.17656 17.3738 6.49063 17.5558 9.41249C17.5805 9.80908 17.8766 10.1356 18.2689 10.1988C19.9152 10.464 21.1727 11.8929 21.1727 13.6138C21.1727 15.1621 20.1549 16.4749 18.7499 16.9154C18.3019 17.0558 18.0526 17.5328 18.1931 17.9808C18.3335 18.4287 18.8105 18.678 19.2584 18.5375C21.3521 17.8811 22.8727 15.9262 22.8727 13.6138C22.8727 11.2751 21.3173 9.30105 19.1844 8.66756C18.6544 5.16253 15.6298 2.47656 11.9772 2.47656C8.59062 2.47656 5.74486 4.78518 4.92515 7.91431Z" fill="#1A1A1A"/>
<path fill-rule="evenodd" clip-rule="evenodd" d="M6.84998 20.5004V14.8504H6.19998C5.73053 14.8504 5.34998 14.4698 5.34998 14.0004C5.34998 13.5309 5.73053 13.1504 6.19998 13.1504H18.2C18.6694 13.1504 19.05 13.5309 19.05 14.0004C19.05 14.4698 18.6694 14.8504 18.2 14.8504H17.55V20.5004C17.55 21.7983 16.4978 22.8504 15.2 22.8504H9.19998C7.90211 22.8504 6.84998 21.7983 6.84998 20.5004ZM15.85 14.8504H8.54998V20.5004C8.54998 20.8594 8.84099 21.1504 9.19998 21.1504H15.2C15.559 21.1504 15.85 20.8594 15.85 20.5004V14.8504Z" fill="#1A1A1A"/>
</svg>
