<svg width="24" height="24" viewBox="0 0 24 24" fill="none" xmlns="http://www.w3.org/2000/svg">
<path d="M11.1504 20V14.0508L9.10059 16.1006C8.76865 16.4325 8.23136 16.4325 7.89941 16.1006C7.56748 15.7686 7.56748 15.2314 7.89941 14.8994L10.6914 12.1064L10.832 11.9795C11.5587 11.3866 12.6302 11.429 13.3076 12.1064L16.1006 14.8994L16.1592 14.9639C16.4314 15.2977 16.4117 15.7894 16.1006 16.1006C15.7894 16.4117 15.2977 16.4314 14.9639 16.1592L14.8994 16.1006L12.8496 14.0508V20C12.8496 20.4694 12.4694 20.8496 12 20.8496C11.5306 20.8496 11.1504 20.4694 11.1504 20ZM12.3906 2.66015C14.0913 2.75066 15.7079 3.42897 16.9639 4.57909C18.0827 5.60371 18.8515 6.94704 19.1758 8.41991C20.2482 8.77365 21.1867 9.45931 21.8496 10.3848C22.6169 11.4561 22.962 12.7731 22.8184 14.083C22.6748 15.3929 22.0525 16.6037 21.0713 17.4834C20.1511 18.3082 18.9755 18.7881 17.7461 18.8447L17.5 18.8496L17.4131 18.8457C16.9845 18.8022 16.6504 18.4401 16.6504 18C16.6504 17.5306 17.0306 17.1504 17.5 17.1504L17.668 17.1465C18.5067 17.1079 19.3088 16.7805 19.9365 16.2178C20.606 15.6176 21.03 14.7912 21.1279 13.8975C21.2258 13.0037 20.9904 12.1049 20.4668 11.374C19.9759 10.6889 19.2643 10.1959 18.4541 9.97655L18.291 9.93651L18.207 9.91308C18.1588 9.89711 18.1128 9.8771 18.0693 9.85351C17.8459 9.74658 17.6727 9.54413 17.6104 9.29101L17.5938 9.20605L17.5547 8.96386C17.3305 7.76161 16.7206 6.66194 15.8154 5.833C14.8499 4.94892 13.6071 4.42792 12.2998 4.35839C10.9924 4.28891 9.70133 4.67532 8.64746 5.45214C7.87048 6.02491 7.25798 6.78354 6.86133 7.65136C7.4369 7.66281 8.0098 7.76296 8.55859 7.95019C9.32869 8.21299 10.0307 8.64014 10.6172 9.20019L10.8613 9.44823L10.918 9.51464C11.177 9.8589 11.1376 10.3506 10.8145 10.6494C10.4913 10.9481 9.99868 10.9482 9.67578 10.6631L9.61328 10.6025L9.44336 10.4297C9.03481 10.0395 8.54527 9.74161 8.00879 9.55859C7.39582 9.34956 6.74019 9.29665 6.10156 9.40429C5.46286 9.51198 4.86119 9.77725 4.35059 10.1758C3.83991 10.5744 3.43634 11.094 3.17676 11.6875C2.91725 12.281 2.80928 12.9297 2.86328 13.5752C2.91731 14.2207 3.13172 14.8426 3.48633 15.3848C3.84093 15.9269 4.32474 16.3725 4.89453 16.6807C5.39317 16.9503 5.94393 17.1075 6.50781 17.1426L6.75 17.1504L6.83691 17.1543C7.26553 17.1978 7.59961 17.5599 7.59961 18C7.59961 18.4401 7.26553 18.8022 6.83691 18.8457L6.75 18.8496L6.40234 18.8389C5.59265 18.7885 4.80196 18.563 4.08594 18.1758C3.26776 17.7333 2.57266 17.0939 2.06348 16.3154C1.5543 15.537 1.24749 14.6437 1.16992 13.7168C1.09238 12.7899 1.24644 11.8581 1.61914 11.0059C1.99187 10.1537 2.57147 9.40823 3.30469 8.83593C3.79865 8.45038 4.35239 8.15322 4.94141 7.95214C5.39059 6.40378 6.33716 5.04346 7.63867 4.08398C9.00972 3.07336 10.6898 2.56969 12.3906 2.66015Z" fill="#1A1A1A"/>
</svg>
