<svg width="24" height="24" viewBox="0 0 24 24" fill="none" xmlns="http://www.w3.org/2000/svg">
<path d="M12.1799 12.5C12.6492 12.5002 13.0294 12.8804 13.0295 13.3496V19.0947L14.5998 17.6279C14.943 17.3079 15.4808 17.3269 15.801 17.6699C16.121 18.013 16.1029 18.5508 15.76 18.8711L12.76 21.6709C12.4335 21.9756 11.9264 21.9754 11.5998 21.6709L8.59985 18.8711C8.25676 18.5507 8.23855 18.0131 8.55883 17.6699C8.8791 17.3269 9.41685 17.3078 9.76 17.6279L11.3303 19.0947V13.3496C11.3304 12.8803 11.7106 12.5 12.1799 12.5ZM12.3909 2.66033C14.0914 2.7509 15.7082 3.42922 16.9641 4.57927C18.0828 5.60385 18.8517 6.94732 19.176 8.42007C20.2483 8.77384 21.187 9.45956 21.8498 10.3849C22.617 11.4562 22.9622 12.7733 22.8186 14.0831C22.675 15.393 22.0526 16.6039 21.0715 17.4835C20.0902 18.3631 18.8181 18.8496 17.5002 18.8497C17.0309 18.8497 16.6507 18.4695 16.6506 18.0001C16.6506 17.5307 17.0308 17.1505 17.5002 17.1505C18.3993 17.1504 19.2673 16.818 19.9368 16.2179C20.6061 15.6178 21.0302 14.7912 21.1282 13.8976C21.2261 13.004 20.9905 12.105 20.467 11.3742C19.9435 10.6436 19.1687 10.1315 18.2912 9.93667C18.212 9.91909 18.1375 9.89049 18.0696 9.85366C17.8217 9.73504 17.6356 9.49863 17.594 9.2062C17.41 7.91001 16.7811 6.71741 15.8157 5.83317C14.8502 4.94916 13.6072 4.42816 12.3 4.35856C10.9927 4.28909 9.70155 4.67554 8.6477 5.45231C7.87072 6.02508 7.25822 6.7837 6.86157 7.65152C7.43704 7.663 8.01013 7.76315 8.55883 7.95035C9.43881 8.25071 10.2303 8.7657 10.8616 9.44839C11.18 9.79306 11.1592 10.3309 10.8147 10.6496C10.4701 10.968 9.9322 10.9471 9.61352 10.6027C9.17381 10.1271 8.622 9.76793 8.00903 9.55874C7.39614 9.34974 6.74034 9.29686 6.1018 9.40444C5.46314 9.51213 4.86141 9.77744 4.35083 10.1759C3.84015 10.5745 3.43658 11.0941 3.177 11.6876C2.9175 12.2811 2.80952 12.9299 2.86352 13.5753C2.91758 14.2208 3.132 14.8428 3.48657 15.3849C3.84116 15.9269 4.32508 16.3727 4.89477 16.6808C5.46452 16.9888 6.10254 17.1505 6.75024 17.1505C7.21954 17.1507 7.59985 17.5308 7.59985 18.0001C7.59974 18.4694 7.21948 18.8496 6.75024 18.8497C5.82016 18.8497 4.90431 18.6183 4.08618 18.1759C3.2681 17.7334 2.57288 17.0939 2.06372 16.3155C1.55458 15.5372 1.24777 14.6438 1.17016 13.7169C1.09263 12.79 1.2467 11.8582 1.61938 11.006C1.99211 10.1538 2.57171 9.40838 3.30493 8.83609C3.79887 8.45057 4.35267 8.15337 4.94165 7.9523C5.39083 6.40395 6.3374 5.04363 7.63891 4.08415C9.00994 3.07359 10.69 2.56988 12.3909 2.66033Z" fill="#1A1A1A"/>
</svg>
