<svg width="24" height="24" viewBox="0 0 24 24" fill="none" xmlns="http://www.w3.org/2000/svg">
<path d="M4.8499 3.9999C4.8499 3.53046 4.46934 3.1499 3.9999 3.1499C3.53046 3.1499 3.1499 3.53046 3.1499 3.9999V16.9999C3.1499 19.1262 4.87361 20.8499 6.9999 20.8499H20.9999C21.4693 20.8499 21.8499 20.4693 21.8499 19.9999C21.8499 19.5305 21.4693 19.1499 20.9999 19.1499H6.9999C5.81249 19.1499 4.8499 18.1873 4.8499 16.9999V3.9999Z" fill="#1A1A1A"/>
<path d="M20.337 10.6837L18.7313 9.37393L15.1433 13.552C14.8395 13.9058 14.3096 13.9514 13.9538 13.6544L11.5785 11.6719L7.93269 15.976C7.62834 16.3353 7.09206 16.3815 6.73489 16.0791C6.37772 15.7767 6.3349 15.2402 6.63926 14.8809L10.8323 9.93075C11.1352 9.57322 11.6681 9.5255 12.0256 9.8239L14.4053 11.8101L17.4176 8.30234L15.9928 7.14007C15.7393 6.93324 15.8156 6.52774 16.127 6.42723L21.0373 4.84218C21.3224 4.75018 21.6074 4.98272 21.5746 5.28039L21.0084 10.4091C20.9725 10.7343 20.5906 10.8906 20.337 10.6837Z" fill="#1A1A1A"/>
</svg>
