<svg width="24" height="24" viewBox="0 0 24 24" fill="none" xmlns="http://www.w3.org/2000/svg">
<path fill-rule="evenodd" clip-rule="evenodd" d="M12.0575 1.22461H11.9423C9.87628 1.2246 8.24765 1.22459 6.96363 1.38056C5.6479 1.54038 4.58053 1.87473 3.70063 2.62624C3.4676 2.82527 3.25056 3.0423 3.05153 3.27534C2.30003 4.15524 1.96568 5.22261 1.80585 6.53833C1.64988 7.82236 1.64989 9.45097 1.6499 11.517V11.6322C1.64989 13.6982 1.64988 15.3269 1.80585 16.6109C1.96568 17.9266 2.30003 18.994 3.05153 19.8739C3.25056 20.1069 3.4676 20.324 3.70063 20.523C4.58053 21.2745 5.6479 21.6088 6.96363 21.7687C8.24765 21.9246 9.87628 21.9246 11.9423 21.9246H12.0574C14.1235 21.9246 15.7522 21.9246 17.0362 21.7687C18.3519 21.6088 19.4193 21.2745 20.2992 20.523C20.5322 20.324 20.7492 20.1069 20.9483 19.8739C21.6998 18.994 22.0341 17.9266 22.194 16.6109C22.3499 15.3269 22.3499 13.6982 22.3499 11.6322V11.5171C22.3499 9.45102 22.3499 7.82236 22.194 6.53833C22.0341 5.22261 21.6998 4.15524 20.9483 3.27534C20.7492 3.0423 20.5322 2.82527 20.2992 2.62624C19.4193 1.87473 18.3519 1.54038 17.0362 1.38056C15.7522 1.22459 14.1235 1.2246 12.0575 1.22461ZM4.80469 3.91893C5.32744 3.47246 6.01882 3.20782 7.16862 3.06815C8.33822 2.92608 9.86358 2.92461 11.9999 2.92461C14.1362 2.92461 15.6616 2.92608 16.8312 3.06815C17.981 3.20782 18.6724 3.47246 19.1951 3.91893C19.3604 4.06012 19.5144 4.21408 19.6556 4.3794C20.1021 4.90215 20.3667 5.59353 20.5064 6.74333C20.6288 7.75157 20.6468 9.02417 20.6495 10.7246H18.3629C17.2742 10.7246 16.4052 10.7246 15.7035 10.7819C14.9839 10.8407 14.3657 10.964 13.7981 11.2532C12.8855 11.7182 12.1435 12.4602 11.6785 13.3728C11.3893 13.9404 11.266 14.5586 11.2072 15.2782C11.1499 15.9799 11.1499 16.8489 11.1499 17.9376L11.1499 20.2242C9.44946 20.2215 8.17686 20.2035 7.16862 20.0811C6.01882 19.9414 5.32744 19.6768 4.80469 19.2303C4.63938 19.0891 4.48541 18.9351 4.34422 18.7698C3.89775 18.2471 3.63312 17.5557 3.49345 16.4059C3.35137 15.2363 3.3499 13.7109 3.3499 11.5746C3.3499 9.43829 3.35137 7.91293 3.49345 6.74333C3.63312 5.59353 3.89775 4.90215 4.34422 4.3794C4.48541 4.21408 4.63938 4.06012 4.80469 3.91893ZM12.8499 20.2242C14.5503 20.2215 15.8229 20.2035 16.8312 20.0811C17.981 19.9414 18.6724 19.6768 19.1951 19.2303C19.3604 19.0891 19.5144 18.9351 19.6556 18.7698C20.1021 18.2471 20.3667 17.5557 20.5064 16.4059C20.6288 15.3977 20.6468 14.1251 20.6495 12.4246H18.3999C17.2658 12.4246 16.4663 12.4253 15.8419 12.4763C15.2275 12.5265 14.8579 12.6212 14.5698 12.7679C13.9771 13.0699 13.4952 13.5518 13.1932 14.1445C13.0465 14.4326 12.9518 14.8022 12.9016 15.4166C12.8506 16.041 12.8499 16.8405 12.8499 17.9746L12.8499 20.2242Z" fill="#1A1A1A"/>
</svg>
