<svg width="24" height="24" viewBox="0 0 24 24" fill="none" xmlns="http://www.w3.org/2000/svg">
<path fill-rule="evenodd" clip-rule="evenodd" d="M9.49601 2.98344C8.53282 2.37588 7.30041 2.40001 6.36175 3.04483L5.43634 3.68055C4.45169 4.35696 4.35671 5.77533 5.24237 6.57699L9.61612 10.5359L7.91126 11.913L7.09161 11.2934C6.3408 10.7258 5.35818 10.5655 4.4659 10.865L2.12389 11.6512C1.09701 11.996 0.873878 13.3489 1.73568 14.0051L6.01965 17.2672C6.51592 17.6451 7.12247 17.8497 7.74624 17.8497H9.519C9.73867 17.8497 9.95502 17.7961 10.1493 17.6936L20.0128 12.4861C22.0143 11.4295 22.7392 8.92288 21.6108 6.96099C20.6455 5.28278 18.4939 4.71861 16.8294 5.70725L15.2764 6.62963L9.49601 2.98344ZM7.32433 4.44606C7.70309 4.18587 8.20038 4.17613 8.58903 4.42129L14.8095 8.34511C15.0796 8.5155 15.4225 8.52009 15.6971 8.357L17.6975 7.16888C18.5468 6.66443 19.6446 6.9523 20.1372 7.80859C20.7854 8.9357 20.369 10.3757 19.2191 10.9828L9.43228 16.1497H7.74624C7.49454 16.1497 7.24979 16.0671 7.04954 15.9147L3.29099 13.0527L5.00693 12.4766C5.36697 12.3557 5.76347 12.4204 6.06643 12.6495L7.10428 13.4341C7.59882 13.8079 8.28443 13.7969 8.7667 13.4073L11.0027 11.6012C11.6476 11.0802 11.675 10.1065 11.0603 9.55011L6.38319 5.31662C6.31138 5.25162 6.31908 5.13662 6.39892 5.08177L7.32433 4.44606Z" fill="#1A1A1A"/>
<path d="M9.50002 19.1494C9.03058 19.1494 8.65002 19.53 8.65002 19.9994C8.65002 20.4689 9.03058 20.8494 9.50002 20.8494H19.5C19.9695 20.8494 20.35 20.4689 20.35 19.9994C20.35 19.53 19.9695 19.1494 19.5 19.1494H9.50002Z" fill="#1A1A1A"/>
</svg>
