<svg width="24" height="24" viewBox="0 0 24 24" fill="none" xmlns="http://www.w3.org/2000/svg">
<path d="M8.15002 13.9999C8.15002 13.5305 8.53058 13.1499 9.00002 13.1499H11.15V10.9999C11.15 10.5305 11.5305 10.1499 12 10.1499C12.4694 10.1499 12.85 10.5305 12.85 10.9999V13.1499H15C15.4695 13.1499 15.85 13.5305 15.85 13.9999C15.85 14.4693 15.4695 14.8499 15 14.8499H12.85V16.9999C12.85 17.4693 12.4694 17.8499 12 17.8499C11.5305 17.8499 11.15 17.4693 11.15 16.9999V14.8499H9.00002C8.53058 14.8499 8.15002 14.4693 8.15002 13.9999Z" fill="#1A1A1A"/>
<path fill-rule="evenodd" clip-rule="evenodd" d="M11.0451 1.67969C11.5896 1.88375 12.0319 2.37949 12.1212 3.03725C12.2487 3.97635 12.4661 5.09878 12.8179 5.96554C12.9944 6.40037 13.1832 6.71577 13.3675 6.91057C13.5399 7.09273 13.6656 7.12914 13.7647 7.12914C13.781 7.12914 13.7868 7.12742 13.8009 7.11829C13.8233 7.10378 13.8707 7.06416 13.9327 6.97105C14.0637 6.77411 14.1813 6.45813 14.2713 6.05939C14.4167 5.41439 14.889 4.93433 15.4482 4.74933C16.0328 4.55592 16.7514 4.68422 17.2111 5.29612C18.4942 7.00391 20.35 10.118 20.35 13.9069C20.35 16.3275 19.5048 18.4469 18.01 19.9642C16.5141 21.4826 14.415 22.3499 12 22.3499C9.58508 22.3499 7.48596 21.4827 5.99009 19.9643C4.49527 18.4469 3.65002 16.3275 3.65002 13.9069C3.65002 11.2914 4.60501 8.83666 5.76789 6.80931C6.93379 4.77667 8.34041 3.1185 9.319 2.08053C9.80594 1.56404 10.4893 1.47137 11.0451 1.67969ZM10.4496 3.36016C9.53301 4.34451 8.27898 5.84819 7.24252 7.65515C6.16237 9.53829 5.35002 11.696 5.35002 13.9069C5.35002 15.9245 6.04889 17.6016 7.20113 18.7712C8.35233 19.9397 10.0032 20.6499 12 20.6499C13.9968 20.6499 15.6477 19.9397 16.7989 18.7712C17.9512 17.6016 18.65 15.9245 18.65 13.9069C18.65 10.7275 17.1138 8.0253 15.9319 6.42462C15.9311 6.42744 15.9303 6.43036 15.9296 6.43338C15.8217 6.91209 15.6475 7.46249 15.3481 7.91257C15.0387 8.37772 14.5233 8.82914 13.7647 8.82914C13.0783 8.82914 12.533 8.50205 12.1327 8.07899C11.7443 7.66856 11.4587 7.137 11.2427 6.60491C10.8233 5.57166 10.5852 4.32816 10.4496 3.36016Z" fill="#1A1A1A"/>
</svg>
