<svg width="24" height="24" viewBox="0 0 24 24" fill="none" xmlns="http://www.w3.org/2000/svg">
<path fill-rule="evenodd" clip-rule="evenodd" d="M6.75323 10.609C6.37005 11.5191 5.84121 12.9116 5.46475 14.2089C5.40144 14.4271 5.34245 14.6426 5.28917 14.8526C5.22079 15.1222 5.16184 15.3829 5.11533 15.6288L5.10336 15.6932C5.04207 16.0298 5.00507 16.337 5.00032 16.5997C4.99408 16.9443 5.04332 17.212 5.16597 17.3683C5.17589 17.3779 5.1873 17.3841 5.20007 17.3871C5.30719 17.4118 5.51005 17.2095 5.73643 16.9206C5.86255 16.7596 5.99596 16.5717 6.12418 16.3811C6.18604 16.2892 6.2467 16.1966 6.30473 16.1061C6.41587 15.9329 6.51743 15.7674 6.59956 15.6288C6.59956 15.8335 6.62985 16.128 6.70914 16.47C6.78792 16.8099 6.91507 17.1968 7.10896 17.5893C7.14159 17.6553 7.1761 17.7216 7.21259 17.7877C7.38009 18.0914 7.58923 18.3943 7.84848 18.6773C7.95292 18.7913 8.06548 18.9021 8.18673 19.0084C8.14327 19.0217 8.09703 19.0365 8.04874 19.0529C7.52764 19.2292 6.76922 19.5776 6.71074 19.9488C6.70017 20.016 6.71246 20.0838 6.75316 20.1515C6.84219 20.2997 7.49921 20.3776 8.34558 20.4055C8.43352 20.4084 8.52351 20.4107 8.61512 20.4126C8.86657 20.4176 9.13021 20.4188 9.39727 20.4165C9.94209 20.4118 10.5011 20.3928 10.9998 20.3635V20.9998C10.9998 21.3843 11.1083 21.7434 11.2963 22.0483C10.5223 22.0994 9.60122 22.1255 8.78214 22.1155C8.22958 22.1087 7.67646 22.0851 7.22447 22.0326C7.00547 22.0071 6.75121 21.9685 6.51235 21.9019C6.39475 21.8692 6.22577 21.8147 6.04729 21.7225C5.90241 21.6476 5.54824 21.4469 5.29602 21.0272C5.09089 20.6858 4.98033 20.2784 5.01268 19.8461C5.03501 19.5476 5.12101 19.2927 5.22314 19.0874C4.84311 19.092 4.38837 18.9827 3.98193 18.5882L3.89956 18.5082L3.82868 18.4179C3.46597 17.9558 3.36109 17.4382 3.32376 17.1063C3.28318 16.7454 3.29926 16.3787 3.33413 16.049C3.40415 15.387 3.57651 14.6418 3.77638 13.9302C4.13765 12.6442 4.64694 11.2664 5.04995 10.2787C5.05314 7.18851 5.9321 5.03769 7.32216 3.64689C8.73905 2.22924 10.4606 1.82937 11.6289 1.80229C13.1562 1.76687 14.4667 2.1116 15.5473 2.77534C16.6207 3.43476 17.3706 4.34936 17.8797 5.30922C18.7633 6.97472 18.9787 8.8735 18.9222 10.2726C19.2588 10.9904 19.543 11.7049 19.7785 12.3894C19.1743 12.1406 18.5131 12.0024 17.8199 11.9998C17.6358 11.5412 17.4285 11.0746 17.1968 10.609C17.4218 8.19199 16.6311 3.38673 11.6683 3.50183C9.9613 3.54141 6.63035 4.6847 6.75323 10.609ZM8.02004 20.9254C8.02004 20.9254 8.02419 20.9216 8.03468 20.9144C8.02564 20.9219 8.02004 20.9254 8.02004 20.9254Z" fill="#1A1A1A"/>
<path d="M12.9999 13.1499C13.4693 13.1499 13.8499 13.5305 13.8499 13.9999V20.9999C13.8499 21.4693 13.4693 21.8499 12.9999 21.8499C12.5305 21.8499 12.1499 21.4693 12.1499 20.9999V13.9999C12.1499 13.5305 12.5305 13.1499 12.9999 13.1499Z" fill="#1A1A1A"/>
<path fill-rule="evenodd" clip-rule="evenodd" d="M15.9999 13.1499C15.5305 13.1499 15.1499 13.5305 15.1499 13.9999V20.9999C15.1499 21.4693 15.5305 21.8499 15.9999 21.8499H18.2499C20.2381 21.8499 21.8499 20.2381 21.8499 18.2499V16.7499C21.8499 14.7617 20.2381 13.1499 18.2499 13.1499H15.9999ZM16.8499 20.1499V14.8499H18.2499C19.2992 14.8499 20.1499 15.7006 20.1499 16.7499V18.2499C20.1499 19.2992 19.2992 20.1499 18.2499 20.1499H16.8499Z" fill="#1A1A1A"/>
</svg>
