<svg width="24" height="24" viewBox="0 0 24 24" fill="none" xmlns="http://www.w3.org/2000/svg">
<path d="M9.79394 8.38893C9.88163 8.22355 10.1186 8.22355 10.2062 8.38893L11.2128 10.2874L13.1113 11.2939C13.2766 11.3816 13.2766 11.6186 13.1113 11.7062L11.2128 12.7128L10.2062 14.6113C10.1186 14.7766 9.88163 14.7766 9.79394 14.6113L8.78741 12.7128L6.88893 11.7062C6.72355 11.6186 6.72355 11.3816 6.88893 11.2939L8.78741 10.2874L9.79394 8.38893Z" fill="#1A1A1A"/>
<path fill-rule="evenodd" clip-rule="evenodd" d="M10.0436 2.1499H9.95619C8.82385 2.14989 7.91247 2.14988 7.17988 2.22093C6.4248 2.29416 5.77052 2.4491 5.18556 2.81665C4.63223 3.16434 4.16434 3.63223 3.81665 4.18556C3.4491 4.77052 3.29416 5.4248 3.22093 6.17988C3.14988 6.91247 3.14989 7.82383 3.1499 8.95617V14.0436C3.14989 15.176 3.14988 16.0873 3.22093 16.8199C3.29416 17.575 3.4491 18.2293 3.81665 18.8142C4.16434 19.3676 4.63223 19.8355 5.18556 20.1832C5.77052 20.5507 6.4248 20.7056 7.17988 20.7789C7.91248 20.8499 8.82385 20.8499 9.9562 20.8499H10.0436C11.1759 20.8499 12.0873 20.8499 12.8199 20.7789C13.575 20.7056 14.2293 20.5507 14.8142 20.1832C14.9753 20.082 15.1291 19.9706 15.2748 19.8499C15.3485 19.85 15.4237 19.85 15.5001 19.85H15.5473C16.4446 19.85 17.1862 19.85 17.783 19.7853C18.4062 19.7178 18.9716 19.5717 19.4692 19.2102C19.7536 19.0035 20.0037 18.7534 20.2103 18.469C20.5719 17.9714 20.718 17.4061 20.7855 16.7829C20.8501 16.186 20.8501 15.4444 20.8501 14.5471V10.4528C20.8501 9.55548 20.8501 8.81387 20.7855 8.21702C20.718 7.59384 20.5719 7.0285 20.2103 6.53087C20.0037 6.24647 19.7536 5.99637 19.4692 5.78974C19.0087 5.45516 18.4905 5.3052 17.9217 5.23109C17.5387 5.18118 17.0993 5.16215 16.6014 5.15477C16.5069 4.81018 16.3735 4.48857 16.1832 4.18556C15.8355 3.63223 15.3676 3.16434 14.8142 2.81665C14.2293 2.4491 13.575 2.29416 12.8199 2.22093C12.0873 2.14988 11.176 2.14989 10.0436 2.1499ZM6.09002 4.25608C6.35884 4.08717 6.71617 3.97388 7.34398 3.91299C7.98487 3.85084 8.81365 3.8499 9.9999 3.8499C11.1862 3.8499 12.0149 3.85084 12.6558 3.91299C13.2836 3.97388 13.641 4.08717 13.9098 4.25608C14.2469 4.46789 14.5319 4.75293 14.7437 5.09002C14.9126 5.35884 15.0259 5.71617 15.0868 6.34398C15.149 6.98487 15.1499 7.81365 15.1499 8.9999V13.9999C15.1499 15.1862 15.149 16.0149 15.0868 16.6558C15.0259 17.2836 14.9126 17.641 14.7437 17.9098C14.5319 18.2469 14.2469 18.5319 13.9098 18.7437C13.641 18.9126 13.2836 19.0259 12.6558 19.0868C12.0149 19.149 11.1862 19.1499 9.9999 19.1499C8.81365 19.1499 7.98487 19.149 7.34398 19.0868C6.71617 19.0259 6.35884 18.9126 6.09002 18.7437C5.75293 18.5319 5.46789 18.2469 5.25608 17.9098C5.08717 17.641 4.97388 17.2836 4.91299 16.6558C4.85084 16.0149 4.8499 15.1862 4.8499 13.9999V8.9999C4.8499 7.81365 4.85084 6.98487 4.91299 6.34398C4.97388 5.71617 5.08717 5.35884 5.25608 5.09002C5.46789 4.75293 5.75293 4.46789 6.09002 4.25608ZM16.8245 6.85959C16.8501 7.45529 16.8501 8.14257 16.8501 8.93646L16.8501 14.0437C16.8501 15.176 16.8501 16.0874 16.7791 16.82C16.7325 17.3001 16.6529 17.7395 16.5066 18.1462C16.9492 18.1407 17.3025 18.1274 17.5999 18.0952C18.0785 18.0434 18.3104 17.9507 18.4699 17.8348C18.61 17.7331 18.7332 17.6099 18.835 17.4698C18.9509 17.3103 19.0435 17.0783 19.0954 16.5998C19.1489 16.1053 19.1501 15.4563 19.1501 14.5V10.5C19.1501 9.54358 19.1489 8.89459 19.0954 8.40014C19.0435 7.9216 18.9509 7.68964 18.835 7.53011C18.7332 7.39003 18.61 7.26684 18.4699 7.16507C18.3222 7.05771 18.112 6.97026 17.7021 6.91684C17.4601 6.8853 17.1751 6.86847 16.8245 6.85959Z" fill="#1A1A1A"/>
</svg>
