<svg width="24" height="24" viewBox="0 0 24 24" fill="none" xmlns="http://www.w3.org/2000/svg">
<path d="M11.9995 14.5C14.2087 14.5 15.9995 13.9404 15.9995 13.25C15.9995 12.5596 14.2087 12 11.9995 12C9.79037 12 7.99951 12.5596 7.99951 13.25C7.99951 13.9404 9.79037 14.5 11.9995 14.5Z" fill="#1A1A1A"/>
<path fill-rule="evenodd" clip-rule="evenodd" d="M11.9989 2.2688C11.2999 2.2688 10.6642 2.45646 9.97826 2.76719C9.31798 3.06629 8.55556 3.50649 7.61098 4.05185L7.30952 4.2259C6.36494 4.77124 5.6025 5.21142 5.01333 5.63369C4.40126 6.07237 3.92092 6.52903 3.57141 7.1344C3.2219 7.73977 3.06659 8.38408 2.99272 9.13349C2.92161 9.85486 2.92162 10.7352 2.92163 11.8259V12.174C2.92162 13.2647 2.92161 14.1451 2.99272 14.8665C3.06659 15.6159 3.2219 16.2602 3.57141 16.8656C3.92092 17.471 4.40126 17.9276 5.01333 18.3663C5.6025 18.7886 6.36492 19.2287 7.3095 19.7741L7.61099 19.9481C8.55556 20.4935 9.31798 20.9337 9.97826 21.2328C10.6642 21.5435 11.2999 21.7312 11.9989 21.7312C12.6979 21.7312 13.3335 21.5435 14.0195 21.2328C14.6798 20.9337 15.4422 20.4935 16.3867 19.9482L16.6883 19.7741C17.6328 19.2287 18.3953 18.7886 18.9844 18.3663C19.5965 17.9276 20.0768 17.471 20.4263 16.8656C20.7758 16.2602 20.9312 15.6159 21.005 14.8665C21.0761 14.1451 21.0761 13.2648 21.0761 12.1741V11.826C21.0761 10.7353 21.0761 9.85485 21.005 9.13349C20.9312 8.38408 20.7758 7.73977 20.4263 7.1344C20.0768 6.52903 19.5965 6.07237 18.9844 5.63369C18.3952 5.21142 17.6328 4.77124 16.6882 4.2259L16.3868 4.05186C15.4422 3.5065 14.6798 3.06629 14.0195 2.76719C13.3335 2.45646 12.6979 2.2688 11.9989 2.2688ZM8.42387 5.54552C9.41426 4.97372 10.1046 4.57623 10.6797 4.31571C11.2378 4.06291 11.6261 3.9688 11.9989 3.9688C12.3716 3.9688 12.7599 4.06291 13.318 4.31571C13.8931 4.57623 14.5835 4.97372 15.5739 5.54552L15.8011 5.67672C16.7915 6.24852 17.4809 6.64765 17.9941 7.01545C18.4921 7.37235 18.7677 7.66157 18.9541 7.9844C19.1405 8.30723 19.2531 8.69055 19.3132 9.30026C19.3752 9.92858 19.3761 10.7252 19.3761 11.8688V12.1312C19.3761 13.2748 19.3752 14.0714 19.3132 14.6997C19.2531 15.3094 19.1405 15.6928 18.9541 16.0156C18.7677 16.3384 18.4921 16.6276 17.9941 16.9845C17.4809 17.3523 16.7915 17.7515 15.8011 18.3233L15.5739 18.4545C14.5835 19.0263 13.8931 19.4238 13.318 19.6843C12.7599 19.9371 12.3716 20.0312 11.9989 20.0312C11.6261 20.0312 11.2378 19.9371 10.6797 19.6843C10.1046 19.4238 9.41426 19.0263 8.42387 18.4545L8.19663 18.3233C7.20625 17.7515 6.51683 17.3523 6.00365 16.9845C5.50568 16.6276 5.23004 16.3384 5.04365 16.0156C4.85726 15.6928 4.74462 15.3094 4.68452 14.6997C4.62258 14.0714 4.62163 13.2748 4.62163 12.1312V11.8688C4.62163 10.7252 4.62258 9.92858 4.68452 9.30026C4.74462 8.69055 4.85726 8.30723 5.04365 7.9844C5.23004 7.66157 5.50568 7.37235 6.00366 7.01545C6.51683 6.64765 7.20625 6.24852 8.19663 5.67672L8.42387 5.54552Z" fill="#1A1A1A"/>
</svg>
