<svg width="24" height="24" viewBox="0 0 24 24" fill="none" xmlns="http://www.w3.org/2000/svg">
<path d="M11.6161 12.1097C11.5246 12.1803 11.5582 12.2893 11.6574 12.3274C12.8411 12.7823 14.5466 12.9598 15.8998 13.0032C16.6786 13.0283 17.3407 13.0089 17.7192 12.9724C17.9328 12.9518 17.9746 13.0891 17.9746 13.0891C16.6053 13.6606 13.2783 14.6222 9.19273 14.4819C8.69933 14.4649 8.20844 14.4099 7.93331 14.3597C7.63794 14.3058 7.59051 13.9867 7.77101 13.8343C8.7558 13.0032 11.7101 10.8627 12.5603 10.2467C12.6997 10.1457 12.7826 10.0857 12.7909 10.0792C12.8603 10.0245 12.8639 9.94464 12.8006 9.89022C12.7121 9.81413 10.6268 9.07531 7.43442 9.56609C7.21626 9.59965 7.08813 9.30049 7.30163 9.18698C8.20117 8.70881 10.2517 8.11807 12.339 8.13513C13.7976 8.14711 15.0574 8.58615 15.4143 8.85108C15.6005 8.98923 15.5601 9.15922 15.407 9.28945C14.9176 9.70581 13.8678 10.4658 12.9579 11.1246C12.408 11.5227 11.9092 11.8838 11.6161 12.1097Z" fill="#1A1A1A"/>
<path fill-rule="evenodd" clip-rule="evenodd" d="M19.1445 4.92585C18.5254 4.31182 17.6888 3.96729 16.8168 3.96729H7.14995C6.27328 3.96729 5.43251 4.31554 4.81261 4.93544L1.94497 7.80306C0.654084 9.09395 0.654086 11.1869 1.94497 12.4778L9.66757 20.2003C10.9584 21.4912 13.0514 21.4912 14.3422 20.2003L22.0552 12.4874C23.3499 11.1928 23.3455 9.0924 22.0456 7.8031L19.1445 4.92585ZM7.14995 5.66729H16.8168C17.2404 5.66729 17.6467 5.83463 17.9474 6.13286L20.8485 9.01012C21.4799 9.63634 21.4819 10.6565 20.8531 11.2853L13.1402 18.9982C12.5132 19.6252 11.4966 19.6252 10.8696 18.9982L3.14705 11.2757C2.52006 10.6487 2.52006 9.63214 3.14705 9.00515L6.01469 6.13752C6.31578 5.83643 6.72414 5.66729 7.14995 5.66729Z" fill="#1A1A1A"/>
</svg>
