<svg width="16" height="16" viewBox="0 0 16 16" fill="none" xmlns="http://www.w3.org/2000/svg">
<path d="M7.26009 2.27212C7.26009 1.86403 7.59092 1.5332 7.99901 1.5332C8.4071 1.5332 8.73792 1.86403 8.73792 2.27212V2.55151C8.73792 2.56684 8.73746 2.58206 8.73654 2.59715C10.9079 2.9539 12.3243 4.8742 12.3243 7.10339L12.3249 9.3126L13.6665 11.0593C13.6931 11.0938 13.7155 11.1313 13.7335 11.171C13.8409 11.4087 13.8574 11.6552 13.8038 11.8804C13.7952 11.8714 13.7865 11.8625 13.7776 11.8537L11.1916 9.28614L11.191 7.10339C11.191 5.15918 9.86237 3.67118 7.99841 3.67118C7.28465 3.67118 6.64939 3.88937 6.13717 4.26781L5.32457 3.46103C5.86426 3.02354 6.51872 2.71878 7.26147 2.59696C7.26055 2.58193 7.26009 2.56677 7.26009 2.55151V2.27212Z" fill="#929296"/>
<path d="M3.93367 3.13251C3.71237 2.91121 3.35358 2.91121 3.13228 3.13251C2.91098 3.3538 2.91098 3.7126 3.13228 3.93389L12.4656 13.2672C12.6869 13.4885 13.0457 13.4885 13.267 13.2672C13.4883 13.0459 13.4883 12.6871 13.267 12.4658L3.93367 3.13251Z" fill="#929296"/>
<path d="M5.92114 13.4184C5.87973 13.3254 5.95202 13.2266 6.05375 13.2266H9.94762C10.0494 13.2266 10.1216 13.3254 10.0802 13.4184C9.75593 14.1461 8.94712 14.6617 8.00069 14.6617C7.05425 14.6617 6.24545 14.1461 5.92114 13.4184Z" fill="#929296"/>
<path d="M3.67249 7.10339C3.67249 6.63726 3.73442 6.18464 3.85224 5.757L4.82329 6.72111C4.81172 6.84631 4.80582 6.97384 4.80582 7.10339V9.50687C4.80582 9.63173 4.76458 9.7531 4.6885 9.85212L3.34208 11.6045H9.74182L10.8833 12.7378H3.28066C2.47791 12.7378 1.93002 11.9115 2.26482 11.171C2.28278 11.1313 2.30526 11.0938 2.33181 11.0592L3.67249 9.31431V7.10339Z" fill="#929296"/>
</svg>
