<svg width="24" height="24" viewBox="0 0 24 24" fill="none" xmlns="http://www.w3.org/2000/svg">
<path fill-rule="evenodd" clip-rule="evenodd" d="M11.9999 2.6499C9.32132 2.6499 7.1499 4.82132 7.1499 7.4999C7.1499 10.1785 9.32132 12.3499 11.9999 12.3499C14.6785 12.3499 16.8499 10.1785 16.8499 7.4999C16.8499 4.82132 14.6785 2.6499 11.9999 2.6499ZM8.8499 7.4999C8.8499 5.76021 10.2602 4.3499 11.9999 4.3499C13.7396 4.3499 15.1499 5.76021 15.1499 7.4999C15.1499 9.2396 13.7396 10.6499 11.9999 10.6499C10.2602 10.6499 8.8499 9.2396 8.8499 7.4999Z" fill="#1A1A1A"/>
<path d="M9.00039 15.3499C6.70841 15.3499 4.85039 17.2079 4.85039 19.4999C4.85039 19.5827 4.91755 19.6499 5.00039 19.6499H12.0004C12.4698 19.6499 12.8504 20.0305 12.8504 20.4999C12.8504 20.9693 12.4698 21.3499 12.0004 21.3499H5.00039C3.97866 21.3499 3.15039 20.5216 3.15039 19.4999C3.15039 16.269 5.76952 13.6499 9.00039 13.6499H12.0004C12.4698 13.6499 12.8504 14.0305 12.8504 14.4999C12.8504 14.9693 12.4698 15.3499 12.0004 15.3499H9.00039Z" fill="#1A1A1A"/>
<path d="M14.399 14.3991C14.7309 14.0672 15.2691 14.0672 15.601 14.3991L17.4999 16.298L19.3487 14.4493C19.6807 14.1173 20.2188 14.1173 20.5508 14.4493C20.8827 14.7812 20.8827 15.3194 20.5508 15.6514L18.702 17.5001L20.5508 19.3489C20.8827 19.6808 20.8827 20.219 20.5508 20.551C20.2188 20.8829 19.6807 20.8829 19.3487 20.551L17.4999 18.7022L15.601 20.6011C15.2691 20.9331 14.7309 20.9331 14.399 20.6011C14.067 20.2692 14.067 19.731 14.399 19.399L16.2979 17.5001L14.399 15.6012C14.067 15.2693 14.067 14.7311 14.399 14.3991Z" fill="#1A1A1A"/>
</svg>
