<svg width="24" height="24" viewBox="0 0 24 24" fill="none" xmlns="http://www.w3.org/2000/svg">
<path d="M8.60097 10.399C8.26903 10.067 7.73084 10.067 7.39889 10.399C7.06695 10.7309 7.06695 11.2691 7.39889 11.601L9.69179 13.8939C10.4143 14.6164 11.5856 14.6164 12.3081 13.8939L16.601 9.60104C16.9329 9.2691 16.9329 8.73091 16.601 8.39896C16.269 8.06701 15.7308 8.06701 15.3989 8.39896L11.106 12.6919C11.0474 12.7504 10.9524 12.7504 10.8939 12.6919L8.60097 10.399Z" fill="#1A1A1A"/>
<path fill-rule="evenodd" clip-rule="evenodd" d="M13.2974 2.01491C12.4525 1.75089 11.5473 1.75089 10.7024 2.01491L6.2024 3.42116C4.38639 3.98866 3.1499 5.67052 3.1499 7.57314V14.4427C3.1499 14.9526 3.27987 15.4542 3.52753 15.9C5.06468 18.6668 7.54891 20.7859 10.5235 21.8676L10.9088 22.0077C11.6136 22.264 12.3862 22.264 13.091 22.0077L13.4763 21.8676C16.4509 20.7859 18.9351 18.6668 20.4723 15.9C20.7199 15.4542 20.8499 14.9526 20.8499 14.4427V7.57314C20.8499 5.67052 19.6134 3.98866 17.7974 3.42116L13.2974 2.01491ZM11.2095 3.63752C11.7242 3.47669 12.2757 3.47669 12.7903 3.63752L17.2903 5.04377C18.3966 5.38949 19.1499 6.41407 19.1499 7.57314V14.4427C19.1499 14.6637 19.0936 14.8811 18.9862 15.0744C17.6479 17.4833 15.4851 19.3282 12.8953 20.2699L12.5101 20.41C12.1805 20.5298 11.8193 20.5298 11.4897 20.41L11.1045 20.2699C8.51471 19.3282 6.35188 17.4833 5.0136 15.0744C4.90624 14.8811 4.8499 14.6637 4.8499 14.4427V7.57314C4.8499 6.41407 5.60316 5.38949 6.70947 5.04377L11.2095 3.63752Z" fill="#1A1A1A"/>
</svg>
