<svg width="24" height="24" viewBox="0 0 24 24" fill="none" xmlns="http://www.w3.org/2000/svg">
<path d="M10.6797 6.72559C11.4067 5.99888 12.5855 5.99888 13.3125 6.72559L18.1162 11.5303C18.448 11.8622 18.448 12.3995 18.1162 12.7314C17.7843 13.0633 17.247 13.0633 16.915 12.7314L12.8496 8.66602V20.3955L12.8457 20.4824C12.8022 20.9111 12.4401 21.2461 12 21.2461C11.5599 21.2461 11.1978 20.9111 11.1543 20.4824L11.1504 20.3955V8.6582L7.07715 12.7314L7.0127 12.79C6.67887 13.0622 6.18714 13.0425 5.87598 12.7314C5.56494 12.4203 5.54524 11.9285 5.81738 11.5947L5.87598 11.5303L10.6797 6.72559ZM20.0869 2.75684C20.5155 2.80036 20.8496 3.16244 20.8496 3.60254C20.8496 4.04264 20.5155 4.40471 20.0869 4.44824L20 4.45215H4C3.53056 4.45215 3.15039 4.07198 3.15039 3.60254C3.15039 3.1331 3.53056 2.75293 4 2.75293H20L20.0869 2.75684Z" fill="#1A1A1A"/>
</svg>
