<svg width="24" height="24" viewBox="0 0 24 24" fill="none" xmlns="http://www.w3.org/2000/svg">
<path d="M19.7986 14.4661C20.2285 12.2233 20.1768 9.91172 19.6435 7.68544C19.2733 6.14022 17.9926 4.95206 16.4163 4.68198C13.4195 4.16852 10.2827 4.16851 7.28587 4.68196C5.70958 4.95203 4.42882 6.14018 4.05866 7.6854C3.46808 10.1508 3.46808 12.7208 4.05866 15.1862C4.42882 16.7314 5.70958 17.9195 7.28587 18.1896C9.99598 18.6539 12.8212 18.6985 15.5543 18.3227C16.0254 18.2579 16.4598 18.5873 16.5246 19.0584C16.5894 19.5296 16.26 19.964 15.7889 20.0288C12.8824 20.4284 9.88 20.3813 6.99504 19.887C4.74988 19.5024 2.91693 17.8126 2.38387 15.5873C1.73012 12.8582 1.73011 10.0133 2.38387 7.2842C2.91693 5.05896 4.74988 3.36919 6.99505 2.98452C10.1843 2.43809 13.5178 2.4381 16.7071 2.98455C18.9523 3.36923 20.7852 5.059 21.3183 7.28424C21.9086 9.74868 21.9659 12.3076 21.49 14.7903C21.4005 15.2574 20.9493 15.5634 20.4822 15.4739C20.0152 15.3844 19.7091 14.9332 19.7986 14.4661Z" fill="#1A1A1A"/>
<path fill-rule="evenodd" clip-rule="evenodd" d="M8.77131 11.2608C8.77001 9.47528 8.76853 7.43652 10.0412 7.43652C12.1141 7.43652 16.7699 10.0303 16.7699 11.4304C16.7699 12.8304 12.1141 15.435 10.0412 15.435C8.77144 15.435 8.7714 13.2536 8.7714 11.4304L8.77131 11.2608ZM10.4714 11.3591L10.4714 11.4304C10.4714 12.3328 10.4778 13.0972 10.5734 13.657C10.7943 13.6055 11.0658 13.5256 11.3835 13.4095C12.009 13.1809 12.6953 12.8556 13.3294 12.4875C13.9565 12.1234 14.4765 11.7499 14.8209 11.4312C14.4768 11.1139 13.9577 10.7422 13.3315 10.3798C12.6975 10.013 12.0112 9.68889 11.3855 9.4611C11.0597 9.34247 10.7824 9.2618 10.5581 9.21056C10.4713 9.75154 10.4713 10.4769 10.4714 11.3591ZM15.1381 11.0814C15.1416 11.0744 15.1438 11.0708 15.144 11.0708C15.1441 11.0708 15.1437 11.0717 15.1427 11.0735L15.1381 11.0814Z" fill="#1A1A1A"/>
<path d="M19.4449 19.5055C20.121 19.5055 20.669 18.9574 20.669 18.2813C20.669 17.6052 20.121 17.0571 19.4449 17.0571C18.7688 17.0571 18.2207 17.6052 18.2207 18.2813C18.2207 18.9574 18.7688 19.5055 19.4449 19.5055Z" fill="#1A1A1A"/>
</svg>
