<svg width="24" height="24" viewBox="0 0 24 24" fill="none" xmlns="http://www.w3.org/2000/svg">
<path d="M19.7986 14.4445C20.2285 12.2017 20.1768 9.89011 19.6435 7.66383C19.2733 6.11861 17.9926 4.93046 16.4163 4.66038C13.4195 4.14692 10.2827 4.14691 7.28587 4.66035C5.70958 4.93042 4.42882 6.11857 4.05866 7.66379C3.46808 10.1292 3.46808 12.6992 4.05866 15.1645C4.42882 16.7098 5.70958 17.8979 7.28587 18.168C9.99598 18.6323 12.8212 18.6769 15.5543 18.3011C16.0254 18.2363 16.4598 18.5657 16.5246 19.0368C16.5894 19.5079 16.26 19.9424 15.7889 20.0072C12.8824 20.4068 9.88 20.3597 6.99504 19.8654C4.74988 19.4808 2.91693 17.791 2.38387 15.5657C1.73012 12.8366 1.73011 9.99171 2.38387 7.2626C2.91693 5.03735 4.74988 3.34758 6.99505 2.96291C10.1843 2.41649 13.5178 2.4165 16.7071 2.96294C18.9523 3.34762 20.7852 5.03739 21.3183 7.26263C21.9086 9.72707 21.9659 12.286 21.49 14.7687C21.4005 15.2358 20.9493 15.5418 20.4822 15.4523C20.0152 15.3628 19.7091 14.9116 19.7986 14.4445Z" fill="#1A1A1A"/>
<path fill-rule="evenodd" clip-rule="evenodd" d="M8.77131 11.2392C8.77001 9.45368 8.76852 7.41492 10.0412 7.41492C12.1141 7.41492 16.7699 10.0087 16.7699 11.4087C16.7699 12.8088 12.1141 15.4134 10.0412 15.4134C8.77144 15.4134 8.7714 13.232 8.7714 11.4087L8.77131 11.2392ZM10.4714 11.3375L10.4714 11.4087C10.4714 12.3112 10.4778 13.0756 10.5734 13.6354C10.7943 13.5838 11.0658 13.504 11.3835 13.3879C12.009 13.1593 12.6953 12.834 13.3294 12.4659C13.9565 12.1018 14.4765 11.7283 14.8209 11.4096C14.4768 11.0923 13.9577 10.7206 13.3315 10.3582C12.6975 9.99137 12.0112 9.66729 11.3855 9.4395C11.0597 9.32087 10.7824 9.2402 10.5581 9.18895C10.4713 9.72994 10.4713 10.4552 10.4714 11.3375Z" fill="#1A1A1A"/>
<path d="M19.4449 19.484C20.121 19.484 20.669 18.9359 20.669 18.2598C20.669 17.5837 20.121 17.0356 19.4449 17.0356C18.7688 17.0356 18.2207 17.5837 18.2207 18.2598C18.2207 18.9359 18.7688 19.484 19.4449 19.484Z" fill="#1A1A1A"/>
</svg>
