<svg width="24" height="24" viewBox="0 0 24 24" fill="none" xmlns="http://www.w3.org/2000/svg">
<path d="M20.3991 15.6498C20.731 15.3179 21.2692 15.3179 21.6011 15.6498C21.9331 15.9818 21.9331 16.52 21.6011 16.8519L19.7047 18.7484C18.8542 19.5988 17.4001 18.9965 17.4001 17.7938V5.50088C17.4001 5.03144 17.7807 4.65088 18.2501 4.65088C18.7195 4.65088 19.1001 5.03144 19.1001 5.50088V16.9488L20.3991 15.6498Z" fill="#1A1A1A"/>
<path d="M2.9999 5.15038C2.53046 5.15038 2.1499 5.53094 2.1499 6.00038C2.1499 6.46983 2.53046 6.85038 2.9999 6.85038H14.9999C15.4693 6.85038 15.8499 6.46983 15.8499 6.00038C15.8499 5.53094 15.4693 5.15038 14.9999 5.15038H2.9999Z" fill="#1A1A1A"/>
<path d="M2.9999 11.1504C2.53046 11.1504 2.1499 11.5309 2.1499 12.0004C2.1499 12.4698 2.53046 12.8504 2.9999 12.8504H14.9999C15.4693 12.8504 15.8499 12.4698 15.8499 12.0004C15.8499 11.5309 15.4693 11.1504 14.9999 11.1504H2.9999Z" fill="#1A1A1A"/>
<path d="M2.1499 18.0004C2.1499 17.5309 2.53046 17.1504 2.9999 17.1504H14.9999C15.4693 17.1504 15.8499 17.5309 15.8499 18.0004C15.8499 18.4698 15.4693 18.8504 14.9999 18.8504H2.9999C2.53046 18.8504 2.1499 18.4698 2.1499 18.0004Z" fill="#1A1A1A"/>
</svg>
