<svg width="24" height="24" viewBox="0 0 24 24" fill="none" xmlns="http://www.w3.org/2000/svg">
<path fill-rule="evenodd" clip-rule="evenodd" d="M12.0575 1.65039H11.9423C9.87628 1.65038 8.24765 1.65037 6.96363 1.80634C5.6479 1.96616 4.58053 2.30051 3.70063 3.05202C3.4676 3.25105 3.25056 3.46808 3.05153 3.70112C2.30003 4.58102 1.96568 5.64839 1.80585 6.96412C1.64988 8.24814 1.64989 9.87675 1.6499 11.9428V12.058C1.64989 14.124 1.64988 15.7526 1.80585 17.0367C1.96568 18.3524 2.30003 19.4198 3.05153 20.2997C3.25056 20.5327 3.4676 20.7497 3.70063 20.9488C4.58053 21.7003 5.6479 22.0346 6.96363 22.1944C8.24765 22.3504 9.87628 22.3504 11.9423 22.3504H12.0574C14.1235 22.3504 15.7522 22.3504 17.0362 22.1944C18.3519 22.0346 19.4193 21.7003 20.2992 20.9488C20.5322 20.7497 20.7492 20.5327 20.9483 20.2997C21.6998 19.4198 22.0341 18.3524 22.194 17.0367C22.3499 15.7526 22.3499 14.124 22.3499 12.0579V11.9429C22.3499 9.8768 22.3499 8.24814 22.194 6.96412C22.0341 5.64839 21.6998 4.58102 20.9483 3.70112C20.7492 3.46808 20.5322 3.25105 20.2992 3.05202C19.4193 2.30051 18.3519 1.96616 17.0362 1.80634C15.7522 1.65037 14.1235 1.65038 12.0575 1.65039ZM4.80469 4.34471C5.32744 3.89824 6.01882 3.6336 7.16862 3.49394C8.33822 3.35186 9.86358 3.35039 11.9999 3.35039C14.1362 3.35039 15.6616 3.35186 16.8312 3.49394C17.981 3.6336 18.6724 3.89824 19.1951 4.34471C19.3604 4.4859 19.5144 4.63987 19.6556 4.80518C20.1021 5.32793 20.3667 6.01931 20.5064 7.16911C20.6288 8.17719 20.6468 9.44956 20.6495 11.1496H3.35035C3.35299 9.44956 3.37099 8.17719 3.49345 7.16911C3.63312 6.01931 3.89775 5.32793 4.34422 4.80518C4.48541 4.63987 4.63938 4.4859 4.80469 4.34471ZM3.35035 12.8496C3.35298 14.5504 3.37096 15.8233 3.49345 16.8317C3.63312 17.9815 3.89775 18.6729 4.34422 19.1956C4.48541 19.3609 4.63938 19.5149 4.80469 19.6561C5.32744 20.1025 6.01882 20.3672 7.16862 20.5068C8.33822 20.6489 9.86358 20.6504 11.9999 20.6504C14.1362 20.6504 15.6616 20.6489 16.8312 20.5068C17.981 20.3672 18.6724 20.1025 19.1951 19.6561C19.3604 19.5149 19.5144 19.3609 19.6556 19.1956C20.1021 18.6729 20.3667 17.9815 20.5064 16.8317C20.6289 15.8233 20.6468 14.5504 20.6495 12.8496H3.35035Z" fill="#1A1A1A"/>
</svg>
