<svg width="20" height="20" viewBox="0 0 20 20" fill="none" xmlns="http://www.w3.org/2000/svg">
<path fill-rule="evenodd" clip-rule="evenodd" d="M8.81265 2.43375C9.30769 1.4648 10.6923 1.46479 11.1873 2.43375L13.0935 6.16478L17.2339 6.82254C18.3095 6.99341 18.7376 8.31192 17.9676 9.08208L15.0059 12.0442L15.659 16.1802C15.8288 17.2553 14.7083 18.0699 13.738 17.5768L10 15.6774L6.26204 17.5768C5.29167 18.0699 4.17123 17.2553 4.341 16.1802L4.99408 12.0442L2.03245 9.08209C1.26241 8.31192 1.69054 6.99341 2.76614 6.82254L6.90646 6.16478L8.81265 2.43375ZM10 3.22353L8.00413 7.13009C7.90115 7.33166 7.70804 7.47187 7.48449 7.50739L3.14983 8.19601L6.25091 11.2976C6.41113 11.4579 6.48501 11.6851 6.44966 11.9089L5.76579 16.2399L9.67911 14.2513C9.88077 14.1489 10.1192 14.1489 10.3209 14.2513L14.2342 16.2399L13.5503 11.9089C13.515 11.6851 13.5889 11.4579 13.7491 11.2976L16.8502 8.19601L12.5155 7.50739C12.292 7.47187 12.0988 7.33166 11.9959 7.13009L10 3.22353Z" fill="#3C3C43" fill-opacity="0.76"/>
</svg>
