<svg width="24" height="24" viewBox="0 0 24 24" fill="none" xmlns="http://www.w3.org/2000/svg">
<path d="M10.3123 3.42386C10.3799 4.03211 10.2661 4.71636 10.0303 5.13179C9.33833 5.27943 8.67814 5.51299 8.06186 5.82045C7.45902 5.08644 5.78567 3.67826 3.61831 3.4541C3.25759 3.41679 2.91807 3.6183 2.76701 3.94799C1.92108 5.79425 1.22535 9.09188 3.82233 10.8283C3.82231 10.8284 3.82234 10.8283 3.82233 10.8283C3.59239 11.5867 3.46875 12.3911 3.46875 13.2242C3.46875 14.7626 3.89033 16.2031 4.62474 17.4372L6.03624 13.2001C6.12815 12.9242 6.34311 12.7067 6.61791 12.6116L11.9506 10.7657C12.7433 10.4913 13.4688 11.3181 13.0936 12.0684L12.6537 12.9483L17.1387 12.175C17.5958 12.0962 18.0417 12.3642 18.1866 12.8049L19.407 16.5167C19.8469 15.5077 20.0908 14.3943 20.0908 13.2242C20.0908 12.3911 19.9672 11.5868 19.7373 10.8285C19.1217 8.7982 17.7439 7.0972 15.9353 6.05538C15.3884 5.74036 14.8021 5.48561 14.1856 5.30025C13.7759 3.20826 12.185 2.5855 10.9517 2.50848C10.518 2.4814 10.2643 2.99201 10.3123 3.42386Z" fill="#1A1A1A"/>
<path d="M15.9353 6.05538C16.4955 5.14296 18.1997 3.39409 20.6596 3.41222C20.8518 3.41363 21.0275 3.51808 21.1212 3.68598C22.0767 5.39829 22.9545 8.84514 19.7373 10.8285C19.1217 8.7982 17.7439 7.0972 15.9353 6.05538Z" fill="#1A1A1A"/>
<path d="M18.1925 18.2656C18.2094 18.317 18.2308 18.3657 18.256 18.4114C16.7326 20.295 14.3975 21.5001 11.7798 21.5001C9.47236 21.5001 7.38457 20.5638 5.87869 19.0518L7.53003 14.0948L10.7343 12.9856L10.4573 13.5398C10.1142 14.2259 10.6972 15.0107 11.4532 14.8804L16.7776 13.9623L18.1925 18.2656Z" fill="#1A1A1A"/>
</svg>
