<svg width="24" height="24" viewBox="0 0 24 24" fill="none" xmlns="http://www.w3.org/2000/svg">
<path fill-rule="evenodd" clip-rule="evenodd" d="M11.1625 3.38323C11.2269 4.04674 11.1254 4.76462 10.8899 5.30865C10.7159 5.71063 10.3638 5.92434 10.0503 5.99836C9.48655 6.13149 8.94756 6.32834 8.44132 6.58092C6.62386 7.48773 5.23124 9.11132 4.63587 11.0749C4.42991 11.7542 4.3189 12.4754 4.3189 13.224C4.3189 14.4275 4.60678 15.5647 5.11792 16.5707L6.02398 13.2485C6.10529 12.9503 6.32859 12.7115 6.62064 12.6104L11.9505 10.7655C12.7432 10.4911 13.4687 11.3179 13.0935 12.0682L12.6536 12.9481L17.1379 12.1749C17.5984 12.0956 18.0469 12.3681 18.1886 12.8133L18.7148 14.4672C18.657 14.5157 18.6014 14.568 18.5483 14.6241L17.3747 15.8623L16.7705 13.9634L11.4531 14.8802C10.6971 15.0105 10.1141 14.2258 10.4572 13.5396L10.7342 12.9855L7.55793 14.085L6.39184 18.3606C7.74939 19.7711 9.66075 20.6499 11.7799 20.6499C12.4823 20.6499 13.1619 20.5534 13.8061 20.3729L14.7577 21.3762C14.8797 21.5049 15.0171 21.6155 15.1656 21.7063C14.118 22.1216 12.9756 22.3499 11.7799 22.3499C6.72382 22.3499 2.6189 18.2675 2.6189 13.224C2.6189 12.515 2.70021 11.8241 2.85429 11.1604C1.56776 10.0618 1.14388 8.58195 1.14997 7.19493C1.15664 5.67342 1.67212 4.20113 2.16504 3.24146C2.38208 2.81888 2.82435 2.55926 3.30176 2.57911C5.53026 2.67177 7.31525 3.88287 8.26395 4.79455C8.63284 4.6417 9.01394 4.51216 9.40538 4.40777C9.48946 4.0822 9.51177 3.65356 9.43293 3.31023C9.35374 2.96536 9.40618 2.59374 9.57931 2.28713C9.76003 1.96708 10.1204 1.65439 10.6363 1.65008C11.3506 1.64411 12.2547 1.7861 13.0773 2.26717C13.8751 2.73373 14.5555 3.49754 14.8978 4.64042C15.1658 4.73703 15.4279 4.84573 15.6836 4.96584C16.6009 3.87958 18.3716 2.49877 20.7847 2.56425C21.2075 2.57572 21.5941 2.80535 21.8063 3.17146C22.3474 4.1048 22.8993 5.56561 22.8464 7.11511C22.7971 8.55901 22.2184 10.0517 20.7125 11.1906C20.8621 11.8451 20.9409 12.5258 20.9409 13.224C20.9409 13.5563 20.9231 13.8844 20.8884 14.2075C20.3515 13.9412 19.722 13.9319 19.1803 14.175C19.2203 13.8636 19.2409 13.5461 19.2409 13.224C19.2409 12.4754 19.1299 11.7542 18.924 11.0749C18.3723 9.25553 17.1362 7.72778 15.5112 6.79172C15.0816 6.5443 14.6252 6.33839 14.1473 6.17938C13.7192 6.03693 13.4128 5.6847 13.3088 5.27178C13.1049 4.46227 12.6825 4.00561 12.2191 3.73466C11.8912 3.54288 11.5217 3.43323 11.1625 3.38323ZM3.48043 9.35561C4.18828 7.85083 5.29565 6.57129 6.66583 5.65137C5.93568 5.06767 4.83031 4.43677 3.54028 4.30043C3.17945 5.08734 2.85454 6.15629 2.84995 7.20238C2.84649 7.99079 3.02084 8.73386 3.48043 9.35561ZM17.1729 5.84618C18.4436 6.76941 19.4673 8.01102 20.1253 9.45471C20.8538 8.72695 21.1191 7.88494 21.1474 7.05713C21.1823 6.0324 20.8489 5.00439 20.4673 4.26495C19.0012 4.31928 17.8503 5.1291 17.1729 5.84618Z" fill="#1A1A1A"/>
<path d="M20.6168 16.5846C20.9398 16.2439 20.9253 15.7059 20.5846 15.383C20.2439 15.06 19.7059 15.0745 19.383 15.4152L16.2086 18.7645L14.6166 17.086C14.2936 16.7454 13.7556 16.7312 13.415 17.0543C13.0744 17.3773 13.0601 17.9153 13.3832 18.2559L15.5921 20.5848C15.7526 20.7541 15.9757 20.8499 16.209 20.8499C16.4423 20.8499 16.6653 20.7539 16.8258 20.5846L20.6168 16.5846Z" fill="#1A1A1A"/>
</svg>
