<svg width="24" height="24" viewBox="0 0 24 24" fill="none" xmlns="http://www.w3.org/2000/svg">
<path d="M11.8625 13.9341C14.4854 13.9341 16.604 14.4533 16.8144 14.9194C16.8239 14.9395 16.8297 14.9617 16.8297 14.9855C16.8297 15.0191 16.8185 15.0496 16.8008 15.0753C16.6235 15.3338 14.271 16.6108 11.8625 16.6108H11.8344C9.42595 16.6108 7.07336 15.3337 6.89607 15.0752C6.87846 15.0496 6.86719 15.0192 6.86719 14.9857C6.86719 14.9619 6.87296 14.9395 6.88251 14.9194C7.0929 14.4533 9.2115 13.9341 11.8344 13.9341H11.8625Z" fill="#1A1A1A"/>
<path fill-rule="evenodd" clip-rule="evenodd" d="M16.8126 7.08991C16.7603 7.05205 16.6982 7.01642 16.6276 6.98291C16.7062 5.79242 16.1292 4.81473 15.6993 4.27812C15.6697 4.24118 15.6181 4.23115 15.5756 4.25182C15.5562 4.2612 15.5353 4.27107 15.5157 4.27969C15.4743 4.29789 15.4353 4.27369 15.4227 4.23028C14.8453 2.24229 13.2567 1.19754 11.3613 0.59367C11.2792 0.5675 11.2025 0.652979 11.2256 0.736044C11.4429 1.51865 10.9943 2.47697 10.1443 2.88638C8.37149 3.74028 7.60678 5.25162 7.56809 6.66382C7.5411 6.67647 7.51542 6.68993 7.49114 6.70424C4.30689 8.58134 2.94261 12.5673 2.94261 16.5393C2.94261 16.9106 2.94261 17.097 2.94588 17.2473C2.94901 17.3914 2.926 17.5352 2.87245 17.669L2.08143 19.6463C1.86268 20.193 2.1593 20.8107 2.72845 20.962C2.94184 21.0187 3.1576 21.0739 3.37527 21.1275C6.20273 21.8232 9.3528 22.2458 11.8382 22.2159L11.8684 22.2159C14.3539 22.246 17.5037 21.8233 20.3313 21.1275C20.5489 21.0739 20.7647 21.0187 20.9781 20.962C21.5472 20.8107 21.8438 20.193 21.6251 19.6463L20.8332 17.6668C20.7827 17.5405 20.7584 17.4053 20.7614 17.2694C20.7662 17.0484 20.7722 16.7372 20.7722 16.5393C20.7722 12.8214 19.5769 9.09137 16.8126 7.08991ZM14.4708 10.1413C15.1026 9.8087 15.6736 9.30448 16.0724 8.66399C18.0434 10.2668 19.0722 13.2307 19.0722 16.5393C19.0722 16.7159 19.0667 17.0094 19.0618 17.2321C19.0539 17.5947 19.1185 17.9575 19.2548 18.2982L19.7439 19.5208C17.0698 20.1641 14.1478 20.5433 11.8889 20.516L11.8771 20.5158L11.8265 20.5159L11.8178 20.516C9.55897 20.5432 6.63663 20.164 3.96262 19.5208L4.45082 18.3005C4.59813 17.9323 4.65304 17.5582 4.64547 17.2103C4.64271 17.0832 4.64261 16.9201 4.64261 16.5393C4.64261 13.06 5.7729 9.99023 7.93241 8.44361C7.94395 8.46777 7.95575 8.49175 7.9678 8.51554C8.44914 9.46534 9.19187 10.0377 9.71557 10.4183C10.3354 10.8688 10.9306 11.1565 11.5921 11.4665C11.6151 11.4773 11.6416 11.478 11.6651 11.4685L11.7569 11.4313C12.042 11.3158 12.3248 11.2012 12.6071 11.0765C12.6967 11.0369 12.8247 10.9763 12.9934 10.8965C13.3307 10.7368 13.7598 10.5156 14.4708 10.1413ZM13.9182 5.08062C13.9351 5.17484 13.9484 5.26827 13.9583 5.36023C13.9676 5.44762 13.9739 5.53369 13.9774 5.61782C13.9845 5.78828 13.9801 5.95082 13.9664 6.10049C13.9574 6.19782 14.0724 6.25594 14.1298 6.17677C14.2614 5.99491 14.3275 5.81615 14.3593 5.66632C14.3809 5.56452 14.5535 5.50456 14.6095 5.59224C14.8351 5.94526 14.951 6.29816 14.973 6.63721C14.9912 6.9175 14.9452 7.18833 14.844 7.44192C14.6389 7.95612 14.2068 8.39946 13.6222 8.70717C12.4284 9.33563 11.8537 9.58959 11.7131 9.64966C11.6906 9.65927 11.6656 9.65837 11.6437 9.6474C11.5748 9.61285 11.4076 9.52658 11.1925 9.39819C11.027 9.29943 10.8331 9.17574 10.6337 9.03152C10.197 8.7157 9.73374 8.30136 9.48387 7.8344C9.17821 7.26316 9.11525 6.501 9.41269 5.80166C9.53542 5.51311 9.71951 5.23526 9.97321 4.98592C10.1185 4.84312 10.2867 4.70967 10.4792 4.58892C10.5569 4.54019 10.6607 4.62158 10.6475 4.71235C10.6259 4.86074 10.6127 5.0682 10.6414 5.31778C10.6512 5.40365 10.7604 5.43062 10.8189 5.36702C10.8892 5.29061 10.9667 5.21636 11.0518 5.14461C11.0933 5.10964 11.1365 5.07527 11.1817 5.04154C11.3023 4.95135 11.411 4.86241 11.5088 4.77501L11.5187 4.76621C12.3126 4.0527 12.3855 3.44291 12.3378 3.10113C12.3244 3.0049 12.4405 2.89843 12.5245 2.94721C12.8091 3.11243 13.0437 3.31806 13.2352 3.5484C13.5783 3.96095 13.783 4.45277 13.8888 4.93362C13.8996 4.98276 13.9094 5.0318 13.9182 5.08062Z" fill="#1A1A1A"/>
</svg>
