<svg width="24" height="24" viewBox="0 0 24 24" fill="none" xmlns="http://www.w3.org/2000/svg">
<path d="M16.5173 15.0506C16.5173 15.7133 14.4077 16.2506 11.8054 16.2506C9.2031 16.2506 7.09351 15.7133 7.09351 15.0506C7.09351 14.3878 9.2031 13.8506 11.8054 13.8506C14.4077 13.8506 16.5173 14.3878 16.5173 15.0506Z" fill="#1A1A1A"/>
<path fill-rule="evenodd" clip-rule="evenodd" d="M6.92711 1.77874C6.59517 1.4468 6.05698 1.4468 5.72503 1.77875C5.39309 2.11069 5.39309 2.64888 5.72504 2.98083L7.39559 4.65137H6.82949C4.15091 4.65137 1.97949 6.82279 1.97949 9.50137V16.5342C1.97949 19.2127 4.15091 21.3842 6.82949 21.3842H16.7816C19.4602 21.3842 21.6316 19.2127 21.6316 16.5342V9.50137C21.6316 6.82279 19.4602 4.65137 16.7816 4.65137H16.2153L17.8858 2.98083C18.2178 2.64888 18.2178 2.11069 17.8858 1.77875C17.5539 1.4468 17.0157 1.4468 16.6837 1.77874L13.8111 4.65137H9.79976L6.92711 1.77874ZM3.67949 9.50137C3.67949 7.76167 5.0898 6.35137 6.82949 6.35137H16.7816C18.5213 6.35137 19.9316 7.76167 19.9316 9.50137V16.5342C19.9316 18.2739 18.5213 19.6842 16.7816 19.6842H6.82949C5.0898 19.6842 3.67949 18.2739 3.67949 16.5342V9.50137Z" fill="#1A1A1A"/>
</svg>
