<svg width="29" height="29" viewBox="0 0 29 29" fill="none" xmlns="http://www.w3.org/2000/svg">
<path d="M24.3563 18.1618C24.8697 15.4829 24.8079 12.7218 24.1709 10.0626C23.7269 8.20877 22.1905 6.78368 20.2998 6.45973C16.7223 5.84677 12.9777 5.84676 9.40018 6.4597C7.50949 6.78364 5.97314 8.20872 5.52907 10.0625C4.82364 13.0073 4.82365 16.0771 5.52907 19.0219C5.97314 20.8756 7.50949 22.3007 9.40017 22.6247C12.6355 23.179 16.0081 23.2322 19.2708 22.7835C19.8179 22.7083 20.3224 23.0908 20.3977 23.638C20.4729 24.1851 20.0904 24.6896 19.5432 24.7649C16.0792 25.2412 12.5008 25.1851 9.06242 24.596C6.39497 24.1389 4.21735 22.1313 3.58409 19.4878C2.8053 16.2367 2.8053 12.8477 3.58409 9.5966C4.21735 6.95307 6.39497 4.94545 9.06243 4.48842C12.8635 3.83718 16.8365 3.83719 20.6376 4.48846C23.305 4.94549 25.4827 6.95312 26.1159 9.59664C26.8192 12.5324 26.8874 15.5807 26.3205 18.5383C26.2166 19.0807 25.6926 19.4362 25.1502 19.3322C24.6077 19.2282 24.2523 18.7042 24.3563 18.1618Z" fill="#1A1A1A"/>
<path d="M25.0057 22.3139C25.0057 23.1309 24.3435 23.7931 23.5265 23.7931C22.7096 23.7931 22.0473 23.1309 22.0473 22.3139C22.0473 21.497 22.7096 20.8347 23.5265 20.8347C24.3435 20.8347 25.0057 21.497 25.0057 22.3139Z" fill="#1A1A1A"/>
<path fill-rule="evenodd" clip-rule="evenodd" d="M12.3292 9.95142C10.8683 9.95142 10.87 12.2916 10.8715 14.3411L10.8716 14.5357C10.8716 16.6286 10.8717 19.1325 12.3292 19.1325C14.7085 19.1325 20.0527 16.1427 20.0527 14.5357C20.0527 12.9287 14.7085 9.95142 12.3292 9.95142ZM12.8716 14.5357L12.8716 14.4586C12.8715 13.4699 12.8715 12.6582 12.9625 12.0471C13.208 12.1056 13.507 12.1941 13.8556 12.321C14.5708 12.5814 15.356 12.9522 16.0815 13.372C16.7749 13.7732 17.352 14.1836 17.7433 14.5368C17.3516 14.8915 16.7735 15.3039 16.079 15.7071C15.3534 16.1284 14.5683 16.5004 13.8532 16.7618C13.5135 16.8859 13.2211 16.9734 12.9795 17.0321C12.8788 16.3997 12.8716 15.5457 12.8716 14.5357ZM18.1371 14.1113C18.1412 14.1033 18.1438 14.0992 18.144 14.0992C18.1443 14.0991 18.1422 14.1031 18.1371 14.1113Z" fill="#1A1A1A"/>
</svg>
