<svg width="24" height="24" viewBox="0 0 24 24" fill="none" xmlns="http://www.w3.org/2000/svg">
<path fill-rule="evenodd" clip-rule="evenodd" d="M10.4386 2.1499H13.5612C14.9233 2.14988 16.0313 2.14986 16.905 2.26732C17.8162 2.38983 18.5987 2.65395 19.2223 3.27754C19.8459 3.90114 20.11 4.68363 20.2325 5.59483C20.35 6.46851 20.3499 7.57654 20.3499 8.93864V15.0612C20.3499 16.4233 20.35 17.5313 20.2325 18.405C20.11 19.3162 19.8459 20.0987 19.2223 20.7223C18.5987 21.3459 17.8162 21.61 16.905 21.7325C16.0313 21.85 14.9233 21.8499 13.5612 21.8499H10.4386C9.07654 21.8499 7.96851 21.85 7.09483 21.7325C6.18363 21.61 5.40114 21.3459 4.77754 20.7223C4.15395 20.0987 3.88983 19.3162 3.76732 18.405C3.64986 17.5313 3.64988 16.4233 3.6499 15.0612V8.93861C3.64988 7.57653 3.64986 6.4685 3.76732 5.59483C3.88983 4.68363 4.15395 3.90114 4.77754 3.27754C5.40114 2.65395 6.18363 2.38983 7.09483 2.26732C7.9685 2.14986 9.07653 2.14988 10.4386 2.1499ZM7.32135 3.95216C6.59866 4.04932 6.23471 4.22454 5.97963 4.47963C5.72454 4.73471 5.54932 5.09866 5.45216 5.82135C5.35171 6.56849 5.3499 7.56166 5.3499 8.9999V14.9999C5.3499 16.4381 5.35171 17.4313 5.45216 18.1785C5.54932 18.9011 5.72454 19.2651 5.97963 19.5202C6.23471 19.7753 6.59866 19.9505 7.32135 20.0476C8.06849 20.1481 9.06166 20.1499 10.4999 20.1499H13.4999C14.9381 20.1499 15.9313 20.1481 16.6785 20.0476C17.4011 19.9505 17.7651 19.7753 18.0202 19.5202C18.2753 19.2651 18.4505 18.9011 18.5476 18.1785C18.6481 17.4313 18.6499 16.4381 18.6499 14.9999V8.99991C18.6499 8.69762 18.6498 8.415 18.6488 8.1502H15.5V13.6C15.5 14.0143 15.0648 14.2844 14.6935 14.1006L11.9449 12.7393C11.6724 12.6043 11.5 12.3265 11.5 12.0224V8.15588C11.5 8.15398 11.5 8.15209 11.5 8.1502H7.9999C7.53046 8.1502 7.1499 7.76964 7.1499 7.3002C7.1499 6.83075 7.53046 6.4502 7.9999 6.4502H18.6072C18.5928 6.22204 18.5735 6.01355 18.5476 5.82135C18.4505 5.09866 18.2753 4.73471 18.0202 4.47963C17.7651 4.22454 17.4011 4.04932 16.6785 3.95216C15.9313 3.85171 14.9381 3.8499 13.4999 3.8499H10.4999C9.06166 3.8499 8.06849 3.85171 7.32135 3.95216Z" fill="#1A1A1A"/>
</svg>
