<svg width="24" height="24" viewBox="0 0 24 24" fill="none" xmlns="http://www.w3.org/2000/svg">
<path fill-rule="evenodd" clip-rule="evenodd" d="M4.5 9C4.5 6.17157 4.5 4.75736 5.37868 3.87868C6.25736 3 7.67157 3 10.5 3H13.5C16.3284 3 17.7426 3 18.6213 3.87868C19.183 4.4404 19.3857 5.22098 19.4588 6.44999H8C7.53056 6.44999 7.15 6.83055 7.15 7.29999C7.15 7.76943 7.53056 8.14999 8 8.14999H11.5C11.5 8.15195 11.5 8.15391 11.5 8.15588V12.0224C11.5 12.3265 11.6724 12.6043 11.9449 12.7393L14.6935 14.1006C15.0648 14.2844 15.5 14.0143 15.5 13.6V8.14999H19.499C19.5 8.41824 19.5 8.70123 19.5 9V15C19.5 17.8284 19.5 19.2426 18.6213 20.1213C17.7426 21 16.3284 21 13.5 21H10.5C7.67157 21 6.25736 21 5.37868 20.1213C4.5 19.2426 4.5 17.8284 4.5 15V9Z" fill="#1A1A1A"/>
</svg>
