<svg width="20" height="20" viewBox="0 0 20 20" fill="none" xmlns="http://www.w3.org/2000/svg">
<path d="M8.29004 17.4692C7.84733 17.4692 7.47103 17.2783 7.16113 16.8965L2.86133 11.6006C2.73958 11.4567 2.65104 11.3156 2.5957 11.1772C2.5459 11.0389 2.521 10.895 2.521 10.7456C2.521 10.4136 2.63167 10.1396 2.85303 9.92383C3.07438 9.70801 3.35384 9.6001 3.69141 9.6001C4.07324 9.6001 4.39421 9.76335 4.6543 10.0898L8.25684 14.6553L15.2876 3.51562C15.4315 3.29427 15.5809 3.13932 15.7358 3.05078C15.8908 2.95671 16.0845 2.90967 16.3169 2.90967C16.6545 2.90967 16.9312 3.01481 17.147 3.2251C17.3628 3.43538 17.4707 3.70378 17.4707 4.03027C17.4707 4.16309 17.4486 4.2959 17.4043 4.42871C17.36 4.56152 17.2909 4.69987 17.1968 4.84375L9.42725 16.8633C9.16162 17.2673 8.78255 17.4692 8.29004 17.4692Z" fill="#0099FF"/>
</svg>
