<svg width="24" height="24" viewBox="0 0 24 24" fill="none" xmlns="http://www.w3.org/2000/svg">
<path d="M20.4159 4.28224C20.7792 3.9859 21.3156 4.00706 21.6542 4.34571C21.9929 4.68437 22.014 5.22068 21.7177 5.58399L21.6542 5.65431L10.7851 16.5225C10.5979 16.7097 10.4188 16.8899 10.2558 17.0283C10.1273 17.1374 9.97558 17.2512 9.79093 17.3389L9.59464 17.417C9.25654 17.5268 8.89549 17.5403 8.55167 17.458L8.40519 17.417C8.12864 17.3271 7.91536 17.1738 7.74406 17.0283C7.66255 16.9591 7.57678 16.8797 7.4882 16.794L7.21476 16.5225L2.34562 11.6543L2.28214 11.584C1.98582 11.2207 2.00696 10.6844 2.34562 10.3457C2.68428 10.0071 3.22059 9.98591 3.5839 10.2822L3.65421 10.3457L8.52238 15.2149L8.77531 15.4658C8.84236 15.5309 8.8953 15.5791 8.94132 15.6182C8.96382 15.6373 8.98101 15.6491 8.9921 15.6572C8.99752 15.6578 9.00231 15.6578 9.00773 15.6572C9.01883 15.6491 9.036 15.6373 9.05851 15.6182C9.15056 15.54 9.26868 15.4236 9.47746 15.2149L20.3456 4.34571L20.4159 4.28224Z" fill="#1A1A1A"/>
</svg>
