<svg width="24" height="24" viewBox="0 0 24 24" fill="none" xmlns="http://www.w3.org/2000/svg">
<path fill-rule="evenodd" clip-rule="evenodd" d="M3.8499 12.0004C3.8499 7.49927 7.49878 3.85039 11.9999 3.85039C16.501 3.85039 20.1499 7.49927 20.1499 12.0004C20.1499 16.5015 16.501 20.1504 11.9999 20.1504C7.49878 20.1504 3.8499 16.5015 3.8499 12.0004ZM11.9999 2.15039C6.5599 2.15039 2.1499 6.56039 2.1499 12.0004C2.1499 17.4404 6.5599 21.8504 11.9999 21.8504C17.4399 21.8504 21.8499 17.4404 21.8499 12.0004C21.8499 6.56039 17.4399 2.15039 11.9999 2.15039ZM12.3499 7.00039C12.3499 6.53095 11.9693 6.15039 11.4999 6.15039C11.0305 6.15039 10.6499 6.53095 10.6499 7.00039V12.5004C10.6499 12.9698 11.0305 13.3504 11.4999 13.3504H15.4999C15.9693 13.3504 16.3499 12.9698 16.3499 12.5004C16.3499 12.0309 15.9693 11.6504 15.4999 11.6504H12.3499L12.3499 7.00039Z" fill="#1A1A1A"/>
</svg>
