<svg width="24" height="24" viewBox="0 0 24 24" fill="none" xmlns="http://www.w3.org/2000/svg">
<path fill-rule="evenodd" clip-rule="evenodd" d="M11.9987 3.3503C11.9987 3.35032 11.9982 3.35042 11.9967 3.35166L11.4384 2.71072L11.9967 3.35166L4.85383 9.57349C4.85247 9.57467 4.85133 9.57572 4.85038 9.57664C4.85071 9.57806 4.85118 9.57966 4.85183 9.58138C4.85247 9.58311 4.85317 9.58462 4.85385 9.58591C4.85517 9.58598 4.85672 9.58602 4.85852 9.58602H8.08106C8.5505 9.58602 8.93106 9.96658 8.93106 10.436V18.9284C8.93106 19.8791 9.70177 20.6498 10.6525 20.6498H13.3512C14.3019 20.6498 15.0726 19.8791 15.0726 18.9284V10.436C15.0726 9.96658 15.4532 9.58602 15.9226 9.58602H19.1443C19.1461 9.58602 19.1477 9.58598 19.149 9.58591C19.1491 9.58581 19.1491 9.5857 19.1492 9.5856C19.1498 9.58438 19.1504 9.58297 19.151 9.58138C19.1517 9.57966 19.1521 9.57806 19.1525 9.57664C19.1515 9.57572 19.1504 9.57467 19.149 9.57349L12.0061 3.35166C12.0047 3.35042 12.0042 3.35032 12.0042 3.3503C12.0038 3.35016 12.0028 3.3499 12.0014 3.3499C12 3.3499 11.9991 3.35016 11.9987 3.3503ZM10.8802 2.06977C11.5229 1.50995 12.48 1.50995 13.1227 2.06977L20.2656 8.2916C21.4557 9.32819 20.7225 11.286 19.1443 11.286H16.7726V18.9284C16.7726 20.818 15.2408 22.3498 13.3512 22.3498H10.6525C8.76289 22.3498 7.23106 20.818 7.23106 18.9284V11.286H4.85852C3.28031 11.286 2.54719 9.32819 3.73724 8.2916L4.29553 8.93255L3.73724 8.2916L10.8802 2.06977Z" fill="#1A1A1A"/>
</svg>
