<svg width="24" height="24" viewBox="0 0 24 24" fill="none" xmlns="http://www.w3.org/2000/svg">
<path d="M2.85391 5.67383C3.32335 5.67383 3.70391 6.05439 3.70391 6.52383V16.5345C3.70391 17.1913 4.23634 17.7238 4.89314 17.7238C5.54993 17.7238 6.08237 17.1913 6.08237 16.5345V6.52383C6.08237 6.05439 6.46293 5.67383 6.93237 5.67383C7.40181 5.67383 7.78237 6.05439 7.78237 6.52383V16.5345C7.78237 18.1302 6.48882 19.4238 4.89314 19.4238C3.29746 19.4238 2.00391 18.1302 2.00391 16.5345V6.52383C2.00391 6.05439 2.38446 5.67383 2.85391 5.67383Z" fill="#1A1A1A"/>
<path d="M17.8788 5.67383C18.3483 5.67383 18.7288 6.05439 18.7288 6.52383V17.3914H21.9573C22.4267 17.3914 22.8073 17.7719 22.8073 18.2414C22.8073 18.7108 22.4267 19.0914 21.9573 19.0914H17.8788C17.4094 19.0914 17.0288 18.7108 17.0288 18.2414V6.52383C17.0288 6.05439 17.4094 5.67383 17.8788 5.67383Z" fill="#1A1A1A"/>
<path fill-rule="evenodd" clip-rule="evenodd" d="M9.34912 18.0411C9.34912 18.5106 9.72968 18.8911 10.1991 18.8911C10.6686 18.8911 11.0491 18.5106 11.0491 18.0411V14.7209L13.9207 18.7362C14.1937 19.118 14.7247 19.2062 15.1065 18.9331C15.4883 18.66 15.5765 18.1291 15.3034 17.7473L11.852 12.9211C13.847 12.9139 15.4621 11.2944 15.4621 9.29764C15.4621 7.29646 13.8398 5.67418 11.8386 5.67418L10.1991 5.67418C9.72968 5.67418 9.34912 6.05474 9.34912 6.52418L9.34912 18.0411ZM11.8386 11.2211H11.0491V7.37418H11.8386C12.9009 7.37418 13.7621 8.23534 13.7621 9.29764C13.7621 10.3599 12.9009 11.2211 11.8386 11.2211Z" fill="#1A1A1A"/>
</svg>
