<svg width="24" height="24" viewBox="0 0 24 24" fill="none" xmlns="http://www.w3.org/2000/svg">
<path d="M11.9999 3.8499C10.388 3.8499 8.81227 4.32789 7.47201 5.22342C6.13175 6.11896 5.08714 7.39181 4.47029 8.88103C3.85343 10.3703 3.69204 12.0089 4.00651 13.5899C4.32098 15.1708 5.09719 16.623 6.23699 17.7628C7.37678 18.9026 8.82898 19.6788 10.4099 19.9933C11.9909 20.3078 13.6296 20.1464 15.1188 19.5295C16.608 18.9127 17.8809 17.8681 18.7764 16.5278C19.6719 15.1875 20.1499 13.6118 20.1499 11.9999C20.1499 11.5305 20.5305 11.1499 20.9999 11.1499C21.4693 11.1499 21.8499 11.5305 21.8499 11.9999C21.8499 13.948 21.2722 15.8524 20.1899 17.4723C19.1075 19.0921 17.5692 20.3546 15.7693 21.1001C13.9695 21.8456 11.989 22.0407 10.0783 21.6606C8.16755 21.2806 6.41245 20.3425 5.0349 18.9649C3.65736 17.5874 2.71924 15.8323 2.33917 13.9215C1.95911 12.0108 2.15417 10.0303 2.89969 8.23047C3.64522 6.43062 4.90772 4.89226 6.52754 3.80993C8.14736 2.72759 10.0518 2.1499 11.9999 2.1499C12.4693 2.1499 12.8499 2.53046 12.8499 2.9999C12.8499 3.46934 12.4693 3.8499 11.9999 3.8499Z" fill="#1A1A1A"/>
<path d="M16.3433 13.4771C16.7702 13.7236 16.9164 14.2694 16.67 14.6963C16.1967 15.5161 15.516 16.1968 14.6962 16.6701C13.8764 17.1434 12.9465 17.3925 12 17.3925C11.0534 17.3925 10.1235 17.1434 9.30371 16.6701C8.48395 16.1968 7.80321 15.5161 7.32992 14.6963C7.08347 14.2694 7.22973 13.7236 7.6566 13.4771C8.08347 13.2307 8.6293 13.3769 8.87575 13.8038C9.19238 14.3522 9.64778 14.8076 10.1962 15.1243C10.7446 15.4409 11.3667 15.6076 12 15.6076C12.6332 15.6076 13.2553 15.4409 13.8037 15.1243C14.3521 14.8076 14.8075 14.3522 15.1242 13.8038C15.3706 13.3769 15.9164 13.2307 16.3433 13.4771Z" fill="#1A1A1A"/>
<path d="M9.74176 8.40005C9.74176 7.90715 9.34218 7.50757 8.84927 7.50757C8.35637 7.50757 7.95679 7.90715 7.95679 8.40005V11.1001C7.95679 11.593 8.35637 11.9925 8.84927 11.9925C9.34218 11.9925 9.74176 11.593 9.74176 11.1001V8.40005Z" fill="#1A1A1A"/>
<path d="M15.1493 7.50757C15.6422 7.50757 16.0418 7.90715 16.0418 8.40005V11.1001C16.0418 11.593 15.6422 11.9925 15.1493 11.9925C14.6564 11.9925 14.2568 11.593 14.2568 11.1001V8.40005C14.2568 7.90715 14.6564 7.50757 15.1493 7.50757Z" fill="#1A1A1A"/>
<path d="M18.8798 2.36712C18.797 2.21096 18.5732 2.21096 18.4904 2.36712L17.7123 3.83483L16.2446 4.61298C16.0884 4.69578 16.0884 4.91952 16.2446 5.00231L17.7123 5.78046L18.4904 7.24817C18.5732 7.40434 18.797 7.40434 18.8798 7.24817L19.6579 5.78046L21.1256 5.00231C21.2818 4.91952 21.2818 4.69578 21.1256 4.61298L19.6579 3.83483L18.8798 2.36712Z" fill="#1A1A1A"/>
</svg>
