<svg width="24" height="24" viewBox="0 0 24 24" fill="none" xmlns="http://www.w3.org/2000/svg">
<path d="M17.8779 4.24398C20.2749 4.69199 22.003 6.88137 21.8183 9.36996L21.2558 16.9481C21.0575 19.6189 18.7312 21.6241 16.0605 21.4266L11.6904 21.1024L14.8183 20.7186C15.9002 20.5856 16.8678 20.1409 17.6445 19.4881C18.6962 19.042 19.4699 18.0407 19.5605 16.8231L20.123 9.24398C20.2168 7.98016 19.5506 6.8349 18.5117 6.25667L18.5039 6.18929C18.4174 5.48553 18.199 4.83012 17.8779 4.24398Z" fill="#1A1A1A"/>
<path d="M9.44624 7.63949C9.54418 7.2332 10.0887 7.15678 10.2949 7.52035L11.6464 9.90413L14.3095 10.5457C14.7158 10.6437 14.7922 11.1882 14.4287 11.3944L12.0458 12.7459L11.4033 15.41C11.3052 15.8161 10.7607 15.8927 10.5546 15.5291L9.30171 13.3192C9.2388 13.2083 9.13264 13.1283 9.00874 13.0985L6.53901 12.5037C6.13295 12.4056 6.05638 11.8602 6.41987 11.6541L8.80366 10.3035L9.44624 7.63949Z" fill="#1A1A1A"/>
<path fill-rule="evenodd" clip-rule="evenodd" d="M12.5937 2.60531C14.9389 2.31749 17.0732 3.98469 17.3613 6.32992L18.4023 14.8094C18.6901 17.1546 17.0228 19.2889 14.6777 19.577L8.18354 20.3748C5.83826 20.6628 3.70406 18.9945 3.41596 16.6493L2.37495 8.16976C2.08719 5.82454 3.75432 3.69016 6.09956 3.40218L12.5937 2.60531ZM12.8007 4.29183L6.30659 5.08871C4.89325 5.26228 3.88811 6.54939 4.06147 7.96273L5.10249 16.4422C5.27616 17.8556 6.5631 18.8609 7.97651 18.6873L14.4707 17.8895C15.8839 17.7158 16.8882 16.4297 16.7148 15.0164L15.6738 6.53695C15.5001 5.12369 14.214 4.11844 12.8007 4.29183Z" fill="#1A1A1A"/>
</svg>
