<svg width="24" height="24" viewBox="0 0 24 24" fill="none" xmlns="http://www.w3.org/2000/svg">
<path d="M4.4999 3.65002C4.38465 3.65002 4.27476 3.67296 4.17454 3.71452C4.07428 3.756 3.98036 3.81749 3.89886 3.89898C3.81737 3.98048 3.75588 4.0744 3.7144 4.17466C3.67284 4.27488 3.6499 4.38477 3.6499 4.50002V9.50002C3.6499 9.96947 4.03046 10.35 4.4999 10.35C4.96934 10.35 5.3499 9.96947 5.3499 9.50002V6.55211L10.1352 11.3374C10.4672 11.6694 11.0054 11.6694 11.3373 11.3374C11.6692 11.0055 11.6692 10.4673 11.3373 10.1353L6.55198 5.35002H9.4999C9.96934 5.35002 10.3499 4.96947 10.3499 4.50002C10.3499 4.03058 9.96934 3.65002 9.4999 3.65002H4.4999Z" fill="#1A1A1A"/>
<path d="M20.3499 19.488C20.3503 19.525 20.3484 19.562 20.3441 19.5988C20.334 19.685 20.3111 19.7672 20.2772 19.8435C20.1451 20.1414 19.8467 20.3492 19.4999 20.3492H14.4999C14.0304 20.3492 13.6499 19.9687 13.6499 19.4992C13.6499 19.0298 14.0304 18.6492 14.4999 18.6492H17.448L12.8862 14.0874C12.5542 13.7555 12.5542 13.2173 12.8862 12.8853C13.2181 12.5534 13.7563 12.5534 14.0882 12.8853L18.6499 17.4469V14.4992C18.6499 14.0298 19.0304 13.6492 19.4999 13.6492C19.9693 13.6492 20.3499 14.0298 20.3499 14.4992V19.488Z" fill="#1A1A1A"/>
</svg>
