<svg width="24" height="24" viewBox="0 0 24 24" fill="none" xmlns="http://www.w3.org/2000/svg">
<path fill-rule="evenodd" clip-rule="evenodd" d="M14.5664 3.7462C14.2601 2.77697 13.671 2.12099 12.9802 1.71697C12.2558 1.29334 11.463 1.16975 10.8398 1.17496C10.3456 1.17909 10.002 1.47912 9.83138 1.78125C9.66836 2.06996 9.61938 2.41842 9.69371 2.74212C9.75064 2.99002 9.74 3.29722 9.68784 3.54338C9.4025 3.62245 9.12365 3.71703 8.85229 3.82614C8.01528 3.04282 6.49871 2.0432 4.61177 1.96474C4.1561 1.94579 3.73396 2.19366 3.52685 2.59687C3.10174 3.42452 2.65574 4.69592 2.64996 6.01502C2.64476 7.20049 3.00199 8.47449 4.0849 9.43242C3.96281 9.98295 3.89855 10.5545 3.89855 11.1402C3.89855 15.4982 7.44533 19.0248 11.8129 19.0248C16.1805 19.0248 19.7273 15.4982 19.7273 11.1402C19.7273 10.5656 19.6654 10.0045 19.5478 9.46353C20.8125 8.47685 21.3045 7.19336 21.3468 5.95208C21.3928 4.6044 20.9137 3.33906 20.4457 2.53168C20.243 2.18221 19.874 1.963 19.4704 1.95204C17.424 1.89651 15.9118 3.03274 15.0972 3.96476C14.9236 3.88575 14.7465 3.81281 14.5664 3.7462ZM11.4271 2.92835C11.4541 3.46503 11.3629 4.02524 11.1733 4.46307C11.006 4.84956 10.6685 5.05258 10.3721 5.12258C9.90253 5.23346 9.45365 5.39739 9.03203 5.60776C7.51804 6.36315 6.35822 7.71562 5.86249 9.35056C5.69102 9.91609 5.59855 10.5167 5.59855 11.1402C5.59855 12.0214 5.78387 12.8599 6.11796 13.6191L6.79747 11.1275C6.87767 10.8335 7.0979 10.598 7.38594 10.4983L11.9164 8.93003C12.6981 8.65941 13.4136 9.47488 13.0437 10.2148L12.7824 10.7373L16.3456 10.1229C16.8 10.0446 17.2425 10.3136 17.382 10.7531L17.9009 12.3872C17.9838 11.9844 18.0273 11.5673 18.0273 11.1402C18.0273 10.5167 17.9348 9.91609 17.7634 9.35056C17.304 7.83572 16.2746 6.56312 14.9208 5.78333C14.5631 5.57726 14.1829 5.40576 13.785 5.27334C13.3785 5.13809 13.0876 4.80413 12.9889 4.4122C12.8242 3.75809 12.487 3.39793 12.1219 3.18444C11.9067 3.05856 11.6674 2.97624 11.4271 2.92835ZM11.8129 17.3248C10.0736 17.3248 8.50262 16.6142 7.37531 15.4698L8.32964 11.9706L10.6702 11.1603L10.5747 11.3515C10.2363 12.0282 10.8113 12.8022 11.5569 12.6737L15.9668 11.9133L16.865 14.7422C15.7378 16.3055 13.8961 17.3248 11.8129 17.3248ZM16.5901 4.85355C17.5834 5.60376 18.3939 6.58272 18.9422 7.71284C19.4418 7.15071 19.6265 6.5179 19.6478 5.8941C19.6755 5.08307 19.4219 4.26429 19.1208 3.65651C18.0234 3.7233 17.1444 4.30417 16.5901 4.85355ZM4.74077 7.59744C4.45828 7.1332 4.34743 6.59579 4.34994 6.02247C4.35358 5.19243 4.60161 4.34029 4.88718 3.69276C5.83899 3.81508 6.666 4.25948 7.24988 4.69739C6.19341 5.44122 5.32764 6.43674 4.74077 7.59744Z" fill="#1A1A1A"/>
<path d="M4.45768 16.422C3.96924 16.6386 3.5359 16.8856 3.18153 17.1648C2.62923 17.6001 2.15039 18.2139 2.15039 19.0002C2.15039 19.7865 2.62923 20.4003 3.18153 20.8355C3.74341 21.2783 4.5038 21.6399 5.36764 21.9279C7.1042 22.5067 9.44917 22.8502 12.0004 22.8502C14.5516 22.8502 16.8966 22.5067 18.6331 21.9279C19.497 21.6399 20.2574 21.2783 20.8193 20.8355C21.3716 20.4003 21.8504 19.7865 21.8504 19.0002C21.8504 18.2139 21.3716 17.6001 20.8193 17.1648C20.3966 16.8318 19.8617 16.5447 19.255 16.3003C18.9068 16.7981 18.5097 17.2593 18.0706 17.6769L18.0956 17.6852C18.8604 17.9402 19.418 18.225 19.767 18.5C20.1255 18.7826 20.1504 18.958 20.1504 19.0002C20.1504 19.0423 20.1255 19.2177 19.767 19.5003C19.418 19.7753 18.8604 20.0602 18.0956 20.3151C16.5748 20.8221 14.4197 21.1502 12.0004 21.1502C9.58105 21.1502 7.42602 20.8221 5.90522 20.3151C5.14038 20.0602 4.58275 19.7753 4.23378 19.5003C3.87524 19.2177 3.85039 19.0423 3.85039 19.0002C3.85039 18.958 3.87524 18.7826 4.23378 18.5C4.54377 18.2557 5.01841 18.0037 5.65669 17.7717C5.21376 17.3631 4.8118 16.911 4.45768 16.422Z" fill="#1A1A1A"/>
</svg>
