<svg width="16" height="16" viewBox="0 0 16 16" fill="none" xmlns="http://www.w3.org/2000/svg">
<path d="M3.23331 5.66628C3.23331 5.97924 2.9796 6.23294 2.66664 6.23294C2.35368 6.23294 2.09998 5.97924 2.09998 5.66628V4.66628C2.09998 3.24875 3.24911 2.09961 4.66664 2.09961H5.66664C5.9796 2.09961 6.23331 2.35331 6.23331 2.66628C6.23331 2.97924 5.9796 3.23294 5.66664 3.23294L4.66664 3.23294C3.87503 3.23294 3.23331 3.87467 3.23331 4.66628L3.23331 5.66628Z" fill="var(------icon_secondary, #3C3C43)" fill-opacity="0.75"/>
<path d="M12.7668 10.3335C12.7668 10.0205 13.0205 9.7668 13.3334 9.7668C13.6464 9.7668 13.9001 10.0205 13.9001 10.3335V11.3335C13.9001 12.751 12.751 13.9001 11.3334 13.9001H10.3334C10.0205 13.9001 9.76677 13.6464 9.76677 13.3335C9.76677 13.0205 10.0205 12.7668 10.3334 12.7668H11.3334C12.125 12.7668 12.7668 12.1251 12.7668 11.3335V10.3335Z" fill="var(------icon_secondary, #3C3C43)" fill-opacity="0.75"/>
<path d="M13.3334 6.23294C13.0205 6.23294 12.7668 5.97924 12.7668 5.66628V4.66628C12.7668 3.87467 12.125 3.23294 11.3334 3.23294L10.3334 3.23294C10.0205 3.23294 9.76677 2.97924 9.76677 2.66628C9.76677 2.35331 10.0205 2.09961 10.3334 2.09961H11.3334C12.751 2.09961 13.9001 3.24875 13.9001 4.66628V5.66628C13.9001 5.97924 13.6464 6.23294 13.3334 6.23294Z" fill="var(------icon_secondary, #3C3C43)" fill-opacity="0.75"/>
<path d="M3.23331 10.3335C3.23331 10.0205 2.9796 9.7668 2.66664 9.7668C2.35368 9.7668 2.09998 10.0205 2.09998 10.3335V11.3335C2.09998 12.751 3.24911 13.9001 4.66664 13.9001H5.66664C5.9796 13.9001 6.23331 13.6464 6.23331 13.3335C6.23331 13.0205 5.9796 12.7668 5.66664 12.7668H4.66664C3.87503 12.7668 3.23331 12.1251 3.23331 11.3335L3.23331 10.3335Z" fill="var(------icon_secondary, #3C3C43)" fill-opacity="0.75"/>
</svg>
