<svg width="12" height="12" viewBox="0 0 12 12" fill="none" xmlns="http://www.w3.org/2000/svg">
<path fill-rule="evenodd" clip-rule="evenodd" d="M3.69948 1.19967C3.53351 1.36565 3.53351 1.63474 3.69948 1.80072L7.6338 5.73503C7.73776 5.83899 7.79742 5.89913 7.83772 5.94659C7.85419 5.966 7.86239 5.97763 7.8659 5.98302C7.86856 5.99432 7.86856 6.00608 7.8659 6.01737C7.86239 6.02276 7.85419 6.03439 7.83772 6.0538C7.79742 6.10127 7.73776 6.1614 7.6338 6.26536L3.69948 10.1997C3.53351 10.3656 3.53351 10.6347 3.69948 10.8007C3.86545 10.9667 4.13455 10.9667 4.30052 10.8007L8.24496 6.85628C8.33524 6.76601 8.42017 6.6811 8.48571 6.6039C8.55691 6.52003 8.62983 6.41773 8.67262 6.28604C8.73299 6.10026 8.73299 5.90014 8.67262 5.71435C8.62983 5.58266 8.55691 5.48037 8.48571 5.39649C8.42017 5.31929 8.33524 5.23438 8.24495 5.14411L4.30052 1.19967C4.13455 1.0337 3.86545 1.0337 3.69948 1.19967Z" fill="var(------icon_secondary, #3C3C43)" fill-opacity="0.75"/>
</svg>
