<svg width="24" height="24" viewBox="0 0 24 24" fill="none" xmlns="http://www.w3.org/2000/svg">
<path fill-rule="evenodd" clip-rule="evenodd" d="M4.39886 4.39886C4.73081 4.06692 5.269 4.06692 5.60094 4.39886L11.9999 10.7978L18.3989 4.39886C18.7308 4.06692 19.269 4.06692 19.6009 4.39886C19.9329 4.73081 19.9329 5.269 19.6009 5.60094L13.202 11.9999L19.6009 18.3989C19.9329 18.7308 19.9329 19.269 19.6009 19.6009C19.269 19.9329 18.7308 19.9329 18.3989 19.6009L11.9999 13.202L5.60094 19.6009C5.269 19.9329 4.73081 19.9329 4.39886 19.6009C4.06692 19.269 4.06692 18.7308 4.39886 18.3989L10.7978 11.9999L4.39886 5.60094C4.06692 5.269 4.06692 4.73081 4.39886 4.39886Z" fill="var(--Color-----icon_primary, black)" fill-opacity="0.9"/>
</svg>
