<svg width="12" height="12" viewBox="0 0 12 12" fill="none" xmlns="http://www.w3.org/2000/svg">
<path fill-rule="evenodd" clip-rule="evenodd" d="M3.69936 1.19943C3.53339 1.3654 3.53339 1.6345 3.69936 1.80047L7.63367 5.73479C7.73764 5.83875 7.7973 5.89888 7.8376 5.94635C7.85407 5.96575 7.86226 5.97738 7.86578 5.98278C7.86844 5.99407 7.86844 6.00583 7.86578 6.01713C7.86226 6.02252 7.85407 6.03415 7.8376 6.05356C7.7973 6.10102 7.73764 6.16115 7.63367 6.26512L3.69936 10.1994C3.53339 10.3654 3.53339 10.6345 3.69936 10.8005C3.86533 10.9664 4.13443 10.9664 4.3004 10.8005L8.24484 6.85603C8.33512 6.76577 8.42005 6.68086 8.48559 6.60366C8.55679 6.51978 8.62971 6.41748 8.6725 6.28579C8.73286 6.10001 8.73286 5.89989 8.6725 5.71411C8.62971 5.58242 8.55679 5.48012 8.48559 5.39625C8.42005 5.31904 8.33512 5.23413 8.24483 5.14386L4.3004 1.19943C4.13443 1.03346 3.86533 1.03346 3.69936 1.19943Z" fill="var(------icon_secondary, #3C3C43)" fill-opacity="0.75"/>
</svg>
