<svg width="16" height="16" viewBox="0 0 16 16" fill="none" xmlns="http://www.w3.org/2000/svg">
<path fill-rule="evenodd" clip-rule="evenodd" d="M4.93256 1.59932C4.71126 1.82062 4.71126 2.17941 4.93256 2.40071L10.1783 7.64646C10.3169 7.78508 10.3965 7.86526 10.4502 7.92854C10.4722 7.95442 10.4831 7.96992 10.4878 7.97712C10.4913 7.99218 10.4913 8.00786 10.4878 8.02292C10.4831 8.03011 10.4722 8.04561 10.4502 8.07149C10.3965 8.13478 10.3169 8.21495 10.1783 8.35357L4.93256 13.5993C4.71126 13.8206 4.71126 14.1794 4.93256 14.4007C5.15386 14.622 5.51265 14.622 5.73395 14.4007L10.9932 9.14146C11.1136 9.0211 11.2268 8.90789 11.3142 8.80496C11.4091 8.69312 11.5064 8.55673 11.5634 8.38114C11.6439 8.13343 11.6439 7.8666 11.5634 7.6189C11.5064 7.44331 11.4091 7.30691 11.3142 7.19508C11.2268 7.09214 11.1136 6.97892 10.9932 6.85856L5.73395 1.59932C5.51265 1.37803 5.15386 1.37803 4.93256 1.59932Z" fill="var(------icon_secondary, #3C3C43)" fill-opacity="0.75"/>
</svg>
