<svg width="16" height="16" viewBox="0 0 16 16" fill="none" xmlns="http://www.w3.org/2000/svg">
<path fill-rule="evenodd" clip-rule="evenodd" d="M11.3711 9.79916C11.5924 9.57818 11.9507 9.57802 12.1719 9.79916C12.3931 10.0204 12.3929 10.3786 12.1719 10.5999L8.40044 14.3714L8.35747 14.4105C8.1349 14.592 7.80711 14.5789 7.59966 14.3714L3.82817 10.5999L3.78911 10.558C3.60758 10.3354 3.62071 10.0066 3.82817 9.79916C4.03564 9.59174 4.36441 9.57858 4.58696 9.7601L4.62895 9.79916L8.00005 13.1703L11.3711 9.79916ZM7.64263 1.5892C7.86517 1.40779 8.19301 1.42089 8.40044 1.62826L12.1719 5.39975L12.211 5.44272C12.3923 5.66527 12.3793 5.99314 12.1719 6.20053C11.9645 6.408 11.6357 6.42113 11.4131 6.23959L11.3711 6.20053L8.00005 2.82943L4.62895 6.20053C4.40764 6.42163 4.0494 6.42176 3.82817 6.20053C3.607 5.97929 3.60709 5.62104 3.82817 5.39975L7.59966 1.62826L7.64263 1.5892Z" fill="var(------icon_secondary, #3C3C43)" fill-opacity="0.75"/>
</svg>
