<svg width="16" height="16" viewBox="0 0 16 16" fill="none" xmlns="http://www.w3.org/2000/svg">
<path fill-rule="evenodd" clip-rule="evenodd" d="M4.93256 1.59908C4.71126 1.82038 4.71126 2.17917 4.93256 2.40047L10.1783 7.64622C10.3169 7.78484 10.3965 7.86501 10.4502 7.9283C10.4722 7.95418 10.4831 7.96968 10.4878 7.97687C10.4913 7.99193 10.4913 8.00761 10.4878 8.02267C10.4831 8.02986 10.4722 8.04537 10.4502 8.07125C10.3965 8.13453 10.3169 8.21471 10.1783 8.35333L4.93256 13.5991C4.71126 13.8204 4.71126 14.1792 4.93256 14.4005C5.15386 14.6218 5.51265 14.6218 5.73395 14.4005L10.9932 9.14122C11.1136 9.02086 11.2268 8.90765 11.3142 8.80471C11.4091 8.69288 11.5064 8.55648 11.5634 8.38089C11.6439 8.13319 11.6439 7.86636 11.5634 7.61865C11.5064 7.44306 11.4091 7.30667 11.3142 7.19483C11.2268 7.09189 11.1136 6.97868 10.9932 6.85832L5.73395 1.59908C5.51265 1.37778 5.15386 1.37778 4.93256 1.59908Z" fill="var(------icon_secondary, #3C3C43)" fill-opacity="0.75"/>
</svg>
