<svg width="12" height="12" viewBox="0 0 12 12" fill="none" xmlns="http://www.w3.org/2000/svg">
<path d="M2.4252 4.24971C2.4252 4.48443 2.23492 4.67471 2.0002 4.67471C1.76547 4.67471 1.5752 4.48443 1.5752 4.24971V3.49971C1.5752 2.43656 2.43705 1.57471 3.5002 1.57471H4.2502C4.48492 1.57471 4.6752 1.76499 4.6752 1.99971C4.6752 2.23443 4.48492 2.42471 4.2502 2.42471H3.5002C2.90649 2.42471 2.4252 2.906 2.4252 3.49971V4.24971Z" fill="var(------icon_secondary, #929296)"/>
<path d="M9.57529 7.7501C9.57529 7.51538 9.76557 7.3251 10.0003 7.3251C10.235 7.3251 10.4253 7.51538 10.4253 7.7501V8.5001C10.4253 9.56325 9.56344 10.4251 8.50029 10.4251H7.75029C7.51557 10.4251 7.32529 10.2348 7.32529 10.0001C7.32529 9.76538 7.51557 9.5751 7.75029 9.5751H8.50029C9.094 9.5751 9.57529 9.0938 9.57529 8.5001V7.7501Z" fill="var(------icon_secondary, #929296)"/>
<path d="M10.0003 4.67471C9.76557 4.67471 9.57529 4.48443 9.57529 4.24971V3.49971C9.57529 2.906 9.094 2.42471 8.50029 2.42471H7.75029C7.51557 2.42471 7.32529 2.23443 7.32529 1.99971C7.32529 1.76499 7.51557 1.57471 7.75029 1.57471H8.50029C9.56344 1.57471 10.4253 2.43656 10.4253 3.49971V4.24971C10.4253 4.48443 10.235 4.67471 10.0003 4.67471Z" fill="var(------icon_secondary, #929296)"/>
<path d="M2.4252 7.7501C2.4252 7.51538 2.23492 7.3251 2.0002 7.3251C1.76547 7.3251 1.5752 7.51538 1.5752 7.7501V8.5001C1.5752 9.56325 2.43705 10.4251 3.5002 10.4251H4.2502C4.48492 10.4251 4.6752 10.2348 4.6752 10.0001C4.6752 9.76538 4.48492 9.5751 4.2502 9.5751H3.5002C2.90649 9.5751 2.4252 9.0938 2.4252 8.5001V7.7501Z" fill="var(------icon_secondary, #929296)"/>
</svg>
