<svg width="24" height="24" viewBox="0 0 24 24" fill="none" xmlns="http://www.w3.org/2000/svg">
<path d="M20.3901 4.39855C20.7429 4.5536 20.9706 4.90252 20.9706 5.28785V18.7879C20.9706 19.3244 20.5357 19.7593 19.9992 19.7593C19.4627 19.7593 19.0278 19.3244 19.0278 18.7879V7.49789L17.1568 9.21493C16.7616 9.57769 16.147 9.55133 15.7843 9.15605C15.4215 8.76078 15.4479 8.14627 15.8432 7.78351L19.3424 4.57214C19.6263 4.3116 20.0373 4.24349 20.3901 4.39855Z" fill="#1A1A1A"/>
<path d="M3.02856 11.9988C3.02856 11.4623 3.46349 11.0273 3.99999 11.0273H7.02858V7.99877C7.02858 7.46227 7.4635 7.02734 8.00001 7.02734C8.53651 7.02734 8.97144 7.46227 8.97144 7.99877V11.0273H12.5C13.0365 11.0273 13.4714 11.4623 13.4714 11.9988C13.4714 12.5353 13.0365 12.9702 12.5 12.9702H8.97144V16.4988C8.97144 17.0353 8.53651 17.4702 8.00001 17.4702C7.4635 17.4702 7.02858 17.0353 7.02858 16.4988V12.9702H3.99999C3.46349 12.9702 3.02856 12.5353 3.02856 11.9988Z" fill="#1A1A1A"/>
</svg>
