<svg width="24" height="24" viewBox="0 0 24 24" fill="none" xmlns="http://www.w3.org/2000/svg">
<g clip-path="url(#clip0_223477_5079)">
<path d="M15.6953 9.00098C16.1186 8.92303 16.5406 9.17665 16.6641 9.59863C16.7874 10.0211 16.5681 10.463 16.1689 10.625L16.0869 10.6533L16.084 10.6543C16.0826 10.6547 16.0803 10.6547 16.0781 10.6553C16.073 10.6568 16.065 10.6594 16.0557 10.6621C16.0368 10.6675 16.0092 10.6749 15.9746 10.6846C15.9048 10.704 15.8042 10.7318 15.6797 10.7646C15.4659 10.821 15.1779 10.8919 14.8496 10.9668C14.077 11.1904 13.6905 11.4141 13.6904 11.6377C13.6904 12.1258 13.7901 12.6144 13.875 13.1025L14.7119 17.0352C14.8095 17.4943 14.5167 17.9453 14.0576 18.043C13.5987 18.1405 13.1477 17.8484 13.0498 17.3896L12.3125 13.9248C12.2177 13.8796 12.112 13.8535 12 13.8535C11.8877 13.8535 11.7815 13.8793 11.6865 13.9248L10.9502 17.3896C10.8523 17.8484 10.4013 18.1404 9.94238 18.043C9.48328 17.9453 9.19052 17.4943 9.28809 17.0352L10.1709 12.8828C10.2453 12.4678 10.3193 12.0527 10.3193 11.6377C10.3192 11.4124 9.92695 11.1872 9.14258 10.9619C9.12493 10.9568 9.10692 10.9523 9.08887 10.9473C8.79462 10.8798 8.53658 10.8167 8.33984 10.7656C8.21373 10.7329 8.11177 10.705 8.04102 10.6855C8.00601 10.6759 7.97814 10.6685 7.95898 10.6631C7.94959 10.6604 7.94177 10.6578 7.93652 10.6562C7.93408 10.6556 7.93124 10.6556 7.92969 10.6553L7.92871 10.6543L7.84473 10.626C7.44502 10.4657 7.22333 10.0254 7.34473 9.60254C7.47442 9.15155 7.94545 8.89107 8.39648 9.02051C8.39727 9.02071 8.3998 9.02104 8.40137 9.02148C8.40509 9.02254 8.41129 9.02421 8.41895 9.02637C8.43495 9.03088 8.45962 9.03819 8.49121 9.04688C8.55513 9.06444 8.64983 9.08953 8.76758 9.12012C9.00394 9.18151 9.33484 9.26399 9.70996 9.3457C10.4784 9.51308 11.369 9.66504 12.0244 9.66504C12.6791 9.66497 13.5595 9.51283 14.3174 9.3457C14.6875 9.26408 15.0136 9.18238 15.2461 9.12109C15.362 9.09053 15.4548 9.06537 15.5176 9.04785C15.5488 9.03913 15.5732 9.03182 15.5889 9.02734C15.5961 9.02526 15.6019 9.02349 15.6055 9.02246C15.6069 9.02207 15.6087 9.02169 15.6094 9.02148L15.6953 9.00098Z" fill="#1A1A1A"/>
<path d="M12 6.00293C12.8274 6.003 13.4978 6.6736 13.498 7.50098C13.498 8.32855 12.8276 8.99993 12 9C11.1724 9 10.501 8.32859 10.501 7.50098C10.5012 6.67355 11.1725 6.00293 12 6.00293Z" fill="#1A1A1A"/>
<path fill-rule="evenodd" clip-rule="evenodd" d="M12 2.15039C17.4398 2.15044 21.8494 6.56021 21.8496 12C21.8496 17.44 17.44 21.8505 12 21.8506C6.56 21.8506 2.14941 17.44 2.14941 12C2.14963 6.56017 6.56013 2.15039 12 2.15039ZM12 3.85059C7.49901 3.85059 3.84982 7.49906 3.84961 12C3.84961 16.5011 7.49888 20.1504 12 20.1504C16.5011 20.1503 20.1504 16.5011 20.1504 12C20.1502 7.49909 16.5009 3.85064 12 3.85059Z" fill="#1A1A1A"/>
<path d="M12 2.15039C17.44 2.15039 21.8496 6.56 21.8496 12C21.8496 17.44 17.44 21.8496 12 21.8496C6.56 21.8496 2.15039 17.44 2.15039 12C2.15039 6.56 6.56 2.15039 12 2.15039ZM12 3.84961C7.49888 3.84961 3.84961 7.49888 3.84961 12C3.84961 16.5011 7.49888 20.1504 12 20.1504C16.5011 20.1504 20.1504 16.5011 20.1504 12C20.1504 7.49888 16.5011 3.84961 12 3.84961ZM12 6.7998C12.6627 6.7998 13.2002 7.33726 13.2002 8C13.2002 8.66274 12.6627 9.2002 12 9.2002C11.3373 9.2002 10.7998 8.66274 10.7998 8C10.7998 7.33726 11.3373 6.7998 12 6.7998Z" fill="#1A1A1A"/>
</g>
<defs>
<clipPath id="clip0_223477_5079">
<rect width="24" height="24" fill="white"/>
</clipPath>
</defs>
</svg>
