<svg width="24" height="24" viewBox="0 0 24 24" fill="none" xmlns="http://www.w3.org/2000/svg">
<path d="M11.9999 2.15039C10.0518 2.15039 8.14736 2.72808 6.52754 3.81041C4.90772 4.89275 3.64522 6.43111 2.89969 8.23096C2.15417 10.0308 1.95911 12.0113 2.33917 13.922C2.71924 15.8327 3.65736 17.5878 5.0349 18.9654C6.41245 20.3429 8.16755 21.2811 10.0783 21.6611C11.989 22.0412 13.9695 21.8461 15.7693 21.1006C17.5692 20.3551 19.1075 19.0926 20.1899 17.4728C21.2722 15.8529 21.8499 13.9485 21.8499 12.0004C21.8499 11.5309 21.4693 11.1504 20.9999 11.1504C20.5305 11.1504 20.1499 11.5309 20.1499 12.0004C20.1499 13.6123 19.6719 15.188 18.7764 16.5283C17.8809 17.8685 16.608 18.9132 15.1188 19.53C13.6296 20.1469 11.9909 20.3083 10.4099 19.9938C8.82898 19.6793 7.37678 18.9031 6.23699 17.7633C5.09719 16.6235 4.32098 15.1713 4.00651 13.5904C3.69204 12.0094 3.85343 10.3707 4.47029 8.88152C5.08714 7.3923 6.13175 6.11945 7.47201 5.22391C8.81227 4.32838 10.388 3.85039 11.9999 3.85039C12.4693 3.85039 12.8499 3.46983 12.8499 3.00039C12.8499 2.53095 12.4693 2.15039 11.9999 2.15039Z" fill="#1A1A1A"/>
<path d="M17.7967 8.53321L15.6892 9.47094C15.2706 9.65716 14.8429 9.22937 15.0291 8.81086L16.0572 6.50007L15.0291 4.18928C14.8429 3.77077 15.2706 3.34299 15.6892 3.5292L18 4.55737L20.3107 3.5292C20.7293 3.34299 21.157 3.77077 20.9708 4.18928L19.9427 6.50007L20.9708 8.81086C21.157 9.22937 20.7293 9.65716 20.3107 9.47094L18.2032 8.53321C18.0738 8.47564 17.9261 8.47564 17.7967 8.53321Z" fill="#1A1A1A"/>
</svg>
