<svg width="24" height="24" viewBox="0 0 24 24" fill="none" xmlns="http://www.w3.org/2000/svg">
<path fill-rule="evenodd" clip-rule="evenodd" d="M7.1499 7.4999C7.1499 4.82132 9.32132 2.6499 11.9999 2.6499C14.6785 2.6499 16.8499 4.82132 16.8499 7.4999C16.8499 10.1785 14.6785 12.3499 11.9999 12.3499C9.32132 12.3499 7.1499 10.1785 7.1499 7.4999ZM11.9999 4.3499C10.2602 4.3499 8.8499 5.76021 8.8499 7.4999C8.8499 9.2396 10.2602 10.6499 11.9999 10.6499C13.7396 10.6499 15.1499 9.2396 15.1499 7.4999C15.1499 5.76021 13.7396 4.3499 11.9999 4.3499Z" fill="#1A1A1A"/>
<path d="M17.8501 20.5001C17.8501 20.9695 17.4695 21.3501 17.0001 21.3501C16.5307 21.3501 16.1501 20.9695 16.1501 20.5001V18.3499H13.9999C13.5305 18.3499 13.1499 17.9693 13.1499 17.4999C13.1499 17.0305 13.5305 16.6499 13.9999 16.6499H16.1501V14.5001C16.1501 14.0307 16.5307 13.6501 17.0001 13.6501C17.4695 13.6501 17.8501 14.0307 17.8501 14.5001V16.6499H19.9999C20.4693 16.6499 20.8499 17.0305 20.8499 17.4999C20.8499 17.9693 20.4693 18.3499 19.9999 18.3499H17.8501V20.5001Z" fill="#1A1A1A"/>
<path d="M9.00039 15.3499C6.70841 15.3499 4.85039 17.2079 4.85039 19.4999C4.85039 19.5827 4.91755 19.6499 5.00039 19.6499H12.0004C12.4698 19.6499 12.8504 20.0305 12.8504 20.4999C12.8504 20.9693 12.4698 21.3499 12.0004 21.3499H5.00039C3.97866 21.3499 3.15039 20.5216 3.15039 19.4999C3.15039 16.269 5.76952 13.6499 9.00039 13.6499H12.0004C12.4698 13.6499 12.8504 14.0305 12.8504 14.4999C12.8504 14.9693 12.4698 15.3499 12.0004 15.3499H9.00039Z" fill="#1A1A1A"/>
</svg>
