<svg width="24" height="24" viewBox="0 0 24 24" fill="none" xmlns="http://www.w3.org/2000/svg">
<path fill-rule="evenodd" clip-rule="evenodd" d="M11.9999 2.15039C6.5599 2.15039 2.1499 6.56039 2.1499 12.0004C2.1499 17.4404 6.5599 21.8504 11.9999 21.8504C17.4399 21.8504 21.8499 17.4404 21.8499 12.0004C21.8499 6.56039 17.4399 2.15039 11.9999 2.15039ZM12.85 7.5C12.85 7.03056 12.4694 6.65 12 6.65C11.5306 6.65 11.15 7.03056 11.15 7.5V11.15H7.5C7.03056 11.15 6.65 11.5306 6.65 12C6.65 12.4694 7.03056 12.85 7.5 12.85H11.15V16.5C11.15 16.9694 11.5306 17.35 12 17.35C12.4694 17.35 12.85 16.9694 12.85 16.5V12.85H16.5C16.9694 12.85 17.35 12.4694 17.35 12C17.35 11.5306 16.9694 11.15 16.5 11.15H12.85V7.5Z" fill="#1A1A1A"/>
</svg>
