<svg width="24" height="24" viewBox="0 0 24 24" fill="none" xmlns="http://www.w3.org/2000/svg">
<path fill-rule="evenodd" clip-rule="evenodd" d="M3.8499 12.0004C3.8499 7.49927 7.49878 3.85039 11.9999 3.85039C16.501 3.85039 20.1499 7.49927 20.1499 12.0004C20.1499 16.5015 16.501 20.1504 11.9999 20.1504C7.49878 20.1504 3.8499 16.5015 3.8499 12.0004ZM11.9999 2.15039C6.5599 2.15039 2.1499 6.56039 2.1499 12.0004C2.1499 17.4404 6.5599 21.8504 11.9999 21.8504C17.4399 21.8504 21.8499 17.4404 21.8499 12.0004C21.8499 6.56039 17.4399 2.15039 11.9999 2.15039ZM11.9999 6.65039C12.4693 6.65039 12.8499 7.03095 12.8499 7.50039V11.1504H16.4999C16.9693 11.1504 17.3499 11.5309 17.3499 12.0004C17.3499 12.4698 16.9693 12.8504 16.4999 12.8504H12.8499V16.5004C12.8499 16.9698 12.4693 17.3504 11.9999 17.3504C11.5305 17.3504 11.1499 16.9698 11.1499 16.5004V12.8504H7.4999C7.03046 12.8504 6.6499 12.4698 6.6499 12.0004C6.6499 11.5309 7.03046 11.1504 7.4999 11.1504H11.1499V7.50039C11.1499 7.03095 11.5305 6.65039 11.9999 6.65039Z" fill="#1A1A1A"/>
</svg>
