<svg width="24" height="24" viewBox="0 0 24 24" fill="none" xmlns="http://www.w3.org/2000/svg">
<path fill-rule="evenodd" clip-rule="evenodd" d="M15.0349 2.15039H8.9649H8.96489C8.29459 2.15038 7.74037 2.15037 7.28869 2.18728C6.81925 2.22563 6.38622 2.30805 5.97903 2.51552C5.34869 2.8367 4.83621 3.34918 4.51503 3.97952C4.30756 4.38671 4.22514 4.81973 4.18679 5.28918C4.16604 5.54306 4.15696 5.82932 4.15299 6.15039H2.9999C2.53046 6.15039 2.1499 6.53095 2.1499 7.00039C2.1499 7.46983 2.53046 7.85039 2.9999 7.85039H4.1499V16.15H2.9999C2.53046 16.15 2.1499 16.5306 2.1499 17C2.1499 17.4694 2.53046 17.85 2.9999 17.85H4.15298C4.15696 18.1712 4.16604 18.4576 4.18679 18.7116C4.22514 19.181 4.30756 19.6141 4.51503 20.0213C4.83621 20.6516 5.34869 21.1641 5.97903 21.4853C6.38622 21.6927 6.81925 21.7752 7.28869 21.8135C7.74039 21.8504 8.29463 21.8504 8.96495 21.8504H15.0349C15.7052 21.8504 16.2594 21.8504 16.7111 21.8135C17.1806 21.7752 17.6136 21.6927 18.0208 21.4853C18.6511 21.1641 19.1636 20.6516 19.4848 20.0213C19.6922 19.6141 19.7747 19.181 19.813 18.7116C19.8499 18.2599 19.8499 17.7057 19.8499 17.0354V6.9654C19.8499 6.29509 19.8499 5.74086 19.813 5.28918C19.7747 4.81973 19.6922 4.38671 19.4848 3.97952C19.1636 3.34918 18.6511 2.8367 18.0208 2.51552C17.6136 2.30805 17.1806 2.22563 16.7111 2.18728C16.2594 2.15037 15.7052 2.15038 15.0349 2.15039H15.0349ZM5.85315 17.85C5.85681 18.1359 5.8646 18.3707 5.88114 18.5732C5.91091 18.9375 5.96473 19.1219 6.02974 19.2495C6.18793 19.5599 6.44035 19.8124 6.75082 19.9706C6.87841 20.0356 7.06281 20.0894 7.42712 20.1192C7.80136 20.1497 8.28581 20.1504 8.9999 20.1504H14.9999C15.714 20.1504 16.1984 20.1497 16.5727 20.1192C16.937 20.0894 17.1214 20.0356 17.249 19.9706C17.5595 19.8124 17.8119 19.5599 17.9701 19.2495C18.0351 19.1219 18.0889 18.9375 18.1187 18.5732C18.1492 18.1989 18.1499 17.7145 18.1499 17.0004V7.00039C18.1499 6.2863 18.1492 5.80185 18.1187 5.42761C18.0889 5.0633 18.0351 4.8789 17.9701 4.75131C17.8119 4.44084 17.5595 4.18842 17.249 4.03023C17.1214 3.96522 16.937 3.9114 16.5727 3.88163C16.1984 3.85105 15.714 3.85039 14.9999 3.85039H8.9999C8.28581 3.85039 7.80136 3.85105 7.42712 3.88163C7.06281 3.9114 6.87841 3.96522 6.75082 4.03023C6.44035 4.18842 6.18793 4.44084 6.02974 4.75131C5.96473 4.8789 5.91091 5.0633 5.88114 5.42761C5.8646 5.63001 5.85682 5.86464 5.85315 6.15039H6.9999C7.46934 6.15039 7.8499 6.53095 7.8499 7.00039C7.8499 7.46983 7.46934 7.85039 6.9999 7.85039H5.8499V16.15H6.9999C7.46934 16.15 7.8499 16.5306 7.8499 17C7.8499 17.4694 7.46934 17.85 6.9999 17.85H5.85315ZM15.8499 7.00039C15.8499 6.53095 15.4693 6.15039 14.9999 6.15039C14.5305 6.15039 14.1499 6.53095 14.1499 7.00039V17.0004C14.1499 17.4698 14.5305 17.8504 14.9999 17.8504C15.4693 17.8504 15.8499 17.4698 15.8499 17.0004V7.00039Z" fill="#1A1A1A"/>
</svg>
