<svg width="24" height="24" viewBox="0 0 24 24" fill="none" xmlns="http://www.w3.org/2000/svg">
<path fill-rule="evenodd" clip-rule="evenodd" d="M7.1499 7.4999C7.1499 4.82132 9.32132 2.6499 11.9999 2.6499C14.6785 2.6499 16.8499 4.82132 16.8499 7.4999C16.8499 10.1785 14.6785 12.3499 11.9999 12.3499C9.32132 12.3499 7.1499 10.1785 7.1499 7.4999ZM11.9999 4.3499C10.2602 4.3499 8.8499 5.76021 8.8499 7.4999C8.8499 9.2396 10.2602 10.6499 11.9999 10.6499C13.7396 10.6499 15.1499 9.2396 15.1499 7.4999C15.1499 5.76021 13.7396 4.3499 11.9999 4.3499Z" fill="#1A1A1A"/>
<path d="M3.15039 19.4999C3.15039 16.269 5.76952 13.6499 9.00039 13.6499H12.1527C11.8083 14.1719 11.5321 14.7428 11.3364 15.3499H9.00039C6.70841 15.3499 4.85039 17.2079 4.85039 19.4999C4.85039 19.5827 4.91755 19.6499 5.00039 19.6499H11.3363C11.5321 20.257 11.8084 20.8279 12.1529 21.3499H5.00039C3.97866 21.3499 3.15039 20.5216 3.15039 19.4999Z" fill="#1A1A1A"/>
<path fill-rule="evenodd" clip-rule="evenodd" d="M14.6648 20.7594C15.0421 21.0308 15.4638 21.2342 15.911 21.3604L16.5343 20.8417C16.6651 20.7329 16.8299 20.6733 17 20.6733C17.1701 20.6733 17.3349 20.7329 17.4657 20.8417L18.089 21.3602C18.5362 21.234 18.9579 21.0307 19.3352 20.7594L19.3184 19.9495C19.3149 19.7794 19.371 19.6134 19.4771 19.4804C19.5832 19.3474 19.7325 19.2557 19.8991 19.2213L20.6932 19.0573C20.8734 18.6289 20.9772 18.1724 21 17.7083L20.3566 17.2167C20.2214 17.1134 20.1267 16.966 20.0888 16.8001C20.051 16.6342 20.0724 16.4602 20.1495 16.3085L20.5161 15.5857C20.293 15.1781 20.0009 14.8123 19.6528 14.5044L18.8675 14.701C18.7024 14.7423 18.5281 14.7245 18.3748 14.6506C18.2215 14.5768 18.0988 14.4516 18.0282 14.2968L17.6918 13.5595C17.467 13.5204 17.2359 13.5 17.0002 13.5C16.7683 13.4999 16.5368 13.5198 16.3084 13.5595L15.972 14.2968C15.9013 14.4516 15.7787 14.5768 15.6254 14.6506C15.4721 14.7245 15.2978 14.7423 15.1327 14.701L14.3472 14.5044C13.9991 14.8123 13.707 15.1781 13.4839 15.5857L13.8507 16.3085C13.9277 16.4602 13.9492 16.6342 13.9113 16.8001C13.8734 16.966 13.7786 17.1134 13.6434 17.2167L13 17.7083C13.0228 18.1724 13.1266 18.6289 13.3068 19.0573L14.101 19.2215C14.2677 19.2559 14.417 19.3476 14.5231 19.4806C14.6291 19.6136 14.6853 19.7796 14.6818 19.9497L14.6648 20.7594ZM18.2602 17.4314C18.2602 18.1281 17.6961 18.6929 17.0002 18.6929C16.3044 18.6929 15.7402 18.1281 15.7402 17.4314C15.7402 16.7347 16.3044 16.1699 17.0002 16.1699C17.6961 16.1699 18.2602 16.7347 18.2602 17.4314Z" fill="#1A1A1A"/>
</svg>
