<svg width="24" height="24" viewBox="0 0 24 24" fill="none" xmlns="http://www.w3.org/2000/svg">
<path d="M5.96313 19.5451C6.62572 19.5453 7.16235 20.0827 7.16235 20.7453C7.16221 21.4078 6.62563 21.9453 5.96313 21.9455C5.30048 21.9455 4.76308 21.4079 4.76294 20.7453C4.76294 20.0826 5.30039 19.5451 5.96313 19.5451ZM10.2825 19.5451C10.9452 19.5451 11.4827 20.0826 11.4827 20.7453C11.4826 21.408 10.9452 21.9455 10.2825 21.9455C9.61986 21.9454 9.08237 21.4079 9.08228 20.7453C9.08228 20.0826 9.6198 19.5452 10.2825 19.5451ZM14.6028 19.5451C15.2655 19.5452 15.803 20.0826 15.803 20.7453C15.8029 21.4079 15.2654 21.9454 14.6028 21.9455C13.9401 21.9455 13.4027 21.408 13.4026 20.7453C13.4026 20.0826 13.94 19.5451 14.6028 19.5451ZM18.9231 19.5451C19.5857 19.5453 20.1223 20.0827 20.1223 20.7453C20.1222 21.4079 19.5856 21.9453 18.9231 21.9455C18.2604 21.9455 17.723 21.408 17.7229 20.7453C17.7229 20.0826 18.2604 19.5451 18.9231 19.5451ZM7.34204 2.04901C7.67397 1.71708 8.21126 1.71712 8.54321 2.04901C8.87516 2.38096 8.87516 2.91824 8.54321 3.25018L5.99438 5.79999H15.1301C18.2572 5.79999 20.7922 8.33501 20.7922 11.4621C20.7919 14.5889 18.257 17.1242 15.1301 17.1242H4.94263C4.47329 17.1242 4.0931 16.743 4.09302 16.2736C4.0931 15.8043 4.47328 15.4241 4.94263 15.424H15.1301C17.3181 15.424 19.0927 13.65 19.093 11.4621C19.093 9.2739 17.3183 7.49921 15.1301 7.49921H5.99438L8.54321 10.049L8.60181 10.1135C8.87401 10.4473 8.85438 10.939 8.54321 11.2502C8.23205 11.5613 7.74034 11.581 7.40649 11.3088L7.34204 11.2502L3.69556 7.60468L3.60278 7.50214C3.16999 6.97189 3.20121 6.1889 3.69556 5.69452L7.34204 2.04901Z" fill="#1A1A1A"/>
</svg>
