<svg width="24" height="24" viewBox="0 0 24 24" fill="none" xmlns="http://www.w3.org/2000/svg">
<path d="M12 13.6504C12.4693 13.6504 12.8494 14.0307 12.8496 14.5C12.8496 14.9694 12.4694 15.3496 12 15.3496H9C6.70817 15.3496 4.84981 17.2082 4.84961 19.5C4.84961 19.5828 4.91719 19.6504 5 19.6504H12C12.4693 19.6504 12.8494 20.0307 12.8496 20.5C12.8496 20.9694 12.4694 21.3496 12 21.3496H5C3.9783 21.3496 3.15039 20.5217 3.15039 19.5C3.15059 16.2693 5.76928 13.6504 9 13.6504H12ZM16.8594 14.1475C16.9934 13.7843 17.5066 13.7843 17.6406 14.1475L17.9199 14.9062C18.2053 15.6828 18.8172 16.2947 19.5938 16.5801L20.3525 16.8594C20.7157 16.9934 20.7157 17.5066 20.3525 17.6406L19.5938 17.9199C18.8172 18.2053 18.2053 18.8172 17.9199 19.5938L17.6406 20.3525C17.5066 20.7157 16.9934 20.7157 16.8594 20.3525L16.5801 19.5938C16.2947 18.8172 15.6828 18.2053 14.9062 17.9199L14.1475 17.6406C13.7843 17.5066 13.7843 16.9934 14.1475 16.8594L14.9062 16.5801C15.6828 16.2947 16.2947 15.6828 16.5801 14.9062L16.8594 14.1475ZM12 2.65039C14.6786 2.65039 16.8496 4.82142 16.8496 7.5C16.8496 10.1786 14.6786 12.3496 12 12.3496C9.32142 12.3496 7.15039 10.1786 7.15039 7.5C7.15039 4.82142 9.32142 2.65039 12 2.65039ZM12 4.34961C10.2603 4.34961 8.84961 5.7603 8.84961 7.5C8.84961 9.2397 10.2603 10.6504 12 10.6504C13.7397 10.6504 15.1504 9.2397 15.1504 7.5C15.1504 5.7603 13.7397 4.34961 12 4.34961Z" fill="#1A1A1A"/>
</svg>
