<svg width="24" height="24" viewBox="0 0 24 24" fill="none" xmlns="http://www.w3.org/2000/svg">
<path d="M19.4995 2C19.6466 2 19.7676 2.11322 19.7924 2.25821C20.0056 3.50783 20.9917 4.4939 22.2413 4.70713C22.3863 4.73187 22.4995 4.85292 22.4995 5C22.4995 5.14708 22.3863 5.26813 22.2413 5.29287C20.9917 5.5061 20.0056 6.49217 19.7924 7.74179C19.7676 7.88678 19.6466 8 19.4995 8C19.3524 8 19.2314 7.88678 19.2066 7.74179C18.9934 6.49217 18.0073 5.5061 16.7577 5.29287C16.6127 5.26813 16.4995 5.14708 16.4995 5C16.4995 4.85292 16.6127 4.73187 16.7577 4.70713C18.0073 4.4939 18.9934 3.50783 19.2066 2.25821C19.2314 2.11322 19.3524 2 19.4995 2Z" fill="#1A1A1A"/>
<path fill-rule="evenodd" clip-rule="evenodd" d="M12.8494 3.00002C12.8494 2.53058 12.4689 2.15002 11.9994 2.15002C11.53 2.15002 11.1494 2.53058 11.1494 3.00002C11.1494 7.50114 7.50053 11.15 2.99941 11.15C2.52997 11.15 2.14941 11.5306 2.14941 12C2.14941 12.4695 2.52997 12.85 2.99941 12.85C7.50053 12.85 11.1494 16.4989 11.1494 21C11.1494 21.4695 11.53 21.85 11.9994 21.85C12.4689 21.85 12.8494 21.4695 12.8494 21C12.8494 16.4989 16.4983 12.85 20.9994 12.85C21.4689 12.85 21.8494 12.4695 21.8494 12C21.8494 11.5306 21.4689 11.15 20.9994 11.15C16.4983 11.15 12.8494 7.50114 12.8494 3.00002ZM7.00825 12C9.22565 11.0108 11.0102 9.22626 11.9994 7.00886C12.9886 9.22626 14.7732 11.0108 16.9906 12C14.7732 12.9892 12.9886 14.7738 11.9994 16.9912C11.0102 14.7738 9.22565 12.9892 7.00825 12Z" fill="#1A1A1A"/>
</svg>
