<svg width="24" height="24" viewBox="0 0 24 24" fill="none" xmlns="http://www.w3.org/2000/svg">
<path fill-rule="evenodd" clip-rule="evenodd" d="M7.81086 15.2548L8.2858 13.7436H12.3141L12.7891 15.2548C12.9298 15.7026 13.407 15.9515 13.8548 15.8108C14.3027 15.67 14.5516 15.1929 14.4109 14.745L12.5407 8.79444C12.2331 7.81574 11.3259 7.1499 10.3 7.1499C9.27406 7.1499 8.36686 7.81574 8.05926 8.79444L6.18907 14.745C6.04832 15.1929 6.29727 15.67 6.74512 15.8108C7.19296 15.9515 7.67011 15.7026 7.81086 15.2548ZM10.9189 9.30415C10.8339 9.03382 10.5833 8.8499 10.3 8.8499C10.0166 8.8499 9.76602 9.03382 9.68105 9.30415L8.7533 12.2561H11.8466L10.9189 9.30415Z" fill="#1A1A1A"/>
<path d="M16.8499 7.9999C16.8499 7.53046 16.4693 7.1499 15.9999 7.1499C15.5305 7.1499 15.1499 7.53046 15.1499 7.9999V14.9999C15.1499 15.4693 15.5305 15.8499 15.9999 15.8499C16.4693 15.8499 16.8499 15.4693 16.8499 14.9999L16.8499 7.9999Z" fill="#1A1A1A"/>
<path fill-rule="evenodd" clip-rule="evenodd" d="M11.9997 2.15039C6.55965 2.15039 2.14966 6.56039 2.14966 12.0004C2.14966 17.4404 6.55965 21.8504 11.9997 21.8504C17.4397 21.8504 21.8497 17.4404 21.8497 12.0004C21.8497 6.56039 17.4397 2.15039 11.9997 2.15039ZM3.84966 12.0004C3.84966 7.49927 7.49854 3.85039 11.9997 3.85039C16.5008 3.85039 20.1497 7.49927 20.1497 12.0004C20.1497 16.5015 16.5008 20.1504 11.9997 20.1504C7.49854 20.1504 3.84966 16.5015 3.84966 12.0004Z" fill="#1A1A1A"/>
</svg>
