<svg width="24" height="24" viewBox="0 0 24 24" fill="none" xmlns="http://www.w3.org/2000/svg">
<path d="M11.5857 4.36314C11.8255 4.16751 12.17 4.1681 12.4092 4.36455L14.2104 5.84416C14.5731 6.14214 15.1087 6.08964 15.4067 5.7269C15.7047 5.36415 15.6522 4.82853 15.2894 4.53055L13.4883 3.05094C12.6237 2.34069 11.3782 2.33856 10.5111 3.04585L4.19839 8.19549C3.53489 8.73674 3.1499 9.54763 3.1499 10.4039V18C3.1499 19.574 4.42589 20.85 5.9999 20.85H10.6727C10.5118 20.7474 10.3595 20.6258 10.219 20.4853L8.88363 19.15H5.9999C5.36477 19.15 4.8499 18.6351 4.8499 18V10.4039C4.8499 10.0584 5.00525 9.73118 5.27298 9.51278L11.5857 4.36314Z" fill="black"/>
<path fill-rule="evenodd" clip-rule="evenodd" d="M17.9999 20.85H13.5365C13.6974 20.7474 13.8497 20.6258 13.9902 20.4853L15.3255 19.15H17.9999C18.635 19.15 19.1499 18.6351 19.1499 18V10.4454C19.1499 10.1013 18.9958 9.77523 18.7299 9.55679L17.0606 8.18555L13.3024 11.9959L16.0053 14.6988C16.5976 15.2911 16.5976 16.2514 16.0053 16.8437L13.1769 19.6721C12.5846 20.2644 11.6243 20.2644 11.032 19.6721L8.20356 16.8437C7.61127 16.2514 7.61126 15.2911 8.20356 14.6988L11.5013 11.401L16.3709 6.46392C16.6735 6.1305 17.1877 6.08992 17.5394 6.37885L19.809 8.24318C20.468 8.78453 20.8499 9.59256 20.8499 10.4454V18C20.8499 19.574 19.5739 20.85 17.9999 20.85ZM14.6736 15.7712L12.1044 13.2021L9.53528 15.7712L12.1044 18.3404L14.6736 15.7712Z" fill="black"/>
</svg>
