<svg width="24" height="24" viewBox="0 0 24 24" fill="none" xmlns="http://www.w3.org/2000/svg">
<path d="M18.6473 1.77781C18.5847 1.65968 18.4154 1.65968 18.3528 1.77781L17.4606 3.46062L15.7778 4.35282C15.6597 4.41545 15.6597 4.58469 15.7778 4.64732L17.4606 5.53952L18.3528 7.22233C18.4154 7.34046 18.5847 7.34046 18.6473 7.22233L19.5395 5.53952L21.2223 4.64732C21.3405 4.58469 21.3405 4.41545 21.2223 4.35282L19.5395 3.46062L18.6473 1.77781Z" fill="#1A1A1A"/>
<path d="M4.59805 5.68504C4.5563 5.60629 4.44347 5.60629 4.40172 5.68504L3.63368 7.13368L2.18504 7.90172C2.10629 7.94347 2.10629 8.0563 2.18504 8.09805L3.63368 8.86609L4.40172 10.3147C4.44347 10.3935 4.5563 10.3935 4.59805 10.3147L5.36609 8.86609L6.81472 8.09805C6.89348 8.0563 6.89348 7.94347 6.81472 7.90172L5.36609 7.13368L4.59805 5.68504Z" fill="#1A1A1A"/>
<path fill-rule="evenodd" clip-rule="evenodd" d="M8.33608 15L6.952 19.306C6.783 19.8318 6.21976 20.121 5.69397 19.952C5.16817 19.783 4.87894 19.2198 5.04795 18.694L9.08893 6.12203C9.49539 4.8575 10.6717 4 12 4C13.3282 4 14.5046 4.8575 14.911 6.12203L18.952 18.694C19.121 19.2198 18.8318 19.783 18.306 19.952C17.7802 20.121 17.217 19.8318 17.0479 19.306L15.6639 15H8.33608ZM12 6C12.4594 6 12.8664 6.29663 13.007 6.73405L15.021 13H8.97893L10.993 6.73405C11.1336 6.29663 11.5405 6 12 6Z" fill="#1A1A1A"/>
</svg>
