<svg width="24" height="24" viewBox="0 0 24 24" fill="none" xmlns="http://www.w3.org/2000/svg">
<path d="M4.39886 1.89935C4.73081 1.5674 5.269 1.5674 5.60094 1.89935C5.93289 2.2313 5.93289 2.76949 5.60094 3.10143L3.10094 5.60143C2.769 5.93338 2.23081 5.93338 1.89886 5.60143C1.56692 5.26949 1.56692 4.7313 1.89886 4.39935L4.39886 1.89935Z" fill="#1A1A1A"/>
<path d="M19.601 1.89935C19.269 1.5674 18.7309 1.5674 18.3989 1.89935C18.067 2.2313 18.067 2.76949 18.3989 3.10143L20.8989 5.60143C21.2309 5.93338 21.769 5.93338 22.101 5.60143C22.4329 5.26949 22.4329 4.7313 22.101 4.39935L19.601 1.89935Z" fill="#1A1A1A"/>
<path d="M12.35 8.00039C12.35 7.53095 11.9694 7.15039 11.5 7.15039C11.0305 7.15039 10.65 7.53095 10.65 8.00039V13.0004C10.65 13.2258 10.7395 13.442 10.8989 13.6014C11.0583 13.7608 11.2745 13.8504 11.5 13.8504H15.5C15.9694 13.8504 16.35 13.4698 16.35 13.0004C16.35 12.5309 15.9694 12.1504 15.5 12.1504H12.35L12.35 8.00039Z" fill="#1A1A1A"/>
<path fill-rule="evenodd" clip-rule="evenodd" d="M2.64995 12.5004C2.64995 7.33653 6.83609 3.15039 12 3.15039C17.1638 3.15039 21.35 7.33653 21.35 12.5004C21.35 17.6643 17.1638 21.8504 12 21.8504C6.83609 21.8504 2.64995 17.6643 2.64995 12.5004ZM12 4.85039C7.77497 4.85039 4.34995 8.27541 4.34995 12.5004C4.34995 16.7254 7.77497 20.1504 12 20.1504C16.2249 20.1504 19.65 16.7254 19.65 12.5004C19.65 8.27541 16.2249 4.85039 12 4.85039Z" fill="#1A1A1A"/>
</svg>
