<svg width="24" height="24" viewBox="0 0 24 24" fill="none" xmlns="http://www.w3.org/2000/svg">
<path d="M4.8499 8.49941C4.8499 8.96886 4.46934 9.34941 3.9999 9.34941C3.53046 9.34941 3.1499 8.96886 3.1499 8.49941V6.99941C3.1499 4.87312 4.87361 3.14941 6.9999 3.14941H8.4999C8.96934 3.14941 9.3499 3.52997 9.3499 3.99941C9.3499 4.46886 8.96934 4.84941 8.4999 4.84941H6.9999C5.81249 4.84941 4.8499 5.812 4.8499 6.99941V8.49941Z" fill="#1A1A1A"/>
<path fill-rule="evenodd" clip-rule="evenodd" d="M11.9999 5.9002C9.73553 5.9002 7.8999 7.73583 7.8999 10.0002C7.8999 12.2646 9.73553 14.1002 11.9999 14.1002C14.2643 14.1002 16.0999 12.2646 16.0999 10.0002C16.0999 7.73583 14.2643 5.9002 11.9999 5.9002ZM9.5999 10.0002C9.5999 8.67471 10.6744 7.60019 11.9999 7.60019C13.3254 7.60019 14.3999 8.67471 14.3999 10.0002C14.3999 11.3257 13.3254 12.4002 11.9999 12.4002C10.6744 12.4002 9.5999 11.3257 9.5999 10.0002Z" fill="#1A1A1A"/>
<path d="M12.0002 15.1502C10.1566 15.1502 8.51149 15.652 7.0937 16.5268C6.69419 16.7733 6.57017 17.2971 6.81669 17.6966C7.06321 18.0961 7.58692 18.2201 7.98642 17.9736C9.14147 17.2608 10.4785 16.8502 12.0002 16.8502C13.5328 16.8502 14.8634 17.2609 16.0147 17.9731C16.414 18.22 16.9378 18.0966 17.1848 17.6974C17.4317 17.2981 17.3083 16.7743 16.9091 16.5273C15.4939 15.6519 13.8545 15.1502 12.0002 15.1502Z" fill="#1A1A1A"/>
<path d="M20.0001 14.6502C19.5307 14.6502 19.1501 15.0308 19.1501 15.5002V17.0002C19.1501 18.1876 18.1875 19.1502 17.0001 19.1502H15.5001C15.0307 19.1502 14.6501 19.5308 14.6501 20.0002C14.6501 20.4696 15.0307 20.8502 15.5001 20.8502H17.0001C19.1264 20.8502 20.8501 19.1265 20.8501 17.0002V15.5002C20.8501 15.0308 20.4695 14.6502 20.0001 14.6502Z" fill="#1A1A1A"/>
<path d="M20.0001 9.34941C19.5307 9.34941 19.1501 8.96886 19.1501 8.49941V6.99941C19.1501 5.812 18.1875 4.84941 17.0001 4.84941H15.5001C15.0307 4.84941 14.6501 4.46886 14.6501 3.99941C14.6501 3.52997 15.0307 3.14941 15.5001 3.14941H17.0001C19.1264 3.14941 20.8501 4.87312 20.8501 6.99941V8.49941C20.8501 8.96886 20.4695 9.34941 20.0001 9.34941Z" fill="#1A1A1A"/>
<path d="M4.8499 15.5002C4.8499 15.0308 4.46934 14.6502 3.9999 14.6502C3.53046 14.6502 3.1499 15.0308 3.1499 15.5002V17.0002C3.1499 19.1265 4.87361 20.8502 6.9999 20.8502H8.4999C8.96934 20.8502 9.3499 20.4696 9.3499 20.0002C9.3499 19.5308 8.96934 19.1502 8.4999 19.1502H6.9999C5.81249 19.1502 4.8499 18.1876 4.8499 17.0002V15.5002Z" fill="#1A1A1A"/>
</svg>
