<svg width="24" height="24" viewBox="0 0 24 24" fill="none" xmlns="http://www.w3.org/2000/svg">
<path d="M9.4999 8.15039C9.96934 8.15039 10.3499 8.53095 10.3499 9.00039V10.5004C10.3499 10.9698 9.96934 11.3504 9.4999 11.3504C9.03046 11.3504 8.6499 10.9698 8.6499 10.5004V9.00039C8.6499 8.53095 9.03046 8.15039 9.4999 8.15039Z" fill="#1A1A1A"/>
<path d="M14.3499 9.00039C14.3499 8.53095 13.9693 8.15039 13.4999 8.15039C13.0305 8.15039 12.6499 8.53095 12.6499 9.00039V10.5004C12.6499 10.9698 13.0305 11.3504 13.4999 11.3504C13.9693 11.3504 14.3499 10.9698 14.3499 10.5004V9.00039Z" fill="#1A1A1A"/>
<path fill-rule="evenodd" clip-rule="evenodd" d="M18.0682 4.156C17.9289 2.43723 15.7211 1.82702 14.7189 3.23022L14.0626 4.14903H8.93742L8.28113 3.23022C7.27884 1.82702 5.07114 2.43724 4.93178 4.156L3.91568 16.6879C3.73392 18.9295 5.5041 20.849 7.75308 20.849H15.2469C15.3013 20.849 15.3554 20.8479 15.4093 20.8457C15.4388 20.8488 15.4687 20.8504 15.4991 20.8505L15.5013 20.8505C15.6397 20.8506 16.7547 20.8517 17.0404 20.8408C17.8464 20.8439 18.7933 20.7291 19.6525 20.3729C20.5301 20.0091 21.3617 19.3708 21.7877 18.3196C22.041 17.6944 22.0097 17.0859 21.9182 16.5712C21.8727 16.3152 21.8088 16.0647 21.7489 15.8383L21.7118 15.6992C21.6638 15.5194 21.6199 15.3551 21.5815 15.1869C21.4866 14.7711 21.4517 14.4346 21.5089 14.1228C21.5626 13.8302 21.71 13.4924 22.1009 13.1014C22.4329 12.7695 22.4329 12.2313 22.1009 11.8994C21.769 11.5674 21.2308 11.5674 20.8989 11.8994C20.2899 12.5084 19.959 13.15 19.8368 13.8161C19.7182 14.4628 19.8098 15.0642 19.9242 15.5653C19.9702 15.7668 20.0242 15.9687 20.0729 16.1509L20.1055 16.2736C20.1642 16.4951 20.2122 16.6873 20.2445 16.8687C20.3085 17.2288 20.2961 17.474 20.2121 17.6812C20.0021 18.1994 19.5838 18.5611 19.0014 18.8025C18.8621 18.8603 18.7161 18.9098 18.5656 18.9517C18.9538 18.2938 19.1512 17.5126 19.0843 16.6879L18.0682 4.156ZM16.1022 4.21833C16.1308 4.17825 16.1557 4.16618 16.173 4.16056C16.1958 4.15321 16.228 4.15093 16.2642 4.16093C16.3004 4.17093 16.327 4.18947 16.3427 4.20745C16.3547 4.22119 16.3698 4.2443 16.3738 4.29339L17.3899 16.8253C17.4914 18.0771 16.5028 19.149 15.2469 19.149H7.75308C6.49716 19.149 5.50862 18.0771 5.61012 16.8253L6.62622 4.29339C6.6302 4.2443 6.6453 4.22119 6.65731 4.20745C6.67304 4.18947 6.69958 4.17093 6.73576 4.16093C6.77195 4.15093 6.80424 4.15321 6.82697 4.16056C6.84433 4.16618 6.86916 4.17825 6.89779 4.21833L7.80832 5.49308C7.96788 5.71645 8.22549 5.84903 8.5 5.84903H14.5C14.7745 5.84903 15.0321 5.71645 15.1917 5.49308L16.1022 4.21833Z" fill="#1A1A1A"/>
</svg>
