<svg width="24" height="24" viewBox="0 0 24 24" fill="none" xmlns="http://www.w3.org/2000/svg">
<path d="M15 2.90039C18.3689 2.90039 21.0996 5.63106 21.0996 9V15C21.0996 18.3689 18.3689 21.0996 15 21.0996H9C5.63106 21.0996 2.90039 18.3689 2.90039 15V9C2.90039 5.63106 5.63106 2.90039 9 2.90039H15ZM9 4.59961C6.56995 4.59961 4.59961 6.56995 4.59961 9V15C4.59961 17.4301 6.56995 19.4004 9 19.4004H15C17.4301 19.4004 19.4004 17.4301 19.4004 15V9C19.4004 6.56995 17.4301 4.59961 15 4.59961H9ZM15 8.15039C15.4694 8.15039 15.8496 8.53056 15.8496 9V13.7998C15.8496 14.2692 15.4694 14.6504 15 14.6504C14.5306 14.6504 14.1504 14.2692 14.1504 13.7998V11.0508L9.60059 15.6006C9.26864 15.9325 8.73136 15.9325 8.39941 15.6006C8.06747 15.2686 8.06747 14.7314 8.39941 14.3994L12.9492 9.84961H10.2002C9.73075 9.84961 9.34961 9.46944 9.34961 9C9.34961 8.53056 9.73075 8.15039 10.2002 8.15039H15Z" fill="#1A1A1A"/>
</svg>
