<svg width="24" height="24" viewBox="0 0 24 24" fill="none" xmlns="http://www.w3.org/2000/svg">
<path d="M7.89887 11.6013C8.23082 11.9332 8.76901 11.9332 9.10095 11.6013L11.1499 9.55225L11.1499 17.0002C11.1499 17.4697 11.5305 17.8502 11.9999 17.8502C12.4693 17.8502 12.8499 17.4697 12.8499 17.0002L12.8499 9.55239L14.8989 11.6013C15.2308 11.9332 15.769 11.9332 16.101 11.6013C16.4329 11.2693 16.4329 10.7311 16.1009 10.3992L13.3079 7.60628C12.5854 6.88383 11.4141 6.88385 10.6916 7.60633L7.89885 10.3992C7.56691 10.7312 7.56692 11.2694 7.89887 11.6013Z" fill="#1A1A1A"/>
<path fill-rule="evenodd" clip-rule="evenodd" d="M2.1499 12.0004C2.1499 6.56039 6.5599 2.15039 11.9999 2.15039C17.4399 2.15039 21.8499 6.56039 21.8499 12.0004C21.8499 17.4404 17.4399 21.8504 11.9999 21.8504C6.5599 21.8504 2.1499 17.4404 2.1499 12.0004ZM11.9999 3.85039C7.49878 3.85039 3.8499 7.49927 3.8499 12.0004C3.8499 16.5015 7.49878 20.1504 11.9999 20.1504C16.501 20.1504 20.1499 16.5015 20.1499 12.0004C20.1499 7.49927 16.501 3.85039 11.9999 3.85039Z" fill="#1A1A1A"/>
</svg>
