<svg width="24" height="24" viewBox="0 0 24 24" fill="none" xmlns="http://www.w3.org/2000/svg">
<path d="M5.81341 3.34082C6.14727 3.06868 6.63899 3.08827 6.95013 3.39941L11.9501 8.39941C12.282 8.73134 12.282 9.26866 11.9501 9.60059C11.6182 9.93251 11.0809 9.93247 10.749 9.60059L7.19915 6.05078V20C7.19915 20.4694 6.81893 20.8495 6.34955 20.8496C5.8801 20.8496 5.49994 20.4694 5.49994 20V6.05078L1.95013 9.60059C1.61821 9.93251 1.08091 9.93247 0.748959 9.60059C0.417014 9.26864 0.417014 8.73136 0.748959 8.39941L5.74896 3.39941L5.81341 3.34082Z" fill="#1A1A1A"/>
<path d="M17.3495 3.15039C17.8189 3.15046 18.1992 3.5306 18.1992 4V17.9492L21.749 14.3994C22.0809 14.0675 22.6182 14.0675 22.9501 14.3994C23.282 14.7313 23.282 15.2687 22.9501 15.6006L17.9501 20.6006C17.639 20.9117 17.1473 20.9313 16.8134 20.6592L16.749 20.6006L11.749 15.6006C11.417 15.2686 11.417 14.7314 11.749 14.3994C12.0809 14.0675 12.6182 14.0675 12.9501 14.3994L16.4999 17.9492V4C16.4999 3.53056 16.8801 3.15039 17.3495 3.15039Z" fill="#1A1A1A"/>
</svg>
