<svg width="24" height="24" viewBox="0 0 24 24" fill="none" xmlns="http://www.w3.org/2000/svg">
<path d="M12 2.15039C12.4694 2.15039 12.8496 2.53056 12.8496 3C12.8496 3.46944 12.4694 3.84961 12 3.84961C9.83849 3.84961 7.76573 4.70888 6.2373 6.2373C4.70888 7.76573 3.84961 9.83849 3.84961 12C3.84961 14.1615 4.70888 16.2343 6.2373 17.7627C7.76573 19.2911 9.83849 20.1504 12 20.1504C12.4694 20.1504 12.8496 20.5306 12.8496 21C12.8496 21.4694 12.4694 21.8496 12 21.8496C9.38762 21.8496 6.88239 20.8121 5.03516 18.9648C3.18792 17.1176 2.15039 14.6124 2.15039 12C2.15039 9.38762 3.18792 6.88239 5.03516 5.03516C6.88239 3.18792 9.38762 2.15039 12 2.15039ZM14.4326 19.7783C14.8806 19.6382 15.3579 19.8879 15.498 20.3359C15.6381 20.7839 15.3884 21.2612 14.9404 21.4014C14.8384 21.4333 14.7351 21.4636 14.6318 21.4922C14.1796 21.6173 13.7113 21.3516 13.5859 20.8994C13.4608 20.4473 13.7256 19.979 14.1777 19.8535C14.2631 19.8298 14.3483 19.8047 14.4326 19.7783ZM16.7949 18.5898C17.1745 18.3137 17.7062 18.3978 17.9824 18.7773C18.2586 19.1569 18.1754 19.6886 17.7959 19.9648C17.6229 20.0908 17.4455 20.2108 17.2646 20.3252C16.8679 20.5761 16.3427 20.4573 16.0918 20.0605C15.8413 19.664 15.9592 19.1396 16.3555 18.8887C16.5051 18.7941 16.6518 18.694 16.7949 18.5898ZM18.6533 16.707C18.9246 16.3242 19.4548 16.2339 19.8379 16.5049C20.2209 16.776 20.312 17.3063 20.041 17.6895C19.9793 17.7767 19.9153 17.8628 19.8506 17.9482C19.7859 18.0336 19.7205 18.1182 19.6533 18.2012C19.3578 18.5659 18.8218 18.6217 18.457 18.3262C18.0927 18.0306 18.0366 17.4955 18.332 17.1309C18.3877 17.0621 18.4425 16.9925 18.4961 16.9219C18.5496 16.8512 18.6022 16.7792 18.6533 16.707ZM12 6.15039C12.4694 6.15044 12.8496 6.53059 12.8496 7V14.4473L14.8984 12.3984C15.2303 12.0666 15.7686 12.0669 16.1006 12.3984C16.4325 12.7304 16.4325 13.2686 16.1006 13.6006L13.3076 16.3936C12.5851 17.116 11.4139 17.116 10.6914 16.3936L7.89844 13.6006C7.56688 13.2686 7.56662 12.7303 7.89844 12.3984C8.23026 12.0666 8.76861 12.0669 9.10059 12.3984L11.1494 14.4482V7C11.1494 6.53056 11.5306 6.15039 12 6.15039ZM19.8096 14.3291C19.9438 13.8794 20.4175 13.6239 20.8672 13.7578C21.317 13.892 21.5736 14.3656 21.4395 14.8154C21.3783 15.0205 21.3097 15.2232 21.2354 15.4238C21.0722 15.8639 20.5836 16.0887 20.1436 15.9258C19.7034 15.7626 19.4784 15.2732 19.6416 14.833C19.7031 14.667 19.759 14.4988 19.8096 14.3291ZM20.9639 10.8262C21.4328 10.8095 21.8268 11.1756 21.8438 11.6445C21.8476 11.7513 21.8492 11.8587 21.8496 11.9658C21.85 12.0729 21.8488 12.1803 21.8457 12.2871C21.8318 12.7561 21.4407 13.1249 20.9717 13.1113C20.5025 13.0977 20.1329 12.7065 20.1465 12.2373C20.1491 12.149 20.1507 12.0603 20.1504 11.9717C20.1501 11.8831 20.1477 11.7944 20.1445 11.7061C20.1276 11.2369 20.4947 10.8431 20.9639 10.8262ZM20.1152 8.01758C20.5542 7.85134 21.0456 8.07273 21.2119 8.51172C21.2877 8.71176 21.3564 8.91459 21.4189 9.11914C21.5561 9.5679 21.3041 10.0432 20.8555 10.1807C20.4066 10.318 19.9313 10.065 19.7939 9.61621C19.7421 9.44686 19.6848 9.2789 19.6221 9.11328C19.4559 8.67441 19.6765 8.18394 20.1152 8.01758ZM18.4131 5.62891C18.7756 5.33095 19.3112 5.38277 19.6094 5.74512C19.6772 5.82769 19.7443 5.91211 19.8096 5.99707C19.8748 6.08194 19.9387 6.16815 20.001 6.25488C20.2744 6.636 20.1874 7.16657 19.8066 7.44043C19.4253 7.71425 18.8939 7.62739 18.6201 7.24609C18.5686 7.17438 18.5159 7.10339 18.4619 7.0332C18.4079 6.9629 18.3521 6.89352 18.2959 6.8252C17.9979 6.46259 18.0506 5.927 18.4131 5.62891ZM16.0352 3.91016C16.2833 3.51185 16.8076 3.39061 17.2061 3.63867C17.3877 3.7518 17.5663 3.8704 17.7402 3.99512C18.1215 4.26871 18.209 4.80021 17.9355 5.18164C17.662 5.56305 17.1305 5.65048 16.749 5.37695C16.6051 5.27376 16.458 5.17466 16.3076 5.08105C15.9093 4.83287 15.7871 4.30859 16.0352 3.91016ZM13.5234 3.08887C13.6459 2.63584 14.1133 2.36797 14.5664 2.49023C14.6697 2.51812 14.7729 2.54795 14.875 2.5791C15.3236 2.71628 15.5763 3.19086 15.4395 3.63965C15.3025 4.08849 14.8278 4.34173 14.3789 4.20508C14.2943 4.17927 14.2086 4.15493 14.123 4.13184C13.6698 4.00954 13.4011 3.5421 13.5234 3.08887Z" fill="#1A1A1A"/>
</svg>
