<svg width="24" height="24" viewBox="0 0 24 24" fill="none" xmlns="http://www.w3.org/2000/svg">
<path fill-rule="evenodd" clip-rule="evenodd" d="M11.9999 3.1499C8.21675 3.1499 5.1499 6.21675 5.1499 9.9999C5.1499 13.7831 8.21675 16.8499 11.9999 16.8499C15.7831 16.8499 18.8499 13.7831 18.8499 9.9999C18.8499 6.21675 15.7831 3.1499 11.9999 3.1499ZM6.8499 9.9999C6.8499 7.15564 9.15564 4.8499 11.9999 4.8499C14.8442 4.8499 17.1499 7.15564 17.1499 9.9999C17.1499 12.8442 14.8442 15.1499 11.9999 15.1499C9.15564 15.1499 6.8499 12.8442 6.8499 9.9999Z" fill="#1A1A1A"/>
<path d="M4.9999 19.1499C4.53046 19.1499 4.1499 19.5305 4.1499 19.9999C4.1499 20.4693 4.53046 20.8499 4.9999 20.8499H18.9999C19.4693 20.8499 19.8499 20.4693 19.8499 19.9999C19.8499 19.5305 19.4693 19.1499 18.9999 19.1499H4.9999Z" fill="#1A1A1A"/>
</svg>
