<svg width="24" height="24" viewBox="0 0 24 24" fill="none" xmlns="http://www.w3.org/2000/svg">
<path fill-rule="evenodd" clip-rule="evenodd" d="M2.1499 11.4999C2.1499 6.33604 6.33604 2.1499 11.4999 2.1499H12.2745C17.0106 2.1499 20.8499 5.98925 20.8499 10.7253V13.8819C20.8499 15.1955 20.1077 16.3963 18.9328 16.9838L18.8071 17.0466C18.4082 17.2461 17.9684 17.3499 17.5224 17.3499C16.3407 17.3499 15.3256 16.6363 14.8846 15.6165C14.0631 16.3817 12.9612 16.8499 11.7499 16.8499C9.20939 16.8499 7.1499 14.7904 7.1499 12.2499V11.3309C7.1499 8.74564 9.24564 6.6499 11.8309 6.6499C12.8643 6.6499 13.8501 6.99068 14.6499 7.59392V7.4999C14.6499 7.03046 15.0305 6.6499 15.4999 6.6499C15.9693 6.6499 16.3499 7.03046 16.3499 7.4999V14.4774C16.3499 15.1249 16.8749 15.6499 17.5224 15.6499C17.7045 15.6499 17.884 15.6075 18.0468 15.5261L18.1726 15.4632C18.7715 15.1638 19.1499 14.5516 19.1499 13.8819V10.7253C19.1499 6.92814 16.0717 3.8499 12.2745 3.8499H11.4999C7.27492 3.8499 3.8499 7.27492 3.8499 11.4999V11.7499C3.8499 16.113 7.38685 19.6499 11.7499 19.6499H12.7638C14.1024 19.6499 15.4225 19.3383 16.6198 18.7396C17.0397 18.5297 17.5502 18.6999 17.7602 19.1198C17.9701 19.5397 17.7999 20.0502 17.38 20.2602C15.9467 20.9768 14.3663 21.3499 12.7638 21.3499H11.7499C6.44797 21.3499 2.1499 17.0518 2.1499 11.7499V11.4999ZM14.6499 10.2353L14.387 9.79717C13.8483 8.89929 12.878 8.3499 11.8309 8.3499C10.1845 8.3499 8.8499 9.68452 8.8499 11.3309V12.2499C8.8499 13.8515 10.1483 15.1499 11.7499 15.1499C13.3515 15.1499 14.6499 13.8515 14.6499 12.2499V10.2353Z" fill="#1A1A1A"/>
</svg>
