<svg width="24" height="24" viewBox="0 0 24 24" fill="none" xmlns="http://www.w3.org/2000/svg">
<path fill-rule="evenodd" clip-rule="evenodd" d="M7.8999 10.1071C7.8999 7.84271 9.73553 6.00708 11.9999 6.00708C14.2643 6.00708 16.0999 7.84271 16.0999 10.1071C16.0999 12.3714 14.2643 14.2071 11.9999 14.2071C9.73553 14.2071 7.8999 12.3714 7.8999 10.1071ZM11.9999 7.70708C10.6744 7.70708 9.5999 8.7816 9.5999 10.1071C9.5999 11.4326 10.6744 12.5071 11.9999 12.5071C13.3254 12.5071 14.3999 11.4326 14.3999 10.1071C14.3999 8.7816 13.3254 7.70708 11.9999 7.70708Z" fill="#1A1A1A"/>
<path fill-rule="evenodd" clip-rule="evenodd" d="M11.9999 2.1499C6.5599 2.1499 2.1499 6.5599 2.1499 11.9999C2.1499 17.4399 6.5599 21.8499 11.9999 21.8499C17.4399 21.8499 21.8499 17.4399 21.8499 11.9999C21.8499 6.5599 17.4399 2.1499 11.9999 2.1499ZM3.8499 11.9999C3.8499 7.49878 7.49878 3.8499 11.9999 3.8499C16.501 3.8499 20.1499 7.49878 20.1499 11.9999C20.1499 13.845 19.5368 15.5469 18.5032 16.9129C17.3417 15.7363 15.7282 15.0071 13.9443 15.0071H10.0554C8.27154 15.0071 6.658 15.7363 5.49658 16.9128C4.463 15.5468 3.8499 13.8449 3.8499 11.9999ZM6.65883 18.156C8.08922 19.3981 9.95676 20.1499 11.9999 20.1499C14.043 20.1499 15.9105 19.3981 17.3409 18.1561C16.4845 17.263 15.2793 16.7071 13.9443 16.7071H10.0554C8.7204 16.7071 7.51526 17.263 6.65883 18.156Z" fill="#1A1A1A"/>
</svg>
