<svg width="24" height="24" viewBox="0 0 24 24" fill="none" xmlns="http://www.w3.org/2000/svg">
<path d="M15.4006 3.15033C16.3662 3.15033 17.1418 3.14901 17.7678 3.20013C18.4038 3.25211 18.9608 3.36211 19.4749 3.62396C20.2933 4.04102 20.9592 4.70687 21.3762 5.52533C21.6381 6.03939 21.7481 6.59629 21.8 7.23236C21.8512 7.85846 21.8499 8.63392 21.8499 9.59955V14.4003C21.8499 15.3659 21.8512 16.1414 21.8 16.7675C21.7481 17.4036 21.6381 17.9605 21.3762 18.4745C20.9592 19.293 20.2933 19.9589 19.4749 20.3759C18.9608 20.6378 18.4038 20.7478 17.7678 20.7997C17.1418 20.8509 16.3662 20.8495 15.4006 20.8495H10.5413C9.65079 20.8495 9.05395 20.8566 8.48853 20.7089C8.00939 20.5837 7.5555 20.3767 7.14575 20.0986C6.66218 19.7703 6.2732 19.3176 5.68677 18.6474L3.12622 15.7206C2.64486 15.1705 2.25159 14.722 1.95923 14.331C1.66058 13.9316 1.42727 13.5418 1.29419 13.0917C1.0835 12.3792 1.0835 11.6207 1.29419 10.9081C1.42728 10.4582 1.6606 10.0682 1.95923 9.66888C2.25159 9.27794 2.64489 8.82933 3.12622 8.27924L5.68677 5.35248C6.27317 4.6823 6.6622 4.22956 7.14575 3.90131C7.55549 3.62321 8.00941 3.41616 8.48853 3.29095C9.05394 3.14324 9.65081 3.15033 10.5413 3.15033H15.4006ZM10.5413 4.84955C9.56193 4.84955 9.22291 4.85688 8.91821 4.93646C8.62644 5.01275 8.34938 5.13819 8.09985 5.30756C7.8394 5.48442 7.61154 5.73505 6.96704 6.47162L4.40552 9.39838C3.90706 9.96804 3.56473 10.36 3.32056 10.6865C3.08278 11.0044 2.97831 11.2105 2.92505 11.3906C2.80746 11.7884 2.80746 12.2115 2.92505 12.6093C2.9783 12.7894 3.08273 12.9954 3.32056 13.3134C3.56474 13.6399 3.90702 14.0318 4.40552 14.6015L6.96704 17.5283C7.61158 18.2649 7.83939 18.5155 8.09985 18.6923C8.3494 18.8617 8.62642 18.9871 8.91821 19.0634C9.22292 19.143 9.5619 19.1503 10.5413 19.1503H15.4006C16.3944 19.1503 17.0892 19.1496 17.6301 19.1054C18.1609 19.062 18.4689 18.9807 18.7034 18.8613C19.2019 18.6072 19.6075 18.2016 19.8616 17.7031C19.981 17.4686 20.0623 17.1606 20.1057 16.6298C20.1499 16.0889 20.1506 15.3942 20.1506 14.4003V9.59955C20.1506 8.60567 20.1499 7.91097 20.1057 7.37006C20.0623 6.83923 19.981 6.53131 19.8616 6.29681C19.6075 5.79823 19.2019 5.39268 18.7034 5.13861C18.4689 5.01914 18.1609 4.93787 17.6301 4.89447C17.0892 4.85028 16.3944 4.84955 15.4006 4.84955H10.5413ZM15.3997 8.39935C15.7316 8.06753 16.2689 8.06745 16.6008 8.39935C16.9327 8.73126 16.9326 9.26859 16.6008 9.60052L14.2014 11.9999L16.6008 14.3994C16.9327 14.7313 16.9326 15.2686 16.6008 15.6005C16.2689 15.9324 15.7316 15.9324 15.3997 15.6005L13.0002 13.2011L10.6008 15.6005C10.2689 15.9324 9.73161 15.9324 9.39966 15.6005C9.06771 15.2686 9.06771 14.7313 9.39966 14.3994L11.7991 11.9999L9.39966 9.60052C9.06771 9.26858 9.06771 8.7313 9.39966 8.39935C9.73161 8.06753 10.2689 8.06745 10.6008 8.39935L13.0002 10.7988L15.3997 8.39935Z" fill="black"/>
</svg>
