<svg width="24" height="24" viewBox="0 0 24 24" fill="none" xmlns="http://www.w3.org/2000/svg">
<path fill-rule="evenodd" clip-rule="evenodd" d="M16.4281 7.49989L11.8499 4.55677L11.8499 10.4433L16.4281 7.49989ZM10.1499 10.4424L10.1499 3.91568C10.1499 2.84761 11.3315 2.20252 12.2299 2.78009L17.8053 6.36428C18.6319 6.89568 18.632 8.104 17.8054 8.63543L12.5723 11.9999L17.8054 15.3643C18.632 15.8957 18.6319 17.104 17.8053 17.6354L12.2299 21.2196C11.3315 21.7972 10.1499 21.1521 10.1499 20.084L10.1499 13.5573L6.45956 15.9298C6.06469 16.1837 5.53878 16.0694 5.28491 15.6745C5.03104 15.2797 5.14534 14.7537 5.54022 14.4999L9.42877 11.9999L5.54022 9.49983C5.14534 9.24596 5.03104 8.72005 5.28491 8.32518C5.53878 7.9303 6.06469 7.816 6.45956 8.06987L10.1499 10.4424ZM11.8499 13.5564L11.8499 19.4429L16.4281 16.4998L11.8499 13.5564Z" fill="#1A1A1A"/>
</svg>
