<svg width="24" height="24" viewBox="0 0 24 24" fill="none" xmlns="http://www.w3.org/2000/svg">
<path fill-rule="evenodd" clip-rule="evenodd" d="M11.3166 7.55585C8.6875 9.85326 6.04793 13.0992 4.74944 15.5319C4.52838 15.946 4.01346 16.1025 3.59932 15.8815C3.18518 15.6604 3.02866 15.1455 3.24972 14.7313C4.66137 12.0867 7.4421 8.68394 10.198 6.27573C11.5731 5.07414 12.9986 4.06965 14.293 3.54678C15.5501 3.03899 17.0066 2.8748 18.0248 3.94289C18.432 4.3701 18.6799 4.86192 18.7683 5.40326C18.8546 5.93193 18.7807 6.45683 18.6294 6.95224C18.335 7.91668 17.691 8.93564 17.0126 9.93135C16.8116 10.2264 16.6052 10.5232 16.3974 10.822C15.3771 12.2894 14.3224 13.8062 13.6932 15.4128C14.2878 15.1624 15.1337 14.7743 16.3238 14.2033C16.8042 13.9728 17.2846 13.8029 17.7224 13.8177C17.963 13.8258 18.2339 13.8912 18.4723 14.0748C18.7129 14.26 18.8406 14.5039 18.9025 14.7243C19.0124 15.1154 18.9447 15.5367 18.8788 15.8341C18.8058 16.1638 18.6902 16.5205 18.5788 16.8482C18.5421 16.9559 18.5061 17.0599 18.4711 17.1612C18.3938 17.3847 18.3212 17.5947 18.2566 17.8006C18.2356 17.8676 18.2167 17.9305 18.1998 17.9894C19.262 17.6436 19.849 17.3181 20.293 17.0719C20.4065 17.009 20.5106 16.9512 20.611 16.8997C21.0285 16.685 21.5409 16.8495 21.7555 17.267C21.9702 17.6845 21.8057 18.1969 21.3882 18.4116C21.3122 18.4506 21.2255 18.4989 21.125 18.5549C20.6229 18.8344 19.7795 19.304 18.2385 19.7566C17.8702 19.8648 17.2706 19.9609 16.8046 19.5432C16.3621 19.1466 16.3774 18.5765 16.4033 18.3045C16.4348 17.9737 16.5338 17.6131 16.6345 17.292C16.7067 17.0615 16.7927 16.8129 16.8738 16.5783C16.9069 16.4828 16.9391 16.3895 16.9693 16.3007C17.0465 16.0739 17.1129 15.8689 17.1634 15.6874C17.1302 15.7024 17.0955 15.7186 17.0592 15.736C15.1972 16.6294 14.0616 17.1331 13.3981 17.3421C13.2273 17.396 13.0592 17.4397 12.901 17.462C12.7603 17.4818 12.5334 17.4995 12.2969 17.4178C11.9952 17.3135 11.7564 17.0733 11.6686 16.7479C11.6011 16.4974 11.6461 16.275 11.6718 16.1693C12.2507 13.7887 13.7795 11.599 15.0313 9.80616C15.2322 9.5183 15.4261 9.24066 15.6077 8.9741C16.2968 7.96277 16.7944 7.14085 17.0036 6.45577C17.1041 6.12642 17.1227 5.87441 17.0905 5.67716C17.0603 5.49257 16.9788 5.30946 16.7943 5.11588C16.5278 4.83632 16.0044 4.68893 14.9297 5.12304C13.8924 5.54209 12.6341 6.40463 11.3166 7.55585ZM17.6382 18.1515C17.6385 18.1511 17.6447 18.1502 17.6557 18.1502C17.6433 18.152 17.6378 18.152 17.6382 18.1515ZM18.0921 18.5295C18.0942 18.5424 18.0942 18.55 18.0937 18.5506C18.0932 18.5511 18.0921 18.5446 18.0921 18.5295ZM12.6523 15.7797C12.6524 15.7796 12.6557 15.7792 12.6619 15.7789C12.6552 15.7797 12.6521 15.7799 12.6523 15.7797Z" fill="#1A1A1A"/>
</svg>
