<svg width="24" height="24" viewBox="0 0 24 24" fill="none" xmlns="http://www.w3.org/2000/svg">
<path d="M4.60094 3.39898C4.269 3.06704 3.73081 3.06704 3.39886 3.39898C3.06692 3.73093 3.06692 4.26912 3.39886 4.60107L19.3989 20.6011C19.7308 20.933 20.269 20.933 20.6009 20.6011C20.9329 20.2691 20.9329 19.7309 20.6009 19.399L4.60094 3.39898Z" fill="#1A1A1A"/>
<path d="M2.64966 9.25002C2.64966 8.16771 2.94358 7.15405 3.45595 6.2845L4.71543 7.54398C4.48045 8.06438 4.34966 8.64193 4.34966 9.25002V14.75C4.34966 17.042 6.20768 18.9 8.49966 18.9H15.4997C15.6818 18.9 15.8611 18.8883 16.037 18.8656L17.4415 20.27C16.8339 20.4838 16.1803 20.6 15.4997 20.6H8.49966C5.26879 20.6 2.64966 17.9809 2.64966 14.75V9.25002Z" fill="#1A1A1A"/>
<path d="M6.14966 10C6.14966 9.72149 6.28363 9.47424 6.49066 9.31921L8.02148 10.85H6.99966C6.53022 10.85 6.14966 10.4695 6.14966 10Z" fill="#1A1A1A"/>
<path d="M13.5089 10.6806C13.7158 10.5256 13.8497 10.2784 13.8497 10C13.8497 9.53058 13.4691 9.15002 12.9997 9.15002H11.9783L13.5089 10.6806Z" fill="#1A1A1A"/>
<path d="M19.6497 14.75C19.6497 15.358 19.5189 15.9354 19.284 16.4557L20.5436 17.7152C21.0558 16.8458 21.3497 15.8322 21.3497 14.75V9.25002C21.3497 6.01916 18.7305 3.40002 15.4997 3.40002H8.49966C7.81911 3.40002 7.1657 3.51623 6.5582 3.72989L7.96274 5.13444C8.1385 5.11173 8.31771 5.10002 8.49966 5.10002H15.4997C17.7916 5.10002 19.6497 6.95804 19.6497 9.25002V14.75Z" fill="#1A1A1A"/>
<path d="M6.99966 13.15H10.3215L12.0215 14.85H6.99966C6.53022 14.85 6.14966 14.4695 6.14966 14C6.14966 13.5306 6.53022 13.15 6.99966 13.15Z" fill="#1A1A1A"/>
</svg>
