<svg width="24" height="24" viewBox="0 0 24 24" fill="none" xmlns="http://www.w3.org/2000/svg">
<path d="M6.99988 9C6.99988 9.55228 7.44759 10 7.99988 10C8.55216 10 8.99988 9.55228 8.99988 9C8.99988 8.44772 8.55216 8 7.99988 8C7.44759 8 6.99988 8.44772 6.99988 9Z" fill="#1A1A1A"/>
<path d="M6.99988 12.5C6.99988 13.0523 7.44759 13.5 7.99988 13.5C8.55216 13.5 8.99988 13.0523 8.99988 12.5C8.99988 11.9477 8.55216 11.5 7.99988 11.5C7.44759 11.5 6.99988 11.9477 6.99988 12.5Z" fill="#1A1A1A"/>
<path d="M6.99988 16C6.99988 15.4477 7.44759 15 7.99988 15C8.55216 15 8.99988 15.4477 8.99988 16C8.99988 16.5523 8.55216 17 7.99988 17C7.44759 17 6.99988 16.5523 6.99988 16Z" fill="#1A1A1A"/>
<path d="M10.9999 9C10.9999 9.55228 11.4476 10 11.9999 10C12.5522 10 12.9999 9.55228 12.9999 9C12.9999 8.44772 12.5522 8 11.9999 8C11.4476 8 10.9999 8.44772 10.9999 9Z" fill="#1A1A1A"/>
<path d="M10.9999 12.5C10.9999 11.9477 11.4476 11.5 11.9999 11.5C12.5522 11.5 12.9999 11.9477 12.9999 12.5C12.9999 13.0523 12.5522 13.5 11.9999 13.5C11.4476 13.5 10.9999 13.0523 10.9999 12.5Z" fill="#1A1A1A"/>
<path d="M10.9999 16C10.9999 16.5523 11.4476 17 11.9999 17C12.5522 17 12.9999 16.5523 12.9999 16C12.9999 15.4477 12.5522 15 11.9999 15C11.4476 15 10.9999 15.4477 10.9999 16Z" fill="#1A1A1A"/>
<path d="M14.9999 9C14.9999 8.44772 15.4476 8 15.9999 8C16.5522 8 16.9999 8.44772 16.9999 9C16.9999 9.55228 16.5522 10 15.9999 10C15.4476 10 14.9999 9.55228 14.9999 9Z" fill="#1A1A1A"/>
<path d="M14.9999 12.5C14.9999 13.0523 15.4476 13.5 15.9999 13.5C16.5522 13.5 16.9999 13.0523 16.9999 12.5C16.9999 11.9477 16.5522 11.5 15.9999 11.5C15.4476 11.5 14.9999 11.9477 14.9999 12.5Z" fill="#1A1A1A"/>
<path d="M14.9999 16C14.9999 15.4477 15.4476 15 15.9999 15C16.5522 15 16.9999 15.4477 16.9999 16C16.9999 16.5523 16.5522 17 15.9999 17C15.4476 17 14.9999 16.5523 14.9999 16Z" fill="#1A1A1A"/>
<path fill-rule="evenodd" clip-rule="evenodd" d="M9.3499 3.00039C9.3499 2.53095 8.96935 2.15039 8.4999 2.15039C8.03046 2.15039 7.6499 2.53095 7.6499 3.00039V4.65039C6.8922 4.65048 6.26995 4.65245 5.76029 4.69409C5.20747 4.73925 4.71271 4.8353 4.25204 5.07002C3.52762 5.43913 2.93864 6.0281 2.56953 6.75253C2.33481 7.21319 2.23877 7.70796 2.1936 8.26078C2.14989 8.7958 2.14989 9.45489 2.1499 10.2645V14.7363C2.14989 15.5459 2.14989 16.205 2.1936 16.74C2.23877 17.2928 2.33481 17.7876 2.56953 18.2483C2.93864 18.9727 3.52762 19.5617 4.25204 19.9308C4.71271 20.1655 5.20747 20.2615 5.76029 20.3067C6.29529 20.3504 6.95435 20.3504 7.76392 20.3504H16.2358C17.0454 20.3504 17.7045 20.3504 18.2395 20.3067C18.7923 20.2615 19.2871 20.1655 19.7478 19.9308C20.4722 19.5617 21.0612 18.9727 21.4303 18.2483C21.665 17.7876 21.761 17.2928 21.8062 16.74C21.8499 16.205 21.8499 15.5458 21.8499 14.7362V10.2646C21.8499 9.45493 21.8499 8.79581 21.8062 8.26078C21.761 7.70796 21.665 7.21319 21.4303 6.75253C21.0612 6.0281 20.4722 5.43913 19.7478 5.07002C19.2871 4.8353 18.7923 4.73925 18.2395 4.69409C17.7299 4.65245 17.1076 4.65048 16.3499 4.65039V3.00039C16.3499 2.53095 15.9693 2.15039 15.4999 2.15039C15.0305 2.15039 14.6499 2.53095 14.6499 3.00039V4.65039H9.3499V3.00039ZM5.02382 6.58473C5.20489 6.49247 5.45103 6.42502 5.89873 6.38844C6.35634 6.35105 6.9458 6.35039 7.7999 6.35039H16.1999C17.054 6.35039 17.6435 6.35105 18.1011 6.38844C18.5488 6.42502 18.7949 6.49247 18.976 6.58473C19.3805 6.79085 19.7094 7.11976 19.9156 7.52431C20.0078 7.70538 20.0753 7.95152 20.1119 8.39921C20.1492 8.85683 20.1499 9.44629 20.1499 10.3004V14.7004C20.1499 15.5545 20.1492 16.144 20.1119 16.6016C20.0753 17.0493 20.0078 17.2954 19.9156 17.4765C19.7094 17.881 19.3805 18.2099 18.976 18.4161C18.7949 18.5083 18.5488 18.5758 18.1011 18.6123C17.6435 18.6497 17.054 18.6504 16.1999 18.6504H7.7999C6.9458 18.6504 6.35634 18.6497 5.89873 18.6123C5.45103 18.5758 5.20489 18.5083 5.02382 18.4161C4.61928 18.2099 4.29037 17.881 4.08424 17.4765C3.99198 17.2954 3.92453 17.0493 3.88795 16.6016C3.85056 16.144 3.8499 15.5545 3.8499 14.7004V10.3004C3.8499 9.44629 3.85056 8.85683 3.88795 8.39921C3.92453 7.95152 3.99198 7.70538 4.08424 7.52431C4.29037 7.11976 4.61928 6.79085 5.02382 6.58473Z" fill="#1A1A1A"/>
</svg>
