<svg width="24" height="24" viewBox="0 0 24 24" fill="none" xmlns="http://www.w3.org/2000/svg">
<path d="M8.31188 10.1518C8.42317 10.0405 8.60359 10.0405 8.71488 10.1518L10.4016 11.8385C10.5811 12.018 10.454 12.325 10.2001 12.325H9.40156C9.44022 12.8427 9.60492 13.3445 9.88284 13.7858C10.2031 14.2944 10.6605 14.702 11.2024 14.9617C11.7444 15.2214 12.3487 15.3225 12.9457 15.2535C13.5426 15.1845 14.1079 14.9481 14.5763 14.5716C14.9422 14.2775 15.4772 14.3357 15.7713 14.7016C16.0654 15.0675 16.0073 15.6025 15.6414 15.8966C14.9231 16.4739 14.0563 16.8364 13.1409 16.9423C12.2255 17.0481 11.2988 16.893 10.4678 16.4947C9.6368 16.0965 8.93531 15.4715 8.44428 14.6917C7.9955 13.979 7.73925 13.1636 7.69848 12.325H6.82667C6.5728 12.325 6.44566 12.018 6.62517 11.8385L8.31188 10.1518Z" fill="#1A1A1A"/>
<path d="M16.3138 14.024C16.2025 14.1352 16.022 14.1352 15.9108 14.024L14.224 12.3372C14.0445 12.1577 14.1717 11.8508 14.4255 11.8508H15.2622C15.2622 11.2051 15.0796 10.5726 14.7356 10.0263C14.3915 9.47986 13.8999 9.04186 13.3176 8.76282C12.7353 8.48378 12.086 8.37506 11.4445 8.44922C10.8031 8.52338 10.1957 8.77739 9.69238 9.18194C9.32649 9.47605 8.79145 9.41787 8.49734 9.05198C8.20323 8.68609 8.26142 8.15105 8.62731 7.85694C9.38044 7.25156 10.2894 6.87145 11.2493 6.76047C12.2092 6.6495 13.1809 6.81218 14.0523 7.22975C14.9237 7.64731 15.6592 8.30275 16.1741 9.12042C16.689 9.93805 16.9622 10.8846 16.9622 11.8508H17.799C18.0528 11.8508 18.18 12.1577 18.0005 12.3372L16.3138 14.024Z" fill="#1A1A1A"/>
<path fill-rule="evenodd" clip-rule="evenodd" d="M6.73374 3.58458C7.27741 2.69494 8.24488 2.15234 9.28749 2.15234H14.8839C15.9265 2.15234 16.894 2.69493 17.4377 3.58458L18.1338 4.72377H18.9428C20.8324 4.72377 22.3643 6.2556 22.3643 8.1452V16.7166C22.3643 18.6062 20.8324 20.1381 18.9428 20.1381H5.22856C3.33896 20.1381 1.80713 18.6062 1.80713 16.7166V8.1452C1.80713 6.2556 3.33896 4.72377 5.22856 4.72377H6.03756L6.73374 3.58458ZM9.28749 3.85234C8.8371 3.85234 8.41917 4.08673 8.18432 4.47104L7.23956 6.017C7.08515 6.26967 6.81038 6.42377 6.51427 6.42377H5.22856C4.27784 6.42377 3.50713 7.19448 3.50713 8.1452V16.7166C3.50713 17.6673 4.27784 18.4381 5.22856 18.4381H18.9428C19.8936 18.4381 20.6643 17.6673 20.6643 16.7166V8.1452C20.6643 7.19448 19.8936 6.42377 18.9428 6.42377H17.6571C17.361 6.42377 17.0862 6.26967 16.9318 6.017L15.9871 4.47104C15.7522 4.08673 15.3343 3.85234 14.8839 3.85234H9.28749Z" fill="#1A1A1A"/>
</svg>
