<svg width="24" height="24" viewBox="0 0 24 24" fill="none" xmlns="http://www.w3.org/2000/svg">
<path fill-rule="evenodd" clip-rule="evenodd" d="M11.9999 1.65039C10.1497 1.65039 8.6499 3.15024 8.6499 5.00039C8.6499 6.85054 10.1497 8.35039 11.9999 8.35039C13.8501 8.35039 15.3499 6.85054 15.3499 5.00039C15.3499 3.15024 13.8501 1.65039 11.9999 1.65039ZM10.3499 5.00039C10.3499 4.08912 11.0886 3.35039 11.9999 3.35039C12.9112 3.35039 13.6499 4.08912 13.6499 5.00039C13.6499 5.91166 12.9112 6.65039 11.9999 6.65039C11.0886 6.65039 10.3499 5.91166 10.3499 5.00039Z" fill="#1A1A1A"/>
<path fill-rule="evenodd" clip-rule="evenodd" d="M5.97616 10.1827C7.69389 8.58771 10.3422 8.63716 11.9999 10.239C13.6577 8.63716 16.3059 8.58771 18.0237 10.1827C19.627 11.6715 19.8866 14.1148 18.6319 15.9072L18.5612 16.0082C18.1236 16.6333 17.6323 17.2189 17.0927 17.7585L13.0959 21.7553C12.4906 22.3606 11.5092 22.3606 10.9039 21.7553L6.90708 17.7585C6.36756 17.2189 5.87622 16.6333 5.43866 16.0082L5.36797 15.9072C4.11327 14.1148 4.37285 11.6715 5.97616 10.1827ZM7.13293 11.4285C8.23523 10.4049 9.96359 10.4878 10.963 11.612L11.9999 12.7786L13.0369 11.612C14.0362 10.4878 15.7646 10.4049 16.8669 11.4285C17.8483 12.3398 18.0071 13.8352 17.2392 14.9323L17.1685 15.0333C16.7877 15.5773 16.3602 16.0869 15.8907 16.5564L11.9999 20.4471L8.10917 16.5564C7.63968 16.0869 7.21211 15.5773 6.83136 15.0333L6.76067 14.9323C5.99269 13.8352 6.15157 12.3398 7.13293 11.4285Z" fill="#1A1A1A"/>
</svg>
