<svg width="24" height="24" viewBox="0 0 24 24" fill="none" xmlns="http://www.w3.org/2000/svg">
<path fill-rule="evenodd" clip-rule="evenodd" d="M11.9999 21.8496C6.5599 21.8496 2.1499 17.4396 2.1499 11.9996C2.1499 6.5596 6.5599 2.14961 11.9999 2.14961C17.4399 2.14961 21.8499 6.5596 21.8499 11.9996C21.8499 17.4396 17.4399 21.8496 11.9999 21.8496ZM12.85 8C12.85 7.53056 12.4694 7.15 12 7.15C11.5306 7.15 11.15 7.53056 11.15 8V12C11.15 12.4694 11.5306 12.85 12 12.85C12.4694 12.85 12.85 12.4694 12.85 12V8ZM12 14.15C12.4694 14.15 12.85 14.5306 12.85 15V15.0001C12.85 15.4695 12.4694 15.8501 12 15.8501C11.5306 15.8501 11.15 15.4695 11.15 15.0001V15C11.15 14.5306 11.5306 14.15 12 14.15Z" fill="#1A1A1A"/>
</svg>
