<svg width="24" height="24" viewBox="0 0 24 24" fill="none" xmlns="http://www.w3.org/2000/svg">
<path d="M8.95096 3.7797C8.55287 3.5309 8.02847 3.65192 7.77967 4.05001C7.53086 4.4481 7.65189 4.97251 8.04997 5.22131L9.7693 6.29587C8.06171 6.52211 6.45696 7.00758 5.12421 7.72579C3.37152 8.67031 2.09622 10.0206 1.74489 11.6279C1.38434 13.2774 2.06638 14.8634 3.42915 16.0958C4.77866 17.3162 6.75924 18.1734 8.98529 18.5805C11.2198 18.9892 13.6277 18.9319 15.8024 18.4153C17.9663 17.9013 19.8375 16.9462 21.0273 15.6426C22.2415 14.3124 22.6807 12.673 22.091 11.065C21.5222 9.51394 20.0892 8.2516 18.2237 7.40251C17.7964 7.20803 17.2924 7.39675 17.0979 7.82402C16.9035 8.25128 17.0922 8.7553 17.5195 8.94977C19.1513 9.6925 20.1399 10.682 20.495 11.6503C20.8292 12.5618 20.636 13.5496 19.7717 14.4965C18.8831 15.4701 17.3615 16.2977 15.4096 16.7613C13.4685 17.2224 11.2987 17.2755 9.29116 16.9083C7.27519 16.5395 5.61851 15.7837 4.56939 14.8349C3.53355 13.8982 3.20771 12.8966 3.40568 11.9909C3.61286 11.043 4.42706 10.0326 5.93068 9.22232C7.20489 8.53566 8.83194 8.07454 10.5985 7.91342L8.85518 9.94732C8.54967 10.3038 8.59095 10.8404 8.94738 11.1459C9.30381 11.4514 9.84041 11.4101 10.1459 11.0537L11.9558 8.94213C12.1468 8.71931 12.3239 8.51275 12.4562 8.32852C12.5979 8.13107 12.7416 7.8888 12.8006 7.58607C12.8825 7.16527 12.8158 6.72906 12.6118 6.35201C12.465 6.08074 12.2555 5.89252 12.0612 5.74647C11.8799 5.6102 11.6492 5.46603 11.4003 5.31049L8.95096 3.7797Z" fill="#1A1A1A"/>
</svg>
