<svg width="24" height="24" viewBox="0 0 24 24" fill="none" xmlns="http://www.w3.org/2000/svg">
<path d="M12.5957 2.37899C12.7011 2.18031 12.9857 2.18031 13.091 2.37899L14.5916 5.20922L17.4218 6.70975C17.6205 6.81508 17.6205 7.09972 17.4218 7.20506L14.5916 8.70559L13.091 11.5358C12.9857 11.7345 12.7011 11.7345 12.5957 11.5358L11.0952 8.70559L8.26497 7.20506C8.0663 7.09972 8.0663 6.81508 8.26497 6.70975L11.0952 5.20922L12.5957 2.37899Z" fill="#1A1A1A"/>
<path d="M16.5195 13.5914C16.6248 13.3927 16.9095 13.3927 17.0148 13.5914L18.3211 16.0552L20.785 17.3615C20.9836 17.4669 20.9836 17.7515 20.785 17.8568L18.3211 19.1631L17.0148 21.627C16.9095 21.8257 16.6248 21.8257 16.5195 21.627L15.2132 19.1631L12.7493 17.8568C12.5507 17.7515 12.5507 17.4669 12.7493 17.3615L15.2132 16.0552L16.5195 13.5914Z" fill="#1A1A1A"/>
<path d="M6.42861 10.7882C6.53394 10.5895 6.81858 10.5895 6.92392 10.7882L8.03596 12.8857L10.1335 13.9977C10.3321 14.103 10.3321 14.3877 10.1335 14.493L8.03596 15.6051L6.92392 17.7025C6.81858 17.9012 6.53394 17.9012 6.42861 17.7025L5.31656 15.6051L3.21907 14.493C3.0204 14.3877 3.0204 14.103 3.21907 13.9977L5.31656 12.8857L6.42861 10.7882Z" fill="#1A1A1A"/>
</svg>
