<svg width="24" height="24" viewBox="0 0 24 24" fill="none" xmlns="http://www.w3.org/2000/svg">
<path d="M17.1499 7.94811L16.1009 6.89915C15.7689 6.56721 15.2308 6.56721 14.8988 6.89915C14.5669 7.2311 14.5669 7.76929 14.8988 8.10124L16.6917 9.89413C17.4142 10.6166 18.5855 10.6166 19.308 9.89413L21.1009 8.10124C21.4328 7.76929 21.4328 7.2311 21.1009 6.89915C20.7689 6.56721 20.2308 6.56721 19.8988 6.89915L18.8499 7.94811V6.99941C18.8499 4.87312 17.1262 3.14941 14.9999 3.14941H13.4999C13.0304 3.14941 12.6499 3.52997 12.6499 3.99941C12.6499 4.46886 13.0304 4.84941 13.4999 4.84941H14.9999C16.1873 4.84941 17.1499 5.812 17.1499 6.99941V7.94811Z" fill="#1A1A1A"/>
<path fill-rule="evenodd" clip-rule="evenodd" d="M7.33369 3.1502H7.16612C6.63485 3.15018 6.18545 3.15017 5.81709 3.18027C5.43102 3.21181 5.05974 3.2806 4.70603 3.46083C4.16977 3.73407 3.73377 4.17006 3.46054 4.70632C3.28031 5.06003 3.21152 5.43131 3.17997 5.81738C3.14988 6.18575 3.14989 6.63514 3.1499 7.16641V7.33398C3.14989 7.86525 3.14988 8.31465 3.17997 8.68301C3.21152 9.06908 3.28031 9.44036 3.46054 9.79407C3.73377 10.3303 4.16977 10.7663 4.70603 11.0396C5.05974 11.2198 5.43102 11.2886 5.81709 11.3201C6.18544 11.3502 6.63482 11.3502 7.16606 11.3502H7.3337C7.86494 11.3502 8.31437 11.3502 8.68272 11.3201C9.06879 11.2886 9.44007 11.2198 9.79378 11.0396C10.33 10.7663 10.766 10.3303 11.0393 9.79407C11.2195 9.44036 11.2883 9.06908 11.3198 8.68301C11.3499 8.31466 11.3499 7.86528 11.3499 7.33404V7.1664C11.3499 6.63516 11.3499 6.18573 11.3198 5.81738C11.2883 5.43131 11.2195 5.06003 11.0393 4.70632C10.766 4.17006 10.33 3.73407 9.79378 3.46083C9.44007 3.2806 9.06879 3.21181 8.68272 3.18027C8.31435 3.15017 7.86495 3.15018 7.33369 3.1502ZM5.47781 4.97554C5.55193 4.93778 5.67459 4.89758 5.95552 4.87462C6.24639 4.85086 6.62583 4.8502 7.1999 4.8502H7.2999C7.87398 4.8502 8.25342 4.85086 8.54428 4.87462C8.82522 4.89758 8.94788 4.93778 9.02199 4.97554C9.23838 5.08579 9.41431 5.26172 9.52456 5.47811C9.56232 5.55222 9.60252 5.67488 9.62548 5.95582C9.64924 6.24668 9.6499 6.62612 9.6499 7.2002V7.3002C9.6499 7.87427 9.64924 8.25371 9.62548 8.54458C9.60252 8.82551 9.56232 8.94817 9.52456 9.02229C9.41431 9.23867 9.23838 9.4146 9.02199 9.52485C8.94788 9.56262 8.82522 9.60282 8.54428 9.62577C8.25342 9.64954 7.87398 9.6502 7.2999 9.6502H7.1999C6.62583 9.6502 6.24639 9.64954 5.95552 9.62577C5.67459 9.60282 5.55193 9.56262 5.47781 9.52485C5.26143 9.4146 5.0855 9.23867 4.97525 9.02229C4.93748 8.94817 4.89728 8.82551 4.87433 8.54458C4.85056 8.25371 4.8499 7.87427 4.8499 7.3002V7.2002C4.8499 6.62612 4.85056 6.24668 4.87433 5.95582C4.89728 5.67488 4.93748 5.55222 4.97525 5.47811C5.0855 5.26172 5.26143 5.08579 5.47781 4.97554Z" fill="#1A1A1A"/>
<path fill-rule="evenodd" clip-rule="evenodd" d="M16.8337 12.6502H16.6661C16.1349 12.6502 15.6854 12.6502 15.3171 12.6803C14.931 12.7118 14.5597 12.7806 14.206 12.9608C13.6698 13.2341 13.2338 13.6701 12.9605 14.2063C12.7803 14.56 12.7115 14.9313 12.68 15.3174C12.6499 15.6857 12.6499 16.1351 12.6499 16.6664V16.834C12.6499 17.3652 12.6499 17.8147 12.68 18.183C12.7115 18.5691 12.7803 18.9404 12.9605 19.2941C13.2338 19.8303 13.6698 20.2663 14.206 20.5396C14.5597 20.7198 14.931 20.7886 15.3171 20.8201C15.6855 20.8502 16.1348 20.8502 16.6661 20.8502H16.8337C17.365 20.8502 17.8144 20.8502 18.1827 20.8201C18.5688 20.7886 18.9401 20.7198 19.2938 20.5396C19.83 20.2663 20.266 19.8303 20.5393 19.2941C20.7195 18.9404 20.7883 18.5691 20.8198 18.183C20.8499 17.8146 20.8499 17.3653 20.8499 16.834V16.6664C20.8499 16.1351 20.8499 15.6857 20.8198 15.3174C20.7883 14.9313 20.7195 14.56 20.5393 14.2063C20.266 13.6701 19.83 13.2341 19.2938 12.9608C18.9401 12.7806 18.5688 12.7118 18.1827 12.6803C17.8144 12.6502 17.3649 12.6502 16.8337 12.6502ZM14.9778 14.4755C15.0519 14.4378 15.1746 14.3976 15.4555 14.3746C15.7464 14.3509 16.1258 14.3502 16.6999 14.3502H16.7999C17.374 14.3502 17.7534 14.3509 18.0443 14.3746C18.3252 14.3976 18.4479 14.4378 18.522 14.4755C18.7384 14.5858 18.9143 14.7617 19.0246 14.9781C19.0623 15.0522 19.1025 15.1749 19.1255 15.4558C19.1492 15.7467 19.1499 16.1261 19.1499 16.7002V16.8002C19.1499 17.3743 19.1492 17.7537 19.1255 18.0446C19.1025 18.3255 19.0623 18.4482 19.0246 18.5223C18.9143 18.7387 18.7384 18.9146 18.522 19.0249C18.4479 19.0626 18.3252 19.1028 18.0443 19.1258C17.7534 19.1495 17.374 19.1502 16.7999 19.1502H16.6999C16.1258 19.1502 15.7464 19.1495 15.4555 19.1258C15.1746 19.1028 15.0519 19.0626 14.9778 19.0249C14.7614 18.9146 14.5855 18.7387 14.4752 18.5223C14.4375 18.4482 14.3973 18.3255 14.3743 18.0446C14.3506 17.7537 14.3499 17.3743 14.3499 16.8002V16.7002C14.3499 16.1261 14.3506 15.7467 14.3743 15.4558C14.3973 15.1749 14.4375 15.0522 14.4752 14.9781C14.5855 14.7617 14.7614 14.5858 14.9778 14.4755Z" fill="#1A1A1A"/>
<path d="M6.8499 16.0515L7.89886 17.1005C8.23081 17.4324 8.769 17.4324 9.10094 17.1005C9.43289 16.7685 9.43289 16.2303 9.10094 15.8984L7.30805 14.1055C6.58558 13.383 5.41422 13.383 4.69175 14.1055L2.89886 15.8984C2.56692 16.2303 2.56692 16.7685 2.89886 17.1005C3.23081 17.4324 3.769 17.4324 4.10094 17.1005L5.1499 16.0515V17.0002C5.1499 19.1265 6.87361 20.8502 8.9999 20.8502H10.4999C10.9693 20.8502 11.3499 20.4696 11.3499 20.0002C11.3499 19.5308 10.9693 19.1502 10.4999 19.1502H8.9999C7.81249 19.1502 6.8499 18.1876 6.8499 17.0002V16.0515Z" fill="#1A1A1A"/>
</svg>
