<svg width="24" height="24" viewBox="0 0 24 24" fill="none" xmlns="http://www.w3.org/2000/svg">
<path d="M17.5329 2.92265C16.1113 2.05455 14.4031 1.78672 12.784 2.1781C11.165 2.56947 9.76769 3.58799 8.89958 5.00958C8.65492 5.41023 8.1318 5.53668 7.73115 5.29202C7.33051 5.04737 7.20405 4.52424 7.44871 4.12359C8.55179 2.31721 10.3273 1.023 12.3846 0.525689C14.4419 0.0283779 16.6125 0.368698 18.4189 1.47178C20.2253 2.57487 21.5195 4.35036 22.0168 6.40767C22.5141 8.46497 22.1738 10.6356 21.0707 12.442C20.826 12.8426 20.3029 12.9691 19.9023 12.7244C19.5016 12.4798 19.3752 11.9566 19.6198 11.556C20.4879 10.1344 20.7558 8.42616 20.3644 6.8071C19.973 5.18804 18.9545 3.79076 17.5329 2.92265Z" fill="#1A1A1A"/>
<path fill-rule="evenodd" clip-rule="evenodd" d="M7.21066 5.61803L10.1305 9.90512C10.4786 9.79606 10.8693 9.82779 11.2094 10.0241L14.2648 11.7882C14.7076 12.0438 14.9521 12.5138 14.9396 12.9934L19.8429 13.3585C20.2613 13.3896 20.5804 13.7298 20.5198 14.145C20.4114 14.8882 20.1018 16.1439 19.2251 17.6625C18.3384 19.1983 17.3389 20.1936 16.7085 20.7275C16.3698 21.0144 15.8793 20.9176 15.6294 20.5507L13.0835 16.8126L10.8552 21.5066C10.1414 23.01 8.29681 23.5846 6.85556 22.7525L5.42225 21.925C3.97656 21.0903 3.55455 19.1974 4.50879 17.8277L7.72691 13.2084L3.08872 12.8631C2.64603 12.8301 2.31695 12.4537 2.39606 12.0169C2.54326 11.2041 2.90549 9.84084 3.79218 8.30504C4.66891 6.78651 5.60159 5.89048 6.19101 5.42499C6.52031 5.16494 6.97446 5.27122 7.21066 5.61803ZM6.41754 8.00643L8.52712 11.1039L8.43937 11.2559L4.74404 10.9808C4.92396 10.4802 5.17483 9.91023 5.52423 9.30504C5.82705 8.78055 6.13325 8.35196 6.41754 8.00643ZM12.1526 14.9123L12.1386 14.9366L9.62395 13.365L10.6558 11.6675L13.122 13.0913L12.1526 14.9123ZM8.69677 14.7902L5.90367 18.7994C5.51862 19.3521 5.6889 20.1159 6.27225 20.4527L7.70556 21.2802C8.28711 21.616 9.03144 21.3841 9.31943 20.7775L11.369 16.4603L8.69677 14.7902ZM14.2681 14.6482L18.5827 14.9694C18.4171 15.4845 18.1582 16.1104 17.7528 16.8125C17.3043 17.5893 16.8251 18.2021 16.4016 18.6644L13.992 15.1265L14.2681 14.6482Z" fill="#1A1A1A"/>
<path d="M11.9149 6.59748C12.4413 6.90143 13.1145 6.72105 13.4185 6.19458C13.7224 5.66811 13.5421 4.99492 13.0156 4.69096C12.4891 4.387 11.8159 4.56738 11.512 5.09385C11.208 5.62032 11.3884 6.29352 11.9149 6.59748Z" fill="#1A1A1A"/>
</svg>
