<svg width="24" height="24" viewBox="0 0 24 24" fill="none" xmlns="http://www.w3.org/2000/svg">
<path fill-rule="evenodd" clip-rule="evenodd" d="M8.64481 3.65876C9.10942 3.72595 9.43159 4.15706 9.36441 4.62166L9.03071 6.92927H16.2877L16.6587 4.3777C16.7263 3.91315 17.1577 3.59131 17.6222 3.65886C18.0868 3.72641 18.4086 4.15777 18.3411 4.62232L18.0056 6.92927H21.4999C21.9693 6.92927 22.3499 7.30983 22.3499 7.77927C22.3499 8.24871 21.9693 8.62927 21.4999 8.62927H17.7584L16.7376 15.6499H20.4999C20.9693 15.6499 21.3499 16.0305 21.3499 16.4999C21.3499 16.9693 20.9693 17.3499 20.4999 17.3499H16.4999C16.4967 17.3499 16.4935 17.3499 16.4904 17.3498L16.1599 19.6223C16.109 19.9727 15.8462 20.2548 15.5002 20.3304C15.1543 20.406 14.7978 20.2592 14.6053 19.962C13.9601 18.9657 12.3645 17.4914 10.1597 16.2613C9.43619 15.8576 8.6577 15.4862 7.83902 15.17L7.19527 19.6217C7.12809 20.0863 6.69698 20.4084 6.23237 20.3413C5.76776 20.2741 5.44559 19.843 5.51278 19.3784L6.19935 14.6306C5.01123 14.3075 3.7653 14.1164 2.4999 14.1164C2.03046 14.1164 1.6499 13.7359 1.6499 13.2664C1.6499 12.797 2.03046 12.4164 2.4999 12.4164C3.85869 12.4164 5.18512 12.6102 6.4443 12.9367L7.06719 8.62927H3.4999C3.03046 8.62927 2.6499 8.24871 2.6499 7.77927C2.6499 7.30983 3.03046 6.92927 3.4999 6.92927H7.31302L7.68191 4.37836C7.74909 3.91375 8.1802 3.59158 8.64481 3.65876ZM8.78487 8.62927H16.0405L14.7474 17.5223C13.7859 16.5874 12.4892 15.6143 10.988 14.7767C10.0994 14.2809 9.12505 13.8246 8.08803 13.4481L8.78487 8.62927Z" fill="#1A1A1A"/>
</svg>
