<svg width="24" height="24" viewBox="0 0 24 24" fill="none" xmlns="http://www.w3.org/2000/svg">
<path fill-rule="evenodd" clip-rule="evenodd" d="M3.1499 6.00039C3.1499 5.53095 3.53046 5.15039 3.9999 5.15039H19.9999C20.4693 5.15039 20.8499 5.53095 20.8499 6.00039C20.8499 6.46983 20.4693 6.85039 19.9999 6.85039H3.9999C3.53046 6.85039 3.1499 6.46983 3.1499 6.00039ZM3.1499 12.0004C3.1499 11.5309 3.53046 11.1504 3.9999 11.1504H19.9999C20.4693 11.1504 20.8499 11.5309 20.8499 12.0004C20.8499 12.4698 20.4693 12.8504 19.9999 12.8504H3.9999C3.53046 12.8504 3.1499 12.4698 3.1499 12.0004ZM3.9999 17.1504C3.53046 17.1504 3.1499 17.5309 3.1499 18.0004C3.1499 18.4698 3.53046 18.8504 3.9999 18.8504H19.9999C20.4693 18.8504 20.8499 18.4698 20.8499 18.0004C20.8499 17.5309 20.4693 17.1504 19.9999 17.1504H3.9999Z" fill="#1A1A1A"/>
</svg>
