<svg width="24" height="24" viewBox="0 0 24 24" fill="none" xmlns="http://www.w3.org/2000/svg">
<path fill-rule="evenodd" clip-rule="evenodd" d="M7.1499 7.4999C7.1499 4.82132 9.32132 2.6499 11.9999 2.6499C14.6785 2.6499 16.8499 4.82132 16.8499 7.4999C16.8499 10.1785 14.6785 12.3499 11.9999 12.3499C9.32132 12.3499 7.1499 10.1785 7.1499 7.4999ZM11.9999 4.3499C10.2602 4.3499 8.8499 5.76021 8.8499 7.4999C8.8499 9.2396 10.2602 10.6499 11.9999 10.6499C13.7396 10.6499 15.1499 9.2396 15.1499 7.4999C15.1499 5.76021 13.7396 4.3499 11.9999 4.3499Z" fill="#1A1A1A"/>
<path d="M4.9999 19.6499H13.0042C13.0357 20.2898 13.2677 20.877 13.6386 21.3499H4.9999C3.97818 21.3499 3.1499 20.5216 3.1499 19.4999C3.1499 16.269 5.76904 13.6499 8.9999 13.6499H13.6387C13.2677 14.1229 13.0357 14.71 13.0042 15.3499H8.9999C6.70792 15.3499 4.8499 17.2079 4.8499 19.4999C4.8499 19.5827 4.91706 19.6499 4.9999 19.6499Z" fill="#1A1A1A"/>
<path fill-rule="evenodd" clip-rule="evenodd" d="M16.0002 13.6499C14.9785 13.6499 14.1502 14.4782 14.1502 15.4999V19.4999C14.1502 20.5216 14.9785 21.3499 16.0002 21.3499H19.0002C20.0219 21.3499 20.8502 20.5216 20.8502 19.4999V15.4999C20.8502 14.4782 20.0219 13.6499 19.0002 13.6499H16.0002ZM15.8502 15.4999C15.8502 15.4171 15.9174 15.3499 16.0002 15.3499H19.0002C19.083 15.3499 19.1502 15.4171 19.1502 15.4999V19.4999C19.1502 19.5827 19.083 19.6499 19.0002 19.6499H16.0002C15.9174 19.6499 15.8502 19.5827 15.8502 19.4999V15.4999Z" fill="#1A1A1A"/>
</svg>
