<svg width="24" height="24" viewBox="0 0 24 24" fill="none" xmlns="http://www.w3.org/2000/svg">
<path fill-rule="evenodd" clip-rule="evenodd" d="M2.89886 16.101C3.23081 16.433 3.769 16.433 4.10094 16.101L11.4696 8.73241C11.6775 8.52448 11.7978 8.40515 11.8927 8.32456C11.9315 8.29161 11.9548 8.27523 11.9656 8.2682C11.9881 8.26288 12.0117 8.26288 12.0343 8.2682C12.045 8.27523 12.0683 8.29161 12.1071 8.32456C12.202 8.40515 12.3223 8.52448 12.5302 8.73241L19.8989 16.101C20.2308 16.433 20.769 16.433 21.1009 16.101C21.4329 15.7691 21.4329 15.2309 21.1009 14.899L13.7121 7.5101C13.5315 7.32952 13.3617 7.15967 13.2073 7.02859C13.0396 6.88618 12.835 6.74033 12.5716 6.65476C12.2 6.53403 11.7998 6.53403 11.4282 6.65476C11.1648 6.74033 10.9602 6.88618 10.7925 7.02859C10.6381 7.15967 10.4683 7.32952 10.2877 7.51009L2.89886 14.899C2.56692 15.2309 2.56692 15.7691 2.89886 16.101Z" fill="#1A1A1A"/>
</svg>
