<svg width="24" height="24" viewBox="0 0 24 24" fill="none" xmlns="http://www.w3.org/2000/svg">
<path fill-rule="evenodd" clip-rule="evenodd" d="M7.39896 2.39886C7.06702 2.73081 7.06702 3.269 7.39896 3.60094L15.2676 11.4696C15.4755 11.6775 15.5948 11.7978 15.6754 11.8927C15.7084 11.9315 15.7248 11.9548 15.7318 11.9656C15.7371 11.9881 15.7371 12.0117 15.7318 12.0343C15.7248 12.045 15.7084 12.0683 15.6754 12.1071C15.5948 12.202 15.4755 12.3223 15.2676 12.5302L7.39896 20.3989C7.06702 20.7308 7.06702 21.269 7.39896 21.6009C7.73091 21.9329 8.2691 21.9329 8.60105 21.6009L16.4899 13.7121C16.6705 13.5315 16.8403 13.3617 16.9714 13.2073C17.1138 13.0396 17.2597 12.835 17.3452 12.5716C17.466 12.2 17.466 11.7998 17.3452 11.4282C17.2597 11.1648 17.1138 10.9602 16.9714 10.7925C16.8403 10.6381 16.6705 10.4683 16.4899 10.2877L8.60105 2.39886C8.2691 2.06692 7.73091 2.06692 7.39896 2.39886Z" fill="#1A1A1A"/>
</svg>
