<svg width="24" height="24" viewBox="0 0 24 24" fill="none" xmlns="http://www.w3.org/2000/svg">
<path d="M22.858 3.91349C19.7439 1.89335 15.5048 0.771908 12.4453 3.58703C11.8444 4.13996 11.4631 5.01316 11.2109 5.89241C11.1261 6.18812 11.052 6.49861 10.988 6.81856C10.5377 6.55777 10.0078 6.33702 9.45725 6.1942C8.43611 5.9293 7.16356 5.88654 6.05091 6.53574C4.85616 7.23285 3.98852 7.9417 3.28858 8.51354C3.21785 8.57132 3.14839 8.62807 3.08092 8.6829C2.3219 9.29975 1.82716 9.65634 1.262 9.8073C0.986997 9.88076 0.767014 10.087 0.675989 10.3567C0.584963 10.6264 0.63498 10.9238 0.80923 11.1488C1.74793 12.3614 2.79076 13.6372 4.12928 14.4692C5.51818 15.3326 7.17759 15.6925 9.27061 15.1915C9.72716 15.0823 10.0087 14.6236 9.89943 14.1671C9.79016 13.7105 9.33148 13.429 8.87493 13.5382C7.21694 13.935 6.02408 13.6454 5.02675 13.0254C4.23286 12.532 3.53678 11.8146 2.83358 10.9631C3.30408 10.6856 3.73221 10.3442 4.15308 10.0022C4.22163 9.94646 4.29067 9.89011 4.3604 9.83318C5.06104 9.26126 5.833 8.63111 6.90765 8.00408C7.49211 7.66306 8.25574 7.63878 9.03036 7.83973C9.81766 8.04397 10.4338 8.43412 10.6615 8.68166C10.682 8.7039 10.7033 8.72479 10.7255 8.74434C10.7218 8.79073 10.7182 8.83709 10.7148 8.88342C10.6662 9.54447 10.6509 10.2098 10.6673 10.8415C9.70257 10.2153 8.58251 9.87412 7.60238 9.78166C7.13501 9.73757 6.72039 10.0807 6.6763 10.5481C6.63221 11.0154 6.97534 11.4301 7.44271 11.4741C8.91265 11.6128 10.4937 12.4346 11.0547 13.7666C11.0579 13.7754 11.0614 13.7843 11.065 13.793C11.1992 14.1213 11.3179 14.6696 11.4038 15.3877C11.4877 16.0889 11.5339 16.8927 11.5492 17.6959C11.5804 19.3294 11.4824 20.8471 11.355 21.4417C11.2566 21.9008 11.549 22.3526 12.008 22.451C12.2521 22.5033 12.4941 22.4451 12.6821 22.3101C12.6898 22.3046 12.6975 22.2989 12.705 22.2931C12.8592 22.1746 12.9738 22.0027 13.0178 21.7976C13.1885 21.0008 13.281 19.3188 13.2494 17.6631C13.2333 16.8217 13.1847 15.9586 13.0922 15.1854C13.0461 14.7992 12.9871 14.419 12.9108 14.0666L12.9113 14.0626C13.0652 12.7986 13.7562 11.3456 14.7434 10.1137C15.7372 8.87361 16.9282 7.98432 17.9727 7.70508C18.4262 7.58384 18.6956 7.11791 18.5744 6.66439C18.4531 6.21088 17.9872 5.94151 17.5337 6.06275C16.0081 6.47058 14.5344 7.65607 13.4168 9.05062C13.0294 9.53415 12.6725 10.0579 12.3628 10.6049C12.3553 10.0897 12.3704 9.54864 12.4102 9.00811C12.4804 8.05345 12.6255 7.12644 12.845 6.36118C13.0731 5.56618 13.3479 5.0667 13.5964 4.83804C15.5368 3.0526 18.356 3.34085 21.0482 4.81132C20.976 4.93267 20.9131 5.05753 20.8575 5.1837C20.6645 5.62123 20.5375 6.12892 20.4201 6.59852L20.3954 6.6969C20.1367 7.72778 19.8337 8.85739 18.9318 10.0362C18.5129 10.5838 17.8463 11.1885 17.1294 11.6559C16.3869 12.14 15.7296 12.3859 15.3239 12.3916C14.8545 12.3982 14.4793 12.784 14.4859 13.2534C14.4924 13.7228 14.8783 14.098 15.3477 14.0914C16.2427 14.0789 17.2336 13.6173 18.0578 13.08C18.9077 12.5259 19.7264 11.7953 20.282 11.0692C21.4088 9.5965 21.7773 8.17438 22.0443 7.11075L22.0511 7.08363C22.1857 6.54717 22.2803 6.17042 22.4129 5.86977C22.5351 5.59277 22.6595 5.45431 22.8159 5.36534C23.0738 5.21856 23.2365 4.94789 23.2451 4.65126C23.2537 4.35463 23.107 4.07498 22.858 3.91349Z" fill="#1A1A1A"/>
</svg>
