<svg width="24" height="24" viewBox="0 0 24 24" fill="none" xmlns="http://www.w3.org/2000/svg">
<path fill-rule="evenodd" clip-rule="evenodd" d="M11.9999 2.15039C6.5599 2.15039 2.1499 6.56039 2.1499 12.0004C2.1499 17.4404 6.5599 21.8504 11.9999 21.8504C17.4399 21.8504 21.8499 17.4404 21.8499 12.0004C21.8499 6.56039 17.4399 2.15039 11.9999 2.15039ZM9.60104 8.39896C9.26909 8.06701 8.73091 8.06701 8.39896 8.39896C8.06701 8.73091 8.06701 9.26909 8.39896 9.60104L10.7979 12L8.39896 14.399C8.06701 14.7309 8.06701 15.2691 8.39896 15.601C8.73091 15.933 9.26909 15.933 9.60104 15.601L12 13.2021L14.399 15.601C14.7309 15.933 15.2691 15.933 15.601 15.601C15.933 15.2691 15.933 14.7309 15.601 14.399L13.2021 12L15.601 9.60104C15.933 9.26909 15.933 8.7309 15.601 8.39896C15.2691 8.06701 14.7309 8.06701 14.399 8.39896L12 10.7979L9.60104 8.39896Z" fill="#1A1A1A"/>
</svg>
