<svg width="24" height="24" viewBox="0 0 24 24" fill="none" xmlns="http://www.w3.org/2000/svg">
<path fill-rule="evenodd" clip-rule="evenodd" d="M3.8499 12.0004C3.8499 7.49927 7.49878 3.85039 11.9999 3.85039C16.501 3.85039 20.1499 7.49927 20.1499 12.0004C20.1499 16.5015 16.501 20.1504 11.9999 20.1504C7.49878 20.1504 3.8499 16.5015 3.8499 12.0004ZM11.9999 2.15039C6.5599 2.15039 2.1499 6.56039 2.1499 12.0004C2.1499 17.4404 6.5599 21.8504 11.9999 21.8504C17.4399 21.8504 21.8499 17.4404 21.8499 12.0004C21.8499 6.56039 17.4399 2.15039 11.9999 2.15039ZM8.39889 15.601C8.06695 15.2691 8.06695 14.7309 8.39889 14.399L10.7979 12L8.39889 9.60104C8.06695 9.26909 8.06695 8.73091 8.39889 8.39896C8.73084 8.06701 9.26903 8.06701 9.60097 8.39896L11.9999 10.7979L14.3989 8.39896C14.7308 8.06701 15.269 8.06701 15.601 8.39896C15.9329 8.7309 15.9329 9.26909 15.601 9.60104L13.202 12L15.601 14.399C15.9329 14.7309 15.9329 15.2691 15.601 15.601C15.269 15.933 14.7308 15.933 14.3989 15.601L11.9999 13.2021L9.60097 15.601C9.26903 15.933 8.73084 15.933 8.39889 15.601Z" fill="#1A1A1A"/>
</svg>
