<svg width="24" height="24" viewBox="0 0 24 24" fill="none" xmlns="http://www.w3.org/2000/svg">
<path d="M11.9066 12.7884L9.75756 13.9064C9.49843 14.0412 9.19706 13.8208 9.24692 13.533L9.65616 11.1711L7.92538 9.50089C7.71414 9.29704 7.82961 8.93941 8.12018 8.89758L10.5164 8.55265L11.5909 6.39789C11.7208 6.13735 12.0926 6.1373 12.2225 6.39781L13.2978 8.55265L15.6931 8.89755C15.9837 8.93939 16.0991 9.29701 15.8879 9.50086L14.1571 11.1711L14.5656 13.5331C14.6154 13.8209 14.314 14.0412 14.0549 13.9063L11.9066 12.7884Z" fill="#1A1A1A"/>
<path fill-rule="evenodd" clip-rule="evenodd" d="M17.3757 20.9502L11.9068 18.0888L6.4379 20.9502C5.28592 21.5529 4.14746 20.5817 4.14746 19.4654V8.4367C4.14745 7.44329 4.14745 6.6514 4.19968 6.01212C4.25322 5.35688 4.36538 4.79539 4.62781 4.28035C5.05033 3.4511 5.72453 2.7769 6.55379 2.35437C7.06882 2.09195 7.63032 1.97978 8.28555 1.92624C8.92483 1.87401 9.71672 1.87402 10.7101 1.87402H13.1035C14.0969 1.87402 14.8888 1.87401 15.528 1.92624C16.1833 1.97978 16.7448 2.09195 17.2598 2.35437C18.0891 2.77689 18.7633 3.4511 19.1858 4.28035C19.4482 4.79539 19.5604 5.35688 19.6139 6.01211C19.6661 6.6514 19.6661 7.44329 19.6661 8.43671V19.4654C19.6661 20.5817 18.5277 21.5529 17.3757 20.9502ZM13.0703 3.39269C14.1044 3.39269 14.8342 3.39328 15.4044 3.43987C15.9657 3.48573 16.3051 3.57235 16.5703 3.70751C17.1138 3.98444 17.5557 4.42631 17.8326 4.96981C17.9678 5.23507 18.0544 5.57447 18.1003 6.13578C18.1469 6.70596 18.1475 7.4358 18.1475 8.4698V19.4654C18.1475 19.5484 18.1109 19.5883 18.0916 19.6017C18.0881 19.604 18.0854 19.6055 18.0834 19.6064L18.0797 19.6046L11.9068 16.3748L5.73386 19.6046L5.73015 19.6064C5.72821 19.6055 5.72548 19.604 5.72202 19.6016C5.70266 19.5883 5.66613 19.5484 5.66613 19.4654V8.46981C5.66613 7.4358 5.66672 6.70597 5.7133 6.13578C5.75917 5.57447 5.84579 5.23507 5.98095 4.96981C6.25787 4.42631 6.69975 3.98444 7.24325 3.70751C7.50851 3.57235 7.8479 3.48573 8.40922 3.43987C8.9794 3.39328 9.70924 3.39269 10.7432 3.39269L13.0703 3.39269Z" fill="#1A1A1A"/>
</svg>
