<svg width="24" height="24" viewBox="0 0 24 24" fill="none" xmlns="http://www.w3.org/2000/svg">
<path d="M8.60097 11.399C8.26903 11.067 7.73084 11.067 7.39889 11.399C7.06695 11.7309 7.06695 12.2691 7.39889 12.601L9.69179 14.8939C10.4143 15.6164 11.5856 15.6164 12.3081 14.8939L16.601 10.601C16.9329 10.2691 16.9329 9.73091 16.601 9.39896C16.269 9.06701 15.7308 9.06701 15.3989 9.39896L11.106 13.6919C11.0474 13.7504 10.9524 13.7504 10.8939 13.6919L8.60097 11.399Z" fill="#1A1A1A"/>
<path fill-rule="evenodd" clip-rule="evenodd" d="M7.4999 2.15039C5.09746 2.15039 3.1499 4.09795 3.1499 6.50039V17.5004C3.1499 19.9028 5.09746 21.8504 7.4999 21.8504H16.4999C18.9023 21.8504 20.8499 19.9028 20.8499 17.5004V7.91281C20.8499 6.53494 20.1971 5.23853 19.0901 4.41807L17.1845 3.00565C16.4351 2.45022 15.527 2.15039 14.5943 2.15039H7.4999ZM4.8499 6.50039C4.8499 5.03684 6.03635 3.85039 7.4999 3.85039H14.5943C15.1625 3.85039 15.7157 4.03305 16.1722 4.37141L18.0779 5.78383C18.7522 6.28365 19.1499 7.07342 19.1499 7.91281V17.5004C19.1499 18.9639 17.9635 20.1504 16.4999 20.1504H7.4999C6.03635 20.1504 4.8499 18.9639 4.8499 17.5004V6.50039Z" fill="#1A1A1A"/>
</svg>
