<svg width="24" height="24" viewBox="0 0 24 24" fill="none" xmlns="http://www.w3.org/2000/svg">
<path d="M6.22252 3.1499C5.46235 3.14986 4.80807 3.14983 4.28428 3.22025C3.7232 3.29568 3.18637 3.46566 2.75107 3.90097C2.31576 4.33627 2.14578 4.8731 2.07035 5.43418C1.99992 5.95798 1.99996 6.61225 2 7.37243V13.6274C1.99996 14.3876 1.99992 15.0418 2.07035 15.5656C2.14578 16.1267 2.31576 16.6635 2.75107 17.0988C3.18637 17.5341 3.7232 17.7041 4.28428 17.7796C4.80808 17.85 5.46237 17.85 6.22255 17.8499L11 17.8499L11 19.1499H6.85C6.38056 19.1499 6 19.5305 6 19.9999C6 20.4693 6.38056 20.8499 6.85 20.8499H13.0271C12.3908 20.1832 12 19.2801 12 18.2857V16.1499H6.27857C5.44642 16.1499 4.90782 16.1481 4.5108 16.0947C4.13823 16.0446 4.01995 15.9636 3.95315 15.8968C3.88635 15.83 3.80528 15.7117 3.75519 15.3391C3.70181 14.9421 3.7 14.4035 3.7 13.5713V7.42848C3.7 6.59633 3.70181 6.05772 3.75519 5.6607C3.80528 5.28813 3.88635 5.16985 3.95315 5.10305C4.01995 5.03625 4.13823 4.95518 4.5108 4.90509C4.90782 4.85171 5.44642 4.84991 6.27858 4.84991H16.85C17.8168 4.84991 18.4565 4.85171 18.9313 4.91555C19.3817 4.9761 19.5545 5.07809 19.6632 5.18673C19.7718 5.29537 19.8738 5.46825 19.9344 5.91862C19.9982 6.39345 20 7.03307 20 7.99991V11.0692C20.641 11.1946 21.223 11.4849 21.7 11.8941V7.94222C21.7 7.04867 21.7001 6.29363 21.6192 5.6921C21.5333 5.05322 21.3424 4.4618 20.8653 3.98465C20.3881 3.50751 19.7967 3.3166 19.1578 3.23071C18.5563 3.14984 17.8013 3.14987 16.9077 3.14991L6.22252 3.1499Z" fill="#1A1A1A"/>
<path fill-rule="evenodd" clip-rule="evenodd" d="M15.7143 12.15C14.2981 12.15 13.15 13.2981 13.15 14.7143V18.2857C13.15 19.7019 14.2981 20.85 15.7143 20.85H19.2828C20.699 20.85 21.8471 19.7019 21.8471 18.2857V14.7143C21.8471 13.2981 20.699 12.15 19.2828 12.15H15.7143ZM14.85 14.7143C14.85 14.237 15.237 13.85 15.7143 13.85H19.2828C19.7601 13.85 20.1471 14.237 20.1471 14.7143V18.2857C20.1471 18.7631 19.7601 19.15 19.2828 19.15H15.7143C15.237 19.15 14.85 18.7631 14.85 18.2857V14.7143Z" fill="#1A1A1A"/>
</svg>
