<svg width="24" height="24" viewBox="0 0 24 24" fill="none" xmlns="http://www.w3.org/2000/svg">
<path d="M6.79229 2.1499C5.89879 2.14987 5.1437 2.14984 4.5422 2.23071C3.90332 2.31661 3.3119 2.50751 2.83475 2.98465C2.3576 3.4618 2.1667 4.05322 2.08081 4.6921C1.99994 5.29361 1.99997 6.0486 2 6.94211V12.0576C1.99997 12.9511 1.99994 13.7062 2.08081 14.3077C2.1667 14.9466 2.3576 15.538 2.83475 16.0152C3.3119 16.4923 3.90332 16.6832 4.5422 16.7691C5.14373 16.85 5.89877 16.8499 6.79232 16.8499L11 16.8499L11 18.1499H6.85C6.38056 18.1499 6 18.5305 6 18.9999C6 19.4693 6.38056 19.8499 6.85 19.8499H12.4722C12.4442 19.666 12.4297 19.4776 12.4297 19.2858V15.1499H6.85C5.88317 15.1499 5.24355 15.1481 4.76872 15.0843C4.31835 15.0237 4.14547 14.9217 4.03683 14.8131C3.92819 14.7044 3.8262 14.5316 3.76565 14.0812C3.70181 13.6064 3.70001 12.9667 3.70001 11.9999V6.99991C3.70001 6.03307 3.70181 5.39345 3.76565 4.91862C3.8262 4.46825 3.92819 4.29537 4.03683 4.18674C4.14547 4.0781 4.31835 3.9761 4.76872 3.91555C5.24355 3.85171 5.88317 3.84991 6.85 3.84991H16.85C17.8168 3.84991 18.4565 3.85171 18.9313 3.91555C19.3817 3.9761 19.5545 4.0781 19.6632 4.18674C19.7718 4.29537 19.8738 4.46825 19.9344 4.91862C19.9982 5.39345 20 6.03307 20 6.99991V9.59586C20.6275 9.66777 21.2075 9.89606 21.7 10.2408V6.94222C21.7 6.04867 21.7001 5.29363 21.6192 4.6921C21.5333 4.05322 21.3424 3.4618 20.8653 2.98465C20.3881 2.50751 19.7967 2.31661 19.1578 2.23071C18.5563 2.14984 17.8013 2.14987 16.9078 2.1499H6.79229Z" fill="#1A1A1A"/>
<path fill-rule="evenodd" clip-rule="evenodd" d="M16.1439 10.7214C14.7277 10.7214 13.5796 11.8695 13.5796 13.2857V19.2857C13.5796 20.7019 14.7277 21.85 16.1439 21.85H19.5724C20.9887 21.85 22.1367 20.7019 22.1367 19.2857V13.2857C22.1367 11.8695 20.9887 10.7214 19.5725 10.7214H16.1439ZM15.2796 13.2857C15.2796 12.8084 15.6665 12.4214 16.1439 12.4214H19.5725C20.0498 12.4214 20.4367 12.8084 20.4367 13.2857V19.2857C20.4367 19.7631 20.0498 20.15 19.5724 20.15H16.1439C15.6665 20.15 15.2796 19.7631 15.2796 19.2857V13.2857Z" fill="#1A1A1A"/>
</svg>
