<svg width="24" height="24" viewBox="0 0 24 24" fill="none" xmlns="http://www.w3.org/2000/svg">
<path fill-rule="evenodd" clip-rule="evenodd" d="M6.15032 6.20793C6.18194 3.96161 8.01274 2.15039 10.2666 2.15039H15.4364C16.3855 2.15038 17.1495 2.15038 17.7679 2.2009C18.4041 2.25288 18.9606 2.36254 19.4748 2.62451C20.2933 3.04156 20.9587 3.70703 21.3758 4.52553C21.6378 5.03968 21.7474 5.59618 21.7994 6.23238C21.8499 6.85073 21.8499 7.61472 21.8499 8.56382V13.7337C21.8499 15.9876 20.0387 17.8184 17.7924 17.85C17.7377 18.4523 17.6265 18.9832 17.3758 19.4753C16.9587 20.2938 16.2933 20.9592 15.4748 21.3763C14.9606 21.6382 14.4041 21.7479 13.7679 21.7999C13.1496 21.8504 12.3856 21.8504 11.4365 21.8504H8.56341C7.61432 21.8504 6.85024 21.8504 6.23189 21.7999C5.5957 21.7479 5.03919 21.6382 4.52504 21.3763C3.70654 20.9592 3.04107 20.2938 2.62402 19.4753C2.36206 18.9611 2.25239 18.4046 2.20041 17.7684C2.14989 17.15 2.14989 16.386 2.1499 15.4369V12.5639C2.14989 11.6148 2.14989 10.8507 2.20041 10.2324C2.25239 9.59618 2.36206 9.03968 2.62402 8.52553C3.04107 7.70703 3.70654 7.04156 4.52504 6.62451C5.01709 6.3738 5.54795 6.26258 6.15032 6.20793ZM15.3999 3.85039C16.394 3.85039 17.0885 3.85105 17.6295 3.89525C18.1605 3.93864 18.4684 4.01972 18.703 4.13922C19.2016 4.39329 19.607 4.79869 19.8611 5.29732C19.9806 5.53186 20.0617 5.83975 20.105 6.37082C20.1492 6.91181 20.1499 7.60627 20.1499 8.60039V13.7337C20.1499 15.0296 19.1299 16.0873 17.849 16.1477C17.8499 15.923 17.8499 15.6864 17.8499 15.4369V12.5639C17.8499 11.6148 17.8499 10.8507 17.7994 10.2324C17.7474 9.59618 17.6378 9.03968 17.3758 8.52553C16.9587 7.70703 16.2933 7.04156 15.4748 6.62451C14.9606 6.36254 14.4041 6.25288 13.7679 6.2009C13.1495 6.15038 12.3855 6.15038 11.4364 6.15039H8.5634C8.31393 6.15039 8.07723 6.15039 7.85263 6.1513C7.91303 4.87037 8.97069 3.85039 10.2666 3.85039H15.3999ZM5.29683 8.13922C5.53138 8.01972 5.83926 7.93864 6.37033 7.89525C6.91132 7.85105 7.60579 7.85039 8.5999 7.85039H11.3999C12.394 7.85039 13.0885 7.85105 13.6295 7.89525C14.1605 7.93864 14.4684 8.01972 14.703 8.13922C15.2016 8.39329 15.607 8.79869 15.8611 9.29732C15.9806 9.53186 16.0617 9.83975 16.105 10.3708C16.1492 10.9118 16.1499 11.6063 16.1499 12.6004V15.4004C16.1499 16.3945 16.1492 17.089 16.105 17.63C16.0617 18.161 15.9806 18.4689 15.8611 18.7035C15.607 19.2021 15.2016 19.6075 14.703 19.8616C14.4684 19.9811 14.1605 20.0621 13.6295 20.1055C13.0885 20.1497 12.394 20.1504 11.3999 20.1504H8.5999C7.60579 20.1504 6.91132 20.1497 6.37033 20.1055C5.83926 20.0621 5.53138 19.9811 5.29683 19.8616C4.7982 19.6075 4.3928 19.2021 4.13874 18.7035C4.01923 18.4689 3.93815 18.161 3.89476 17.63C3.85056 17.089 3.8499 16.3945 3.8499 15.4004V12.6004C3.8499 11.6063 3.85056 10.9118 3.89476 10.3708C3.93815 9.83975 4.01923 9.53186 4.13874 9.29732C4.3928 8.79869 4.7982 8.39329 5.29683 8.13922Z" fill="#1A1A1A"/>
</svg>
