<svg width="24" height="24" viewBox="0 0 24 24" fill="none" xmlns="http://www.w3.org/2000/svg">
<path fill-rule="evenodd" clip-rule="evenodd" d="M11.9979 2.1499C11.7725 2.1499 11.5563 2.23946 11.3969 2.39886C11.2375 2.55827 11.1479 2.77447 11.1479 2.9999V11.9999C11.1479 12.4693 11.5285 12.8499 11.9979 12.8499L20.9979 12.8499C21.2234 12.8499 21.4396 12.7604 21.599 12.6009C21.7584 12.4415 21.8479 12.2253 21.8479 11.9999C21.8479 10.7064 21.5932 9.42553 21.0982 8.23047C20.6032 7.03541 19.8776 5.94956 18.963 5.0349C18.0483 4.12024 16.9624 3.3947 15.7674 2.89969C14.5723 2.40468 13.2915 2.1499 11.9979 2.1499ZM12.8479 11.1499V3.89435C13.6265 3.976 14.3908 4.16956 15.1168 4.47028C16.1056 4.87986 17.0041 5.48019 17.7609 6.23698C18.5177 6.99378 19.118 7.89223 19.5276 8.88103C19.8283 9.60704 20.0219 10.3713 20.1035 11.1499L12.8479 11.1499Z" fill="#1A1A1A"/>
<path d="M6.52583 3.80982C7.58418 3.10265 8.76402 2.61091 9.99817 2.35498V4.09901C9.10234 4.32579 8.2468 4.70447 7.4703 5.22332C6.13004 6.11885 5.08543 7.39171 4.46858 8.88093C3.85173 10.3701 3.69033 12.0088 4.0048 13.5898C4.31927 15.1707 5.09548 16.6229 6.23528 17.7627C7.37508 18.9025 8.82727 19.6787 10.4082 19.9932C11.9892 20.3077 13.6278 20.1463 15.1171 19.5294C16.6063 18.9126 17.8791 17.868 18.7747 16.5277C19.2935 15.7512 19.6722 14.8957 19.899 13.9999H21.643C21.3871 15.234 20.8953 16.4138 20.1882 17.4722C19.1058 19.092 17.5675 20.3545 15.7676 21.1C13.9678 21.8455 11.9873 22.0406 10.0766 21.6605C8.16585 21.2805 6.41074 20.3423 5.0332 18.9648C3.65565 17.5872 2.71753 15.8321 2.33746 13.9214C1.9574 12.0107 2.15246 10.0302 2.89798 8.23036C3.64351 6.43051 4.90601 4.89215 6.52583 3.80982Z" fill="#1A1A1A"/>
</svg>
