<svg width="24" height="24" viewBox="0 0 24 24" fill="none" xmlns="http://www.w3.org/2000/svg">
<path fill-rule="evenodd" clip-rule="evenodd" d="M14.5282 14.1759L14.5057 14.1009C14.1157 14.1709 13.7407 14.2309 13.3807 14.2809C13.0257 14.3309 12.7132 14.3684 12.4432 14.3934C12.3132 14.4084 12.2082 14.3734 12.1282 14.2884C12.0482 14.1984 11.9907 14.0859 11.9557 13.9509C11.9207 13.8109 11.9107 13.6734 11.9257 13.5384C11.9407 13.3984 11.9807 13.2859 12.0457 13.2009C12.1257 13.1009 12.2082 12.9634 12.2932 12.7884C12.3832 12.6134 12.4707 12.4184 12.5557 12.2034C12.6407 11.9884 12.7182 11.7734 12.7882 11.5584H12.2482C12.1632 11.5584 12.0957 11.5234 12.0457 11.4534C11.9957 11.3834 11.9607 11.2959 11.9407 11.1909C11.9257 11.0859 11.9257 10.9809 11.9407 10.8759C11.9607 10.7709 11.9957 10.6834 12.0457 10.6134C12.0957 10.5434 12.1632 10.5084 12.2482 10.5084H15.0382C15.1232 10.5084 15.1907 10.5434 15.2407 10.6134C15.2907 10.6834 15.3232 10.7709 15.3382 10.8759C15.3582 10.9809 15.3582 11.0859 15.3382 11.1909C15.3232 11.2959 15.2907 11.3834 15.2407 11.4534C15.1907 11.5234 15.1232 11.5584 15.0382 11.5584H13.9132C13.8432 11.7634 13.7607 11.9759 13.6657 12.1959C13.5757 12.4109 13.4832 12.6134 13.3882 12.8034C13.2982 12.9884 13.2082 13.1334 13.1182 13.2384C13.1932 13.2484 13.3232 13.2409 13.5082 13.2159C13.6982 13.1909 13.9157 13.1609 14.1607 13.1259C14.1157 13.0159 14.0682 12.9109 14.0182 12.8109C13.9732 12.7059 13.9307 12.6084 13.8907 12.5184C13.8457 12.4284 13.8607 12.3434 13.9357 12.2634C14.0107 12.1834 14.1107 12.1209 14.2357 12.0759C14.3657 12.0309 14.4882 12.0134 14.6032 12.0234C14.7232 12.0334 14.8057 12.0834 14.8507 12.1734C14.9507 12.3684 15.0532 12.5959 15.1582 12.8559C15.2632 13.1109 15.3532 13.3459 15.4282 13.5609C15.5382 13.3409 15.6157 13.0984 15.6607 12.8334C15.7107 12.5684 15.7432 12.2534 15.7582 11.8884C15.7782 11.5234 15.7957 11.0809 15.8107 10.5609H15.3457C15.2607 10.5609 15.1932 10.5259 15.1432 10.4559C15.0932 10.3859 15.0582 10.2984 15.0382 10.1934C15.0232 10.0884 15.0232 9.98344 15.0382 9.87844C15.0582 9.77344 15.0932 9.68594 15.1432 9.61594C15.1932 9.54594 15.2607 9.51094 15.3457 9.51094H15.8407L15.8632 8.56594C15.8632 8.46594 15.9107 8.39344 16.0057 8.34844C16.1057 8.29844 16.2207 8.27344 16.3507 8.27344C16.4807 8.27344 16.5932 8.29844 16.6882 8.34844C16.7882 8.39344 16.8382 8.46594 16.8382 8.56594L16.8232 9.51094H17.4757C17.7457 9.51094 17.9532 9.54094 18.0982 9.60094C18.2432 9.65594 18.3407 9.76094 18.3907 9.91594C18.4457 10.0659 18.4657 10.2809 18.4507 10.5609L18.3382 13.9134C18.3282 14.1684 18.2807 14.3759 18.1957 14.5359C18.1157 14.6959 17.9682 14.8109 17.7532 14.8809C17.5432 14.9509 17.2457 14.9759 16.8607 14.9559L16.6957 14.9484C16.5757 14.9384 16.4757 14.8659 16.3957 14.7309C16.3157 14.5959 16.2657 14.4534 16.2457 14.3034C16.1307 14.5284 15.9732 14.7659 15.7732 15.0159C15.7232 15.0859 15.6507 15.1209 15.5557 15.1209C15.4607 15.1209 15.3607 15.0959 15.2557 15.0459C15.1557 14.9959 15.0657 14.9334 14.9857 14.8584C14.9057 14.7834 14.8507 14.7034 14.8207 14.6184C14.7957 14.5334 14.8107 14.4584 14.8657 14.3934L14.9482 14.2884C14.8532 14.3184 14.7657 14.3284 14.6857 14.3184C14.6057 14.3034 14.5532 14.2559 14.5282 14.1759ZM17.2882 10.5609H16.8007C16.7857 11.0959 16.7707 11.5634 16.7557 11.9634C16.7407 12.3584 16.7082 12.7084 16.6582 13.0134C16.6132 13.3184 16.5407 13.6059 16.4407 13.8759H16.4782L16.5907 13.8834C16.8157 13.9084 16.9807 13.9084 17.0857 13.8834C17.1957 13.8584 17.2682 13.8059 17.3032 13.7259C17.3432 13.6459 17.3657 13.5384 17.3707 13.4034L17.4682 10.7484C17.4732 10.6534 17.4682 10.5984 17.4532 10.5834C17.4382 10.5684 17.3832 10.5609 17.2882 10.5609Z" fill="#1A1A1A"/>
<path d="M14.7832 9.71344H12.5107C12.4107 9.71344 12.3332 9.66344 12.2782 9.56344C12.2282 9.45844 12.2032 9.33844 12.2032 9.20344C12.2032 9.06844 12.2282 8.95094 12.2782 8.85094C12.3332 8.74594 12.4107 8.69344 12.5107 8.69344H14.7832C14.8832 8.69344 14.9582 8.74594 15.0082 8.85094C15.0582 8.95094 15.0832 9.06844 15.0832 9.20344C15.0832 9.33844 15.0582 9.45844 15.0082 9.56344C14.9582 9.66344 14.8832 9.71344 14.7832 9.71344Z" fill="#1A1A1A"/>
<path fill-rule="evenodd" clip-rule="evenodd" d="M7.74321 9.10703H6.97821C6.53321 9.10703 6.22321 9.18953 6.04821 9.35453C5.87821 9.51953 5.79321 9.80703 5.79321 10.217V13.9445C5.79321 14.3595 5.87821 14.647 6.04821 14.807C6.22321 14.972 6.53321 15.0545 6.97821 15.0545H10.3532C10.6582 15.0545 10.8957 15.0195 11.0657 14.9495C11.2407 14.8795 11.3632 14.762 11.4332 14.597C11.5032 14.437 11.5382 14.2195 11.5382 13.9445V10.217C11.5382 9.80703 11.4507 9.51953 11.2757 9.35453C11.1057 9.18953 10.7982 9.10703 10.3532 9.10703H9.04821C9.07321 9.05203 9.09321 9.00203 9.10821 8.95703C9.12321 8.91203 9.13571 8.87703 9.14571 8.85203C9.18071 8.75703 9.16571 8.67703 9.10071 8.61203C9.03571 8.54203 8.94321 8.48953 8.82321 8.45453C8.70821 8.41453 8.58321 8.39453 8.44821 8.39453C8.31821 8.39453 8.20071 8.41703 8.09571 8.46203C7.99571 8.50703 7.93071 8.57703 7.90071 8.67203L7.84071 8.85203C7.81571 8.92703 7.78321 9.01203 7.74321 9.10703ZM10.1657 14.0195H7.16571C6.99071 14.0195 6.90321 13.932 6.90321 13.757V13.352H10.4282V13.757C10.4282 13.932 10.3407 14.0195 10.1657 14.0195ZM6.90321 10.802V10.4045C6.90321 10.2295 6.99071 10.142 7.16571 10.142H10.1657C10.3407 10.142 10.4282 10.2295 10.4282 10.4045V10.802H6.90321ZM6.90321 12.332V11.807H10.4282V12.332H6.90321Z" fill="#1A1A1A"/>
<path fill-rule="evenodd" clip-rule="evenodd" d="M10.9557 2.22461H13.0441C14.6434 2.2246 15.9043 2.2246 16.9133 2.32053C17.9441 2.41854 18.7993 2.62267 19.5565 3.08666C20.3437 3.56903 21.0055 4.23084 21.4878 5.01799C21.9518 5.77517 22.156 6.63038 22.254 7.66125C22.3499 8.67018 22.3499 9.93111 22.3499 11.5303V11.6188C22.3499 13.218 22.3499 14.479 22.254 15.488C22.156 16.5188 21.9518 17.3741 21.4878 18.1312C21.0055 18.9184 20.3437 19.5802 19.5565 20.0626C18.7993 20.5266 17.9441 20.7307 16.9133 20.8287C15.9043 20.9246 14.6434 20.9246 13.0442 20.9246H10.9557C9.35648 20.9246 8.09547 20.9246 7.08654 20.8287C6.05567 20.7307 5.20046 20.5266 4.44329 20.0626C3.65614 19.5802 2.99432 18.9184 2.51196 18.1312C2.04796 17.3741 1.84383 16.5188 1.74582 15.488C1.64989 14.479 1.64989 13.2181 1.6499 11.6188V11.5304C1.64989 9.93114 1.64989 8.67019 1.74582 7.66125C1.84383 6.63038 2.04796 5.77517 2.51196 5.01799C2.99432 4.23084 3.65614 3.56903 4.44329 3.08666C5.20046 2.62267 6.05567 2.41854 7.08654 2.32053C8.09549 2.2246 9.35643 2.2246 10.9557 2.22461ZM7.24746 4.01289C6.34102 4.09908 5.77671 4.26335 5.33153 4.53615C4.77313 4.87834 4.30364 5.34784 3.96145 5.90624C3.68864 6.35141 3.52437 6.91573 3.43819 7.82216C3.3508 8.74124 3.3499 9.92144 3.3499 11.5746C3.3499 13.2278 3.3508 14.408 3.43819 15.3271C3.52437 16.2335 3.68864 16.7978 3.96145 17.243C4.30364 17.8014 4.77313 18.2709 5.33153 18.6131C5.77671 18.8859 6.34102 19.0501 7.24746 19.1363C8.16654 19.2237 9.34673 19.2246 10.9999 19.2246H12.9999C14.6531 19.2246 15.8333 19.2237 16.7523 19.1363C17.6588 19.0501 18.2231 18.8859 18.6683 18.6131C19.2267 18.2709 19.6962 17.8014 20.0384 17.243C20.3112 16.7978 20.4754 16.2335 20.5616 15.3271C20.649 14.408 20.6499 13.2278 20.6499 11.5746C20.6499 9.92144 20.649 8.74124 20.5616 7.82216C20.4754 6.91573 20.3112 6.35141 20.0384 5.90624C19.6962 5.34784 19.2267 4.87834 18.6683 4.53615C18.2231 4.26335 17.6588 4.09908 16.7523 4.01289C15.8333 3.92551 14.6531 3.92461 12.9999 3.92461H10.9999C9.34673 3.92461 8.16654 3.92551 7.24746 4.01289Z" fill="#1A1A1A"/>
</svg>
