<svg width="24" height="24" viewBox="0 0 24 24" fill="none" xmlns="http://www.w3.org/2000/svg">
<path d="M12.122 11.6599C11.9728 11.8978 11.7464 12.1699 11.44 12.4763C11.0568 12.8648 10.7298 13.1811 10.4598 13.4247C10.1938 13.6641 10.0236 13.8207 9.95201 13.8923C9.8353 14.009 9.74885 14.123 9.69934 14.2344L9.69838 14.2365L9.69752 14.2387C9.65577 14.3461 9.63472 14.4571 9.63472 14.571C9.63472 14.7437 9.66922 14.8946 9.74617 15.0164L9.74715 15.0179L9.74819 15.0195C9.83797 15.1507 9.97172 15.215 10.1347 15.215H13.5187C13.5891 15.215 13.6546 15.1951 13.7107 15.153C13.765 15.1123 13.8047 15.0553 13.8334 14.9891C13.8928 14.8696 13.9227 14.7432 13.9227 14.611C13.9227 14.4796 13.8958 14.3516 13.8426 14.2276C13.8134 14.1595 13.7722 14.1012 13.7154 14.06C13.6577 14.0182 13.5905 13.999 13.5187 13.999H11.7174C12.3193 13.4941 12.8055 13.0063 13.1737 12.5363C13.5876 12.0026 13.8027 11.4802 13.8027 10.971C13.8027 10.3964 13.6059 9.94377 13.2045 9.62836C12.8073 9.31626 12.2543 9.16699 11.5587 9.16699C11.3864 9.16699 11.1991 9.1864 10.9974 9.22449C10.7949 9.25741 10.6002 9.30678 10.4134 9.37269C10.2249 9.43924 10.0654 9.52109 9.93757 9.61986L9.93668 9.62056L9.9358 9.62127C9.80763 9.72503 9.73072 9.85255 9.73072 10.003C9.73072 10.1672 9.76603 10.3212 9.83728 10.4637C9.87679 10.5427 9.9327 10.6063 10.0062 10.6493C10.0792 10.6921 10.1635 10.711 10.2547 10.711C10.356 10.711 10.4651 10.6776 10.5794 10.6204C10.6821 10.5691 10.8039 10.5172 10.9455 10.4648L10.947 10.4642L10.9484 10.4636C11.0772 10.4112 11.2395 10.383 11.4387 10.383C11.7617 10.383 11.9855 10.4468 12.127 10.5577C12.2639 10.665 12.3387 10.8284 12.3387 11.067C12.3387 11.2242 12.272 11.4207 12.122 11.6599Z" fill="#1A1A1A"/>
<path fill-rule="evenodd" clip-rule="evenodd" d="M15.3969 14.8505C15.7533 15.122 16.1916 15.255 16.7055 15.255C17.2195 15.255 17.6578 15.122 18.0141 14.8505C18.3666 14.582 18.6304 14.2167 18.8068 13.759C18.9827 13.3029 19.0695 12.7863 19.0695 12.211C19.0695 11.6357 18.9827 11.1191 18.8068 10.663C18.6304 10.2053 18.3666 9.84 18.0141 9.57145C17.6578 9.29997 17.2195 9.16699 16.7055 9.16699C16.1916 9.16699 15.7533 9.29997 15.3969 9.57145C15.0444 9.84 14.7807 10.2053 14.6042 10.663C14.4284 11.1191 14.3415 11.6357 14.3415 12.211C14.3415 12.7863 14.4284 13.3029 14.6042 13.759C14.7807 14.2167 15.0444 14.582 15.3969 14.8505ZM16.7055 10.383C16.9297 10.383 17.0972 10.4601 17.2201 10.6103L17.2211 10.6115C17.3516 10.7662 17.4502 10.9816 17.5118 11.2643C17.5741 11.5496 17.6055 11.865 17.6055 12.211C17.6055 12.5625 17.574 12.8805 17.5118 13.1657C17.4503 13.4423 17.3519 13.6584 17.2206 13.8191C17.0981 13.9639 16.9305 14.039 16.7055 14.039C16.4806 14.039 16.3129 13.9639 16.1904 13.8191C16.0591 13.6583 15.9607 13.4421 15.8992 13.1654C15.837 12.8803 15.8055 12.5623 15.8055 12.211C15.8055 11.865 15.837 11.5496 15.8992 11.2643C15.9609 10.9816 16.0594 10.7662 16.19 10.6115L16.1909 10.6103C16.3138 10.4601 16.4814 10.383 16.7055 10.383Z" fill="#1A1A1A"/>
<path d="M5.21191 10.423H7.36618L5.25216 14.435C5.22186 14.4887 5.20791 14.5483 5.20791 14.611C5.20791 14.7423 5.27108 14.8554 5.37652 14.9489C5.47726 15.0434 5.59754 15.1163 5.73576 15.1682C5.87799 15.225 6.01566 15.255 6.14791 15.255C6.32819 15.255 6.47913 15.1962 6.5564 15.0496L8.86826 10.6738C9.00531 10.4161 9.07991 10.1834 9.07991 9.97899C9.07991 9.78077 9.00473 9.60277 8.86209 9.44793C8.71168 9.27854 8.46891 9.20699 8.16391 9.20699H5.21191C5.14004 9.20699 5.07293 9.22621 5.01456 9.26707C4.95732 9.30714 4.91413 9.36403 4.88204 9.43111C4.82216 9.55118 4.79191 9.67818 4.79191 9.81099C4.79191 9.94239 4.81887 10.0704 4.87199 10.1944C4.90186 10.2641 4.94546 10.3229 5.00582 10.3638C5.06645 10.4049 5.13683 10.423 5.21191 10.423Z" fill="#1A1A1A"/>
<path fill-rule="evenodd" clip-rule="evenodd" d="M13.0441 2.65137H10.9557C9.35643 2.65136 8.09549 2.65135 7.08654 2.74728C6.05567 2.8453 5.20046 3.04943 4.44329 3.51342C3.65614 3.99579 2.99432 4.6576 2.51196 5.44475C2.04796 6.20193 1.84383 7.05714 1.74582 8.08801C1.64989 9.09695 1.64989 10.3579 1.6499 11.9572V12.0456C1.64989 13.6448 1.64989 14.9058 1.74582 15.9147C1.84383 16.9456 2.04796 17.8008 2.51196 18.558C2.99432 19.3451 3.65614 20.0069 4.44329 20.4893C5.20046 20.9533 6.05568 21.1574 7.08654 21.2555C8.09546 21.3514 9.35638 21.3514 10.9556 21.3514H13.0441C14.6433 21.3514 15.9043 21.3514 16.9133 21.2555C17.9441 21.1574 18.7993 20.9533 19.5565 20.4893C20.3437 20.0069 21.0055 19.3451 21.4878 18.558C21.9518 17.8008 22.156 16.9456 22.254 15.9147C22.3499 14.9058 22.3499 13.6449 22.3499 12.0457V11.9571C22.3499 10.3579 22.3499 9.09693 22.254 8.08801C22.156 7.05714 21.9518 6.20193 21.4878 5.44475C21.0055 4.6576 20.3437 3.99579 19.5565 3.51342C18.7993 3.04943 17.9441 2.8453 16.9133 2.74728C15.9043 2.65135 14.6434 2.65136 13.0441 2.65137ZM5.33153 4.96291C5.77671 4.69011 6.34102 4.52584 7.24746 4.43965C8.16654 4.35226 9.34673 4.35137 10.9999 4.35137H12.9999C14.6531 4.35137 15.8333 4.35226 16.7523 4.43965C17.6588 4.52584 18.2231 4.69011 18.6683 4.96291C19.2267 5.3051 19.6962 5.77459 20.0384 6.333C20.3112 6.77817 20.4754 7.34249 20.5616 8.24892C20.649 9.168 20.6499 10.3482 20.6499 12.0014C20.6499 13.6545 20.649 14.8347 20.5616 15.7538C20.4754 16.6602 20.3112 17.2246 20.0384 17.6697C19.6962 18.2281 19.2267 18.6976 18.6683 19.0398C18.2231 19.3126 17.6588 19.4769 16.7523 19.5631C15.8333 19.6505 14.6531 19.6514 12.9999 19.6514H10.9999C9.34673 19.6514 8.16654 19.6505 7.24746 19.5631C6.34102 19.4769 5.77671 19.3126 5.33153 19.0398C4.77313 18.6976 4.30364 18.2281 3.96145 17.6697C3.68864 17.2246 3.52437 16.6602 3.43819 15.7538C3.3508 14.8347 3.3499 13.6545 3.3499 12.0014C3.3499 10.3482 3.3508 9.168 3.43819 8.24892C3.52437 7.34249 3.68864 6.77817 3.96145 6.333C4.30364 5.77459 4.77313 5.3051 5.33153 4.96291Z" fill="#1A1A1A"/>
</svg>
