<svg width="24" height="24" viewBox="0 0 24 24" fill="none" xmlns="http://www.w3.org/2000/svg">
<path d="M7.91662 3.71398C7.46317 3.83548 7.19408 4.30157 7.31558 4.75502C7.43708 5.20846 7.90316 5.47756 8.35661 5.35606L16.084 3.28551C16.5375 3.16401 16.8066 2.69792 16.6851 2.24447C16.5636 1.79103 16.0975 1.52193 15.644 1.64343L7.91662 3.71398Z" fill="#1A1A1A"/>
<path d="M9.9999 16.85C9.53046 16.85 9.1499 16.4694 9.1499 16V11C9.1499 10.5306 9.53046 10.15 9.9999 10.15C10.4693 10.15 10.8499 10.5306 10.8499 11V16C10.8499 16.4694 10.4693 16.85 9.9999 16.85Z" fill="#1A1A1A"/>
<path d="M13.1499 16C13.1499 16.4694 13.5305 16.85 13.9999 16.85C14.4693 16.85 14.8499 16.4694 14.8499 16V11C14.8499 10.5306 14.4693 10.15 13.9999 10.15C13.5305 10.15 13.1499 10.5306 13.1499 11V16Z" fill="#1A1A1A"/>
<path fill-rule="evenodd" clip-rule="evenodd" d="M2.1499 7.00078C2.1499 6.53134 2.53046 6.15078 2.9999 6.15078H20.9999C21.4693 6.15078 21.8499 6.53134 21.8499 7.00078C21.8499 7.47022 21.4693 7.85078 20.9999 7.85078H19.7932L19.2726 15.3807C19.2111 16.2694 19.1616 16.9863 19.0751 17.566C18.9859 18.1635 18.849 18.6836 18.5762 19.1605C18.1404 19.9224 17.4844 20.5346 16.6944 20.9167C16.1998 21.156 15.6715 21.2567 15.0692 21.3045C14.4849 21.3508 13.7663 21.3508 12.8754 21.3508H11.1244C10.2335 21.3508 9.51489 21.3508 8.9306 21.3045C8.32831 21.2567 7.80005 21.156 7.30544 20.9167C6.51538 20.5346 5.85939 19.9224 5.42365 19.1605C5.15085 18.6836 5.01392 18.1635 4.92474 17.566C4.83822 16.9863 4.78866 16.2694 4.72723 15.3807L4.20664 7.85078H2.9999C2.53046 7.85078 2.1499 7.47022 2.1499 7.00078ZM5.9107 7.85078H18.0891L17.5791 15.2284C17.5146 16.1603 17.4691 16.8098 17.3937 17.315C17.3198 17.81 17.2259 18.0972 17.1005 18.3165C16.835 18.7806 16.4354 19.1535 15.9541 19.3864C15.7267 19.4963 15.4337 19.5702 14.9348 19.6098C14.4256 19.6502 13.7745 19.6508 12.8404 19.6508H11.1594C10.2253 19.6508 9.57417 19.6502 9.06498 19.6098C8.56614 19.5702 8.27309 19.4963 8.04569 19.3864C7.56439 19.1535 7.16477 18.7806 6.89931 18.3165C6.7739 18.0972 6.67998 17.81 6.60611 17.315C6.53071 16.8098 6.48519 16.1603 6.42076 15.2284L5.9107 7.85078Z" fill="#1A1A1A"/>
</svg>
