<svg width="24" height="24" viewBox="0 0 24 24" fill="none" xmlns="http://www.w3.org/2000/svg">
<path d="M7.9999 2.15039C7.53046 2.15039 7.1499 2.53095 7.1499 3.00039C7.1499 3.46983 7.53046 3.85039 7.9999 3.85039H15.9999C16.4693 3.85039 16.8499 3.46983 16.8499 3.00039C16.8499 2.53095 16.4693 2.15039 15.9999 2.15039H7.9999Z" fill="#1A1A1A"/>
<path d="M9.9999 16.8496C9.53046 16.8496 9.1499 16.4691 9.1499 15.9996V10.9996C9.1499 10.5302 9.53046 10.1496 9.9999 10.1496C10.4693 10.1496 10.8499 10.5302 10.8499 10.9996V15.9996C10.8499 16.4691 10.4693 16.8496 9.9999 16.8496Z" fill="#1A1A1A"/>
<path d="M13.1499 15.9996C13.1499 16.4691 13.5305 16.8496 13.9999 16.8496C14.4693 16.8496 14.8499 16.4691 14.8499 15.9996V10.9996C14.8499 10.5302 14.4693 10.1496 13.9999 10.1496C13.5305 10.1496 13.1499 10.5302 13.1499 10.9996V15.9996Z" fill="#1A1A1A"/>
<path fill-rule="evenodd" clip-rule="evenodd" d="M2.1499 7.00039C2.1499 6.53095 2.53046 6.15039 2.9999 6.15039H20.9999C21.4693 6.15039 21.8499 6.53095 21.8499 7.00039C21.8499 7.46983 21.4693 7.85039 20.9999 7.85039H19.7932L19.2726 15.3803C19.2111 16.269 19.1616 16.9859 19.0751 17.5656C18.9859 18.1632 18.849 18.6832 18.5762 19.1601C18.1404 19.922 17.4844 20.5342 16.6944 20.9163C16.1998 21.1556 15.6715 21.2563 15.0692 21.3041C14.4849 21.3504 13.7663 21.3504 12.8755 21.3504H11.1244C10.2335 21.3504 9.51488 21.3504 8.9306 21.3041C8.32831 21.2563 7.80005 21.1556 7.30544 20.9163C6.51538 20.5342 5.85939 19.922 5.42365 19.1601C5.15085 18.6832 5.01392 18.1632 4.92474 17.5656C4.83822 16.9859 4.78866 16.269 4.72723 15.3803L4.20664 7.85039H2.9999C2.53046 7.85039 2.1499 7.46983 2.1499 7.00039ZM5.9107 7.85039H18.0891L17.5791 15.228C17.5146 16.1599 17.4691 16.8095 17.3937 17.3147C17.3198 17.8096 17.2259 18.0968 17.1005 18.3161C16.835 18.7802 16.4354 19.1532 15.9541 19.386C15.7267 19.496 15.4337 19.5698 14.9348 19.6094C14.4256 19.6498 13.7745 19.6504 12.8404 19.6504H11.1594C10.2253 19.6504 9.57417 19.6498 9.06498 19.6094C8.56614 19.5698 8.27309 19.496 8.04569 19.386C7.56439 19.1532 7.16477 18.7802 6.89931 18.3161C6.7739 18.0968 6.67998 17.8096 6.60611 17.3147C6.53071 16.8095 6.48519 16.1599 6.42076 15.228L5.9107 7.85039Z" fill="#1A1A1A"/>
</svg>
