<svg width="24" height="24" viewBox="0 0 24 24" fill="none" xmlns="http://www.w3.org/2000/svg">
<path d="M12.6998 7.85C12.6998 7.38056 12.3193 7 11.8498 7C11.3804 7 10.9998 7.38056 10.9998 7.85L10.9998 16.15C10.9998 16.6194 11.3804 17 11.8498 17C12.3193 17 12.6998 16.6194 12.6998 16.15V7.85Z" fill="#1A1A1A"/>
<path d="M8.19983 9.85C8.19983 9.38056 7.81927 9 7.34983 9C6.88039 9 6.49983 9.38056 6.49983 9.85V14.15C6.49983 14.6194 6.88039 15 7.34983 15C7.81927 15 8.19983 14.6194 8.19983 14.15L8.19983 9.85Z" fill="#1A1A1A"/>
<path d="M16.3498 9C16.8193 9 17.1998 9.38056 17.1998 9.85V14.15C17.1998 14.6194 16.8193 15 16.3498 15C15.8804 15 15.4998 14.6194 15.4998 14.15L15.4998 9.85C15.4998 9.38056 15.8804 9 16.3498 9Z" fill="#1A1A1A"/>
<path fill-rule="evenodd" clip-rule="evenodd" d="M11.9999 2.15039C6.5599 2.15039 2.1499 6.56039 2.1499 12.0004C2.1499 17.4404 6.5599 21.8504 11.9999 21.8504C17.4399 21.8504 21.8499 17.4404 21.8499 12.0004C21.8499 6.56039 17.4399 2.15039 11.9999 2.15039ZM3.8499 12.0004C3.8499 7.49927 7.49878 3.85039 11.9999 3.85039C16.501 3.85039 20.1499 7.49927 20.1499 12.0004C20.1499 16.5015 16.501 20.1504 11.9999 20.1504C7.49878 20.1504 3.8499 16.5015 3.8499 12.0004Z" fill="#1A1A1A"/>
</svg>
