<svg width="24" height="24" viewBox="0 0 24 24" fill="none" xmlns="http://www.w3.org/2000/svg">
<path d="M2.15039 12C2.15039 10.0035 2.7444 8.14571 3.76532 6.59374L4.99843 7.82685C4.26934 9.04752 3.85039 10.4748 3.85039 12C3.85039 16.5011 7.49927 20.15 12.0004 20.15C13.5256 20.15 14.9529 19.7311 16.1736 19.002L17.4067 20.2351C15.8547 21.256 13.9969 21.85 12.0004 21.85C6.56039 21.85 2.15039 17.44 2.15039 12Z" fill="#1A1A1A"/>
<path d="M8.20044 11.0289L6.60778 9.43621C6.53941 9.55867 6.50044 9.69978 6.50044 9.85V14.15C6.50044 14.6194 6.881 15 7.35044 15C7.81988 15 8.20044 14.6194 8.20044 14.15L8.20044 11.0289Z" fill="#1A1A1A"/>
<path d="M12.7004 16.15V15.5289L11.0004 13.8289V16.15C11.0004 16.6194 11.381 17 11.8504 17C12.3199 17 12.7004 16.6194 12.7004 16.15Z" fill="#1A1A1A"/>
<path d="M11.0004 7.85V8.17201L12.7004 9.87201V7.85C12.7004 7.38056 12.3199 7 11.8504 7C11.381 7 11.0004 7.38056 11.0004 7.85Z" fill="#1A1A1A"/>
<path d="M15.5004 12.672L17.1771 14.3487C17.1924 14.2849 17.2004 14.2184 17.2004 14.15V9.85C17.2004 9.38056 16.8199 9 16.3504 9C15.881 9 15.5004 9.38056 15.5004 9.85L15.5004 12.672Z" fill="#1A1A1A"/>
<path d="M20.1504 12C20.1504 13.5254 19.7313 14.9529 19.0021 16.1737L20.2352 17.4067C21.2563 15.8547 21.8504 13.9967 21.8504 12C21.8504 6.56002 17.4404 2.15002 12.0004 2.15002C10.0037 2.15002 8.14572 2.74414 6.59367 3.76524L7.82676 4.99833C9.04754 4.26907 10.475 3.85002 12.0004 3.85002C16.5015 3.85002 20.1504 7.4989 20.1504 12Z" fill="#1A1A1A"/>
<path d="M4.60104 3.39895C4.2691 3.06701 3.7309 3.06701 3.39896 3.39895C3.06701 3.7309 3.06701 4.26909 3.39896 4.60103L19.399 20.601C19.7309 20.933 20.2691 20.933 20.601 20.601C20.933 20.2691 20.933 19.7309 20.601 19.399L4.60104 3.39895Z" fill="#1A1A1A"/>
</svg>
