<svg width="24" height="24" viewBox="0 0 24 24" fill="none" xmlns="http://www.w3.org/2000/svg">
<path fill-rule="evenodd" clip-rule="evenodd" d="M14.2874 2.76736C15.4004 1.65437 17.2049 1.65437 18.3179 2.76736L19.7321 4.18158C20.8451 5.29457 20.8451 7.09909 19.7321 8.21208L10.3099 17.6344C9.95249 17.9917 9.50653 18.2476 9.01768 18.3758L5.44551 19.3128C4.07637 19.6719 2.82755 18.4231 3.18667 17.054L4.12364 13.4818C4.25186 12.993 4.50777 12.547 4.86513 12.1896L14.2874 2.76736ZM17.1158 3.96944C16.6667 3.52034 15.9386 3.52034 15.4895 3.96944L13.5799 5.87899L16.6205 8.91955L18.53 7.01C18.9791 6.5609 18.9791 5.83276 18.53 5.38366L17.1158 3.96944ZM6.06721 13.3917L12.3778 7.08108L15.4184 10.1216L9.10777 16.4323C8.96357 16.5765 8.78362 16.6797 8.58637 16.7315L5.0142 17.6684C4.90319 17.6976 4.80193 17.5963 4.83105 17.4853L5.76801 13.9131C5.81975 13.7159 5.92301 13.5359 6.06721 13.3917Z" fill="#1A1A1A"/>
<path d="M3.99982 20.1505C3.53038 20.1505 3.14982 20.5311 3.14982 21.0005C3.14982 21.47 3.53038 21.8505 3.99982 21.8505H19.9998C20.4693 21.8505 20.8498 21.47 20.8498 21.0005C20.8498 20.5311 20.4693 20.1505 19.9998 20.1505H3.99982Z" fill="#1A1A1A"/>
</svg>
