<svg width="24" height="24" viewBox="0 0 24 24" fill="none" xmlns="http://www.w3.org/2000/svg">
<path d="M13.4004 4.15042C13.6662 4.15042 13.9167 4.14896 14.126 4.16605C14.2906 4.17949 14.4712 4.20687 14.6553 4.27249L14.8399 4.35159L14.9678 4.42288C15.2575 4.60062 15.4933 4.85571 15.6485 5.16019L15.7276 5.34476C15.7932 5.52891 15.8206 5.7095 15.834 5.87406C15.8511 6.08332 15.8496 6.33383 15.8496 6.59964V8.00003C15.8496 8.46947 15.4695 8.84964 15 8.84964C14.5306 8.84962 14.1504 8.46946 14.1504 8.00003V6.59964C14.1504 6.30609 14.1498 6.13675 14.1397 6.01273C14.1357 5.96407 14.1297 5.93619 14.127 5.92288C14.1143 5.90196 14.0973 5.88463 14.0762 5.8721C14.0625 5.86936 14.0346 5.86425 13.9873 5.86038C13.8633 5.85027 13.694 5.84964 13.4004 5.84964H9.85062V18.1504H13L13.0869 18.1543C13.5156 18.1979 13.8496 18.5599 13.8496 19C13.8496 19.4401 13.5156 19.8022 13.0869 19.8457L13 19.8496H5.00003C4.53059 19.8496 4.15042 19.4695 4.15042 19C4.15042 18.5306 4.53059 18.1504 5.00003 18.1504H8.15042V5.84964H4.59964C4.30609 5.84964 4.13675 5.85027 4.01273 5.86038C3.9643 5.86434 3.93626 5.86938 3.92288 5.8721C3.902 5.8847 3.8847 5.902 3.8721 5.92288C3.86938 5.93626 3.86434 5.9643 3.86038 6.01273C3.85027 6.13675 3.84964 6.30609 3.84964 6.59964V8.00003L3.84573 8.08695C3.80221 8.51556 3.44013 8.84964 3.00003 8.84964C2.55994 8.84963 2.19785 8.51555 2.15433 8.08695L2.15042 8.00003V6.59964C2.15042 6.33383 2.14895 6.08332 2.16605 5.87406C2.18397 5.65476 2.2259 5.40691 2.35159 5.16019L2.42288 5.03226C2.60062 4.7426 2.85571 4.50674 3.16019 4.35159L3.34476 4.27249C3.52891 4.20686 3.7095 4.17949 3.87406 4.16605C4.08332 4.14895 4.33383 4.15042 4.59964 4.15042H13.4004Z" fill="#1A1A1A"/>
<path d="M20.1465 10.8301C20.2818 10.8301 20.4349 10.8291 20.5664 10.8399C20.6726 10.8486 20.8061 10.867 20.9493 10.918L21.0948 10.9805L21.1905 11.0342C21.3757 11.1479 21.5317 11.3041 21.6455 11.4893L21.6993 11.585L21.7618 11.7305C21.8127 11.8735 21.8312 12.0072 21.8399 12.1133C21.8506 12.2448 21.8506 12.398 21.8506 12.5332V13.1993C21.8506 13.6687 21.4695 14.0498 21 14.0498C20.5306 14.0498 20.1504 13.6686 20.1504 13.1993V12.5332L20.1494 12.5293H18.7002V18.1504H20L20.0869 18.1543C20.5156 18.1979 20.8496 18.5599 20.8496 19C20.8496 19.4401 20.5156 19.8022 20.0869 19.8457L20 19.8496H16C15.5306 19.8496 15.1504 19.4695 15.1504 19C15.1504 18.5306 15.5306 18.1504 16 18.1504H17V12.5293H15.5889V13.1993L15.585 13.2862C15.5417 13.715 15.1795 14.0498 14.7393 14.0498C14.299 14.0498 13.9369 13.715 13.8936 13.2862L13.8897 13.1993V12.5332L13.8907 12.3223C13.8918 12.2508 13.8941 12.1791 13.8994 12.1133C13.911 11.9719 13.9399 11.7815 14.0401 11.585L14.0938 11.4893C14.2267 11.273 14.4171 11.0964 14.6446 10.9805L14.7901 10.918C14.9332 10.867 15.0668 10.8486 15.1729 10.8399C15.3045 10.8291 15.4575 10.8301 15.5928 10.8301H20.1465Z" fill="#1A1A1A"/>
</svg>
