<svg width="24" height="24" viewBox="0 0 24 24" fill="none" xmlns="http://www.w3.org/2000/svg">
<path d="M3.99951 6C3.99951 4.89543 4.89494 4 5.99951 4H17.9995C19.1041 4 19.9995 4.89543 19.9995 6V8C19.9995 8.55228 19.5518 9 18.9995 9C18.4472 9 17.9995 8.55228 17.9995 8V6H12.9995V18H15.9995C16.5518 18 16.9995 18.4477 16.9995 19C16.9995 19.5523 16.5518 20 15.9995 20H7.99951C7.44723 20 6.99951 19.5523 6.99951 19C6.99951 18.4477 7.44723 18 7.99951 18H10.9995V6H5.99951V8C5.99951 8.55228 5.5518 9 4.99951 9C4.44723 9 3.99951 8.55228 3.99951 8V6Z" fill="#1A1A1A"/>
</svg>
