<svg width="24" height="24" viewBox="0 0 24 24" fill="none" xmlns="http://www.w3.org/2000/svg">
<path d="M16.1579 10.9011C16.5702 11.1255 16.7226 11.6417 16.4982 12.054C15.9786 13.0086 15.1769 13.715 14.2535 14.1237C13.2338 14.575 12.0621 14.6647 10.952 14.3266C10.5029 14.1898 10.2498 13.7149 10.3865 13.2658C10.5233 12.8167 10.9982 12.5636 11.4473 12.7003C12.1562 12.9162 12.9082 12.86 13.5656 12.5691C14.1581 12.3069 14.6709 11.8553 15.005 11.2413C15.2294 10.829 15.7456 10.6767 16.1579 10.9011Z" fill="#1A1A1A"/>
<path d="M9.78506 7.18555C10.2545 7.18555 10.6351 7.5661 10.6351 8.03555V10.1784C10.6351 10.6478 10.2545 11.0284 9.78506 11.0284C9.31562 11.0284 8.93506 10.6478 8.93506 10.1784V8.03555C8.93506 7.5661 9.31562 7.18555 9.78506 7.18555Z" fill="#1A1A1A"/>
<path d="M13.8499 8.03555C13.8499 7.5661 13.4693 7.18555 12.9999 7.18555C12.5305 7.18555 12.1499 7.5661 12.1499 8.03555V10.1784C12.1499 10.6478 12.5305 11.0284 12.9999 11.0284C13.4693 11.0284 13.8499 10.6478 13.8499 10.1784V8.03555Z" fill="#1A1A1A"/>
<path fill-rule="evenodd" clip-rule="evenodd" d="M4.79717 6.69823C6.48359 4.25273 9.30453 2.6499 12.4998 2.6499C17.413 2.6499 21.4411 6.43945 21.8206 11.2551C22.4821 11.8158 23.0224 12.4173 23.3789 13.0467C23.7915 13.775 23.9838 14.5938 23.748 15.4146C23.5029 16.2681 22.8623 16.8906 22.0839 17.3221C21.3837 17.7102 20.5156 17.978 19.549 18.1428C17.8349 20.108 15.3124 21.3499 12.4998 21.3499C8.91388 21.3499 5.79942 19.3312 4.23089 16.3682C5.21969 16.893 6.32231 17.3751 7.50844 17.7974C8.8482 18.9519 10.5925 19.6499 12.4998 19.6499C14.0802 19.6499 15.5487 19.1707 16.7678 18.3496C14.8864 18.3395 12.7588 18.0675 10.5734 17.5212C7.94647 16.8645 5.60829 15.9048 3.82424 14.8142C2.61773 14.0767 1.62369 13.2544 0.976318 12.3891C0.332318 11.5283 -0.0445145 10.5123 0.251854 9.48041C0.509724 8.5826 1.20399 7.94131 2.0393 7.50676C2.79882 7.11163 3.74411 6.84799 4.79717 6.69823ZM4.84983 11.9999C4.84983 7.77492 8.27485 4.3499 12.4998 4.3499C16.7248 4.3499 20.1498 7.77492 20.1498 11.9999C20.1498 13.7062 19.5912 15.282 18.6469 16.5544C16.5897 16.7919 13.8756 16.5943 10.9857 15.8719C8.49518 15.2494 6.32294 14.3491 4.71089 13.3637C3.60901 12.6901 2.8095 12.0015 2.33752 11.3707C1.86216 10.7353 1.79382 10.2699 1.88579 9.94971C1.96952 9.65821 2.22899 9.32436 2.82387 9.01488C3.08953 8.87668 3.40551 8.7528 3.76903 8.64687C3.52264 9.28802 3.34485 9.96318 3.24463 10.6634L3.25823 10.6817C3.55592 11.0796 4.07693 11.5669 4.85032 12.0874C4.84999 12.0583 4.84983 12.0291 4.84983 11.9999ZM20.961 15.9839C21.0673 15.9363 21.167 15.8866 21.2597 15.8352C21.7966 15.5376 22.0344 15.2228 22.1141 14.9453C22.1885 14.6862 22.1592 14.3427 21.8997 13.8845C21.8465 13.7905 21.7847 13.694 21.7142 13.5953C21.5699 14.4351 21.3135 15.2367 20.961 15.9839Z" fill="#1A1A1A"/>
</svg>
