<svg width="24" height="24" viewBox="0 0 24 24" fill="none" xmlns="http://www.w3.org/2000/svg">
<path d="M16.6332 14.675C16.8679 14.2685 16.7286 13.7486 16.3221 13.5139C15.9155 13.2792 15.3957 13.4185 15.1609 13.825C14.8406 14.3799 14.3798 14.8407 13.8249 15.161C13.2701 15.4814 12.6407 15.65 11.9999 15.65C11.3592 15.65 10.7298 15.4814 10.1749 15.161C9.62007 14.8407 9.1593 14.3799 8.83895 13.825C8.60423 13.4185 8.08438 13.2792 7.67783 13.5139C7.27128 13.7486 7.13198 14.2685 7.36671 14.675C7.83627 15.4883 8.51164 16.1637 9.32494 16.6333C10.1382 17.1028 11.0608 17.35 11.9999 17.35C12.9391 17.35 13.8616 17.1028 14.6749 16.6333C15.4882 16.1637 16.1636 15.4883 16.6332 14.675Z" fill="#1A1A1A"/>
<path d="M8.84951 7.55005C9.31895 7.55005 9.69951 7.93061 9.69951 8.40005V11.1C9.69951 11.5695 9.31895 11.95 8.84951 11.95C8.38007 11.95 7.99951 11.5695 7.99951 11.1V8.40005C7.99951 7.93061 8.38007 7.55005 8.84951 7.55005Z" fill="#1A1A1A"/>
<path d="M15.9983 8.40005C15.9983 7.93061 15.6178 7.55005 15.1483 7.55005C14.6789 7.55005 14.2983 7.93061 14.2983 8.40005V11.1C14.2983 11.5695 14.6789 11.95 15.1483 11.95C15.6178 11.95 15.9983 11.5695 15.9983 11.1V8.40005Z" fill="#1A1A1A"/>
<path fill-rule="evenodd" clip-rule="evenodd" d="M12 2.1499C6.56002 2.1499 2.15002 6.5599 2.15002 11.9999C2.15002 17.4399 6.56002 21.8499 12 21.8499C17.44 21.8499 21.85 17.4399 21.85 11.9999C21.85 6.5599 17.44 2.1499 12 2.1499ZM3.85002 11.9999C3.85002 7.49878 7.4989 3.8499 12 3.8499C16.5011 3.8499 20.15 7.49878 20.15 11.9999C20.15 16.501 16.5011 20.1499 12 20.1499C7.4989 20.1499 3.85002 16.501 3.85002 11.9999Z" fill="#1A1A1A"/>
</svg>
