<svg width="24" height="24" viewBox="0 0 24 24" fill="none" xmlns="http://www.w3.org/2000/svg">
<path d="M18.8498 5.00039C18.8498 4.53095 18.4692 4.15039 17.9998 4.15039C17.5304 4.15039 17.1498 4.53095 17.1498 5.00039V12.5004C17.1498 13.4117 16.4111 14.1504 15.4998 14.1504H5.5513L8.10104 11.6006C8.43298 11.2687 8.43298 10.7305 8.10104 10.3986C7.76909 10.0666 7.2309 10.0666 6.89896 10.3986L3.60606 13.6915C2.88359 14.4139 2.88359 15.5853 3.60606 16.3078L6.89896 19.6006C7.2309 19.9326 7.76909 19.9326 8.10104 19.6006C8.43298 19.2687 8.43298 18.7305 8.10104 18.3986L5.55286 15.8504H15.4998C17.35 15.8504 18.8498 14.3505 18.8498 12.5004V5.00039Z" fill="#1A1A1A"/>
</svg>
