<svg width="24" height="24" viewBox="0 0 24 24" fill="none" xmlns="http://www.w3.org/2000/svg">
<path fill-rule="evenodd" clip-rule="evenodd" d="M10.7565 3.6198C9.47132 2.41732 7.36471 3.18407 7.15315 4.9313L6.87147 7.25762C6.85415 7.40064 6.7694 7.52673 6.6435 7.59677L4.59407 8.73689C3.06327 9.5885 3.13883 11.8152 4.72383 12.5611L6.8634 13.5679C6.99301 13.6289 7.08584 13.748 7.11339 13.8886L7.56788 16.2079C7.90573 17.9319 10.0566 18.545 11.2526 17.2581L12.8402 15.5499C12.9386 15.444 13.082 15.3918 13.2254 15.4097L15.5396 15.6978C17.283 15.9148 18.5366 14.0626 17.6872 12.5247L16.5446 10.4559C16.4753 10.3305 16.4699 10.1796 16.53 10.0496L17.5218 7.90302C18.2565 6.31282 16.8831 4.55849 15.163 4.8901L12.8602 5.33406C12.7188 5.36133 12.5728 5.31922 12.4676 5.22079L10.7565 3.6198ZM8.84082 5.13566C8.8851 4.76995 9.32602 4.60947 9.59501 4.86115L11.3061 6.46215C11.8087 6.93244 12.5062 7.13363 13.182 7.00332L15.4849 6.55936C15.8449 6.48996 16.1323 6.85714 15.9785 7.18997L14.9867 9.33654C14.6997 9.95785 14.7256 10.6787 15.0565 11.2778L16.1991 13.3467C16.3769 13.6685 16.1145 14.0562 15.7496 14.0108L13.4354 13.7227C12.75 13.6373 12.0652 13.8866 11.595 14.3926L10.0074 16.1008C9.75705 16.3701 9.30686 16.2418 9.23615 15.881L8.78166 13.5617C8.65005 12.89 8.20652 12.3212 7.58724 12.0297L5.44768 11.0229C5.11594 10.8668 5.10012 10.4007 5.42052 10.2225L7.46995 9.08236C8.07147 8.74772 8.4764 8.14531 8.55914 7.46197L8.84082 5.13566Z" fill="#1A1A1A"/>
<path d="M7.99987 20.1503C7.53042 20.1503 7.14986 20.5308 7.14986 21.0003C7.14986 21.4697 7.53042 21.8503 7.99987 21.8503H18.1844C18.6538 21.8503 19.0344 21.4697 19.0344 21.0003C19.0344 20.5308 18.6538 20.1503 18.1844 20.1503H7.99987Z" fill="#1A1A1A"/>
</svg>
