<svg width="24" height="24" viewBox="0 0 24 24" fill="none" xmlns="http://www.w3.org/2000/svg">
<path d="M12.9269 11.9807C12.9534 11.9122 13.0077 11.8582 13.0763 11.832L15.1435 11.043C15.366 10.9581 15.366 10.6434 15.1435 10.5585L13.0763 9.76954C13.0077 9.74335 12.9534 9.6893 12.9269 9.6208L12.131 7.56226C12.0455 7.34123 11.7328 7.34123 11.6474 7.56226L10.8515 9.62081C10.825 9.6893 10.7707 9.74335 10.7021 9.76954L8.63484 10.5585C8.41241 10.6434 8.41241 10.9581 8.63484 11.043L10.7021 11.832C10.7707 11.8582 10.825 11.9122 10.8515 11.9807L11.6474 14.0393C11.7328 14.2603 12.0455 14.2603 12.131 14.0393L12.9269 11.9807Z" fill="#1A1A1A"/>
<path fill-rule="evenodd" clip-rule="evenodd" d="M1.65015 18.0004C1.65015 18.0151 1.65052 18.0298 1.65126 18.0443V18.7131C1.65126 20.5546 3.82591 21.5328 5.20383 20.3112L6.85145 18.8504H16.5001C19.731 18.8504 22.3501 16.2313 22.3501 13.0004V9.00039C22.3501 5.76953 19.731 3.15039 16.5001 3.15039H7.50015C4.26928 3.15039 1.65015 5.76952 1.65015 9.00039V18.0004ZM20.6501 9.00039C20.6501 6.70841 18.7921 4.85039 16.5001 4.85039H7.50015C5.20817 4.85039 3.35015 6.70841 3.35015 9.00039V17.9565C3.35089 17.971 3.35126 17.9857 3.35126 18.0004V18.7131C3.35126 19.0888 3.79492 19.2884 4.07604 19.0391L5.965 17.3644C6.12049 17.2265 6.3211 17.1504 6.5289 17.1504H16.5001C18.7921 17.1504 20.6501 15.2924 20.6501 13.0004V9.00039Z" fill="#1A1A1A"/>
</svg>
