<svg width="24" height="24" viewBox="0 0 24 24" fill="none" xmlns="http://www.w3.org/2000/svg">
<path d="M17.0557 13.599C17.3877 13.2671 17.9259 13.2671 18.2579 13.599C18.5898 13.931 18.5898 14.4692 18.2579 14.8012L12.6006 20.4574L12.5362 20.516C12.2023 20.7882 11.7106 20.7686 11.3995 20.4574L5.74225 14.8012L5.68366 14.7367C5.41136 14.4029 5.43107 13.9102 5.74225 13.599C6.05345 13.2878 6.54609 13.2681 6.87995 13.5404L6.9444 13.599L12.0001 18.6557L17.0557 13.599ZM11.4639 3.48381C11.7977 3.21173 12.2895 3.23138 12.6006 3.5424L18.2579 9.19963L18.3165 9.2631C18.5887 9.59692 18.569 10.0896 18.2579 10.4008C17.9467 10.712 17.454 10.7317 17.1202 10.4594L17.0557 10.4008L12.0001 5.34513L6.9444 10.4008C6.61245 10.7327 6.0742 10.7327 5.74225 10.4008C5.41051 10.0689 5.41061 9.53155 5.74225 9.19963L11.3995 3.5424L11.4639 3.48381Z" fill="#1A1A1A"/>
</svg>
