<svg width="24" height="24" viewBox="0 0 24 24" fill="none" xmlns="http://www.w3.org/2000/svg">
<path d="M14.5411 3.85002C13.3646 3.32965 12.0689 3.02954 10.7063 3.00196C11.8561 2.45562 13.1423 2.1499 14.5 2.1499C19.3877 2.1499 23.35 6.11218 23.35 10.9999C23.35 14.3985 21.4343 17.3496 18.6238 18.8324C19.3832 17.7766 19.9418 16.5667 20.2438 15.2587C21.1273 14.0691 21.65 12.5955 21.65 10.9999C21.65 7.06477 18.471 3.87212 14.5411 3.85002Z" fill="#1A1A1A"/>
<path d="M14.2382 14.5138C14.6448 14.7485 14.7841 15.2683 14.5493 15.6749C14.1237 16.4122 13.5114 17.0244 12.7741 17.4501C12.0368 17.8758 11.2005 18.0999 10.3491 18.0999C9.49777 18.0999 8.66141 17.8758 7.92412 17.4501C7.18683 17.0244 6.57457 16.4122 6.1489 15.6749C5.91418 15.2683 6.05347 14.7485 6.46002 14.5138C6.86657 14.279 7.38642 14.4183 7.62114 14.8249C7.89761 15.3037 8.29526 15.7014 8.77412 15.9779C9.25298 16.2543 9.79618 16.3999 10.3491 16.3999C10.9021 16.3999 11.4453 16.2543 11.9241 15.9779C12.403 15.7014 12.8006 15.3037 13.0771 14.8249C13.3118 14.4183 13.8317 14.279 14.2382 14.5138Z" fill="#1A1A1A"/>
<path d="M8.39834 10.0498C8.39834 9.58036 8.01778 9.1998 7.54834 9.1998C7.0789 9.1998 6.69834 9.58036 6.69834 10.0498V12.4498C6.69834 12.9192 7.0789 13.2998 7.54834 13.2998C8.01778 13.2998 8.39834 12.9192 8.39834 12.4498V10.0498Z" fill="#1A1A1A"/>
<path d="M13.1499 9.1998C13.6193 9.1998 13.9999 9.58036 13.9999 10.0498V12.4498C13.9999 12.9192 13.6193 13.2998 13.1499 13.2998C12.6805 13.2998 12.2999 12.9192 12.2999 12.4498V10.0498C12.2999 9.58036 12.6805 9.1998 13.1499 9.1998Z" fill="#1A1A1A"/>
<path fill-rule="evenodd" clip-rule="evenodd" d="M1.49951 12.9999C1.49951 8.11218 5.46179 4.1499 10.3495 4.1499C15.2372 4.1499 19.1995 8.11218 19.1995 12.9999C19.1995 17.8876 15.2372 21.8499 10.3495 21.8499C5.46179 21.8499 1.49951 17.8876 1.49951 12.9999ZM10.3495 5.8499C6.40068 5.8499 3.19951 9.05107 3.19951 12.9999C3.19951 16.9487 6.40068 20.1499 10.3495 20.1499C14.2983 20.1499 17.4995 16.9487 17.4995 12.9999C17.4995 9.05107 14.2983 5.8499 10.3495 5.8499Z" fill="#1A1A1A"/>
</svg>
