<svg width="24" height="24" viewBox="0 0 24 24" fill="none" xmlns="http://www.w3.org/2000/svg">
<path d="M5.10094 3.89935C4.769 3.5674 4.23081 3.5674 3.89886 3.89935C3.56692 4.2313 3.56692 4.76949 3.89886 5.10143L18.8989 20.1014C19.2308 20.4334 19.769 20.4334 20.1009 20.1014C20.4329 19.7695 20.4329 19.2313 20.1009 18.8994L5.10094 3.89935Z" fill="#1A1A1A"/>
<path d="M3.97281 7.51312C4.12679 7.36484 4.28741 7.21728 4.45462 7.0714L5.65981 8.27659C5.483 8.42781 5.31371 8.58194 5.152 8.73766C4.36307 9.49737 3.76739 10.2837 3.37363 10.928C3.17651 11.2506 3.03582 11.528 2.94743 11.7398C2.88763 11.8831 2.86442 11.9667 2.85545 12.0004C2.86442 12.0341 2.88763 12.1176 2.94743 12.2609C3.03582 12.4728 3.17651 12.7502 3.37363 13.0728C3.76739 13.7171 4.36307 14.5034 5.152 15.2631C6.73014 16.7828 9.02955 18.1504 11.9999 18.1504C13.1033 18.1504 14.1141 17.9617 15.0298 17.6466L16.3439 18.9607C15.0768 19.5038 13.6264 19.8504 11.9999 19.8504C8.47025 19.8504 5.76967 18.218 3.97281 16.4877C3.07423 15.6224 2.38867 14.7212 1.92305 13.9592C1.69048 13.5787 1.50695 13.2233 1.37855 12.9156C1.26404 12.6412 1.1499 12.3052 1.1499 12.0004C1.1499 11.6956 1.26404 11.3596 1.37855 11.0852C1.50695 10.7774 1.69048 10.4221 1.92305 10.0415C2.38867 9.27961 3.07423 8.37841 3.97281 7.51312Z" fill="#1A1A1A"/>
<path d="M7.65593 5.04012L8.97003 6.35423C9.88569 6.0391 10.8965 5.85039 11.9999 5.85039C14.9703 5.85039 17.2697 7.21797 18.8478 8.73766C19.6367 9.49737 20.2324 10.2837 20.6262 10.928C20.8233 11.2506 20.964 11.528 21.0524 11.7398C21.1122 11.8831 21.1354 11.9667 21.1444 12.0004C21.1354 12.0341 21.1122 12.1177 21.0524 12.2609C20.964 12.4728 20.8233 12.7502 20.6262 13.0728C20.2324 13.7171 19.6367 14.5034 18.8478 15.2631C18.6861 15.4188 18.5168 15.573 18.34 15.7242L19.5452 16.9294C19.7124 16.7835 19.873 16.6359 20.027 16.4877C20.9256 15.6224 21.6111 14.7212 22.0768 13.9592C22.3093 13.5787 22.4929 13.2233 22.6213 12.9156C22.7358 12.6412 22.8499 12.3052 22.8499 12.0004C22.8499 11.6956 22.7358 11.3596 22.6213 11.0852C22.4929 10.7774 22.3093 10.4221 22.0768 10.0415C21.6111 9.27961 20.9256 8.37841 20.027 7.51312C18.2301 5.78281 15.5296 4.15039 11.9999 4.15039C10.3734 4.15039 8.92301 4.49702 7.65593 5.04012Z" fill="#1A1A1A"/>
<path d="M8.1499 12.0004C8.1499 11.6254 8.20351 11.263 8.30348 10.9203L9.91644 12.5332C10.11 13.2925 10.7078 13.8903 11.4671 14.0839L13.08 15.6968C12.7373 15.7968 12.3749 15.8504 11.9999 15.8504C9.87361 15.8504 8.1499 14.1267 8.1499 12.0004Z" fill="#1A1A1A"/>
<path d="M10.9198 8.30397L12.5327 9.91693C13.292 10.1105 13.8898 10.7083 14.0834 11.4676L15.6963 13.0805C15.7963 12.7378 15.8499 12.3754 15.8499 12.0004C15.8499 9.87409 14.1262 8.15039 11.9999 8.15039C11.6249 8.15039 11.2625 8.204 10.9198 8.30397Z" fill="#1A1A1A"/>
</svg>
