<svg width="24" height="24" viewBox="0 0 24 24" fill="none" xmlns="http://www.w3.org/2000/svg">
<path d="M12 4.15039C15.5296 4.15042 18.2305 5.78241 20.0273 7.5127C20.9259 8.37799 21.6115 9.28007 22.0771 10.042C22.3095 10.4223 22.4927 10.7774 22.6211 11.085C22.7355 11.3592 22.8495 11.6953 22.8496 12C22.8496 12.3048 22.7356 12.6416 22.6211 12.916C22.4927 13.2235 22.3095 13.5787 22.0771 13.959C21.6116 14.7208 20.9257 15.6221 20.0273 16.4873C18.2305 18.2176 15.5296 19.8506 12 19.8506C8.47035 19.8506 5.76952 18.2176 3.97266 16.4873C3.07421 15.6221 2.38842 14.7208 1.92285 13.959C1.69048 13.5787 1.50727 13.2235 1.37891 12.916C1.2644 12.6416 1.14941 12.3048 1.14941 12C1.14951 11.6953 1.26445 11.3592 1.37891 11.085C1.50726 10.7774 1.69048 10.4223 1.92285 10.042C2.38847 9.28007 3.07408 8.37799 3.97266 7.5127C5.76952 5.78243 8.47044 4.15039 12 4.15039ZM12 5.85059C9.02987 5.85059 6.73047 7.21775 5.15234 8.7373C4.36357 9.49687 3.76778 10.2835 3.37402 10.9277C3.1769 11.2503 3.03566 11.5284 2.94727 11.7402C2.88781 11.8828 2.8645 11.9661 2.85547 12C2.86443 12.0337 2.88754 12.1176 2.94727 12.2607C3.03566 12.4726 3.1769 12.7507 3.37402 13.0732C3.76778 13.7175 4.36364 14.5032 5.15234 15.2627C6.73049 16.7824 9.02965 18.1504 12 18.1504C14.9703 18.1504 17.2695 16.7824 18.8477 15.2627C19.6363 14.5032 20.2322 13.7175 20.626 13.0732C20.8231 12.7507 20.9643 12.4726 21.0527 12.2607C21.1124 12.1176 21.1356 12.0337 21.1445 12C21.1355 11.9661 21.1122 11.8828 21.0527 11.7402C20.9643 11.5284 20.8231 11.2503 20.626 10.9277C20.2322 10.2835 19.6365 9.4969 18.8477 8.7373C17.2695 7.21773 14.9701 5.85062 12 5.85059ZM12 7.85059C14.2916 7.85085 16.1502 9.70836 16.1504 12C16.1504 14.2918 14.2918 16.1501 12 16.1504C9.7082 16.1502 7.85059 14.2919 7.85059 12C7.8508 9.70833 9.70833 7.8508 12 7.85059ZM12 10.1504C10.9786 10.1506 10.1506 10.9786 10.1504 12C10.1504 13.0216 10.9785 13.8504 12 13.8506C13.0215 13.8503 13.8506 13.0216 13.8506 12C13.8504 10.9786 13.0214 10.1507 12 10.1504Z" fill="#1A1A1A"/>
</svg>
