<svg width="24" height="24" viewBox="0 0 24 24" fill="none" xmlns="http://www.w3.org/2000/svg">
<path fill-rule="evenodd" clip-rule="evenodd" d="M17.8517 5.26421C18.1752 4.92405 18.7133 4.91057 19.0534 5.23409C19.9838 6.11897 20.7242 7.1718 21.2302 8.33364C21.7362 9.4956 21.9973 10.7426 21.9973 12.003C21.9973 13.2635 21.7362 14.5105 21.2302 15.6724C20.7242 16.8343 19.9838 17.8871 19.0534 18.772C18.7133 19.0955 18.1752 19.082 17.8517 18.7418C17.5282 18.4017 17.5417 17.8637 17.8818 17.5401C18.6506 16.809 19.258 15.9433 19.6716 14.9936C20.0851 14.0441 20.2973 13.028 20.2973 12.003C20.2973 10.978 20.0851 9.96194 19.6716 9.01243C19.258 8.0628 18.6506 7.19709 17.8818 6.46591C17.5417 6.14239 17.5282 5.60436 17.8517 5.26421ZM15.08 7.90127C15.4035 7.56112 15.9415 7.54763 16.2817 7.87116C16.848 8.40974 17.2996 9.05145 17.6085 9.76084C17.9175 10.4703 18.0772 11.2324 18.0772 12.0031C18.0772 12.7738 17.9175 13.5358 17.6085 14.2453C17.2996 14.9547 16.848 15.5964 16.2817 16.135C15.9415 16.4585 15.4035 16.445 15.08 16.1049C14.7565 15.7647 14.77 15.2267 15.1101 14.9032C15.5148 14.5183 15.8334 14.0637 16.0499 13.5665C16.2664 13.0695 16.3772 12.5384 16.3772 12.0031C16.3772 11.4678 16.2664 10.9367 16.0499 10.4396C15.8334 9.94245 15.5148 9.48786 15.1101 9.10298C14.77 8.77945 14.7565 8.24143 15.08 7.90127ZM7.71659 16.1349C8.05675 16.4585 8.59477 16.445 8.9183 16.1048C9.24182 15.7647 9.22834 15.2267 8.88818 14.9031C8.48352 14.5183 8.16492 14.0637 7.9484 13.5665C7.73193 13.0694 7.62114 12.5383 7.62114 12.003C7.62114 11.4678 7.73193 10.9366 7.9484 10.4396C8.16492 9.94239 8.48352 9.4878 8.88818 9.10292C9.22834 8.7794 9.24182 8.24138 8.9183 7.90122C8.59477 7.56106 8.05675 7.54758 7.71659 7.8711C7.15033 8.40968 6.69874 9.05139 6.38979 9.76078C6.0808 10.4703 5.92113 11.2323 5.92113 12.003C5.92113 12.7737 6.0808 13.5358 6.38979 14.2453C6.69874 14.9547 7.15033 15.5964 7.71659 16.1349ZM6.1456 18.7419C5.82208 19.0821 5.28405 19.0955 4.9439 18.772C4.01353 17.8871 3.27312 16.8343 2.76713 15.6725C2.26108 14.5105 2 13.2635 2 12.0031C2 10.7426 2.26108 9.49566 2.76713 8.33369C3.27312 7.17185 4.01353 6.11902 4.9439 5.23415C5.28405 4.91062 5.82208 4.9241 6.1456 5.26426C6.46913 5.60442 6.45564 6.14244 6.11549 6.46596C5.34672 7.19714 4.7393 8.06285 4.32573 9.01248C3.91221 9.96199 3.7 10.9781 3.7 12.0031C3.7 13.0281 3.91221 14.0442 4.32573 14.9937C4.7393 15.9433 5.34672 16.809 6.11549 17.5402C6.45564 17.8637 6.46913 18.4017 6.1456 18.7419ZM11.9981 13.6308C12.8403 13.6308 13.5229 12.9815 13.5229 12.1805C13.5229 11.3796 12.8403 10.7302 11.9981 10.7302C11.156 10.7302 10.4733 11.3796 10.4733 12.1805C10.4733 12.9815 11.156 13.6308 11.9981 13.6308Z" fill="#1A1A1A"/>
</svg>
