<svg width="24" height="24" viewBox="0 0 24 24" fill="none" xmlns="http://www.w3.org/2000/svg">
<path fill-rule="evenodd" clip-rule="evenodd" d="M13.2404 6.38395C14.7866 4.64451 17.4606 4.51636 19.166 6.09997L19.2697 6.19622C20.7588 7.57895 20.9894 9.85244 19.8083 11.506C19.5354 11.888 19.6239 12.4189 20.0059 12.6917C20.3879 12.9646 20.9188 12.8761 21.1916 12.4941C22.8696 10.1449 22.542 6.91492 20.4265 4.95047L20.3228 4.85422C17.9298 2.63215 14.1839 2.80095 11.9999 5.22091C9.80861 2.79339 6.02676 2.67236 3.64159 4.88716C1.50858 6.86781 1.12071 10.1548 2.79985 12.5536C3.49613 13.5483 4.27801 14.4802 5.13656 15.3388L10.6918 20.894C11.4143 21.6165 12.5856 21.6165 13.3081 20.894L15.101 19.1011C15.4329 18.7692 15.4329 18.231 15.101 17.899C14.769 17.5671 14.2308 17.5671 13.8989 17.899L12.106 19.6919C12.0474 19.7505 11.9524 19.7505 11.8939 19.6919L6.33864 14.1367C5.55012 13.3482 4.83203 12.4923 4.19254 11.5787C3.01 9.88937 3.27461 7.54782 4.79836 6.13291C6.51168 4.54197 9.2204 4.65251 10.7595 6.38395L11.9999 7.77949L13.2404 6.38395ZM17.6898 18.0904L18.6568 16.1564L20.5908 15.1894C20.9593 15.0051 20.9593 14.4792 20.5908 14.295L18.6568 13.328L17.6898 11.394C17.5056 11.0255 16.9797 11.0255 16.7954 11.394L15.8284 13.328L13.8944 14.295C13.5259 14.4792 13.5259 15.0051 13.8944 15.1894L15.8284 16.1564L16.7954 18.0904C16.9797 18.4589 17.5056 18.4589 17.6898 18.0904Z" fill="#1A1A1A"/>
</svg>
