<svg width="24" height="24" viewBox="0 0 24 24" fill="none" xmlns="http://www.w3.org/2000/svg">
<path fill-rule="evenodd" clip-rule="evenodd" d="M11.9999 3.8499C9.15564 3.8499 6.8499 6.15564 6.8499 8.9999C6.8499 11.8442 9.15564 14.1499 11.9999 14.1499C14.8442 14.1499 17.1499 11.8442 17.1499 8.9999C17.1499 6.15564 14.8442 3.8499 11.9999 3.8499ZM5.1499 8.9999C5.1499 5.21675 8.21675 2.1499 11.9999 2.1499C15.7831 2.1499 18.8499 5.21675 18.8499 8.9999C18.8499 12.4947 16.2328 15.3782 12.8515 15.7975V17.3H16.5015C16.9709 17.3 17.3515 17.6806 17.3515 18.15C17.3515 18.6194 16.9709 19 16.5015 19H12.8515V20.9999C12.8515 21.4694 12.4709 21.8499 12.0015 21.8499C11.532 21.8499 11.1515 21.4694 11.1515 20.9999V19H7.50146C7.03202 19 6.65146 18.6194 6.65146 18.15C6.65146 17.6806 7.03202 17.3 7.50146 17.3H11.1515V15.7979C7.76865 15.38 5.1499 12.4958 5.1499 8.9999Z" fill="#FF80BF"/>
</svg>
