<svg width="24" height="24" viewBox="0 0 24 24" fill="none" xmlns="http://www.w3.org/2000/svg">
<path fill-rule="evenodd" clip-rule="evenodd" d="M9.34739 5.05019C10.1253 5.05019 10.3394 5.05865 10.5219 5.11339C10.7083 5.16935 10.8821 5.26113 11.0335 5.38358C11.1815 5.50338 11.3092 5.67543 11.7479 6.31794L12.0354 6.73908L12.0481 6.75795C12.0953 6.82857 12.2005 6.98588 12.3497 7.10661C12.4751 7.2081 12.6192 7.28416 12.7737 7.33053C12.9576 7.3857 13.1468 7.38388 13.2317 7.38307L13.2545 7.38291H16.7313C17.4486 7.38291 17.9355 7.38357 18.3117 7.4143C18.678 7.44423 18.8638 7.49837 18.9926 7.56401C19.3053 7.72332 19.5595 7.97752 19.7188 8.29017C19.7844 8.41901 19.8386 8.60484 19.8685 8.9711C19.8992 9.34727 19.8999 9.83416 19.8999 10.5515V12.0313C20.5405 12.2774 21.1176 12.6517 21.5999 13.1226V10.5165C21.5999 9.84297 21.5999 9.2863 21.5629 8.83266C21.5243 8.36128 21.4416 7.92682 21.2335 7.51839C20.9112 6.88586 20.397 6.37159 19.7644 6.0493C19.356 5.8412 18.9215 5.75846 18.4501 5.71995C17.9965 5.68289 17.4399 5.6829 16.7663 5.68291L13.3727 5.68291L13.0918 5.27137C12.7417 4.7578 12.4699 4.35901 12.1027 4.06198C11.7796 3.80053 11.4086 3.6046 11.0105 3.48513C10.5582 3.34939 10.0755 3.34972 9.45398 3.35014L6.73348 3.35019C6.05994 3.35018 5.50328 3.35017 5.04966 3.38723C4.57827 3.42575 4.14382 3.50848 3.73538 3.71659C3.10285 4.03888 2.58859 4.55314 2.2663 5.18567C2.05819 5.5941 1.97546 6.02856 1.93695 6.49995C1.89988 6.95356 1.89989 7.51022 1.8999 8.18375V15.2166C1.89989 15.8901 1.89988 16.4468 1.93695 16.9004C1.97546 17.3718 2.05819 17.8063 2.2663 18.2147C2.58859 18.8472 3.10285 19.3615 3.73538 19.6838C4.14381 19.8919 4.57827 19.9746 5.04966 20.0131C5.50328 20.0502 6.05994 20.0502 6.73349 20.0502L14.3951 20.0502C13.9537 19.5614 13.6074 18.985 13.3856 18.3502L6.76851 18.3502C6.05116 18.3502 5.56427 18.3495 5.18809 18.3188C4.82184 18.2889 4.636 18.2347 4.50717 18.1691C4.19451 18.0098 3.94032 17.7556 3.78101 17.4429C3.71537 17.3141 3.66122 17.1283 3.6313 16.762C3.60056 16.3858 3.5999 15.8989 3.5999 15.1816V8.2188C3.5999 7.50145 3.60056 7.01456 3.6313 6.63838C3.66122 6.27213 3.71537 6.08629 3.78101 5.95746C3.94032 5.6448 4.19451 5.3906 4.50717 5.2313C4.636 5.16565 4.82184 5.11151 5.18809 5.08159C5.56427 5.05085 6.05116 5.05019 6.76851 5.05019H9.34739Z" fill="#1A1A1A"/>
<path fill-rule="evenodd" clip-rule="evenodd" d="M18.1069 20.7002C20.3161 20.7002 22.1069 18.9093 22.1069 16.7002C22.1069 14.4911 20.3161 12.7002 18.1069 12.7002C15.8978 12.7002 14.1069 14.4911 14.1069 16.7002C14.1069 18.9093 15.8978 20.7002 18.1069 20.7002ZM18.6069 14.7002C18.6069 14.4241 18.3831 14.2002 18.1069 14.2002C17.8308 14.2002 17.6069 14.4241 17.6069 14.7002V16.6145C17.6069 16.938 17.8692 17.2002 18.1926 17.2002H20.1069C20.3831 17.2002 20.6069 16.9763 20.6069 16.7002C20.6069 16.4241 20.3831 16.2002 20.1069 16.2002H18.6069V14.7002Z" fill="#1A1A1A"/>
</svg>
