<svg width="24" height="24" viewBox="0 0 24 24" fill="none" xmlns="http://www.w3.org/2000/svg">
<path fill-rule="evenodd" clip-rule="evenodd" d="M4.14979 3.00039C4.14979 2.53095 4.53035 2.15039 4.99979 2.15039H10.9998C11.0157 2.15039 11.0316 2.15083 11.0473 2.1517C11.2525 2.1605 11.455 2.24323 11.6117 2.39987L18.6052 9.39337C19.7182 10.5064 19.7182 12.3109 18.6052 13.4239L13.5443 18.4847C11.2598 20.7693 7.55574 20.7693 5.27117 18.4847L3.22742 16.441C1.33337 14.5469 1.33338 11.4761 3.22742 9.58204L8.95907 3.85039H4.99979C4.53035 3.85039 4.14979 3.46983 4.14979 3.00039ZM4.4295 10.7841L11.0106 4.20299L17.3486 10.541C16.6824 10.4693 15.6597 10.3508 14.101 10.1554C12.97 10.0135 12.0687 10.1507 11.3005 10.4715C10.5494 10.7851 9.97857 11.2542 9.50101 11.6681C9.44392 11.7176 9.38795 11.7664 9.33287 11.8144C8.4538 12.5806 7.80284 13.1481 6.49538 13.1478C4.78908 13.1475 3.93967 12.9752 3.548 12.8425C3.53547 12.8382 3.5235 12.8341 3.51209 12.83C3.55481 12.0854 3.86061 11.353 4.4295 10.7841ZM3.98714 14.6846C4.11073 14.8814 4.25819 15.0676 4.4295 15.2389L6.47325 17.2826C8.09393 18.9033 10.7216 18.9033 12.3422 17.2826L17.3719 12.253C16.7001 12.1826 15.6193 12.059 13.8895 11.8421C13.0205 11.7332 12.4217 11.8456 11.9555 12.0402C11.4722 12.242 11.0744 12.5541 10.6144 12.9528C10.5503 13.0083 10.4852 13.0655 10.4189 13.1238C9.547 13.8898 8.45616 14.8482 6.49506 14.8478C5.41596 14.8476 4.60309 14.7832 3.98714 14.6846Z" fill="#1A1A1A"/>
<path fill-rule="evenodd" clip-rule="evenodd" d="M20.9925 15.8346C20.4673 15.2238 19.5313 15.2246 19.007 15.8359C18.7078 16.1847 18.2647 16.7343 17.8911 17.3372C17.5405 17.9027 17.1536 18.6656 17.1498 19.4044L17.1499 19.4145C17.1608 20.9915 18.3863 22.3507 19.9998 22.3507C21.6083 22.3507 22.8498 20.9958 22.8498 19.4087C22.8498 18.6673 22.4619 17.9024 22.1111 17.3368C21.737 16.7334 21.2925 16.1834 20.9925 15.8346ZM19.336 18.2328C19.5432 17.8984 19.783 17.5743 20.0007 17.3013C20.2188 17.5743 20.4591 17.8985 20.6664 18.2328C20.9983 18.768 21.1498 19.1799 21.1498 19.4087C21.1498 20.1298 20.5981 20.6507 19.9998 20.6507C19.4083 20.6507 18.8578 20.1367 18.8499 19.4085C18.853 19.1761 19.0066 18.7643 19.336 18.2328Z" fill="#1A1A1A"/>
</svg>
