<svg width="24" height="24" viewBox="0 0 24 24" fill="none" xmlns="http://www.w3.org/2000/svg">
<path fill-rule="evenodd" clip-rule="evenodd" d="M7.325 8.91996C7.325 6.51774 9.28415 4.56255 11.7106 4.56255C14.0941 4.56255 16.0268 6.44932 16.0943 8.79316C15.852 8.76394 15.6053 8.74889 15.3551 8.74889C12.7201 8.74889 10.4719 10.4175 9.62706 12.7553C8.255 12.0179 7.325 10.575 7.325 8.91996ZM17.7961 8.91996C17.7961 9.03142 17.7931 9.14217 17.7871 9.25214C19.9361 10.1858 21.4406 12.319 21.4406 14.8063C21.4406 18.156 18.7117 20.8637 15.3551 20.8637C14.0895 20.8637 12.9132 20.4788 11.9387 19.8197C10.9643 20.4785 9.7883 20.8632 8.52305 20.8632C5.16642 20.8632 2.4375 18.1555 2.4375 14.8058C2.4375 12.4927 3.73871 10.4858 5.64929 9.46514C5.63321 9.28557 5.625 9.10373 5.625 8.91996C5.625 5.57023 8.35392 2.86255 11.7106 2.86255C15.0672 2.86255 17.7961 5.57023 17.7961 8.91996ZM6.06832 11.1942C4.90243 11.9783 4.1375 13.3048 4.1375 14.8058C4.1375 17.208 6.09665 19.1632 8.52305 19.1632C9.28828 19.1632 10.007 18.9687 10.6325 18.6271C9.78063 17.5854 9.26953 16.256 9.26953 14.8063C9.26953 14.6948 9.27255 14.5841 9.27852 14.4741C7.82482 13.8425 6.66598 12.662 6.06832 11.1942ZM15.3551 10.4489C12.9287 10.4489 10.9695 12.4041 10.9695 14.8063C10.9695 17.2085 12.9287 19.1637 15.3551 19.1637C17.7815 19.1637 19.7406 17.2085 19.7406 14.8063C19.7406 12.4041 17.7815 10.4489 15.3551 10.4489Z" fill="#1A1A1A"/>
</svg>
