<svg width="24" height="24" viewBox="0 0 24 24" fill="none" xmlns="http://www.w3.org/2000/svg">
<path d="M5.06623 5.26441C3.77681 6.82217 3.00216 8.82153 3.00293 11.0018L3.004 14.0004C3.00419 14.5526 3.45207 15.0002 4.00435 15C4.55664 14.9998 5.00419 14.5519 5.004 13.9996L5.00293 11.0011C5.00235 9.37362 5.55731 7.87575 6.48857 6.68675L5.06623 5.26441Z" fill="#1A1A1A"/>
<path d="M6.26841 4.06242L7.69077 5.48478C8.87895 4.55453 10.3755 4 12.0015 4C15.8667 4 19.0001 7.13337 19.0001 10.9986V16C19.0001 16.5523 19.4478 17 20.0001 17C20.5524 17 21.0001 16.5523 21.0001 16V10.9986C21.0001 6.0288 16.9713 2 12.0015 2C9.82292 2 7.8252 2.77419 6.26841 4.06242Z" fill="#1A1A1A"/>
<path d="M11.9999 6C9.23845 6 6.99987 8.23857 6.99987 11V14.129C6.99987 14.6264 6.93933 15.1219 6.8196 15.6046L6.53319 16.7592C6.40023 17.2953 6.72698 17.8376 7.26302 17.9706C7.79907 18.1035 8.3414 17.7768 8.47436 17.2407L8.76077 16.0861C8.91958 15.4459 8.99987 14.7887 8.99987 14.129V11C8.99987 9.34314 10.343 8 11.9999 8C13.6567 8 14.9999 9.34314 14.9999 11V12.15H16.9999V11C16.9999 8.23857 14.7613 6 11.9999 6Z" fill="#1A1A1A"/>
<path d="M16.9999 13.85H14.9999V15.9113C14.9999 16.5533 14.9217 17.1928 14.7672 17.8159L14.5332 18.7592C14.4002 19.2953 14.727 19.8376 15.263 19.9706C15.7991 20.1035 16.3414 19.7768 16.4744 19.2407L16.7083 18.2974C16.902 17.5168 16.9999 16.7155 16.9999 15.9113V13.85Z" fill="#1A1A1A"/>
<path d="M13.0004 10C13.0004 9.44772 12.5527 9 12.0004 9C11.4481 9 11.0004 9.44772 11.0004 10V13.9504C11.0004 15.2125 10.8166 16.4678 10.4548 17.6769L9.54626 20.7133C9.38794 21.2424 9.68853 21.7997 10.2176 21.958C10.7467 22.1164 11.304 21.8158 11.4623 21.2867L12.3709 18.2503C12.7883 16.8551 13.0004 15.4066 13.0004 13.9504V10Z" fill="#1A1A1A"/>
</svg>
