<svg width="24" height="24" viewBox="0 0 24 24" fill="none" xmlns="http://www.w3.org/2000/svg">
<rect x="3.35" y="3.35" width="12.3" height="17.3" rx="3.15" stroke="#1A1A1A" stroke-width="1.7"/>
<path d="M17.9924 5.2525C18.6367 5.33759 19.1311 5.4889 19.5569 5.75641C20.0656 6.0761 20.496 6.5065 20.8157 7.0152C21.4286 7.99092 21.428 9.32786 21.428 12.0005L21.427 12.942C21.4186 15.0017 21.3521 16.1322 20.8157 16.9859L20.6907 17.1724C20.3872 17.6 20.0021 17.9649 19.5569 18.2447L19.3694 18.3521C18.9864 18.5535 18.5442 18.6729 17.9924 18.7457C18.0423 18.487 18.0805 18.2243 18.1077 17.9576C18.1382 17.6577 18.1554 17.3349 18.1692 16.9898C18.4073 16.9338 18.5491 16.8695 18.6516 16.8052C18.9441 16.6215 19.1924 16.3731 19.3762 16.0806C19.484 15.9089 19.5952 15.6275 19.6594 14.9654C19.7262 14.2764 19.7288 13.3704 19.7288 12.0005C19.7288 10.6308 19.7262 9.72475 19.6594 9.03571C19.5952 8.37305 19.4841 8.09126 19.3762 7.91949C19.1924 7.62693 18.9442 7.37969 18.6516 7.19586C18.549 7.13146 18.4076 7.06566 18.1692 7.00934C18.1554 6.66419 18.1382 6.34144 18.1077 6.04156C18.0805 5.77457 18.0424 5.51151 17.9924 5.2525Z" fill="#1A1A1A"/>
</svg>
