<svg width="24" height="24" viewBox="0 0 24 24" fill="none" xmlns="http://www.w3.org/2000/svg">
<path fill-rule="evenodd" clip-rule="evenodd" d="M10.772 5.4132C10.5896 5.35846 10.3755 5.35 9.59751 5.35H7.01863C6.30128 5.35 5.81439 5.35066 5.43821 5.38139C5.07196 5.41132 4.88613 5.46546 4.75729 5.5311C4.44463 5.69041 4.19044 5.94461 4.03113 6.25726C3.96549 6.3861 3.91135 6.57193 3.88142 6.93819C3.85069 7.31436 3.85003 7.80125 3.85003 8.5186V15.4814C3.85003 16.1987 3.85069 16.6856 3.88142 17.0618C3.91135 17.4281 3.96549 17.6139 4.03113 17.7427C4.19044 18.0554 4.44463 18.3096 4.75729 18.4689C4.88613 18.5345 5.07196 18.5887 5.43821 18.6186C5.81439 18.6493 6.30128 18.65 7.01863 18.65H16.9814C17.6988 18.65 18.1857 18.6493 18.5618 18.6186C18.9281 18.5887 19.1139 18.5345 19.2428 18.4689C19.5554 18.3096 19.8096 18.0554 19.9689 17.7427C20.0346 17.6139 20.0887 17.4281 20.1186 17.0618C20.1494 16.6856 20.15 16.1987 20.15 15.4814V10.8513C20.15 10.134 20.1494 9.64708 20.1186 9.2709C20.0887 8.90465 20.0346 8.71881 19.9689 8.58998C19.8096 8.27732 19.5554 8.02313 19.2428 7.86382C19.1139 7.79817 18.9281 7.74403 18.5618 7.71411C18.1857 7.68337 17.6988 7.68271 16.9814 7.68271H13.5046C13.4982 7.68271 13.4906 7.68279 13.4818 7.68287C13.3969 7.68369 13.2077 7.68551 13.0238 7.63033C12.8693 7.58396 12.7253 7.5079 12.5998 7.40642C12.4506 7.28568 12.3454 7.12836 12.2982 7.05775C12.2933 7.05051 12.2891 7.04417 12.2855 7.03888L11.998 6.61774C11.5594 5.97524 11.4317 5.80319 11.2836 5.68339C11.1322 5.56093 10.9585 5.46916 10.772 5.4132ZM9.70411 3.64995C10.3257 3.64953 10.8083 3.6492 11.2606 3.78493C11.6587 3.9044 12.0297 4.10034 12.3529 4.36178C12.72 4.65882 12.9918 5.0576 13.3419 5.57117C13.3617 5.60016 13.3817 5.62951 13.402 5.65924L13.6228 5.98271L17.0164 5.98271C17.69 5.9827 18.2467 5.98269 18.7003 6.01976C19.1717 6.05827 19.6061 6.141 20.0145 6.34911C20.6471 6.6714 21.1613 7.18566 21.4836 7.81819C21.6917 8.22662 21.7745 8.66108 21.813 9.13247C21.85 9.5861 21.85 10.1428 21.85 10.8163V15.5164C21.85 16.1899 21.85 16.7466 21.813 17.2002C21.7745 17.6716 21.6917 18.1061 21.4836 18.5145C21.1613 19.147 20.6471 19.6613 20.0145 19.9836C19.6061 20.1917 19.1717 20.2744 18.7003 20.313C18.2466 20.35 17.69 20.35 17.0164 20.35H6.98361C6.31007 20.35 5.7534 20.35 5.29978 20.313C4.8284 20.2744 4.39394 20.1917 3.98551 19.9836C3.35297 19.6613 2.83871 19.147 2.51642 18.5145C2.30831 18.1061 2.22558 17.6716 2.18707 17.2002C2.15 16.7466 2.15001 16.19 2.15002 15.5164V8.48357C2.15001 7.81003 2.15 7.25337 2.18707 6.79975C2.22558 6.32837 2.30831 5.89391 2.51642 5.48548C2.83871 4.85295 3.35297 4.33868 3.98551 4.01639C4.39394 3.80829 4.8284 3.72555 5.29978 3.68704C5.7534 3.64998 6.31006 3.64999 6.9836 3.65L9.59751 3.65C9.6335 3.65 9.66902 3.64997 9.70411 3.64995Z" fill="#1A1A1A"/>
</svg>
