<svg width="24" height="24" viewBox="0 0 24 24" fill="none" xmlns="http://www.w3.org/2000/svg">
<path d="M7.9999 2.65039C7.53046 2.65039 7.1499 3.03095 7.1499 3.50039V5.00039C7.1499 6.1878 6.18731 7.15039 4.9999 7.15039H3.4999C3.03046 7.15039 2.6499 7.53095 2.6499 8.00039C2.6499 8.46983 3.03046 8.85039 3.4999 8.85039H4.9999C7.1262 8.85039 8.8499 7.12669 8.8499 5.00039V3.50039C8.8499 3.03095 8.46934 2.65039 7.9999 2.65039Z" fill="#1A1A1A"/>
<path d="M16.85 3.50039C16.85 3.03095 16.4694 2.65039 16 2.65039C15.5305 2.65039 15.15 3.03095 15.15 3.50039V5.00039C15.15 7.12669 16.8737 8.85039 19 8.85039H20.5C20.9694 8.85039 21.35 8.46983 21.35 8.00039C21.35 7.53095 20.9694 7.15039 20.5 7.15039H19C17.8125 7.15039 16.85 6.1878 16.85 5.00039V3.50039Z" fill="#1A1A1A"/>
<path d="M16.85 20.4996C16.85 20.9691 16.4694 21.3496 16 21.3496C15.5305 21.3496 15.15 20.9691 15.15 20.4996V18.9996C15.15 16.8733 16.8737 15.1496 19 15.1496H20.5C20.9694 15.1496 21.35 15.5302 21.35 15.9996C21.35 16.4691 20.9694 16.8496 20.5 16.8496H19C17.8125 16.8496 16.85 17.8122 16.85 18.9996V20.4996Z" fill="#1A1A1A"/>
<path d="M7.1499 20.4996C7.1499 20.9691 7.53046 21.3496 7.9999 21.3496C8.46934 21.3496 8.8499 20.9691 8.8499 20.4996V18.9996C8.8499 16.8733 7.1262 15.1496 4.9999 15.1496H3.4999C3.03046 15.1496 2.6499 15.5302 2.6499 15.9996C2.6499 16.4691 3.03046 16.8496 3.4999 16.8496H4.9999C6.18731 16.8496 7.1499 17.8122 7.1499 18.9996V20.4996Z" fill="#1A1A1A"/>
</svg>
