<svg width="24" height="24" viewBox="0 0 24 24" fill="none" xmlns="http://www.w3.org/2000/svg">
<path fill-rule="evenodd" clip-rule="evenodd" d="M16.6661 3.15002H16.8337C17.3649 3.15001 17.8144 3.15 18.1827 3.1801C18.5688 3.21164 18.9401 3.28043 19.2938 3.46066C19.83 3.7339 20.266 4.16989 20.5393 4.70615C20.7195 5.05986 20.7883 5.43114 20.8198 5.81721C20.8499 6.18557 20.8499 6.63497 20.8499 7.16623V7.33382C20.8499 7.86509 20.8499 8.31448 20.8198 8.68284C20.7883 9.06891 20.7195 9.44019 20.5393 9.7939C20.266 10.3302 19.83 10.7662 19.2938 11.0394C18.9401 11.2196 18.5688 11.2884 18.1827 11.32C17.8144 11.35 17.365 11.35 16.8338 11.35H16.6661C16.1349 11.35 15.6854 11.35 15.3171 11.32C14.931 11.2884 14.5597 11.2196 14.206 11.0394C13.6698 10.7662 13.2338 10.3302 12.9605 9.7939C12.7803 9.44019 12.7115 9.06891 12.68 8.68284C12.6499 8.31448 12.6499 7.86509 12.6499 7.33383V7.16624C12.6499 6.63498 12.6499 6.18557 12.68 5.81721C12.7115 5.43114 12.7803 5.05986 12.9605 4.70615C13.2338 4.16989 13.6698 3.7339 14.206 3.46066C14.5597 3.28043 14.931 3.21164 15.3171 3.1801C15.6854 3.15 16.1349 3.15001 16.6661 3.15002ZM15.4555 4.87445C15.1746 4.89741 15.0519 4.93761 14.9778 4.97537C14.7614 5.08562 14.5855 5.26155 14.4752 5.47794C14.4375 5.55205 14.3973 5.67471 14.3743 5.95565C14.3506 6.24651 14.3499 6.62595 14.3499 7.20003V7.30003C14.3499 7.8741 14.3506 8.25354 14.3743 8.5444C14.3973 8.82534 14.4375 8.948 14.4752 9.02212C14.5855 9.2385 14.7614 9.41443 14.9778 9.52468C15.0519 9.56245 15.1746 9.60265 15.4555 9.6256C15.7464 9.64936 16.1258 9.65003 16.6999 9.65003H16.7999C17.374 9.65003 17.7534 9.64936 18.0443 9.6256C18.3252 9.60265 18.4479 9.56245 18.522 9.52468C18.7384 9.41443 18.9143 9.2385 19.0246 9.02212C19.0623 8.948 19.1025 8.82534 19.1255 8.5444C19.1492 8.25354 19.1499 7.8741 19.1499 7.30003V7.20003C19.1499 6.62595 19.1492 6.24651 19.1255 5.95565C19.1025 5.67471 19.0623 5.55205 19.0246 5.47794C18.9143 5.26155 18.7384 5.08562 18.522 4.97537C18.4479 4.93761 18.3252 4.89741 18.0443 4.87445C17.7534 4.85069 17.374 4.85003 16.7999 4.85003H16.6999C16.1258 4.85003 15.7464 4.85069 15.4555 4.87445Z" fill="#1A1A1A"/>
<path fill-rule="evenodd" clip-rule="evenodd" d="M7.33369 3.15002H7.16612C6.63487 3.15001 6.18545 3.15 5.81709 3.1801C5.43102 3.21164 5.05974 3.28043 4.70603 3.46066C4.16977 3.7339 3.73377 4.16989 3.46054 4.70615C3.28031 5.05986 3.21152 5.43114 3.17998 5.81721C3.14988 6.18557 3.14989 6.63496 3.1499 7.16621V7.33381C3.14989 7.86506 3.14988 8.31448 3.17998 8.68284C3.21152 9.06891 3.28031 9.44019 3.46054 9.7939C3.73377 10.3302 4.16977 10.7662 4.70603 11.0394C5.05974 11.2196 5.43102 11.2884 5.81709 11.32C6.18544 11.35 6.63482 11.35 7.16606 11.35H7.3337C7.86494 11.35 8.31437 11.35 8.68272 11.32C9.06879 11.2884 9.44007 11.2196 9.79378 11.0394C10.33 10.7662 10.766 10.3302 11.0393 9.7939C11.2195 9.44019 11.2883 9.06891 11.3198 8.68284C11.3499 8.31449 11.3499 7.86511 11.3499 7.33387V7.16623C11.3499 6.63499 11.3499 6.18556 11.3198 5.81721C11.2883 5.43114 11.2195 5.05986 11.0393 4.70615C10.766 4.16989 10.33 3.7339 9.79378 3.46066C9.44007 3.28043 9.06879 3.21164 8.68272 3.1801C8.31436 3.15 7.86494 3.15001 7.33369 3.15002ZM5.47781 4.97537C5.55193 4.93761 5.67459 4.89741 5.95552 4.87445C6.24639 4.85069 6.62583 4.85003 7.1999 4.85003H7.2999C7.87398 4.85003 8.25342 4.85069 8.54428 4.87445C8.82522 4.89741 8.94788 4.93761 9.02199 4.97537C9.23838 5.08562 9.41431 5.26155 9.52456 5.47794C9.56232 5.55205 9.60253 5.67471 9.62548 5.95565C9.64924 6.24651 9.6499 6.62595 9.6499 7.20003V7.30003C9.6499 7.8741 9.64924 8.25354 9.62548 8.5444C9.60253 8.82534 9.56232 8.948 9.52456 9.02212C9.41431 9.2385 9.23838 9.41443 9.02199 9.52468C8.94788 9.56245 8.82522 9.60265 8.54428 9.6256C8.25342 9.64936 7.87398 9.65003 7.2999 9.65003H7.1999C6.62583 9.65003 6.24639 9.64936 5.95552 9.6256C5.67459 9.60265 5.55193 9.56245 5.47781 9.52468C5.26143 9.41443 5.0855 9.2385 4.97525 9.02212C4.93748 8.948 4.89728 8.82534 4.87433 8.5444C4.85057 8.25354 4.8499 7.8741 4.8499 7.30003V7.20003C4.8499 6.62595 4.85057 6.24651 4.87433 5.95565C4.89728 5.67471 4.93748 5.55205 4.97525 5.47794C5.0855 5.26155 5.26143 5.08562 5.47781 4.97537Z" fill="#1A1A1A"/>
<path fill-rule="evenodd" clip-rule="evenodd" d="M7.33369 12.65H7.16612C6.63486 12.65 6.18545 12.65 5.81709 12.6801C5.43102 12.7116 5.05974 12.7804 4.70603 12.9607C4.16977 13.2339 3.73377 13.6699 3.46054 14.2062C3.28031 14.5599 3.21152 14.9311 3.17998 15.3172C3.14988 15.6856 3.14989 16.135 3.1499 16.6662V16.8338C3.14989 17.3651 3.14988 17.8145 3.17998 18.1828C3.21152 18.5689 3.28031 18.9402 3.46054 19.2939C3.73377 19.8302 4.16977 20.2662 4.70603 20.5394C5.05974 20.7196 5.43102 20.7884 5.81709 20.82C6.18545 20.85 6.63484 20.85 7.16611 20.85H7.3337C7.86496 20.85 8.31436 20.85 8.68272 20.82C9.06879 20.7884 9.44007 20.7196 9.79378 20.5394C10.33 20.2662 10.766 19.8302 11.0393 19.2939C11.2195 18.9402 11.2883 18.5689 11.3198 18.1828C11.3499 17.8145 11.3499 17.3651 11.3499 16.8339V16.6662C11.3499 16.135 11.3499 15.6856 11.3198 15.3172C11.2883 14.9311 11.2195 14.5599 11.0393 14.2062C10.766 13.6699 10.33 13.2339 9.79378 12.9607C9.44007 12.7804 9.06879 12.7116 8.68272 12.6801C8.31436 12.65 7.86494 12.65 7.33369 12.65ZM5.47781 14.4754C5.55193 14.4376 5.67459 14.3974 5.95552 14.3745C6.24639 14.3507 6.62583 14.35 7.1999 14.35H7.2999C7.87398 14.35 8.25342 14.3507 8.54428 14.3745C8.82522 14.3974 8.94788 14.4376 9.02199 14.4754C9.23838 14.5856 9.41431 14.7616 9.52456 14.9779C9.56232 15.0521 9.60253 15.1747 9.62548 15.4556C9.64924 15.7465 9.6499 16.1259 9.6499 16.7V16.8C9.6499 17.3741 9.64924 17.7535 9.62548 18.0444C9.60253 18.3253 9.56232 18.448 9.52456 18.5221C9.41431 18.7385 9.23838 18.9144 9.02199 19.0247C8.94788 19.0624 8.82522 19.1026 8.54428 19.1256C8.25342 19.1494 7.87398 19.15 7.2999 19.15H7.1999C6.62583 19.15 6.24639 19.1494 5.95552 19.1256C5.67459 19.1026 5.55193 19.0624 5.47781 19.0247C5.26143 18.9144 5.0855 18.7385 4.97525 18.5221C4.93748 18.448 4.89728 18.3253 4.87433 18.0444C4.85057 17.7535 4.8499 17.3741 4.8499 16.8V16.7C4.8499 16.1259 4.85057 15.7465 4.87433 15.4556C4.89728 15.1747 4.93748 15.0521 4.97525 14.9779C5.0855 14.7616 5.26143 14.5856 5.47781 14.4754Z" fill="#1A1A1A"/>
<path fill-rule="evenodd" clip-rule="evenodd" d="M16.8337 12.65H16.6661C16.1349 12.65 15.6855 12.65 15.3171 12.6801C14.931 12.7116 14.5597 12.7804 14.206 12.9607C13.6698 13.2339 13.2338 13.6699 12.9605 14.2062C12.7803 14.5599 12.7115 14.9311 12.68 15.3172C12.6499 15.6856 12.6499 16.135 12.6499 16.6662V16.8338C12.6499 17.3651 12.6499 17.8145 12.68 18.1828C12.7115 18.5689 12.7803 18.9402 12.9605 19.2939C13.2338 19.8302 13.6698 20.2662 14.206 20.5394C14.5597 20.7196 14.931 20.7884 15.3171 20.82C15.6855 20.85 16.1348 20.85 16.6661 20.85H16.8337C17.365 20.85 17.8144 20.85 18.1827 20.82C18.5688 20.7884 18.9401 20.7196 19.2938 20.5394C19.83 20.2662 20.266 19.8302 20.5393 19.2939C20.7195 18.9402 20.7883 18.5689 20.8198 18.1828C20.8499 17.8145 20.8499 17.3651 20.8499 16.8338V16.6662C20.8499 16.135 20.8499 15.6856 20.8198 15.3172C20.7883 14.9311 20.7195 14.5599 20.5393 14.2062C20.266 13.6699 19.83 13.2339 19.2938 12.9607C18.9401 12.7804 18.5688 12.7116 18.1827 12.6801C17.8144 12.65 17.365 12.65 16.8337 12.65ZM14.9778 14.4754C15.0519 14.4376 15.1746 14.3974 15.4555 14.3745C15.7464 14.3507 16.1258 14.35 16.6999 14.35H16.7999C17.374 14.35 17.7534 14.3507 18.0443 14.3745C18.3252 14.3974 18.4479 14.4376 18.522 14.4754C18.7384 14.5856 18.9143 14.7616 19.0246 14.9779C19.0623 15.0521 19.1025 15.1747 19.1255 15.4556C19.1492 15.7465 19.1499 16.1259 19.1499 16.7V16.8C19.1499 17.3741 19.1492 17.7535 19.1255 18.0444C19.1025 18.3253 19.0623 18.448 19.0246 18.5221C18.9143 18.7385 18.7384 18.9144 18.522 19.0247C18.4479 19.0624 18.3252 19.1026 18.0443 19.1256C17.7534 19.1494 17.374 19.15 16.7999 19.15H16.6999C16.1258 19.15 15.7464 19.1494 15.4555 19.1256C15.1746 19.1026 15.0519 19.0624 14.9778 19.0247C14.7614 18.9144 14.5855 18.7385 14.4752 18.5221C14.4375 18.448 14.3973 18.3253 14.3743 18.0444C14.3506 17.7535 14.3499 17.3741 14.3499 16.8V16.7C14.3499 16.1259 14.3506 15.7465 14.3743 15.4556C14.3973 15.1747 14.4375 15.0521 14.4752 14.9779C14.5855 14.7616 14.7614 14.5856 14.9778 14.4754Z" fill="#1A1A1A"/>
</svg>
