<svg width="24" height="24" viewBox="0 0 24 24" fill="none" xmlns="http://www.w3.org/2000/svg">
<path fill-rule="evenodd" clip-rule="evenodd" d="M18.7773 10.7812C18.7773 12.2418 17.5933 13.4258 16.1328 13.4258C14.6723 13.4258 13.4883 12.2418 13.4883 10.7812C13.4883 9.32072 14.6723 8.13672 16.1328 8.13672C17.5933 8.13672 18.7773 9.32072 18.7773 10.7812ZM17.3273 10.7812C17.3273 11.441 16.7925 11.9758 16.1328 11.9758C15.4731 11.9758 14.9383 11.441 14.9383 10.7812C14.9383 10.1215 15.4731 9.58672 16.1328 9.58672C16.7925 9.58672 17.3273 10.1215 17.3273 10.7812Z" fill="#1A1A1A"/>
<path fill-rule="evenodd" clip-rule="evenodd" d="M2.88097 19.1499C1.99028 18.1553 1.77332 15.9036 2.19781 11.7501C2.78289 6.46026 5.2016 4.20459 7.27001 4.20459C8.01534 4.20459 8.79901 4.51119 9.34009 4.836C10.0859 5.28347 11.4261 5.44835 12.4882 5.44835C13.5504 5.44835 14.6809 5.25415 15.5801 4.836C16.1212 4.51119 16.9611 4.20459 17.7064 4.20459C19.7749 4.20459 22.1936 6.46026 22.7787 11.7501C23.2033 15.9036 22.9863 18.1553 22.0956 19.1499C21.7477 19.5384 21.1661 19.7354 20.6304 19.7354C19.2551 19.7354 18.6043 19.3065 17.6961 18.3543L17.6922 18.3502C17.3718 18.0144 17.0404 17.6671 16.6535 17.3219C15.831 16.6987 14.6128 16.4694 13.6583 16.4694C13.4871 16.4694 13.3211 16.4733 13.1614 16.4771C13.0078 16.4809 12.8597 16.4844 12.7182 16.4844H12.2585C12.1169 16.4844 11.9688 16.4809 11.8154 16.4771C11.6555 16.4733 11.4895 16.4694 11.3183 16.4694C10.3638 16.4694 9.32362 16.649 8.56948 17.3219C8.18288 17.6669 7.85164 18.0139 7.53142 18.3495L7.52681 18.3543C6.6186 19.3065 5.91504 19.7354 4.53967 19.7354C4.00405 19.7354 3.22892 19.5384 2.88097 19.1499ZM19.7194 17.9533C19.5251 17.8552 19.2902 17.6745 18.8704 17.2343L18.8522 17.2152C18.5392 16.8873 18.1697 16.5 17.7339 16.1111L17.6854 16.0678L17.6336 16.0286C16.411 15.1021 14.7824 14.8466 13.6583 14.8466C13.4677 14.8466 13.2853 14.851 13.1297 14.8547L13.1228 14.8548L13.121 14.8549C12.9653 14.8588 12.8366 14.8617 12.7182 14.8617H12.2585C12.14 14.8617 12.0113 14.8588 11.8558 14.8549L11.8467 14.8547C11.691 14.851 11.5088 14.8466 11.3183 14.8466C10.2219 14.8466 8.68827 15.0412 7.48912 16.1111C7.05356 16.4997 6.6842 16.8868 6.37142 17.2145L6.35254 17.2343C5.94837 17.6581 5.70164 17.8431 5.49394 17.9449C5.30968 18.0353 5.04877 18.1126 4.53967 18.1126C4.50113 18.1126 4.43837 18.1087 4.3597 18.0961C4.28204 18.0837 4.20481 18.0654 4.13655 18.0435C4.09794 18.031 4.06772 18.0193 4.04552 18.0096C3.93523 17.8461 3.75017 17.4302 3.66191 16.4839C3.56399 15.4339 3.60375 13.9565 3.81144 11.9219C4.37263 6.86394 6.51453 5.82732 7.27001 5.82732C7.6241 5.82732 8.11773 5.99488 8.50523 6.22749C9.12974 6.60218 9.88 6.79831 10.5186 6.90891C11.1866 7.02458 11.8815 7.07108 12.4882 7.07108C13.7186 7.07108 15.0966 6.85047 16.2644 6.30739L16.3419 6.27133L16.4152 6.22731C16.7778 6.00969 17.3308 5.82732 17.7064 5.82732C18.462 5.82732 20.6039 6.86396 21.165 11.922C21.3728 13.9565 21.4126 15.4339 21.3147 16.4839C21.2176 17.5247 21.0035 17.9238 20.9005 18.0513C20.8923 18.056 20.8774 18.0637 20.8541 18.0726C20.7896 18.0972 20.7072 18.1126 20.6304 18.1126C20.1221 18.1126 19.8824 18.0356 19.7194 17.9533Z" fill="#1A1A1A"/>
</svg>
