<svg width="24" height="24" viewBox="0 0 24 24" fill="none" xmlns="http://www.w3.org/2000/svg">
<path d="M4.29102 4.29396C4.62297 3.96216 5.16029 3.96206 5.49219 4.29396L19.7041 18.5049C20.0355 18.8368 20.0357 19.3753 19.7041 19.707C19.3723 20.0388 18.8339 20.0385 18.502 19.707L4.29102 5.49513C3.95907 5.16319 3.95907 4.62591 4.29102 4.29396ZM4.96094 7.6924C3.73546 8.72542 2.95621 10.2717 2.95605 12C2.9564 15.1102 5.47765 17.6326 8.58789 17.6328H14.9727L16.5869 19.2354C16.3235 19.278 16.0552 19.3095 15.7832 19.3233L15.4062 19.333H8.58789L8.21094 19.3233C4.33699 19.1269 1.2562 15.9227 1.25586 12C1.25601 9.80459 2.22201 7.83491 3.75098 6.49123L4.96094 7.6924ZM15.7832 4.67775C19.657 4.87433 22.738 8.07742 22.7383 12L22.7285 12.3779C22.6247 14.4209 21.6828 16.2416 20.2422 17.5078L19.0332 16.3067C20.2583 15.2735 21.0379 13.728 21.0381 12C21.0378 8.88987 18.5164 6.36859 15.4062 6.36818H9.02344L7.40625 4.76271C7.79081 4.7004 8.18574 4.668 8.58789 4.66798H15.4062L15.7832 4.67775ZM7.13574 10.7871C7.54969 10.7874 7.88565 11.1231 7.88574 11.5371V12.4971H8.85449C9.26835 12.4974 9.60438 12.8332 9.60449 13.2471C9.60449 13.6611 9.26842 13.9967 8.85449 13.9971H7.88574V14.9658C7.88574 15.3799 7.54975 15.7156 7.13574 15.7158C6.72153 15.7158 6.38574 15.38 6.38574 14.9658V13.9971H5.42578C5.01157 13.9971 4.67578 13.6613 4.67578 13.2471C4.67589 12.833 5.01163 12.4971 5.42578 12.4971H6.38574V11.5371C6.38583 11.123 6.72158 10.7871 7.13574 10.7871ZM16.6836 8.10841C17.6301 8.10841 18.398 8.87584 18.3984 9.82228L18.3896 9.99806C18.3018 10.8625 17.5712 11.5371 16.6836 11.5371L16.5088 11.5283C15.6444 11.4405 14.9697 10.7099 14.9697 9.82228C14.9701 8.876 15.7373 8.10867 16.6836 8.10841ZM16.6836 9.25099C16.3685 9.25125 16.1127 9.50718 16.1123 9.82228C16.1123 10.1377 16.3682 10.3943 16.6836 10.3945C16.9992 10.3945 17.2559 10.1379 17.2559 9.82228C17.2555 9.50702 16.9989 9.25099 16.6836 9.25099Z" fill="#1A1A1A"/>
</svg>
