<svg width="24" height="24" viewBox="0 0 24 24" fill="none" xmlns="http://www.w3.org/2000/svg">
<path d="M7.50974 8.55006C7.18217 8.54998 6.85714 8.54991 6.5878 8.58612C6.28175 8.62727 5.92386 8.72867 5.6257 9.02683C5.32755 9.32498 5.22614 9.68287 5.18499 9.98892C5.14878 10.2583 5.14886 10.5833 5.14893 10.9109V13.0893C5.14886 13.4168 5.14878 13.7419 5.18499 14.0112C5.22614 14.3173 5.32755 14.6751 5.6257 14.9733C5.92386 15.2715 6.28175 15.3729 6.5878 15.414C6.85714 15.4502 7.18216 15.4501 7.50973 15.4501L9.33227 15.4501C9.80172 15.4501 10.1823 15.0695 10.1823 14.6001V12.4334C10.1823 11.964 9.80172 11.5834 9.33227 11.5834C8.86283 11.5834 8.48227 11.964 8.48227 12.4334V13.7501H7.5545C7.20712 13.7501 7.00456 13.7486 6.8641 13.7349C6.85037 13.5944 6.84894 13.3919 6.84894 13.0445V10.9556C6.84894 10.6082 6.85037 10.4057 6.8641 10.2652C7.00456 10.2515 7.20711 10.2501 7.55449 10.2501H9.33227C9.80172 10.2501 10.1823 9.8695 10.1823 9.40006C10.1823 8.93062 9.80172 8.55006 9.33227 8.55006L7.50974 8.55006Z" fill="#1A1A1A"/>
<path d="M11.9989 8.55005C12.4684 8.55005 12.8489 8.93061 12.8489 9.40005V14.6C12.8489 15.0695 12.4684 15.45 11.9989 15.45C11.5295 15.45 11.1489 15.0695 11.1489 14.6V9.40005C11.1489 8.93061 11.5295 8.55005 11.9989 8.55005Z" fill="#1A1A1A"/>
<path d="M15.3329 8.55005C14.8635 8.55005 14.4829 8.93061 14.4829 9.40005V14.6C14.4829 15.0695 14.8635 15.45 15.3329 15.45C15.8024 15.45 16.1829 15.0695 16.1829 14.6V13.2834H17.9996C18.469 13.2834 18.8496 12.9028 18.8496 12.4334C18.8496 11.9639 18.469 11.5834 17.9996 11.5834H16.1829V10.25H17.9996C18.469 10.25 18.8496 9.86949 18.8496 9.40005C18.8496 8.93061 18.469 8.55005 17.9996 8.55005H15.3329Z" fill="#1A1A1A"/>
<path fill-rule="evenodd" clip-rule="evenodd" d="M14.0547 3.6499H9.94508C8.34787 3.64989 7.07353 3.64988 6.06341 3.76927C5.023 3.89226 4.15281 4.15194 3.4231 4.7508C3.17752 4.95234 2.95234 5.17752 2.7508 5.4231C2.15194 6.15281 1.89226 7.023 1.76927 8.06341C1.64988 9.07353 1.64989 10.3478 1.6499 11.9451V12.0547C1.64989 13.6519 1.64988 14.9263 1.76927 15.9364C1.89226 16.9768 2.15194 17.847 2.7508 18.5767C2.95234 18.8223 3.17752 19.0475 3.4231 19.249C4.15281 19.8479 5.023 20.1076 6.06341 20.2305C7.07352 20.3499 8.34783 20.3499 9.94502 20.3499H14.0547C15.6519 20.3499 16.9263 20.3499 17.9364 20.2305C18.9768 20.1076 19.847 19.8479 20.5767 19.249C20.8223 19.0475 21.0475 18.8223 21.249 18.5767C21.8479 17.847 22.1076 16.9768 22.2305 15.9364C22.3499 14.9263 22.3499 13.652 22.3499 12.0547V11.9451C22.3499 10.3479 22.3499 9.07353 22.2305 8.06341C22.1076 7.023 21.8479 6.15281 21.249 5.4231C21.0475 5.17752 20.8223 4.95234 20.5767 4.7508C19.847 4.15194 18.9768 3.89226 17.9364 3.76927C16.9263 3.64988 15.6519 3.64989 14.0547 3.6499ZM4.50156 6.06492C4.8782 5.75583 5.38305 5.56153 6.26297 5.45752C7.16165 5.35129 8.33534 5.3499 9.9999 5.3499H13.9999C15.6645 5.3499 16.8382 5.35129 17.7368 5.45752C18.6168 5.56153 19.1216 5.75583 19.4982 6.06492C19.6577 6.19582 19.804 6.34207 19.9349 6.50156C20.244 6.8782 20.4383 7.38305 20.5423 8.26297C20.6485 9.16165 20.6499 10.3353 20.6499 11.9999C20.6499 13.6645 20.6485 14.8382 20.5423 15.7368C20.4383 16.6168 20.244 17.1216 19.9349 17.4982C19.804 17.6577 19.6577 17.804 19.4982 17.9349C19.1216 18.244 18.6168 18.4383 17.7368 18.5423C16.8382 18.6485 15.6645 18.6499 13.9999 18.6499H9.9999C8.33534 18.6499 7.16165 18.6485 6.26297 18.5423C5.38305 18.4383 4.8782 18.244 4.50156 17.9349C4.34207 17.804 4.19582 17.6577 4.06492 17.4982C3.75583 17.1216 3.56153 16.6168 3.45752 15.7368C3.35129 14.8382 3.3499 13.6645 3.3499 11.9999C3.3499 10.3353 3.35129 9.16165 3.45752 8.26297C3.56153 7.38305 3.75583 6.8782 4.06492 6.50156C4.19582 6.34207 4.34207 6.19582 4.50156 6.06492Z" fill="#1A1A1A"/>
</svg>
