<svg width="24" height="24" viewBox="0 0 24 24" fill="none" xmlns="http://www.w3.org/2000/svg">
<path fill-rule="evenodd" clip-rule="evenodd" d="M10.1005 2.39889C9.76828 2.0672 9.23009 2.06761 8.8984 2.39981C8.56671 2.73202 8.56712 3.27021 8.89933 3.6019L10.4502 5.15039H4.9999C3.42589 5.15039 2.1499 6.42638 2.1499 8.00039V9.00039C2.1499 10.2784 2.99105 11.3599 4.1499 11.7215L4.1499 15.4369C4.14989 16.386 4.14989 17.15 4.20041 17.7684C4.25239 18.4046 4.36206 18.9611 4.62402 19.4753C5.04107 20.2938 5.70654 20.9592 6.52504 21.3763C7.03919 21.6382 7.5957 21.7479 8.23189 21.7999C8.85024 21.8504 9.61423 21.8504 10.5633 21.8504H13.4364C14.3855 21.8504 15.1496 21.8504 15.7679 21.7999C16.4041 21.7479 16.9606 21.6382 17.4748 21.3763C18.2933 20.9592 18.9587 20.2938 19.3758 19.4753C19.6378 18.9611 19.7474 18.4046 19.7994 17.7684C19.8499 17.1501 19.8499 16.3861 19.8499 15.437V11.7215C21.0088 11.3599 21.8499 10.2784 21.8499 9.00039V8.00039C21.8499 6.42638 20.5739 5.15039 18.9999 5.15039H13.5566L15.1018 3.60054C15.4333 3.26811 15.4325 2.72992 15.1001 2.39846C14.7676 2.06701 14.2294 2.0678 13.898 2.40024L12.0042 4.29964L10.1005 2.39889ZM5.8499 11.8504H18.1499V15.4004C18.1499 16.3945 18.1492 17.089 18.105 17.63C18.0617 18.161 17.9806 18.4689 17.8611 18.7035C17.607 19.2021 17.2016 19.6075 16.703 19.8616C16.4684 19.9811 16.1605 20.0621 15.6295 20.1055C15.0885 20.1497 14.394 20.1504 13.3999 20.1504H10.5999C9.60579 20.1504 8.91132 20.1497 8.37033 20.1055C7.83926 20.0621 7.53138 19.9811 7.29683 19.8616C6.7982 19.6075 6.3928 19.2021 6.13874 18.7035C6.01923 18.4689 5.93815 18.161 5.89476 17.63C5.85056 17.089 5.8499 16.3945 5.8499 15.4004V11.8504ZM20.1499 9.00039C20.1499 9.63552 19.635 10.1504 18.9999 10.1504H4.9999C4.36477 10.1504 3.8499 9.63552 3.8499 9.00039V8.00039C3.8499 7.36526 4.36477 6.85039 4.9999 6.85039H18.9999C19.635 6.85039 20.1499 7.36526 20.1499 8.00039V9.00039Z" fill="#1A1A1A"/>
</svg>
