<svg width="24" height="24" viewBox="0 0 24 24" fill="none" xmlns="http://www.w3.org/2000/svg">
<path d="M9.27812 7.42849C9.27812 6.95905 8.89757 6.57849 8.42812 6.57849C7.95868 6.57849 7.57812 6.95905 7.57812 7.42849V14.0713C7.57812 14.5408 7.95868 14.9213 8.42812 14.9213C8.89757 14.9213 9.27812 14.5408 9.27812 14.0713V11.3499H11.5781V14.0713C11.5781 14.5408 11.9587 14.9213 12.4281 14.9213C12.8976 14.9213 13.2781 14.5408 13.2781 14.0713V7.42849C13.2781 6.95905 12.8976 6.57849 12.4281 6.57849C11.9587 6.57849 11.5781 6.95905 11.5781 7.42849V9.64992H9.27812V7.42849Z" fill="#1A1A1A"/>
<path d="M16.7781 7.42849C16.7781 6.95905 16.3976 6.57849 15.9281 6.57849C15.4587 6.57849 15.0781 6.95905 15.0781 7.42849V8.57135C15.0781 9.04079 15.4587 9.42135 15.9281 9.42135C16.3976 9.42135 16.7781 9.04079 16.7781 8.57135V7.42849Z" fill="#1A1A1A"/>
<path d="M16.7781 10.8571C16.7781 10.3876 16.3976 10.0071 15.9281 10.0071C15.4587 10.0071 15.0781 10.3876 15.0781 10.8571V14.0713C15.0781 14.5408 15.4587 14.9213 15.9281 14.9213C16.3976 14.9213 16.7781 14.5408 16.7781 14.0713V10.8571Z" fill="#1A1A1A"/>
<path fill-rule="evenodd" clip-rule="evenodd" d="M10.4347 2.15002C5.82521 2.15002 2.1499 6.03944 2.1499 10.7599C2.1499 13.8854 3.75471 16.6348 6.17302 18.1448C6.29809 18.2229 6.42556 18.2978 6.5549 18.3692L6.55656 18.3701L6.56744 18.3761C6.70261 18.4503 6.84005 18.5209 6.97963 18.5875C7.03288 18.6129 7.08642 18.6378 7.14025 18.662L13.572 21.6774C14.7667 22.2374 15.9642 21.35 16.0713 20.2477C16.0876 20.0795 16.0631 19.914 16.0507 19.8369C16.0349 19.7379 16.0146 19.6467 16.0016 19.5918C15.9841 19.5173 15.9626 19.4511 15.9421 19.3952C15.9176 19.3284 15.9185 19.2455 15.9724 19.1471C16.0294 19.0429 16.1343 18.9488 16.2637 18.9025C19.5311 17.7334 21.8499 14.5156 21.8499 10.7599C21.8499 6.03944 18.1746 2.15002 13.5651 2.15002H10.4347ZM14.2936 20.1381L7.87608 17.1294L7.04982 16.6881C5.14053 15.4845 3.8499 13.287 3.8499 10.7599C3.8499 6.90902 6.83193 3.85002 10.4347 3.85002H13.5651C17.1679 3.85002 20.1499 6.90902 20.1499 10.7599C20.1499 13.813 18.2678 16.3799 15.691 17.3019C14.6934 17.6588 13.9109 18.7953 14.3462 19.981L14.348 19.9862C14.3559 20.0197 14.3653 20.0638 14.3718 20.1039L14.3696 20.1077C14.3617 20.1199 14.3506 20.1307 14.3389 20.1378C14.328 20.1446 14.3192 20.1456 14.3192 20.1456C14.3192 20.1456 14.3166 20.1458 14.3138 20.1452C14.3111 20.1447 14.3045 20.1432 14.2936 20.1381Z" fill="#1A1A1A"/>
</svg>
