<svg width="24" height="24" viewBox="0 0 24 24" fill="none" xmlns="http://www.w3.org/2000/svg">
<path fill-rule="evenodd" clip-rule="evenodd" d="M15.7237 18.7347C15.7151 18.826 15.698 18.9147 15.6731 19C15.5857 19.2995 15.4026 19.557 15.16 19.7357C14.9342 19.902 14.6568 20 14.357 20H3.373C2.61471 20 2 19.3732 2 18.6C2 15.8962 3.87926 13.6399 6.37859 13.1151C6.73814 13.0397 7.11052 13 7.49199 13H10.238C10.6194 13 10.9918 13.0397 11.3514 13.1151C11.7902 13.2073 12.2099 13.3528 12.6037 13.5447C12.8603 13.6698 13.1058 13.8146 13.3385 13.9771C13.4467 14.0527 13.5521 14.1321 13.6545 14.2152C13.9084 14.0456 14.182 13.9042 14.4711 13.7952C14.9117 13.629 15.388 13.5383 15.8852 13.5383H17.9237C18.4208 13.5383 18.8972 13.629 19.3378 13.7952C19.3846 13.8128 19.431 13.8313 19.477 13.8507C19.7416 13.9619 19.9922 14.1008 20.2254 14.2637C20.6327 14.5483 20.9868 14.9063 21.2693 15.319C21.3565 15.4464 21.4368 15.579 21.5098 15.7162C21.5709 15.831 21.6267 15.949 21.6772 16.0699C21.7364 16.2119 21.7881 16.3581 21.8318 16.5077C21.9417 16.884 22.0007 17.2827 22.0007 17.6954C22.0007 17.7986 21.9859 17.8983 21.9584 17.9924C21.8629 18.3197 21.6135 18.5795 21.2957 18.6844C21.1967 18.7171 21.0911 18.7347 20.9814 18.7347H15.7237ZM15.5025 17C15.4222 16.7246 15.3215 16.458 15.2025 16.2021C15.1923 16.1803 15.182 16.1585 15.1715 16.1367C15.0657 15.9169 14.9462 15.7051 14.8141 15.5026C15.1387 15.333 15.5037 15.2383 15.8852 15.2383H17.9237C18.9929 15.2383 19.9324 15.9821 20.2145 17.0347H15.5126C15.5093 17.0231 15.5059 17.0116 15.5025 17ZM10.238 14.7C12.2058 14.7 13.8694 16.2598 14.019 18.3H3.71095C3.86059 16.2598 5.52419 14.7 7.49199 14.7H10.238Z" fill="#1A1A1A"/>
<path fill-rule="evenodd" clip-rule="evenodd" d="M7.49199 11.7482C7.21492 11.6426 6.95271 11.506 6.70939 11.3425C5.64476 10.6272 4.94214 9.39728 4.94214 8C4.94214 5.79086 6.69845 4 8.86498 4C11.0315 4 12.7878 5.79086 12.7878 8C12.7878 9.39728 12.0852 10.6272 11.0206 11.3425C10.7773 11.506 10.515 11.6426 10.238 11.7482C9.81065 11.911 9.34801 12 8.86498 12C8.38196 12 7.91932 11.911 7.49199 11.7482ZM11.0878 8C11.0878 9.30162 10.0616 10.3 8.86498 10.3C7.6684 10.3 6.64214 9.30162 6.64214 8C6.64214 6.69838 7.6684 5.7 8.86498 5.7C10.0616 5.7 11.0878 6.69838 11.0878 8Z" fill="#1A1A1A"/>
<path fill-rule="evenodd" clip-rule="evenodd" d="M14.8504 11.9315C15.1415 12.2268 15.4933 12.4597 15.8852 12.609C16.2024 12.7299 16.5459 12.796 16.9044 12.796C17.263 12.796 17.6065 12.7299 17.9237 12.609C18.3155 12.4597 18.6674 12.2268 18.9584 11.9315C19.4885 11.3938 19.8166 10.6492 19.8166 9.82657C19.8166 8.18662 18.5128 6.85718 16.9044 6.85718C15.2961 6.85718 13.9923 8.18662 13.9923 9.82657C13.9923 10.6492 14.3204 11.3938 14.8504 11.9315ZM16.9044 11.096C17.5428 11.096 18.1166 10.559 18.1166 9.82657C18.1166 9.09414 17.5428 8.55718 16.9044 8.55718C16.2661 8.55718 15.6923 9.09414 15.6923 9.82657C15.6923 10.559 16.2661 11.096 16.9044 11.096Z" fill="#1A1A1A"/>
</svg>
