<svg width="24" height="24" viewBox="0 0 24 24" fill="none" xmlns="http://www.w3.org/2000/svg">
<path d="M8.86498 12C11.0315 12 12.7878 10.2091 12.7878 8C12.7878 5.79086 11.0315 4 8.86498 4C6.69845 4 4.94214 5.79086 4.94214 8C4.94214 10.2091 6.69845 12 8.86498 12Z" fill="#1A1A1A"/>
<path d="M15.73 18.6C15.73 19.3732 15.1153 20 14.357 20H3.373C2.61471 20 2 19.3732 2 18.6C2 15.5072 4.45885 13 7.49199 13H10.238C13.2711 13 15.73 15.5072 15.73 18.6Z" fill="#1A1A1A"/>
<path d="M20.9818 18.7347H16.8765L16.8781 18.6983C16.8793 18.6657 16.88 18.6329 16.88 18.6C16.88 16.6717 16.0809 14.9229 14.7947 13.6888C15.1419 13.5907 15.5077 13.5383 15.8856 13.5383H17.924C20.1757 13.5383 22.001 15.3995 22.001 17.6954C22.001 18.2694 21.5447 18.7347 20.9818 18.7347Z" fill="#1A1A1A"/>
<path d="M19.8169 9.82657C19.8169 11.4665 18.5131 12.796 16.9048 12.796C15.2965 12.796 13.9927 11.4665 13.9927 9.82657C13.9927 8.18662 15.2965 6.85718 16.9048 6.85718C18.5131 6.85718 19.8169 8.18662 19.8169 9.82657Z" fill="#1A1A1A"/>
</svg>
