<svg width="24" height="24" viewBox="0 0 24 24" fill="none" xmlns="http://www.w3.org/2000/svg">
<path fill-rule="evenodd" clip-rule="evenodd" d="M12.2001 4.3499C10.4604 4.3499 9.0501 5.76021 9.0501 7.4999C9.0501 9.2396 10.4604 10.6499 12.2001 10.6499C13.9398 10.6499 15.3501 9.2396 15.3501 7.4999C15.3501 5.76021 13.9398 4.3499 12.2001 4.3499ZM7.3501 7.4999C7.3501 4.82132 9.52152 2.6499 12.2001 2.6499C14.8787 2.6499 17.0501 4.82132 17.0501 7.4999C17.0501 10.1785 14.8787 12.3499 12.2001 12.3499C9.52152 12.3499 7.3501 10.1785 7.3501 7.4999Z" fill="#1A1A1A"/>
<path d="M13.7645 20.3182L12.7652 16.3834C12.639 15.8868 13.1469 15.4669 13.611 15.6841L15.1254 16.3928L16.1577 14.3521C16.3824 13.908 17.0166 13.908 17.2413 14.3521L18.2736 16.3928L19.7881 15.6841C20.2521 15.4669 20.76 15.8868 20.6339 16.3834L19.6345 20.3182C19.5747 20.5537 19.3627 20.7187 19.1196 20.7187H14.2794C14.0363 20.7187 13.8243 20.5537 13.7645 20.3182Z" fill="#1A1A1A"/>
<path fill-rule="evenodd" clip-rule="evenodd" d="M16.1577 14.3521C16.3824 13.908 17.0166 13.908 17.2413 14.3521L18.2736 16.3928L19.7881 15.6841C20.2521 15.4669 20.76 15.8868 20.6339 16.3834L19.6345 20.3182C19.5747 20.5537 19.3627 20.7187 19.1196 20.7187H14.2794C14.0363 20.7187 13.8243 20.5537 13.7645 20.3182L12.7652 16.3834C12.639 15.8868 13.1469 15.4669 13.611 15.6841L15.1254 16.3928L16.1577 14.3521Z" fill="#1A1A1A"/>
<path fill-rule="evenodd" clip-rule="evenodd" d="M5.0501 19.4999C5.0501 17.2077 6.90732 15.3499 9.19907 15.3499H10.2001C10.6695 15.3499 11.0501 14.9693 11.0501 14.4999C11.0501 14.0305 10.6695 13.6499 10.2001 13.6499H9.19907C5.96798 13.6499 3.3501 16.2693 3.3501 19.4999C3.3501 20.5216 4.17837 21.3499 5.2001 21.3499H10.2001C10.6695 21.3499 11.0501 20.9693 11.0501 20.4999C11.0501 20.0305 10.6695 19.6499 10.2001 19.6499H5.2001C5.11725 19.6499 5.0501 19.5827 5.0501 19.4999Z" fill="#1A1A1A"/>
</svg>
