<svg width="24" height="24" viewBox="0 0 24 24" fill="none" xmlns="http://www.w3.org/2000/svg">
<path d="M7.63253 10.7205C7.63133 10.251 8.01091 9.87143 8.48035 9.87263L11.1599 9.87948L11.1531 7.19998C11.1519 6.73054 11.5315 6.35095 12.0009 6.35215C12.4704 6.35335 12.8519 6.73488 12.8531 7.20432L12.8599 9.88382L15.5395 9.89067C16.0089 9.89187 16.3905 10.2734 16.3917 10.7428C16.3929 11.2123 16.0133 11.5919 15.5438 11.5907L12.8643 11.5838L12.8711 14.2635C12.8723 14.7329 12.4927 15.1125 12.0233 15.1113C11.5539 15.1101 11.1723 14.7286 11.1711 14.2591L11.1643 11.5795L8.4847 11.5726C8.01526 11.5714 7.63373 11.1899 7.63253 10.7205Z" fill="#1A1A1A"/>
<path fill-rule="evenodd" clip-rule="evenodd" d="M10.4347 2.22388C5.86904 2.22388 2.22388 6.07719 2.22388 10.7598C2.22388 13.8598 3.81549 16.5855 6.21223 18.0821C6.33617 18.1595 6.46258 18.2337 6.59074 18.3044L6.59226 18.3053L6.60309 18.3112C6.73703 18.3848 6.87322 18.4547 7.01153 18.5207C7.06446 18.546 7.11769 18.5707 7.1712 18.5948L13.6034 21.6104C14.7467 22.1464 15.8951 21.2977 15.9978 20.2404C16.0131 20.0825 15.9901 19.9251 15.9778 19.8486C15.9623 19.752 15.9425 19.6628 15.9298 19.6087C15.913 19.5378 15.8925 19.4745 15.8727 19.4206C15.84 19.3314 15.8448 19.2263 15.9076 19.1116C15.9733 18.9915 16.0924 18.8853 16.2389 18.8328C19.4762 17.6745 21.7761 14.4849 21.7761 10.7598C21.7761 6.07719 18.1309 2.22388 13.5652 2.22388H10.4347ZM14.2623 20.205L7.84302 17.1955L7.01273 16.7519C5.08078 15.5352 3.77605 13.3134 3.77605 10.7598C3.77605 6.87116 6.78822 3.77605 10.4347 3.77605H13.5652C17.2117 3.77605 20.2239 6.87116 20.2239 10.7598C20.2239 13.8435 18.3228 16.4386 15.716 17.3714C14.7484 17.7176 13.9975 18.8163 14.4156 19.9555C14.4169 19.9589 14.4184 19.9634 14.4184 19.9634L14.4194 19.9665C14.4277 20.0018 14.4381 20.0501 14.4452 20.0943L14.4481 20.1132C14.4384 20.1436 14.4152 20.1777 14.3777 20.2007C14.3572 20.2133 14.3389 20.2183 14.3247 20.2193C14.3127 20.2202 14.293 20.2194 14.2623 20.205Z" fill="#1A1A1A"/>
</svg>
