<svg width="24" height="24" viewBox="0 0 24 24" fill="none" xmlns="http://www.w3.org/2000/svg">
<path fill-rule="evenodd" clip-rule="evenodd" d="M10.5075 3.04561C11.3744 2.33842 12.6204 2.34148 13.485 3.05147L20.5241 8.8337L22.5993 10.4753L22.6647 10.5319C22.9743 10.8319 23.012 11.3233 22.7389 11.6687C22.4659 12.0137 21.979 12.0908 21.6159 11.8591L21.5456 11.8083L20.8464 11.2546V17.9997C20.8464 19.5737 19.5707 20.8502 17.9968 20.8503H5.99676C4.42296 20.85 3.14618 19.5736 3.14617 17.9997V11.2439L2.46453 11.8005C2.10071 12.0968 1.56481 12.0421 1.26824 11.6784C0.97229 11.3147 1.02704 10.7796 1.39031 10.4831L10.5075 3.04561ZM12.4059 4.36495C12.1669 4.16883 11.8224 4.16769 11.5827 4.36299L4.84637 9.85713V17.9997C4.84637 18.6347 5.36185 19.1499 5.99676 19.1501H11.1501V14.5007C11.1501 14.0313 11.5304 13.6512 11.9997 13.6511C12.4691 13.6511 12.8493 14.0312 12.8493 14.5007V19.1501H17.9968C18.6318 19.15 19.1462 18.6348 19.1462 17.9997V9.90108L12.4059 4.36495Z" fill="#1A1A1A"/>
</svg>
