<svg width="24" height="24" viewBox="0 0 24 24" fill="none" xmlns="http://www.w3.org/2000/svg">
<path fill-rule="evenodd" clip-rule="evenodd" d="M15.9364 3.15039H8.0634C7.11428 3.15038 6.35026 3.15038 5.73189 3.2009C5.0957 3.25288 4.53919 3.36254 4.02504 3.62451C3.20654 4.04156 2.54107 4.70703 2.12402 5.52553C1.86206 6.03968 1.75239 6.59618 1.70041 7.23238C1.64989 7.85075 1.64989 8.61476 1.6499 9.56388V14.4369C1.64989 15.386 1.64989 16.15 1.70041 16.7684C1.75239 17.4046 1.86206 17.9611 2.12402 18.4752C2.54107 19.2938 3.20654 19.9592 4.02504 20.3763C4.53919 20.6382 5.0957 20.7479 5.73189 20.7999C6.35026 20.8504 7.11426 20.8504 8.06338 20.8504H11.0701C11.7933 20.8504 12.3666 20.2402 12.3214 19.5184C12.0275 14.8148 8.12689 11.1504 3.41405 11.1504H3.3499V9.60039C3.3499 8.60627 3.35056 7.91181 3.39476 7.37082C3.43815 6.83975 3.51923 6.53186 3.63874 6.29732C3.8928 5.79869 4.2982 5.39329 4.79683 5.13922C5.03138 5.01972 5.33926 4.93864 5.87033 4.89525C6.41132 4.85105 7.10578 4.85039 8.0999 4.85039H15.8999C16.894 4.85039 17.5885 4.85105 18.1295 4.89525C18.6605 4.93864 18.9684 5.01972 19.203 5.13922C19.7016 5.39329 20.107 5.79869 20.3611 6.29732C20.4806 6.53186 20.5617 6.83975 20.605 7.37082C20.6492 7.91181 20.6499 8.60627 20.6499 9.60039V12.0004C20.6499 12.4698 21.0305 12.8504 21.4999 12.8504C21.9693 12.8504 22.3499 12.4698 22.3499 12.0004V9.56395C22.3499 8.61483 22.3499 7.85074 22.2994 7.23238C22.2474 6.59618 22.1378 6.03968 21.8758 5.52553C21.4587 4.70703 20.7933 4.04156 19.9748 3.62451C19.4606 3.36254 18.9041 3.25288 18.2679 3.2009C17.6495 3.15038 16.8855 3.15038 15.9364 3.15039ZM3.3499 14.4004V12.8504H3.41405C7.06931 12.8504 10.121 15.5734 10.5796 19.1504H8.0999C7.10578 19.1504 6.41132 19.1497 5.87033 19.1055C5.33926 19.0621 5.03138 18.9811 4.79683 18.8616C4.2982 18.6075 3.8928 18.2021 3.63874 17.7035C3.51923 17.4689 3.43815 17.161 3.39476 16.63C3.35056 16.089 3.3499 15.3945 3.3499 14.4004Z" fill="#1A1A1A"/>
<path fill-rule="evenodd" clip-rule="evenodd" d="M15.4999 6.15039C13.9259 6.15039 12.6499 7.42638 12.6499 9.00039C12.6499 10.5744 13.9259 11.8504 15.4999 11.8504C17.0739 11.8504 18.3499 10.5744 18.3499 9.00039C18.3499 7.42638 17.0739 6.15039 15.4999 6.15039ZM14.3499 9.00039C14.3499 8.36526 14.8648 7.85039 15.4999 7.85039C16.135 7.85039 16.6499 8.36526 16.6499 9.00039C16.6499 9.63552 16.135 10.1504 15.4999 10.1504C14.8648 10.1504 14.3499 9.63552 14.3499 9.00039Z" fill="#1A1A1A"/>
<path d="M18.399 21.3986C18.0671 21.7305 18.0671 22.2687 18.399 22.6007C18.731 22.9326 19.2692 22.9326 19.6011 22.6007L21.6011 20.6007C21.8442 20.3576 21.9169 19.992 21.7854 19.6743C21.6538 19.3567 21.3439 19.1496 21.0001 19.1496H14.5001C14.0306 19.1496 13.6501 19.5302 13.6501 19.9996C13.6501 20.4691 14.0306 20.8496 14.5001 20.8496H18.948L18.399 21.3986Z" fill="#1A1A1A"/>
<path d="M17.101 14.3994C17.4329 14.7313 17.4329 15.2695 17.101 15.6014L16.552 16.1504H20.9999C21.4694 16.1504 21.8499 16.5309 21.8499 17.0004C21.8499 17.4698 21.4694 17.8504 20.9999 17.8504H14.4999C14.1561 17.8504 13.8462 17.6433 13.7146 17.3257C13.5831 17.008 13.6558 16.6424 13.8989 16.3993L15.8989 14.3994C16.2308 14.0674 16.769 14.0674 17.101 14.3994Z" fill="#1A1A1A"/>
</svg>
