<svg width="24" height="24" viewBox="0 0 24 24" fill="none" xmlns="http://www.w3.org/2000/svg">
<path fill-rule="evenodd" clip-rule="evenodd" d="M15.4999 6.15039C17.0739 6.15039 18.3499 7.42638 18.3499 9.00039C18.3499 10.5744 17.0739 11.8504 15.4999 11.8504C13.9258 11.8504 12.6499 10.5744 12.6499 9.00039C12.6499 7.42638 13.9258 6.15039 15.4999 6.15039ZM16.6499 9.00039C16.6499 8.36526 16.135 7.85039 15.4999 7.85039C14.8647 7.85039 14.3499 8.36526 14.3499 9.00039C14.3499 9.63552 14.8647 10.1504 15.4999 10.1504C16.135 10.1504 16.6499 9.63552 16.6499 9.00039Z" fill="#1A1A1A"/>
<path fill-rule="evenodd" clip-rule="evenodd" d="M15.9364 3.15039H8.06335C7.11423 3.15038 6.35021 3.15038 5.73184 3.2009C5.09565 3.25288 4.53914 3.36254 4.02499 3.62451C3.20649 4.04156 2.54102 4.70703 2.12397 5.52553C1.86201 6.03968 1.75234 6.59618 1.70036 7.23238C1.64984 7.85072 1.64985 8.6147 1.64985 9.56376V14.4369C1.64985 15.386 1.64984 16.1501 1.70036 16.7684C1.75234 17.4046 1.86201 17.9611 2.12397 18.4753C2.54102 19.2938 3.20649 19.9592 4.02499 20.3763C4.53914 20.6382 5.09565 20.7479 5.73184 20.7999C6.35018 20.8504 7.11416 20.8504 8.06323 20.8504H15.9364C16.8855 20.8504 17.6495 20.8504 18.2679 20.7999C18.9041 20.7479 19.4606 20.6382 19.9747 20.3763C20.7932 19.9592 21.4587 19.2938 21.8757 18.4753C22.1377 17.9611 22.2474 17.4046 22.2993 16.7684C22.3499 16.15 22.3499 15.386 22.3499 14.4369V9.56389C22.3499 8.61477 22.3499 7.85075 22.2993 7.23238C22.2474 6.59618 22.1377 6.03968 21.8757 5.52553C21.4587 4.70703 20.7932 4.04156 19.9747 3.62451C19.4606 3.36254 18.9041 3.25288 18.2679 3.2009C17.6495 3.15038 16.8855 3.15038 15.9364 3.15039ZM18.1294 4.89525C18.6605 4.93864 18.9684 5.01972 19.2029 5.13922C19.7016 5.39329 20.107 5.79869 20.361 6.29732C20.4805 6.53186 20.5616 6.83975 20.605 7.37082C20.6492 7.91181 20.6499 8.60627 20.6499 9.60039V14.4004C20.6499 15.3824 20.6492 16.072 20.6066 16.6102L18.6854 14.8636C17.5237 13.8076 15.7923 13.6776 14.486 14.5485L14.189 14.7465L11.3537 11.675C10.0356 10.2471 7.79435 10.2023 6.42027 11.5763L3.34989 14.6467L3.34985 9.60039C3.34985 8.60627 3.35051 7.91181 3.39471 7.37082C3.4381 6.83975 3.51918 6.53186 3.63869 6.29732C3.89275 5.79869 4.29815 5.39329 4.79678 5.13922C5.03133 5.01972 5.33921 4.93864 5.87028 4.89525C6.41127 4.85105 7.10574 4.85039 8.09985 4.85039H15.8999C16.894 4.85039 17.5884 4.85105 18.1294 4.89525ZM19.2029 18.8616C19.4818 18.7195 19.7315 18.53 19.9419 18.3034L17.5419 16.1215C16.9574 15.5902 16.0863 15.5248 15.429 15.963L14.589 16.523C14.2061 16.7782 13.6945 16.7172 13.3824 16.3791L10.1045 12.828C9.44133 12.1096 8.31369 12.0871 7.62235 12.7784L3.43154 16.9692C3.47832 17.3016 3.54725 17.524 3.63869 17.7035C3.89275 18.2021 4.29815 18.6075 4.79678 18.8616C5.03133 18.9811 5.33921 19.0621 5.87028 19.1055C6.41127 19.1497 7.10573 19.1504 8.09985 19.1504H15.8999C16.894 19.1504 17.5884 19.1497 18.1294 19.1055C18.6605 19.0621 18.9684 18.9811 19.2029 18.8616Z" fill="#1A1A1A"/>
</svg>
