<svg width="24" height="24" viewBox="0 0 24 24" fill="none" xmlns="http://www.w3.org/2000/svg">
<path d="M5.94644 8.19141C6.41588 8.19141 6.79644 8.57196 6.79644 9.04141V11.2988H9.80078V9.04141C9.80078 8.57196 10.1813 8.19141 10.6508 8.19141C11.1202 8.19141 11.5008 8.57196 11.5008 9.04141V15.2546C11.5008 15.724 11.1202 16.1046 10.6508 16.1046C10.1813 16.1046 9.80078 15.724 9.80078 15.2546V12.9988H6.79644V15.2546C6.79644 15.724 6.41588 16.1046 5.94644 16.1046C5.47699 16.1046 5.09644 15.724 5.09644 15.2546V12.156L5.09641 12.1488L5.09644 12.1417V9.04141C5.09644 8.57196 5.47699 8.19141 5.94644 8.19141Z" fill="#1A1A1A"/>
<path fill-rule="evenodd" clip-rule="evenodd" d="M14.1047 8.02376C13.1726 8.00547 12.438 8.76516 12.438 9.66837V14.4908C12.438 15.3094 13.0635 16.0824 13.981 16.1036C14.8882 16.1245 16.0738 16.0123 17.0633 15.462C18.1229 14.8727 18.8823 13.8173 18.8823 12.1929C18.8823 10.517 18.3165 9.37903 17.2693 8.72533C16.3178 8.13137 15.1137 8.04356 14.1047 8.02376ZM14.138 14.4058V9.72487C15.12 9.74798 15.8658 9.85324 16.3691 10.1674C16.788 10.4289 17.1823 10.9307 17.1823 12.1929C17.1823 13.1849 16.7708 13.6794 16.237 13.9763C15.6633 14.2954 14.8854 14.4106 14.138 14.4058Z" fill="#1A1A1A"/>
<path fill-rule="evenodd" clip-rule="evenodd" d="M1.6499 8.50039C1.6499 5.26952 4.26904 2.65039 7.4999 2.65039H16.4999C19.7308 2.65039 22.3499 5.26953 22.3499 8.50039V15.5004C22.3499 18.7313 19.7308 21.3504 16.4999 21.3504H7.4999C4.26904 21.3504 1.6499 18.7313 1.6499 15.5004V8.50039ZM7.4999 4.35039C5.20792 4.35039 3.3499 6.20841 3.3499 8.50039V15.5004C3.3499 17.7924 5.20792 19.6504 7.4999 19.6504H16.4999C18.7919 19.6504 20.6499 17.7924 20.6499 15.5004V8.50039C20.6499 6.20841 18.7919 4.35039 16.4999 4.35039H7.4999Z" fill="#1A1A1A"/>
</svg>
