<svg width="24" height="24" viewBox="0 0 24 24" fill="none" xmlns="http://www.w3.org/2000/svg">
<path d="M12 2.15039C17.44 2.15039 21.8496 6.56 21.8496 12C21.8496 17.44 17.44 21.8496 12 21.8496C6.56 21.8496 2.15039 17.44 2.15039 12C2.15039 6.56 6.56 2.15039 12 2.15039ZM11 10.3496C10.5306 10.3496 10.1504 10.7308 10.1504 11.2002C10.1505 11.6695 10.5306 12.0498 11 12.0498H11.4004V15.6504H11C10.5306 15.6504 10.1504 16.0306 10.1504 16.5C10.1504 16.9694 10.5306 17.3496 11 17.3496H13.2002L13.2871 17.3457C13.7156 17.3021 14.0498 16.94 14.0498 16.5C14.0498 16.06 13.7156 15.6979 13.2871 15.6543L13.2002 15.6504H13.0996V11.2002C13.0996 10.7308 12.7194 10.3496 12.25 10.3496H11ZM12 6.7998C11.3373 6.7998 10.7998 7.33726 10.7998 8C10.7998 8.66274 11.3373 9.2002 12 9.2002C12.6627 9.2002 13.2002 8.66274 13.2002 8C13.2002 7.33726 12.6627 6.7998 12 6.7998Z" fill="#1A1A1A"/>
</svg>
