<svg width="24" height="24" viewBox="0 0 24 24" fill="none" xmlns="http://www.w3.org/2000/svg">
<path fill-rule="evenodd" clip-rule="evenodd" d="M4.1499 7.00039C4.1499 4.87409 5.87361 3.15039 7.9999 3.15039C10.1262 3.15039 11.8499 4.87409 11.8499 7.00039C11.8499 9.12669 10.1262 10.8504 7.9999 10.8504C5.87361 10.8504 4.1499 9.12669 4.1499 7.00039ZM7.9999 4.85039C6.81249 4.85039 5.8499 5.81298 5.8499 7.00039C5.8499 8.1878 6.81249 9.15039 7.9999 9.15039C9.18731 9.15039 10.1499 8.1878 10.1499 7.00039C10.1499 5.81298 9.18731 4.85039 7.9999 4.85039Z" fill="#1A1A1A"/>
<path d="M9.10951 15.0426C7.94423 13.9939 6.16191 14.0407 5.05336 15.1493C3.97535 16.2273 3.89724 17.9494 4.87321 19.1206L4.92668 19.1848C6.07074 20.5576 8.14667 20.6518 9.41033 19.3881L9.89899 18.8995C10.2309 18.5675 10.7691 18.5675 11.1011 18.8995C11.433 19.2314 11.433 19.7696 11.1011 20.1016L10.6124 20.5902C8.6419 22.5607 5.40473 22.4139 3.6207 20.2731L3.56724 20.2089C2.02838 18.3623 2.15155 15.6469 3.85127 13.9472C5.59916 12.1993 8.40941 12.1254 10.2468 13.779L15.2657 18.2961C16.2207 19.1556 17.6813 19.1171 18.5898 18.2087L18.899 17.8995C19.6716 17.1269 19.6716 15.8742 18.899 15.1016C18.1264 14.3289 16.8737 14.3289 16.1011 15.1016L15.6011 15.6016C15.2691 15.9335 14.7309 15.9335 14.399 15.6016C14.067 15.2696 14.067 14.7314 14.399 14.3995L14.899 13.8995C16.3355 12.463 18.6646 12.463 20.1011 13.8995C21.5376 15.336 21.5376 17.6651 20.1011 19.1016L19.7919 19.4107C18.2441 20.9586 15.7555 21.024 14.1285 19.5597L9.10951 15.0426Z" fill="#1A1A1A"/>
<path fill-rule="evenodd" clip-rule="evenodd" d="M17.4999 5.65039C15.9259 5.65039 14.6499 6.92638 14.6499 8.50039C14.6499 10.0744 15.9259 11.3504 17.4999 11.3504C19.0739 11.3504 20.3499 10.0744 20.3499 8.50039C20.3499 6.92638 19.0739 5.65039 17.4999 5.65039ZM16.3499 8.50039C16.3499 7.86526 16.8648 7.35039 17.4999 7.35039C18.135 7.35039 18.6499 7.86526 18.6499 8.50039C18.6499 9.13552 18.135 9.65039 17.4999 9.65039C16.8648 9.65039 16.3499 9.13552 16.3499 8.50039Z" fill="#1A1A1A"/>
</svg>
