<svg width="24" height="24" viewBox="0 0 24 24" fill="none" xmlns="http://www.w3.org/2000/svg">
<path d="M12.293 3.97862C12.1275 4.1364 11.8672 4.1364 11.7016 3.97862L10.0443 2.39905C9.86767 2.23073 9.86699 1.94916 10.0428 1.78L10.7289 1.11976C10.8087 1.04292 10.9152 1 11.026 1H12.9686C13.0794 1 13.1859 1.04292 13.2658 1.11976L13.9519 1.78C14.1277 1.94916 14.127 2.23073 13.9504 2.39905L12.293 3.97862Z" fill="#1A1A1A"/>
<path d="M14.9647 5.8499C13.7179 5.8499 12.6313 6.33864 11.7532 7.36776L11.7473 7.37466L11.7413 7.38145L11.5973 7.54356C11.3461 7.82685 10.9712 8.24949 10.5261 8.73029C9.63362 9.69425 8.4588 10.8921 7.43096 11.6695L7.32189 11.7531L7.43085 11.8366L7.43206 11.8376C8.95985 13.0006 10.8168 15.0527 11.9117 16.4659L11.9146 16.4696L11.9857 16.5625L12.0569 16.4696L12.058 16.4681C13.1535 15.0444 15.011 12.9914 16.5409 11.8364L16.6558 11.7483L16.5403 11.6598L16.5392 11.659C16.3177 11.4903 16.0407 11.3026 15.7065 11.0766L15.7007 11.0726C15.375 10.8524 15.006 10.6027 14.6309 10.3275C13.8942 9.78687 13.0899 9.11617 12.4644 8.2855C12.5219 8.23234 12.5768 8.17525 12.6288 8.11426C12.9859 7.69578 13.3732 7.40536 13.7951 7.22617L13.7966 7.22826C14.2771 7.8778 14.9383 8.4444 15.6367 8.95695C15.9837 9.21163 16.3286 9.44502 16.6589 9.66842L16.6722 9.67743C16.9904 9.89259 17.3064 10.1064 17.5704 10.3075L17.5724 10.309L18.1711 10.7678C18.8146 11.261 18.8146 12.2357 18.1711 12.7289L17.5673 13.1916C16.2091 14.2162 14.4574 16.1376 13.4059 17.5042L12.9626 18.0828L12.9608 18.0851C12.4687 18.7318 11.5026 18.7317 11.0105 18.0849L11.0088 18.0828L10.5678 17.507L10.5665 17.5053C9.51389 16.147 7.76151 14.2246 6.40132 13.1894L6.39903 13.1877L5.80037 12.7289C5.17577 12.2502 5.13559 11.2678 5.80806 10.7715L6.38729 10.3276L6.40339 10.3151C7.79848 9.26049 9.56217 7.27479 10.3351 6.40461L10.4661 6.25723C11.6588 4.86313 13.2117 4.1499 14.9647 4.1499C15.2925 4.1499 15.6458 4.17092 16.018 4.23809C16.659 4.33798 17.2744 4.51432 17.8532 4.7608C18.1819 4.90079 18.4987 5.0634 18.8016 5.2475C19.6369 5.75513 20.3664 6.42604 20.9468 7.23607C22.0915 8.80868 22.5701 10.7769 22.2553 12.6349C21.7837 15.4386 19.8602 17.7442 17.8986 19.414C15.9246 21.0943 13.7902 22.2349 12.6701 22.6877L12.5337 22.7425C12.1822 22.8902 11.7991 22.8803 11.4641 22.7455L11.3216 22.6882L11.3191 22.6872C10.2044 22.2345 8.07269 21.0941 6.10003 19.4138C4.13974 17.7441 2.21628 15.4386 1.74467 12.6349C1.42984 10.7766 1.90876 8.80914 3.0425 7.23763C4.20601 5.61291 5.96922 4.5475 7.98304 4.23649C8.95719 4.08454 9.88327 4.14716 10.7454 4.41294C10.3314 4.72989 9.94363 5.09872 9.58593 5.51795C9.49194 5.6281 9.41199 5.74551 9.34591 5.86799C8.99628 5.84125 8.62949 5.85617 8.2445 5.91626L8.24307 5.91649C6.66577 6.15993 5.31283 6.98656 4.42389 8.22847L4.42194 8.2312C3.54205 9.45025 3.18508 10.9611 3.42093 12.3518L3.42112 12.3529C3.79524 14.5771 5.36399 16.5538 7.20237 18.1197C9.02771 19.6744 11.0003 20.7227 11.9576 21.1116L11.9587 21.112L11.9952 21.1268L12.0331 21.1115C12.9943 20.7228 14.97 19.6744 16.7966 18.1195C18.636 16.5537 20.2047 14.577 20.5789 12.3529L20.579 12.3518C20.8143 10.9643 20.4595 9.45838 19.5764 8.24203L19.5665 8.2284C19.1776 7.68511 18.6999 7.22129 18.1535 6.851C17.9192 6.69227 17.6724 6.55073 17.4145 6.42748L17.3712 6.40704C16.8675 6.17143 16.3223 6.00517 15.7473 5.91642L15.7356 5.91463L15.724 5.9125C15.4734 5.86668 15.2226 5.8499 14.9647 5.8499Z" fill="#1A1A1A"/>
</svg>
