<svg width="24" height="24" viewBox="0 0 24 24" fill="none" xmlns="http://www.w3.org/2000/svg">
<path fill-rule="evenodd" clip-rule="evenodd" d="M12.6722 4.03491C12.2703 3.74461 11.7276 3.74461 11.3256 4.03491L4.32561 9.09046C4.02625 9.30667 3.84893 9.65347 3.84893 10.0227V18.8949C3.84893 19.5301 4.3638 20.0449 4.99893 20.0449C6.77067 20.0449 8.51398 19.6316 10.0697 18.9613C8.09595 17.636 6.54854 15.9064 6.16674 14.071C5.82647 12.4353 6.73956 11.0068 8.11879 10.4741C9.30048 10.0177 10.716 10.2372 11.9528 11.2615C13.0485 10.2338 14.3946 9.98685 15.536 10.4406C16.885 10.977 17.7402 12.4362 17.3235 14.1029C16.8873 15.8476 15.4621 17.5696 13.5891 18.9171C15.2811 19.6163 17.1628 20.0449 18.9989 20.0449C19.6341 20.0449 20.1489 19.5301 20.1489 18.8949V10.0227C20.1489 9.65347 19.9716 9.30667 19.6722 9.09046L12.6722 4.03491ZM11.8497 19.9926C13.985 21.0554 16.507 21.7449 18.9989 21.7449C20.5729 21.7449 21.8489 20.4689 21.8489 18.8949V10.0227C21.8489 9.1076 21.4095 8.24812 20.6676 7.71231L13.6676 2.65675C12.6715 1.93733 11.3264 1.93733 10.3303 2.65675L3.33028 7.71231C2.58839 8.24812 2.14893 9.1076 2.14893 10.0227V18.8949C2.14893 20.469 3.42491 21.7449 4.99893 21.7449C7.4631 21.7449 9.84698 21.0502 11.8497 19.9926ZM11.8238 18.0512C11.9001 18.0043 11.9755 17.9568 12.0502 17.9087C14.0427 16.6269 15.3389 15.0322 15.6743 13.6905C15.8826 12.8573 15.4727 12.2449 14.9079 12.0204C14.3718 11.8072 13.4853 11.8839 12.6894 12.9924L12.0596 13.8695L11.3549 13.0514C10.3656 11.9029 9.35668 11.8184 8.73133 12.0599C8.07648 12.3129 7.67138 12.9569 7.83111 13.7248C8.11125 15.0714 9.48197 16.6567 11.6307 17.9381C11.6945 17.9761 11.7589 18.0139 11.8238 18.0512Z" fill="#1A1A1A"/>
</svg>
