<svg width="24" height="24" viewBox="0 0 24 24" fill="none" xmlns="http://www.w3.org/2000/svg">
<path fill-rule="evenodd" clip-rule="evenodd" d="M17.9744 3.59008C18.2091 3.18353 18.0698 2.66368 17.6633 2.42896C17.2567 2.19424 16.7369 2.33353 16.5022 2.74008L14.0055 7.06452C14.0043 7.06639 14.0033 7.06827 14.0022 7.07016C14.0011 7.07205 14 7.07394 13.9989 7.07583L12.6087 9.48372C9.92322 8.50437 6.84178 9.56297 5.3632 12.1239C3.70634 14.9937 4.6896 18.6632 7.55935 20.3201C10.4291 21.9769 14.0986 20.9937 15.7555 18.1239C17.3017 15.4458 16.5486 12.0711 14.1087 10.2857L15.0494 8.6563L16.4783 9.48128C16.8849 9.716 17.4047 9.57671 17.6395 9.17016C17.8742 8.76361 17.7349 8.24376 17.3283 8.00904L15.8994 7.18405L16.5492 6.05853L18.4114 7.13363C18.8179 7.36835 19.3378 7.22905 19.5725 6.8225C19.8072 6.41596 19.6679 5.8961 19.2614 5.66138L17.3992 4.58629L17.9744 3.59008ZM14.2833 17.2739C13.0958 19.3306 10.466 20.0353 8.40935 18.8479C6.35269 17.6604 5.64803 15.0306 6.83544 12.9739C8.02285 10.9173 10.6527 10.2126 12.7094 11.4C14.766 12.5874 15.4707 15.2173 14.2833 17.2739Z" fill="#1A1A1A"/>
</svg>
