<svg width="24" height="24" viewBox="0 0 24 24" fill="none" xmlns="http://www.w3.org/2000/svg">
<path d="M7.5 8C6.94772 8 6.5 8.44772 6.5 9C6.5 9.55228 6.94772 10 7.5 10C8.05228 10 8.5 9.55228 8.5 9C8.5 8.44772 8.05228 8 7.5 8Z" fill="#1A1A1A"/>
<path d="M7.5 11C6.94772 11 6.5 11.4477 6.5 12C6.5 12.5523 6.94772 13 7.5 13C8.05228 13 8.5 12.5523 8.5 12C8.5 11.4477 8.05228 11 7.5 11Z" fill="#1A1A1A"/>
<path d="M6.5 15C6.5 14.4477 6.94772 14 7.5 14C8.05228 14 8.5 14.4477 8.5 15C8.5 15.5523 8.05228 16 7.5 16C6.94772 16 6.5 15.5523 6.5 15Z" fill="#1A1A1A"/>
<path d="M10.5 8C9.94772 8 9.5 8.44772 9.5 9C9.5 9.55228 9.94772 10 10.5 10C11.0523 10 11.5 9.55228 11.5 9C11.5 8.44772 11.0523 8 10.5 8Z" fill="#1A1A1A"/>
<path d="M9.5 12C9.5 11.4477 9.94772 11 10.5 11C11.0523 11 11.5 11.4477 11.5 12C11.5 12.5523 11.0523 13 10.5 13C9.94772 13 9.5 12.5523 9.5 12Z" fill="#1A1A1A"/>
<path d="M10.5 14C9.94772 14 9.5 14.4477 9.5 15C9.5 15.5523 9.94772 16 10.5 16H13.5C14.0523 16 14.5 15.5523 14.5 15C14.5 14.4477 14.0523 14 13.5 14H10.5Z" fill="#1A1A1A"/>
<path d="M12.5 9C12.5 8.44772 12.9477 8 13.5 8C14.0523 8 14.5 8.44772 14.5 9C14.5 9.55228 14.0523 10 13.5 10C12.9477 10 12.5 9.55228 12.5 9Z" fill="#1A1A1A"/>
<path d="M13.5 11C12.9477 11 12.5 11.4477 12.5 12C12.5 12.5523 12.9477 13 13.5 13C14.0523 13 14.5 12.5523 14.5 12C14.5 11.4477 14.0523 11 13.5 11Z" fill="#1A1A1A"/>
<path d="M15.5 9C15.5 8.44772 15.9477 8 16.5 8C17.0523 8 17.5 8.44772 17.5 9C17.5 9.55228 17.0523 10 16.5 10C15.9477 10 15.5 9.55228 15.5 9Z" fill="#1A1A1A"/>
<path d="M16.5 11C15.9477 11 15.5 11.4477 15.5 12C15.5 12.5523 15.9477 13 16.5 13C17.0523 13 17.5 12.5523 17.5 12C17.5 11.4477 17.0523 11 16.5 11Z" fill="#1A1A1A"/>
<path d="M15.5 15C15.5 14.4477 15.9477 14 16.5 14C17.0523 14 17.5 14.4477 17.5 15C17.5 15.5523 17.0523 16 16.5 16C15.9477 16 15.5 15.5523 15.5 15Z" fill="#1A1A1A"/>
<path fill-rule="evenodd" clip-rule="evenodd" d="M11.9999 2.15039C6.5599 2.15039 2.1499 6.56039 2.1499 12.0004C2.1499 17.4404 6.5599 21.8504 11.9999 21.8504C17.4399 21.8504 21.8499 17.4404 21.8499 12.0004C21.8499 6.56039 17.4399 2.15039 11.9999 2.15039ZM3.8499 12.0004C3.8499 7.49927 7.49878 3.85039 11.9999 3.85039C16.501 3.85039 20.1499 7.49927 20.1499 12.0004C20.1499 16.5015 16.501 20.1504 11.9999 20.1504C7.49878 20.1504 3.8499 16.5015 3.8499 12.0004Z" fill="#1A1A1A"/>
</svg>
