<svg width="24" height="24" viewBox="0 0 24 24" fill="none" xmlns="http://www.w3.org/2000/svg">
<path d="M14.3621 9.47497C13.9556 9.70969 13.8163 10.2295 14.051 10.6361C14.2857 11.0426 14.8056 11.1819 15.2121 10.9472L16.9442 9.94722C17.3507 9.7125 17.49 9.19264 17.2553 8.78609C17.0206 8.37955 16.5007 8.24025 16.0942 8.47497L14.3621 9.47497Z" fill="#1A1A1A"/>
<path fill-rule="evenodd" clip-rule="evenodd" d="M4.05707 9.29358C2.69393 10.0806 2.22689 11.8236 3.0139 13.1867L6.5139 19.2489C7.3009 20.6121 9.04393 21.0791 10.4071 20.2921L19.6579 14.9512C20.4125 14.5155 20.9263 13.7585 21.0527 12.8964L21.7 8.48123C21.8917 7.1741 21.1599 5.90662 19.9321 5.41903L15.7847 3.77203C14.9749 3.45043 14.0625 3.51696 13.3079 3.95263L4.05707 9.29358ZM4.48614 12.3367C4.16857 11.7867 4.35703 11.0834 4.90707 10.7658L14.1579 5.42488C14.4623 5.24908 14.8305 5.22223 15.1573 5.352L19.3046 6.999C19.8001 7.19575 20.0953 7.70719 20.018 8.23462L19.3707 12.6498C19.3197 12.9977 19.1123 13.3031 18.8079 13.4789L9.55707 18.8199C9.00703 19.1374 8.3037 18.949 7.98614 18.3989L4.48614 12.3367Z" fill="#1A1A1A"/>
</svg>
