<svg width="24" height="24" viewBox="0 0 24 24" fill="none" xmlns="http://www.w3.org/2000/svg">
<path d="M14.6098 10.9794C14.5869 9.41532 13.8271 7.86768 11.9998 7.86768C10.1725 7.86768 9.41271 9.41532 9.38976 10.9794L9.38957 11.106L9.39417 11.3407L9.01962 12.2697L8.91841 12.5373L8.8419 12.7492C8.80519 12.8535 8.77117 12.9548 8.74148 13.0497C8.72422 13.105 8.70807 13.1586 8.69297 13.2107L8.65081 13.3623L8.632 13.4346L8.59871 13.5725L8.56476 13.7323L8.5387 13.8783L8.52308 13.9854L8.51174 14.084L8.50432 14.1743L8.50048 14.2565L8.49988 14.3305L8.50217 14.3967L8.507 14.4551L8.51404 14.506L8.52292 14.5493L8.52796 14.5682L8.53332 14.5853L8.54488 14.6142L8.55348 14.6302C8.56517 14.6492 8.5776 14.6592 8.58953 14.6606C8.65112 14.668 8.75104 14.5785 8.85743 14.4549L8.91591 14.3845L8.97452 14.3097L9.04082 14.2207L9.104 14.1322L9.18908 14.0083L9.2903 13.8538L9.31888 13.8085L9.32025 13.8727C9.34039 14.3487 9.58282 14.9429 10.081 15.394L10.15 15.4543L10.1025 15.4692C9.89847 15.534 9.66073 15.6286 9.50428 15.7429C9.3537 15.8528 9.37245 15.9649 9.3996 16.0102C9.4321 16.0644 9.59894 16.0985 9.83569 16.1182L9.9596 16.1268L10.0254 16.1303L10.1634 16.1356L10.3086 16.1389L10.4592 16.1404L10.6134 16.1402L10.7694 16.1384L11.0029 16.1332L11.2304 16.1255L11.514 16.1121L11.7041 16.1004L11.8167 16.0922L11.9598 16.0795L11.9998 16.0752L12.1489 16.0894L12.3478 16.1039L12.5802 16.117L12.749 16.1247L12.9255 16.1311L13.1982 16.1379L13.3509 16.1399L13.552 16.1404L13.7468 16.1379L13.8711 16.1345L13.9897 16.1295L14.1014 16.1229L14.2295 16.1122L14.3427 16.0985L14.3876 16.0914C14.5026 16.0717 14.5791 16.0451 14.6 16.0102C14.6272 15.9649 14.6459 15.8528 14.4953 15.7429C14.3263 15.6194 14.0622 15.5189 13.8484 15.4541C14.418 14.9772 14.6807 14.3155 14.6807 13.8085L14.7629 13.9365L14.8657 14.0893L14.9267 14.1762L15.0083 14.2875L15.0927 14.3957L15.1497 14.4636C15.2533 14.5827 15.3499 14.6678 15.4101 14.6606C15.4186 14.6596 15.4274 14.6542 15.436 14.6443L15.4486 14.6259L15.4547 14.6142L15.4606 14.6006L15.4717 14.5682L15.4813 14.5286L15.4894 14.4815L15.4953 14.4269L15.4975 14.3967L15.4997 14.3305L15.4999 14.2945L15.4976 14.2164L15.4921 14.1302L15.4879 14.084C15.4848 14.0525 15.481 14.0197 15.4765 13.9854L15.4609 13.8783L15.4514 13.8215L15.4287 13.7014L15.4155 13.6381L15.385 13.5047L15.3488 13.3623L15.3066 13.2107L15.2832 13.1314L15.2581 13.0497C15.1963 12.8519 15.1156 12.6267 15.031 12.4033L14.98 12.2697L14.6054 11.3407L14.6102 11.084L14.6098 10.9794Z" fill="#1A1A1A"/>
<path d="M14.6098 10.9794C14.5869 9.41532 13.8271 7.86768 11.9998 7.86768C10.1725 7.86768 9.41271 9.41532 9.38976 10.9794L9.38957 11.106L9.39417 11.3407L9.01962 12.2697L8.91841 12.5373L8.8419 12.7492C8.80519 12.8535 8.77117 12.9548 8.74148 13.0497C8.72422 13.105 8.70807 13.1586 8.69297 13.2107L8.65081 13.3623L8.632 13.4346L8.59871 13.5725L8.56476 13.7323L8.5387 13.8783L8.52308 13.9854L8.51174 14.084L8.50432 14.1743L8.50048 14.2565L8.49988 14.3305L8.50217 14.3967L8.507 14.4551L8.51404 14.506L8.52292 14.5493L8.52796 14.5682L8.53332 14.5853L8.54488 14.6142L8.55348 14.6302C8.56517 14.6492 8.5776 14.6592 8.58953 14.6606C8.65112 14.668 8.75104 14.5785 8.85743 14.4549L8.91591 14.3845L8.97452 14.3097L9.04082 14.2207L9.104 14.1322L9.18908 14.0083L9.2903 13.8538L9.31888 13.8085L9.32025 13.8727C9.34039 14.3487 9.58282 14.9429 10.081 15.394L10.15 15.4543L10.1025 15.4692C9.89847 15.534 9.66073 15.6286 9.50428 15.7429C9.3537 15.8528 9.37245 15.9649 9.3996 16.0102C9.4321 16.0644 9.59894 16.0985 9.83569 16.1182L9.9596 16.1268L10.0254 16.1303L10.1634 16.1356L10.3086 16.1389L10.4592 16.1404L10.6134 16.1402L10.7694 16.1384L11.0029 16.1332L11.2304 16.1255L11.514 16.1121L11.7041 16.1004L11.8167 16.0922L11.9598 16.0795L11.9998 16.0752L12.1489 16.0894L12.3478 16.1039L12.5802 16.117L12.749 16.1247L12.9255 16.1311L13.1982 16.1379L13.3509 16.1399L13.552 16.1404L13.7468 16.1379L13.8711 16.1345L13.9897 16.1295L14.1014 16.1229L14.2295 16.1122L14.3427 16.0985L14.3876 16.0914C14.5026 16.0717 14.5791 16.0451 14.6 16.0102C14.6272 15.9649 14.6459 15.8528 14.4953 15.7429C14.3263 15.6194 14.0622 15.5189 13.8484 15.4541C14.418 14.9772 14.6807 14.3155 14.6807 13.8085L14.7629 13.9365L14.8657 14.0893L14.9267 14.1762L15.0083 14.2875L15.0927 14.3957L15.1497 14.4636C15.2533 14.5827 15.3499 14.6678 15.4101 14.6606C15.4186 14.6596 15.4274 14.6542 15.436 14.6443L15.4486 14.6259L15.4547 14.6142L15.4606 14.6006L15.4717 14.5682L15.4813 14.5286L15.4894 14.4815L15.4953 14.4269L15.4975 14.3967L15.4997 14.3305L15.4999 14.2945L15.4976 14.2164L15.4921 14.1302L15.4879 14.084C15.4848 14.0525 15.481 14.0197 15.4765 13.9854L15.4609 13.8783L15.4514 13.8215L15.4287 13.7014L15.4155 13.6381L15.385 13.5047L15.3488 13.3623L15.3066 13.2107L15.2832 13.1314L15.2581 13.0497C15.1963 12.8519 15.1156 12.6267 15.031 12.4033L14.98 12.2697L14.6054 11.3407L14.6102 11.084L14.6098 10.9794Z" fill="#1A1A1A"/>
<path d="M14.6098 10.9794C14.5869 9.41532 13.8271 7.86768 11.9998 7.86768C10.1725 7.86768 9.41271 9.41532 9.38976 10.9794L9.38957 11.106L9.39417 11.3407L9.01962 12.2697L8.91841 12.5373L8.8419 12.7492C8.80519 12.8535 8.77117 12.9548 8.74148 13.0497C8.72422 13.105 8.70807 13.1586 8.69297 13.2107L8.65081 13.3623L8.632 13.4346L8.59871 13.5725L8.56476 13.7323L8.5387 13.8783L8.52308 13.9854L8.51174 14.084L8.50432 14.1743L8.50048 14.2565L8.49988 14.3305L8.50217 14.3967L8.507 14.4551L8.51404 14.506L8.52292 14.5493L8.52796 14.5682L8.53332 14.5853L8.54488 14.6142L8.55348 14.6302C8.56517 14.6492 8.5776 14.6592 8.58953 14.6606C8.65112 14.668 8.75104 14.5785 8.85743 14.4549L8.91591 14.3845L8.97452 14.3097L9.04082 14.2207L9.104 14.1322L9.18908 14.0083L9.2903 13.8538L9.31888 13.8085L9.32025 13.8727C9.34039 14.3487 9.58282 14.9429 10.081 15.394L10.15 15.4543L10.1025 15.4692C9.89847 15.534 9.66073 15.6286 9.50428 15.7429C9.3537 15.8528 9.37245 15.9649 9.3996 16.0102C9.4321 16.0644 9.59894 16.0985 9.83569 16.1182L9.9596 16.1268L10.0254 16.1303L10.1634 16.1356L10.3086 16.1389L10.4592 16.1404L10.6134 16.1402L10.7694 16.1384L11.0029 16.1332L11.2304 16.1255L11.514 16.1121L11.7041 16.1004L11.8167 16.0922L11.9598 16.0795L11.9998 16.0752L12.1489 16.0894L12.3478 16.1039L12.5802 16.117L12.749 16.1247L12.9255 16.1311L13.1982 16.1379L13.3509 16.1399L13.552 16.1404L13.7468 16.1379L13.8711 16.1345L13.9897 16.1295L14.1014 16.1229L14.2295 16.1122L14.3427 16.0985L14.3876 16.0914C14.5026 16.0717 14.5791 16.0451 14.6 16.0102C14.6272 15.9649 14.6459 15.8528 14.4953 15.7429C14.3263 15.6194 14.0622 15.5189 13.8484 15.4541C14.418 14.9772 14.6807 14.3155 14.6807 13.8085L14.7629 13.9365L14.8657 14.0893L14.9267 14.1762L15.0083 14.2875L15.0927 14.3957L15.1497 14.4636C15.2533 14.5827 15.3499 14.6678 15.4101 14.6606C15.4186 14.6596 15.4274 14.6542 15.436 14.6443L15.4486 14.6259L15.4547 14.6142L15.4606 14.6006L15.4717 14.5682L15.4813 14.5286L15.4894 14.4815L15.4953 14.4269L15.4975 14.3967L15.4997 14.3305L15.4999 14.2945L15.4976 14.2164L15.4921 14.1302L15.4879 14.084C15.4848 14.0525 15.481 14.0197 15.4765 13.9854L15.4609 13.8783L15.4514 13.8215L15.4287 13.7014L15.4155 13.6381L15.385 13.5047L15.3488 13.3623L15.3066 13.2107L15.2832 13.1314L15.2581 13.0497C15.1963 12.8519 15.1156 12.6267 15.031 12.4033L14.98 12.2697L14.6054 11.3407L14.6102 11.084L14.6098 10.9794Z" fill="#1A1A1A"/>
<path fill-rule="evenodd" clip-rule="evenodd" d="M11.9611 2H12.0387C13.2629 1.99999 14.2358 1.99999 15.0194 2.06664C15.8218 2.13489 16.5036 2.27766 17.1235 2.60901C18.0232 3.08988 18.76 3.82673 19.2409 4.72637C19.5722 5.3463 19.715 6.02807 19.7833 6.83051C19.8499 7.61414 19.8499 8.58698 19.8499 9.81119V14.1965C19.8499 15.4207 19.8499 16.3936 19.7833 17.1772C19.715 17.9796 19.5722 18.6614 19.2409 19.2813C18.76 20.181 18.0232 20.9178 17.1235 21.3987C16.5036 21.73 15.8218 21.8728 15.0194 21.9411C14.2358 22.0077 13.2629 22.0077 12.0388 22.0077H11.961C10.7369 22.0077 9.76403 22.0077 8.98042 21.9411C8.17797 21.8728 7.49621 21.73 6.87628 21.3987C5.97663 20.9178 5.23979 20.181 4.75892 19.2813C4.42756 18.6614 4.2848 17.9796 4.21654 17.1772C4.14989 16.3936 4.1499 15.4207 4.1499 14.1965V9.81117C4.1499 8.58697 4.14989 7.61413 4.21654 6.83052C4.2848 6.02807 4.42756 5.3463 4.75892 4.72637C5.23979 3.82673 5.97663 3.08988 6.87628 2.60901C7.49621 2.27766 8.17797 2.13489 8.98042 2.06664C9.76403 1.99999 10.7369 1.99999 11.9611 2ZM9.12449 3.76052C8.43193 3.81943 8.00933 3.93099 7.67765 4.10828C7.07453 4.43065 6.58056 4.92463 6.25818 5.52775C6.08089 5.85943 5.96933 6.28203 5.91043 6.97459C5.85062 7.67772 5.8499 8.57826 5.8499 9.85001V14.1577C5.8499 15.4294 5.85062 16.33 5.91043 17.0331C5.96933 17.7257 6.08089 18.1483 6.25818 18.4799C6.58056 19.0831 7.07453 19.577 7.67765 19.8994C8.00933 20.0767 8.43193 20.1883 9.12449 20.2472C9.82762 20.307 10.7282 20.3077 11.9999 20.3077C13.2716 20.3077 14.1722 20.307 14.8753 20.2472C15.5679 20.1883 15.9905 20.0767 16.3222 19.8994C16.9253 19.577 17.4193 19.0831 17.7416 18.4799C17.9189 18.1483 18.0305 17.7257 18.0894 17.0331C18.1492 16.33 18.1499 15.4294 18.1499 14.1577V9.85C18.1499 8.57826 18.1492 7.67772 18.0894 6.97459C18.0305 6.28203 17.9189 5.85943 17.7416 5.52775C17.4193 4.92463 16.9253 4.43065 16.3222 4.10828C15.9905 3.93099 15.5679 3.81943 14.8753 3.76052C14.1722 3.70072 13.2716 3.7 11.9999 3.7C10.7282 3.7 9.82762 3.70072 9.12449 3.76052Z" fill="#1A1A1A"/>
</svg>
