<svg width="24" height="24" viewBox="0 0 24 24" fill="none" xmlns="http://www.w3.org/2000/svg">
<path fill-rule="evenodd" clip-rule="evenodd" d="M2.1499 12.0006C2.1499 9.87429 3.87361 8.15058 5.9999 8.15058H6.44961C6.46567 8.14967 6.48179 8.14921 6.49796 8.14921L7.29965 8.14922C7.72437 8.14922 8.11451 7.91514 8.31437 7.54039L11.5165 1.53633C11.8462 0.91815 12.5738 0.627949 13.2384 0.849499C15.0887 1.46625 16.1668 3.38857 15.7282 5.28896L15.0682 8.14923H18.1573C20.662 8.14923 22.4999 10.5031 21.8924 12.933L20.7711 17.418C20.1201 20.0222 17.7802 21.8492 15.0958 21.8492H7.3499V21.8506H5.9999C3.87361 21.8506 2.1499 20.1269 2.1499 18.0006V12.0006ZM5.64795 20.1219C4.62796 19.954 3.8499 19.0681 3.8499 18.0006V12.0006C3.8499 10.933 4.62796 10.0472 5.64795 9.87925V20.1219Z" fill="#1A1A1A"/>
</svg>
