<svg width="24" height="24" viewBox="0 0 24 24" fill="none" xmlns="http://www.w3.org/2000/svg">
<path d="M7.85577 8.97148C8.14765 8.68373 8.61754 8.68708 8.90528 8.97897L10.2864 10.38C10.7612 10.8616 10.7635 11.6346 10.2914 12.1189L8.92805 13.5179C8.64199 13.8115 8.17213 13.8175 7.8786 13.5315C7.58506 13.2454 7.579 12.7756 7.86506 12.482L9.0628 11.253L7.84828 10.021C7.56053 9.72911 7.56389 9.25923 7.85577 8.97148Z" fill="#2F3033"/>
<path d="M15.3501 9.49999C15.3501 9.03055 14.9695 8.64999 14.5001 8.64999C14.0306 8.64999 13.6501 9.03055 13.6501 9.49999V13C13.6501 13.4694 14.0306 13.85 14.5001 13.85C14.9695 13.85 15.3501 13.4694 15.3501 13V9.49999Z" fill="#2F3033"/>
<path fill-rule="evenodd" clip-rule="evenodd" d="M12.0001 20.2524C11.974 20.2687 11.9474 20.2845 11.9202 20.2998L8.6132 22.1547C7.51067 22.7731 6.15009 21.9762 6.15009 20.7121V19.3242H5.66168C4.2746 19.3242 3.15015 18.1998 3.15015 16.8127V11.1635C3.15015 6.65646 6.80383 3.00278 11.3109 3.00278H12.6893C17.1964 3.00278 20.8501 6.65646 20.8501 11.1635V16.8127C20.8501 18.1998 19.7256 19.3242 18.3385 19.3242H17.85V20.7121C17.85 21.9762 16.4894 22.7731 15.3869 22.1547L12.0799 20.2998C12.0527 20.2845 12.0261 20.2687 12.0001 20.2524ZM4.85015 11.1635C4.85015 7.59534 7.74271 4.70278 11.3109 4.70278H12.6893C16.2575 4.70278 19.1501 7.59534 19.1501 11.1635V16.8127C19.1501 17.2609 18.7867 17.6242 18.3385 17.6242H17.85V16.5119C17.85 15.2232 16.4414 14.4295 15.3391 15.0972L12.0264 17.1039L12.0001 17.1202L11.9737 17.1039L8.66102 15.0972C7.55873 14.4295 6.15009 15.2232 6.15009 16.5119V17.6242H5.66168C5.21348 17.6242 4.85015 17.2609 4.85015 16.8127V11.1635ZM12.8631 18.7741C12.8659 18.7156 12.8659 18.6569 12.8632 18.5983C12.8744 18.5827 12.8891 18.5689 12.9072 18.558L16.15 16.5936V20.6335L12.9116 18.8171C12.8915 18.8058 12.8753 18.791 12.8631 18.7741ZM11.137 18.5983C11.1343 18.6569 11.1343 18.7156 11.137 18.7741C11.1248 18.791 11.1087 18.8058 11.0886 18.8171L7.85009 20.6335V16.5936L11.0929 18.558C11.111 18.5689 11.1257 18.5827 11.137 18.5983Z" fill="#2F3033"/>
</svg>
