<svg width="24" height="24" viewBox="0 0 24 24" fill="none" xmlns="http://www.w3.org/2000/svg">
<path d="M17.4609 13.1715C19.6181 13.2812 21.3338 15.0653 21.334 17.2496L21.3281 17.4606C21.2184 19.6177 19.4344 21.3336 17.25 21.3336L17.04 21.3278C14.9524 21.2219 13.278 19.5481 13.1719 17.4606L13.167 17.2496C13.1672 14.9947 14.9951 13.1668 17.25 13.1666L17.4609 13.1715ZM17.25 14.3668C15.6578 14.367 14.3674 15.6575 14.3672 17.2496C14.3673 18.8419 15.6578 20.1332 17.25 20.1334C18.8423 20.1334 20.1337 18.8419 20.1338 17.2496C20.1336 15.6574 18.8423 14.3669 17.25 14.3668ZM17.207 15.6324C17.8722 15.6326 18.3369 15.9766 18.3369 16.4664C18.3367 16.8011 18.0886 17.0994 17.7744 17.1383V17.1881C18.1479 17.2156 18.4277 17.533 18.4277 17.9293C18.4275 18.4783 17.9197 18.8678 17.2021 18.8678C16.5689 18.8678 16.0726 18.5239 16.0723 18.1344C16.0723 17.9612 16.193 17.8375 16.3594 17.8375C16.4686 17.8376 16.5597 17.8907 16.6621 18.0182C16.8011 18.2049 16.9812 18.3004 17.2021 18.3004C17.5029 18.3004 17.6992 18.1429 17.6992 17.899C17.6991 17.6577 17.5002 17.4938 17.2041 17.4938H17.0195C16.8625 17.4936 16.7461 17.3729 16.7461 17.2067C16.7461 17.0473 16.8602 16.9246 17.0195 16.9244H17.1973C17.4433 16.9244 17.626 16.7691 17.626 16.5573C17.626 16.3454 17.4484 16.2 17.1934 16.1998C16.9975 16.1998 16.8421 16.2859 16.7031 16.4703C16.6212 16.5773 16.5255 16.6255 16.4072 16.6256C16.2318 16.6256 16.1065 16.5071 16.1064 16.3385C16.1064 15.9625 16.5918 15.6324 17.207 15.6324ZM12.2109 7.92151C14.3681 8.03116 16.0838 9.81529 16.084 11.9996L16.0801 12.1315C15.6365 12.2324 15.2143 12.389 14.8213 12.5944C14.8616 12.4024 14.8838 12.2035 14.8838 11.9996C14.8836 10.4074 13.5923 9.11689 12 9.11682C10.4078 9.117 9.11736 10.4075 9.11719 11.9996C9.11727 13.5919 10.4078 14.8832 12 14.8834C12.2039 14.8834 12.4028 14.8612 12.5947 14.8209C12.3893 15.2139 12.2328 15.6361 12.1318 16.0797C12.0881 16.0811 12.0441 16.0836 12 16.0836L11.79 16.0778C9.70241 15.9719 8.02801 14.2981 7.92188 12.2106L7.91699 11.9996C7.91717 9.74473 9.7451 7.9168 12 7.91663L12.2109 7.92151ZM11.9541 10.4156C12.5807 10.4157 13.0391 10.7991 13.0391 11.3209C13.039 11.6421 12.8834 11.9249 12.5029 12.2985L11.8535 12.9547V12.986H12.8018C13.0134 12.986 13.1453 13.1002 13.1455 13.2867C13.1455 13.4713 13.0159 13.5836 12.8018 13.5836H11.2432C11.0221 13.5836 10.876 13.4576 10.876 13.2662C10.8761 13.1297 10.9521 13.0108 11.1797 12.7877L11.9678 11.9772C12.2116 11.7288 12.3145 11.5644 12.3145 11.3912C12.3144 11.168 12.1522 11.0173 11.9131 11.0172C11.7195 11.0172 11.5778 11.1154 11.4775 11.318C11.3774 11.4728 11.2911 11.5327 11.1592 11.5328C10.9792 11.5328 10.8535 11.4091 10.8535 11.236C10.8538 10.8123 11.3322 10.4156 11.9541 10.4156ZM6.96094 2.67151C9.11812 2.7811 10.8338 4.56525 10.834 6.74963L10.8301 6.88147C10.3865 6.9824 9.96426 7.13896 9.57129 7.34436C9.61157 7.15237 9.63379 6.95358 9.63379 6.74963C9.63361 5.15736 8.34231 3.86682 6.75 3.86682C5.15784 3.867 3.86736 5.15747 3.86719 6.74963C3.86719 8.34195 5.15773 9.63325 6.75 9.63342C6.95395 9.63342 7.15274 9.61121 7.34473 9.57092C7.13925 9.96389 6.98284 10.3861 6.88184 10.8297C6.83804 10.8311 6.79413 10.8336 6.75 10.8336L6.54004 10.8278C4.45236 10.7218 2.77793 9.04821 2.67188 6.96057L2.66699 6.74963C2.66717 4.49473 4.4951 2.6668 6.75 2.66663L6.96094 2.67151ZM6.80469 5.20081C7.07118 5.20086 7.24897 5.38093 7.24902 5.65881V7.96057C7.24895 8.21777 7.11457 8.36078 6.87793 8.36096C6.63874 8.36096 6.50398 8.21565 6.50391 7.96057V5.91174H6.49512L6.25586 6.07385C6.13743 6.14901 6.07319 6.17148 5.99805 6.17151C5.84766 6.17151 5.73828 6.06213 5.73828 5.91174C5.73833 5.80014 5.80702 5.70012 5.94141 5.61584L6.3125 5.36682C6.49012 5.25302 6.6521 5.20081 6.80469 5.20081Z" fill="#1A1A1A"/>
</svg>
