<svg width="24" height="24" viewBox="0 0 24 24" fill="none" xmlns="http://www.w3.org/2000/svg">
<path d="M20.0758 3.87467C18.377 2.17589 15.6228 2.17589 13.924 3.87467L11.0956 6.7031C10.7636 7.03504 10.7636 7.57324 11.0956 7.90518C11.4275 8.23713 11.9657 8.23713 12.2976 7.90518L15.1261 5.07675C16.161 4.04186 17.8388 4.04186 18.8737 5.07675C19.9086 6.11164 19.9086 7.78953 18.8737 8.82442L15.3382 12.36C14.3033 13.3948 12.6254 13.3948 11.5905 12.36C11.2586 12.028 10.7204 12.028 10.3885 12.36C10.0565 12.6919 10.0565 13.2301 10.3885 13.562C12.0872 15.2608 14.8415 15.2608 16.5403 13.562L20.0758 10.0265C21.7746 8.32772 21.7746 5.57345 20.0758 3.87467Z" fill="#1A1A1A"/>
<path d="M3.92399 20.1252C5.62277 21.824 8.37704 21.824 10.0758 20.1252L12.9042 17.2968C13.2362 16.9648 13.2362 16.4266 12.9042 16.0947C12.5723 15.7627 12.0341 15.7627 11.7022 16.0947L8.87373 18.9231C7.83885 19.958 6.16096 19.958 5.12607 18.9231C4.09118 17.8882 4.09118 16.2103 5.12607 15.1754L8.6616 11.6399C9.69649 10.605 11.3744 10.605 12.4093 11.6399C12.7412 11.9719 13.2794 11.9719 13.6114 11.6399C13.9433 11.308 13.9433 10.7698 13.6114 10.4378C11.9126 8.73904 9.1583 8.73904 7.45952 10.4378L3.92399 13.9734C2.22521 15.6721 2.22521 18.4264 3.92399 20.1252Z" fill="#1A1A1A"/>
</svg>
