<svg width="24" height="24" viewBox="0 0 24 24" fill="none" xmlns="http://www.w3.org/2000/svg">
<path d="M6.04248 4C8.78701 4.00008 11.0411 6.10158 11.2827 8.7832L11.3042 9.24609V18.9629C11.304 19.7553 10.6611 20.3975 9.86865 20.3975C9.07633 20.3974 8.43423 19.7552 8.43408 18.9629V13.9492C7.71659 14.316 6.9036 14.5224 6.04248 14.5225C4.73615 14.5225 3.54052 14.0469 2.62061 13.2588C2.5194 13.1721 2.46869 13.1283 2.19971 12.7383C2.04766 12.5178 1.74498 11.8608 1.67627 11.6016C1.55493 11.1431 1.55518 10.8823 1.55518 10.3623V8.16016C1.55518 7.64031 1.55498 7.38024 1.67627 6.92188C1.7448 6.66292 2.04756 6.00592 2.19971 5.78516C2.46857 5.39526 2.51955 5.35123 2.62061 5.26465C3.54052 4.47654 4.73615 4 6.04248 4ZM3.02686 7.00879C2.71563 7.00901 2.46338 7.26099 2.46338 7.57227V10.9551C2.46338 11.2664 2.71563 11.5193 3.02686 11.5195C3.33827 11.5195 3.59131 11.2665 3.59131 10.9551V7.57227C3.59131 7.26086 3.33827 7.00879 3.02686 7.00879Z" fill="#1A1A1A"/>
<path d="M17.9578 4C15.2132 4.00008 12.9592 6.10158 12.7175 8.7832L12.696 9.24609V18.9629C12.6962 19.7553 13.3392 20.3975 14.1316 20.3975C14.9239 20.3974 15.566 19.7552 15.5662 18.9629V13.9492C16.2837 14.316 17.0966 14.5224 17.9578 14.5225C19.2641 14.5225 20.4597 14.0469 21.3796 13.2588C21.4808 13.1721 21.5316 13.1283 21.8005 12.7383C21.9526 12.5178 22.2553 11.8608 22.324 11.6016C22.4453 11.1431 22.4451 10.8823 22.4451 10.3623V8.16016C22.4451 7.64031 22.4453 7.38024 22.324 6.92188C22.2554 6.66292 21.9527 6.00592 21.8005 5.78516C21.5317 5.39526 21.4807 5.35123 21.3796 5.26465C20.4597 4.47654 19.2641 4 17.9578 4ZM20.9734 7.00879C21.2846 7.00897 21.5369 7.26097 21.5369 7.57227V10.9551C21.5369 11.2664 21.2846 11.5194 20.9734 11.5195C20.662 11.5195 20.4089 11.2665 20.4089 10.9551V7.57227C20.4089 7.26086 20.662 7.00879 20.9734 7.00879Z" fill="#1A1A1A"/>
</svg>
