<svg width="24" height="24" viewBox="0 0 24 24" fill="none" xmlns="http://www.w3.org/2000/svg">
<path d="M3.9999 5.15039C3.53046 5.15039 3.1499 5.53095 3.1499 6.00039C3.1499 6.46983 3.53046 6.85039 3.9999 6.85039H19.9999C20.4693 6.85039 20.8499 6.46983 20.8499 6.00039C20.8499 5.53095 20.4693 5.15039 19.9999 5.15039H3.9999Z" fill="#1A1A1A"/>
<path d="M3.9999 11.1504C3.53046 11.1504 3.1499 11.5309 3.1499 12.0004C3.1499 12.4698 3.53046 12.8504 3.9999 12.8504H19.9999C20.4693 12.8504 20.8499 12.4698 20.8499 12.0004C20.8499 11.5309 20.4693 11.1504 19.9999 11.1504H3.9999Z" fill="#1A1A1A"/>
<path d="M3.1499 18.0004C3.1499 17.5309 3.53046 17.1504 3.9999 17.1504H9.9999C10.4693 17.1504 10.8499 17.5309 10.8499 18.0004C10.8499 18.4698 10.4693 18.8504 9.9999 18.8504H3.9999C3.53046 18.8504 3.1499 18.4698 3.1499 18.0004Z" fill="#1A1A1A"/>
<path d="M20.3565 16.6969C20.6884 16.3769 20.6884 15.858 20.3565 15.538C20.0245 15.218 19.4863 15.218 19.1544 15.538L15.9724 18.6058C15.9138 18.6622 15.8189 18.6622 15.7603 18.6058L14.3461 17.2423C14.0141 16.9223 13.4759 16.9223 13.144 17.2423C12.812 17.5624 12.812 18.0812 13.144 18.4012L14.5582 19.7647C15.2807 20.4612 16.452 20.4612 17.1745 19.7647L20.3565 16.6969Z" fill="#1A1A1A"/>
</svg>
