<svg width="24" height="24" viewBox="0 0 24 24" fill="none" xmlns="http://www.w3.org/2000/svg">
<path d="M12.8499 15.0006C12.8499 14.5312 12.4693 14.1506 11.9999 14.1506C11.5305 14.1506 11.1499 14.5312 11.1499 15.0006V16.0006C11.1499 16.47 11.5305 16.8506 11.9999 16.8506C12.4693 16.8506 12.8499 16.47 12.8499 16.0006V15.0006Z" fill="#1A1A1A"/>
<path fill-rule="evenodd" clip-rule="evenodd" d="M8.66835 9.1506L8.64542 9.07197C8.00375 6.87164 9.26728 4.56775 11.4676 3.92607C13.6679 3.2844 15.9718 4.54794 16.6135 6.74826L16.7535 7.22827C16.8849 7.67894 17.3568 7.93773 17.8075 7.80631C18.2581 7.67488 18.5169 7.203 18.3855 6.75233L18.2455 6.27232C17.341 3.17066 14.0933 1.38953 10.9917 2.29405C8.01154 3.16314 6.25049 6.19533 6.91936 9.18278C6.86516 9.18623 6.81214 9.19006 6.76029 9.19429C6.20747 9.23946 5.71271 9.3355 5.25204 9.57022C4.52762 9.93933 3.93864 10.5283 3.56953 11.2527C3.33481 11.7134 3.23877 12.2082 3.1936 12.761C3.14989 13.296 3.14989 13.9551 3.1499 14.7647V16.2365C3.14989 17.0461 3.14989 17.7052 3.1936 18.2402C3.23877 18.793 3.33481 19.2878 3.56953 19.7485C3.93864 20.4729 4.52762 21.0619 5.25204 21.431C5.71271 21.6657 6.20747 21.7617 6.76029 21.8069C7.29531 21.8506 7.95442 21.8506 8.76405 21.8506H15.2358C16.0454 21.8506 16.7045 21.8506 17.2395 21.8069C17.7923 21.7617 18.2871 21.6657 18.7478 21.431C19.4722 21.0619 20.0612 20.4729 20.4303 19.7485C20.665 19.2878 20.761 18.793 20.8062 18.2402C20.8499 17.7052 20.8499 17.0461 20.8499 16.2364V14.7648C20.8499 13.9551 20.8499 13.296 20.8062 12.761C20.761 12.2082 20.665 11.7134 20.4303 11.2527C20.0612 10.5283 19.4722 9.93933 18.7478 9.57022C18.2871 9.3355 17.7923 9.23946 17.2395 9.19429C16.7045 9.15058 16.0454 9.15059 15.2358 9.1506L8.66835 9.1506ZM6.89873 10.8886C6.45103 10.9252 6.20489 10.9927 6.02382 11.0849C5.61928 11.2911 5.29037 11.62 5.08424 12.0245C4.99198 12.2056 4.92453 12.4517 4.88795 12.8994C4.85056 13.357 4.8499 13.9465 4.8499 14.8006V16.2006C4.8499 17.0547 4.85056 17.6442 4.88795 18.1018C4.92453 18.5495 4.99198 18.7956 5.08424 18.9767C5.29037 19.3812 5.61928 19.7101 6.02382 19.9163C6.20489 20.0085 6.45103 20.076 6.89873 20.1125C7.35634 20.1499 7.9458 20.1506 8.7999 20.1506H15.1999C16.054 20.1506 16.6435 20.1499 17.1011 20.1125C17.5488 20.076 17.7949 20.0085 17.976 19.9163C18.3805 19.7101 18.7094 19.3812 18.9156 18.9767C19.0078 18.7956 19.0753 18.5495 19.1119 18.1018C19.1492 17.6442 19.1499 17.0547 19.1499 16.2006V14.8006C19.1499 13.9465 19.1492 13.357 19.1119 12.8994C19.0753 12.4517 19.0078 12.2056 18.9156 12.0245C18.7094 11.62 18.3805 11.2911 17.976 11.0849C17.7949 10.9927 17.5488 10.9252 17.1011 10.8886C16.6435 10.8513 16.054 10.8506 15.1999 10.8506H8.7999C7.9458 10.8506 7.35634 10.8513 6.89873 10.8886Z" fill="#1A1A1A"/>
</svg>
