<svg width="24" height="24" viewBox="0 0 24 24" fill="none" xmlns="http://www.w3.org/2000/svg">
<path d="M4.62651 7.27676C4.62651 5.8132 5.81296 4.62676 7.27651 4.62676H16.7232C18.1868 4.62676 19.3732 5.8132 19.3732 7.27676V11.0864C19.3732 11.5558 19.7538 11.9364 20.2232 11.9364C20.6927 11.9364 21.0732 11.5558 21.0732 11.0864V7.27676C21.0732 4.87432 19.1256 2.92676 16.7232 2.92676H7.27651C4.87408 2.92676 2.92651 4.87432 2.92651 7.27676V11.0864C2.92651 11.5558 3.30707 11.9364 3.77651 11.9364C4.24596 11.9364 4.62651 11.5558 4.62651 11.0864V7.27676Z" fill="#1A1A1A"/>
<path fill-rule="evenodd" clip-rule="evenodd" d="M6.9745 13.8911C4.99119 13.8911 3.38339 15.4989 3.38339 17.4822C3.38339 19.4655 4.99119 21.0733 6.9745 21.0733C8.95782 21.0733 10.5656 19.4655 10.5656 17.4822C10.5656 16.8042 10.3777 16.17 10.0511 15.629L12.187 13.4931L14.0969 15.4031C13.6796 15.9898 13.4342 16.7074 13.4342 17.4822C13.4342 19.4655 15.0419 21.0733 17.0253 21.0733C19.0086 21.0733 20.6164 19.4655 20.6164 17.4822C20.6164 15.4989 19.0086 13.8911 17.0253 13.8911C16.4343 13.8911 15.8766 14.0339 15.3849 14.2868L13.3891 12.291L16.8616 8.81849C17.5255 8.1546 17.5255 7.07822 16.8616 6.41433L12.187 11.0889L7.51245 6.41431C6.84856 7.0782 6.8485 8.15464 7.51239 8.81853L10.9849 12.291L8.85415 14.4217C8.3074 14.0852 7.66362 13.8911 6.9745 13.8911ZM5.08339 17.4822C5.08339 16.4378 5.93007 15.5911 6.9745 15.5911C8.01894 15.5911 8.86562 16.4378 8.86562 17.4822C8.86562 18.5267 8.01894 19.3733 6.9745 19.3733C5.93007 19.3733 5.08339 18.5267 5.08339 17.4822ZM17.0253 15.5911C15.9808 15.5911 15.1342 16.4378 15.1342 17.4822C15.1342 18.5267 15.9808 19.3733 17.0253 19.3733C18.0697 19.3733 18.9164 18.5267 18.9164 17.4822C18.9164 16.4378 18.0697 15.5911 17.0253 15.5911Z" fill="#1A1A1A"/>
</svg>
