<svg width="24" height="24" viewBox="0 0 24 24" fill="none" xmlns="http://www.w3.org/2000/svg">
<path fill-rule="evenodd" clip-rule="evenodd" d="M15.9364 3.15039H8.0634C7.11428 3.15038 6.35026 3.15038 5.73189 3.2009C5.0957 3.25288 4.53919 3.36254 4.02504 3.62451C3.20654 4.04156 2.54107 4.70703 2.12402 5.52553C1.86206 6.03968 1.75239 6.59618 1.70041 7.23238C1.64989 7.85075 1.64989 8.61476 1.6499 9.56388V14.4369C1.64989 15.386 1.64989 16.15 1.70041 16.7684C1.75239 17.4046 1.86206 17.9611 2.12402 18.4753C2.54107 19.2938 3.20654 19.9592 4.02504 20.3763C4.53919 20.6382 5.0957 20.7479 5.73189 20.7999C6.35023 20.8504 7.11421 20.8504 8.06328 20.8504H15.9364C16.8855 20.8504 17.6496 20.8504 18.2679 20.7999C18.9041 20.7479 19.4606 20.6382 19.9748 20.3763C20.7933 19.9592 21.4587 19.2938 21.8758 18.4753C22.1378 17.9611 22.2474 17.4046 22.2994 16.7684C22.3499 16.1501 22.3499 15.3861 22.3499 14.437V9.56385C22.3499 8.61478 22.3499 7.85072 22.2994 7.23238C22.2474 6.59618 22.1378 6.03968 21.8758 5.52553C21.4587 4.70703 20.7933 4.04156 19.9748 3.62451C19.4606 3.36254 18.9041 3.25288 18.2679 3.2009C17.6495 3.15038 16.8855 3.15038 15.9364 3.15039ZM4.79683 5.13922C5.03138 5.01972 5.33926 4.93864 5.87033 4.89525C6.41132 4.85105 7.10578 4.85039 8.0999 4.85039H15.8999C16.894 4.85039 17.5885 4.85105 18.1295 4.89525C18.6605 4.93864 18.9684 5.01972 19.203 5.13922C19.3838 5.23135 19.5523 5.34337 19.7058 5.47252L12.7361 11.2807C12.3096 11.6361 11.6901 11.6361 11.2636 11.2807L4.2939 5.47257C4.44743 5.3434 4.616 5.23136 4.79683 5.13922ZM3.44009 6.97396C3.42201 7.09095 3.40691 7.22213 3.39476 7.37082C3.35056 7.91181 3.3499 8.60627 3.3499 9.60039V14.4004C3.3499 15.3945 3.35056 16.089 3.39476 16.63C3.43815 17.161 3.51923 17.4689 3.63874 17.7035C3.8928 18.2021 4.2982 18.6075 4.79683 18.8616C5.03138 18.9811 5.33926 19.0621 5.87033 19.1055C6.41132 19.1497 7.10579 19.1504 8.0999 19.1504H15.8999C16.894 19.1504 17.5885 19.1497 18.1295 19.1055C18.6605 19.0621 18.9684 18.9811 19.203 18.8616C19.7016 18.6075 20.107 18.2021 20.3611 17.7035C20.4806 17.4689 20.5617 17.161 20.605 16.63C20.6492 16.089 20.6499 15.3945 20.6499 14.4004V9.60039C20.6499 8.60627 20.6492 7.91181 20.605 7.37082C20.5929 7.2221 20.5778 7.09088 20.5597 6.97388L13.8244 12.5867C12.7675 13.4674 11.2322 13.4674 10.1753 12.5867L3.44009 6.97396Z" fill="#1A1A1A"/>
</svg>
