<svg width="24" height="24" viewBox="0 0 24 24" fill="none" xmlns="http://www.w3.org/2000/svg">
<path fill-rule="evenodd" clip-rule="evenodd" d="M16.6201 2.86325C14.9434 1.8952 13.0597 1.38986 11.1605 1.37366C8.94894 1.35479 7.76483 3.48234 8.04881 5.35119L8.75101 9.97238L6.04115 14.0547L3.48424 17.8697C2.56619 19.2394 2.99865 21.1001 4.42669 21.9246L5.71096 22.6661C7.139 23.4905 8.9666 22.9347 9.69383 21.4548L11.7192 17.3329L13.6021 13.5439L18.7512 11.5302C20.5116 10.8417 21.7621 8.75246 20.6399 6.84661C19.6763 5.21002 18.2968 3.83131 16.6201 2.86325ZM9.29056 12.2334L11.6718 13.6082L10.5995 15.7662L7.9579 14.2411L9.29056 12.2334ZM12.7832 12.0388L18.132 9.94697C19.2289 9.51799 19.6095 8.44715 19.175 7.70914C18.3594 6.32384 17.191 5.15587 15.7701 4.3355C14.3492 3.51513 12.7535 3.08731 11.146 3.0736C10.2896 3.06629 9.55258 3.93138 9.72951 5.0958L10.5923 10.7739L12.7832 12.0388ZM4.8964 18.8162L7.01281 15.6584L9.84457 17.2933L8.16808 20.7051C7.87464 21.3022 7.13719 21.5265 6.56096 21.1938L5.27669 20.4523C4.70046 20.1197 4.52596 19.3689 4.8964 18.8162Z" fill="#1A1A1A"/>
</svg>
