<svg width="24" height="24" viewBox="0 0 24 24" fill="none" xmlns="http://www.w3.org/2000/svg">
<path fill-rule="evenodd" clip-rule="evenodd" d="M13.4988 2.6499C13.0294 2.6499 12.6489 3.03046 12.6489 3.4999C12.6489 3.96934 13.0294 4.3499 13.4988 4.3499H18.4467L13.7042 9.09242C12.5435 8.18842 11.0841 7.64996 9.49887 7.64996C5.71575 7.64996 2.64893 10.7168 2.64893 14.4999C2.64893 18.2831 5.71575 21.3499 9.49887 21.3499C13.282 21.3499 16.3488 18.2831 16.3488 14.4999C16.3488 12.9147 15.8103 11.4552 14.9063 10.2945L19.6488 5.55198V10.4999C19.6488 10.9693 20.0294 11.3499 20.4988 11.3499C20.9682 11.3499 21.3488 10.9693 21.3488 10.4999V3.4999C21.3488 3.03046 20.9682 2.6499 20.4988 2.6499H13.4988ZM4.34891 14.4999C4.34891 11.6557 6.65463 9.34995 9.49887 9.34995C12.3431 9.34995 14.6488 11.6557 14.6488 14.4999C14.6488 17.3442 12.3431 19.6499 9.49887 19.6499C6.65463 19.6499 4.34891 17.3442 4.34891 14.4999Z" fill="#0099FF"/>
</svg>
