<svg width="24" height="24" viewBox="0 0 24 24" fill="none" xmlns="http://www.w3.org/2000/svg">
<path fill-rule="evenodd" clip-rule="evenodd" d="M17.6509 4.19856C16.7818 3.32948 15.3727 3.32948 14.5036 4.19856L5.23173 13.4705C4.92872 13.7735 4.71964 14.1575 4.6296 14.5765L3.88462 18.043C3.54521 19.6223 4.94861 21.0257 6.52794 20.6863L9.99445 19.9414C10.4134 19.8513 10.7975 19.6422 11.1005 19.3392L20.3724 10.0673C21.2415 9.19823 21.2415 7.78918 20.3724 6.9201L17.6509 4.19856ZM15.7057 5.40064C15.9109 5.19546 16.2436 5.19546 16.4488 5.40064L19.1703 8.12218C19.3755 8.32737 19.3755 8.66004 19.1703 8.86523L17.1329 10.9026L13.6683 7.43806L15.7057 5.40064ZM12.4662 8.64014L6.43381 14.6726C6.36227 14.7441 6.31291 14.8348 6.29165 14.9337L5.54667 18.4002C5.46654 18.7731 5.79788 19.1044 6.17076 19.0243L9.63727 18.2793C9.73618 18.258 9.82686 18.2087 9.8984 18.1371L15.9308 12.1047L12.4662 8.64014Z" fill="#1A1A1A"/>
</svg>
