<svg width="24" height="24" viewBox="0 0 24 24" fill="none" xmlns="http://www.w3.org/2000/svg">
<path fill-rule="evenodd" clip-rule="evenodd" d="M14.4763 2.98171C12.9499 2.07543 11.0504 2.07543 9.52403 2.98171L5.52403 5.35671C4.05231 6.23054 3.15015 7.81541 3.15015 9.527V14.4731C3.15015 16.1847 4.05231 17.7696 5.52403 18.6434L9.52403 21.0184C11.0504 21.9247 12.9499 21.9247 14.4763 21.0184L18.4763 18.6434C19.948 17.7696 20.8501 16.1847 20.8501 14.4731V9.527C20.8501 7.81541 19.948 6.23054 18.4763 5.35671L14.4763 2.98171ZM10.3919 4.44346C11.3833 3.85485 12.617 3.85485 13.6083 4.44346L17.6083 6.81846C18.5642 7.386 19.1501 8.41535 19.1501 9.527V14.4731C19.1501 15.5848 18.5642 16.6141 17.6083 17.1816L13.6083 19.5566C12.617 20.1453 11.3833 20.1453 10.3919 19.5566L6.39195 17.1816C5.43609 16.6141 4.85015 15.5848 4.85015 14.4731V9.527C4.85015 8.41535 5.43609 7.386 6.39195 6.81846L10.3919 4.44346ZM10.8498 9.76449C10.8498 8.96559 11.4785 8.35 12.215 8.35C12.9515 8.35 13.5803 8.96559 13.5803 9.76449C13.5803 10.5634 12.9515 11.179 12.215 11.179C11.4785 11.179 10.8498 10.5634 10.8498 9.76449ZM12.215 6.65C10.5046 6.65 9.14976 8.06211 9.14976 9.76449C9.14976 11.4669 10.5046 12.879 12.215 12.879C13.9254 12.879 15.2803 11.4669 15.2803 9.76449C15.2803 8.06211 13.9254 6.65 12.215 6.65ZM7.43914 15.6925C8.35432 14.8895 9.69393 13.9603 11.6438 13.9603H13.7229C13.7437 13.5093 14.1159 13.15 14.572 13.15C15.0281 13.15 15.4003 13.5093 15.4211 13.9603H15.9998C16.4692 13.9603 16.8498 14.3408 16.8498 14.8103C16.8498 15.2797 16.4692 15.6603 15.9998 15.6603H15.422V16C15.422 16.4694 15.0415 16.85 14.572 16.85C14.1026 16.85 13.722 16.4694 13.722 16V15.6603H11.6438C10.2931 15.6603 9.34241 16.2841 8.56037 16.9703C8.20751 17.28 7.67046 17.2449 7.36084 16.892C7.05122 16.5392 7.08628 16.0021 7.43914 15.6925Z" fill="#1A1A1A"/>
</svg>
