<svg width="24" height="24" viewBox="0 0 24 24" fill="none" xmlns="http://www.w3.org/2000/svg">
<path fill-rule="evenodd" clip-rule="evenodd" d="M7.96539 3.1499C7.29509 3.14989 6.74086 3.14988 6.28918 3.18679C5.81973 3.22514 5.38671 3.30756 4.97952 3.51503C4.34918 3.83621 3.8367 4.34869 3.51552 4.97904C3.30805 5.38622 3.22563 5.81925 3.18728 6.28869C3.15037 6.74037 3.15038 7.29459 3.15039 7.96488V15.0349C3.15038 15.7052 3.15037 16.2594 3.18728 16.7111C3.22563 17.1806 3.30805 17.6136 3.51552 18.0208C3.8367 18.6511 4.34918 19.1636 4.97952 19.4848C5.38671 19.6922 5.81973 19.7747 6.28918 19.813C6.74086 19.8499 7.29509 19.8499 7.96539 19.8499H10.0354C10.3872 19.8499 10.7071 19.8499 10.9969 19.8446C11.2885 19.85 11.6106 19.85 11.9651 19.85H16.0351C16.7054 19.85 17.2596 19.85 17.7113 19.8131C18.1808 19.7748 18.6138 19.6924 19.021 19.4849C19.6513 19.1637 20.1638 18.6512 20.485 18.0209C20.6924 17.6137 20.7749 17.1807 20.8132 16.7112C20.8501 16.2596 20.8501 15.7054 20.8501 15.0351V12.965C20.8501 12.2947 20.8501 11.7405 20.8132 11.2888C20.7749 10.8194 20.6924 10.3863 20.485 9.97916C20.1638 9.34881 19.6513 8.83633 19.021 8.51515C18.6138 8.30768 18.1808 8.22526 17.7113 8.18691C17.2596 8.15 16.7054 8.15001 16.0351 8.15002H11.9651C11.2948 8.15001 10.7406 8.15 10.2889 8.18691C9.81944 8.22526 9.38642 8.30768 8.97923 8.51515C8.34889 8.83633 7.8364 9.34881 7.51523 9.97916C7.30775 10.3863 7.22534 10.8194 7.18698 11.2888C7.15008 11.7405 7.15009 12.2947 7.1501 12.965V15.035C7.15009 15.7053 7.15008 16.2596 7.18698 16.7112C7.22534 17.1807 7.30775 17.6137 7.51523 18.0209C7.53737 18.0643 7.56042 18.1072 7.58436 18.1496C7.08995 18.1483 6.72418 18.1429 6.42761 18.1187C6.0633 18.0889 5.8789 18.0351 5.75131 17.9701C5.44084 17.8119 5.18842 17.5595 5.03023 17.249C4.96522 17.1214 4.91139 16.937 4.88163 16.5727C4.85105 16.1984 4.85039 15.714 4.85039 14.9999V7.9999C4.85039 7.28581 4.85105 6.80136 4.88163 6.42713C4.91139 6.06281 4.96522 5.87841 5.03023 5.75082C5.18842 5.44035 5.44084 5.18793 5.75131 5.02974C5.8789 4.96473 6.0633 4.91091 6.42761 4.88114C6.80185 4.85056 7.2863 4.8499 8.00039 4.8499H10.0004C10.7145 4.8499 11.1989 4.85056 11.5732 4.88114C11.9375 4.91091 12.1219 4.96473 12.2495 5.02974C12.5599 5.18793 12.8124 5.44035 12.9706 5.75082C13.0356 5.87841 13.0894 6.06281 13.1192 6.42713C13.1327 6.59297 13.1404 6.78047 13.1447 7H14.845C14.8402 6.73899 14.831 6.50237 14.8135 6.28869C14.7752 5.81925 14.6927 5.38622 14.4853 4.97904C14.1641 4.34869 13.6516 3.83621 13.0213 3.51503C12.6141 3.30756 12.181 3.22514 11.7116 3.18679C11.2599 3.14988 10.7057 3.14989 10.0354 3.1499H7.96539ZM18.9703 10.7509C19.0353 10.8785 19.0891 11.0629 19.1189 11.4272C19.1494 11.8015 19.1501 12.2859 19.1501 13V15C19.1501 15.7141 19.1494 16.1986 19.1189 16.5728C19.0891 16.9371 19.0353 17.1215 18.9703 17.2491C18.8121 17.5596 18.5596 17.812 18.2492 17.9702C18.1216 18.0352 17.9372 18.089 17.5729 18.1188C17.1986 18.1494 16.7142 18.15 16.0001 18.15H12.0001C11.286 18.15 10.8016 18.1494 10.4273 18.1188C10.063 18.089 9.8786 18.0352 9.75101 17.9702C9.44055 17.812 9.18813 17.5596 9.02994 17.2491C8.96492 17.1215 8.9111 16.9371 8.88134 16.5728C8.85076 16.1986 8.8501 15.7141 8.8501 15L8.8501 13C8.8501 12.2859 8.85076 11.8015 8.88134 11.4272C8.9111 11.0629 8.96493 10.8785 9.02994 10.7509C9.18813 10.4405 9.44055 10.1881 9.75101 10.0299C9.87861 9.96485 10.063 9.91103 10.4273 9.88126C10.8016 9.85069 11.286 9.85003 12.0001 9.85003L16.0001 9.85003C16.7142 9.85003 17.1986 9.85069 17.5729 9.88126C17.9372 9.91103 18.1216 9.96485 18.2492 10.0299C18.5596 10.1881 18.8121 10.4405 18.9703 10.7509Z" fill="#1A1A1A"/>
</svg>
