<svg width="24" height="24" viewBox="0 0 24 24" fill="none" xmlns="http://www.w3.org/2000/svg">
<path d="M3.60097 2.39898C3.26903 2.06704 2.73084 2.06704 2.39889 2.39898C2.06695 2.73093 2.06695 3.26912 2.39889 3.60106L20.0765 21.2787C20.4085 21.6107 20.9467 21.6107 21.2786 21.2787C21.6106 20.9468 21.6106 20.4086 21.2786 20.0767L3.60097 2.39898Z" fill="#1A1A1A"/>
<path d="M2.1499 10.7599C2.1499 9.10032 2.60419 7.54345 3.39364 6.22221L4.64152 7.4701C4.13733 8.44515 3.8499 9.56436 3.8499 10.7599C3.8499 13.287 5.14053 15.4846 7.04982 16.6881L7.87608 17.1295L14.2936 20.1381C14.3045 20.1432 14.3111 20.1448 14.3138 20.1453C14.3166 20.1458 14.3182 20.1457 14.3192 20.1457C14.321 20.1455 14.328 20.1446 14.3389 20.1379C14.3506 20.1307 14.3617 20.1199 14.3696 20.1077L14.3718 20.104C14.3653 20.0638 14.3559 20.0198 14.348 19.9863L14.3462 19.981C14.0314 19.1235 14.3535 18.2917 14.9334 17.7619L16.1382 18.9668C16.067 19.0157 16.0095 19.0793 15.9724 19.1471C15.9185 19.2455 15.9176 19.3285 15.9421 19.3952C15.9626 19.4511 15.9841 19.5173 16.0016 19.5918C16.0146 19.6467 16.0349 19.7379 16.0507 19.837C16.0631 19.914 16.0876 20.0795 16.0713 20.2477C15.9642 21.35 14.7667 22.2375 13.572 21.6774L7.14025 18.662C7.08642 18.6378 7.03288 18.6129 6.97963 18.5875C6.84005 18.5209 6.70261 18.4504 6.56744 18.3761L6.55656 18.3701L6.5549 18.3692C6.42556 18.2979 6.29809 18.2229 6.17302 18.1449C3.75471 16.6349 2.1499 13.8854 2.1499 10.7599Z" fill="#1A1A1A"/>
<path d="M20.1499 10.7599C20.1499 12.6089 19.4596 14.2795 18.3428 15.5145L19.5462 16.718C20.9764 15.1674 21.8499 13.065 21.8499 10.7599C21.8499 6.03946 18.1746 2.15005 13.5651 2.15005H10.4347C8.87838 2.15005 7.42856 2.59342 6.19074 3.36246L7.43622 4.60794C8.33845 4.1228 9.35889 3.85005 10.4347 3.85005H13.5651C17.1679 3.85005 20.1499 6.90905 20.1499 10.7599Z" fill="#1A1A1A"/>
</svg>
