<svg width="24" height="24" viewBox="0 0 24 24" fill="none" xmlns="http://www.w3.org/2000/svg">
<path fill-rule="evenodd" clip-rule="evenodd" d="M2.15002 10.7599C2.15002 6.03944 5.82533 2.15002 10.4348 2.15002H13.5652C18.1747 2.15002 21.85 6.03944 21.85 10.7599C21.85 14.5156 19.5312 17.7334 16.2638 18.9025C16.1345 18.9488 16.0296 19.0429 15.9725 19.1471C15.9186 19.2455 15.9177 19.3284 15.9422 19.3952C15.9627 19.4511 15.9842 19.5173 16.0018 19.5918C16.0147 19.6467 16.035 19.7379 16.0509 19.8369C16.0632 19.914 16.0878 20.0795 16.0714 20.2477C15.9643 21.35 14.7668 22.2374 13.5721 21.6774L7.14037 18.662C7.08654 18.6378 7.033 18.6129 6.97975 18.5875C6.84017 18.5209 6.70273 18.4503 6.56756 18.3761L6.55668 18.3701L6.55502 18.3692C6.42569 18.2978 6.29821 18.2229 6.17314 18.1448C3.75484 16.6348 2.15002 13.8854 2.15002 10.7599ZM7.87621 17.1294L14.2937 20.1381C14.3046 20.1432 14.3113 20.1447 14.314 20.1452C14.3168 20.1458 14.3183 20.1457 14.3193 20.1456C14.3211 20.1455 14.3281 20.1446 14.3391 20.1378C14.3507 20.1307 14.3618 20.1199 14.3697 20.1077C14.3705 20.1064 14.3713 20.1052 14.372 20.1039C14.3654 20.0638 14.356 20.0197 14.3482 19.9862C14.3478 19.9851 14.3472 19.9834 14.3463 19.981C13.9111 18.7953 14.6935 17.6588 15.6911 17.3019C18.2679 16.3799 20.15 13.813 20.15 10.7599C20.15 6.90902 17.168 3.85002 13.5652 3.85002H10.4348C6.83205 3.85002 3.85002 6.90902 3.85002 10.7599C3.85002 13.287 5.14065 15.4845 7.04994 16.6881L7.87621 17.1294Z" fill="#1A1A1A"/>
</svg>
