<svg width="24" height="24" viewBox="0 0 24 24" fill="none" xmlns="http://www.w3.org/2000/svg">
<g clip-path="url(#clip0_83120_53401)">
<path d="M5.34961 10.1567C5.81905 10.1567 6.2002 10.5379 6.2002 11.0073V11.3667C6.20039 14.5758 8.80166 17.1771 12.0107 17.1772C12.5714 17.1772 13.1131 17.0959 13.626 16.9478L14.9541 18.2759C14.2988 18.5554 13.5966 18.7467 12.8613 18.8296V20.8081C12.8612 21.2774 12.4801 21.6577 12.0107 21.6577C11.5415 21.6576 11.1613 21.2774 11.1611 20.8081V18.8296C7.41328 18.4074 4.50018 15.2273 4.5 11.3667V11.0073C4.5 10.538 4.88035 10.1569 5.34961 10.1567ZM12.3281 15.6509C12.2233 15.6586 12.1175 15.6646 12.0107 15.6646C9.64384 15.6645 7.72559 13.7453 7.72559 11.3784V11.0483L12.3281 15.6509ZM18.6719 10.1567C19.1413 10.1567 19.5215 10.5379 19.5215 11.0073V11.3667C19.5214 12.7533 19.1436 14.0507 18.4883 15.1655L17.2344 13.9116C17.6097 13.1429 17.8222 12.2798 17.8223 11.3667V11.0073C17.8223 10.5379 18.2024 10.1567 18.6719 10.1567ZM12.0107 1.94971C14.3777 1.94971 16.2969 3.86891 16.2969 6.23584V11.3784C16.2969 11.8575 16.2153 12.3174 16.0703 12.7476L14.5967 11.2729V6.23584C14.5967 4.80779 13.4388 3.6499 12.0107 3.6499C10.6256 3.64994 9.49728 4.73926 9.43066 6.10791L8.0127 4.68994C8.63284 3.08692 10.1888 1.94974 12.0107 1.94971Z" fill="#1A1A1A"/>
<path d="M4.60094 3.39892C4.269 3.06698 3.73081 3.06698 3.39886 3.39892C3.06692 3.73087 3.06692 4.26906 3.39886 4.601L19.3989 20.601C19.7308 20.9329 20.269 20.9329 20.6009 20.601C20.9329 20.2691 20.9329 19.7309 20.6009 19.3989L4.60094 3.39892Z" fill="#1A1A1A"/>
</g>
<defs>
<clipPath id="clip0_83120_53401">
<rect width="24" height="24" fill="white"/>
</clipPath>
</defs>
</svg>
