<svg width="24" height="24" viewBox="0 0 24 24" fill="none" xmlns="http://www.w3.org/2000/svg">
<g clip-path="url(#clip0_83120_53379)">
<path fill-rule="evenodd" clip-rule="evenodd" d="M12.0108 1.94989C9.64388 1.94989 7.7251 3.86867 7.7251 6.2356V11.3785C7.7251 13.7454 9.64388 15.6642 12.0108 15.6642C14.3777 15.6642 16.2965 13.7454 16.2965 11.3785V6.2356C16.2965 3.86867 14.3777 1.94989 12.0108 1.94989ZM14.5965 11.3785V6.2356C14.5965 4.80755 13.4389 3.64989 12.0108 3.64989C10.5828 3.64989 9.4251 4.80755 9.4251 6.2356V11.3785C9.4251 12.8065 10.5828 13.9642 12.0108 13.9642C13.4389 13.9642 14.5965 12.8065 14.5965 11.3785Z" fill="#1A1A1A"/>
<path d="M5.35 10.1569C5.81944 10.1569 6.2 10.5375 6.2 11.0069V11.3663C6.2 14.5756 8.80165 17.1773 12.0109 17.1773C15.2202 17.1773 17.8219 14.5756 17.8219 11.3663V11.0069C17.8219 10.5375 18.2024 10.1569 18.6719 10.1569C19.1413 10.1569 19.5219 10.5375 19.5219 11.0069V11.3663C19.5219 15.2272 16.6089 18.4076 12.8609 18.8297V20.8078C12.8609 21.2773 12.4803 21.6578 12.0109 21.6578C11.5414 21.6578 11.1609 21.2773 11.1609 20.8078V18.8297C7.41293 18.4075 4.5 15.2271 4.5 11.3663V11.0069C4.5 10.5375 4.88056 10.1569 5.35 10.1569Z" fill="#1A1A1A"/>
</g>
<defs>
<clipPath id="clip0_83120_53379">
<rect width="24" height="24" fill="white"/>
</clipPath>
</defs>
</svg>
