<svg width="24" height="24" viewBox="0 0 24 24" fill="none" xmlns="http://www.w3.org/2000/svg">
<path fill-rule="evenodd" clip-rule="evenodd" d="M5.13333 5.19717C4.85685 5.59203 4.92613 6.16384 5.33407 6.50435C5.77165 5.99996 6.25927 5.55862 6.78467 5.18209L6.50805 4.98839C6.03589 4.65779 5.42562 4.77974 5.13333 5.19717ZM3.74078 4.22209C2.90574 5.41465 3.21023 7.03316 4.35253 7.89499C2.18507 11.7274 3.33139 16.6801 7.06676 19.2956C9.69177 21.1337 12.9641 21.3755 15.6701 20.1951C15.7206 20.2596 15.7814 20.3178 15.852 20.3672L16.5173 20.8331C17.7248 21.6786 19.4055 21.4267 20.2597 20.2068C21.0879 19.024 20.7951 17.4222 19.6758 16.5552C21.8054 12.7298 20.6529 7.80849 16.9337 5.20423C14.3213 3.37501 11.0677 3.12675 8.36934 4.28789C8.31219 4.2017 8.23824 4.12457 8.14841 4.06167L7.48313 3.59584C6.27564 2.75034 4.59492 3.00224 3.74078 4.22209ZM5.75275 8.8776L5.90532 8.98443L6.99828 9.74973L11.3701 12.8109L17.3059 16.9672C15.0091 19.5205 11.0351 19.999 8.04184 17.9031C5.04859 15.8072 4.13901 11.9092 5.75275 8.8776ZM12.6304 11.618L17.0022 14.6792L18.0951 15.4445L18.275 15.5704C19.851 12.5463 18.9348 8.68076 15.9586 6.59679C12.9824 4.51282 9.03657 4.97398 6.73388 7.48924L12.6304 11.618ZM18.7013 17.955C19.0781 18.2983 19.1355 18.8484 18.8671 19.2317C18.5748 19.6492 17.9646 19.7711 17.4924 19.4405L17.2656 19.2817C17.786 18.903 18.2686 18.4602 18.7013 17.955Z" fill="#1A1A1A"/>
</svg>
