<svg width="24" height="24" viewBox="0 0 24 24" fill="none" xmlns="http://www.w3.org/2000/svg">
<path d="M3.9999 9.34941C4.46934 9.34941 4.8499 8.96886 4.8499 8.49941V6.99941C4.8499 5.812 5.81249 4.84941 6.9999 4.84941H8.4999C8.96934 4.84941 9.3499 4.46886 9.3499 3.99941C9.3499 3.52997 8.96934 3.14941 8.4999 3.14941H6.9999C4.87361 3.14941 3.1499 4.87312 3.1499 6.99941V8.49941C3.1499 8.96886 3.53046 9.34941 3.9999 9.34941Z" fill="#1A1A1A"/>
<path d="M20.0001 14.6502C19.5307 14.6502 19.1501 15.0308 19.1501 15.5002V17.0002C19.1501 18.1876 18.1875 19.1502 17.0001 19.1502H15.5001C15.0307 19.1502 14.6501 19.5308 14.6501 20.0002C14.6501 20.4696 15.0307 20.8502 15.5001 20.8502H17.0001C19.1264 20.8502 20.8501 19.1265 20.8501 17.0002V15.5002C20.8501 15.0308 20.4695 14.6502 20.0001 14.6502Z" fill="#1A1A1A"/>
<path d="M19.1501 8.49941C19.1501 8.96886 19.5307 9.34941 20.0001 9.34941C20.4695 9.34941 20.8501 8.96886 20.8501 8.49941V6.99941C20.8501 4.87312 19.1264 3.14941 17.0001 3.14941H15.5001C15.0307 3.14941 14.6501 3.52997 14.6501 3.99941C14.6501 4.46886 15.0307 4.84941 15.5001 4.84941H17.0001C18.1875 4.84941 19.1501 5.812 19.1501 6.99941V8.49941Z" fill="#1A1A1A"/>
<path d="M3.9999 14.6502C4.46934 14.6502 4.8499 15.0308 4.8499 15.5002V17.0002C4.8499 18.1876 5.81249 19.1502 6.9999 19.1502H8.4999C8.96934 19.1502 9.3499 19.5308 9.3499 20.0002C9.3499 20.4696 8.96934 20.8502 8.4999 20.8502H6.9999C4.87361 20.8502 3.1499 19.1265 3.1499 17.0002V15.5002C3.1499 15.0308 3.53046 14.6502 3.9999 14.6502Z" fill="#1A1A1A"/>
<path fill-rule="evenodd" clip-rule="evenodd" d="M6.6499 12.0006C6.6499 11.1059 6.86947 10.2626 7.25765 9.52144L7.06703 9.38797C6.15846 8.75178 5.89726 7.49215 6.54738 6.56368C7.1975 5.63521 8.4705 5.44984 9.37908 6.08603L10.4923 6.86555C10.9705 6.72538 11.4764 6.6502 11.9999 6.6502C14.9547 6.6502 17.3499 9.0457 17.3499 12.0006C17.3499 12.7794 17.1835 13.5193 16.8843 14.1868L16.9179 14.2103L16.9172 14.2114L17.1625 14.3831C18.071 15.0193 18.3322 16.2789 17.6821 17.2074C17.032 18.1359 15.759 18.3213 14.8504 17.6851L13.8852 17.0092C13.2989 17.2301 12.6635 17.3509 11.9999 17.3509C9.04511 17.3509 6.6499 14.9554 6.6499 12.0006ZM14.5399 14.6221L8.6671 10.5099C8.46326 10.9651 8.3499 11.4696 8.3499 12.0006C8.3499 14.0167 9.98413 15.6509 11.9999 15.6509C12.9871 15.6509 13.8828 15.2589 14.5399 14.6221ZM15.4888 16.0568L15.8255 16.2925C15.9987 16.4138 16.2013 16.3584 16.2896 16.2323C16.3778 16.1063 16.3606 15.897 16.1874 15.7757L15.9498 15.6093C15.8052 15.7675 15.6513 15.9169 15.4888 16.0568ZM15.4535 13.1849L9.70636 9.16073C10.3331 8.6538 11.1311 8.35019 11.9999 8.35019C14.0157 8.35019 15.6499 9.98445 15.6499 12.0006C15.6499 12.4151 15.5808 12.8135 15.4535 13.1849ZM8.04211 7.99541L8.27593 8.15913C8.43176 8.00801 8.59677 7.86629 8.77002 7.73488L8.404 7.47859C8.23076 7.35729 8.0282 7.41271 7.93994 7.53876C7.85167 7.66481 7.86887 7.87411 8.04211 7.99541Z" fill="#1A1A1A"/>
</svg>
