<svg width="24" height="24" viewBox="0 0 24 24" fill="none" xmlns="http://www.w3.org/2000/svg">
<path d="M12.8499 2.24844C12.8499 1.779 12.4694 1.39844 11.9999 1.39844C11.5305 1.39844 11.1499 1.779 11.1499 2.24844V21.7511C11.1499 22.2206 11.5305 22.6011 11.9999 22.6011C12.4694 22.6011 12.8499 22.2206 12.8499 21.7511V2.24844Z" fill="#1A1A1A"/>
<path d="M9.42094 7.45382C9.42094 6.06945 7.58565 5.58206 6.89881 6.78403L1.40326 16.4012C0.888978 17.3012 1.53882 18.421 2.57538 18.421H8.07094C8.81652 18.421 9.42094 17.8166 9.42094 17.071V7.45382Z" fill="#1A1A1A"/>
<path fill-rule="evenodd" clip-rule="evenodd" d="M17.1007 6.78403C16.4138 5.58206 14.5785 6.06944 14.5785 7.45382V17.071C14.5785 17.8166 15.1829 18.421 15.9285 18.421H21.4241C22.4606 18.421 23.1105 17.3012 22.5962 16.4012L17.1007 6.78403ZM16.2785 16.721V8.77177L20.821 16.721H16.2785Z" fill="#1A1A1A"/>
</svg>
