<svg width="24" height="24" viewBox="0 0 24 24" fill="none" xmlns="http://www.w3.org/2000/svg">
<path d="M12.8499 2.24844C12.8499 1.779 12.4694 1.39844 11.9999 1.39844C11.5305 1.39844 11.1499 1.779 11.1499 2.24844V12.3563L12.8499 14.0563V2.24844Z" fill="#1A1A1A"/>
<path d="M11.1499 18.0131V21.7511C11.1499 22.2206 11.5305 22.6011 11.9999 22.6011C12.4694 22.6011 12.8499 22.2206 12.8499 21.7511V19.7131L11.1499 18.0131Z" fill="#1A1A1A"/>
<path d="M1.4034 16.4012L4.3615 11.2246L9.42108 16.2842V17.071C9.42108 17.8166 8.81667 18.421 8.07108 18.421H2.57553C1.53897 18.421 0.889124 17.3012 1.4034 16.4012Z" fill="#1A1A1A"/>
<path d="M9.42108 7.45382V10.6273L6.41854 7.62476L6.89895 6.78403C7.5858 5.58206 9.42108 6.06945 9.42108 7.45382Z" fill="#1A1A1A"/>
<path fill-rule="evenodd" clip-rule="evenodd" d="M21.4242 18.421H17.2149L14.5786 15.7848V7.45382C14.5786 6.06944 16.4139 5.58206 17.1008 6.78403L22.5963 16.4012C23.1106 17.3012 22.4608 18.421 21.4242 18.421ZM16.2786 8.77177V16.721H20.8211L16.2786 8.77177Z" fill="#1A1A1A"/>
<path d="M2.60094 5.43307C2.269 5.10113 1.73081 5.10113 1.39886 5.43307C1.06692 5.76502 1.06692 6.30321 1.39886 6.63515L18.0866 23.3229C18.4185 23.6548 18.9567 23.6548 19.2887 23.3229C19.6206 22.9909 19.6206 22.4527 19.2887 22.1208L2.60094 5.43307Z" fill="#1A1A1A"/>
</svg>
