<svg width="24" height="24" viewBox="0 0 24 24" fill="none" xmlns="http://www.w3.org/2000/svg">
<path d="M8.9999 17.1499C8.53046 17.1499 8.1499 17.5305 8.1499 17.9999C8.1499 18.4693 8.53046 18.8499 8.9999 18.8499H14.9999C15.4693 18.8499 15.8499 18.4693 15.8499 17.9999C15.8499 17.5305 15.4693 17.1499 14.9999 17.1499H8.9999Z" fill="#1A1A1A"/>
<path fill-rule="evenodd" clip-rule="evenodd" d="M14.0597 2.1499H9.94009C8.81254 2.14987 7.88104 2.14985 7.14347 2.24901C6.36843 2.35322 5.68147 2.58073 5.1311 3.1311C4.58073 3.68147 4.35322 4.36843 4.24901 5.14347C4.14985 5.88104 4.14987 6.8125 4.1499 7.94006V17.0597C4.14987 18.1873 4.14985 19.1188 4.24901 19.8563C4.35322 20.6314 4.58073 21.3183 5.1311 21.8687C5.68147 22.4191 6.36843 22.6466 7.14347 22.7508C7.88105 22.85 8.81251 22.8499 9.94007 22.8499H14.0597C15.1873 22.8499 16.1188 22.85 16.8563 22.7508C17.6314 22.6466 18.3183 22.4191 18.8687 21.8687C19.4191 21.3183 19.6466 20.6314 19.7508 19.8563C19.85 19.1188 19.8499 18.1873 19.8499 17.0597V7.94012C19.8499 6.81256 19.85 5.88105 19.7508 5.14347C19.6466 4.36843 19.4191 3.68147 18.8687 3.1311C18.3183 2.58073 17.6314 2.35322 16.8563 2.24901C16.1188 2.14985 15.1873 2.14987 14.0597 2.1499ZM6.33318 4.33318C6.51504 4.15132 6.78346 4.01271 7.36999 3.93386C7.98097 3.85171 8.79737 3.84991 9.99991 3.84991H13.9999C15.2024 3.84991 16.0188 3.85171 16.6298 3.93386C17.2164 4.01271 17.4848 4.15132 17.6666 4.33318C17.8485 4.51504 17.9871 4.78346 18.066 5.36999C18.1481 5.98097 18.1499 6.79737 18.1499 7.99991V16.9999C18.1499 18.2024 18.1481 19.0188 18.066 19.6298C17.9871 20.2164 17.8485 20.4848 17.6666 20.6666C17.4848 20.8485 17.2164 20.9871 16.6298 21.066C16.0188 21.1481 15.2024 21.1499 13.9999 21.1499H9.99991C8.79737 21.1499 7.98097 21.1481 7.36999 21.066C6.78346 20.9871 6.51504 20.8485 6.33318 20.6666C6.15132 20.4848 6.01271 20.2164 5.93386 19.6298C5.85171 19.0188 5.84991 18.2024 5.84991 16.9999V7.99991C5.84991 6.79737 5.85171 5.98097 5.93386 5.36999C6.01271 4.78346 6.15132 4.51504 6.33318 4.33318Z" fill="#1A1A1A"/>
</svg>
