<svg width="24" height="24" viewBox="0 0 24 24" fill="none" xmlns="http://www.w3.org/2000/svg">
<path fill-rule="evenodd" clip-rule="evenodd" d="M17.2713 6.17148C16.8842 4.1655 15.1191 2.65039 13.0001 2.65039H9.06365C8.11452 2.65038 7.3505 2.65038 6.73214 2.7009C6.09594 2.75288 5.53943 2.86254 5.02529 3.12451C4.20678 3.54156 3.54132 4.20703 3.12427 5.02553C2.8623 5.53968 2.75263 6.09618 2.70065 6.73238C2.65013 7.35075 2.65014 8.11477 2.65015 9.0639V13.0004C2.65015 15.1194 4.16525 16.8845 6.17124 17.2715C6.17836 17.4469 6.1879 17.6123 6.20065 17.7684C6.25263 18.4046 6.3623 18.9611 6.62427 19.4753C7.04132 20.2938 7.70678 20.9592 8.52529 21.3763C9.03943 21.6382 9.59594 21.7479 10.2321 21.7999C10.8505 21.8504 11.6145 21.8504 12.5636 21.8504H13.0001C13.4696 21.8504 13.8501 21.4698 13.8501 21.0004C13.8501 20.5309 13.4696 20.1504 13.0001 20.1504H12.6001C11.606 20.1504 10.9116 20.1497 10.3706 20.1055C9.8395 20.0621 9.53162 19.9811 9.29707 19.8616C8.79844 19.6075 8.39304 19.2021 8.13898 18.7035C8.01947 18.4689 7.9384 18.161 7.89501 17.63C7.85081 17.089 7.85015 16.3945 7.85015 15.4004V12.6004C7.85015 11.6063 7.85081 10.9118 7.89501 10.3708C7.9384 9.83975 8.01947 9.53186 8.13898 9.29732C8.39304 8.79869 8.79844 8.39329 9.29707 8.13922C9.53162 8.01972 9.8395 7.93864 10.3706 7.89525C10.9116 7.85105 11.606 7.85039 12.6001 7.85039H15.4001C16.3943 7.85039 17.0887 7.85105 17.6297 7.89525C18.1608 7.93864 18.4687 8.01972 18.7032 8.13922C19.2019 8.39329 19.6073 8.79869 19.8613 9.29732C19.9808 9.53186 20.0619 9.83975 20.1053 10.3708C20.1495 10.9118 20.1501 11.6063 20.1501 12.6004V13.0004C20.1501 13.4698 20.5307 13.8504 21.0001 13.8504C21.4696 13.8504 21.8501 13.4698 21.8501 13.0004V12.5639C21.8502 11.6148 21.8502 10.8507 21.7996 10.2324C21.7477 9.59618 21.638 9.03968 21.376 8.52553C20.959 7.70703 20.2935 7.04156 19.475 6.62451C18.9609 6.36254 18.4044 6.25288 17.7682 6.2009C17.612 6.18814 17.4466 6.17861 17.2713 6.17148ZM9.10015 4.35039C8.10603 4.35039 7.41156 4.35105 6.87057 4.39525C6.3395 4.43864 6.03162 4.51972 5.79707 4.63922C5.29844 4.89329 4.89304 5.29869 4.63898 5.79732C4.51947 6.03186 4.4384 6.33975 4.39501 6.87082C4.35081 7.41181 4.35015 8.10627 4.35015 9.10039V13.0004C4.35015 14.1666 5.10352 15.1569 6.15015 15.5111L6.15015 12.5639C6.15014 11.6148 6.15013 10.8507 6.20065 10.2324C6.25263 9.59618 6.3623 9.03968 6.62427 8.52553C7.04132 7.70703 7.70678 7.04156 8.52529 6.62451C9.03943 6.36254 9.59594 6.25288 10.2321 6.2009C10.8505 6.15038 11.6145 6.15038 12.5636 6.15039L15.5109 6.15039C15.1567 5.10376 14.1664 4.35039 13.0001 4.35039H9.10015Z" fill="#1A1A1A"/>
<path d="M16.8374 18.0382L16.85 20.9954C16.8521 21.4649 16.4731 21.8471 16.0037 21.8491C15.5343 21.8511 15.1521 21.4722 15.1501 21.0027L15.1329 17.0162C15.1286 15.9931 15.9555 15.1606 16.9787 15.1583L20.998 15.1491C21.4674 15.148 21.8489 15.5277 21.8499 15.9972C21.851 16.4666 21.4713 16.848 21.0019 16.8491L18.0592 16.8558L21.1019 19.8897C21.4343 20.2211 21.4351 20.7593 21.1037 21.0917C20.7722 21.4242 20.234 21.425 19.9016 21.0935L16.8374 18.0382Z" fill="#1A1A1A"/>
</svg>
