<svg width="24" height="24" viewBox="0 0 24 24" fill="none" xmlns="http://www.w3.org/2000/svg">
<circle cx="12" cy="12" r="3.5" stroke="#1A1A1A" stroke-width="1.7" stroke-linecap="round" stroke-linejoin="round"/>
<path d="M12.4379 3.11871C10.4312 3.01974 8.4502 3.60323 6.81756 4.77411C5.18492 5.945 3.99691 7.63427 3.44711 9.56668C2.8973 11.4991 3.0181 13.5607 3.78983 15.4157C4.56156 17.2707 5.93872 18.8096 7.69693 19.7818C9.45515 20.754 11.4908 21.1022 13.4721 20.7695C15.4535 20.4369 17.2638 19.443 18.6082 17.9499C19.9525 16.4569 20.7515 14.5525 20.8752 12.5472C20.9988 10.5419 20.4397 8.55388 19.2889 6.90698" stroke="#1A1A1A" stroke-width="1.7" stroke-linecap="round" stroke-linejoin="round"/>
<path d="M19 2.5L15.5 4.5V12" stroke="#1A1A1A" stroke-width="1.7" stroke-linecap="round" stroke-linejoin="round"/>
</svg>
