<svg width="24" height="24" viewBox="0 0 24 24" fill="none" xmlns="http://www.w3.org/2000/svg">
<path fill-rule="evenodd" clip-rule="evenodd" d="M19.3892 2.7562C19.8065 2.54121 19.9705 2.02863 19.7555 1.61131C19.5405 1.19398 19.028 1.02996 18.6106 1.24494L14.1106 3.56312C13.8277 3.70888 13.6499 4.00048 13.6499 4.31875V11.7317C12.6416 10.753 11.2661 10.1504 9.7499 10.1504C6.65711 10.1504 4.1499 12.6576 4.1499 15.7504C4.1499 18.8432 6.65711 21.3504 9.7499 21.3504C12.837 21.3504 15.3406 18.8525 15.3499 15.7676L15.3499 15.7537C15.3499 15.7526 15.3499 15.7515 15.3499 15.7504C15.3499 15.7493 15.3499 15.7482 15.3499 15.7471V4.83703L19.3892 2.7562ZM13.6499 15.7504C13.6499 13.5965 11.9038 11.8504 9.7499 11.8504C7.59599 11.8504 5.8499 13.5965 5.8499 15.7504C5.8499 17.9043 7.59599 19.6504 9.7499 19.6504C11.9038 19.6504 13.6499 17.9043 13.6499 15.7504Z" fill="#1A1A1A"/>
</svg>
