<svg width="24" height="24" viewBox="0 0 24 24" fill="none" xmlns="http://www.w3.org/2000/svg">
<path fill-rule="evenodd" clip-rule="evenodd" d="M19.738 2.07828C19.9709 2.48587 19.8293 3.0051 19.4217 3.23801L16.35 4.99328V12L16.35 12.0028C16.3485 14.4039 14.4015 16.35 12 16.35C9.59759 16.35 7.65002 14.4024 7.65002 12C7.65002 9.59756 9.59759 7.64999 12 7.64999C12.9973 7.64999 13.9163 7.98562 14.65 8.55008V4.5C14.65 4.19497 14.8135 3.91333 15.0783 3.762L18.5783 1.762C18.9859 1.52909 19.5051 1.67069 19.738 2.07828ZM12 9.34999C13.4636 9.34999 14.65 10.5364 14.65 12C14.65 13.4635 13.4636 14.65 12 14.65C10.5365 14.65 9.35002 13.4635 9.35002 12C9.35002 10.5364 10.5365 9.34999 12 9.34999Z" fill="#1A1A1A"/>
<path d="M12.4799 2.26977C10.2814 2.16133 8.11103 2.8006 6.32233 4.08341C4.53363 5.36622 3.23206 7.21697 2.6297 9.33409C2.02734 11.4512 2.15969 13.7099 3.00519 15.7422C3.85068 17.7745 5.35949 19.4606 7.28577 20.5257C9.21205 21.5909 11.4423 21.9723 13.613 21.6078C15.7838 21.2434 17.7672 20.1545 19.24 18.5187C20.7128 16.8829 21.5883 14.7965 21.7237 12.5996C21.8591 10.4026 21.2466 8.22449 19.9858 6.42016C19.717 6.03535 19.187 5.94136 18.8022 6.21024C18.4174 6.47912 18.3234 7.00904 18.5923 7.39385C19.6331 8.88333 20.1387 10.6814 20.0269 12.495C19.9151 14.3086 19.1924 16.0309 17.9766 17.3812C16.7608 18.7316 15.1235 19.6304 13.3316 19.9313C11.5396 20.2321 9.69854 19.9173 8.10839 19.038C6.51825 18.1587 5.27273 16.7669 4.57477 15.0892C3.87681 13.4116 3.76756 11.547 4.26481 9.79931C4.76206 8.05162 5.8365 6.52383 7.31308 5.46487C8.78965 4.40591 10.5813 3.87819 12.3962 3.96771C12.865 3.99083 13.2639 3.62948 13.287 3.16061C13.3101 2.69174 12.9488 2.2929 12.4799 2.26977Z" fill="#1A1A1A"/>
</svg>
