<svg width="24" height="24" viewBox="0 0 24 24" fill="none" xmlns="http://www.w3.org/2000/svg">
<path fill-rule="evenodd" clip-rule="evenodd" d="M11.9999 2.65039C9.32132 2.65039 7.1499 4.82181 7.1499 7.50039C7.1499 10.179 9.32132 12.3504 11.9999 12.3504C14.6785 12.3504 16.8499 10.179 16.8499 7.50039C16.8499 4.82181 14.6785 2.65039 11.9999 2.65039ZM8.8499 7.50039C8.8499 5.76069 10.2602 4.35039 11.9999 4.35039C13.7396 4.35039 15.1499 5.76069 15.1499 7.50039C15.1499 9.24009 13.7396 10.6504 11.9999 10.6504C10.2602 10.6504 8.8499 9.24009 8.8499 7.50039Z" fill="#1A1A1A"/>
<path d="M16.9245 14.6509C17.2837 14.3486 17.33 13.8124 17.0277 13.4532C16.7255 13.094 16.1893 13.0478 15.8301 13.35L13.4527 15.35C13.1795 15.5799 13.079 15.9561 13.2014 16.2916C13.3238 16.6272 13.6428 16.8504 13.9999 16.8504H19.9999C20.4694 16.8504 20.8499 16.4699 20.8499 16.0004C20.8499 15.531 20.4694 15.1504 19.9999 15.1504H16.3307L16.9245 14.6509Z" fill="#1A1A1A"/>
<path d="M16.9723 21.5468C16.67 21.1876 16.7163 20.6514 17.0755 20.3491L17.6693 19.8496H14.0001C13.5306 19.8496 13.1501 19.469 13.1501 18.9996C13.1501 18.5301 13.5306 18.1496 14.0001 18.1496H20.0001C20.3572 18.1496 20.6762 18.3728 20.7986 18.7084C20.921 19.0439 20.8205 19.4201 20.5473 19.65L18.1699 21.65C17.8107 21.9522 17.2745 21.906 16.9723 21.5468Z" fill="#1A1A1A"/>
<path d="M9.00012 15.3504C6.7082 15.3504 4.85039 17.2084 4.85039 19.5004C4.85039 19.5832 4.91755 19.6504 5.00039 19.6504H11.0004C11.4698 19.6504 11.8504 20.0309 11.8504 20.5004C11.8504 20.9698 11.4698 21.3504 11.0004 21.3504H5.00039C3.97866 21.3504 3.15039 20.5221 3.15039 19.5004C3.15039 16.2696 5.7692 13.6504 9.00012 13.6504H11.0004C11.4698 13.6504 11.8504 14.0309 11.8504 14.5004C11.8504 14.9698 11.4698 15.3504 11.0004 15.3504H9.00012Z" fill="#1A1A1A"/>
</svg>
