<svg width="24" height="24" viewBox="0 0 24 24" fill="none" xmlns="http://www.w3.org/2000/svg">
<path fill-rule="evenodd" clip-rule="evenodd" d="M15.4833 9.80435C15.3928 11.5882 13.9624 13.0185 12.1786 13.109L11.9989 13.1129C10.1323 13.1129 8.60805 11.6477 8.51455 9.80435L8.51065 9.62466C8.51082 7.69805 10.0721 6.13638 11.9989 6.13638L12.1786 6.14028C14.0219 6.23382 15.487 7.7583 15.4872 9.62466L15.4833 9.80435ZM13.7782 9.44204C13.6927 8.59998 13.0235 7.93077 12.1815 7.84536L11.9989 7.8356C11.0728 7.8356 10.3112 8.53989 10.2196 9.44204L10.2099 9.62466C10.2099 10.6126 11.011 11.4137 11.9989 11.4137L12.1815 11.404C13.0837 11.3125 13.788 10.5509 13.788 9.62466L13.7782 9.44204Z" fill="#1A1A1A"/>
<path fill-rule="evenodd" clip-rule="evenodd" d="M10.1974 3.3999C8.58691 3.39989 7.30594 3.39988 6.28828 3.5149C5.24238 3.63311 4.36967 3.88181 3.62743 4.45339C3.28086 4.72027 2.97027 5.03086 2.70339 5.37743C2.13181 6.11967 1.88311 6.99238 1.7649 8.03828C1.64988 9.05594 1.64989 10.3369 1.6499 11.9474V12.0524C1.64989 13.6629 1.64988 14.9439 1.7649 15.9615C1.88311 17.0074 2.13181 17.8801 2.70339 18.6224C2.97027 18.9689 3.28086 19.2795 3.62743 19.5464C4.36967 20.118 5.24238 20.3667 6.28828 20.4849C7.30593 20.5999 8.5869 20.5999 10.1974 20.5999H13.8024C15.4129 20.5999 16.6939 20.5999 17.7115 20.4849C18.7574 20.3667 19.6301 20.118 20.3724 19.5464C20.7189 19.2795 21.0295 18.9689 21.2964 18.6224C21.868 17.8801 22.1167 17.0074 22.2349 15.9615C22.3499 14.9439 22.3499 13.6629 22.3499 12.0524V11.9475C22.3499 10.3369 22.3499 9.05593 22.2349 8.03828C22.1167 6.99238 21.868 6.11967 21.2964 5.37743C21.0295 5.03086 20.7189 4.72027 20.3724 4.45339C19.6301 3.88181 18.7574 3.63311 17.7115 3.5149C16.6939 3.39988 15.4129 3.39989 13.8024 3.3999H10.1974ZM4.66464 5.8003C5.06118 5.49494 5.58538 5.30517 6.4792 5.20414C7.39024 5.10117 8.57505 5.0999 10.2499 5.0999H13.7499C15.4248 5.0999 16.6096 5.10117 17.5206 5.20414C18.4144 5.30517 18.9386 5.49494 19.3352 5.8003C19.5656 5.97774 19.7721 6.18423 19.9495 6.41464C20.2549 6.81118 20.4446 7.33538 20.5457 8.2292C20.6486 9.14024 20.6499 10.3251 20.6499 11.9999C20.6499 13.6748 20.6486 14.8596 20.5457 15.7706C20.4446 16.6644 20.2549 17.1886 19.9495 17.5852C19.7721 17.8156 19.5656 18.0221 19.3352 18.1995C18.9386 18.5049 18.4144 18.6946 17.5206 18.7957C17.3775 18.8118 17.2277 18.8255 17.0702 18.837V17.8405C17.0701 15.7431 15.4236 14.0308 13.3524 13.9254L13.1503 13.9206H10.8466C8.68162 13.9208 6.92675 15.6753 6.92666 17.8405V18.8368C6.77029 18.8253 6.62141 18.8117 6.4792 18.7957C5.58538 18.6946 5.06118 18.5049 4.66464 18.1995C4.43423 18.0221 4.22774 17.8156 4.0503 17.5852C3.74494 17.1886 3.55517 16.6644 3.45414 15.7706C3.35117 14.8596 3.3499 13.6748 3.3499 11.9999C3.3499 10.3251 3.35117 9.14024 3.45414 8.2292C3.55517 7.33538 3.74494 6.81118 4.0503 6.41464C4.22774 6.18423 4.43423 5.97774 4.66464 5.8003ZM8.62588 18.8948C9.11076 18.8997 9.64877 18.8999 10.2499 18.8999H13.7499C14.3498 18.8999 14.8869 18.8997 15.371 18.8948V17.8405L15.3593 17.6139C15.2533 16.5686 14.4223 15.7375 13.3769 15.6315L13.1503 15.6198H10.8466C9.69674 15.62 8.75114 16.4942 8.6376 17.6139L8.62588 17.8405V18.8948Z" fill="#1A1A1A"/>
</svg>
