<svg width="29" height="29" viewBox="0 0 29 29" fill="none" xmlns="http://www.w3.org/2000/svg">
<path fill-rule="evenodd" clip-rule="evenodd" d="M19.9374 5.68328C22.8047 5.68328 25.1291 8.00767 25.1291 10.8749V15.7083C25.1291 18.5756 22.8047 20.8999 19.9374 20.8999H7.88888C7.68108 20.8999 7.48048 20.9761 7.32499 21.1139L5.04248 23.1376C4.58855 23.5401 3.87216 23.2178 3.87216 22.6111V21.7499C3.87216 21.7335 3.87169 21.7171 3.87077 21.7009V10.8749C3.87077 8.00767 6.19516 5.68328 9.06244 5.68328H19.9374ZM2.17216 21.799C2.17123 21.7827 2.17077 21.7664 2.17077 21.7499V10.8749C2.17077 7.06878 5.25628 3.98328 9.06244 3.98328H19.9374C23.7436 3.98328 26.8291 7.06878 26.8291 10.8749V15.7083C26.8291 19.5144 23.7436 22.5999 19.9374 22.5999H8.21143L6.17028 24.4096C4.61954 25.7845 2.17216 24.6836 2.17216 22.6111V21.799Z" fill="#1A1A1A"/>
</svg>
