<svg width="24" height="24" viewBox="0 0 24 24" fill="none" xmlns="http://www.w3.org/2000/svg">
<path d="M3.9999 5.15039C3.53046 5.15039 3.1499 5.53095 3.1499 6.00039C3.1499 6.46983 3.53046 6.85039 3.9999 6.85039H19.9999C20.4693 6.85039 20.8499 6.46983 20.8499 6.00039C20.8499 5.53095 20.4693 5.15039 19.9999 5.15039H3.9999Z" fill="#1A1A1A"/>
<path d="M3.9999 11.1504C3.53046 11.1504 3.1499 11.5309 3.1499 12.0004C3.1499 12.4698 3.53046 12.8504 3.9999 12.8504H13.9999C14.4693 12.8504 14.8499 12.4698 14.8499 12.0004C14.8499 11.5309 14.4693 11.1504 13.9999 11.1504H3.9999Z" fill="#1A1A1A"/>
<path d="M3.1499 18.0004C3.1499 17.5309 3.53046 17.1504 3.9999 17.1504H9.9999C10.4693 17.1504 10.8499 17.5309 10.8499 18.0004C10.8499 18.4698 10.4693 18.8504 9.9999 18.8504H3.9999C3.53046 18.8504 3.1499 18.4698 3.1499 18.0004Z" fill="#1A1A1A"/>
<path d="M18.4999 18.8504C19.7978 18.8504 20.8499 17.7983 20.8499 16.5004V11.0004C20.8499 10.5309 20.4693 10.1504 19.9999 10.1504C19.5305 10.1504 19.1499 10.5309 19.1499 11.0004V16.5004C19.1499 16.8594 18.8589 17.1504 18.4999 17.1504H16.052L17.6009 15.6014C17.9329 15.2695 17.9329 14.7313 17.6009 14.3993C17.269 14.0674 16.7308 14.0674 16.3989 14.3993L13.3989 17.3993C13.0669 17.7313 13.0669 18.2695 13.3989 18.6014L16.3989 21.6014C16.7308 21.9334 17.269 21.9334 17.6009 21.6014C17.9329 21.2695 17.9329 20.7313 17.6009 20.3993L16.052 18.8504H18.4999Z" fill="#1A1A1A"/>
</svg>
