<svg width="24" height="24" viewBox="0 0 24 24" fill="none" xmlns="http://www.w3.org/2000/svg">
<path fill-rule="evenodd" clip-rule="evenodd" d="M11 4C10.4772 4 10.048 4.40126 10.0038 4.91263C10.0008 4.94148 9.99929 4.97076 9.99929 5.00039V16.0004C9.99929 16.918 9.84599 17.9076 9.68572 18.6854C9.60639 19.0703 9.5271 19.3951 9.46797 19.6225C9.43844 19.7361 9.41404 19.8249 9.39731 19.8845C9.06687 21.0602 10.7453 21.5386 11.0414 20.3452C11.0513 20.3053 11.0609 20.2651 11.0704 20.225C11.0843 20.1665 11.0982 20.108 11.1133 20.0503C11.1783 19.8003 11.2645 19.4468 11.3507 19.0285C11.5215 18.1997 11.6993 17.0828 11.6993 16.0004V10H18.5C19.6046 10 20.5 9.10457 20.5 8V6C20.5 4.89543 19.6046 4 18.5 4H11ZM18.5 5.7H11.7V8.3H18.5C18.6657 8.3 18.8 8.16569 18.8 8V6C18.8 5.83431 18.6657 5.7 18.5 5.7Z" fill="#1A1A1A"/>
<path d="M13.2499 11.15C13.7193 11.15 14.0999 11.5306 14.0999 12V14.0967L18.4045 11.7287C18.8159 11.5025 19.3327 11.6525 19.559 12.0638C19.7852 12.4751 19.6352 12.992 19.2239 13.2182L14.0999 16.037V18.9994C14.0999 19.0822 14.1671 19.1494 14.2499 19.1494L18.9 19.1494C18.9828 19.1494 19.05 19.0822 19.05 18.9994V16.8883C19.05 16.4188 19.4306 16.0383 19.9 16.0383C20.3694 16.0383 20.75 16.4188 20.75 16.8883V18.9994C20.75 20.0211 19.9217 20.8494 18.9 20.8494L14.2499 20.8494C13.2282 20.8494 12.3999 20.0211 12.3999 18.9994V12C12.3999 11.5306 12.7805 11.15 13.2499 11.15Z" fill="#1A1A1A"/>
<path fill-rule="evenodd" clip-rule="evenodd" d="M3 7C3 5.89543 3.89543 5 5 5H7C8.10457 5 9 5.89543 9 7V17C9 18.1046 8.10457 19 7 19H5C3.89543 19 3 18.1046 3 17V7ZM7.3 11.1504V7C7.3 6.83431 7.16569 6.7 7 6.7H5C4.83431 6.7 4.7 6.83431 4.7 7V11.1504H7.3ZM4.7 12.8504V17C4.7 17.1657 4.83431 17.3 5 17.3H7C7.16569 17.3 7.3 17.1657 7.3 17V12.8504H4.7Z" fill="#1A1A1A"/>
</svg>
