<svg width="24" height="24" viewBox="0 0 24 24" fill="none" xmlns="http://www.w3.org/2000/svg">
<path fill-rule="evenodd" clip-rule="evenodd" d="M8.71095 2.87522C9.08472 3.09628 9.3499 3.51116 9.3499 3.99983C9.3499 9.05323 13.4465 13.1498 18.4999 13.1498C19.2048 13.1498 19.89 13.0703 20.5475 12.92C21.0469 12.8059 21.5356 12.9763 21.8534 13.3052C22.1814 13.6446 22.3435 14.178 22.127 14.7099C20.6625 18.3096 17.1288 20.8498 12.9999 20.8498C7.5599 20.8498 3.1499 16.4398 3.1499 10.9998C3.1499 7.65804 4.81483 4.70526 7.35661 2.9257C7.80003 2.61525 8.32655 2.64787 8.71095 2.87522ZM7.68078 4.82464C5.94607 6.32019 4.8499 8.53202 4.8499 10.9998C4.8499 15.5009 8.49878 19.1498 12.9999 19.1498C16.1645 19.1498 18.9095 17.3459 20.2598 14.7077C19.6865 14.8013 19.0986 14.8498 18.4999 14.8498C12.7851 14.8498 8.10224 10.4316 7.68078 4.82464Z" fill="#1A1A1A"/>
</svg>
