<svg width="24" height="24" viewBox="0 0 24 24" fill="none" xmlns="http://www.w3.org/2000/svg">
<path fill-rule="evenodd" clip-rule="evenodd" d="M19.7927 15.1553C19.449 15.1864 19.1012 15.2022 18.75 15.2022C12.9307 15.2022 8.12541 10.8611 7.39585 5.24059C5.73978 6.71644 4.7 8.86346 4.7 11.2522C4.7 15.6981 8.30411 19.3022 12.75 19.3022C15.7777 19.3022 18.4182 17.63 19.7927 15.1553ZM20.6876 13.3097C21.4494 13.1561 22.201 13.7815 21.9411 14.5138C20.5993 18.2947 16.9909 21.0022 12.75 21.0022C7.36522 21.0022 3 16.637 3 11.2522C3 7.70432 4.89503 4.59902 7.72813 2.89329C8.31625 2.5392 9 3.06574 9 3.75223C9 9.13701 13.3652 13.5022 18.75 13.5022C19.4134 13.5022 20.0614 13.436 20.6876 13.3097Z" fill="#1A1A1A"/>
</svg>
