<svg width="24" height="24" viewBox="0 0 24 24" fill="none" xmlns="http://www.w3.org/2000/svg">
<path fill-rule="evenodd" clip-rule="evenodd" d="M7.00002 3.15039C5.70216 3.15039 4.65002 4.20252 4.65002 5.50039V7.50039C4.65002 8.79826 5.70216 9.85039 7.00002 9.85039H16C17.2979 9.85039 18.35 8.79826 18.35 7.50039V5.50039C18.35 4.20252 17.2979 3.15039 16 3.15039H7.00002ZM6.35002 5.50039C6.35002 5.14141 6.64104 4.85039 7.00002 4.85039H16C16.359 4.85039 16.65 5.14141 16.65 5.50039V7.50039C16.65 7.85938 16.359 8.15039 16 8.15039H7.00002C6.64104 8.15039 6.35002 7.85938 6.35002 7.50039V5.50039Z" fill="#1A1A1A"/>
<path d="M2.65002 12.4828C2.65002 12.0134 3.03058 11.6328 3.50002 11.6328H20.5C20.9695 11.6328 21.35 12.0134 21.35 12.4828C21.35 12.9523 20.9695 13.3328 20.5 13.3328H8.29116L7.83503 15.2077H18.1812C18.4462 15.2077 18.6961 15.3314 18.8569 15.5421C19.0177 15.7528 19.071 16.0264 19.001 16.2821L17.8199 20.5979C17.7188 20.9673 17.3831 21.2235 17 21.2235H8.5254C8.05596 21.2235 7.6754 20.8429 7.6754 20.3735C7.6754 19.9041 8.05596 19.5235 8.5254 19.5235H16.3514L17.0673 16.9077H6.75345C6.49265 16.9077 6.24628 16.788 6.08513 16.5829C5.92399 16.3779 5.86589 16.1102 5.92754 15.8568L6.54158 13.3328H3.50002C3.03058 13.3328 2.65002 12.9523 2.65002 12.4828Z" fill="#1A1A1A"/>
</svg>
