<svg width="24" height="24" viewBox="0 0 24 24" fill="none" xmlns="http://www.w3.org/2000/svg">
<path fill-rule="evenodd" clip-rule="evenodd" d="M11.4304 2.69806C10.8128 2.40973 10.206 2.63523 9.85085 3.00971C9.51101 3.36808 9.33398 3.91642 9.48404 4.46646C9.84712 5.79737 9.71619 7.24584 9.35465 8.49789C9.15289 9.19663 8.89243 9.79078 8.63903 10.2407C8.4505 9.87569 8.34621 9.48702 8.28843 9.03237C8.21779 8.47648 7.85139 8.02184 7.3551 7.84511C6.81945 7.65436 6.19032 7.81752 5.82643 8.36649C4.54488 10.2999 3.92353 13.0727 4.22534 15.0839C4.86761 19.364 8.13133 21.8499 11.9995 21.8499C15.8677 21.8499 19.1313 19.3641 19.7746 15.0841C19.934 14.0232 19.8337 12.7387 19.541 11.4982C19.2475 10.2543 18.7444 8.98599 18.0422 7.96862C17.7046 7.4796 17.1222 7.2781 16.5824 7.4584C16.2757 7.56084 16.0305 7.76982 15.8734 8.03742C15.33 6.14491 14.1208 3.95397 11.4304 2.69806ZM10.9879 8.96951C11.3677 7.65443 11.5549 6.07419 11.2413 4.51458C14.5947 6.45653 14.6165 10.4337 14.6165 11.4424V13.1559L15.9808 12.1191C16.7254 11.5533 17.0592 10.7265 17.2226 9.9565C17.5021 10.5531 17.7274 11.2148 17.8864 11.8886C18.1448 12.9837 18.212 14.0423 18.0934 14.8315C17.581 18.2415 15.0653 20.1499 11.9995 20.1499C8.93363 20.1499 6.4182 18.2415 5.90652 14.8317C5.70886 13.5145 6.03546 11.643 6.77702 10.1254C6.99279 10.8894 7.37701 11.5794 8.02928 12.2533L8.60978 12.853L9.21997 12.2835C9.89382 11.6547 10.5756 10.3973 10.9879 8.96951Z" fill="#1A1A1A"/>
</svg>
