<svg width="24" height="24" viewBox="0 0 24 24" fill="none" xmlns="http://www.w3.org/2000/svg">
<path fill-rule="evenodd" clip-rule="evenodd" d="M7.16612 3.14999C6.63486 3.14998 6.18545 3.14997 5.81709 3.18007C5.43102 3.21161 5.05974 3.2804 4.70603 3.46063C4.16977 3.73387 3.73377 4.16986 3.46054 4.70612C3.28031 5.05983 3.21152 5.43111 3.17998 5.81718C3.14988 6.18554 3.14989 6.63493 3.1499 7.16618V7.33378C3.14989 7.86504 3.14988 8.31445 3.17998 8.68281C3.21152 9.06888 3.28031 9.44016 3.46054 9.79387C3.73377 10.3301 4.16977 10.7661 4.70603 11.0394C5.05974 11.2196 5.43102 11.2884 5.81709 11.3199C6.18544 11.35 6.63482 11.35 7.16606 11.35H7.3337C7.86494 11.35 8.31437 11.35 8.68272 11.3199C9.06879 11.2884 9.44007 11.2196 9.79378 11.0394C10.33 10.7661 10.766 10.3301 11.0393 9.79387C11.2195 9.44016 11.2883 9.06888 11.3198 8.68281C11.3499 8.31446 11.3499 7.86508 11.3499 7.33384V7.1662C11.3499 6.63496 11.3499 6.18553 11.3198 5.81718C11.2883 5.43111 11.2195 5.05983 11.0393 4.70612C10.766 4.16986 10.33 3.73387 9.79378 3.46063C9.44007 3.2804 9.06879 3.21161 8.68272 3.18007C8.31436 3.14997 7.86497 3.14998 7.33372 3.14999H7.16612ZM5.47781 4.97534C5.55193 4.93758 5.67459 4.89737 5.95552 4.87442C6.24639 4.85066 6.62583 4.85 7.1999 4.85H7.2999C7.87398 4.85 8.25342 4.85066 8.54428 4.87442C8.82522 4.89737 8.94788 4.93758 9.02199 4.97534C9.23838 5.08559 9.41431 5.26152 9.52456 5.47791C9.56232 5.55202 9.60253 5.67468 9.62548 5.95562C9.64924 6.24648 9.6499 6.62592 9.6499 7.2V7.3C9.6499 7.87407 9.64924 8.25351 9.62548 8.54437C9.60253 8.82531 9.56232 8.94797 9.52456 9.02208C9.41431 9.23847 9.23838 9.4144 9.02199 9.52465C8.94788 9.56242 8.82522 9.60262 8.54428 9.62557C8.25342 9.64933 7.87398 9.65 7.2999 9.65H7.1999C6.62583 9.65 6.24639 9.64933 5.95552 9.62557C5.67459 9.60262 5.55193 9.56242 5.47781 9.52465C5.26143 9.4144 5.0855 9.23847 4.97525 9.02208C4.93748 8.94797 4.89728 8.82531 4.87433 8.54437C4.85057 8.25351 4.8499 7.87407 4.8499 7.3V7.2C4.8499 6.62592 4.85057 6.24648 4.87433 5.95562C4.89728 5.67468 4.93748 5.55202 4.97525 5.47791C5.0855 5.26152 5.26143 5.08559 5.47781 4.97534Z" fill="#1A1A1A"/>
<path fill-rule="evenodd" clip-rule="evenodd" d="M7.16612 12.65C6.63487 12.65 6.18544 12.65 5.81709 12.6801C5.43102 12.7116 5.05974 12.7804 4.70603 12.9606C4.16977 13.2339 3.73377 13.6699 3.46054 14.2061C3.28031 14.5598 3.21152 14.9311 3.17998 15.3172C3.14988 15.6855 3.14989 16.1349 3.1499 16.6662V16.8338C3.14989 17.365 3.14988 17.8145 3.17998 18.1828C3.21152 18.5689 3.28031 18.9402 3.46054 19.2939C3.73377 19.8301 4.16977 20.2661 4.70603 20.5394C5.05974 20.7196 5.43102 20.7884 5.81709 20.8199C6.18543 20.85 6.63479 20.85 7.16601 20.85H7.3337C7.86492 20.85 8.31438 20.85 8.68272 20.8199C9.06879 20.7884 9.44007 20.7196 9.79378 20.5394C10.33 20.2661 10.766 19.8301 11.0393 19.2939C11.2195 18.9402 11.2883 18.5689 11.3198 18.1828C11.3499 17.8145 11.3499 17.3651 11.3499 16.8338V16.6662C11.3499 16.135 11.3499 15.6855 11.3198 15.3172C11.2883 14.9311 11.2195 14.5598 11.0393 14.2061C10.766 13.6699 10.33 13.2339 9.79378 12.9606C9.44007 12.7804 9.06879 12.7116 8.68272 12.6801C8.31436 12.65 7.86498 12.65 7.33373 12.65H7.16612ZM5.47781 14.4753C5.55193 14.4376 5.67459 14.3974 5.95552 14.3744C6.24639 14.3507 6.62583 14.35 7.1999 14.35H7.2999C7.87398 14.35 8.25342 14.3507 8.54428 14.3744C8.82522 14.3974 8.94788 14.4376 9.02199 14.4753C9.23838 14.5856 9.41431 14.7615 9.52456 14.9779C9.56232 15.052 9.60253 15.1747 9.62548 15.4556C9.64924 15.7465 9.6499 16.1259 9.6499 16.7V16.8C9.6499 17.3741 9.64924 17.7535 9.62548 18.0444C9.60253 18.3253 9.56232 18.448 9.52456 18.5221C9.41431 18.7385 9.23838 18.9144 9.02199 19.0247C8.94788 19.0624 8.82522 19.1026 8.54428 19.1256C8.25342 19.1493 7.87398 19.15 7.2999 19.15H7.1999C6.62583 19.15 6.24639 19.1493 5.95552 19.1256C5.67459 19.1026 5.55193 19.0624 5.47781 19.0247C5.26143 18.9144 5.0855 18.7385 4.97525 18.5221C4.93748 18.448 4.89728 18.3253 4.87433 18.0444C4.85057 17.7535 4.8499 17.3741 4.8499 16.8V16.7C4.8499 16.1259 4.85057 15.7465 4.87433 15.4556C4.89728 15.1747 4.93748 15.052 4.97525 14.9779C5.0855 14.7615 5.26143 14.5856 5.47781 14.4753Z" fill="#1A1A1A"/>
<path d="M12.1499 5C12.1499 4.53055 12.5305 4.15 12.9999 4.15H19.9999C20.4693 4.15 20.8499 4.53055 20.8499 5C20.8499 5.46944 20.4693 5.85 19.9999 5.85H12.9999C12.5305 5.85 12.1499 5.46944 12.1499 5Z" fill="#1A1A1A"/>
<path d="M12.9999 14.15C12.5305 14.15 12.1499 14.5306 12.1499 15C12.1499 15.4694 12.5305 15.85 12.9999 15.85H19.9999C20.4693 15.85 20.8499 15.4694 20.8499 15C20.8499 14.5306 20.4693 14.15 19.9999 14.15H12.9999Z" fill="#1A1A1A"/>
<path d="M12.1499 9C12.1499 8.53055 12.5305 8.15 12.9999 8.15H19.9999C20.4693 8.15 20.8499 8.53055 20.8499 9C20.8499 9.46944 20.4693 9.85 19.9999 9.85H12.9999C12.5305 9.85 12.1499 9.46944 12.1499 9Z" fill="#1A1A1A"/>
<path d="M12.9999 18.15C12.5305 18.15 12.1499 18.5306 12.1499 19C12.1499 19.4694 12.5305 19.85 12.9999 19.85H19.9999C20.4693 19.85 20.8499 19.4694 20.8499 19C20.8499 18.5306 20.4693 18.15 19.9999 18.15H12.9999Z" fill="#1A1A1A"/>
</svg>
