<svg width="24" height="24" viewBox="0 0 24 24" fill="none" xmlns="http://www.w3.org/2000/svg">
<path d="M11.6499 7.50039C11.6499 7.03095 12.0305 6.65039 12.4999 6.65039H14.9999C16.2978 6.65039 17.3499 7.70252 17.3499 9.00039V11.5004C17.3499 11.9698 16.9693 12.3504 16.4999 12.3504C16.0305 12.3504 15.6499 11.9698 15.6499 11.5004V9.00039C15.6499 8.64141 15.3589 8.35039 14.9999 8.35039H12.4999C12.0305 8.35039 11.6499 7.96983 11.6499 7.50039Z" fill="#1A1A1A"/>
<path d="M11.4999 17.3496C11.9693 17.3496 12.3499 16.9691 12.3499 16.4996C12.3499 16.0302 11.9693 15.6496 11.4999 15.6496H8.99985C8.64087 15.6496 8.34985 15.3586 8.34985 14.9996L8.34985 12.4996C8.34985 12.0302 7.9693 11.6496 7.49985 11.6496C7.03041 11.6496 6.64985 12.0302 6.64985 12.4996L6.64985 14.9996C6.64985 16.2975 7.70198 17.3496 8.99985 17.3496H11.4999Z" fill="#1A1A1A"/>
<path fill-rule="evenodd" clip-rule="evenodd" d="M2.1499 8.00039C2.1499 4.76953 4.76904 2.15039 7.9999 2.15039H15.9999C19.2308 2.15039 21.8499 4.76953 21.8499 8.00039V16.0004C21.8499 19.2313 19.2308 21.8504 15.9999 21.8504H7.9999C4.76904 21.8504 2.1499 19.2313 2.1499 16.0004V8.00039ZM7.9999 3.85039C5.70792 3.85039 3.8499 5.70841 3.8499 8.00039V16.0004C3.8499 18.2924 5.70792 20.1504 7.9999 20.1504H15.9999C18.2919 20.1504 20.1499 18.2924 20.1499 16.0004V8.00039C20.1499 5.70841 18.2919 3.85039 15.9999 3.85039H7.9999Z" fill="#1A1A1A"/>
</svg>
