<svg width="24" height="24" viewBox="0 0 24 24" fill="none" xmlns="http://www.w3.org/2000/svg">
<path d="M7.94009 4.15003H16.0597C17.1872 4.15 18.1188 4.14998 18.8563 4.24914C19.6314 4.35334 20.3183 4.58085 20.8687 5.13122C21.4191 5.68159 21.6466 6.36855 21.7508 7.14359C21.85 7.88117 21.8499 8.81263 21.8499 9.94019V12.3443C21.3749 12.1234 20.8454 12 20.287 12H20.1499V10C20.1499 8.79749 20.1481 7.98109 20.066 7.37011C19.9871 6.78358 19.8485 6.51517 19.6666 6.3333C19.4848 6.15144 19.2164 6.01284 18.6298 5.93398C18.0188 5.85184 17.2024 5.85003 15.9999 5.85003H7.99991C6.79737 5.85003 5.98097 5.85184 5.36999 5.93398C4.78346 6.01284 4.51504 6.15144 4.33318 6.3333C4.15132 6.51517 4.01271 6.78358 3.93386 7.37011C3.85171 7.98109 3.84991 8.79749 3.84991 10V14C3.84991 15.2026 3.85171 16.019 3.93386 16.6299C4.01271 17.2165 4.15132 17.4849 4.33318 17.6668C4.51504 17.8486 4.78346 17.9872 5.36999 18.0661C5.98097 18.1482 6.79737 18.15 7.99991 18.15H12.9999V19.29C12.9999 19.4804 13.0143 19.6674 13.0419 19.85L7.94012 19.85C6.81258 19.8501 5.88104 19.8501 5.14347 19.7509C4.36843 19.6467 3.68147 19.4192 3.1311 18.8688C2.58073 18.3185 2.35322 17.6315 2.24902 16.8565C2.14985 16.1189 2.14988 15.1875 2.1499 14.0599V9.94021C2.14988 8.81269 2.14985 7.88116 2.24902 7.14359C2.35322 6.36855 2.58073 5.68159 3.1311 5.13122C3.68147 4.58085 4.36843 4.35334 5.14347 4.24914C5.88103 4.14998 6.81257 4.15 7.94009 4.15003Z" fill="#1A1A1A"/>
<path d="M13.2059 15.15C13.0721 15.5762 12.9999 16.0297 12.9999 16.5V16.85H8.9999C8.53046 16.85 8.1499 16.4695 8.1499 16C8.1499 15.5306 8.53046 15.15 8.9999 15.15H13.2059Z" fill="#1A1A1A"/>
<path d="M18.4999 15.15C18.9693 15.15 19.3499 15.5306 19.3499 16V16.7149L20.0717 17.3711C20.419 17.6869 20.4446 18.2244 20.1289 18.5718C19.8131 18.9192 19.2755 18.9448 18.9281 18.629L18.0591 17.8389C17.7985 17.602 17.6499 17.2662 17.6499 16.914V16C17.6499 15.5306 18.0305 15.15 18.4999 15.15Z" fill="#1A1A1A"/>
<path fill-rule="evenodd" clip-rule="evenodd" d="M14.1499 15.7143C14.1499 14.2981 15.298 13.15 16.7142 13.15H20.2827C21.6989 13.15 22.847 14.2981 22.847 15.7143V19.2857C22.847 20.702 21.6989 21.85 20.2827 21.85H16.7142C15.298 21.85 14.1499 20.702 14.1499 19.2857V15.7143ZM16.7142 14.85C16.2369 14.85 15.8499 15.237 15.8499 15.7143V19.2857C15.8499 19.7631 16.2369 20.15 16.7142 20.15H20.2827C20.76 20.15 21.147 19.7631 21.147 19.2857V15.7143C21.147 15.237 20.76 14.85 20.2827 14.85H16.7142Z" fill="#1A1A1A"/>
</svg>
