<svg width="24" height="24" viewBox="0 0 24 24" fill="none" xmlns="http://www.w3.org/2000/svg">
<path d="M14.0823 8.7067H14.65C15.1195 8.7067 15.5 9.08726 15.5 9.5567C15.5 10.0261 15.1195 10.4067 14.65 10.4067H13.0004C12.9452 10.4067 12.9004 10.4515 12.9004 10.5067V11.4067C12.9004 11.4619 12.9452 11.5067 13.0004 11.5067H14.65C15.1195 11.5067 15.5 11.8872 15.5 12.3567C15.5 12.8261 15.1195 13.2067 14.65 13.2067H13.0004C12.9452 13.2067 12.9004 13.2515 12.9004 13.3067V14.2567C12.9004 14.7261 12.5199 15.1067 12.0504 15.1067C11.581 15.1067 11.2004 14.7261 11.2004 14.2567V13.3067C11.2004 13.2515 11.1557 13.2067 11.1004 13.2067H9.35005C8.88061 13.2067 8.50005 12.8261 8.50005 12.3567C8.50005 11.8872 8.88061 11.5067 9.35005 11.5067H11.1004C11.1557 11.5067 11.2004 11.4619 11.2004 11.4067V10.5067C11.2004 10.4515 11.1557 10.4067 11.1004 10.4067H9.35005C8.88061 10.4067 8.50005 10.0261 8.50005 9.5567C8.50005 9.08726 8.88061 8.7067 9.35005 8.7067H9.87949C9.95647 8.7067 10.0046 8.62337 9.9661 8.5567L9.52507 7.79283C9.29035 7.38628 9.42964 6.86643 9.83619 6.63171C10.2427 6.39699 10.7626 6.53628 10.9973 6.94283L11.9473 8.58827C11.9619 8.61358 12.0011 8.61314 12.0151 8.58751L12.0247 8.57058L12.9747 6.92514C13.2094 6.51859 13.7292 6.3793 14.1358 6.61402C14.5423 6.84874 14.6816 7.36859 14.4469 7.77514L13.9957 8.5567C13.9572 8.62337 14.0053 8.7067 14.0823 8.7067Z" fill="#1A1A1A"/>
<path fill-rule="evenodd" clip-rule="evenodd" d="M1.65015 18.0004C1.65015 18.0151 1.65052 18.0298 1.65126 18.0443V18.7131C1.65126 20.5546 3.82591 21.5328 5.20383 20.3112L6.85145 18.8504H16.5001C19.731 18.8504 22.3501 16.2313 22.3501 13.0004V9.00039C22.3501 5.76953 19.731 3.15039 16.5001 3.15039H7.50015C4.26928 3.15039 1.65015 5.76952 1.65015 9.00039V18.0004ZM20.6501 9.00039C20.6501 6.70841 18.7921 4.85039 16.5001 4.85039H7.50015C5.20817 4.85039 3.35015 6.70841 3.35015 9.00039V17.9565C3.35089 17.971 3.35126 17.9857 3.35126 18.0004V18.7131C3.35126 19.0888 3.79492 19.2884 4.07604 19.0391L5.965 17.3644C6.12049 17.2265 6.3211 17.1504 6.5289 17.1504H16.5001C18.7921 17.1504 20.6501 15.2924 20.6501 13.0004V9.00039Z" fill="#1A1A1A"/>
</svg>
