<svg width="24" height="24" viewBox="0 0 24 24" fill="none" xmlns="http://www.w3.org/2000/svg">
<path d="M12.6549 9.72621C12.4316 9.27095 11.766 9.27095 11.5427 9.72621L10.8192 11.2014C10.773 11.2955 10.6799 11.3596 10.5733 11.3705L8.89559 11.5416C8.35844 11.5964 8.14839 12.2496 8.55755 12.5929L9.76897 13.6092C9.85466 13.681 9.89301 13.7929 9.86886 13.9005L9.52875 15.4161C9.4163 15.9172 9.95968 16.3157 10.4234 16.0722L11.9526 15.2692C12.0439 15.2212 12.1538 15.2212 12.2451 15.2692L13.7743 16.0722C14.238 16.3157 14.7814 15.9172 14.6689 15.4161L14.3288 13.9005C14.3047 13.7929 14.343 13.681 14.4287 13.6092L15.6401 12.5929C16.0493 12.2496 15.8392 11.5964 15.3021 11.5416L13.6244 11.3705C13.5178 11.3596 13.4247 11.2955 13.3785 11.2014L12.6549 9.72621Z" fill="#1A1A1A"/>
<path fill-rule="evenodd" clip-rule="evenodd" d="M11.9999 1.15039C12.4693 1.15039 12.8499 1.53095 12.8499 2.00039V3.68851C17.6154 4.11795 21.3499 8.12305 21.3499 13.0004C21.3499 18.1643 17.1638 22.3504 11.9999 22.3504C6.83604 22.3504 2.6499 18.1643 2.6499 13.0004C2.6499 8.12305 6.38438 4.11795 11.1499 3.68851V2.00039C11.1499 1.53095 11.5305 1.15039 11.9999 1.15039ZM11.9999 5.35039C7.77492 5.35039 4.3499 8.77541 4.3499 13.0004C4.3499 17.2254 7.77492 20.6504 11.9999 20.6504C16.2249 20.6504 19.6499 17.2254 19.6499 13.0004C19.6499 8.77541 16.2249 5.35039 11.9999 5.35039Z" fill="#1A1A1A"/>
</svg>
