<svg width="24" height="24" viewBox="0 0 24 24" fill="none" xmlns="http://www.w3.org/2000/svg">
<path fill-rule="evenodd" clip-rule="evenodd" d="M11.4367 2.6499H12.5631C14.3951 2.64988 15.8563 2.64987 17.0023 2.80393C18.1858 2.96305 19.1593 3.3004 19.9294 4.07044C20.6994 4.84048 21.0368 5.81405 21.1959 6.99756C21.3499 8.14347 21.3499 9.60474 21.3499 11.4367V12.5631C21.3499 14.3951 21.3499 15.8563 21.1959 17.0023C21.0368 18.1858 20.6994 19.1593 19.9294 19.9294C19.1593 20.6994 18.1858 21.0368 17.0023 21.1959C15.8563 21.3499 14.3951 21.3499 12.5631 21.3499H11.4367C9.60474 21.3499 8.14347 21.3499 6.99756 21.1959C5.81404 21.0368 4.84048 20.6994 4.07044 19.9294C3.3004 19.1593 2.96305 18.1858 2.80393 17.0023C2.64987 15.8563 2.64988 14.3951 2.6499 12.5631V11.4367C2.64988 9.60473 2.64987 8.14346 2.80393 6.99756C2.96305 5.81404 3.3004 4.84048 4.07044 4.07044C4.84048 3.3004 5.81405 2.96305 6.99756 2.80393C8.14346 2.64987 9.60473 2.64988 11.4367 2.6499ZM7.22408 4.48877C6.22908 4.62255 5.67405 4.87098 5.27252 5.27252C4.87098 5.67405 4.62255 6.22908 4.48877 7.22408C4.45087 7.506 4.42331 7.81294 4.40327 8.1499H8.3999V4.39C7.96299 4.41057 7.57423 4.44169 7.22408 4.48877ZM10.0999 4.35274V8.1499H13.8999V4.35274C13.4696 4.35003 13.0044 4.3499 12.4999 4.3499H11.4999C10.9954 4.3499 10.5302 4.35003 10.0999 4.35274ZM8.3999 9.8499H4.35466C4.35008 10.3486 4.3499 10.8961 4.3499 11.4999V12.4999C4.3499 12.9082 4.34999 13.2908 4.35146 13.6499H8.3999V9.8499ZM10.0999 13.6499V9.8499H13.8999V13.6499H10.0999ZM8.3999 15.3499H4.37954C4.3995 15.8902 4.4329 16.3602 4.48877 16.7757C4.62255 17.7707 4.87098 18.3258 5.27252 18.7273C5.67405 19.1288 6.22908 19.3773 7.22408 19.511C7.57423 19.5581 7.96299 19.5892 8.3999 19.6098V15.3499ZM10.0999 19.6471V15.3499H13.8999V19.6471C13.4696 19.6498 13.0044 19.6499 12.4999 19.6499H11.4999C10.9954 19.6499 10.5302 19.6498 10.0999 19.6471ZM15.5999 9.8499V13.6499H19.6483C19.6498 13.2908 19.6499 12.9082 19.6499 12.4999V11.4999C19.6499 10.8961 19.6497 10.3486 19.6451 9.8499H15.5999ZM15.5999 15.3499V19.6098C16.0368 19.5892 16.4256 19.5581 16.7757 19.511C17.7707 19.3773 18.3258 19.1288 18.7273 18.7273C19.1288 18.3258 19.3773 17.7707 19.511 16.7757C19.5669 16.3602 19.6003 15.8902 19.6203 15.3499H15.5999ZM15.5999 4.39V8.1499H19.5965C19.5765 7.81294 19.5489 7.506 19.511 7.22408C19.3773 6.22908 19.1288 5.67405 18.7273 5.27252C18.3258 4.87098 17.7707 4.62255 16.7757 4.48877C16.4256 4.44169 16.0368 4.41057 15.5999 4.39Z" fill="#1A1A1A"/>
</svg>
