<svg width="24" height="24" viewBox="0 0 24 24" fill="none" xmlns="http://www.w3.org/2000/svg">
<path d="M21.0856 8.69626C21.8549 9.46578 21.342 10.7831 20.2549 10.8293L18.601 10.8991C18.5635 10.9006 18.5275 10.9161 18.5009 10.9426L15.1497 14.2937L15.5454 17.1173C15.792 18.8755 13.661 19.9379 12.4056 18.6828L9.56815 15.8454L5.21917 20.1943C4.82865 20.5849 4.19548 20.5849 3.80496 20.1943C3.4146 19.8038 3.41449 19.1706 3.80496 18.7801L8.15394 14.4311L5.31654 11.5937C4.06122 10.3382 5.12373 8.20722 6.88198 8.45388L9.70557 8.84956L13.0567 5.49839C13.0832 5.47184 13.0986 5.43574 13.1002 5.39827L13.17 3.74444C13.216 2.65711 14.5335 2.14418 15.303 2.91373L21.0856 8.69626ZM14.7989 5.47008C14.7793 5.93317 14.586 6.37215 14.2583 6.69992L10.7828 10.1754C10.4833 10.4747 10.0607 10.616 9.64135 10.5572L6.64581 10.1374C6.59445 10.1302 6.56786 10.1405 6.55259 10.1491C6.53185 10.1609 6.50724 10.1838 6.48975 10.2189C6.47233 10.2539 6.46938 10.2871 6.47249 10.3107C6.4748 10.3281 6.48145 10.3556 6.51807 10.3922L13.6071 17.4812C13.6437 17.5178 13.6712 17.5245 13.6886 17.5268C13.7122 17.5299 13.7455 17.5269 13.7804 17.5095C13.8154 17.4921 13.8385 17.4674 13.8502 17.4467C13.8588 17.4315 13.8691 17.4049 13.8619 17.3535L13.442 14.3579C13.3832 13.9385 13.5245 13.5161 13.8239 13.2165L17.2994 9.74103C17.6272 9.41331 18.0661 9.21996 18.5292 9.20035L19.1597 9.17342L14.8259 4.83962L14.7989 5.47008Z" fill="#1A1A1A"/>
</svg>
