<svg width="24" height="24" viewBox="0 0 24 24" fill="none" xmlns="http://www.w3.org/2000/svg">
<path fill-rule="evenodd" clip-rule="evenodd" d="M11.9999 2.15039C6.5599 2.15039 2.1499 6.56039 2.1499 12.0004C2.1499 17.4404 6.5599 21.8504 11.9999 21.8504C17.4399 21.8504 21.8499 17.4404 21.8499 12.0004C21.8499 6.56039 17.4399 2.15039 11.9999 2.15039ZM3.8499 12.0004C3.8499 7.49927 7.49878 3.85039 11.9999 3.85039C16.501 3.85039 20.1499 7.49927 20.1499 12.0004C20.1499 16.5015 16.501 20.1504 11.9999 20.1504C7.49878 20.1504 3.8499 16.5015 3.8499 12.0004Z" fill="#1A1A1A"/>
<path d="M9.91021 8.2756C10.3296 8.02575 10.8403 8.12749 11.3497 8.33127C12.6973 8.87062 14.1472 9.76478 15.2334 10.7278C15.6587 11.1047 15.9717 11.5158 15.9717 12.0002C15.9716 12.4845 15.6586 12.8957 15.2334 13.2727C14.1472 14.2355 12.6981 15.1295 11.3497 15.6692C10.8404 15.8729 10.3295 15.9747 9.91021 15.7248C9.49848 15.4792 9.32145 14.9801 9.22759 14.4113C8.97618 12.8874 8.97626 11.113 9.22759 9.58908C9.32143 9.02037 9.49858 8.52124 9.91021 8.2756Z" fill="#1A1A1A"/>
</svg>
