<svg width="24" height="24" viewBox="0 0 24 24" fill="none" xmlns="http://www.w3.org/2000/svg">
<path fill-rule="evenodd" clip-rule="evenodd" d="M2.81665 10.3914C2.81665 5.44461 6.99715 1.50092 11.9936 1.50092C17.0019 1.50092 21.1833 5.44378 21.1833 10.3914C21.1833 13.1385 19.6291 15.7194 17.9418 17.7331C16.2348 19.7703 14.2758 21.3633 13.2354 22.1494C12.4958 22.7082 11.4892 22.7066 10.7514 22.1459C9.71302 21.3569 7.75729 19.7585 6.05322 17.7201C4.36915 15.7056 2.81665 13.1267 2.81665 10.3914ZM11.9936 3.20092C7.87317 3.20092 4.51665 6.44514 4.51665 10.3914C4.51665 12.5169 5.74926 14.706 7.35749 16.6298C8.94572 18.5296 10.7895 20.0398 11.7799 20.7924C11.9115 20.8923 12.079 20.8925 12.2106 20.7931C13.2025 20.0436 15.0486 18.539 16.6388 16.6413C18.2485 14.7202 19.4833 12.529 19.4833 10.3914C19.4833 6.44598 16.1277 3.20092 11.9936 3.20092ZM11.9924 7.2001C10.4582 7.2001 9.18434 8.48676 9.18434 10.0478C9.18434 11.6035 10.4371 12.8334 11.9924 12.8334C13.5541 12.8334 14.8177 11.5986 14.8177 10.0478C14.8177 8.49175 13.5329 7.2001 11.9924 7.2001ZM7.48434 10.0478C7.48434 7.57043 9.49695 5.5001 11.9924 5.5001C14.4843 5.5001 16.5177 7.56543 16.5177 10.0478C16.5177 12.5671 14.4631 14.5334 11.9924 14.5334C9.51808 14.5334 7.48434 12.5622 7.48434 10.0478Z" fill="#1A1A1A"/>
</svg>
