<svg width="24" height="24" viewBox="0 0 24 24" fill="none" xmlns="http://www.w3.org/2000/svg">
<path d="M5.55273 7.16797C5.01525 8.14366 4.71004 9.25354 4.70996 10.4268C4.71013 13.0474 6.08153 15.6156 7.77637 17.5645C8.61657 18.5305 9.51163 19.3144 10.3027 19.8496C10.6981 20.1171 11.056 20.3147 11.3574 20.4424C11.6696 20.5745 11.873 20.6113 11.9736 20.6113C12.0756 20.6112 12.2805 20.5742 12.5947 20.4424C12.8983 20.315 13.259 20.1182 13.6572 19.8516C14.4185 19.3417 15.2742 18.603 16.0879 17.6973L17.291 18.9004C16.4094 19.8712 15.4724 20.6817 14.6035 21.2637C14.1385 21.575 13.6809 21.8311 13.2529 22.0107C12.8359 22.1856 12.3929 22.3114 11.9736 22.3115C11.5532 22.3115 11.1112 22.1838 10.6953 22.0078C10.2683 21.827 9.81207 21.5707 9.34961 21.2578C8.42429 20.6317 7.42031 19.7457 6.49316 18.6797C4.65291 16.5635 3.00993 13.6129 3.00977 10.4268C3.00985 8.77374 3.48617 7.2345 4.30859 5.9248L5.55273 7.16797Z" fill="#1A1A1A"/>
<path d="M3.39941 2.39941C3.73136 2.06747 4.26864 2.06747 4.60059 2.39941L20.6006 18.3994L20.6592 18.4639C20.9314 18.7977 20.9118 19.2894 20.6006 19.6006C20.2894 19.9118 19.7977 19.9314 19.4639 19.6592L19.3994 19.6006L3.39941 3.60059C3.06747 3.26864 3.06747 2.73136 3.39941 2.39941Z" fill="#1A1A1A"/>
<path d="M11.9971 1.7207C16.9005 1.72103 20.9958 5.58117 20.9961 10.4268C20.996 12.3781 20.3769 14.2344 19.4756 15.8662L18.2188 14.6084C18.8773 13.2954 19.2958 11.8715 19.2959 10.4268C19.2956 6.58336 16.0262 3.42025 11.9971 3.41992C10.5725 3.41992 9.2425 3.81876 8.11816 4.50391L6.88965 3.27441C8.34871 2.29379 10.1134 1.7207 11.9971 1.7207Z" fill="#1A1A1A"/>
<path d="M9.4502 11.0635C9.72243 11.7739 10.2848 12.3327 10.9961 12.6074L12.8086 14.4199C12.544 14.4685 12.2719 14.4961 11.9941 14.4961C9.56615 14.496 7.57063 12.5612 7.57031 10.0938C7.57031 9.81054 7.59819 9.53248 7.64941 9.2627L9.4502 11.0635Z" fill="#1A1A1A"/>
<path d="M11.9941 5.63086C14.4399 5.63086 16.4355 7.65755 16.4355 10.0938C16.4354 10.8853 16.2269 11.6201 15.8662 12.2549L14.585 10.9736C14.6804 10.6981 14.7353 10.4029 14.7354 10.0938C14.7353 8.58387 13.4885 7.33008 11.9941 7.33008C11.6822 7.33011 11.3823 7.38755 11.1016 7.48828L9.82324 6.20996C10.464 5.84213 11.2043 5.63091 11.9941 5.63086Z" fill="#1A1A1A"/>
</svg>
