<svg width="24" height="24" viewBox="0 0 24 24" fill="none" xmlns="http://www.w3.org/2000/svg">
<path d="M17 2.15039C19.6786 2.15039 21.8496 4.32142 21.8496 7V17C21.8496 19.6786 19.6786 21.8496 17 21.8496H15C14.5306 21.8496 14.1504 21.4694 14.1504 21C14.1504 20.5306 14.5306 20.1504 15 20.1504H17C18.7397 20.1504 20.1504 18.7397 20.1504 17V7C20.1504 5.2603 18.7397 3.84961 17 3.84961H7C5.2603 3.84961 3.84961 5.2603 3.84961 7V10.5C3.84961 10.9694 3.46944 11.3496 3 11.3496C2.53056 11.3496 2.15039 10.9694 2.15039 10.5V7C2.15039 4.32142 4.32142 2.15039 7 2.15039H17ZM11.2031 7.44043C14.1613 7.44069 16.5593 9.83873 16.5596 12.7969C16.5596 15.7552 14.1614 18.154 11.2031 18.1543C10.0162 18.1543 8.92013 17.7666 8.03223 17.1133L5.07227 20.0723C4.75613 20.3884 4.24387 20.3884 3.92773 20.0723C3.6116 19.7561 3.6116 19.2439 3.92773 18.9277L6.88672 15.9678C6.23338 15.0799 5.8457 13.9838 5.8457 12.7969C5.84596 9.83857 8.24476 7.44043 11.2031 7.44043ZM11.2031 9.05957C9.13894 9.05957 7.4651 10.7327 7.46484 12.7969C7.46484 14.8612 9.13878 16.5352 11.2031 16.5352C13.2673 16.5349 14.9404 14.8611 14.9404 12.7969C14.9402 10.7329 13.2671 9.05983 11.2031 9.05957Z" fill="#1A1A1A"/>
</svg>
