<svg width="24" height="24" viewBox="0 0 24 24" fill="none" xmlns="http://www.w3.org/2000/svg">
<path d="M6.42861 10.0786C5.95917 10.0786 5.57861 10.4592 5.57861 10.9286C5.57861 11.3981 5.95917 11.7786 6.42861 11.7786H8.57147C9.04091 11.7786 9.42147 11.3981 9.42147 10.9286C9.42147 10.4592 9.04091 10.0786 8.57147 10.0786H6.42861Z" fill="#1A1A1A"/>
<path fill-rule="evenodd" clip-rule="evenodd" d="M6.1499 4.7499C6.1499 3.45203 7.20203 2.3999 8.4999 2.3999H15.4999C16.7978 2.3999 17.8499 3.45203 17.8499 4.7499V6.42018C18.2182 6.43432 18.5536 6.45831 18.8563 6.49901C19.6314 6.60321 20.3183 6.83073 20.8687 7.3811C21.4191 7.93147 21.6466 8.61842 21.7508 9.39346C21.85 10.131 21.8499 11.0625 21.8499 12.1901V14.2293C21.8499 14.9253 21.8499 15.5008 21.8102 15.9692C21.7689 16.4563 21.6802 16.9048 21.4571 17.324C21.1439 17.9123 20.6623 18.3939 20.074 18.7071C19.6548 18.9302 19.2063 19.0189 18.7192 19.0602C18.4624 19.082 18.1734 19.0918 17.8499 19.0963V19.2499C17.8499 20.8239 16.5739 22.0999 14.9999 22.0999H8.9999C7.42589 22.0999 6.1499 20.8239 6.1499 19.2499V19.0963C5.82646 19.0918 5.53742 19.082 5.28058 19.0602C4.79352 19.0189 4.34497 18.9302 3.92585 18.7071C3.33748 18.3939 2.85592 17.9123 2.54274 17.324C2.31964 16.9048 2.23087 16.4563 2.18959 15.9692C2.14988 15.5008 2.14989 14.9254 2.1499 14.2294V12.1901C2.14987 11.0625 2.14985 10.131 2.24901 9.39346C2.35322 8.61842 2.58073 7.93147 3.1311 7.3811C3.68147 6.83073 4.36843 6.60321 5.14347 6.49901C5.44623 6.45831 5.78165 6.43432 6.1499 6.42018V4.7499ZM6.1499 17.3961V14.3499C6.1499 13.8252 6.57524 13.3999 7.0999 13.3999H16.8999C17.4246 13.3999 17.8499 13.8252 17.8499 14.3499V17.3961C18.1356 17.392 18.3715 17.3836 18.5757 17.3663C18.9532 17.3343 19.1436 17.2765 19.2752 17.2064C19.565 17.0522 19.8022 16.815 19.9564 16.5252C20.0265 16.3936 20.0843 16.2032 20.1163 15.8257C20.1492 15.4375 20.1499 14.9345 20.1499 14.1929V12.2499C20.1499 11.0474 20.1481 10.231 20.066 9.61999C19.9871 9.03346 19.8485 8.76504 19.6666 8.58318C19.4848 8.40132 19.2164 8.26271 18.6298 8.18385C18.0188 8.10171 17.2024 8.0999 15.9999 8.0999H7.99991C6.79737 8.0999 5.98097 8.10171 5.36999 8.18385C4.78346 8.26271 4.51504 8.40132 4.33318 8.58318C4.15132 8.76504 4.01271 9.03346 3.93386 9.61999C3.85171 10.231 3.84991 11.0474 3.84991 12.2499V14.1929C3.84991 14.9345 3.85062 15.4375 3.88351 15.8257C3.91552 16.2032 3.97333 16.3936 4.04339 16.5252C4.19764 16.815 4.43483 17.0522 4.72462 17.2064C4.85625 17.2765 5.04656 17.3343 5.42416 17.3663C5.62828 17.3836 5.86421 17.392 6.1499 17.3961ZM16.1499 6.3999H7.8499V4.7499C7.8499 4.39092 8.14092 4.0999 8.4999 4.0999H15.4999C15.8589 4.0999 16.1499 4.39092 16.1499 4.7499V6.3999ZM7.8499 19.2499V15.0999H16.1499V19.2499C16.1499 19.885 15.635 20.3999 14.9999 20.3999H8.9999C8.36478 20.3999 7.8499 19.885 7.8499 19.2499Z" fill="#1A1A1A"/>
</svg>
