<svg width="24" height="24" viewBox="0 0 24 24" fill="none" xmlns="http://www.w3.org/2000/svg">
<path d="M8.77104 13.5632C9.01257 13.1607 9.53469 13.0301 9.93723 13.2717L10.6365 13.6912C11.4757 14.1947 12.5241 14.1947 13.3633 13.6912L14.0626 13.2717C14.4651 13.0301 14.9873 13.1607 15.2288 13.5632C15.4703 13.9657 15.3398 14.4879 14.9372 14.7294L14.238 15.1489C12.8604 15.9755 11.1394 15.9755 9.76185 15.1489L9.06259 14.7294C8.66004 14.4879 8.52951 13.9657 8.77104 13.5632Z" fill="#1A1A1A"/>
<path fill-rule="evenodd" clip-rule="evenodd" d="M13.8337 2.15039H10.1661C9.63487 2.15038 9.18545 2.15037 8.81709 2.18046C8.43102 2.21201 8.05974 2.2808 7.70603 2.46102C7.16977 2.73426 6.73377 3.17026 6.46054 3.70652C6.28031 4.06023 6.21152 4.43151 6.17998 4.81758C6.15018 5.18222 6.14989 5.62627 6.1499 6.15054C5.61868 6.15134 5.1676 6.15632 4.78869 6.18728C4.31925 6.22563 3.88622 6.30805 3.47904 6.51552C2.84869 6.8367 2.33621 7.34918 2.01503 7.97952C1.80756 8.38671 1.72514 8.81973 1.68679 9.28918C1.64988 9.74086 1.64989 10.2951 1.6499 10.9654V16.0354C1.64989 16.7057 1.64988 17.2599 1.68679 17.7116C1.72514 18.181 1.80756 18.6141 2.01503 19.0213C2.33621 19.6516 2.84869 20.1641 3.47904 20.4853C3.88622 20.6927 4.31925 20.7752 4.78869 20.8135C5.24038 20.8504 5.7946 20.8504 6.46491 20.8504H17.5349C18.2052 20.8504 18.7594 20.8504 19.2111 20.8135C19.6806 20.7752 20.1136 20.6927 20.5208 20.4853C21.1511 20.1641 21.6636 19.6516 21.9848 19.0213C22.1922 18.6141 22.2747 18.181 22.313 17.7116C22.3499 17.2599 22.3499 16.7057 22.3499 16.0354V10.9653C22.3499 10.2951 22.3499 9.74085 22.313 9.28918C22.2747 8.81973 22.1922 8.38671 21.9848 7.97952C21.6636 7.34918 21.1511 6.8367 20.5208 6.51552C20.1136 6.30805 19.6806 6.22563 19.2111 6.18728C18.8322 6.15632 18.3811 6.15134 17.8499 6.15054C17.8499 5.62627 17.8496 5.18222 17.8198 4.81758C17.7883 4.43151 17.7195 4.06023 17.5393 3.70652C17.266 3.17026 16.83 2.73426 16.2938 2.46102C15.9401 2.2808 15.5688 2.21201 15.1827 2.18046C14.8144 2.15037 14.3649 2.15038 13.8337 2.15039ZM16.1499 6.15039C16.1498 5.60414 16.1485 5.23835 16.1255 4.95601C16.1025 4.67507 16.0623 4.55242 16.0246 4.4783C15.9143 4.26192 15.7384 4.08599 15.522 3.97573C15.4479 3.93797 15.3252 3.89777 15.0443 3.87482C14.7534 3.85105 14.374 3.85039 13.7999 3.85039H10.1999C9.62583 3.85039 9.24639 3.85105 8.95552 3.87482C8.67459 3.89777 8.55193 3.93797 8.47782 3.97573C8.26143 4.08599 8.0855 4.26192 7.97525 4.4783C7.93748 4.55242 7.89728 4.67507 7.87433 4.95601C7.85126 5.23835 7.84996 5.60414 7.84991 6.15039H16.1499ZM4.92713 7.88163C4.56281 7.9114 4.37841 7.96522 4.25082 8.03023C3.94035 8.18842 3.68793 8.44084 3.52974 8.75131C3.46473 8.8789 3.41091 9.0633 3.38114 9.42761C3.35056 9.80185 3.3499 10.2863 3.3499 11.0004V16.0004C3.3499 16.7145 3.35056 17.1989 3.38114 17.5732C3.41091 17.9375 3.46473 18.1219 3.52974 18.2495C3.68793 18.5599 3.94035 18.8124 4.25082 18.9706C4.37841 19.0356 4.56281 19.0894 4.92713 19.1192C5.30136 19.1497 5.78581 19.1504 6.4999 19.1504H17.4999C18.214 19.1504 18.6984 19.1497 19.0727 19.1192C19.437 19.0894 19.6214 19.0356 19.749 18.9706C20.0595 18.8124 20.3119 18.5599 20.4701 18.2495C20.5351 18.1219 20.5889 17.9375 20.6187 17.5732C20.6492 17.1989 20.6499 16.7145 20.6499 16.0004V11.0004C20.6499 10.2863 20.6492 9.80185 20.6187 9.42761C20.5889 9.0633 20.5351 8.8789 20.4701 8.75131C20.3119 8.44084 20.0595 8.18842 19.749 8.03023C19.6214 7.96522 19.437 7.9114 19.0727 7.88163C18.6984 7.85105 18.214 7.85039 17.4999 7.85039H6.4999C5.78581 7.85039 5.30136 7.85105 4.92713 7.88163Z" fill="#1A1A1A"/>
</svg>
