<svg width="24" height="24" viewBox="0 0 24 24" fill="none" xmlns="http://www.w3.org/2000/svg">
<path fill-rule="evenodd" clip-rule="evenodd" d="M7.1499 7.4999C7.1499 4.82132 9.32132 2.6499 11.9999 2.6499C14.6785 2.6499 16.8499 4.82132 16.8499 7.4999C16.8499 10.1785 14.6785 12.3499 11.9999 12.3499C9.32132 12.3499 7.1499 10.1785 7.1499 7.4999ZM11.9999 4.3499C10.2602 4.3499 8.8499 5.76021 8.8499 7.4999C8.8499 9.2396 10.2602 10.6499 11.9999 10.6499C13.7396 10.6499 15.1499 9.2396 15.1499 7.4999C15.1499 5.76021 13.7396 4.3499 11.9999 4.3499Z" fill="#1A1A1A"/>
<path d="M20.5598 13.8486C20.1681 13.2851 19.6241 12.8446 18.9914 12.5786C18.3587 12.3126 17.6634 12.2322 16.9867 12.3466C16.3099 12.4611 15.6798 12.7657 15.1697 13.225C14.6597 13.6842 14.2908 14.2791 14.1063 14.9402C13.9217 15.6012 13.929 16.3011 14.1274 16.9582C14.3258 17.6152 14.707 18.2023 15.2265 18.6507C15.5819 18.9575 16.1186 18.9181 16.4254 18.5627C16.7321 18.2073 16.6927 17.6706 16.3374 17.3638C16.062 17.1262 15.86 16.815 15.7548 16.4668C15.6497 16.1186 15.6458 15.7477 15.7436 15.3973C15.8414 15.047 16.0369 14.7317 16.3072 14.4883C16.5776 14.2449 16.9115 14.0835 17.2702 14.0228C17.6288 13.9622 17.9973 14.0048 18.3326 14.1458C18.668 14.2867 18.9562 14.5202 19.1638 14.8189C19.3714 15.1175 19.4898 15.4691 19.505 15.8325C19.5202 16.196 19.4317 16.5562 19.2499 16.8712C19.0151 17.2778 19.1544 17.7976 19.561 18.0323C19.9675 18.2671 20.4874 18.1278 20.7221 17.7212C21.0653 17.1268 21.2322 16.4471 21.2035 15.7614C21.1748 15.0756 20.9515 14.4122 20.5598 13.8486Z" fill="#1A1A1A"/>
<path d="M12.4441 19.8608C12.8358 20.4244 13.3798 20.8649 14.0125 21.1309C14.6452 21.3968 15.3405 21.4773 16.0172 21.3628C16.694 21.2484 17.3241 20.9437 17.8342 20.4845C18.3442 20.0252 18.7131 19.4303 18.8976 18.7693C19.0822 18.1082 19.0749 17.4083 18.8765 16.7513C18.6781 16.0942 18.2969 15.5072 17.7774 15.0587C17.422 14.752 16.8853 14.7914 16.5785 15.1468C16.2718 15.5021 16.3112 16.0389 16.6666 16.3456C16.9419 16.5833 17.1439 16.8944 17.2491 17.2426C17.3542 17.5909 17.3581 17.9618 17.2603 18.3121C17.1625 18.6625 16.967 18.9777 16.6967 19.2211C16.4264 19.4645 16.0924 19.626 15.7337 19.6866C15.3751 19.7473 15.0066 19.7047 14.6713 19.5637C14.3359 19.4228 14.0477 19.1893 13.8401 18.8906C13.6325 18.5919 13.5142 18.2403 13.4989 17.8769C13.4837 17.5135 13.5722 17.1533 13.754 16.8383C13.9888 16.4317 13.8495 15.9119 13.4429 15.6771C13.0364 15.4424 12.5165 15.5817 12.2818 15.9883C11.9386 16.5826 11.7717 17.2624 11.8004 17.9481C11.8292 18.6338 12.0524 19.2972 12.4441 19.8608Z" fill="#1A1A1A"/>
<path d="M8.99936 15.3499C6.70761 15.3499 4.85039 17.2077 4.85039 19.4999C4.85039 19.5827 4.91755 19.6499 5.00039 19.6499H10.0004C10.4698 19.6499 10.8504 20.0305 10.8504 20.4999C10.8504 20.9693 10.4698 21.3499 10.0004 21.3499H5.00039C3.97866 21.3499 3.15039 20.5216 3.15039 19.4999C3.15039 16.2693 5.76827 13.6499 8.99936 13.6499H10.0004C10.4698 13.6499 10.8504 14.0305 10.8504 14.4999C10.8504 14.9693 10.4698 15.3499 10.0004 15.3499H8.99936Z" fill="#1A1A1A"/>
</svg>
