<svg width="24" height="24" viewBox="0 0 24 24" fill="none" xmlns="http://www.w3.org/2000/svg">
<path d="M12 11C13.6569 11 15 10.5523 15 10C15 9.44772 13.6569 9 12 9C10.3431 9 9 9.44772 9 10C9 10.5523 10.3431 11 12 11Z" fill="#1A1A1A"/>
<path fill-rule="evenodd" clip-rule="evenodd" d="M3.98217 18.5882C4.38861 18.9827 4.84335 19.092 5.22339 19.0874C5.12126 19.2927 5.03526 19.5476 5.01293 19.8461C4.98058 20.2784 5.09114 20.6858 5.29626 21.0272C5.54848 21.4469 5.90266 21.6476 6.04754 21.7225C6.22601 21.8147 6.39499 21.8692 6.51259 21.9019C6.75146 21.9685 7.00572 22.0071 7.22471 22.0326C7.6767 22.0851 8.22982 22.1087 8.78239 22.1155C9.80016 22.1279 10.9754 22.0846 11.8303 22.0068C12.7063 22.1294 13.909 22.2055 14.9715 22.1995C15.5502 22.1961 16.1434 22.1684 16.649 22.0962C16.8985 22.0607 17.1787 22.0072 17.4459 21.9191C17.6484 21.8522 18.1339 21.6774 18.5039 21.2326L18.6466 21.0611L18.7402 20.8586C19.0713 20.1422 18.8956 19.5224 18.6712 19.1102C18.8455 19.1242 19.0399 19.115 19.2483 19.0649C19.8599 18.9179 20.2046 18.5072 20.3625 18.2531C20.5189 18.0015 20.5885 17.7585 20.6228 17.61C20.6932 17.3051 20.7034 16.9933 20.6993 16.7459C20.6904 16.2232 20.6065 15.5773 20.4652 14.8815C20.2022 13.5859 19.7036 11.9383 18.9224 10.2726C18.979 8.8735 18.7635 6.97472 17.88 5.30922C17.3708 4.34936 16.621 3.43476 15.5475 2.77534C14.467 2.1116 13.1564 1.76687 11.6292 1.80229C10.4609 1.82937 8.73929 2.22924 7.32241 3.64689C5.93235 5.03769 5.05338 7.18852 5.0502 10.2787C4.64718 11.2664 4.13789 12.6442 3.77663 13.9302C3.57676 14.6418 3.40439 15.387 3.33437 16.049C3.2995 16.3787 3.28342 16.7454 3.32401 17.1063C3.36133 17.4382 3.46621 17.9558 3.82893 18.4179L3.8998 18.5082L3.98217 18.5882ZM6.75347 10.609C6.37029 11.5191 5.84146 12.9116 5.46499 14.2089C5.40169 14.4271 5.34269 14.6426 5.28942 14.8526C5.22103 15.1222 5.16208 15.3829 5.11557 15.6288L5.10361 15.6932C5.04231 16.0298 5.00531 16.337 5.00056 16.5997C4.99432 16.9443 5.04357 17.212 5.16621 17.3683C5.17614 17.3779 5.18754 17.3841 5.20031 17.3871C5.30743 17.4118 5.5103 17.2095 5.73667 16.9206C5.86279 16.7596 5.99621 16.5717 6.12443 16.3811C6.18629 16.2892 6.24694 16.1966 6.30498 16.1061C6.41612 15.9329 6.51768 15.7674 6.59981 15.6288C6.59981 15.8335 6.6301 16.128 6.70938 16.47C6.78816 16.8099 6.91532 17.1968 7.1092 17.5893C7.14183 17.6553 7.17635 17.7216 7.21284 17.7877C7.38033 18.0914 7.58948 18.3943 7.84872 18.6773C7.95316 18.7913 8.06573 18.9021 8.18698 19.0084C8.14351 19.0217 8.09727 19.0365 8.04899 19.0529C7.52789 19.2292 6.76947 19.5776 6.71098 19.9488C6.70041 20.016 6.71271 20.0838 6.75341 20.1515C6.84243 20.2997 7.49946 20.3776 8.34582 20.4055C8.43377 20.4084 8.52376 20.4107 8.61537 20.4126C8.86681 20.4176 9.13046 20.4188 9.39752 20.4165C10.2957 20.4087 11.2325 20.3622 11.8738 20.2945C12.4637 20.389 13.3155 20.462 14.1672 20.4887C14.5965 20.5022 15.0258 20.5039 15.4216 20.4908C15.4757 20.489 15.5291 20.4869 15.5819 20.4845C15.9388 20.4686 16.2631 20.4395 16.5283 20.3948C16.645 20.3751 16.7502 20.3524 16.8417 20.3265C17.0132 20.2779 17.1366 20.218 17.1971 20.1454C17.2175 20.1011 17.2218 20.0554 17.2126 20.0088C17.1491 19.6877 16.4448 19.329 16.0066 19.155C15.8671 19.0996 15.7545 19.0629 15.6983 19.052C15.8035 18.987 15.9341 18.8842 16.0761 18.7425C16.2947 18.5244 16.5405 18.2144 16.7625 17.8087C16.7888 17.7608 16.8146 17.7115 16.8401 17.661C17.0128 17.3182 17.1665 16.9138 17.2752 16.4459C17.3312 16.2051 17.3752 15.9474 17.4038 15.6726C17.4841 15.8155 17.5877 15.9906 17.7034 16.1741C18.0479 16.7204 18.5007 17.3414 18.7717 17.4096C18.8003 17.4168 18.8268 17.4178 18.8509 17.412C18.9729 17.3827 19.0229 17.0676 18.9903 16.5525C18.977 16.3426 18.9499 16.0995 18.9084 15.8291C18.9028 15.7922 18.8969 15.7549 18.8907 15.7171C18.8506 15.472 18.7992 15.2062 18.736 14.9237C18.6916 14.7252 18.6414 14.5185 18.5851 14.3048C18.2927 13.194 17.8381 11.8974 17.1971 10.609C17.422 8.19199 16.6313 3.38673 11.6686 3.50183C9.96154 3.54141 6.63059 4.6847 6.75347 10.609ZM8.02029 20.9254C8.02029 20.9254 8.02444 20.9216 8.03492 20.9144C8.02589 20.9219 8.02029 20.9254 8.02029 20.9254Z" fill="#1A1A1A"/>
</svg>
