<svg width="24" height="24" viewBox="0 0 24 24" fill="none" xmlns="http://www.w3.org/2000/svg">
<path fill-rule="evenodd" clip-rule="evenodd" d="M5.46475 14.209C5.84121 12.9117 6.37005 11.5192 6.75323 10.6091C6.63035 4.68482 9.9613 3.54153 11.6683 3.50195C16.6311 3.38685 17.4218 8.19211 17.1968 10.6091C17.5947 11.4089 17.9208 12.2118 18.1809 12.9715C18.6886 12.6525 19.2896 12.5413 19.8623 12.6381C19.6114 11.879 19.2998 11.078 18.9222 10.2727C18.9787 8.87362 18.7633 6.97484 17.8797 5.30934C17.3706 4.34948 16.6207 3.43488 15.5473 2.77546C14.4667 2.11173 13.1562 1.76699 11.6289 1.80241C10.4606 1.82949 8.73905 2.22936 7.32216 3.64701C5.9321 5.03781 5.05314 7.18864 5.04995 10.2789C4.64694 11.2666 4.13765 12.6443 3.77638 13.9304C3.57651 14.6419 3.40415 15.3871 3.33413 16.0492C3.29926 16.3788 3.28318 16.7455 3.32376 17.1064C3.36109 17.4383 3.46597 17.9559 3.82868 18.418L3.89956 18.5083L3.98193 18.5883C4.38837 18.9828 4.84311 19.0922 5.22314 19.0875C5.12101 19.2928 5.03501 19.5477 5.01268 19.8462C4.98033 20.2785 5.09089 20.6859 5.29602 21.0273C5.54824 21.447 5.90241 21.6477 6.04729 21.7226C6.22577 21.8149 6.39475 21.8693 6.51235 21.9021C6.75121 21.9686 7.00547 22.0073 7.22447 22.0327C7.67646 22.0852 8.22958 22.1088 8.78214 22.1156C9.79991 22.1281 10.9752 22.0847 11.8301 22.0069C12.0323 22.0352 12.252 22.061 12.4833 22.0839C12.3186 21.7097 12.2659 21.2773 12.369 20.8306L12.4744 20.3739C12.2549 20.3499 12.0522 20.3232 11.8735 20.2946C11.2322 20.3623 10.2954 20.4089 9.39727 20.4166C9.13021 20.4189 8.86657 20.4177 8.61512 20.4127C8.52351 20.4109 8.43352 20.4085 8.34558 20.4056C7.49921 20.3777 6.84219 20.2998 6.75316 20.1517C6.71246 20.0839 6.70017 20.0161 6.71074 19.949C6.76922 19.5777 7.52764 19.2293 8.04874 19.053C8.09703 19.0367 8.14327 19.0218 8.18673 19.0085C8.06548 18.9022 7.95292 18.7915 7.84848 18.6774C7.58923 18.3944 7.38009 18.0915 7.21259 17.7878C7.1761 17.7217 7.14159 17.6555 7.10896 17.5894C6.91507 17.1969 6.78792 16.81 6.70914 16.4701C6.62985 16.1281 6.59956 15.8336 6.59956 15.6289C6.51743 15.7676 6.41587 15.9331 6.30473 16.1063C6.2467 16.1967 6.18604 16.2893 6.12418 16.3812C5.99596 16.5718 5.86255 16.7597 5.73643 16.9207C5.51005 17.2096 5.30719 17.4119 5.20007 17.3872C5.1873 17.3842 5.17589 17.3781 5.16597 17.3684C5.04332 17.2122 4.99408 16.9444 5.00032 16.5998C5.00507 16.3372 5.04207 16.0299 5.10336 15.6933L5.11533 15.6289C5.16184 15.383 5.22079 15.1223 5.28917 14.8527C5.34245 14.6427 5.40144 14.4272 5.46475 14.209Z" fill="#1A1A1A"/>
<path d="M20.311 14.0223C19.9601 13.6714 19.3913 13.6714 19.0404 14.0223L17.9144 15.1483L20.4556 17.6894L21.5815 16.5634C21.9324 16.2126 21.9324 15.6437 21.5815 15.2929L20.311 14.0223Z" fill="#1A1A1A"/>
<path d="M19.3756 18.7694L16.8344 16.2283L14.2674 18.7953C14.1484 18.9144 14.0651 19.0645 14.0273 19.2286L13.4845 21.5806C13.4099 21.9041 13.6998 22.194 14.0232 22.1193L16.3753 21.5766C16.5394 21.5387 16.6895 21.4555 16.8085 21.3364L19.3756 18.7694Z" fill="#1A1A1A"/>
</svg>
