<svg width="24" height="24" viewBox="0 0 24 24" fill="none" xmlns="http://www.w3.org/2000/svg">
<path d="M10 8.62695C10 8.21252 9.66443 7.87695 9.25 7.87695C8.83557 7.87695 8.5 8.21252 8.5 8.62695C8.5 9.04138 8.83557 9.37695 9.25 9.37695C9.66443 9.37695 10 9.04138 10 8.62695Z" fill="#1A1A1A"/>
<path d="M14.75 7.87695C14.3356 7.87695 14 8.21252 14 8.62695C14 9.04138 14.3356 9.37695 14.75 9.37695C15.1644 9.37695 15.5 9.04138 15.5 8.62695C15.5 8.21252 15.1644 7.87695 14.75 7.87695Z" fill="#1A1A1A"/>
<path fill-rule="evenodd" clip-rule="evenodd" d="M7.44881 3.06211C7.47461 3.53084 7.11553 3.93174 6.6468 3.95753C6.25315 3.97919 5.97833 4.04429 5.8049 4.12035L5.80386 4.1208C5.20675 4.38171 4.6304 5.04062 4.20403 6.37648C3.81887 7.5832 3.59356 9.23415 3.55578 11.3499H3.94719C3.95621 11.3499 3.96522 11.35 3.97423 11.3503C4.44872 11.3654 4.91487 11.4018 5.37046 11.457L5.36778 11.4073C5.33872 10.8476 5.34206 10.2069 5.35376 9.78259C5.36036 6.11821 8.3327 3.14993 11.9986 3.1499C13.0379 3.14984 14.6383 3.48305 16.0169 4.47487C17.4355 5.49547 18.5771 7.18744 18.6433 9.77306L18.6436 9.78394V12.0064C18.6436 12.6298 18.2168 13.1721 17.6109 13.3186L16.7816 13.5191L16.7798 13.5195C15.0695 13.9415 13.8643 14.6291 12.9946 15.3803C12.4226 15.8743 11.5824 15.8663 11.015 15.4002C9.61181 14.2475 7.00947 13.1507 3.93346 13.0499H3.56537C3.62316 14.9753 3.84362 16.4934 4.204 17.6221C4.63023 18.957 5.20644 19.6151 5.80386 19.8762L5.81107 19.8793C6.02523 19.9753 6.38666 20.0499 6.93381 20.0499C8.74246 20.0499 11.6385 19.2181 14.4723 17.8028C16.5024 16.7881 18.0256 15.7366 19.0292 14.7152C20.0394 13.687 20.4501 12.7677 20.4501 11.9985C20.4501 11.6006 20.343 11.1669 20.096 10.6922C19.8793 10.2758 20.0413 9.76251 20.4577 9.54582C20.8742 9.32914 21.3874 9.49107 21.6041 9.90751C21.9556 10.583 22.1501 11.2841 22.1501 11.9985C22.1501 13.3879 21.416 14.7117 20.2418 15.9066C19.0611 17.1083 17.3604 18.2598 15.2321 19.3236C12.2911 20.7924 9.11974 21.7499 6.93381 21.7499C6.26909 21.7499 5.63992 21.6646 5.11965 21.4324C3.88564 20.8916 3.0812 19.6946 2.58455 18.1392C2.08482 16.5741 1.8501 14.5112 1.8501 11.9985C1.8501 9.48796 2.08483 7.42513 2.58452 5.85957C3.08144 4.30269 3.88666 3.10355 5.1227 2.56323C5.54526 2.37803 6.03878 2.28841 6.5534 2.2601C7.02213 2.2343 7.42302 2.59338 7.44881 3.06211ZM7.50798 9.6864C7.50798 9.34623 7.54329 9.00162 7.61805 8.64009C7.62293 8.61649 7.62798 8.59281 7.6332 8.56907C7.90672 7.31461 8.68602 6.53876 9.47946 6.30717C9.81931 6.20797 10.1617 6.20862 10.4682 6.31427C11.3397 6.61122 11.6152 7.40644 11.4899 8.25702C11.4348 8.63449 11.2996 9.01197 11.0842 9.26362C10.7587 9.52031 10.6885 9.84292 10.8238 10.2048C10.9941 10.6678 11.4899 10.9849 12.0159 10.9849C12.5418 10.9849 13.0376 10.6678 13.2079 10.2048C13.3432 9.84292 13.2731 9.52031 12.9475 9.26362C12.7321 9.01197 12.5969 8.63449 12.5418 8.25702C12.4166 7.40644 12.692 6.61122 13.5636 6.31427C14.5853 5.96196 16.0078 6.77731 16.3985 8.56907C16.4837 8.95661 16.5237 9.32402 16.5237 9.6864C16.5237 9.77699 16.5237 9.87262 16.5187 9.96321C16.5099 10.5253 16.4663 11.0211 16.4218 11.5261L16.4035 11.7348L16.3913 11.8645L16.3783 11.8676L16.3746 11.8685C14.4785 12.3361 13.06 13.1073 11.9903 14.0028C10.9262 13.1579 9.4187 12.3951 7.64419 11.9052C7.63901 11.8479 7.6336 11.791 7.62819 11.7348L7.60992 11.5261C7.56546 11.0211 7.5218 10.5252 7.51299 9.96321C7.50798 9.87262 7.50798 9.777 7.50798 9.6864Z" fill="#1A1A1A"/>
</svg>
