<svg width="24" height="24" viewBox="0 0 24 24" fill="none" xmlns="http://www.w3.org/2000/svg">
<path fill-rule="evenodd" clip-rule="evenodd" d="M4.40605 19.3659L4.96061 15.1436L1.99987 12.0498C0.640344 10.6291 1.41123 8.28521 3.35634 7.92535L7.59236 7.14166L9.6558 3.40375C10.6033 1.68736 13.0979 1.68736 14.0454 3.40375L16.1089 7.14166L20.3449 7.92535C22.29 8.28521 23.0609 10.6291 21.7014 12.0498L18.7406 15.1436L19.2952 19.3659C19.5498 21.3047 17.5316 22.7533 15.7439 21.9149L11.8506 20.0891L7.95734 21.9149C6.16961 22.7533 4.1514 21.3047 4.40605 19.3659ZM16.4729 20.3977L11.8506 18.23L7.22833 20.3977C6.65625 20.666 6.01043 20.2024 6.09192 19.582L6.75032 14.5691L3.23518 10.896C2.80014 10.4414 3.04682 9.6913 3.66926 9.57615L8.69846 8.64571L11.1483 4.20788C11.4515 3.65863 12.2498 3.65863 12.553 4.20788L15.0028 8.64571L20.032 9.57615C20.6544 9.6913 20.9011 10.4414 20.466 10.896L16.9509 14.5691L16.961 14.6457C16.7044 14.6477 16.4208 14.6447 16.1197 14.635C14.7666 14.5916 13.061 14.414 11.8774 13.9592C11.7782 13.9211 11.7446 13.812 11.8361 13.7415C12.1292 13.5156 12.628 13.1545 13.1779 12.7563C14.0878 12.0976 15.1376 11.3376 15.627 10.9212C15.7801 10.791 15.8205 10.621 15.6343 10.4829C15.2774 10.2179 14.0176 9.77889 12.559 9.7669C10.4717 9.74984 8.42114 10.3406 7.5216 10.8188C7.3081 10.9323 7.43623 11.2314 7.65439 11.1979C10.8468 10.7071 12.9321 11.4459 13.0206 11.522C13.0838 11.5764 13.0803 11.6563 13.0109 11.7109C13.0025 11.7175 12.9197 11.7775 12.7803 11.8785C11.9301 12.4945 8.97578 14.635 7.99098 15.4661C7.81048 15.6185 7.85791 15.9376 8.15328 15.9915C8.42841 16.0417 8.9193 16.0967 9.4127 16.1137C12.6033 16.2232 15.3313 15.6608 17.0255 15.1369L17.6093 19.582C17.6908 20.2024 17.045 20.666 16.4729 20.3977Z" fill="#1A1A1A"/>
</svg>
