<svg width="24" height="24" viewBox="0 0 24 24" fill="none" xmlns="http://www.w3.org/2000/svg">
<path d="M16.7255 3.15039C17.2119 3.15047 17.6805 3.33398 18.037 3.66504L21.6464 7.01855C22.1276 7.46573 22.3483 8.12697 22.2313 8.77344L20.3964 18.9092C20.091 20.5951 18.6234 21.8211 16.91 21.8213H13.7499C12.8759 21.8212 12.2197 21.0237 12.3876 20.166L13.9794 12.0391L16.3973 12.0361L12.6864 8.33105L12.1796 10.5459L7.98426 10.5547L9.36707 12.0381H11.9657L10.2714 20.6992C10.1438 21.351 9.57227 21.8213 8.90809 21.8213H5.22937C3.01769 21.8213 1.34643 19.8174 1.74305 17.6416L3.85437 6.05859C4.1614 4.37424 5.62859 3.15039 7.3407 3.15039H16.7255ZM7.3407 4.84961C6.4499 4.84961 5.686 5.48691 5.52625 6.36328L3.41492 17.9473C3.20885 19.0792 4.07877 20.1211 5.22937 20.1211H8.65223L9.90125 13.7383H9.09168C8.79618 13.7383 8.51391 13.6155 8.31238 13.3994L5.74988 10.6504C5.11561 9.97001 5.59619 8.86064 6.52625 8.8584L10.8241 8.84863L11.286 6.83594L11.3309 6.68848C11.5985 5.98663 12.5217 5.76528 13.077 6.31934L18.6825 11.915C19.3542 12.5857 18.8797 13.7344 17.9305 13.7354L15.3778 13.7373L14.1278 20.1211H16.91C17.8015 20.1209 18.5657 19.4827 18.7245 18.6055L20.5585 8.4707C20.5722 8.39443 20.5459 8.31643 20.4891 8.26367L16.8798 4.91113C16.8378 4.8721 16.7828 4.84969 16.7255 4.84961H7.3407Z" fill="#1A1A1A"/>
</svg>
