<svg width="24" height="24" viewBox="0 0 24 24" fill="none" xmlns="http://www.w3.org/2000/svg">
<path fill-rule="evenodd" clip-rule="evenodd" d="M5.46475 14.2099C5.84121 12.9126 6.37005 11.5201 6.75323 10.61C6.63035 4.68568 9.9613 3.54238 11.6683 3.50281C16.6311 3.38771 17.4218 8.19297 17.1968 10.61C17.5172 11.2539 17.7911 11.9 18.0213 12.5238C18.3849 12.4889 18.7528 12.4937 19.1186 12.5393C19.3773 12.5716 19.6322 12.6239 19.8809 12.6954C19.6268 11.9196 19.3092 11.0988 18.9222 10.2736C18.9787 8.87448 18.7633 6.9757 17.8797 5.3102C17.3706 4.35034 16.6207 3.43573 15.5473 2.77632C14.4667 2.11258 13.1562 1.76784 11.6289 1.80326C10.4606 1.83035 8.73905 2.23022 7.32216 3.64786C5.9321 5.03866 5.05314 7.18949 5.04995 10.2797C4.64694 11.2674 4.13765 12.6452 3.77638 13.9312C3.57651 14.6427 3.40415 15.388 3.33413 16.05C3.29926 16.3797 3.28318 16.7464 3.32376 17.1072C3.36109 17.4392 3.46597 17.9568 3.82868 18.4189L3.89956 18.5092L3.98193 18.5891C4.38837 18.9836 4.84311 19.093 5.22314 19.0884C5.12101 19.2937 5.03501 19.5486 5.01268 19.847C4.98033 20.2794 5.09089 20.6868 5.29602 21.0281C5.54824 21.4479 5.90241 21.6486 6.04729 21.7235C6.22577 21.8157 6.39475 21.8701 6.51235 21.9029C6.75121 21.9695 7.00547 22.0081 7.22447 22.0336C7.67646 22.0861 8.22958 22.1097 8.78214 22.1164C9.79991 22.1289 10.9752 22.0855 11.8301 22.0078C12.2146 22.0616 12.6621 22.1064 13.133 22.1393C12.684 21.9586 12.2615 21.7129 11.8798 21.408C11.5051 21.1089 11.1773 20.7588 10.9048 20.3699C10.4307 20.3961 9.90775 20.413 9.39727 20.4174C9.13021 20.4197 8.86657 20.4186 8.61512 20.4136C8.52351 20.4117 8.43352 20.4094 8.34558 20.4065C7.49921 20.3786 6.84219 20.3007 6.75316 20.1525C6.71246 20.0848 6.70017 20.0169 6.71074 19.9498C6.76922 19.5785 7.52764 19.2301 8.04874 19.0539C8.09703 19.0375 8.14327 19.0227 8.18673 19.0094C8.06548 18.9031 7.95292 18.7923 7.84848 18.6783C7.58923 18.3953 7.38009 18.0924 7.21259 17.7887C7.1761 17.7225 7.14159 17.6563 7.10896 17.5903C6.91507 17.1978 6.78792 16.8109 6.70914 16.471C6.62985 16.1289 6.59956 15.8345 6.59956 15.6298C6.51743 15.7684 6.41587 15.9339 6.30473 16.1071C6.2467 16.1976 6.18604 16.2901 6.12418 16.3821C5.99596 16.5726 5.86255 16.7606 5.73643 16.9215C5.51005 17.2105 5.30719 17.4128 5.20007 17.388C5.1873 17.3851 5.17589 17.3789 5.16597 17.3693C5.04332 17.213 4.99408 16.9453 5.00032 16.6007C5.00507 16.338 5.04207 16.0307 5.10336 15.6942L5.11533 15.6298C5.16184 15.3839 5.22079 15.1232 5.28917 14.8536C5.34245 14.6435 5.40144 14.4281 5.46475 14.2099ZM8.02004 20.9263C8.02004 20.9263 8.02419 20.9225 8.03468 20.9154C8.02564 20.9228 8.02004 20.9263 8.02004 20.9263Z" fill="#1A1A1A"/>
<path d="M14.9707 14.3824C15.0936 14.835 14.8313 15.3029 14.3848 15.4275C14.0077 15.5328 13.6667 15.7417 13.3994 16.0312C13.1321 16.3206 12.949 16.6794 12.8703 17.0678C12.7915 17.4562 12.8203 17.8591 12.9534 18.2319C13.0865 18.6048 13.3187 18.9331 13.6243 19.1805C13.93 19.4279 14.2971 19.5848 14.6853 19.6339C15.0734 19.683 15.4674 19.6223 15.8236 19.4585C16.1798 19.2948 16.4844 19.0344 16.7038 18.7061C16.9231 18.3778 17.0486 17.9944 17.0664 17.5983C17.0875 17.1293 17.4796 16.7665 17.9422 16.7879C18.4048 16.8092 18.7627 17.2067 18.7416 17.6757C18.7098 18.385 18.485 19.0715 18.0923 19.6594C17.6995 20.2473 17.154 20.7136 16.5161 21.0068C15.8782 21.3 15.1728 21.4087 14.4777 21.3208C13.7827 21.233 13.1252 20.952 12.5779 20.5089C12.0306 20.0659 11.6148 19.478 11.3765 18.8103C11.1382 18.1427 11.0866 17.4212 11.2276 16.7257C11.3685 16.0302 11.6965 15.3878 12.1751 14.8694C12.6538 14.351 13.2645 13.977 13.9398 13.7885C14.3862 13.6639 14.8478 13.9298 14.9707 14.3824Z" fill="#1A1A1A"/>
<path d="M19.0109 19.5725C18.5644 19.6971 18.3021 20.165 18.425 20.6176C18.5479 21.0702 19.0095 21.3361 19.4559 21.2115C20.1312 21.023 20.742 20.649 21.2206 20.1306C21.6993 19.6122 22.0272 18.9698 22.1681 18.2743C22.3091 17.5788 22.2575 16.8573 22.0192 16.1897C21.7809 15.522 21.3651 14.9341 20.8178 14.4911C20.2705 14.048 19.613 13.767 18.918 13.6792C18.223 13.5913 17.5175 13.7 16.8796 13.9932C16.2417 14.2864 15.6962 14.7527 15.3035 15.3406C14.9107 15.9285 14.686 16.615 14.6541 17.3243C14.633 17.7933 14.9909 18.1908 15.4535 18.2121C15.9161 18.2335 16.3082 17.8707 16.3293 17.4017C16.3471 17.0056 16.4726 16.6222 16.692 16.2939C16.9113 15.9656 17.2159 15.7052 17.5721 15.5415C17.9284 15.3777 18.3223 15.317 18.7104 15.3661C19.0986 15.4152 19.4658 15.5721 19.7714 15.8195C20.077 16.0669 20.3092 16.3952 20.4423 16.7681C20.5754 17.1409 20.6042 17.5438 20.5255 17.9322C20.4468 18.3206 20.2636 18.6794 19.9963 18.9688C19.729 19.2583 19.388 19.4672 19.0109 19.5725Z" fill="#1A1A1A"/>
</svg>
