<svg width="24" height="24" viewBox="0 0 24 24" fill="none" xmlns="http://www.w3.org/2000/svg">
<path fill-rule="evenodd" clip-rule="evenodd" d="M5.46478 14.2091C5.84125 12.9118 6.37009 11.5193 6.75328 10.6092C6.6304 4.68494 9.9614 3.54165 11.6685 3.50207C16.6312 3.38697 17.422 8.19222 17.197 10.6092C17.4586 11.1349 17.6891 11.6619 17.8902 12.1771C18.7082 12.3901 19.4522 12.7867 20.0754 13.3202C19.7957 12.3675 19.4153 11.3238 18.9224 10.2728C18.9789 8.87373 18.7635 6.97495 17.88 5.30946C17.3708 4.3496 16.6209 3.435 15.5474 2.77558C14.4669 2.11185 13.1563 1.76711 11.6291 1.80253C10.4607 1.82962 8.73913 2.22948 7.32222 3.64713C5.93214 5.03793 5.05316 7.18875 5.04998 10.279C4.64696 11.2667 4.13766 12.6444 3.77639 13.9305C3.57652 14.642 3.40415 15.3872 3.33413 16.0492C3.29926 16.3789 3.28318 16.7456 3.32376 17.1065C3.36109 17.4384 3.46597 17.956 3.82869 18.4181L3.89956 18.5084L3.98194 18.5884C4.38838 18.9829 4.84313 19.0923 5.22317 19.0876C5.12104 19.2929 5.03504 19.5478 5.01271 19.8463C4.98036 20.2786 5.09092 20.686 5.29604 21.0274C5.54827 21.4471 5.90245 21.6478 6.04733 21.7227C6.22581 21.8149 6.39479 21.8694 6.5124 21.9021C6.75126 21.9687 7.00553 22.0074 7.22452 22.0328C7.67652 22.0853 8.22965 22.1089 8.78222 22.1157C9.80001 22.1281 10.9753 22.0848 11.8302 22.007C12.3368 22.0779 12.9526 22.1332 13.5874 22.1662C12.8428 21.7003 12.2177 21.0612 11.7685 20.3053C11.1325 20.3672 10.2476 20.4094 9.39736 20.4167C9.1303 20.419 8.86665 20.4178 8.6152 20.4128C8.52359 20.4109 8.4336 20.4086 8.34565 20.4057C7.49927 20.3778 6.84224 20.2999 6.75321 20.1517C6.71251 20.084 6.70022 20.0162 6.71079 19.9491C6.76927 19.5778 7.5277 19.2294 8.04881 19.0531C8.0971 19.0368 8.14334 19.0219 8.1868 19.0086C8.06555 18.9023 7.95298 18.7915 7.84855 18.6775C7.58929 18.3945 7.38015 18.0916 7.21265 17.7879C7.17616 17.7218 7.14164 17.6556 7.10901 17.5895C6.91512 17.197 6.78797 16.8101 6.70918 16.4702C6.6299 16.1282 6.59961 15.8337 6.59961 15.629C6.51748 15.7677 6.41592 15.9332 6.30478 16.1064C6.24674 16.1968 6.18609 16.2894 6.12423 16.3813C5.996 16.5719 5.86258 16.7598 5.73646 16.9208C5.51008 17.2097 5.30722 17.412 5.2001 17.3873C5.18733 17.3843 5.17592 17.3782 5.16599 17.3685C5.04335 17.2123 4.9941 16.9445 5.00034 16.5999C5.0051 16.3373 5.04209 16.03 5.10339 15.6934L5.11535 15.629C5.16187 15.3831 5.22082 15.1224 5.2892 14.8528C5.34247 14.6428 5.40147 14.4273 5.46478 14.2091Z" fill="#1A1A1A"/>
<path fill-rule="evenodd" clip-rule="evenodd" d="M16.5 21.5C18.7091 21.5 20.5 19.7091 20.5 17.5C20.5 15.2909 18.7091 13.5 16.5 13.5C14.2909 13.5 12.5 15.2909 12.5 17.5C12.5 19.7091 14.2909 21.5 16.5 21.5ZM16.5002 16.24C17.1961 16.24 17.7602 16.8041 17.7602 17.5C17.7602 18.1959 17.1961 18.76 16.5002 18.76C15.8044 18.76 15.2402 18.1959 15.2402 17.5C15.2402 16.8041 15.8044 16.24 16.5002 16.24Z" fill="#1A1A1A"/>
</svg>
