<svg width="24" height="24" viewBox="0 0 24 24" fill="none" xmlns="http://www.w3.org/2000/svg">
<path fill-rule="evenodd" clip-rule="evenodd" d="M16.6661 3.15039H16.8337C17.3649 3.15038 17.8144 3.15037 18.1827 3.18046C18.5688 3.21201 18.9401 3.2808 19.2938 3.46102C19.83 3.73426 20.266 4.17026 20.5393 4.70652C20.7195 5.06023 20.7883 5.43151 20.8198 5.81758C20.8499 6.18594 20.8499 6.63533 20.8499 7.1666V7.33419C20.8499 7.86545 20.8499 8.31485 20.8198 8.68321C20.7883 9.06927 20.7195 9.44056 20.5393 9.79427C20.266 10.3305 19.83 10.7665 19.2938 11.0398C18.9401 11.22 18.5688 11.2888 18.1827 11.3203C17.8144 11.3504 17.365 11.3504 16.8337 11.3504H16.6661C16.1349 11.3504 15.6854 11.3504 15.3171 11.3203C14.931 11.2888 14.5597 11.22 14.206 11.0398C13.6698 10.7665 13.2338 10.3305 12.9605 9.79427C12.7803 9.44056 12.7115 9.06927 12.68 8.68321C12.6499 8.31485 12.6499 7.86545 12.6499 7.33419V7.16661C12.6499 6.63535 12.6499 6.18594 12.68 5.81758C12.7115 5.43151 12.7803 5.06023 12.9605 4.70652C13.2338 4.17026 13.6698 3.73426 14.206 3.46102C14.5597 3.2808 14.931 3.21201 15.3171 3.18046C15.6854 3.15037 16.1349 3.15038 16.6661 3.15039ZM15.4555 4.87482C15.1746 4.89777 15.0519 4.93797 14.9778 4.97573C14.7614 5.08599 14.5855 5.26192 14.4752 5.4783C14.4375 5.55242 14.3973 5.67507 14.3743 5.95601C14.3506 6.24688 14.3499 6.62631 14.3499 7.20039V7.30039C14.3499 7.87447 14.3506 8.25391 14.3743 8.54477C14.3973 8.82571 14.4375 8.94837 14.4752 9.02248C14.5855 9.23887 14.7614 9.4148 14.9778 9.52505C15.0519 9.56281 15.1746 9.60301 15.4555 9.62597C15.7464 9.64973 16.1258 9.65039 16.6999 9.65039H16.7999C17.374 9.65039 17.7534 9.64973 18.0443 9.62597C18.3252 9.60301 18.4479 9.56281 18.522 9.52505C18.7384 9.4148 18.9143 9.23887 19.0246 9.02248C19.0623 8.94837 19.1025 8.82571 19.1255 8.54477C19.1492 8.25391 19.1499 7.87447 19.1499 7.30039V7.20039C19.1499 6.62631 19.1492 6.24688 19.1255 5.95601C19.1025 5.67507 19.0623 5.55242 19.0246 5.4783C18.9143 5.26192 18.7384 5.08599 18.522 4.97573C18.4479 4.93797 18.3252 4.89777 18.0443 4.87482C17.7534 4.85105 17.374 4.85039 16.7999 4.85039H16.6999C16.1258 4.85039 15.7464 4.85105 15.4555 4.87482Z" fill="#1A1A1A"/>
<path fill-rule="evenodd" clip-rule="evenodd" d="M7.33369 3.15039H7.16612C6.63487 3.15038 6.18545 3.15037 5.81709 3.18046C5.43102 3.21201 5.05974 3.2808 4.70603 3.46102C4.16977 3.73426 3.73377 4.17026 3.46054 4.70652C3.28031 5.06023 3.21152 5.43151 3.17998 5.81758C3.14988 6.18594 3.14989 6.63532 3.1499 7.16658V7.33418C3.14989 7.86543 3.14988 8.31485 3.17998 8.68321C3.21152 9.06927 3.28031 9.44056 3.46054 9.79427C3.73377 10.3305 4.16977 10.7665 4.70603 11.0398C5.05974 11.22 5.43102 11.2888 5.81709 11.3203C6.18545 11.3504 6.63483 11.3504 7.16608 11.3504H7.3337C7.86495 11.3504 8.31436 11.3504 8.68272 11.3203C9.06879 11.2888 9.44007 11.22 9.79378 11.0398C10.33 10.7665 10.766 10.3305 11.0393 9.79427C11.2195 9.44056 11.2883 9.06927 11.3198 8.68321C11.3499 8.31485 11.3499 7.86547 11.3499 7.33422V7.1666C11.3499 6.63535 11.3499 6.18593 11.3198 5.81758C11.2883 5.43151 11.2195 5.06023 11.0393 4.70652C10.766 4.17026 10.33 3.73426 9.79378 3.46102C9.44007 3.2808 9.06879 3.21201 8.68272 3.18046C8.31436 3.15037 7.86494 3.15038 7.33369 3.15039ZM5.47781 4.97573C5.55193 4.93797 5.67459 4.89777 5.95552 4.87482C6.24639 4.85105 6.62583 4.85039 7.1999 4.85039H7.2999C7.87398 4.85039 8.25342 4.85105 8.54428 4.87482C8.82522 4.89777 8.94788 4.93797 9.02199 4.97573C9.23838 5.08599 9.41431 5.26192 9.52456 5.4783C9.56232 5.55242 9.60253 5.67507 9.62548 5.95601C9.64924 6.24688 9.6499 6.62631 9.6499 7.20039V7.30039C9.6499 7.87447 9.64924 8.25391 9.62548 8.54477C9.60253 8.82571 9.56232 8.94837 9.52456 9.02248C9.41431 9.23887 9.23838 9.4148 9.02199 9.52505C8.94788 9.56281 8.82522 9.60301 8.54428 9.62597C8.25342 9.64973 7.87398 9.65039 7.2999 9.65039H7.1999C6.62583 9.65039 6.24639 9.64973 5.95552 9.62597C5.67459 9.60301 5.55193 9.56281 5.47781 9.52505C5.26143 9.4148 5.0855 9.23887 4.97525 9.02248C4.93748 8.94837 4.89728 8.82571 4.87433 8.54477C4.85057 8.25391 4.8499 7.87447 4.8499 7.30039V7.20039C4.8499 6.62631 4.85057 6.24688 4.87433 5.95601C4.89728 5.67507 4.93748 5.55242 4.97525 5.4783C5.0855 5.26192 5.26143 5.08599 5.47781 4.97573Z" fill="#1A1A1A"/>
<path fill-rule="evenodd" clip-rule="evenodd" d="M7.33369 12.6504H7.16612C6.63486 12.6504 6.18545 12.6504 5.81709 12.6805C5.43102 12.712 5.05974 12.7808 4.70603 12.961C4.16977 13.2343 3.73377 13.6703 3.46054 14.2065C3.28031 14.5602 3.21152 14.9315 3.17998 15.3176C3.14988 15.6859 3.14989 16.1353 3.1499 16.6666V16.8342C3.14989 17.3654 3.14988 17.8149 3.17998 18.1832C3.21152 18.5693 3.28031 18.9406 3.46054 19.2943C3.73377 19.8305 4.16977 20.2665 4.70603 20.5398C5.05974 20.72 5.43102 20.7888 5.81709 20.8203C6.18545 20.8504 6.63484 20.8504 7.16611 20.8504H7.3337C7.86496 20.8504 8.31436 20.8504 8.68272 20.8203C9.06879 20.7888 9.44007 20.72 9.79378 20.5398C10.33 20.2665 10.766 19.8305 11.0393 19.2943C11.2195 18.9406 11.2883 18.5693 11.3198 18.1832C11.3499 17.8149 11.3499 17.3655 11.3499 16.8342V16.6666C11.3499 16.1353 11.3499 15.6859 11.3198 15.3176C11.2883 14.9315 11.2195 14.5602 11.0393 14.2065C10.766 13.6703 10.33 13.2343 9.79378 12.961C9.44007 12.7808 9.06879 12.712 8.68272 12.6805C8.31436 12.6504 7.86494 12.6504 7.33369 12.6504ZM5.47781 14.4757C5.55193 14.438 5.67459 14.3978 5.95552 14.3748C6.24639 14.3511 6.62583 14.3504 7.1999 14.3504H7.2999C7.87398 14.3504 8.25342 14.3511 8.54428 14.3748C8.82522 14.3978 8.94788 14.438 9.02199 14.4757C9.23838 14.586 9.41431 14.7619 9.52456 14.9783C9.56232 15.0524 9.60253 15.1751 9.62548 15.456C9.64924 15.7469 9.6499 16.1263 9.6499 16.7004V16.8004C9.6499 17.3745 9.64924 17.7539 9.62548 18.0448C9.60253 18.3257 9.56232 18.4484 9.52456 18.5225C9.41431 18.7389 9.23838 18.9148 9.02199 19.0251C8.94788 19.0628 8.82522 19.103 8.54428 19.126C8.25342 19.1497 7.87398 19.1504 7.2999 19.1504H7.1999C6.62583 19.1504 6.24639 19.1497 5.95552 19.126C5.67459 19.103 5.55193 19.0628 5.47781 19.0251C5.26143 18.9148 5.0855 18.7389 4.97525 18.5225C4.93748 18.4484 4.89728 18.3257 4.87433 18.0448C4.85057 17.7539 4.8499 17.3745 4.8499 16.8004V16.7004C4.8499 16.1263 4.85057 15.7469 4.87433 15.456C4.89728 15.1751 4.93748 15.0524 4.97525 14.9783C5.0855 14.7619 5.26143 14.586 5.47781 14.4757Z" fill="#1A1A1A"/>
<path d="M15.4999 14.5C15.4999 15.0523 15.0522 15.5 14.4999 15.5H13.4999C12.9476 15.5 12.4999 15.0523 12.4999 14.5V13.5C12.4999 12.9477 12.9476 12.5 13.4999 12.5H14.4999C15.0522 12.5 15.4999 12.9477 15.4999 13.5V14.5Z" fill="#1A1A1A"/>
<path d="M17.9999 17C17.9999 17.5523 17.5522 18 16.9999 18H15.9999C15.4476 18 14.9999 17.5523 14.9999 17V16C14.9999 15.4477 15.4476 15 15.9999 15H16.9999C17.5522 15 17.9999 15.4477 17.9999 16V17Z" fill="#1A1A1A"/>
<path d="M14.4999 20.5C15.0522 20.5 15.4999 20.0523 15.4999 19.5V18.5C15.4999 17.9477 15.0522 17.5 14.4999 17.5H13.4999C12.9476 17.5 12.4999 17.9477 12.4999 18.5V19.5C12.4999 20.0523 12.9476 20.5 13.4999 20.5H14.4999Z" fill="#1A1A1A"/>
<path d="M20.4999 14.5C20.4999 15.0523 20.0522 15.5 19.4999 15.5H18.4999C17.9476 15.5 17.4999 15.0523 17.4999 14.5V13.5C17.4999 12.9477 17.9476 12.5 18.4999 12.5H19.4999C20.0522 12.5 20.4999 12.9477 20.4999 13.5V14.5Z" fill="#1A1A1A"/>
<path d="M19.4999 20.5C20.0522 20.5 20.4999 20.0523 20.4999 19.5V18.5C20.4999 17.9477 20.0522 17.5 19.4999 17.5H18.4999C17.9476 17.5 17.4999 17.9477 17.4999 18.5V19.5C17.4999 20.0523 17.9476 20.5 18.4999 20.5H19.4999Z" fill="#1A1A1A"/>
</svg>
