<svg width="24" height="24" viewBox="0 0 24 24" fill="none" xmlns="http://www.w3.org/2000/svg">
<path d="M20.049 12.0003C20.049 10.3322 19.5102 8.74695 18.6017 7.4198L20.1532 6.4246C21.225 8.01757 21.8506 9.93586 21.8506 12.0003C21.8506 17.5231 17.3734 22.0003 11.8506 22.0003C6.32774 22.0003 1.85059 17.5231 1.85059 12.0003C1.85059 9.82514 2.54503 7.81223 3.7243 6.17114C3.58226 5.24939 3.57541 4.33599 3.70338 3.43114C3.71211 3.36937 3.72661 3.30855 3.74668 3.24948C3.91589 2.75145 4.43909 2.47387 4.94026 2.60204L5.16898 2.6726C5.63388 2.80669 6.13128 2.84446 6.66117 2.78591C7.10198 2.7372 7.51544 2.65633 7.9559 2.5602L8.74759 2.38359L9.1823 2.28999C9.33279 2.25859 9.48929 2.22712 9.65306 2.19599C10.381 2.05762 11.0406 1.99069 11.6321 1.99521L11.8506 2.00025L11.8507 2.00557C14.9103 2.13655 17.3505 4.65841 17.3505 7.75023C17.3505 7.79851 17.3499 7.84667 17.3488 7.89467C17.3499 7.9406 17.3505 7.98667 17.3505 8.03288C17.3505 9.22667 17.0227 10.2936 16.4395 11.1467C15.7907 10.6933 15.0395 10.3777 14.2275 10.2417L14.039 10.2136L14.0468 10.3427C14.1094 11.179 14.3608 11.9628 14.7583 12.6516C14.191 12.9533 13.5465 13.1495 12.8422 13.2197C12.8411 13.2165 12.8399 13.2132 12.8388 13.2099C12.6382 13.2365 12.4335 13.2502 12.2256 13.2502C10.329 13.2502 8.699 12.1086 7.98535 10.475L9.45873 9.66516C9.87946 10.7841 10.9595 11.5803 12.2256 11.5803C12.3584 11.5803 12.4892 11.5716 12.6174 11.5546C12.7296 9.76781 13.9414 8.27931 15.5838 7.75795L15.5839 7.73359C15.5839 5.61411 13.9355 3.87964 11.8507 3.74235V3.74506H11.8275L11.6026 3.73987C11.1721 3.73774 10.65 3.7871 10.0266 3.90562C9.87827 3.93381 9.73559 3.96246 9.59698 3.99135L9.17583 4.08203L8.38686 4.25803L8.38237 4.25901C7.91872 4.3602 7.42546 4.45844 6.88083 4.51862C6.45663 4.56549 5.90638 4.57077 5.48628 4.52954C5.48925 4.88683 5.51856 5.50237 5.57468 5.86655L5.69916 6.67443L5.22216 7.33823C4.27915 8.65055 3.7243 10.2576 3.7243 12.0003C3.7243 16.4185 7.43231 20.1545 11.8506 20.1545C16.2689 20.1545 20.049 16.4185 20.049 12.0003Z" fill="#1A1A1A"/>
<path d="M11.8506 8.00024C12.4029 8.00024 12.8506 7.55253 12.8506 7.00024C12.8506 6.44796 12.4029 6.00024 11.8506 6.00024C11.2983 6.00024 10.8506 6.44796 10.8506 7.00024C10.8506 7.55253 11.2983 8.00024 11.8506 8.00024Z" fill="#1A1A1A"/>
<path d="M15.7376 12.8908C16.6553 12.276 17.8975 12.5215 18.5122 13.4392C18.9019 14.0208 18.9455 14.7325 18.6919 15.3326C18.4328 15.58 18.1491 15.8089 17.8415 16.0151C17.5266 16.2261 17.1995 16.4048 16.8644 16.5521C16.2156 16.5561 15.5772 16.245 15.1892 15.6655C14.5745 14.7478 14.8199 13.5055 15.7376 12.8908Z" fill="#1A1A1A"/>
</svg>
