<svg width="24" height="24" viewBox="0 0 24 24" fill="none" xmlns="http://www.w3.org/2000/svg">
<path d="M13.2297 8.49553C13.5034 8.11413 13.4161 7.58307 13.0347 7.30938C12.6533 7.03568 12.1223 7.123 11.8486 7.5044L8.80932 11.7397C8.62349 11.9987 8.59815 12.3398 8.74369 12.6234C8.88922 12.9069 9.18117 13.0853 9.49991 13.0853H12.9357L11.3455 15.5375C11.0901 15.9314 11.2024 16.4577 11.5963 16.7132C11.9902 16.9686 12.5165 16.8563 12.7719 16.4624L15.2131 12.6977C15.3826 12.4363 15.3955 12.1032 15.2468 11.8294C15.098 11.5557 14.8114 11.3853 14.4999 11.3853H11.1561L13.2297 8.49553Z" fill="#1A1A1A"/>
<path fill-rule="evenodd" clip-rule="evenodd" d="M12 22C14.0381 22 15.9338 21.3903 17.5146 20.3433L20.6182 20.845C21.4038 20.972 22.0831 20.2926 21.9561 19.5071L21.3269 15.6143C21.7616 14.4934 22 13.2745 22 12C22 6.47715 17.5228 2 12 2C6.47715 2 2 6.47715 2 12C2 17.5228 6.47715 22 12 22ZM19.7419 14.9997C19.6326 15.2815 19.6004 15.5873 19.6487 15.8856L20.16 19.0489L17.7859 18.6651C17.3641 18.5969 16.9321 18.6901 16.5759 18.926C15.2648 19.7943 13.6941 20.3 12 20.3C7.41604 20.3 3.7 16.584 3.7 12C3.7 7.41604 7.41604 3.7 12 3.7C16.584 3.7 20.3 7.41604 20.3 12C20.3 13.061 20.1018 14.0716 19.7419 14.9997Z" fill="#1A1A1A"/>
</svg>
