<svg width="24" height="24" viewBox="0 0 24 24" fill="none" xmlns="http://www.w3.org/2000/svg">
<path fill-rule="evenodd" clip-rule="evenodd" d="M17.0925 3.85C17.6414 3.85 17.8064 3.85316 17.9294 3.87436C18.6215 3.99362 19.1634 4.53114 19.2837 5.21753C19.3051 5.33951 19.3083 5.5032 19.3083 6.04762V6.29577V11V17C19.3083 17.7141 19.3076 18.1985 19.2768 18.5728C19.2468 18.9371 19.1925 19.1215 19.1269 19.2491C18.9674 19.5596 18.7129 19.812 18.3999 19.9702C18.2713 20.0352 18.0853 20.089 17.718 20.1188C17.3407 20.1493 16.8522 20.15 16.1322 20.15H9.57851H8.06611C7.34612 20.15 6.85766 20.1493 6.48033 20.1188C6.11301 20.089 5.92708 20.0352 5.79844 19.9702C5.4854 19.812 5.2309 19.5596 5.0714 19.2491C5.00585 19.1215 4.95158 18.9371 4.92157 18.5728C4.89074 18.1985 4.89008 17.7141 4.89008 17V7C4.89008 6.28591 4.89074 5.80146 4.92157 5.42722C4.95158 5.06291 5.00585 4.87851 5.0714 4.75092C5.2309 4.44045 5.4854 4.18803 5.79844 4.02984C5.92708 3.96483 6.11301 3.911 6.48033 3.88124C6.85766 3.85066 7.34612 3.85 8.06611 3.85H17.0925ZM18.2229 2.19945C17.9342 2.1497 17.6073 2.14982 17.1693 2.14998L17.0925 2.15H8.06611L8.03082 2.15C7.35497 2.14999 6.79617 2.14998 6.34075 2.18688C5.86743 2.22524 5.43083 2.30766 5.02028 2.51513C4.38472 2.8363 3.868 3.34879 3.54417 3.97913C3.33499 4.38632 3.25189 4.81934 3.21321 5.28879C3.17601 5.74047 3.17601 6.29468 3.17603 6.96498L3.17603 7V17L3.17603 17.035C3.17601 17.7053 3.17601 18.2595 3.21321 18.7112C3.25189 19.1807 3.33499 19.6137 3.54417 20.0209C3.868 20.6512 4.38472 21.1637 5.02028 21.4849C5.43083 21.6923 5.86743 21.7748 6.34076 21.8131C6.79615 21.85 7.35492 21.85 8.03072 21.85H8.06611H9.57851H16.1322H16.1675C16.8433 21.85 17.4022 21.85 17.8576 21.8131C18.3309 21.7748 18.7675 21.6923 19.1781 21.4849C19.8136 21.1637 20.3303 20.6512 20.6542 20.0209C20.8633 19.6137 20.9464 19.1807 20.9851 18.7112C21.0223 18.2595 21.0223 17.7053 21.0223 17.035V17V11V6.29577V6.04762L21.0223 5.97145C21.0225 5.53698 21.0226 5.21284 20.9724 4.92651C20.7283 3.53293 19.628 2.4416 18.2229 2.19945ZM7.56198 12.15C7.08866 12.15 6.70495 12.5306 6.70495 13C6.70495 13.4694 7.08866 13.85 7.56198 13.85H11.595C12.0684 13.85 12.4521 13.4694 12.4521 13C12.4521 12.5306 12.0684 12.15 11.595 12.15H7.56198ZM6.70495 17C6.70495 16.5306 7.08866 16.15 7.56198 16.15H14.6198C15.0932 16.15 15.4769 16.5306 15.4769 17C15.4769 17.4694 15.0932 17.85 14.6198 17.85H7.56198C7.08866 17.85 6.70495 17.4694 6.70495 17ZM15.0762 6.31472C15.0046 6.18086 14.8113 6.18086 14.7397 6.31472L13.9348 7.82052L12.4165 8.61886C12.2816 8.68983 12.2816 8.88161 12.4165 8.95258L13.9348 9.75092L14.7397 11.2567C14.8113 11.3906 15.0046 11.3906 15.0762 11.2567L15.8811 9.75092L17.3994 8.95258C17.5343 8.88161 17.5343 8.68983 17.3994 8.61886L15.8811 7.82052L15.0762 6.31472Z" fill="#1A1A1A"/>
</svg>
