<svg width="24" height="24" viewBox="0 0 24 24" fill="none" xmlns="http://www.w3.org/2000/svg">
<path d="M17.7682 3.92232C17.3684 3.44256 16.6315 3.44256 16.2318 3.92232L13.3668 7.36027C12.824 8.01159 13.2872 9.00045 14.135 9.00045H16.1499V19.0004C16.1499 19.4698 16.5305 19.8504 16.9999 19.8504C17.4693 19.8504 17.8499 19.4698 17.8499 19.0004V9.00045H19.8649C20.7128 9.00045 21.1759 8.01159 20.6332 7.36027L17.7682 3.92232Z" fill="#1A1A1A"/>
<path d="M10.9999 11.1504C11.4693 11.1504 11.8499 11.5309 11.8499 12.0004V19.0004C11.8499 19.4698 11.4693 19.8504 10.9999 19.8504C10.5305 19.8504 10.1499 19.4698 10.1499 19.0004V12.0004C10.1499 11.5309 10.5305 11.1504 10.9999 11.1504Z" fill="#1A1A1A"/>
<path d="M5.8499 14.5004C5.8499 14.0309 5.46934 13.6504 4.9999 13.6504C4.53046 13.6504 4.1499 14.0309 4.1499 14.5004V19.0004C4.1499 19.4698 4.53046 19.8504 4.9999 19.8504C5.46934 19.8504 5.8499 19.4698 5.8499 19.0004V14.5004Z" fill="#1A1A1A"/>
</svg>
