<svg width="24" height="24" viewBox="0 0 24 24" fill="none" xmlns="http://www.w3.org/2000/svg">
<path fill-rule="evenodd" clip-rule="evenodd" d="M5.64893 8.74397C5.64893 5.10223 8.60113 2.15002 12.2429 2.15002H12.7148C18.0289 2.15002 21.4411 7.79558 18.9709 12.5006L15.2695 19.5503C14.3649 21.2733 12.3914 22.1448 10.5085 21.6527C7.83906 20.9549 6.5647 17.909 7.94196 15.5182L8.19682 15.0757C8.43114 14.669 8.95086 14.5292 9.35764 14.7635C9.76441 14.9978 9.90421 15.5175 9.66989 15.9243L9.41503 16.3667C8.59755 17.7858 9.35395 19.5938 10.9384 20.0079C12.056 20.3 13.2274 19.7828 13.7644 18.76L17.4657 11.7103C19.3417 8.1373 16.7503 3.85002 12.7148 3.85002H12.2429C9.54002 3.85002 7.34893 6.04112 7.34893 8.74397C7.34893 8.84112 7.35641 8.93813 7.37132 9.03414L7.63395 10.7258C7.70596 11.1897 7.38829 11.6241 6.92441 11.6961C6.46052 11.7681 6.02609 11.4505 5.95407 10.9866L5.69144 9.29494C5.66314 9.11264 5.64893 8.92844 5.64893 8.74397Z" fill="#1A1A1A"/>
<path fill-rule="evenodd" clip-rule="evenodd" d="M13.15 8.2C12.6194 8.2 12.2 8.61944 12.2 9.15C12.2 9.48087 12.2683 9.80259 12.379 10.1672C12.4269 10.325 12.4793 10.4804 12.5366 10.6502C12.5466 10.6799 12.5567 10.71 12.567 10.7406C12.6342 10.9404 12.7063 11.1585 12.7692 11.3857C13.0362 12.3501 13.127 13.4566 12.4036 14.8432C12.1864 15.2594 11.673 15.4207 11.2568 15.2036C10.8406 14.9864 10.6793 14.473 10.8964 14.0568C11.373 13.1434 11.3138 12.4999 11.1308 11.8393C11.0812 11.6602 11.022 11.4799 10.9557 11.2825C10.9463 11.2547 10.9368 11.2265 10.9272 11.1979C10.8702 11.029 10.8084 10.8458 10.7523 10.6609C10.6192 10.2224 10.5 9.71913 10.5 9.15C10.5 7.68056 11.6806 6.5 13.15 6.5C14.6194 6.5 15.8 7.68056 15.8 9.15V9.15262C15.8 9.2847 15.8 9.67671 15.6045 10.1264C15.4001 10.5966 15.0089 11.0709 14.3301 11.4103C13.9102 11.6202 13.3997 11.45 13.1897 11.0301C12.9798 10.6102 13.15 10.0997 13.5699 9.88974C13.8911 9.7291 13.9999 9.5534 14.0455 9.44858C14.0987 9.3263 14.1 9.22054 14.1 9.15C14.1 8.61944 13.6806 8.2 13.15 8.2Z" fill="#1A1A1A"/>
</svg>
