<svg width="24" height="24" viewBox="0 0 24 24" fill="none" xmlns="http://www.w3.org/2000/svg">
<path d="M3.9999 9.34941C4.46934 9.34941 4.8499 8.96886 4.8499 8.49941V6.99941C4.8499 5.812 5.81249 4.84941 6.9999 4.84941H8.4999C8.96934 4.84941 9.3499 4.46886 9.3499 3.99941C9.3499 3.52997 8.96934 3.14941 8.4999 3.14941H6.9999C4.87361 3.14941 3.1499 4.87312 3.1499 6.99941V8.49941C3.1499 8.96886 3.53046 9.34941 3.9999 9.34941Z" fill="#1A1A1A"/>
<path d="M20.0001 14.6502C19.5307 14.6502 19.1501 15.0308 19.1501 15.5002V17.0002C19.1501 18.1876 18.1875 19.1502 17.0001 19.1502H15.5001C15.0307 19.1502 14.6501 19.5308 14.6501 20.0002C14.6501 20.4696 15.0307 20.8502 15.5001 20.8502H17.0001C19.1264 20.8502 20.8501 19.1265 20.8501 17.0002V15.5002C20.8501 15.0308 20.4695 14.6502 20.0001 14.6502Z" fill="#1A1A1A"/>
<path d="M19.1501 8.49941C19.1501 8.96886 19.5307 9.34941 20.0001 9.34941C20.4695 9.34941 20.8501 8.96886 20.8501 8.49941V6.99941C20.8501 4.87312 19.1264 3.14941 17.0001 3.14941H15.5001C15.0307 3.14941 14.6501 3.52997 14.6501 3.99941C14.6501 4.46886 15.0307 4.84941 15.5001 4.84941H17.0001C18.1875 4.84941 19.1501 5.812 19.1501 6.99941V8.49941Z" fill="#1A1A1A"/>
<path d="M3.9999 14.6502C4.46934 14.6502 4.8499 15.0308 4.8499 15.5002V17.0002C4.8499 18.1876 5.81249 19.1502 6.9999 19.1502H8.4999C8.96934 19.1502 9.3499 19.5308 9.3499 20.0002C9.3499 20.4696 8.96934 20.8502 8.4999 20.8502H6.9999C4.87361 20.8502 3.1499 19.1265 3.1499 17.0002V15.5002C3.1499 15.0308 3.53046 14.6502 3.9999 14.6502Z" fill="#1A1A1A"/>
<path d="M7.9999 10.1502C7.53046 10.1502 7.1499 10.5308 7.1499 11.0002C7.1499 11.4696 7.53046 11.8502 7.9999 11.8502H11.1499V13.1502H7.9999C7.53046 13.1502 7.1499 13.5308 7.1499 14.0002C7.1499 14.4696 7.53046 14.8502 7.9999 14.8502H11.1499V16.9994C11.1499 17.4689 11.5305 17.8494 11.9999 17.8494C12.4693 17.8494 12.8499 17.4689 12.8499 16.9994V14.8502H15.9999C16.4693 14.8502 16.8499 14.4696 16.8499 14.0002C16.8499 13.5308 16.4693 13.1502 15.9999 13.1502H12.8499V11.8502H15.9999C16.4693 11.8502 16.8499 11.4696 16.8499 11.0002C16.8499 10.5308 16.4693 10.1502 15.9999 10.1502H14.1511L15.6916 7.99354C15.9645 7.61155 15.876 7.08068 15.494 6.80781C15.112 6.53495 14.5812 6.62341 14.3083 7.00541L12.0619 10.1502H12.0367C12.0245 10.1497 12.0122 10.1494 11.9999 10.1494C11.9876 10.1494 11.9753 10.1497 11.9631 10.1502H11.9377L9.69158 7.00561C9.41872 6.62361 8.88785 6.53513 8.50585 6.80799C8.12385 7.08084 8.03538 7.61171 8.30823 7.99371L9.84858 10.1502H7.9999Z" fill="#1A1A1A"/>
</svg>
