<svg width="24" height="24" viewBox="0 0 24 24" fill="none" xmlns="http://www.w3.org/2000/svg">
<path d="M12 16C14.2091 16 16 14.2091 16 12C16 9.79086 14.2091 8 12 8C9.79086 8 8 9.79086 8 12C8 14.2091 9.79086 16 12 16Z" fill="#1A1A1A"/>
<path fill-rule="evenodd" clip-rule="evenodd" d="M11.9999 2.15039C6.5599 2.15039 2.1499 6.56039 2.1499 12.0004C2.1499 17.4404 6.5599 21.8504 11.9999 21.8504C17.4399 21.8504 21.8499 17.4404 21.8499 12.0004C21.8499 6.56039 17.4399 2.15039 11.9999 2.15039ZM3.8499 12.0004C3.8499 7.49927 7.49878 3.85039 11.9999 3.85039C16.501 3.85039 20.1499 7.49927 20.1499 12.0004C20.1499 16.5015 16.501 20.1504 11.9999 20.1504C7.49878 20.1504 3.8499 16.5015 3.8499 12.0004Z" fill="#1A1A1A"/>
</svg>
