<svg width="24" height="24" viewBox="0 0 24 24" fill="none" xmlns="http://www.w3.org/2000/svg">
<path fill-rule="evenodd" clip-rule="evenodd" d="M4.24541 12.3038L4.24684 12.1462C4.3286 7.76923 7.90266 4.2459 12.2995 4.2459C14.4909 4.2459 16.4765 5.12002 17.9294 6.54051C18.2398 6.84395 18.7289 6.86479 19.064 6.58885L20.3535 5.52687V12.2999C20.3535 16.7481 16.7476 20.354 12.2995 20.354C10.108 20.354 8.12241 19.4799 6.66948 18.0594C6.35911 17.7559 5.86996 17.7351 5.5349 18.011L4.24541 19.073V12.3038ZM12.2995 2.5459C6.97288 2.5459 2.64368 6.81533 2.54706 12.1191L2.54695 12.1268L2.54545 12.2922L2.54541 12.2999V20.8742C2.54541 21.2031 2.73518 21.5025 3.03265 21.6429C3.33012 21.7833 3.68187 21.7394 3.93578 21.5303L6.04993 19.7892C7.74201 21.2025 9.92198 22.054 12.2995 22.054C17.6865 22.054 22.0535 17.687 22.0535 12.2999V3.72568C22.0535 3.39675 21.8637 3.09735 21.5663 2.95697C21.2688 2.8166 20.917 2.86044 20.6631 3.06955L18.549 4.8107C16.8569 3.3974 14.6769 2.5459 12.2995 2.5459ZM10.1493 12.3C10.1493 11.1126 11.1119 10.15 12.2993 10.15C13.4867 10.15 14.4493 11.1126 14.4493 12.3C14.4493 13.4874 13.4867 14.45 12.2993 14.45C11.1119 14.45 10.1493 13.4874 10.1493 12.3ZM12.2993 8.44999C10.173 8.44999 8.44932 10.1737 8.44932 12.3C8.44932 14.4263 10.173 16.15 12.2993 16.15C14.4256 16.15 16.1493 14.4263 16.1493 12.3C16.1493 10.1737 14.4256 8.44999 12.2993 8.44999Z" fill="#1A1A1A"/>
</svg>
