<svg width="24" height="24" viewBox="0 0 24 24" fill="none" xmlns="http://www.w3.org/2000/svg">
<path d="M8.63079 9.15521C8.5 9.41191 8.5 9.74794 8.5 10.42V13.58C8.5 14.2521 8.5 14.5881 8.63079 14.8448C8.74584 15.0706 8.92942 15.2542 9.15521 15.3692C9.41191 15.5 9.74794 15.5 10.42 15.5H13.58C14.2521 15.5 14.5881 15.5 14.8448 15.3692C15.0706 15.2542 15.2542 15.0706 15.3692 14.8448C15.5 14.5881 15.5 14.2521 15.5 13.58V10.42C15.5 9.74794 15.5 9.41191 15.3692 9.15521C15.2542 8.92942 15.0706 8.74584 14.8448 8.63079C14.5881 8.5 14.2521 8.5 13.58 8.5H10.42C9.74794 8.5 9.41191 8.5 9.15521 8.63079C8.92942 8.74584 8.74584 8.92942 8.63079 9.15521Z" fill="#1A1A1A"/>
<path fill-rule="evenodd" clip-rule="evenodd" d="M11.9999 2.15039C6.5599 2.15039 2.1499 6.56039 2.1499 12.0004C2.1499 17.4404 6.5599 21.8504 11.9999 21.8504C17.4399 21.8504 21.8499 17.4404 21.8499 12.0004C21.8499 6.56039 17.4399 2.15039 11.9999 2.15039ZM3.8499 12.0004C3.8499 7.49927 7.49878 3.85039 11.9999 3.85039C16.501 3.85039 20.1499 7.49927 20.1499 12.0004C20.1499 16.5015 16.501 20.1504 11.9999 20.1504C7.49878 20.1504 3.8499 16.5015 3.8499 12.0004Z" fill="#1A1A1A"/>
</svg>
