<svg width="24" height="24" viewBox="0 0 24 24" fill="none" xmlns="http://www.w3.org/2000/svg">
<path d="M7.9649 2.15039H11.9999C12.4693 2.15039 12.8499 2.53095 12.8499 3.00039C12.8499 3.46983 12.4693 3.85039 11.9999 3.85039H7.9999C7.28581 3.85039 6.80136 3.85105 6.42713 3.88163C6.06281 3.91139 5.87841 3.96522 5.75082 4.03023C5.44035 4.18842 5.18793 4.44084 5.02974 4.75131C4.96473 4.8789 4.91091 5.0633 4.88114 5.42761C4.85056 5.80185 4.8499 6.2863 4.8499 7.00039V17.0004C4.8499 17.7145 4.85056 18.1989 4.88114 18.5732C4.91091 18.9375 4.96473 19.1219 5.02974 19.2495C5.18793 19.5599 5.44035 19.8124 5.75082 19.9706C5.87841 20.0356 6.06281 20.0894 6.42713 20.1192C6.80136 20.1497 7.28581 20.1504 7.9999 20.1504H15.9999C16.714 20.1504 17.1984 20.1497 17.5727 20.1192C17.937 20.0894 18.1214 20.0356 18.249 19.9706C18.5595 19.8124 18.8119 19.5599 18.9701 19.2495C19.0351 19.1219 19.0889 18.9375 19.1187 18.5732C19.1492 18.1989 19.1499 17.7145 19.1499 17.0004V12.0004C19.1499 11.5309 19.5305 11.1504 19.9999 11.1504C20.4693 11.1504 20.8499 11.5309 20.8499 12.0004V17.0353C20.8499 17.7057 20.8499 18.2599 20.813 18.7116C20.7747 19.181 20.6922 19.6141 20.4848 20.0213C20.1636 20.6516 19.6511 21.1641 19.0208 21.4853C18.6136 21.6927 18.1806 21.7752 17.7111 21.8135C17.2594 21.8504 16.7052 21.8504 16.0349 21.8504H7.96496C7.29463 21.8504 6.74039 21.8504 6.28869 21.8135C5.81925 21.7752 5.38622 21.6927 4.97904 21.4853C4.34869 21.1641 3.83621 20.6516 3.51503 20.0213C3.30756 19.6141 3.22514 19.181 3.18679 18.7116C3.14988 18.2599 3.14989 17.7057 3.1499 17.0354V6.96539C3.14989 6.29509 3.14988 5.74086 3.18679 5.28918C3.22514 4.81973 3.30756 4.38671 3.51503 3.97952C3.83621 3.34918 4.34869 2.8367 4.97904 2.51552C5.38622 2.30805 5.81925 2.22563 6.28869 2.18728C6.74037 2.15037 7.2946 2.15038 7.9649 2.15039Z" fill="#1A1A1A"/>
<path fill-rule="evenodd" clip-rule="evenodd" d="M17.0056 3.10698C17.728 2.3845 18.8994 2.38451 19.6219 3.10698L21.0361 4.52119C21.7586 5.24366 21.7586 6.41501 21.0361 7.13748L13.3654 14.8082C13.1583 15.0153 12.905 15.1703 12.6263 15.2603L9.60607 16.2368C8.55824 16.5756 7.56747 15.5848 7.90624 14.537L8.88271 11.5167C8.97281 11.2381 9.12777 10.9848 9.33485 10.7777L17.0056 3.10698ZM18.4198 4.30906C18.3612 4.25048 18.2662 4.25048 18.2077 4.30906L16.6092 5.90756L18.2355 7.53391L19.834 5.9354C19.8926 5.87682 19.8926 5.78185 19.834 5.72327L18.4198 4.30906ZM17.0334 8.73599L15.4071 7.10964L10.5369 11.9798C10.5201 11.9966 10.5076 12.0171 10.5003 12.0397L9.73436 14.4087L12.1034 13.6428C12.126 13.6355 12.1465 13.6229 12.1633 13.6061L17.0334 8.73599Z" fill="#1A1A1A"/>
</svg>
