<svg width="24" height="24" viewBox="0 0 24 24" fill="none" xmlns="http://www.w3.org/2000/svg">
<path d="M10.8903 3.40838C10.8903 2.79624 11.3865 2.3 11.9986 2.3C12.6108 2.3 13.107 2.79624 13.107 3.40838V3.82747C13.107 3.85046 13.1063 3.87328 13.1049 3.89593C16.362 4.43105 18.4866 7.3115 18.4866 10.6553L18.4875 13.9691L20.4999 16.5891C20.5397 16.641 20.5734 16.6972 20.6003 16.7567C20.7615 17.1132 20.7863 17.483 20.7058 17.8208C20.6929 17.8073 20.6799 17.794 20.6666 17.7807L16.7875 13.9294L16.7866 10.6553C16.7866 7.73897 14.7937 5.50697 11.9977 5.50697C10.9271 5.50697 9.9742 5.83425 9.20587 6.40192L7.98698 5.19174C8.79651 4.5355 9.77819 4.07837 10.8923 3.89563C10.891 3.87309 10.8903 3.85036 10.8903 3.82747V3.40838Z" fill="#1A1A1A"/>
<path d="M5.90063 4.69896C5.56868 4.36701 5.03049 4.36701 4.69854 4.69896C4.3666 5.0309 4.3666 5.56909 4.69854 5.90104L18.6985 19.901C19.0305 20.233 19.5687 20.233 19.9006 19.901C20.2326 19.5691 20.2326 19.0309 19.9006 18.699L5.90063 4.69896Z" fill="#1A1A1A"/>
<path d="M8.88183 20.1277C8.81972 19.9884 8.92815 19.84 9.08075 19.84H14.9216C15.0742 19.84 15.1826 19.9884 15.1205 20.1277C14.634 21.2193 13.4208 21.9927 12.0012 21.9927C10.5815 21.9927 9.36829 21.2193 8.88183 20.1277Z" fill="#1A1A1A"/>
<path d="M5.50886 10.6553C5.50886 9.9561 5.60175 9.27716 5.77848 8.63569L7.23505 10.0819C7.2177 10.2697 7.20885 10.461 7.20885 10.6553V14.2605C7.20885 14.4478 7.14699 14.6299 7.03288 14.7784L5.01324 17.407H14.6129L16.3251 19.107H4.92111C3.71698 19.107 2.89516 17.8674 3.39735 16.7567C3.42429 16.6971 3.45801 16.6409 3.49784 16.589L5.50886 13.9717V10.6553Z" fill="#1A1A1A"/>
</svg>
