<svg width="24" height="24" viewBox="0 0 24 24" fill="none" xmlns="http://www.w3.org/2000/svg">
<path fill-rule="evenodd" clip-rule="evenodd" d="M10.891 3.40818C10.891 2.79604 11.3872 2.2998 11.9994 2.2998C12.6115 2.2998 13.1077 2.79604 13.1077 3.40818V3.82727C13.1077 3.85032 13.107 3.87321 13.1056 3.8959C16.3623 4.43131 18.4877 7.31141 18.4877 10.6552V13.9692L20.4999 16.589C20.5397 16.6408 20.5734 16.6971 20.6003 16.7566C21.1025 17.8673 20.2807 19.1068 19.0766 19.1068H4.92111C3.71698 19.1068 2.89516 17.8673 3.39735 16.7566C3.42429 16.697 3.45801 16.6407 3.49784 16.5889L5.50886 13.9715V10.6552C5.50886 7.3105 7.63461 4.42944 10.893 3.89538C10.8917 3.87285 10.891 3.85014 10.891 3.82727V3.40818ZM11.9977 5.50683C9.20179 5.50683 7.20886 7.73883 7.20886 10.6552V14.2604C7.20886 14.4477 7.14699 14.6297 7.03288 14.7782L5.01324 17.4068H18.9845L16.9636 14.7757C16.8495 14.6272 16.7877 14.4452 16.7877 14.258V10.6552C16.7877 7.73906 14.7939 5.50683 11.9977 5.50683Z" fill="#1A1A1A"/>
<path d="M8.88269 20.2275C8.82057 20.0882 8.92901 19.9398 9.08161 19.9398H14.9224C15.075 19.9398 15.1834 20.0882 15.1213 20.2275C14.6349 21.3191 13.4217 22.0925 12.002 22.0925C10.5824 22.0925 9.36914 21.3191 8.88269 20.2275Z" fill="#1A1A1A"/>
</svg>
