<svg width="24" height="24" viewBox="0 0 24 24" fill="none" xmlns="http://www.w3.org/2000/svg">
<path d="M10.8906 3.40818C10.8906 2.79604 11.3869 2.2998 11.999 2.2998C12.6111 2.2998 13.1074 2.79604 13.1074 3.40818V3.82727C13.1074 3.8504 13.1067 3.87336 13.1053 3.89614C16.3621 4.43142 18.4866 7.31177 18.4866 10.6554L18.4875 13.9693L20.4999 16.5893C20.5397 16.6411 20.5734 16.6973 20.6003 16.7569C20.7615 17.1133 20.7863 17.4831 20.7058 17.8208C20.693 17.8073 20.6799 17.794 20.6666 17.7807L7.98708 5.19182C8.79669 4.53555 9.77847 4.07842 10.8927 3.89573C10.8913 3.87309 10.8906 3.85026 10.8906 3.82727V3.40818Z" fill="#1A1A1A"/>
<path d="M5.90099 4.69915C5.56905 4.36721 5.03086 4.36721 4.69891 4.69915C4.36696 5.0311 4.36696 5.56929 4.69891 5.90124L18.6989 19.9012C19.0309 20.2332 19.569 20.2332 19.901 19.9012C20.2329 19.5693 20.2329 19.0311 19.901 18.6992L5.90099 4.69915Z" fill="#1A1A1A"/>
<path d="M8.88232 20.1276C8.82021 19.9882 8.92864 19.8398 9.08124 19.8398H14.922C15.0746 19.8398 15.1831 19.9882 15.121 20.1276C14.6345 21.2191 13.4213 21.9925 12.0016 21.9925C10.582 21.9925 9.36878 21.2191 8.88232 20.1276Z" fill="#1A1A1A"/>
<path d="M5.50886 10.6554C5.50886 9.9562 5.60177 9.27722 5.77851 8.63572L16.3253 19.1071H4.92111C3.71698 19.1071 2.89516 17.8676 3.39735 16.7569C3.42429 16.6973 3.45801 16.641 3.49784 16.5892L5.50886 13.9718V10.6554Z" fill="#1A1A1A"/>
</svg>
