<svg width="24" height="24" viewBox="0 0 24 24" fill="none" xmlns="http://www.w3.org/2000/svg">
<path d="M10.8903 3.40818C10.8903 2.79604 11.3865 2.2998 11.9986 2.2998C12.6108 2.2998 13.107 2.79604 13.107 3.40818V3.82727C13.107 3.85026 13.1063 3.87309 13.1049 3.89573C16.362 4.43086 18.4866 7.3113 18.4866 10.6551L18.4875 13.9689L20.4999 16.5889C20.5397 16.6408 20.5734 16.697 20.6003 16.7565C20.7615 17.113 20.7863 17.4828 20.7058 17.8206C20.6929 17.8071 20.6799 17.7938 20.6666 17.7806L16.7875 13.9292L16.7866 10.6551C16.7866 7.73877 14.7937 5.50677 11.9977 5.50677C10.9271 5.50677 9.9742 5.83405 9.20587 6.40172L7.98698 5.19154C8.79651 4.53531 9.77819 4.07817 10.8923 3.89544C10.891 3.87289 10.8903 3.85016 10.8903 3.82727V3.40818Z" fill="#1A1A1A"/>
<path d="M5.90063 4.69876C5.56868 4.36681 5.03049 4.36681 4.69854 4.69876C4.3666 5.0307 4.3666 5.56889 4.69854 5.90084L18.6985 19.9008C19.0305 20.2328 19.5687 20.2328 19.9006 19.9008C20.2326 19.5689 20.2326 19.0307 19.9006 18.6988L5.90063 4.69876Z" fill="#1A1A1A"/>
<path d="M8.88183 20.1276C8.81972 19.9882 8.92815 19.8398 9.08075 19.8398H14.9216C15.0742 19.8398 15.1826 19.9882 15.1205 20.1276C14.634 21.2191 13.4208 21.9925 12.0012 21.9925C10.5815 21.9925 9.36829 21.2191 8.88183 20.1276Z" fill="#1A1A1A"/>
<path d="M5.50886 10.6551C5.50886 9.9559 5.60175 9.27696 5.77848 8.6355L7.23505 10.0817C7.2177 10.2695 7.20885 10.4608 7.20885 10.6551V14.2603C7.20885 14.4476 7.14699 14.6297 7.03288 14.7782L5.01324 17.4068H14.6129L16.3251 19.1068H4.92111C3.71698 19.1068 2.89516 17.8672 3.39735 16.7565C3.42429 16.697 3.45801 16.6407 3.49784 16.5888L5.50886 13.9715V10.6551Z" fill="#1A1A1A"/>
</svg>
