<svg width="24" height="24" viewBox="0 0 24 24" fill="none" xmlns="http://www.w3.org/2000/svg">
<path fill-rule="evenodd" clip-rule="evenodd" d="M10.891 3.40838C10.891 2.79624 11.3872 2.3 11.9994 2.3C12.6115 2.3 13.1077 2.79624 13.1077 3.40838V3.82747C13.1077 3.85052 13.107 3.8734 13.1056 3.8961C16.3623 4.43151 18.4877 7.3116 18.4877 10.6554V13.9694L20.4999 16.5892C20.5397 16.641 20.5734 16.6972 20.6003 16.7568C21.1025 17.8675 20.2807 19.107 19.0766 19.107H4.92111C3.71698 19.107 2.89516 17.8675 3.39735 16.7568C3.42429 16.6972 3.45801 16.6409 3.49784 16.5891L5.50886 13.9717V10.6553C5.50886 7.3107 7.63461 4.42964 10.893 3.89558C10.8917 3.87305 10.891 3.85034 10.891 3.82747V3.40838ZM11.9977 5.50703C9.20179 5.50703 7.20886 7.73903 7.20886 10.6553V14.2606C7.20886 14.4479 7.14699 14.6299 7.03288 14.7784L5.01324 17.407H18.9845L16.9636 14.7759C16.8495 14.6274 16.7877 14.4454 16.7877 14.2582V10.6554C16.7877 7.73926 14.7939 5.50703 11.9977 5.50703Z" fill="#1A1A1A"/>
<path d="M8.88269 20.2277C8.82057 20.0884 8.92901 19.94 9.08161 19.94H14.9224C15.075 19.94 15.1834 20.0884 15.1213 20.2277C14.6349 21.3193 13.4217 22.0927 12.002 22.0927C10.5824 22.0927 9.36914 21.3193 8.88269 20.2277Z" fill="#1A1A1A"/>
</svg>
