<svg width="24" height="24" viewBox="0 0 24 24" fill="none" xmlns="http://www.w3.org/2000/svg">
<path d="M3.8499 11.9999C3.8499 7.49878 7.49878 3.8499 11.9999 3.8499C16.501 3.8499 20.1499 7.49878 20.1499 11.9999C20.1499 13.0679 19.9445 14.088 19.5709 15.0227C19.713 15.2559 19.7973 15.5349 19.7973 15.8487V16.2594H20.3714C20.5398 16.2594 20.7056 16.2704 20.8682 16.2918C21.4972 14.9945 21.8499 13.5384 21.8499 11.9999C21.8499 6.5599 17.4399 2.1499 11.9999 2.1499C6.5599 2.1499 2.1499 6.5599 2.1499 11.9999C2.1499 17.4399 6.5599 21.8499 11.9999 21.8499C13.2593 21.8499 14.4634 21.6136 15.5705 21.1828L14.3781 19.9904C14.3292 19.9415 14.2837 19.8905 14.2416 19.8377C13.5294 20.041 12.7774 20.1499 11.9999 20.1499C7.49878 20.1499 3.8499 16.501 3.8499 11.9999Z" fill="#1A1A1A"/>
<path d="M15.1915 19.1773C14.9365 18.9223 14.9365 18.5089 15.1915 18.2539L17.9045 15.541C18.1787 15.2667 18.6476 15.461 18.6476 15.8488V17.4095H20.3717C21.8234 17.4095 23.0002 18.5863 23.0002 20.038V21.7626L22.3138 20.7742C21.9863 20.3026 21.4486 20.0214 20.8745 20.0214H18.6476V21.5825C18.6476 21.9703 18.1787 22.1645 17.9045 21.8903L15.1915 19.1773Z" fill="#1A1A1A"/>
<path d="M16.6332 14.6951C16.8679 14.2885 16.7286 13.7687 16.3221 13.5339C15.9155 13.2992 15.3957 13.4385 15.1609 13.8451C14.8406 14.3999 14.3798 14.8607 13.8249 15.1811C13.2701 15.5014 12.6407 15.6701 11.9999 15.6701C11.3592 15.6701 10.7298 15.5014 10.1749 15.1811C9.62007 14.8607 9.1593 14.3999 8.83895 13.8451C8.60423 13.4385 8.08438 13.2992 7.67783 13.5339C7.27128 13.7687 7.13198 14.2885 7.36671 14.6951C7.83627 15.5084 8.51164 16.1837 9.32494 16.6533C10.1382 17.1229 11.0608 17.3701 11.9999 17.3701C12.9391 17.3701 13.8616 17.1229 14.6749 16.6533C15.4882 16.1837 16.1636 15.5084 16.6332 14.6951Z" fill="#1A1A1A"/>
<path d="M8.84951 7.57007C9.31895 7.57007 9.69951 7.95063 9.69951 8.42007V11.1201C9.69951 11.5895 9.31895 11.9701 8.84951 11.9701C8.38007 11.9701 7.99951 11.5895 7.99951 11.1201V8.42007C7.99951 7.95063 8.38007 7.57007 8.84951 7.57007Z" fill="#1A1A1A"/>
<path d="M15.9983 8.42007C15.9983 7.95063 15.6178 7.57007 15.1483 7.57007C14.6789 7.57007 14.2983 7.95063 14.2983 8.42007V11.1201C14.2983 11.5895 14.6789 11.9701 15.1483 11.9701C15.6178 11.9701 15.9983 11.5895 15.9983 11.1201V8.42007Z" fill="#1A1A1A"/>
</svg>
