<svg width="24" height="24" viewBox="0 0 24 24" fill="none" xmlns="http://www.w3.org/2000/svg">
<path fill-rule="evenodd" clip-rule="evenodd" d="M10.629 4.43105C10.7993 4.26081 11.0903 4.38138 11.0903 4.62212V8.63935C11.0903 9.10879 11.4709 9.48935 11.9403 9.48935H14.6827C17.9495 9.48935 20.5975 12.1379 20.5969 15.4047L20.5967 16.2272C19.5865 15.1369 18.1633 14.5107 16.6657 14.5107H11.9403C11.4709 14.5107 11.0903 14.8912 11.0903 15.3607V19.3772C11.0903 19.6179 10.7993 19.7385 10.629 19.5683L3.64757 12.5868C3.32331 12.2625 3.3233 11.7368 3.64757 11.4125L10.629 4.43105ZM12.7903 4.62212C12.7903 2.86683 10.6681 1.9878 9.42696 3.22896L2.44549 10.2104C1.45733 11.1986 1.45733 12.8007 2.44549 13.7889L9.42696 20.7703C10.6681 22.0115 12.7903 21.1325 12.7903 19.3772V16.2107H16.6657C17.7737 16.2107 18.822 16.7126 19.5166 17.5758L20.7841 19.1507C21.0101 19.4315 21.3887 19.5393 21.7287 19.4195C22.0687 19.2997 22.2962 18.9784 22.2962 18.6179L22.2969 15.405C22.2977 11.1993 18.8885 7.78935 14.6827 7.78935H12.7903V4.62212Z" fill="#1A1A1A"/>
</svg>
