<svg width="24" height="24" viewBox="0 0 24 24" fill="none" xmlns="http://www.w3.org/2000/svg">
<path fill-rule="evenodd" clip-rule="evenodd" d="M12 1.15039C12.4694 1.15039 12.85 1.53095 12.85 2.00039V2.68851C17.3355 3.09272 20.9076 6.66482 21.3118 11.1504H21.9999C22.4693 11.1504 22.8499 11.5309 22.8499 12.0004C22.8499 12.4698 22.4693 12.8504 21.9999 12.8504H21.3118C20.9076 17.336 17.3355 20.9081 12.85 21.3123V22.0004C12.85 22.4698 12.4694 22.8504 12 22.8504C11.5305 22.8504 11.15 22.4698 11.15 22.0004V21.3123C6.66438 20.9081 3.09228 17.336 2.68807 12.8504H1.9999C1.53046 12.8504 1.1499 12.4698 1.1499 12.0004C1.1499 11.5309 1.53046 11.1504 1.9999 11.1504H2.68807C3.09228 6.66482 6.66438 3.09272 11.15 2.68851V2.00039C11.15 1.53095 11.5305 1.15039 12 1.15039ZM11.15 4.39708C7.60408 4.78906 4.78862 7.60452 4.39664 11.1504H5.9999C6.46934 11.1504 6.8499 11.5309 6.8499 12.0004C6.8499 12.4698 6.46934 12.8504 5.9999 12.8504H4.39664C4.78862 16.3963 7.60408 19.2117 11.15 19.6037V18.0004C11.15 17.5309 11.5305 17.1504 12 17.1504C12.4694 17.1504 12.85 17.5309 12.85 18.0004V19.6037C16.3958 19.2117 19.2113 16.3963 19.6033 12.8504H17.9999C17.5305 12.8504 17.1499 12.4698 17.1499 12.0004C17.1499 11.5309 17.5305 11.1504 17.9999 11.1504H19.6033C19.2113 7.60452 16.3958 4.78906 12.85 4.39708V6.00039C12.85 6.46983 12.4694 6.85039 12 6.85039C11.5305 6.85039 11.15 6.46983 11.15 6.00039V4.39708Z" fill="#1A1A1A"/>
</svg>
