<svg width="24" height="22" viewBox="0 0 24 22" fill="none" xmlns="http://www.w3.org/2000/svg">
<path fill-rule="evenodd" clip-rule="evenodd" d="M1.83475 16.1434C0.721751 15.0304 0.721751 13.2259 1.83475 12.1129L11.3807 2.56698C13.47 0.477674 16.8574 0.477674 18.9467 2.56698C21.036 4.65628 21.036 8.04372 18.9467 10.133L9.40079 19.679C8.2878 20.792 6.48327 20.792 5.37028 19.679L1.83475 16.1434ZM3.03683 13.315C2.58772 13.7641 2.58772 14.4922 3.03683 14.9413L6.57236 18.4769C7.02146 18.926 7.7496 18.926 8.19871 18.4769L15.3756 11.3L10.2137 6.13812L3.03683 13.315ZM11.4158 4.93604L16.5777 10.0979L17.7446 8.93094C19.1701 7.50553 19.1701 5.19447 17.7446 3.76906C16.3192 2.34365 14.0082 2.34365 12.5828 3.76906L11.4158 4.93604Z" fill="#1A1A1A"/>
<path d="M3.64445 1.21763C3.59226 1.11919 3.45122 1.11919 3.39903 1.21763L2.65553 2.61998L1.25319 3.36347C1.15474 3.41566 1.15474 3.5567 1.25319 3.60889L2.65553 4.35239L3.39903 5.75473C3.45122 5.85318 3.59226 5.85318 3.64445 5.75473L4.38794 4.35239L5.79029 3.60889C5.88873 3.5567 5.88873 3.41567 5.79029 3.36347L4.38794 2.61998L3.64445 1.21763Z" fill="#1A1A1A"/>
<path d="M19.3356 13.3102C19.2626 13.1724 19.0651 13.1724 18.992 13.3102L17.9511 15.2735L15.9879 16.3144C15.85 16.3875 15.85 16.5849 15.9879 16.658L17.9511 17.6989L18.992 19.6622C19.0651 19.8 19.2626 19.8 19.3356 19.6622L20.3765 17.6989L22.3398 16.658C22.4776 16.5849 22.4776 16.3875 22.3398 16.3144L20.3765 15.2735L19.3356 13.3102Z" fill="#1A1A1A"/>
</svg>
