<svg width="24" height="24" viewBox="0 0 24 24" fill="none" xmlns="http://www.w3.org/2000/svg">
<path d="M9.4999 11.1504C9.96934 11.1504 10.3499 11.5309 10.3499 12.0004V14.0004C10.3499 14.4698 9.96934 14.8504 9.4999 14.8504C9.03046 14.8504 8.6499 14.4698 8.6499 14.0004V12.0004C8.6499 11.5309 9.03046 11.1504 9.4999 11.1504Z" fill="#1A1A1A"/>
<path d="M14.4999 11.1504C14.9693 11.1504 15.3499 11.5309 15.3499 12.0004V14.0004C15.3499 14.4698 14.9693 14.8504 14.4999 14.8504C14.0305 14.8504 13.6499 14.4698 13.6499 14.0004V12.0004C13.6499 11.5309 14.0305 11.1504 14.4999 11.1504Z" fill="#1A1A1A"/>
<path fill-rule="evenodd" clip-rule="evenodd" d="M12.8499 5.3109C13.5294 4.99137 13.9999 4.30063 13.9999 3.5C13.9999 2.39543 13.1044 1.5 11.9999 1.5C10.8953 1.5 9.99988 2.39543 9.99988 3.5C9.99988 4.30065 10.4703 4.99141 11.1499 5.31092V6.18851C6.38438 6.61795 2.6499 10.6231 2.6499 15.5004V17.0004C2.6499 19.679 4.82132 21.8504 7.4999 21.8504H16.4999C19.1785 21.8504 21.3499 19.679 21.3499 17.0004V15.5004C21.3499 10.6231 17.6154 6.61795 12.8499 6.18851V5.3109ZM11.9999 7.85039C7.77492 7.85039 4.3499 11.2754 4.3499 15.5004V17.0004C4.3499 18.7401 5.76021 20.1504 7.4999 20.1504H16.4999C18.2396 20.1504 19.6499 18.7401 19.6499 17.0004V15.5004C19.6499 11.2754 16.2249 7.85039 11.9999 7.85039Z" fill="#1A1A1A"/>
</svg>
