<svg width="24" height="24" viewBox="0 0 24 24" fill="none" xmlns="http://www.w3.org/2000/svg">
<path d="M3.9999 9.34941C4.46934 9.34941 4.8499 8.96886 4.8499 8.49941V6.99941C4.8499 5.812 5.81249 4.84941 6.9999 4.84941H8.4999C8.96934 4.84941 9.3499 4.46886 9.3499 3.99941C9.3499 3.52997 8.96934 3.14941 8.4999 3.14941H6.9999C4.87361 3.14941 3.1499 4.87312 3.1499 6.99941V8.49941C3.1499 8.96886 3.53046 9.34941 3.9999 9.34941Z" fill="#1A1A1A"/>
<path d="M20.0001 14.6502C19.5307 14.6502 19.1501 15.0308 19.1501 15.5002V17.0002C19.1501 18.1876 18.1875 19.1502 17.0001 19.1502H15.5001C15.0307 19.1502 14.6501 19.5308 14.6501 20.0002C14.6501 20.4696 15.0307 20.8502 15.5001 20.8502H17.0001C19.1264 20.8502 20.8501 19.1265 20.8501 17.0002V15.5002C20.8501 15.0308 20.4695 14.6502 20.0001 14.6502Z" fill="#1A1A1A"/>
<path d="M19.1501 8.49941C19.1501 8.96886 19.5307 9.34941 20.0001 9.34941C20.4695 9.34941 20.8501 8.96886 20.8501 8.49941V6.99941C20.8501 4.87312 19.1264 3.14941 17.0001 3.14941H15.5001C15.0307 3.14941 14.6501 3.52997 14.6501 3.99941C14.6501 4.46886 15.0307 4.84941 15.5001 4.84941H17.0001C18.1875 4.84941 19.1501 5.812 19.1501 6.99941V8.49941Z" fill="#1A1A1A"/>
<path d="M3.9999 14.6502C4.46934 14.6502 4.8499 15.0308 4.8499 15.5002V17.0002C4.8499 18.1876 5.81249 19.1502 6.9999 19.1502H8.4999C8.96934 19.1502 9.3499 19.5308 9.3499 20.0002C9.3499 20.4696 8.96934 20.8502 8.4999 20.8502H6.9999C4.87361 20.8502 3.1499 19.1265 3.1499 17.0002V15.5002C3.1499 15.0308 3.53046 14.6502 3.9999 14.6502Z" fill="#1A1A1A"/>
<path d="M4.9999 11.1502C4.53046 11.1502 4.1499 11.5308 4.1499 12.0002C4.1499 12.4696 4.53046 12.8502 4.9999 12.8502H18.9999C19.4693 12.8502 19.8499 12.4696 19.8499 12.0002C19.8499 11.5308 19.4693 11.1502 18.9999 11.1502H4.9999Z" fill="#1A1A1A"/>
</svg>
