<svg width="24" height="24" viewBox="0 0 24 24" fill="none" xmlns="http://www.w3.org/2000/svg">
<path d="M5.3499 8.99941C5.3499 9.46886 4.96934 9.84941 4.4999 9.84941C4.03046 9.84941 3.6499 9.46886 3.6499 8.99941V7.49941C3.6499 5.37312 5.37361 3.64941 7.4999 3.64941H8.9999C9.46934 3.64941 9.8499 4.02997 9.8499 4.49941C9.8499 4.96886 9.46934 5.34941 8.9999 5.34941H7.4999C6.31249 5.34941 5.3499 6.312 5.3499 7.49941V8.99941Z" fill="#1A1A1A"/>
<path d="M18.6501 8.99941C18.6501 9.46886 19.0307 9.84941 19.5001 9.84941C19.9695 9.84941 20.3501 9.46886 20.3501 8.99941V7.49941C20.3501 5.37312 18.6264 3.64941 16.5001 3.64941H15.0001C14.5307 3.64941 14.1501 4.02997 14.1501 4.49941C14.1501 4.96886 14.5307 5.34941 15.0001 5.34941H16.5001C17.6875 5.34941 18.6501 6.312 18.6501 7.49941V8.99941Z" fill="#1A1A1A"/>
<path d="M4.4999 14.1502C4.96934 14.1502 5.3499 14.5308 5.3499 15.0002V16.5002C5.3499 17.6876 6.31249 18.6502 7.4999 18.6502H8.9999C9.46934 18.6502 9.8499 19.0308 9.8499 19.5002C9.8499 19.9696 9.46934 20.3502 8.9999 20.3502H7.4999C5.37361 20.3502 3.6499 18.6265 3.6499 16.5002V15.0002C3.6499 14.5308 4.03046 14.1502 4.4999 14.1502Z" fill="#1A1A1A"/>
<path d="M19.8499 15.0002C19.8499 14.5308 19.4693 14.1502 18.9999 14.1502C18.5305 14.1502 18.1499 14.5308 18.1499 15.0002V17.1502H15.9999C15.5305 17.1502 15.1499 17.5308 15.1499 18.0002C15.1499 18.4696 15.5305 18.8502 15.9999 18.8502H18.1499V21.0002C18.1499 21.4696 18.5305 21.8502 18.9999 21.8502C19.4693 21.8502 19.8499 21.4696 19.8499 21.0002V18.8502H21.9999C22.4693 18.8502 22.8499 18.4696 22.8499 18.0002C22.8499 17.5308 22.4693 17.1502 21.9999 17.1502H19.8499V15.0002Z" fill="#1A1A1A"/>
</svg>
