<svg width="24" height="24" viewBox="0 0 24 24" fill="none" xmlns="http://www.w3.org/2000/svg">
<path d="M11.1706 4.27705L10.8135 4.61158C9.68626 5.66768 8.74331 6.89447 8.02148 8.24401C7.70346 8.8386 8.09703 9.55814 8.78271 9.63572L9.49169 9.71594C11.1584 9.90452 12.842 9.90452 14.5087 9.71594L15.209 9.63671C15.8985 9.5587 16.2938 8.83477 15.9732 8.23731C15.2513 6.89208 14.3106 5.66863 13.1873 4.6141L12.8291 4.27784C12.3668 3.84389 11.6333 3.84354 11.1706 4.27705Z" fill="#1A1A1A"/>
<path d="M11.1706 19.7229L10.8135 19.3883C9.68626 18.3322 8.74331 17.1054 8.02148 15.7559C7.70346 15.1613 8.09703 14.4418 8.78271 14.3642L9.49169 14.284C11.1584 14.0954 12.842 14.0954 14.5087 14.284L15.209 14.3632C15.8985 14.4412 16.2938 15.1651 15.9732 15.7626C15.2513 17.1078 14.3106 18.3313 13.1873 19.3858L12.8291 19.7221C12.3668 20.156 11.6333 20.1564 11.1706 19.7229Z" fill="#1A1A1A"/>
</svg>
