<svg width="24" height="24" viewBox="0 0 24 24" fill="none" xmlns="http://www.w3.org/2000/svg">
<path d="M6.82543 3.61903C8.46259 2.60828 10.3599 2.09914 12.2831 2.15447C14.2064 2.20979 16.0713 2.82716 17.6476 3.93035C19.224 5.03353 20.4427 6.57423 21.1534 8.3622C21.864 10.1502 22.0355 12.1071 21.6466 13.9914C21.3152 15.5971 20.5892 17.0901 19.54 18.3384L19.6009 18.3993C19.9329 18.7313 19.9329 19.2695 19.6009 19.6014C19.269 19.9334 18.7308 19.9334 18.3989 19.6014L12.7903 13.9928C12.5458 14.0898 12.2793 14.1431 12.0003 14.1431C10.8168 14.1431 9.85742 13.1837 9.85742 12.0003C9.85742 10.8168 10.8168 9.85742 12.0003 9.85742C13.1837 9.85742 14.1431 10.8168 14.1431 12.0003C14.1431 12.2795 14.0897 12.5463 13.9925 12.791L15.3647 14.1631C15.7144 13.6191 15.9278 12.9972 15.9846 12.3503C16.0496 11.611 15.9077 10.8682 15.5747 10.205C15.2416 9.54185 14.7307 8.98437 14.099 8.59496C13.4672 8.20554 12.7396 7.99954 11.9975 8C11.2554 8.00046 10.5281 8.20735 9.89683 8.59755C9.26559 8.98774 8.75533 9.54585 8.42314 10.2095C8.09095 10.8731 7.94991 11.616 8.0158 12.3552C8.08169 13.0943 8.35192 13.8006 8.79626 14.395C9.12694 14.8373 9.03641 15.464 8.59407 15.7947C8.15172 16.1254 7.52506 16.0348 7.19438 15.5925C6.52788 14.7009 6.12254 13.6415 6.0237 12.5327C5.92486 11.424 6.13642 10.3096 6.63471 9.31418C7.133 8.31877 7.89838 7.48161 8.84525 6.89632C9.79212 6.31103 10.8831 6.00069 11.9963 6C13.1095 5.99931 14.2009 6.30831 15.1485 6.89243C16.096 7.47656 16.8625 8.31277 17.362 9.30756C17.8615 10.3024 18.0744 11.4165 17.977 12.5254C17.8795 13.6343 17.4755 14.6942 16.8101 15.5866C16.8069 15.5907 16.8038 15.5949 16.8006 15.599L18.3324 17.1308C19.1501 16.1216 19.7174 14.928 19.9817 13.6478C20.3035 12.0887 20.1616 10.4695 19.5736 8.99011C18.9856 7.51073 17.9772 6.23594 16.6729 5.32315C15.3686 4.41036 13.8256 3.89954 12.2343 3.85376C10.643 3.80799 9.07309 4.22925 7.71849 5.06556C6.36389 5.90186 5.28388 7.11657 4.6118 8.55971C3.93972 10.0028 3.70501 11.6112 3.93664 13.1862C4.16828 14.7613 4.85612 16.234 5.91523 17.4225C6.22754 17.773 6.19661 18.3103 5.84613 18.6226C5.49565 18.9349 4.95835 18.904 4.64603 18.5535C3.366 17.117 2.53469 15.3371 2.25473 13.4336C1.97478 11.53 2.25845 9.58618 3.07072 7.84202C3.88299 6.09786 5.18828 4.62977 6.82543 3.61903Z" fill="#1A1A1A"/>
</svg>
