<svg width="24" height="24" viewBox="0 0 24 24" fill="none" xmlns="http://www.w3.org/2000/svg">
<path d="M10.4999 6.65039C10.9693 6.65039 11.3499 7.03095 11.3499 7.50039V9.65039H13.4999C13.9693 9.65039 14.3499 10.0309 14.3499 10.5004C14.3499 10.9698 13.9693 11.3504 13.4999 11.3504H11.3499V13.5004C11.3499 13.9698 10.9693 14.3504 10.4999 14.3504C10.0305 14.3504 9.6499 13.9698 9.6499 13.5004V11.3504H7.4999C7.03046 11.3504 6.6499 10.9698 6.6499 10.5004C6.6499 10.0309 7.03046 9.65039 7.4999 9.65039H9.6499V7.50039C9.6499 7.03095 10.0305 6.65039 10.4999 6.65039Z" fill="#1A1A1A"/>
<path fill-rule="evenodd" clip-rule="evenodd" d="M10.4999 2.15039C5.88832 2.15039 2.1499 5.88881 2.1499 10.5004C2.1499 15.112 5.88832 18.8504 10.4999 18.8504C12.243 18.8504 13.8613 18.3163 15.2002 17.4028L18.8989 21.1014C19.2308 21.4334 19.769 21.4334 20.1009 21.1014C20.4329 20.7695 20.4329 20.2313 20.1009 19.8993L16.5044 16.3028C17.9565 14.8005 18.8499 12.7548 18.8499 10.5004C18.8499 5.88881 15.1115 2.15039 10.4999 2.15039ZM3.8499 10.5004C3.8499 6.8277 6.82721 3.85039 10.4999 3.85039C14.1726 3.85039 17.1499 6.8277 17.1499 10.5004C17.1499 14.1731 14.1726 17.1504 10.4999 17.1504C6.82721 17.1504 3.8499 14.1731 3.8499 10.5004Z" fill="#1A1A1A"/>
</svg>
