<svg width="24" height="24" viewBox="0 0 24 24" fill="none" xmlns="http://www.w3.org/2000/svg">
<path d="M12.8499 11.811C13.5295 11.4915 14 10.8007 14 10C14 8.89543 13.1046 8 12 8C10.8954 8 10 8.89543 10 10C10 10.8006 10.4704 11.4913 11.1499 11.8109V15.0004C11.1499 15.4698 11.5305 15.8504 11.9999 15.8504C12.4693 15.8504 12.8499 15.4698 12.8499 15.0004L12.8499 11.811Z" fill="#1A1A1A"/>
<path fill-rule="evenodd" clip-rule="evenodd" d="M10.7024 2.01442C11.5473 1.7504 12.4525 1.7504 13.2974 2.01442L17.7974 3.42067C19.6134 3.98817 20.8499 5.67003 20.8499 7.57266V14.4422C20.8499 14.9521 20.7199 15.4537 20.4723 15.8995C18.9351 18.6663 16.4509 20.7854 13.4763 21.8671L13.091 22.0072C12.3862 22.2635 11.6136 22.2635 10.9088 22.0072L10.5235 21.8671C7.54891 20.7854 5.06468 18.6663 3.52753 15.8995C3.27987 15.4537 3.1499 14.9521 3.1499 14.4422V7.57266C3.1499 5.67003 4.38639 3.98817 6.2024 3.42067L10.7024 2.01442ZM12.7903 3.63703C12.2757 3.4762 11.7242 3.4762 11.2095 3.63703L6.70947 5.04328C5.60316 5.38901 4.8499 6.41359 4.8499 7.57266V14.4422C4.8499 14.6632 4.90624 14.8806 5.0136 15.0739C6.35188 17.4828 8.51471 19.3277 11.1045 20.2694L11.4897 20.4095C11.8193 20.5294 12.1805 20.5294 12.5101 20.4095L12.8953 20.2694C15.4851 19.3277 17.6479 17.4828 18.9862 15.0739C19.0936 14.8806 19.1499 14.6632 19.1499 14.4422V7.57266C19.1499 6.41359 18.3966 5.38901 17.2903 5.04328L12.7903 3.63703Z" fill="#1A1A1A"/>
</svg>
