<svg width="24" height="24" viewBox="0 0 24 24" fill="none" xmlns="http://www.w3.org/2000/svg">
<path d="M11.9902 6.18065C12.4304 6.18069 12.7925 6.51561 12.8359 6.94432L12.8398 7.03124V18.7685L16.9131 14.6953L16.9775 14.6367C17.3114 14.3645 17.8031 14.3841 18.1143 14.6953C18.4252 15.0065 18.445 15.4982 18.1729 15.832L18.1143 15.8964L13.3105 20.7011C12.5835 21.4278 11.4048 21.4277 10.6777 20.7011L5.87402 15.8964C5.54213 15.5645 5.54222 15.0272 5.87402 14.6953C6.20597 14.3633 6.74325 14.3633 7.0752 14.6953L11.1406 18.7607V7.03124L11.1445 6.94432C11.1879 6.51559 11.55 6.18065 11.9902 6.18065ZM20.085 2.75684C20.5136 2.80036 20.8477 3.16244 20.8477 3.60254C20.8477 4.04264 20.5136 4.40471 20.085 4.44824L19.998 4.45214H3.99805C3.5286 4.45214 3.14844 4.07198 3.14844 3.60254C3.14844 3.1331 3.5286 2.75293 3.99805 2.75293H19.998L20.085 2.75684Z" fill="#1A1A1A"/>
</svg>
