<svg width="24" height="24" viewBox="0 0 24 24" fill="none" xmlns="http://www.w3.org/2000/svg">
<path fill-rule="evenodd" clip-rule="evenodd" d="M4.0579 9.17574L5.58298 6.53423C5.65148 6.41559 5.79165 6.35842 5.92359 6.39532L6.65239 6.59916C8.11061 7.00701 9.61909 6.13616 9.99508 4.66939L10.1828 3.93698C10.2168 3.80428 10.3364 3.71147 10.4734 3.71147L13.524 3.71148C13.661 3.71148 13.7805 3.80426 13.8146 3.93695L14.0025 4.66995C14.3786 6.13652 15.8869 7.00724 17.345 6.59952L18.0733 6.39586C18.2053 6.35897 18.3454 6.41614 18.4139 6.53478L19.9391 9.1765C20.0076 9.29514 19.987 9.44511 19.8891 9.54092L19.3487 10.0697C18.2665 11.1287 18.2665 12.8705 19.3487 13.9294L19.8894 14.4584C19.9873 14.5542 20.0079 14.7042 19.9394 14.8229L18.4143 17.4645C18.3458 17.5831 18.2056 17.6403 18.0736 17.6034L17.345 17.3996C15.8866 16.9917 14.3781 17.8627 14.0022 19.3296L13.8142 20.0633C13.7802 20.196 13.6606 20.2888 13.5236 20.2888L10.7239 20.2888C10.5703 20.2888 10.4415 20.1727 10.4255 20.0199L10.3854 19.6347C10.2123 17.9727 8.58621 16.8654 6.9763 17.3133L5.92401 17.606C5.79217 17.6427 5.65222 17.5855 5.58379 17.467L4.05763 14.8236C3.98912 14.705 4.00971 14.555 4.10765 14.4592L4.64897 13.9296C5.73148 12.8706 5.7315 11.1286 4.64902 10.0696L4.10792 9.54018C4.00998 9.44437 3.9894 9.29439 4.0579 9.17574ZM2.91908 10.7554C2.26619 10.1166 2.12898 9.11673 2.58566 8.32574L4.11073 5.68423C4.5674 4.89326 5.50191 4.51214 6.38149 4.75815L7.11029 4.96199C7.65037 5.11305 8.20907 4.79051 8.34832 4.24726L8.53607 3.51485C8.76285 2.63016 9.56013 2.01147 10.4734 2.01147H13.524C14.4372 2.01147 15.2344 2.63007 15.4613 3.51467L15.6493 4.24766C15.7886 4.79084 16.3472 5.11333 16.8872 4.96232L17.6155 4.75866C18.4951 4.51272 19.4295 4.89384 19.8862 5.68478L21.4114 8.3265C21.868 9.11743 21.7309 10.1172 21.0781 10.756L20.5376 11.2848C20.1368 11.677 20.1368 12.3221 20.5377 12.7143L21.0783 13.2433C21.7311 13.8821 21.8683 14.8819 21.4116 15.6729L19.8865 18.3145C19.4298 19.1054 18.4953 19.4865 17.6157 19.2405L16.8871 19.0367C16.3469 18.8857 15.7882 19.2083 15.649 19.7516L15.461 20.4852C15.2344 21.37 14.437 21.9888 13.5236 21.9888L10.7239 21.9888C9.69957 21.9888 8.84082 21.2149 8.73468 20.196L8.69456 19.8109C8.63043 19.1953 8.02819 18.7852 7.43193 18.9511L6.37963 19.2438C5.5007 19.4883 4.5677 19.1071 4.11155 18.317L2.58538 15.6736C2.12869 14.8826 2.26592 13.8827 2.91884 13.2439L3.46017 12.7144C3.86109 12.3222 3.8611 11.677 3.46018 11.2847L2.91908 10.7554ZM14.5139 11.9999C14.5139 13.388 13.3887 14.5133 12.0006 14.5133C10.6125 14.5133 9.48717 13.388 9.48717 11.9999C9.48717 10.6118 10.6125 9.48653 12.0006 9.48653C13.3887 9.48653 14.5139 10.6118 14.5139 11.9999ZM16.2139 11.9999C16.2139 14.3269 14.3275 16.2133 12.0006 16.2133C9.67357 16.2133 7.78717 14.3269 7.78717 11.9999C7.78717 9.67292 9.67357 7.78653 12.0006 7.78653C14.3275 7.78653 16.2139 9.67292 16.2139 11.9999Z" fill="#1A1A1A"/>
</svg>
