<svg width="24" height="24" viewBox="0 0 24 24" fill="none" xmlns="http://www.w3.org/2000/svg">
<path fill-rule="evenodd" clip-rule="evenodd" d="M13.8337 3.15039H10.1662C9.63491 3.15038 9.18549 3.15037 8.81714 3.18046C8.43107 3.21201 8.05979 3.2808 7.70608 3.46102C7.16982 3.73426 6.73382 4.17026 6.46058 4.70652C6.28036 5.06023 6.21157 5.43151 6.18002 5.81758C6.14993 6.18594 6.14994 6.63534 6.14995 7.16661V16.8342C6.14994 17.3654 6.14993 17.8148 6.18002 18.1832C6.21157 18.5693 6.28036 18.9406 6.46058 19.2943C6.73382 19.8305 7.16982 20.2665 7.70608 20.5398C8.05979 20.72 8.43107 20.7888 8.81714 20.8203C9.18551 20.8504 9.63493 20.8504 10.1662 20.8504H13.8337C14.365 20.8504 14.8144 20.8504 15.1828 20.8203C15.5688 20.7888 15.9401 20.72 16.2938 20.5398C16.8301 20.2665 17.2661 19.8305 17.5393 19.2943C17.7195 18.9406 17.7883 18.5693 17.8199 18.1832C17.85 17.8148 17.85 17.3654 17.85 16.8342V7.16662C17.85 6.63534 17.85 6.18594 17.8199 5.81758C17.7883 5.43151 17.7195 5.06023 17.5393 4.70652C17.2661 4.17026 16.8301 3.73426 16.2938 3.46102C15.9401 3.2808 15.5688 3.21201 15.1828 3.18046C14.8144 3.15037 14.365 3.15038 13.8337 3.15039ZM8.47786 4.97573C8.55198 4.93797 8.67463 4.89777 8.95557 4.87482C9.24644 4.85105 9.62587 4.85039 10.2 4.85039H13.8C14.374 4.85039 14.7535 4.85105 15.0443 4.87482C15.3253 4.89777 15.4479 4.93797 15.522 4.97573C15.7384 5.08599 15.9144 5.26192 16.0246 5.4783C16.0624 5.55242 16.1026 5.67507 16.1255 5.95601C16.1493 6.24688 16.15 6.62631 16.15 7.20039V16.8004C16.15 17.3745 16.1493 17.7539 16.1255 18.0448C16.1026 18.3257 16.0624 18.4484 16.0246 18.5225C15.9144 18.7389 15.7384 18.9148 15.522 19.0251C15.4479 19.0628 15.3253 19.103 15.0443 19.126C14.7535 19.1497 14.374 19.1504 13.8 19.1504H10.2C9.62587 19.1504 9.24644 19.1497 8.95557 19.126C8.67463 19.103 8.55198 19.0628 8.47786 19.0251C8.26148 18.9148 8.08555 18.7389 7.97529 18.5225C7.93753 18.4484 7.89733 18.3257 7.87438 18.0448C7.85061 17.7539 7.84995 17.3745 7.84995 16.8004V7.20039C7.84995 6.62631 7.85061 6.24688 7.87438 5.95601C7.89733 5.67507 7.93753 5.55242 7.97529 5.4783C8.08555 5.26192 8.26148 5.08599 8.47786 4.97573Z" fill="#1A1A1A"/>
<path d="M1.39911 6.39935C1.06716 6.7313 1.06716 7.26949 1.39911 7.60143L3.29806 9.50039L1.39911 11.3994C1.06716 11.7313 1.06716 12.2695 1.39911 12.6014L3.29806 14.5004L1.39911 16.3994C1.06716 16.7313 1.06716 17.2695 1.39911 17.6014C1.73105 17.9334 2.26924 17.9334 2.60119 17.6014L5.10119 15.1014C5.43313 14.7695 5.43313 14.2313 5.10119 13.8994L3.20223 12.0004L5.10119 10.1014C5.43313 9.76949 5.43313 9.2313 5.10119 8.89935L2.60119 6.39935C2.26924 6.0674 1.73105 6.0674 1.39911 6.39935Z" fill="#1A1A1A"/>
<path d="M22.601 6.39935C22.9329 6.7313 22.9329 7.26949 22.601 7.60143L20.702 9.50039L22.601 11.3994C22.9329 11.7313 22.9329 12.2695 22.601 12.6014L20.702 14.5004L22.601 16.3994C22.9329 16.7313 22.9329 17.2695 22.601 17.6014C22.269 17.9334 21.7309 17.9334 21.3989 17.6014L18.8989 15.1014C18.567 14.7695 18.567 14.2313 18.8989 13.8994L20.7979 12.0004L18.8989 10.1014C18.567 9.76949 18.567 9.2313 18.8989 8.89935L21.3989 6.39935C21.7309 6.0674 22.269 6.0674 22.601 6.39935Z" fill="#1A1A1A"/>
</svg>
