<svg width="24" height="24" viewBox="0 0 24 24" fill="none" xmlns="http://www.w3.org/2000/svg">
<path d="M16.5343 10.3543C16.8212 10.0674 16.8212 9.60232 16.5343 9.31546L13.4824 6.26355C13.1739 5.95506 12.6464 6.17354 12.6464 6.60982V8.36557H10.7069C9.07386 8.36557 7.75 9.68944 7.75 11.3225V13.2626L8.52217 12.1506C8.89056 11.6201 9.49546 11.3038 10.1413 11.3038H12.6464V13.0599C12.6464 13.4962 13.1739 13.7147 13.4824 13.4062L16.5343 10.3543Z" fill="#1A1A1A"/>
<path d="M8.9999 16.1504C8.53046 16.1504 8.1499 16.5309 8.1499 17.0004C8.1499 17.4698 8.53046 17.8504 8.9999 17.8504H14.9999C15.4693 17.8504 15.8499 17.4698 15.8499 17.0004C15.8499 16.5309 15.4693 16.1504 14.9999 16.1504H8.9999Z" fill="#1A1A1A"/>
<path fill-rule="evenodd" clip-rule="evenodd" d="M3.6499 7.50039C3.6499 4.26953 6.26904 1.65039 9.4999 1.65039H14.4999C17.7308 1.65039 20.3499 4.26953 20.3499 7.50039V16.5004C20.3499 19.7313 17.7308 22.3504 14.4999 22.3504H9.4999C6.26904 22.3504 3.6499 19.7313 3.6499 16.5004V7.50039ZM9.4999 3.35039C7.20792 3.35039 5.3499 5.20841 5.3499 7.50039V16.5004C5.3499 18.7924 7.20792 20.6504 9.4999 20.6504H14.4999C16.7919 20.6504 18.6499 18.7924 18.6499 16.5004V7.50039C18.6499 5.20841 16.7919 3.35039 14.4999 3.35039H9.4999Z" fill="#1A1A1A"/>
</svg>
