<svg width="24" height="24" viewBox="0 0 24 24" fill="none" xmlns="http://www.w3.org/2000/svg">
<path fill-rule="evenodd" clip-rule="evenodd" d="M13.8729 5.32896C13.8618 5.34461 13.8499 5.36888 13.8499 5.41426V9.00004C13.8499 9.46948 13.4693 9.85004 12.9999 9.85004H9.03817C6.17277 9.85004 3.8499 12.1729 3.8499 15.0383V16.2858L3.87856 16.2446C4.7897 14.9325 6.28577 14.15 7.88316 14.15H12.9999C13.4693 14.15 13.8499 14.5306 13.8499 15V18.5858C13.8499 18.6312 13.8618 18.6555 13.8729 18.6711C13.8866 18.6906 13.91 18.7109 13.9425 18.7244C13.975 18.7379 14.0059 18.74 14.0294 18.736C14.0483 18.7327 14.0739 18.724 14.106 18.6919L20.3382 12.4597C20.592 12.2058 20.592 11.7943 20.3382 11.5404L14.106 5.30819C14.0739 5.27611 14.0483 5.26738 14.0294 5.26411C14.0059 5.26004 13.975 5.26221 13.9425 5.27567C13.91 5.28914 13.8866 5.30946 13.8729 5.32896ZM12.1499 5.41426C12.1499 3.76608 14.1426 2.94067 15.3081 4.10611L21.5403 10.3383C22.458 11.2561 22.458 12.744 21.5403 13.6617L15.308 19.894C14.1426 21.0594 12.1499 20.234 12.1499 18.5858V15.85H7.88316C6.84275 15.85 5.86833 16.3597 5.27489 17.2143L3.69807 19.4849C3.48612 19.7901 3.10048 19.9222 2.74587 19.8112C2.39127 19.7001 2.1499 19.3716 2.1499 19V15.0383C2.1499 11.234 5.23389 8.15004 9.03817 8.15004H12.1499V5.41426Z" fill="#1A1A1A"/>
</svg>
