<svg width="24" height="24" viewBox="0 0 24 24" fill="none" xmlns="http://www.w3.org/2000/svg">
<path fill-rule="evenodd" clip-rule="evenodd" d="M13.371 4.43105C13.2007 4.26081 12.9097 4.38138 12.9097 4.62212V8.63935C12.9097 9.10879 12.5291 9.48935 12.0597 9.48935H9.31732C6.05055 9.48935 3.40249 12.1379 3.40313 15.4047L3.40329 16.2272C4.41354 15.1369 5.8367 14.5107 7.33428 14.5107H12.0597C12.5291 14.5107 12.9097 14.8912 12.9097 15.3607V19.3772C12.9097 19.6179 13.2007 19.7385 13.371 19.5683L20.3524 12.5868C20.6767 12.2625 20.6767 11.7368 20.3524 11.4125L13.371 4.43105ZM11.2097 4.62212C11.2097 2.86683 13.3319 1.9878 14.573 3.22896L21.5545 10.2104C22.5427 11.1986 22.5427 12.8007 21.5545 13.7889L14.573 20.7703C13.3319 22.0115 11.2097 21.1325 11.2097 19.3772V16.2107H7.33428C6.22632 16.2107 5.17801 16.7126 4.48337 17.5758L3.21595 19.1507C2.98993 19.4315 2.61133 19.5393 2.27131 19.4195C1.9313 19.2997 1.70382 18.9784 1.70375 18.6179L1.70313 15.405C1.7023 11.1993 5.11153 7.78935 9.31732 7.78935H11.2097V4.62212Z" fill="#1A1A1A"/>
</svg>
