<svg width="24" height="24" viewBox="0 0 24 24" fill="none" xmlns="http://www.w3.org/2000/svg">
<path fill-rule="evenodd" clip-rule="evenodd" d="M6.8698 5.66723C8.27061 4.53112 10.0558 3.85039 11.9999 3.85039C16.501 3.85039 20.1499 7.49927 20.1499 12.0004C20.1499 13.9445 19.4692 15.7297 18.3331 17.1305L6.8698 5.66723ZM5.66762 6.86921C4.53098 8.27018 3.8499 10.0557 3.8499 12.0004C3.8499 16.5015 7.49878 20.1504 11.9999 20.1504C13.9445 20.1504 15.7301 19.4693 17.1311 18.3327L5.66762 6.86921ZM11.9999 2.15039C6.5599 2.15039 2.1499 6.56039 2.1499 12.0004C2.1499 17.4404 6.5599 21.8504 11.9999 21.8504C17.4399 21.8504 21.8499 17.4404 21.8499 12.0004C21.8499 6.56039 17.4399 2.15039 11.9999 2.15039Z" fill="#1A1A1A"/>
</svg>
