<svg width="24" height="24" viewBox="0 0 24 24" fill="none" xmlns="http://www.w3.org/2000/svg">
<path d="M10.0271 5.35C10.805 5.35 11.0191 5.35846 11.2016 5.4132C11.388 5.46916 11.5618 5.56093 11.7132 5.68339C11.8612 5.80319 11.9889 5.97524 12.4276 6.61774L12.7151 7.03888L12.7278 7.05776C12.775 7.12837 12.8802 7.28568 13.0294 7.40642C13.1548 7.5079 13.2988 7.58396 13.4534 7.63033C13.6372 7.68551 13.8265 7.68369 13.9114 7.68287L13.9342 7.68271H17.411C18.1283 7.68271 18.6152 7.68337 18.9914 7.71411C19.3577 7.74403 19.5435 7.79817 19.6723 7.86382C19.985 8.02313 20.2392 8.27732 20.3985 8.58998C20.4641 8.71881 20.5183 8.90465 20.5482 9.2709C20.5789 9.64708 20.5796 10.134 20.5796 10.8513V13.1664C20.5796 13.6358 20.9601 14.0164 21.4296 14.0164C21.899 14.0164 22.2796 13.6358 22.2796 13.1664V10.8163C22.2796 10.1428 22.2796 9.5861 22.2425 9.13247C22.204 8.66108 22.1213 8.22662 21.9132 7.81819C21.5909 7.18566 21.0766 6.6714 20.4441 6.34911C20.0357 6.141 19.6012 6.05827 19.1298 6.01975C18.6762 5.98269 18.1196 5.9827 17.446 5.98271L14.0524 5.98271L13.7715 5.57118C13.4214 5.0576 13.1496 4.65882 12.7824 4.36178C12.4593 4.10034 12.0883 3.9044 11.6902 3.78493C11.2379 3.6492 10.7552 3.64953 10.1337 3.64995L7.41317 3.65C6.73963 3.64999 6.18297 3.64998 5.72935 3.68704C5.25796 3.72555 4.8235 3.80829 4.41507 4.01639C3.78254 4.33868 3.26828 4.85295 2.94599 5.48548C2.73788 5.89391 2.65515 6.32837 2.61663 6.79975C2.57957 7.25337 2.57958 7.81002 2.57959 8.48356V15.5164C2.57958 16.19 2.57957 16.7466 2.61663 17.2002C2.65515 17.6716 2.73788 18.1061 2.94599 18.5145C3.26828 19.147 3.78254 19.6613 4.41507 19.9836C4.8235 20.1917 5.25796 20.2744 5.72935 20.313C6.18297 20.35 6.73963 20.35 7.41317 20.35H11.4296C11.899 20.35 12.2796 19.9694 12.2796 19.5C12.2796 19.0306 11.899 18.65 11.4296 18.65H7.44819C6.73085 18.65 6.24396 18.6493 5.86778 18.6186C5.50153 18.5887 5.31569 18.5345 5.18686 18.4689C4.8742 18.3096 4.62 18.0554 4.4607 17.7427C4.39505 17.6139 4.34091 17.4281 4.31099 17.0618C4.28025 16.6856 4.27959 16.1987 4.27959 15.4814V8.5186C4.27959 7.80125 4.28025 7.31436 4.31099 6.93819C4.34091 6.57193 4.39505 6.3861 4.4607 6.25726C4.62 5.94461 4.8742 5.69041 5.18686 5.5311C5.31569 5.46546 5.50153 5.41132 5.86778 5.38139C6.24396 5.35066 6.73085 5.35 7.4482 5.35H10.0271Z" fill="#1A1A1A"/>
<path d="M18.2797 15.1499C18.7491 15.1499 19.1297 15.5305 19.1297 15.9999V18.1499H21.2797C21.7491 18.1499 22.1297 18.5304 22.1297 18.9999C22.1297 19.4693 21.7491 19.8499 21.2797 19.8499H19.1297V21.9999C19.1297 22.4693 18.7491 22.8499 18.2797 22.8499C17.8102 22.8499 17.4297 22.4693 17.4297 21.9999V19.8499H15.2797C14.8102 19.8499 14.4297 19.4693 14.4297 18.9999C14.4297 18.5304 14.8102 18.1499 15.2797 18.1499H17.4297V15.9999C17.4297 15.5305 17.8102 15.1499 18.2797 15.1499Z" fill="#1A1A1A"/>
</svg>
