<svg width="24" height="24" viewBox="0 0 24 24" fill="none" xmlns="http://www.w3.org/2000/svg">
<path d="M6.85618 9.5C6.38278 9.5 5.99902 9.88376 5.99902 10.3571V11.1429C5.99902 11.6163 6.38278 12 6.85618 12H7.6419C8.11529 12 8.49905 11.6163 8.49905 11.1429V10.3571C8.49905 9.88376 8.11529 9.5 7.6419 9.5H6.85618Z" fill="#1A1A1A"/>
<path d="M11.6062 9.5C11.1328 9.5 10.7491 9.88376 10.7491 10.3571V11.1429C10.7491 11.6163 11.1328 12 11.6062 12H12.392C12.8653 12 13.2491 11.6163 13.2491 11.1429V10.3571C13.2491 9.88376 12.8653 9.5 12.392 9.5H11.6062Z" fill="#1A1A1A"/>
<path d="M17.142 9.5C17.6154 9.5 17.9992 9.88376 17.9992 10.3571V11.1429C17.9992 11.6163 17.6154 12 17.142 12H16.3563C15.8829 12 15.4991 11.6163 15.4991 11.1429V10.3571C15.4991 9.88376 15.8829 9.5 16.3563 9.5H17.142Z" fill="#1A1A1A"/>
<path fill-rule="evenodd" clip-rule="evenodd" d="M6.99844 2.65039C4.31986 2.65039 2.14844 4.82181 2.14844 7.50039V13.5004C2.14844 16.179 4.31986 18.3504 6.99844 18.3504H8.44462L10.7468 20.8133C11.4216 21.5351 12.5664 21.5351 13.2411 20.8133L15.5433 18.3504H16.9984C19.677 18.3504 21.8484 16.179 21.8484 13.5004V7.50039C21.8484 4.82181 19.677 2.65039 16.9984 2.65039H6.99844ZM3.84844 7.50039C3.84844 5.76069 5.25874 4.35039 6.99844 4.35039H16.9984C18.7381 4.35039 20.1484 5.76069 20.1484 7.50039V13.5004C20.1484 15.2401 18.7381 16.6504 16.9984 16.6504H15.1743C14.939 16.6504 14.7141 16.748 14.5534 16.9199L11.9992 19.6524L11.9977 19.6538C11.9975 19.6539 11.9959 19.6547 11.994 19.6547C11.992 19.6547 11.9909 19.6543 11.9907 19.6542L11.9888 19.6524L9.43456 16.9199C9.27383 16.748 9.04899 16.6504 8.81361 16.6504H6.99844C5.25874 16.6504 3.84844 15.2401 3.84844 13.5004V7.50039Z" fill="#1A1A1A"/>
</svg>
