<svg width="24" height="24" viewBox="0 0 24 24" fill="none" xmlns="http://www.w3.org/2000/svg">
<path fill-rule="evenodd" clip-rule="evenodd" d="M2.41228 5.05673C1.67753 3.67936 2.6525 2 4.18689 2H18.8558C20.3821 2 21.3519 3.67046 20.621 5.04053C19.2436 7.62275 17.2306 9.79241 14.7812 11.3348L14.7448 11.3577L14.7858 19.1024C14.7881 19.5366 14.7901 19.9199 14.7643 20.226C14.7382 20.5352 14.6757 20.9118 14.4431 21.2383C14.1367 21.6683 13.6647 21.9433 13.1468 21.9935C12.7535 22.0317 12.4048 21.8946 12.1313 21.7599C11.8607 21.6266 11.5394 21.4295 11.1753 21.2061L10.0651 20.525C9.59653 20.2382 9.21065 20.0019 8.92066 19.6647C8.66597 19.3685 8.47393 19.0217 8.35659 18.646C8.22299 18.2183 8.22342 17.7584 8.22393 17.2L8.224 11.3556L8.20895 11.346C5.78021 9.79384 3.78375 7.62773 2.41228 5.05673ZM4.18689 3.70629C3.91915 3.70629 3.74902 3.99933 3.87723 4.23967C5.11135 6.55319 6.90786 8.50236 9.09336 9.89906L9.50056 10.1593C9.74451 10.3152 9.89271 10.5886 9.89271 10.8828V17.0939C9.89271 17.8134 9.90208 17.9856 9.94621 18.1269C9.99355 18.2785 10.071 18.4185 10.1738 18.538C10.2696 18.6494 10.4093 18.7462 11.0126 19.1164L12.0019 19.7234C12.4075 19.9722 12.6624 20.1276 12.8556 20.2227C12.9411 20.2649 12.9911 20.2828 13.0146 20.2901C13.0381 20.2834 13.0597 20.2708 13.0773 20.2535C13.0831 20.2292 13.0936 20.176 13.1018 20.0793C13.1202 19.8609 13.1194 19.5574 13.1169 19.0738L13.0736 10.8874C13.072 10.5896 13.2224 10.3125 13.4704 10.1563L13.9062 9.88191C16.1081 8.49533 17.9178 6.54484 19.1561 4.22347C19.2804 3.99043 19.1154 3.70629 18.8558 3.70629H4.18689Z" fill="#1A1A1A"/>
<path d="M16.0767 14.8976C16.0767 14.4264 16.4503 14.0444 16.9111 14.0444H21.3282C21.789 14.0444 22.1626 14.4264 22.1626 14.8976C22.1626 15.3687 21.789 15.7507 21.3282 15.7507H16.9111C16.4503 15.7507 16.0767 15.3687 16.0767 14.8976Z" fill="#1A1A1A"/>
<path d="M16.9111 18.0592C16.4503 18.0592 16.0767 18.4412 16.0767 18.9124C16.0767 19.3836 16.4503 19.7655 16.9111 19.7655H21.3282C21.789 19.7655 22.1626 19.3836 22.1626 18.9124C22.1626 18.4412 21.789 18.0592 21.3282 18.0592H16.9111Z" fill="#1A1A1A"/>
</svg>
