<svg width="24" height="24" viewBox="0 0 24 24" fill="none" xmlns="http://www.w3.org/2000/svg">
<path d="M9.5634 3.15039H15.9999C16.4693 3.15039 16.8499 3.53095 16.8499 4.00039C16.8499 4.46983 16.4693 4.85039 15.9999 4.85039H9.5999C8.60578 4.85039 7.91132 4.85105 7.37033 4.89525C6.83926 4.93864 6.53138 5.01972 6.29683 5.13922C5.7982 5.39329 5.3928 5.79869 5.13874 6.29732C5.01923 6.53186 4.93815 6.83975 4.89476 7.37082C4.85056 7.91181 4.8499 8.60627 4.8499 9.60039V14.4004C4.8499 15.3945 4.85056 16.089 4.89476 16.63C4.93815 17.161 5.01923 17.4689 5.13874 17.7035C5.3928 18.2021 5.7982 18.6075 6.29683 18.8616C6.53138 18.9811 6.83926 19.0621 7.37033 19.1055C7.91132 19.1497 8.60578 19.1504 9.5999 19.1504H15.9999C16.4693 19.1504 16.8499 19.5309 16.8499 20.0004C16.8499 20.4698 16.4693 20.8504 15.9999 20.8504H9.56346C8.61435 20.8504 7.85025 20.8504 7.23189 20.7999C6.5957 20.7479 6.03919 20.6382 5.52504 20.3763C4.70654 19.9592 4.04107 19.2938 3.62402 18.4752C3.36206 17.9611 3.25239 17.4046 3.20041 16.7684C3.14989 16.15 3.14989 15.386 3.1499 14.4369V9.56389C3.14989 8.61477 3.14989 7.85075 3.20041 7.23238C3.25239 6.59618 3.36206 6.03968 3.62402 5.52553C4.04107 4.70703 4.70654 4.04156 5.52504 3.62451C6.03919 3.36254 6.5957 3.25288 7.23189 3.2009C7.85026 3.15038 8.61428 3.15038 9.5634 3.15039Z" fill="#1A1A1A"/>
<path d="M18.9478 12.8496L16.3989 15.3986C16.0669 15.7305 16.0669 16.2687 16.3989 16.6006C16.7308 16.9326 17.269 16.9326 17.6009 16.6006L20.8938 13.3078C21.6163 12.5853 21.6163 11.4139 20.8938 10.6915L17.6009 7.39857C17.269 7.06662 16.7308 7.06662 16.3989 7.39857C16.0669 7.73051 16.0669 8.2687 16.3989 8.60065L18.9478 11.1496H10.5001C10.0307 11.1496 9.6501 11.5302 9.6501 11.9996C9.6501 12.4691 10.0307 12.8496 10.5001 12.8496H18.9478Z" fill="#1A1A1A"/>
</svg>
