<svg width="24" height="24" viewBox="0 0 24 24" fill="none" xmlns="http://www.w3.org/2000/svg">
<path d="M22.7536 6.42358C23.3573 7.09764 23.9049 7.91072 23.9724 8.74436L23.9779 8.81226L23.9725 8.88017C23.8525 10.3916 22.9507 11.4351 22.0841 12.0737C21.6479 12.3952 21.2009 12.6303 20.8193 12.7885C20.465 12.9354 20.0882 13.049 19.8012 13.062C19.6893 13.0671 19.5831 13.057 19.4841 13.0374C19.4922 13.1499 19.5002 13.2637 19.508 13.3784C18.9676 13.1664 18.3855 13.0375 17.7774 13.0073C17.7296 12.3621 17.6775 11.7639 17.6292 11.2708L17.3142 8.05628L19.1707 10.6994C19.267 10.8364 19.4388 11.0472 19.6183 11.2106C19.6889 11.2749 19.7475 11.3197 19.7911 11.3479C19.8629 11.3296 19.9906 11.2918 20.1681 11.2182C20.4392 11.1057 20.7633 10.9353 21.0756 10.7052C21.6864 10.255 22.179 9.6363 22.2703 8.82379C22.2246 8.5663 22.0023 8.1328 21.4873 7.55773C20.9622 6.97147 20.237 6.35259 19.4344 5.78507C18.6339 5.21908 17.7823 4.72241 17.0188 4.37165C16.4724 4.12067 16.0201 3.96744 15.6856 3.89685C15.5662 4.18179 15.3081 4.74023 14.8124 5.24954C14.205 5.87353 13.2764 6.39069 11.928 6.37537C10.5592 6.35981 9.65864 5.7765 9.10353 5.12219C8.69599 4.64181 8.48898 4.13642 8.39919 3.88325C8.31176 3.89499 8.20469 3.9125 8.08016 3.93826C7.68893 4.01921 7.13146 4.18038 6.47324 4.4953C5.1848 5.11175 3.48233 6.33053 1.87759 8.74629C1.89168 8.80009 1.918 8.8783 1.96429 8.98207C2.10236 9.29157 2.35306 9.68543 2.66864 10.0824C2.98187 10.4765 3.32836 10.8351 3.63275 11.0837C3.78563 11.2086 3.90986 11.2908 3.99917 11.3372C4.0176 11.3467 4.0324 11.3537 4.04374 11.3586C4.17031 11.3399 4.32461 11.2713 4.49437 11.1401C4.68584 10.9921 4.82803 10.8167 4.88601 10.7269L6.67001 7.96346L6.4482 11.2452C6.36116 12.5331 6.25255 14.4809 6.20922 16.1389C6.18749 16.9702 6.18259 17.7139 6.20342 18.2609C6.21395 18.5374 6.23033 18.7415 6.24972 18.8736L6.25069 18.8801C6.28829 18.9071 6.34536 18.9435 6.42628 18.9878C6.63895 19.1041 6.95334 19.2401 7.36081 19.3782C8.17217 19.6531 9.27904 19.9116 10.5198 20.046C11.0824 20.1069 11.6632 20.1414 12.2492 20.1421C12.4405 20.7544 12.7358 21.3207 13.1146 21.8202C12.1504 21.8702 11.2077 21.8304 10.3367 21.7361C8.9806 21.5892 7.75154 21.3055 6.81524 20.9883C6.34888 20.8302 5.93652 20.6576 5.61041 20.4792C5.44779 20.3903 5.29064 20.2912 5.15417 20.1813C5.05084 20.0981 4.91996 19.9777 4.8159 19.8165C4.70532 19.6681 4.65946 19.521 4.64287 19.4678L4.64255 19.4668C4.60653 19.3513 4.58373 19.2295 4.56774 19.1205C4.53517 18.8986 4.516 18.6236 4.50465 18.3256C4.48173 17.7236 4.48778 16.9369 4.5098 16.0945C4.53623 15.0832 4.58631 13.9704 4.64111 12.9608C4.46045 13.0168 4.26585 13.054 4.05911 13.0622C3.7251 13.0756 3.426 12.955 3.21624 12.8461C2.98943 12.7285 2.76581 12.5706 2.55737 12.4003C2.1391 12.0587 1.70902 11.6072 1.33788 11.1403C0.969081 10.6763 0.627601 10.1585 0.411759 9.67463C0.304716 9.43467 0.211684 9.16598 0.177648 8.89373C0.145212 8.63429 0.154106 8.26397 0.380513 7.92867C2.1768 5.17801 4.15029 3.72216 5.73953 2.96179C6.53131 2.58296 7.22072 2.38007 7.73573 2.27352C7.99298 2.2203 8.20827 2.19078 8.37289 2.17553C8.45492 2.16793 8.52702 2.16363 8.58759 2.16195C8.62514 2.16091 8.71713 2.15851 8.80784 2.17146C9.35746 2.24998 9.78188 2.68238 9.95242 3.16962C9.95733 3.18365 9.96268 3.19953 9.9686 3.21708C10.0256 3.38619 10.1349 3.71006 10.3999 4.0224C10.6666 4.33685 11.116 4.66603 11.9473 4.67548C12.7989 4.68515 13.289 4.37732 13.5942 4.06381C13.9143 3.73494 14.0667 3.36405 14.1561 3.14648L14.1642 3.12678C14.2627 2.88758 14.3835 2.6869 14.5269 2.52918C14.6411 2.40357 14.8616 2.20443 15.1799 2.15896L15.2372 2.15079L15.295 2.15044C16.0089 2.14614 16.8884 2.44097 17.7284 2.82685C18.5992 3.22687 19.5413 3.77863 20.4159 4.39702C21.2883 5.01388 22.1193 5.71531 22.7536 6.42358Z" fill="#1A1A1A"/>
<path fill-rule="evenodd" clip-rule="evenodd" d="M15.1648 21.7594C15.5421 22.0308 15.9638 22.2342 16.411 22.3604L17.0343 21.8417C17.1651 21.7329 17.3299 21.6733 17.5 21.6733C17.6701 21.6733 17.8349 21.7329 17.9657 21.8417L18.589 22.3602C19.0362 22.234 19.4579 22.0307 19.8352 21.7594L19.8184 20.9495C19.8149 20.7794 19.871 20.6134 19.9771 20.4804C20.0832 20.3474 20.2325 20.2557 20.3991 20.2213L21.1932 20.0573C21.3734 19.6289 21.4772 19.1724 21.5 18.7083L20.8566 18.2167C20.7214 18.1134 20.6267 17.966 20.5888 17.8001C20.551 17.6342 20.5724 17.4602 20.6495 17.3085L21.0161 16.5857C20.793 16.1781 20.5009 15.8123 20.1528 15.5044L19.3675 15.701C19.2024 15.7423 19.0281 15.7245 18.8748 15.6506C18.7215 15.5768 18.5988 15.4516 18.5282 15.2968L18.1918 14.5595C17.967 14.5204 17.7359 14.5 17.5002 14.5C17.2683 14.4999 17.0368 14.5198 16.8084 14.5595L16.472 15.2968C16.4013 15.4516 16.2787 15.5768 16.1254 15.6506C15.9721 15.7245 15.7978 15.7423 15.6327 15.701L14.8472 15.5044C14.4991 15.8123 14.207 16.1781 13.9839 16.5857L14.3507 17.3085C14.4277 17.4602 14.4492 17.6342 14.4113 17.8001C14.3734 17.966 14.2786 18.1134 14.1434 18.2167L13.5 18.7083C13.5228 19.1724 13.6266 19.6289 13.8068 20.0573L14.601 20.2215C14.7677 20.2559 14.917 20.3476 15.0231 20.4806C15.1291 20.6136 15.1853 20.7796 15.1818 20.9497L15.1648 21.7594ZM18.7602 18.4314C18.7602 19.1281 18.1961 19.6929 17.5002 19.6929C16.8044 19.6929 16.2402 19.1281 16.2402 18.4314C16.2402 17.7347 16.8044 17.1699 17.5002 17.1699C18.1961 17.1699 18.7602 17.7347 18.7602 18.4314Z" fill="#1A1A1A"/>
</svg>
