<svg width="24" height="24" viewBox="0 0 24 24" fill="none" xmlns="http://www.w3.org/2000/svg">
<path d="M2.9999 5.15039C2.53046 5.15039 2.1499 5.53095 2.1499 6.00039C2.1499 6.46983 2.53046 6.85039 2.9999 6.85039H14.9999C15.4693 6.85039 15.8499 6.46983 15.8499 6.00039C15.8499 5.53095 15.4693 5.15039 14.9999 5.15039H2.9999Z" fill="#1A1A1A"/>
<path d="M2.9999 11.1504C2.53046 11.1504 2.1499 11.5309 2.1499 12.0004C2.1499 12.4698 2.53046 12.8504 2.9999 12.8504H14.9999C15.4693 12.8504 15.8499 12.4698 15.8499 12.0004C15.8499 11.5309 15.4693 11.1504 14.9999 11.1504H2.9999Z" fill="#1A1A1A"/>
<path d="M2.1499 18.0004C2.1499 17.5309 2.53046 17.1504 2.9999 17.1504H14.9999C15.4693 17.1504 15.8499 17.5309 15.8499 18.0004C15.8499 18.4698 15.4693 18.8504 14.9999 18.8504H2.9999C2.53046 18.8504 2.1499 18.4698 2.1499 18.0004Z" fill="#1A1A1A"/>
<path d="M20.3991 8.85016C20.731 9.1821 21.2692 9.1821 21.6011 8.85016C21.9331 8.51821 21.9331 7.98002 21.6011 7.64807L19.7047 5.75163C18.8542 4.90118 17.4001 5.5035 17.4001 6.70622V18.9991C17.4001 19.4686 17.7807 19.8491 18.2501 19.8491C18.7195 19.8491 19.1001 19.4686 19.1001 18.9991V7.5512L20.3991 8.85016Z" fill="#1A1A1A"/>
</svg>
