<svg width="24" height="24" viewBox="0 0 24 24" fill="none" xmlns="http://www.w3.org/2000/svg">
<path fill-rule="evenodd" clip-rule="evenodd" d="M11.9201 4.4C10.1804 4.4 8.77007 5.8103 8.77007 7.55C8.77007 9.28969 10.1804 10.7 11.9201 10.7C13.6598 10.7 15.0701 9.28969 15.0701 7.55C15.0701 5.8103 13.6598 4.4 11.9201 4.4ZM7.07007 7.55C7.07007 4.87142 9.24149 2.7 11.9201 2.7C14.5986 2.7 16.7701 4.87142 16.7701 7.55C16.7701 10.2286 14.5986 12.4 11.9201 12.4C9.24149 12.4 7.07007 10.2286 7.07007 7.55Z" fill="#1A1A1A"/>
<path fill-rule="evenodd" clip-rule="evenodd" d="M16.9197 14.9127L16.8216 14.8153C15.929 13.9285 14.4818 13.9285 13.5891 14.8153C12.6965 15.7021 12.6965 17.1399 13.5891 18.0267L16.3553 20.7748C16.6674 21.0849 17.172 21.0849 17.4841 20.7748L20.2502 18.0267C21.1428 17.1399 21.1428 15.7021 20.2502 14.8153C19.3576 13.9285 17.9103 13.9285 17.0177 14.8153L16.9197 14.9127Z" fill="#1A1A1A"/>
<path fill-rule="evenodd" clip-rule="evenodd" d="M17.4841 20.7748L20.2502 18.0267C21.1428 17.1399 21.1428 15.7021 20.2502 14.8153C19.3576 13.9285 17.9103 13.9285 17.0177 14.8153L16.9197 14.9127L16.8216 14.8153C15.929 13.9285 14.4818 13.9285 13.5891 14.8153C12.6965 15.7021 12.6965 17.1399 13.5891 18.0267L16.3553 20.7748C16.6674 21.0849 17.172 21.0849 17.4841 20.7748Z" fill="#1A1A1A"/>
<path fill-rule="evenodd" clip-rule="evenodd" d="M4.77007 19.55C4.77007 17.2579 6.62765 15.4 8.9195 15.4H10.4201C10.8895 15.4 11.2701 15.0194 11.2701 14.55C11.2701 14.0806 10.8895 13.7 10.4201 13.7H8.9195C5.68851 13.7 3.07007 16.3193 3.07007 19.55C3.07007 20.5717 3.89834 21.4 4.92007 21.4H10.4201C10.8895 21.4 11.2701 21.0194 11.2701 20.55C11.2701 20.0806 10.8895 19.7 10.4201 19.7H4.92007C4.83723 19.7 4.77007 19.6328 4.77007 19.55Z" fill="#1A1A1A"/>
</svg>
