<svg width="24" height="24" viewBox="0 0 24 24" fill="none" xmlns="http://www.w3.org/2000/svg">
<path d="M6.18926 11.0293C6.18926 10.5599 5.8087 10.1793 5.33926 10.1793C4.86982 10.1793 4.48926 10.5599 4.48926 11.0293V11.3887C4.48926 15.2495 7.40218 18.4299 11.1501 18.8521V20.8302C11.1501 21.2997 11.5307 21.6802 12.0001 21.6802C12.4696 21.6802 12.8501 21.2997 12.8501 20.8302V18.2559C12.8501 18.2211 12.8481 18.1867 12.844 18.153C12.8481 18.1191 12.8502 18.0847 12.8502 18.0497C12.8502 17.5802 12.4696 17.1997 12.0002 17.1997C8.7909 17.1997 6.18926 14.598 6.18926 11.3887V11.0293Z" fill="#1A1A1A"/>
<path fill-rule="evenodd" clip-rule="evenodd" d="M15.665 21.7594C16.0422 22.0308 16.4639 22.2342 16.9111 22.3604L17.5344 21.8417C17.6652 21.7329 17.83 21.6734 18.0001 21.6734C18.1703 21.6734 18.335 21.7329 18.4658 21.8417L19.0891 22.3602C19.5363 22.2341 19.9581 22.0307 20.3353 21.7594L20.3185 20.9495C20.315 20.7794 20.3712 20.6134 20.4772 20.4804C20.5833 20.3474 20.7326 20.2557 20.8993 20.2213L21.6934 20.0573C21.8735 19.6289 21.9773 19.1724 22.0001 18.7083L21.3568 18.2168C21.2215 18.1134 21.1268 17.966 21.0889 17.8001C21.0511 17.6342 21.0725 17.4603 21.1496 17.3085L21.5162 16.5858C21.2931 16.1781 21.001 15.8123 20.653 15.5044L19.8676 15.701C19.7025 15.7423 19.5282 15.7245 19.3749 15.6507C19.2216 15.5768 19.099 15.4517 19.0283 15.2969L18.6919 14.5596C18.4671 14.5204 18.2361 14.5 18.0003 14.5C17.7684 14.4999 17.537 14.5198 17.3085 14.5596L16.9721 15.2969C16.9015 15.4517 16.7788 15.5768 16.6255 15.6507C16.4722 15.7245 16.2979 15.7423 16.1328 15.701L15.3473 15.5044C14.9992 15.8123 14.7071 16.1781 14.484 16.5858L14.8508 17.3085C14.9279 17.4603 14.9493 17.6342 14.9114 17.8001C14.8735 17.966 14.7787 18.1135 14.6435 18.2168L14.0001 18.7083C14.0229 19.1724 14.1268 19.6289 14.3069 20.0573L15.1012 20.2215C15.2678 20.2559 15.4171 20.3476 15.5232 20.4806C15.6293 20.6136 15.6854 20.7796 15.6819 20.9497L15.665 21.7594ZM19.2604 18.4314C19.2604 19.1282 18.6962 19.6929 18.0004 19.6929C17.3045 19.6929 16.7404 19.1282 16.7404 18.4314C16.7404 17.7347 17.3045 17.1699 18.0004 17.1699C18.6962 17.1699 19.2604 17.7347 19.2604 18.4314Z" fill="#1A1A1A"/>
<path fill-rule="evenodd" clip-rule="evenodd" d="M12.0108 1.94989C9.64388 1.94989 7.7251 3.86867 7.7251 6.2356V11.3785C7.7251 13.7454 9.64388 15.6642 12.0108 15.6642C14.3777 15.6642 16.2965 13.7454 16.2965 11.3785V6.2356C16.2965 3.86867 14.3777 1.94989 12.0108 1.94989ZM14.5965 11.3785V6.2356C14.5965 4.80755 13.4389 3.64989 12.0108 3.64989C10.5828 3.64989 9.4251 4.80755 9.4251 6.2356V11.3785C9.4251 12.8065 10.5828 13.9642 12.0108 13.9642C13.4389 13.9642 14.5965 12.8065 14.5965 11.3785Z" fill="#1A1A1A"/>
</svg>
