<svg width="24" height="24" viewBox="0 0 24 24" fill="none" xmlns="http://www.w3.org/2000/svg">
<path fill-rule="evenodd" clip-rule="evenodd" d="M3.31937 8.18743L5.26266 7.87871L6.74801 9.36406L3.77979 9.83561L7.50109 13.5575C7.69335 13.7498 7.78201 14.0225 7.7396 14.2911L6.91895 19.4883L11.6149 17.102C11.8569 16.979 12.1431 16.979 12.3851 17.102L16.6565 19.2725L18.1922 20.8083C18.2146 20.8307 18.2375 20.8524 18.2607 20.8734C17.799 21.2734 17.1159 21.4129 16.4855 21.0926L12 18.8132L7.51445 21.0926C6.35 21.6843 5.00548 20.7068 5.2092 19.4166L5.9929 14.4535L2.43894 10.8989C1.5149 9.97469 2.02865 8.39248 3.31937 8.18743ZM8.8717 6.25516L10.1352 7.51866L12 3.86863L14.395 8.5565C14.5186 8.79838 14.7504 8.96664 15.0186 9.00926L20.2202 9.83561L16.4989 13.5575C16.4434 13.6131 16.3965 13.6754 16.3589 13.7423L18.1828 15.5663L18.0071 14.4535L21.5611 10.8989C22.4851 9.97469 21.9713 8.39248 20.6806 8.18743L15.7122 7.39813L13.4248 2.92089C12.8308 1.75814 11.1692 1.75814 10.5752 2.92089L8.8717 6.25516ZM5.10094 3.89935C4.769 3.5674 4.23081 3.5674 3.89886 3.89935C3.56692 4.2313 3.56692 4.76949 3.89886 5.10143L19.8989 21.1014C20.2308 21.4334 20.769 21.4334 21.1009 21.1014C21.4329 20.7695 21.4329 20.2313 21.1009 19.8993L5.10094 3.89935Z" fill="#1A1A1A"/>
</svg>
