<svg width="24" height="24" viewBox="0 0 24 24" fill="none" xmlns="http://www.w3.org/2000/svg">
<path d="M10.7167 11.5498C10.5608 11.2266 10.1004 11.2266 9.94455 11.5498L9.31057 12.8649C9.26846 12.9523 9.19798 13.0228 9.11062 13.0649L7.79552 13.6989C7.47223 13.8547 7.47223 14.3151 7.79552 14.471L9.11062 15.105C9.19798 15.1471 9.26846 15.2176 9.31057 15.3049L9.94455 16.62C10.1004 16.9433 10.5608 16.9433 10.7167 16.62L11.3506 15.3049C11.3927 15.2176 11.4632 15.1471 11.5506 15.105L12.8657 14.471C13.189 14.3151 13.189 13.8547 12.8657 13.6989L11.5506 13.0649C11.4632 13.0228 11.3927 12.9523 11.3506 12.8649L10.7167 11.5498Z" fill="#1A1A1A"/>
<path fill-rule="evenodd" clip-rule="evenodd" d="M2.14795 12C2.14795 6.56002 6.55794 2.15002 11.9979 2.15002C12.9719 2.15002 13.9142 2.29163 14.8048 2.55594C15.4956 2.76098 16.067 3.16696 16.52 3.61988L20.3781 7.47801C20.831 7.93093 21.237 8.50234 21.442 9.19321C21.7063 10.0838 21.8479 11.0261 21.8479 12C21.8479 17.44 17.438 21.85 11.9979 21.85C6.55794 21.85 2.14795 17.44 2.14795 12ZM11.9979 3.85002C7.49683 3.85002 3.84795 7.4989 3.84795 12C3.84795 16.5011 7.49683 20.15 11.9979 20.15C16.4991 20.15 20.1479 16.5011 20.1479 12C20.1479 11.6281 20.1231 11.2623 20.075 10.9041H15.6338C14.2274 10.9041 13.0942 9.75958 13.0942 8.35638V3.92303C12.7359 3.8749 12.37 3.85002 11.9979 3.85002ZM14.7942 4.40101V8.35638C14.7942 8.82838 15.174 9.20405 15.6338 9.20405H19.5972C19.4863 9.02397 19.3447 8.84879 19.176 8.68009L15.3179 4.82196C15.1493 4.65336 14.9742 4.51185 14.7942 4.40101Z" fill="#1A1A1A"/>
</svg>
