<svg width="24" height="24" viewBox="0 0 24 24" fill="none" xmlns="http://www.w3.org/2000/svg">
<path d="M10.8499 8.9999C10.8499 8.53046 10.4693 8.1499 9.9999 8.1499C9.53046 8.1499 9.1499 8.53046 9.1499 8.9999V10.4999C9.1499 10.9693 9.53046 11.3499 9.9999 11.3499C10.4693 11.3499 10.8499 10.9693 10.8499 10.4999V8.9999Z" fill="#1A1A1A"/>
<path d="M14.8499 8.9999C14.8499 8.53046 14.4693 8.1499 13.9999 8.1499C13.5305 8.1499 13.1499 8.53046 13.1499 8.9999V10.4999C13.1499 10.9693 13.5305 11.3499 13.9999 11.3499C14.4693 11.3499 14.8499 10.9693 14.8499 10.4999V8.9999Z" fill="#1A1A1A"/>
<path fill-rule="evenodd" clip-rule="evenodd" d="M15.219 3.2312C16.2213 1.828 18.429 2.43821 18.5683 4.15698L19.3786 14.1499H20.3228C21.2205 14.1499 21.8781 14.9954 21.657 15.8655L20.9876 18.4999L21.657 21.1343C21.8781 22.0044 21.2205 22.8499 20.3228 22.8499H5.10619C3.47348 22.8499 2.1499 21.5263 2.1499 19.8936V17.1062C2.1499 15.6396 3.2178 14.4225 4.61841 14.19L5.4319 4.15698C5.57126 2.43822 7.77896 1.82799 8.78125 3.2312L9.43754 4.15H14.5627L15.219 3.2312ZM6.32724 14.1499H17.673L16.8739 4.29436C16.8699 4.24528 16.8548 4.22217 16.8428 4.20843C16.8271 4.19045 16.8005 4.17191 16.7644 4.16191C16.7282 4.15191 16.6959 4.15418 16.6731 4.16153C16.6558 4.16715 16.631 4.17923 16.6023 4.2193L15.6918 5.49405C15.5322 5.71743 15.2746 5.85 15.0001 5.85H9.00012C8.72561 5.85 8.468 5.71743 8.30844 5.49405L7.39791 4.2193C7.36928 4.17923 7.34446 4.16715 7.32709 4.16154C7.30436 4.15418 7.27207 4.15191 7.23588 4.16191C7.1997 4.17191 7.17316 4.19045 7.15743 4.20843C7.14542 4.22217 7.13032 4.24528 7.12634 4.29437L6.32724 14.1499ZM5.10619 15.8499C4.41236 15.8499 3.8499 16.4124 3.8499 17.1062V19.8936C3.8499 20.5874 4.41236 21.1499 5.10619 21.1499H19.9069L19.2336 18.4999L19.9069 15.8499H5.10619Z" fill="#1A1A1A"/>
</svg>
