<svg width="24" height="24" viewBox="0 0 24 24" fill="none" xmlns="http://www.w3.org/2000/svg">
<path fill-rule="evenodd" clip-rule="evenodd" d="M11.8937 3.80839C11.9523 3.74981 12.0472 3.74981 12.1058 3.80839L13.8986 5.60116C14.058 5.76056 14.2742 5.85012 14.4996 5.85012H17.9998C18.0826 5.85012 18.1498 5.91728 18.1498 6.00012V9.50024C18.1498 9.72567 18.2393 9.94187 18.3987 10.1013L20.1916 11.8942C20.2502 11.9528 20.2502 12.0477 20.1916 12.1063L18.3987 13.8992C18.2393 14.0586 18.1498 14.2748 18.1498 14.5002V18.0001C18.1498 18.083 18.0826 18.1501 17.9998 18.1501H14.4999C14.2744 18.1501 14.0582 18.2397 13.8988 18.3991L12.1058 20.1921C12.0472 20.2507 11.9523 20.2507 11.8937 20.1921L10.1007 18.3991C9.94126 18.2397 9.72506 18.1501 9.49963 18.1501H5.99975C5.91691 18.1501 5.84975 18.083 5.84975 18.0001V14.5002C5.84975 14.2748 5.7602 14.0586 5.60079 13.8992L3.8079 12.1063C3.74932 12.0477 3.74932 11.9528 3.8079 11.8942L5.60079 10.1013C5.7602 9.94187 5.84975 9.72567 5.84975 9.50024V6.00012C5.84975 5.91727 5.91691 5.85012 5.99975 5.85012H9.49987C9.72531 5.85012 9.94151 5.76056 10.1009 5.60116L11.8937 3.80839ZM13.3079 2.60631C12.5854 1.88383 11.4141 1.88384 10.6916 2.60631L9.14779 4.15012H5.99975C4.97802 4.15012 4.14975 4.97839 4.14975 6.00012V9.14816L2.60582 10.6921C1.88335 11.4146 1.88335 12.5859 2.60582 13.3084L4.14975 14.8523V18.0001C4.14975 19.0218 4.97802 19.8501 5.99975 19.8501H9.14755L10.6916 21.3942C11.4141 22.1166 12.5854 22.1166 13.3079 21.3942L14.852 19.8501H17.9998C19.0215 19.8501 19.8498 19.0218 19.8498 18.0001V14.8523L21.3937 13.3084C22.1162 12.5859 22.1162 11.4146 21.3937 10.6921L19.8498 9.14816V6.00012C19.8498 4.97839 19.0215 4.15012 17.9998 4.15012H14.8517L13.3079 2.60631ZM9.20115 10.9999C8.81063 10.6094 8.17746 10.6094 7.78694 10.9999C7.39642 11.3904 7.39642 12.0236 7.78694 12.4141L9.56014 14.1873C10.3412 14.9684 11.6075 14.9684 12.3886 14.1873L16.2287 10.3472C16.6192 9.95669 16.6192 9.32353 16.2287 8.933C15.8382 8.54248 15.205 8.54248 14.8145 8.933L10.9744 12.7731L9.20115 10.9999Z" fill="#1A1A1A"/>
</svg>
