<svg width="24" height="24" viewBox="0 0 24 24" fill="none" xmlns="http://www.w3.org/2000/svg">
<path d="M4.35763 1.85101C4.02569 1.51906 3.4875 1.51906 3.15555 1.85101C2.82361 2.18296 2.82361 2.72115 3.15555 3.05309L21.3989 21.2964C21.7309 21.6284 22.269 21.6284 22.601 21.2964C22.9329 20.9645 22.9329 20.4263 22.601 20.0944L4.35763 1.85101Z" fill="#1A1A1A"/>
<path d="M2.91623 4.4403C2.77053 4.62408 2.63564 4.81693 2.51245 5.01796C2.04845 5.77514 1.84432 6.63035 1.74631 7.66122C1.65038 8.67016 1.65038 9.9311 1.65039 11.5304V11.6188C1.65038 13.218 1.65038 14.479 1.74631 15.4879C1.84432 16.5188 2.04845 17.374 2.51245 18.1312C2.99481 18.9183 3.65663 19.5802 4.44377 20.0625C5.20095 20.5265 6.05616 20.7306 7.08703 20.8287C8.09596 20.9246 9.35689 20.9246 10.9561 20.9246H13.0446C14.6438 20.9246 15.9048 20.9246 16.9137 20.8287C17.6483 20.7588 18.2936 20.6351 18.8778 20.4019L17.5079 19.0319C17.285 19.0749 17.0355 19.1094 16.7528 19.1363C15.8338 19.2237 14.6536 19.2246 13.0004 19.2246H11.0004C9.34722 19.2246 8.16703 19.2237 7.24794 19.1363C6.34151 19.0501 5.77719 18.8858 5.33202 18.613C4.77362 18.2708 4.30413 17.8014 3.96193 17.2429C3.68913 16.7978 3.52486 16.2335 3.43867 15.327C3.35129 14.4079 3.35039 13.2278 3.35039 11.5746C3.35039 9.9214 3.35129 8.74121 3.43867 7.82213C3.52486 6.9157 3.68913 6.35138 3.96193 5.90621C4.01484 5.81987 4.07079 5.73566 4.12964 5.65372L2.91623 4.4403Z" fill="#1A1A1A"/>
<path d="M20.4152 16.2824C20.4786 16.011 20.5269 15.6976 20.5621 15.327C20.6495 14.4079 20.6504 13.2278 20.6504 11.5746C20.6504 9.9214 20.6495 8.74121 20.5621 7.82213C20.4759 6.9157 20.3116 6.35138 20.0388 5.90621C19.6967 5.34781 19.2272 4.87831 18.6688 4.53612C18.2236 4.26332 17.6593 4.09905 16.7528 4.01286C15.8338 3.92548 14.6536 3.92458 13.0004 3.92458H11.0004C9.81238 3.92458 8.86863 3.92504 8.09051 3.95773L6.5212 2.38842C6.7039 2.36131 6.89233 2.33901 7.08703 2.3205C8.09597 2.22456 9.35692 2.22457 10.9562 2.22458H13.0446C14.6439 2.22457 15.9048 2.22456 16.9137 2.3205C17.9446 2.41851 18.7998 2.62264 19.557 3.08663C20.3442 3.569 21.006 4.23081 21.4883 5.01796C21.9523 5.77514 22.1565 6.63035 22.2545 7.66122C22.3504 8.67015 22.3504 9.93108 22.3504 11.5303V11.6188C22.3504 13.218 22.3504 14.479 22.2545 15.4879C22.1778 16.2948 22.036 16.994 21.7556 17.6228L20.4152 16.2824Z" fill="#1A1A1A"/>
<path d="M5.1499 11.0746C5.1499 10.6051 5.53046 10.2246 5.9999 10.2246H7.9999C8.46934 10.2246 8.8499 10.6051 8.8499 11.0746C8.8499 11.544 8.46934 11.9246 7.9999 11.9246H5.9999C5.53046 11.9246 5.1499 11.544 5.1499 11.0746Z" fill="#1A1A1A"/>
<path d="M18 11.9246H16.0569L14.3569 10.2246H18C18.4694 10.2246 18.85 10.6051 18.85 11.0746C18.85 11.544 18.4694 11.9246 18 11.9246Z" fill="#1A1A1A"/>
<path d="M12.7 14.2246H5.9999C5.53046 14.2246 5.1499 14.6051 5.1499 15.0746C5.1499 15.544 5.53046 15.9246 5.9999 15.9246H12.9999C13.3788 15.9246 13.6998 15.6766 13.8096 15.3341L12.7 14.2246Z" fill="#1A1A1A"/>
</svg>
