<svg width="24" height="24" viewBox="0 0 24 24" fill="none" xmlns="http://www.w3.org/2000/svg">
<path d="M8.9999 9.15015C9.46934 9.15015 9.8499 9.5307 9.8499 10.0001V14.5001C9.8499 14.9696 9.46934 15.3501 8.9999 15.3501C8.53046 15.3501 8.1499 14.9696 8.1499 14.5001V10.0001C8.1499 9.5307 8.53046 9.15015 8.9999 9.15015Z" fill="#1A1A1A"/>
<path d="M16.313 10.6012L14.7928 12.1214L16.313 13.6415C16.6449 13.9735 16.6449 14.5117 16.313 14.8436C15.981 15.1756 15.4429 15.1756 15.1109 14.8436L13.0647 12.7974C12.6913 12.424 12.6913 11.8187 13.0647 11.4453L15.1109 9.39911C15.4429 9.06716 15.981 9.06716 16.313 9.39911C16.6449 9.73105 16.6449 10.2692 16.313 10.6012Z" fill="#1A1A1A"/>
<path fill-rule="evenodd" clip-rule="evenodd" d="M5.95449 3.65015C3.55205 3.65015 1.60449 5.59771 1.60449 8.00015V15.8486C1.60449 18.2511 3.55206 20.1986 5.95449 20.1986H15.3985C16.1553 20.1986 16.8996 20.3915 17.5611 20.759L19.5569 21.8678C20.8304 22.5753 22.3954 21.6544 22.3954 20.1976V8.00015C22.3954 5.59771 20.4478 3.65015 18.0454 3.65015H5.95449ZM3.30449 8.00015C3.30449 6.53659 4.49094 5.35015 5.95449 5.35015H18.0454C19.509 5.35015 20.6954 6.53659 20.6954 8.00015V20.1976C20.6954 20.3582 20.5229 20.4597 20.3825 20.3817L18.3867 19.2729C17.4726 18.7651 16.4442 18.4986 15.3985 18.4986H5.95449C4.49094 18.4986 3.30449 17.3122 3.30449 15.8486V8.00015Z" fill="#1A1A1A"/>
</svg>
