<svg width="24" height="24" viewBox="0 0 24 24" fill="none" xmlns="http://www.w3.org/2000/svg">
<path fill-rule="evenodd" clip-rule="evenodd" d="M13.0774 2.26722C13.8752 2.7338 14.5555 3.49759 14.8978 4.64042C15.1658 4.73703 15.4279 4.84573 15.6836 4.96584C16.6009 3.87958 18.3716 2.49877 20.7847 2.56425C21.2075 2.57572 21.5941 2.80535 21.8063 3.17146C22.3474 4.1048 22.8993 5.56561 22.8464 7.11511C22.7971 8.55901 22.2184 10.0517 20.7125 11.1906C20.8621 11.8451 20.9409 12.5258 20.9409 13.224C20.9409 18.2675 16.836 22.3499 11.7799 22.3499C6.72382 22.3499 2.6189 18.2675 2.6189 13.224C2.6189 12.515 2.70021 11.8241 2.85429 11.1604C1.56776 10.0618 1.14388 8.58195 1.14997 7.19493C1.15664 5.67342 1.67212 4.20113 2.16504 3.24146C2.38208 2.81888 2.82435 2.55926 3.30176 2.57911C5.53026 2.67177 7.31525 3.88287 8.26395 4.79455C8.63284 4.6417 9.01394 4.51216 9.40538 4.40777C9.48945 4.08221 9.51177 3.65357 9.43293 3.31023C9.35374 2.96536 9.40618 2.59374 9.57931 2.28713C9.76003 1.96708 10.1204 1.65439 10.6363 1.65008C11.3507 1.64411 12.2548 1.78611 13.0774 2.26722ZM10.8898 5.30884C11.1254 4.76478 11.2269 4.04681 11.1625 3.38323C11.5218 3.43323 11.8912 3.54289 12.2192 3.73469C12.6825 4.00567 13.105 4.46237 13.3089 5.27197C13.413 5.68549 13.7198 6.0371 14.1473 6.17938C14.6252 6.33839 15.0816 6.5443 15.5112 6.79172C17.1362 7.72778 18.3723 9.25553 18.924 11.0749C19.1299 11.7542 19.2409 12.4754 19.2409 13.224C19.2409 13.9247 19.1434 14.6029 18.961 15.2458L18.1889 12.8142C18.0474 12.3686 17.5988 12.0958 17.1381 12.1752L12.6538 12.9484L13.0938 12.0684C13.4689 11.3182 12.7434 10.4913 11.9508 10.7657L6.62085 12.6107C6.3288 12.7118 6.10551 12.9506 6.02419 13.2487L5.1181 16.5711C4.60685 15.565 4.3189 14.4277 4.3189 13.224C4.3189 12.4754 4.42991 11.7542 4.63587 11.0749C5.23124 9.11132 6.62386 7.48773 8.44132 6.58092C8.94756 6.32834 9.48655 6.13149 10.0503 5.99836C10.3634 5.92443 10.7156 5.71106 10.8898 5.30884ZM6.39206 18.3609C7.7496 19.7712 9.66087 20.6499 11.7799 20.6499C14.3078 20.6499 16.54 19.3994 17.8892 17.4877L16.7703 13.9637L11.4533 14.8804C10.6973 15.0108 10.1143 14.226 10.4574 13.5399L10.7345 12.9857L7.55815 14.0852L6.39206 18.3609ZM20.1253 9.45471C19.4673 8.01102 18.4436 6.76941 17.1729 5.84618C17.8503 5.1291 19.0012 4.31928 20.4673 4.26495C20.8489 5.00439 21.1823 6.0324 21.1474 7.05713C21.1191 7.88494 20.8538 8.72695 20.1253 9.45471ZM2.84995 7.20238C2.84649 7.99079 3.02084 8.73386 3.48043 9.35561C4.18828 7.85083 5.29565 6.57129 6.66583 5.65137C5.93568 5.06767 4.83031 4.43677 3.54028 4.30043C3.17945 5.08734 2.85454 6.15629 2.84995 7.20238Z" fill="#1A1A1A"/>
</svg>
