<svg width="24" height="24" viewBox="0 0 24 24" fill="none" xmlns="http://www.w3.org/2000/svg">
<path d="M8.63524 12.4064L9.31931 10.6256L11.1001 9.94156C11.2765 9.8738 11.2765 9.62425 11.1001 9.55649L9.31931 8.87242L8.63524 7.09165C8.56749 6.91526 8.31794 6.91526 8.25018 7.09165L7.56611 8.87243L5.78533 9.55649C5.60895 9.62425 5.60895 9.8738 5.78533 9.94156L7.56611 10.6256L8.25018 12.4064C8.31794 12.5828 8.56749 12.5828 8.63524 12.4064Z" fill="#1A1A1A"/>
<path d="M16.6054 10.6256L15.9214 12.4064C15.8536 12.5828 15.6041 12.5828 15.5363 12.4064L14.8522 10.6256L13.0715 9.94156C12.8951 9.8738 12.8951 9.62425 13.0715 9.55649L14.8522 8.87243L15.5363 7.09165C15.6041 6.91526 15.8536 6.91526 15.9214 7.09165L16.6054 8.87242L18.3862 9.55649C18.5626 9.62425 18.5626 9.8738 18.3862 9.94156L16.6054 10.6256Z" fill="#1A1A1A"/>
<path d="M16.2107 14.6763C16.336 14.2238 16.0708 13.7555 15.6183 13.6303C15.1659 13.505 14.6976 13.7703 14.5724 14.2227C14.4555 14.6447 14.2071 14.9923 13.883 15.2362C13.4245 15.5812 12.8198 15.7152 12.227 15.5511C11.7745 15.4258 11.3062 15.6911 11.181 16.1435C11.0557 16.5959 11.321 17.0642 11.7734 17.1894C12.8964 17.5003 14.0429 17.2433 14.905 16.5947C15.5183 16.1333 15.9904 15.4722 16.2107 14.6763Z" fill="#1A1A1A"/>
<path fill-rule="evenodd" clip-rule="evenodd" d="M12.0004 2.15015C6.56039 2.15015 2.15039 6.56014 2.15039 12.0001C2.15039 17.4402 6.56039 21.8501 12.0004 21.8501C17.4404 21.8501 21.8504 17.4402 21.8504 12.0001C21.8504 6.56014 17.4404 2.15015 12.0004 2.15015ZM3.85039 12.0001C3.85039 7.49903 7.49927 3.85015 12.0004 3.85015C16.5015 3.85015 20.1504 7.49903 20.1504 12.0001C20.1504 16.5013 16.5015 20.1501 12.0004 20.1501C7.49927 20.1501 3.85039 16.5013 3.85039 12.0001Z" fill="#1A1A1A"/>
</svg>
