<svg width="24" height="24" viewBox="0 0 24 24" fill="none" xmlns="http://www.w3.org/2000/svg">
<path d="M7.65381 11.0004C7.65381 10.5309 8.03437 10.1504 8.50381 10.1504H15.5038C15.9733 10.1504 16.3538 10.5309 16.3538 11.0004C16.3538 11.4698 15.9733 11.8504 15.5038 11.8504H8.50381C8.03437 11.8504 7.65381 11.4698 7.65381 11.0004Z" fill="#1A1A1A"/>
<path d="M7.85381 14.5004C7.85381 14.0309 7.47325 13.6504 7.00381 13.6504C6.53437 13.6504 6.15381 14.0309 6.15381 14.5004V15.5004C6.15381 15.9698 6.53437 16.3504 7.00381 16.3504C7.47325 16.3504 7.85381 15.9698 7.85381 15.5004V14.5004Z" fill="#1A1A1A"/>
<path d="M17.0038 13.6504C17.4733 13.6504 17.8538 14.0309 17.8538 14.5004V15.5004C17.8538 15.9698 17.4733 16.3504 17.0038 16.3504C16.5344 16.3504 16.1538 15.9698 16.1538 15.5004V14.5004C16.1538 14.0309 16.5344 13.6504 17.0038 13.6504Z" fill="#1A1A1A"/>
<path fill-rule="evenodd" clip-rule="evenodd" d="M9.9999 1.65039C8.97818 1.65039 8.1499 2.47866 8.1499 3.50039V4.17926C6.72531 4.36724 5.55743 5.45486 5.29447 6.90113L4.77362 9.76578C4.76383 9.81967 4.72544 9.86393 4.67348 9.88125L4.32152 9.99857C3.65675 10.2202 3.17423 10.7983 3.07513 11.492L2.57019 15.0266C2.3721 16.4132 3.04935 17.6995 4.15381 18.3687V20.0004C4.15381 20.4698 4.53437 20.8504 5.00381 20.8504C5.47325 20.8504 5.85381 20.4698 5.85381 20.0004V18.8502L5.88652 18.8504H18.1215L18.1538 18.8502V20.0004C18.1538 20.4698 18.5344 20.8504 19.0038 20.8504C19.4733 20.8504 19.8538 20.4698 19.8538 20.0004V18.369C20.9585 17.6998 21.6359 16.4134 21.4378 15.0266L20.9329 11.492C20.8338 10.7983 20.3512 10.2202 19.6865 9.99857L19.3345 9.88125C19.2826 9.86393 19.2442 9.81967 19.2344 9.76578L18.7135 6.90112C18.4501 5.45209 17.2782 4.36308 15.8499 4.17819V3.50039C15.8499 2.47866 15.0216 1.65039 13.9999 1.65039H9.9999ZM14.1499 4.15039V3.50039C14.1499 3.41755 14.0827 3.35039 13.9999 3.35039H9.9999C9.91706 3.35039 9.8499 3.41755 9.8499 3.50039V4.15039H14.1499ZM8.59044 5.85039C7.79301 5.85039 7.1097 6.42067 6.96705 7.20523L6.4462 10.0699C6.32537 10.7345 5.8519 11.2804 5.21106 11.494L4.85911 11.6113C4.80521 11.6293 4.76608 11.6762 4.75805 11.7324L4.2531 15.267C4.1111 16.2611 4.88241 17.1504 5.88652 17.1504H18.1215C19.1256 17.1504 19.8969 16.2611 19.7549 15.267L19.2499 11.7324C19.2419 11.6762 19.2028 11.6293 19.1489 11.6113L18.7969 11.494C18.1561 11.2804 17.6826 10.7345 17.5618 10.0699L17.0409 7.20523C16.8983 6.42067 16.215 5.85039 15.4176 5.85039H8.59044Z" fill="#1A1A1A"/>
</svg>
