<svg width="24" height="24" viewBox="0 0 24 24" fill="none" xmlns="http://www.w3.org/2000/svg">
<path fill-rule="evenodd" clip-rule="evenodd" d="M21.2078 18.6357C20.4687 19.8265 19.3144 20.7431 17.9152 20.6606C15.7846 20.535 12.2482 19.5702 8.12499 15.447C4.00181 11.3238 3.037 7.78744 2.91139 5.65679C2.82891 4.25764 3.74545 3.10329 4.93629 2.36415L5.22178 2.18696C5.65022 1.92103 6.20962 2.01569 6.5267 2.40778L9.48044 6.06025C9.7561 6.40112 9.77761 6.88179 9.53349 7.24592L8.42117 8.90506C8.30134 9.0838 8.26435 9.3051 8.34043 9.50639C8.56738 10.1068 9.19824 11.4725 10.6487 12.923C12.1002 14.3745 13.4901 15.0284 14.1016 15.2668C14.3059 15.3464 14.5321 15.3104 14.7142 15.1883L16.3729 14.0763C16.737 13.8322 17.2177 13.8537 17.5586 14.1294L21.1642 17.0453C21.5563 17.3623 21.651 17.9217 21.3851 18.3502L21.2078 18.6357Z" fill="#1A1A1A"/>
</svg>
