<svg width="24" height="24" viewBox="0 0 24 24" fill="none" xmlns="http://www.w3.org/2000/svg">
<path d="M10.3084 7.20635C10.3084 6.72552 10.8457 6.44002 11.2442 6.70911L15.2367 9.40514C15.589 9.64304 15.589 10.1617 15.2367 10.3996L11.2442 13.0957C10.8457 13.3648 10.3084 13.0793 10.3084 12.5984V7.20635Z" fill="#1A1A1A"/>
<path fill-rule="evenodd" clip-rule="evenodd" d="M13.6705 1.6772C12.7011 0.976916 11.4011 0.973869 10.4285 1.66972L0.921075 8.47197C0.0985711 9.06044 -0.0925599 10.2045 0.476449 11.0322C0.596709 11.2071 0.746427 11.3603 0.919426 11.4843L4.31717 13.921L4.68567 14.1847V17.3929C4.68567 17.8762 5.22791 18.1611 5.62597 17.887L7.78247 16.4019L10.4166 18.3174C11.3928 19.0273 12.7066 19.0274 13.6829 18.3177L23.0898 11.479C23.9077 10.8845 24.0906 9.73914 23.5154 8.91559C23.3977 8.74707 23.2525 8.59915 23.0854 8.47845L13.6705 1.6772ZM11.4177 3.0523C11.7964 2.78139 12.2975 2.78251 12.675 3.05524L22.0899 9.85649C22.1015 9.86486 22.1124 9.87572 22.1217 9.88907C22.1723 9.96151 22.1506 10.0601 22.0902 10.104L12.6833 16.9426C12.3031 17.219 11.7966 17.219 11.4164 16.9425L8.6332 14.9187L8.62788 14.9148L5.30789 12.5396L1.91014 10.1029C1.89818 10.0943 1.88692 10.083 1.87736 10.0691C1.82715 9.99611 1.84982 9.89779 1.91026 9.85455L11.4177 3.0523Z" fill="#1A1A1A"/>
<path d="M5.88135 19.0407L7.63521 20.2955L10.4158 22.3174C11.3919 23.0273 12.7058 23.0274 13.6821 22.3177L19.3634 18.1875C19.7431 17.9114 19.8271 17.3799 19.5511 17.0001C19.275 16.6204 18.7435 16.5364 18.3637 16.8124L12.6824 20.9426C12.3022 21.219 11.7957 21.219 11.4156 20.9425L8.63236 18.9187L8.62704 18.9148L7.41766 18.0496L6.27827 18.8342C6.15018 18.9224 6.01698 18.9908 5.88135 19.0407Z" fill="#1A1A1A"/>
</svg>
