<svg width="24" height="24" viewBox="0 0 24 24" fill="none" xmlns="http://www.w3.org/2000/svg">
<path d="M4.8499 8.49941C4.8499 8.96886 4.46934 9.34941 3.9999 9.34941C3.53046 9.34941 3.1499 8.96886 3.1499 8.49941V6.99941C3.1499 4.87312 4.87361 3.14941 6.9999 3.14941H8.4999C8.96934 3.14941 9.3499 3.52997 9.3499 3.99941C9.3499 4.46886 8.96934 4.84941 8.4999 4.84941H6.9999C5.81249 4.84941 4.8499 5.812 4.8499 6.99941V8.49941Z" fill="#1A1A1A"/>
<path d="M19.1501 15.5002C19.1501 15.0308 19.5307 14.6502 20.0001 14.6502C20.4695 14.6502 20.8501 15.0308 20.8501 15.5002V17.0002C20.8501 19.1265 19.1264 20.8502 17.0001 20.8502H15.5001C15.0307 20.8502 14.6501 20.4696 14.6501 20.0002C14.6501 19.5308 15.0307 19.1502 15.5001 19.1502H17.0001C18.1875 19.1502 19.1501 18.1876 19.1501 17.0002V15.5002Z" fill="#1A1A1A"/>
<path d="M20.0001 9.34941C19.5307 9.34941 19.1501 8.96886 19.1501 8.49941V6.99941C19.1501 5.812 18.1875 4.84941 17.0001 4.84941H15.5001C15.0307 4.84941 14.6501 4.46886 14.6501 3.99941C14.6501 3.52997 15.0307 3.14941 15.5001 3.14941H17.0001C19.1264 3.14941 20.8501 4.87312 20.8501 6.99941V8.49941C20.8501 8.96886 20.4695 9.34941 20.0001 9.34941Z" fill="#1A1A1A"/>
<path d="M4.8499 15.5002C4.8499 15.0308 4.46934 14.6502 3.9999 14.6502C3.53046 14.6502 3.1499 15.0308 3.1499 15.5002V17.0002C3.1499 19.1265 4.87361 20.8502 6.9999 20.8502H8.4999C8.96934 20.8502 9.3499 20.4696 9.3499 20.0002C9.3499 19.5308 8.96934 19.1502 8.4999 19.1502H6.9999C5.81249 19.1502 4.8499 18.1876 4.8499 17.0002V15.5002Z" fill="#1A1A1A"/>
<path fill-rule="evenodd" clip-rule="evenodd" d="M12.0001 6.6502C12.322 6.6502 12.6164 6.8321 12.7604 7.12006L15.7581 13.1155C15.7598 13.1189 15.7615 13.1223 15.7632 13.1257L16.7604 15.1201C16.9703 15.5399 16.8001 16.0505 16.3802 16.2605C15.9603 16.4704 15.4498 16.3002 15.2398 15.8803L14.4748 14.3502H9.52542L8.76035 15.8803C8.55041 16.3002 8.03984 16.4704 7.61996 16.2605C7.20008 16.0505 7.02988 15.5399 7.23983 15.1201L8.22857 13.1426C8.23544 13.1278 8.24273 13.1132 8.25042 13.0989L11.2398 7.12006C11.3838 6.8321 11.6781 6.6502 12.0001 6.6502ZM10.3754 12.6502H13.6248L12.0001 9.40085L10.3754 12.6502Z" fill="#1A1A1A"/>
</svg>
