<svg width="24" height="24" viewBox="0 0 24 24" fill="none" xmlns="http://www.w3.org/2000/svg">
<path fill-rule="evenodd" clip-rule="evenodd" d="M11.9999 2.15039C6.5599 2.15039 2.1499 6.56039 2.1499 12.0004C2.1499 17.4404 6.5599 21.8504 11.9999 21.8504C17.4399 21.8504 21.8499 17.4404 21.8499 12.0004C21.8499 6.56039 17.4399 2.15039 11.9999 2.15039ZM7.39896 11.399C7.73091 11.067 8.26909 11.067 8.60104 11.399L10.8939 13.6919C10.9525 13.7504 11.0475 13.7504 11.1061 13.6919L15.399 9.39896C15.7309 9.06701 16.2691 9.06701 16.601 9.39896C16.933 9.73091 16.933 10.2691 16.601 10.601L12.3081 14.8939C11.5857 15.6164 10.4143 15.6164 9.69185 14.8939L7.39896 12.601C7.06701 12.2691 7.06701 11.7309 7.39896 11.399Z" fill="#1A1A1A"/>
</svg>
