<svg width="23" height="24" viewBox="0 0 23 24" fill="none" xmlns="http://www.w3.org/2000/svg">
<path fill-rule="evenodd" clip-rule="evenodd" d="M3.8499 12.0004C3.8499 7.49927 7.49878 3.85039 11.9999 3.85039C16.501 3.85039 20.1499 7.49927 20.1499 12.0004C20.1499 16.5015 16.501 20.1504 11.9999 20.1504C7.49878 20.1504 3.8499 16.5015 3.8499 12.0004ZM11.9999 2.15039C6.5599 2.15039 2.1499 6.56039 2.1499 12.0004C2.1499 17.4404 6.5599 21.8504 11.9999 21.8504C17.4399 21.8504 21.8499 17.4404 21.8499 12.0004C21.8499 6.56039 17.4399 2.15039 11.9999 2.15039ZM8.60097 11.399C8.26903 11.067 7.73084 11.067 7.39889 11.399C7.06695 11.7309 7.06695 12.2691 7.39889 12.601L9.69179 14.8939C10.4143 15.6164 11.5856 15.6164 12.3081 14.8939L16.601 10.601C16.9329 10.2691 16.9329 9.73091 16.601 9.39896C16.269 9.06701 15.7308 9.06701 15.3989 9.39896L11.106 13.6919C11.0474 13.7504 10.9524 13.7504 10.8939 13.6919L8.60097 11.399Z" fill="#1A1A1A"/>
</svg>
