<svg width="24" height="24" viewBox="0 0 24 24" fill="none" xmlns="http://www.w3.org/2000/svg">
<path d="M8.47156 11.0869L10.7238 13.3159L13.2 10.9995L15.6011 13.3354" stroke="#1A1A1A" stroke-width="1.7" stroke-linecap="round" stroke-linejoin="round"/>
<path d="M11.9343 1.47388V2.74001" stroke="#1A1A1A" stroke-width="1.7" stroke-linecap="round" stroke-linejoin="round"/>
<path d="M6.67139 2.81006L7.30445 3.90656" stroke="#1A1A1A" stroke-width="1.7" stroke-linecap="round" stroke-linejoin="round"/>
<path d="M17.1956 2.81006L16.5625 3.90656" stroke="#1A1A1A" stroke-width="1.7" stroke-linecap="round" stroke-linejoin="round"/>
<path d="M14.8804 18.0201C17.2043 16.9348 18.8145 14.5767 18.8145 11.8425C18.8145 8.07901 15.7635 5.02808 12 5.02808C8.23648 5.02808 5.18555 8.07901 5.18555 11.8425C5.18555 14.5767 6.79578 16.9348 9.11964 18.0201" stroke="#1A1A1A" stroke-width="1.7" stroke-linecap="round" stroke-linejoin="round"/>
<path d="M14.8804 18.02C14.8804 18.8927 14.1729 19.6001 13.3003 19.6001H10.6997C9.82704 19.6001 9.11963 18.8927 9.11963 18.02" stroke="#1A1A1A" stroke-width="1.7" stroke-linecap="round" stroke-linejoin="round"/>
<path d="M10 21.9106H14" stroke="#1A1A1A" stroke-width="1.7" stroke-linecap="round" stroke-linejoin="round"/>
</svg>
