<svg width="24" height="24" viewBox="0 0 24 24" fill="none" xmlns="http://www.w3.org/2000/svg">
<path fill-rule="evenodd" clip-rule="evenodd" d="M17.3933 8.93659C17.5231 8.88038 17.6767 8.90809 17.7633 9.01991C18.5578 10.0451 19.5997 11.9671 18.9887 14.2455C18.5068 16.0422 17.2342 17.423 15.7494 18.2047L15.4172 18.3799C14.5559 18.8345 13.6922 19.2904 12.8013 19.684C12.6892 19.7335 12.5771 19.782 12.4649 19.8298C11.6962 20.157 10.8173 20.1374 10.0731 19.7578C9.44934 19.4396 8.84621 19.0925 8.22749 18.6428C7.3991 18.0408 6.22423 17.1354 5.46285 15.633C4.47285 13.6795 4.5636 10.8954 6.28677 8.76055H3.69069C2.97198 8.76055 2.42937 9.41243 2.55977 10.1192L4.05139 18.2036C4.23954 19.2233 5.12874 19.9635 6.1657 19.9635H7.28566C7.7551 19.9635 8.13566 20.3441 8.13566 20.8135C8.13566 21.2829 7.7551 21.6635 7.28566 21.6635H6.1657C4.30882 21.6635 2.71652 20.3381 2.37961 18.5121L0.887992 10.4277C0.564818 8.67609 1.90955 7.06055 3.69069 7.06055H8.28285C8.48103 6.94407 8.68855 6.83328 8.90564 6.72872C9.98927 6.20676 10.6606 5.12077 10.7003 4.07087C10.7165 3.64175 11.1386 3.19725 11.5416 3.34556C13.6085 4.10619 15.3861 5.24992 16.4766 7.06055H20.3111C22.0922 7.06055 23.437 8.67608 23.1138 10.4277L21.6222 18.5121C21.2853 20.3381 19.693 21.6635 17.8361 21.6635H15.3265C14.857 21.6635 14.4765 21.2829 14.4765 20.8135C14.4765 20.3441 14.857 19.9635 15.3265 19.9635H17.8361C18.8731 19.9635 19.7623 19.2233 19.9504 18.2036L21.442 10.1192C21.5724 9.41243 21.0298 8.76055 20.3111 8.76055H17.2272C17.2483 8.8302 17.2686 8.9006 17.2882 8.97174C17.3061 8.97174 17.3467 8.95677 17.3933 8.93659ZM15.5837 10.3351C15.5647 10.158 15.5392 9.97798 15.5065 9.79648C15.4896 9.70244 15.4707 9.60799 15.4499 9.51332C15.2462 8.58705 14.8518 7.63966 14.191 6.84495C13.8862 6.47851 13.5249 6.14453 13.0995 5.86006C12.8581 5.69864 12.485 6.01931 12.484 6.30968C12.4817 6.9949 12.1867 8.02043 10.8843 9.19084L10.8654 9.20778C10.6769 9.37614 10.4675 9.54748 10.2351 9.7212C10.1482 9.78619 10.0648 9.8524 9.98496 9.91975C9.79469 10.0802 9.62417 10.2471 9.47199 10.4196C9.38651 10.5164 9.22349 10.4768 9.20626 10.3488C9.12678 9.75838 9.17011 9.28206 9.22384 8.97657C9.24759 8.84157 9.09485 8.71986 8.97745 8.79062C8.5664 9.0384 8.21094 9.31563 7.90727 9.61407C7.41855 10.0944 7.06395 10.6296 6.82754 11.1854C6.25456 12.5326 6.37585 14.0007 6.96464 15.1011C7.44596 16.0006 8.33831 16.7988 9.17949 17.4071C9.56364 17.685 9.93712 17.9232 10.2559 18.1135C10.3102 18.1459 10.3629 18.1769 10.4138 18.2064C10.9006 18.4893 11.4888 18.5055 12.0158 18.3071L12.1163 18.2693C14.0107 17.5566 16.0483 16.7901 17.29 14.3451C17.4849 13.8566 17.5734 13.3349 17.5383 12.795C17.493 12.0963 17.2407 11.3671 16.7442 10.6398C16.6566 10.5113 16.4074 10.6028 16.3858 10.7568C16.3376 11.1014 16.1976 11.5579 15.832 12.016C15.7409 12.1301 15.5687 12.0412 15.5854 11.8961C15.6226 11.5715 15.6365 11.2116 15.6207 10.8313C15.6139 10.6693 15.6018 10.5034 15.5837 10.3351Z" fill="#1A1A1A"/>
</svg>
