<svg width="24" height="24" viewBox="0 0 24 24" fill="none" xmlns="http://www.w3.org/2000/svg">
<path d="M19.8735 15.4259C20.1907 15.0799 20.7284 15.0565 21.0745 15.3737C21.4205 15.6909 21.4439 16.2286 21.1267 16.5746L17.3638 20.6796C16.2237 21.9233 14.1501 21.1167 14.1501 19.4295L14.1501 3.50028C14.1501 3.03084 14.5307 2.65028 15.0001 2.65028C15.4695 2.65028 15.8501 3.03084 15.8501 3.50028L15.8501 19.4295C15.8501 19.4768 15.8627 19.5011 15.8736 19.5163C15.8876 19.5356 15.9118 19.5561 15.9457 19.5693C15.9796 19.5825 16.0113 19.5837 16.0347 19.5789C16.053 19.5751 16.0787 19.5657 16.1107 19.5308L19.8735 15.4259Z" fill="#1A1A1A"/>
<path d="M4.12649 8.57409C3.80927 8.92014 3.27159 8.94351 2.92554 8.6263C2.57949 8.30909 2.55611 7.7714 2.87333 7.42535L6.63617 3.32043C7.77626 2.0767 9.84991 2.8833 9.84991 4.57052L9.84991 20.4997C9.84991 20.9692 9.46935 21.3497 8.99991 21.3497C8.53047 21.3497 8.14991 20.9692 8.14991 20.4997L8.14991 4.57052C8.14991 4.5232 8.13734 4.49891 8.12638 4.48375C8.11238 4.46439 8.08819 4.44391 8.05429 4.43073C8.02038 4.41754 7.98872 4.41629 7.96532 4.4211C7.94698 4.42487 7.92131 4.43428 7.88933 4.46916L4.12649 8.57409Z" fill="#1A1A1A"/>
</svg>
