<svg width="24" height="24" viewBox="0 0 24 24" fill="none" xmlns="http://www.w3.org/2000/svg">
<path fill-rule="evenodd" clip-rule="evenodd" d="M7.8499 3.00039C7.8499 2.53095 7.46934 2.15039 6.9999 2.15039C6.53046 2.15039 6.1499 2.53095 6.1499 3.00039V4.15039H4.4999C3.20203 4.15039 2.1499 5.20252 2.1499 6.50039V8.50039C2.1499 9.79826 3.20203 10.8504 4.4999 10.8504H6.1499V13.0004C6.1499 13.4698 6.53046 13.8504 6.9999 13.8504C7.46934 13.8504 7.8499 13.4698 7.8499 13.0004V10.8504H9.4999C10.7978 10.8504 11.8499 9.79826 11.8499 8.50039V6.50039C11.8499 5.20252 10.7978 4.15039 9.4999 4.15039H7.8499V3.00039ZM6.1499 5.85039H4.4999C4.14092 5.85039 3.8499 6.14141 3.8499 6.50039V8.50039C3.8499 8.85938 4.14092 9.15039 4.4999 9.15039H6.1499V5.85039ZM7.8499 9.15039V5.85039H9.4999C9.85889 5.85039 10.1499 6.14141 10.1499 6.50039V8.50039C10.1499 8.85938 9.85889 9.15039 9.4999 9.15039H7.8499Z" fill="#1A1A1A"/>
<path d="M19.1501 8.49961C19.1501 8.96905 19.5307 9.34961 20.0001 9.34961C20.4695 9.34961 20.8501 8.96905 20.8501 8.49961V6.99961C20.8501 4.87331 19.1264 3.14961 17.0001 3.14961H15.5001C15.0307 3.14961 14.6501 3.53017 14.6501 3.99961C14.6501 4.46905 15.0307 4.84961 15.5001 4.84961H17.0001C18.1875 4.84961 19.1501 5.8122 19.1501 6.99961V8.49961Z" fill="#1A1A1A"/>
<path d="M4.8499 15.5004C4.8499 15.0309 4.46934 14.6504 3.9999 14.6504C3.53046 14.6504 3.1499 15.0309 3.1499 15.5004V17.0004C3.1499 19.1267 4.87361 20.8504 6.9999 20.8504H8.4999C8.96934 20.8504 9.3499 20.4698 9.3499 20.0004C9.3499 19.5309 8.96934 19.1504 8.4999 19.1504H6.9999C5.81249 19.1504 4.8499 18.1878 4.8499 17.0004V15.5004Z" fill="#1A1A1A"/>
<path fill-rule="evenodd" clip-rule="evenodd" d="M17.0005 10.1504C17.3364 10.1504 17.6408 10.3482 17.7772 10.6552L21.7769 19.6552C21.9675 20.0842 21.7743 20.5865 21.3453 20.7771C20.9163 20.9678 20.414 20.7746 20.2234 20.3456L19.3367 18.3505H14.6637L13.7768 20.3456C13.5862 20.7746 13.0838 20.9678 12.6549 20.7771C12.2259 20.5864 12.0327 20.0841 12.2234 19.6551L16.2237 10.6551C16.3602 10.3482 16.6646 10.1504 17.0005 10.1504ZM17.0004 13.0933L18.5812 16.6505H15.4193L17.0004 13.0933Z" fill="#1A1A1A"/>
</svg>
