<svg width="24" height="24" viewBox="0 0 24 24" fill="none" xmlns="http://www.w3.org/2000/svg">
<path fill-rule="evenodd" clip-rule="evenodd" d="M11.9557 1.22461H12.0441C13.6434 1.2246 14.9043 1.2246 15.9133 1.32053C16.9441 1.41854 17.7993 1.62267 18.5565 2.08666C19.3437 2.56903 20.0055 3.23084 20.4878 4.01799C20.9518 4.77517 21.156 5.63038 21.254 6.66125C21.3499 7.67018 21.3499 8.93111 21.3499 10.5303V12.6188C21.3499 14.218 21.3499 15.479 21.254 16.488C21.156 17.5188 20.9518 18.3741 20.4878 19.1312C20.0055 19.9184 19.3437 20.5802 18.5565 21.0626C17.7993 21.5266 16.9441 21.7307 15.9133 21.8287C14.9043 21.9246 13.6434 21.9246 12.0442 21.9246H11.9557C10.3565 21.9246 9.09547 21.9246 8.08654 21.8287C7.05567 21.7307 6.20046 21.5266 5.44329 21.0626C4.65614 20.5802 3.99432 19.9184 3.51196 19.1312C3.04796 18.3741 2.84383 17.5188 2.74582 16.488C2.64989 15.479 2.64989 14.2181 2.6499 12.6188V10.5304C2.64989 8.93114 2.64989 7.67019 2.74582 6.66125C2.84383 5.63038 3.04796 4.77517 3.51196 4.01799C3.99432 3.23084 4.65614 2.56903 5.44329 2.08666C6.20046 1.62267 7.05567 1.41854 8.08654 1.32053C9.09549 1.2246 10.3564 1.2246 11.9557 1.22461ZM8.24746 3.01289C7.34102 3.09908 6.77671 3.26335 6.33153 3.53615C5.77313 3.87834 5.30364 4.34784 4.96145 4.90624C4.68864 5.35141 4.52437 5.91573 4.43819 6.82216C4.41202 7.0974 4.3936 7.39606 4.38065 7.72383L19.6192 7.72383C19.6062 7.39606 19.5878 7.0974 19.5616 6.82216C19.4754 5.91573 19.3112 5.35141 19.0384 4.90624C18.6962 4.34784 18.2267 3.87834 17.6683 3.53615C17.2231 3.26335 16.6588 3.09908 15.7523 3.01289C14.8333 2.92551 13.6531 2.92461 11.9999 2.92461C10.3467 2.92461 9.16654 2.92551 8.24746 3.01289ZM4.3499 10.5746C4.3499 10.1628 4.34996 9.78025 4.35139 9.42383H19.6484C19.6498 9.78025 19.6499 10.1628 19.6499 10.5746V12.5746C19.6499 12.9859 19.6498 13.3679 19.6484 13.7238H4.35139C4.34996 13.3679 4.3499 12.9859 4.3499 12.5746V10.5746ZM4.38059 15.4238C4.39354 15.7522 4.41197 16.0514 4.43819 16.3271C4.52437 17.2335 4.68864 17.7978 4.96145 18.243C5.30364 18.8014 5.77313 19.2709 6.33153 19.6131C6.77671 19.8859 7.34102 20.0501 8.24746 20.1363C9.16654 20.2237 10.3467 20.2246 11.9999 20.2246C13.6531 20.2246 14.8333 20.2237 15.7523 20.1363C16.6588 20.0501 17.2231 19.8859 17.6683 19.6131C18.2267 19.2709 18.6962 18.8014 19.0384 18.243C19.3112 17.7978 19.4754 17.2335 19.5616 16.3271C19.5878 16.0514 19.6063 15.7522 19.6192 15.4238H4.38059Z" fill="#1A1A1A"/>
</svg>
