<svg width="24" height="24" viewBox="0 0 24 24" fill="none" xmlns="http://www.w3.org/2000/svg">
<path d="M15.4258 4.12649C15.0797 3.80927 15.0564 3.27159 15.3736 2.92554C15.6908 2.57949 16.2285 2.55611 16.5745 2.87333L20.6794 6.63617C21.9232 7.77626 21.1166 9.84991 19.4293 9.84991H3.50015C3.0307 9.84991 2.65015 9.46935 2.65015 8.99991C2.65015 8.53047 3.0307 8.14991 3.50015 8.14991H19.4293C19.4767 8.14991 19.501 8.13734 19.5161 8.12638C19.5355 8.11238 19.556 8.08819 19.5691 8.05429C19.5823 8.02038 19.5836 7.98872 19.5788 7.96532C19.575 7.94698 19.5656 7.92131 19.5307 7.88933L15.4258 4.12649Z" fill="#1A1A1A"/>
<path d="M8.57444 19.8735C8.92049 20.1907 8.94387 20.7284 8.62665 21.0745C8.30944 21.4205 7.77176 21.4439 7.4257 21.1267L3.32078 17.3638C2.07705 16.2237 2.88365 14.1501 4.57087 14.1501H20.5001C20.9695 14.1501 21.3501 14.5307 21.3501 15.0001C21.3501 15.4695 20.9695 15.8501 20.5001 15.8501H4.57087C4.52355 15.8501 4.49926 15.8627 4.4841 15.8736C4.46474 15.8876 4.44427 15.9118 4.43108 15.9457C4.41789 15.9796 4.41664 16.0113 4.42145 16.0347C4.42522 16.053 4.43463 16.0787 4.46951 16.1107L8.57444 19.8735Z" fill="#1A1A1A"/>
</svg>
