<svg width="24" height="24" viewBox="0 0 24 24" fill="none" xmlns="http://www.w3.org/2000/svg">
<path d="M15.4258 4.12698C15.0797 3.80976 15.0564 3.27208 15.3736 2.92603C15.6908 2.57998 16.2285 2.5566 16.5745 2.87381L20.6794 6.63666C21.9232 7.77675 21.1166 9.8504 19.4293 9.8504H3.50015C3.0307 9.8504 2.65015 9.46984 2.65015 9.0004C2.65015 8.53095 3.0307 8.1504 3.50015 8.1504H19.4293C19.4767 8.1504 19.501 8.13783 19.5161 8.12686C19.5355 8.11286 19.556 8.08868 19.5691 8.05477C19.5823 8.02087 19.5836 7.98921 19.5788 7.96581C19.575 7.94747 19.5656 7.9218 19.5307 7.88982L15.4258 4.12698Z" fill="#1A1A1A"/>
<path d="M8.57444 19.873C8.92049 20.1902 8.94387 20.7279 8.62665 21.074C8.30944 21.42 7.77176 21.4434 7.4257 21.1262L3.32078 17.3633C2.07705 16.2232 2.88365 14.1496 4.57087 14.1496H20.5001C20.9695 14.1496 21.3501 14.5302 21.3501 14.9996C21.3501 15.469 20.9695 15.8496 20.5001 15.8496H4.57087C4.52355 15.8496 4.49926 15.8622 4.4841 15.8731C4.46474 15.8871 4.44427 15.9113 4.43108 15.9452C4.41789 15.9791 4.41664 16.0108 4.42145 16.0342C4.42522 16.0525 4.43463 16.0782 4.46951 16.1102L8.57444 19.873Z" fill="#1A1A1A"/>
</svg>
