<svg width="24" height="24" viewBox="0 0 24 24" fill="none" xmlns="http://www.w3.org/2000/svg">
<path fill-rule="evenodd" clip-rule="evenodd" d="M2.9999 8.35039H10.664C11.1342 9.8845 12.5618 11 14.25 11C15.9382 11 17.3658 9.8845 17.836 8.35039H20.9999C21.4693 8.35039 21.8499 7.96983 21.8499 7.50039C21.8499 7.03095 21.4693 6.65039 20.9999 6.65039H17.9523C17.6653 4.86434 16.117 3.5 14.25 3.5C12.383 3.5 10.8347 4.86434 10.5477 6.65039H2.9999C2.53046 6.65039 2.1499 7.03095 2.1499 7.50039C2.1499 7.96983 2.53046 8.35039 2.9999 8.35039ZM14.25 5.5C13.2835 5.5 12.5 6.2835 12.5 7.25C12.5 8.2165 13.2835 9 14.25 9C15.2165 9 16 8.2165 16 7.25C16 6.2835 15.2165 5.5 14.25 5.5ZM9.75 13C8.06156 13 6.63374 14.1159 6.1638 15.6504H3.0001C2.53066 15.6504 2.1501 16.0309 2.1501 16.5004C2.1501 16.9698 2.53066 17.3504 3.0001 17.3504H6.0478C6.33515 19.1361 7.88329 20.5 9.75 20.5C11.6167 20.5 13.1648 19.1361 13.4522 17.3504H21.0001C21.4695 17.3504 21.8501 16.9698 21.8501 16.5004C21.8501 16.0309 21.4695 15.6504 21.0001 15.6504H13.3362C12.8663 14.1159 11.4384 13 9.75 13ZM8 16.75C8 15.7835 8.7835 15 9.75 15C10.7165 15 11.5 15.7835 11.5 16.75C11.5 17.7165 10.7165 18.5 9.75 18.5C8.7835 18.5 8 17.7165 8 16.75Z" fill="#1A1A1A"/>
</svg>
