<svg width="24" height="24" viewBox="0 0 24 24" fill="none" xmlns="http://www.w3.org/2000/svg">
<path fill-rule="evenodd" clip-rule="evenodd" d="M16.5742 15L18.0539 19.3238C18.2327 19.8463 18.8013 20.125 19.3238 19.9461C19.8463 19.7673 20.125 19.1987 19.9462 18.6762L15.4172 5.44232C14.9173 3.98148 13.544 3 12 3C10.456 3 9.08276 3.98148 8.58283 5.44232L4.0539 18.6762C3.87508 19.1987 4.15371 19.7673 4.67624 19.9461C5.19877 20.125 5.76734 19.8463 5.94616 19.3238L7.42585 15H16.5742ZM13.525 6.08989C13.3019 5.43799 12.6891 5 12 5C11.311 5 10.6982 5.43799 10.4751 6.0899L8.1103 13H15.8898L13.525 6.08989Z" fill="#1A1A1A"/>
</svg>
