<svg width="24" height="24" viewBox="0 0 24 24" fill="none" xmlns="http://www.w3.org/2000/svg">
<path d="M13.9128 3.88619C15.6178 2.18117 18.3822 2.18117 20.0872 3.88619C21.7813 5.58021 21.7938 8.32287 20.1153 10.0323L17.1065 13.0966C16.7776 13.4315 16.2395 13.4365 15.9045 13.1076C15.5695 12.7787 15.5646 12.2405 15.8935 11.9055L18.9023 8.84125C19.9272 7.79743 19.9196 6.12269 18.8852 5.08827C17.844 4.04714 16.156 4.04714 15.1149 5.08827L12.2978 7.90539C11.9658 8.23734 11.4276 8.23734 11.0957 7.90539C10.7637 7.57345 10.7637 7.03526 11.0957 6.70331L13.9128 3.88619Z" fill="#1A1A1A"/>
<path d="M10.0872 20.1141C8.38222 21.8191 5.61783 21.8191 3.9128 20.1141C2.21878 18.4201 2.20625 15.6774 3.88472 13.968L6.89352 10.9037C7.22241 10.5687 7.76058 10.5638 8.09555 10.8927C8.43051 11.2216 8.43543 11.7598 8.10653 12.0948L5.09774 15.159C4.07282 16.2029 4.08047 17.8776 5.11488 18.912C6.15602 19.9531 7.84403 19.9531 8.88516 18.912L11.7023 16.0949C12.0342 15.7629 12.5724 15.7629 12.9044 16.0949C13.2363 16.4268 13.2363 16.965 12.9044 17.297L10.0872 20.1141Z" fill="#1A1A1A"/>
<path d="M6.60109 5.39949C6.26914 5.06755 5.73095 5.06755 5.39901 5.39949C5.06706 5.73144 5.06706 6.26963 5.39901 6.60157L17.399 18.6016C17.731 18.9335 18.2691 18.9335 18.6011 18.6016C18.933 18.2696 18.933 17.7314 18.6011 17.3995L6.60109 5.39949Z" fill="#1A1A1A"/>
</svg>
