<svg width="24" height="24" viewBox="0 0 24 24" fill="none" xmlns="http://www.w3.org/2000/svg">
<path d="M20.1533 15.2853C20.6233 15.2853 21.0039 15.6659 21.0039 16.1359V18.3537C21.0036 19.9291 19.7268 21.2061 18.1514 21.2062H5.85156C4.27612 21.2061 2.99933 19.9291 2.99902 18.3537V16.1359C2.99902 15.6659 3.37965 15.2853 3.84961 15.2853C4.31957 15.2853 4.7002 15.6659 4.7002 16.1359V18.3537C4.7005 18.9892 5.21604 19.5049 5.85156 19.505H18.1514C18.7869 19.5049 19.3024 18.9892 19.3027 18.3537V16.1359C19.3027 15.666 19.6834 15.2854 20.1533 15.2853ZM10.7197 3.2941C11.4454 2.56862 12.6229 2.56864 13.3486 3.2941L18.1348 8.08121C18.4667 8.4131 18.4665 8.95043 18.1348 9.28238C17.8028 9.6143 17.2655 9.61432 16.9336 9.28238L12.8525 5.20231V15.6046C12.8525 16.0741 12.4724 16.4543 12.0029 16.4543C11.5335 16.4542 11.1533 16.0741 11.1533 15.6046V5.26481L7.13477 9.28238L7.07031 9.34098C6.73646 9.61315 6.24475 9.59354 5.93359 9.28238C5.62264 8.97122 5.60288 8.47945 5.875 8.14567L5.93359 8.08121L10.7197 3.2941Z" fill="#1A1A1A"/>
</svg>
