<svg width="24" height="24" viewBox="0 0 24 24" fill="none" xmlns="http://www.w3.org/2000/svg">
<path d="M14.0361 13.6504C13.4804 14.1116 13.0262 14.6908 12.7119 15.3496H9C6.70817 15.3498 4.85059 17.2081 4.85059 19.5C4.85064 19.5827 4.91734 19.6502 5 19.6504H12.7119C13.0263 20.3092 13.4804 20.8885 14.0361 21.3496H5C3.97846 21.3494 3.15044 20.5216 3.15039 19.5C3.15039 16.2692 5.76929 13.6506 9 13.6504H14.0361ZM17.2266 13.6494C19.3529 13.6494 21.0771 15.3737 21.0771 17.5C21.0771 19.6262 19.3528 21.3496 17.2266 21.3496C15.1005 21.3494 13.377 19.6261 13.377 17.5C13.377 15.3738 15.1004 13.6496 17.2266 13.6494ZM19.6758 15.9863C19.5041 15.8166 19.2401 15.7968 19.0469 15.9258L18.9678 15.9912L16.7871 18.1973L15.6719 17.083C15.4766 16.8877 15.1601 16.8877 14.9648 17.083C14.7698 17.2783 14.7697 17.5949 14.9648 17.79L16.4355 19.2607C16.5297 19.3548 16.6579 19.4076 16.791 19.4072C16.9239 19.4068 17.051 19.3532 17.1445 19.2588L19.6797 16.6934C19.8734 16.497 19.872 16.1803 19.6758 15.9863ZM12 2.64941C14.6786 2.64941 16.8506 4.82142 16.8506 7.5C16.8505 10.1785 14.6785 12.3496 12 12.3496C9.3216 12.3494 7.15044 10.1784 7.15039 7.5C7.15039 4.82153 9.32157 2.64959 12 2.64941ZM12 4.34961C10.2605 4.34979 8.85059 5.76041 8.85059 7.5C8.85064 9.23954 10.2605 10.6502 12 10.6504C13.7397 10.6504 15.1503 9.23965 15.1504 7.5C15.1504 5.7603 13.7397 4.34961 12 4.34961Z" fill="#1A1A1A"/>
</svg>
