<svg width="24" height="24" viewBox="0 0 24 24" fill="none" xmlns="http://www.w3.org/2000/svg">
<path fill-rule="evenodd" clip-rule="evenodd" d="M4.00562 8.71782C2.45505 8.09759 2.45504 5.90268 4.00561 5.28245L10.9416 2.50804C11.6211 2.23625 12.3791 2.23625 13.0586 2.50804L19.9946 5.28245C21.5452 5.90268 21.5452 8.09759 19.9946 8.71781L13.0586 11.4922C12.3791 11.764 11.6211 11.764 10.9416 11.4922L4.00562 8.71782ZM4.56566 7.0858C4.57586 7.10173 4.59385 7.12215 4.63698 7.1394L11.573 9.91381C11.8472 10.0235 12.153 10.0235 12.4272 9.91381L19.3632 7.1394C19.4064 7.12215 19.4244 7.10173 19.4346 7.0858C19.4474 7.06569 19.4575 7.03598 19.4575 7.00013C19.4575 6.96428 19.4474 6.93458 19.4346 6.91447C19.4244 6.89854 19.4064 6.87811 19.3632 6.86086L12.4272 4.08645C12.153 3.97678 11.8472 3.97678 11.573 4.08645L4.63698 6.86086C4.59385 6.87811 4.57586 6.89854 4.56566 6.91447C4.55278 6.93458 4.54269 6.96428 4.54269 7.00013C4.54269 7.03598 4.55278 7.06569 4.56566 7.0858Z" fill="#1A1A1A"/>
<path d="M2.78795 11.7062C2.98266 11.279 3.48678 11.0906 3.91394 11.2853L11.5697 14.775C11.8727 14.9131 12.2207 14.9131 12.5237 14.775L20.1794 11.2853C20.6066 11.0906 21.1107 11.279 21.3054 11.7062C21.5001 12.1333 21.3117 12.6375 20.8845 12.8322L13.2288 16.3218C12.4779 16.6641 11.6155 16.6641 10.8646 16.3218L3.20884 12.8322C2.78168 12.6375 2.59324 12.1333 2.78795 11.7062Z" fill="#1A1A1A"/>
<path d="M3.92595 16.2556C3.49859 16.0614 2.99466 16.2503 2.8004 16.6777C2.60614 17.1051 2.7951 17.609 3.22246 17.8032L10.8801 21.2841C11.6295 21.6247 12.4895 21.6247 13.2389 21.2841L20.8965 17.8032C21.3239 17.609 21.5128 17.1051 21.3186 16.6777C21.1243 16.2503 20.6204 16.0614 20.193 16.2556L12.5354 19.7365C12.233 19.8739 11.886 19.8739 11.5836 19.7365L3.92595 16.2556Z" fill="#1A1A1A"/>
</svg>
