<svg width="24" height="24" viewBox="0 0 24 24" fill="none" xmlns="http://www.w3.org/2000/svg">
<path d="M11.5184 4.30078H8.70749C7.6485 4.30078 6.82306 4.30078 6.16068 4.3549C5.48776 4.40987 4.93922 4.52319 4.44521 4.7749C3.6267 5.19195 2.96124 5.85742 2.54419 6.67592C2.29248 7.16994 2.17916 7.71848 2.12418 8.39139C2.07006 9.05377 2.07007 9.87921 2.07007 10.9382V13.0634C2.07007 14.1224 2.07006 14.9478 2.12418 15.6102C2.17916 16.2831 2.29248 16.8316 2.54419 17.3256C2.96124 18.1441 3.6267 18.8096 4.44521 19.2267C4.93922 19.4784 5.48776 19.5917 6.16068 19.6467C6.82305 19.7008 7.64849 19.7008 8.70747 19.7008H11.5184C12.5774 19.7008 13.4028 19.7008 14.0652 19.6467C14.7381 19.5917 15.2866 19.4784 15.7806 19.2267C16.5991 18.8096 17.2646 18.1441 17.6817 17.3256C17.8328 17.029 17.9341 16.7126 18.0028 16.3612L18.1457 16.4585L18.1477 16.4598L18.1669 16.4729C18.6355 16.7917 19.016 17.0506 19.3298 17.2246C19.6436 17.3985 19.9696 17.5346 20.3172 17.5161C20.8158 17.4897 21.2776 17.2453 21.58 16.848C21.7908 16.571 21.8617 16.2249 21.8944 15.8677C21.9271 15.5103 21.9271 15.0501 21.9271 14.4833V10.2022C21.9271 9.63535 21.9271 9.17515 21.8944 8.81777C21.8617 8.4605 21.7908 8.11445 21.58 7.83746C21.2776 7.4401 20.8158 7.19577 20.3172 7.16931C19.9696 7.15087 19.6436 7.28688 19.3298 7.46082C19.016 7.63479 18.6355 7.89365 18.167 8.21248L18.0906 8.26446C18.0314 7.64547 17.9155 7.13492 17.6817 6.67592C17.2646 5.85742 16.5991 5.19195 15.7806 4.7749C15.2866 4.52319 14.7381 4.40987 14.0652 4.3549C13.4028 4.30078 12.5774 4.30078 11.5184 4.30078Z" fill="#1A1A1A"/>
</svg>
