<svg width="24" height="24" viewBox="0 0 24 24" fill="none" xmlns="http://www.w3.org/2000/svg">
<path fill-rule="evenodd" clip-rule="evenodd" d="M6.27052 5.69964C5.68109 5.7478 5.32998 5.83841 5.058 5.97699C4.49351 6.26461 4.03457 6.72355 3.74695 7.28804C3.60837 7.56002 3.51776 7.91113 3.4696 8.50056C3.42063 9.09991 3.41997 9.86789 3.41997 10.96V13.04C3.41997 14.1321 3.42063 14.9001 3.4696 15.4995C3.51776 16.0889 3.60837 16.44 3.74695 16.712C4.03457 17.2765 4.49351 17.7354 5.058 18.023C5.32998 18.1616 5.68109 18.2522 6.27052 18.3004C6.86987 18.3493 7.63785 18.35 8.72997 18.35H11.4957C12.5878 18.35 13.3558 18.3493 13.9551 18.3004C14.5446 18.2522 14.8957 18.1616 15.1677 18.023C15.7321 17.7354 16.1911 17.2765 16.4787 16.712C16.6245 16.4258 16.7168 16.0531 16.763 15.4088C16.7858 15.0902 16.9854 14.8112 17.2796 14.6868C17.5738 14.5623 17.9129 14.6132 18.1575 14.8187C18.2308 14.8802 18.3405 14.9561 18.5793 15.1186L18.9051 15.3403C19.4056 15.6808 19.7326 15.9023 19.9842 16.0418C20.1631 16.141 20.2411 16.1613 20.2574 16.1651C20.3516 16.1569 20.4384 16.1109 20.4981 16.0377C20.5042 16.0221 20.5312 15.9462 20.5499 15.7425C20.5761 15.456 20.577 15.061 20.577 14.4556V10.2256C20.577 9.62023 20.5761 9.22528 20.5499 8.9388C20.5313 8.73506 20.5042 8.65919 20.4981 8.64352C20.4384 8.57032 20.3516 8.52438 20.2575 8.51616C20.2411 8.51998 20.1631 8.54028 19.9842 8.63947C19.7326 8.77894 19.4056 9.00041 18.9051 9.34096L18.5793 9.56259C18.3635 9.70943 18.2524 9.78586 18.1749 9.84824C17.9234 10.0508 17.5788 10.0934 17.2856 9.95808C16.9923 9.82276 16.8011 9.53295 16.792 9.21013C16.7629 8.17199 16.6704 7.66417 16.4787 7.28804C16.1911 6.72355 15.7321 6.26461 15.1677 5.97699C14.8957 5.83841 14.5446 5.7478 13.9551 5.69964C13.3558 5.65067 12.5878 5.65001 11.4957 5.65001H8.72997C7.63784 5.65001 6.86987 5.65067 6.27052 5.69964ZM8.69312 3.95001H11.5325C12.5794 3.95 13.4169 3.95 14.0936 4.00529C14.7881 4.06204 15.3879 4.18124 15.9394 4.46228C16.8238 4.91289 17.5428 5.6319 17.9934 6.51626C18.173 6.86867 18.2876 7.24426 18.3617 7.65544C18.6608 7.4544 18.9265 7.28204 19.16 7.15262C19.4878 6.97091 19.8862 6.79387 20.3356 6.81772C20.9369 6.84962 21.4937 7.14426 21.8584 7.62342C22.1309 7.9816 22.2086 8.41054 22.2428 8.78377C22.277 9.15734 22.277 9.63131 22.277 10.1857V14.4955C22.277 15.0499 22.277 15.5239 22.2428 15.8975C22.2086 16.2707 22.1309 16.6997 21.8584 17.0578C21.4937 17.537 20.9369 17.8316 20.3356 17.8635C19.8862 17.8874 19.4878 17.7103 19.16 17.5286C18.8901 17.379 18.5771 17.172 18.2194 16.9297C18.1588 17.1206 18.0846 17.3048 17.9934 17.4838C17.5428 18.3681 16.8238 19.0871 15.9394 19.5377C15.3879 19.8188 14.7881 19.938 14.0936 19.9947C13.4169 20.05 12.5794 20.05 11.5325 20.05H8.69314C7.64628 20.05 6.8088 20.05 6.13208 19.9947C5.43752 19.938 4.83779 19.8188 4.28622 19.5377C3.40185 19.0871 2.68285 18.3681 2.23224 17.4838C1.9512 16.9322 1.83199 16.3325 1.77525 15.6379C1.71996 14.9612 1.71996 14.1237 1.71997 13.0769V10.9232C1.71996 9.87631 1.71996 9.03884 1.77525 8.36212C1.83199 7.66756 1.9512 7.06784 2.23224 6.51626C2.68285 5.6319 3.40185 4.91289 4.28622 4.46228C4.83779 4.18124 5.43752 4.06204 6.13208 4.00529C6.8088 3.95 7.64626 3.95 8.69312 3.95001Z" fill="#1A1A1A"/>
</svg>
