<svg width="24" height="24" viewBox="0 0 24 24" fill="none" xmlns="http://www.w3.org/2000/svg">
<path d="M16.5 12.1504C18.9024 12.1504 20.8496 14.0976 20.8496 16.5C20.8496 17.3941 20.5797 18.2249 20.1172 18.916L21.8506 20.6494C22.1825 20.9814 22.1825 21.5186 21.8506 21.8506C21.5186 22.1825 20.9814 22.1825 20.6494 21.8506L18.916 20.1172C18.2249 20.5797 17.3941 20.8496 16.5 20.8496C14.0976 20.8496 12.1504 18.9024 12.1504 16.5C12.1504 14.0976 14.0976 12.1504 16.5 12.1504ZM15.6279 2.15039C16.0273 2.15376 16.3591 2.17099 16.6797 2.25195C17.0373 2.34229 17.3774 2.4912 17.6865 2.69238C18.0561 2.933 18.3553 3.26543 18.7637 3.70703L19.5605 4.56934C19.9275 4.9662 20.2044 5.25709 20.4033 5.60254C20.5699 5.89184 20.6924 6.20478 20.7666 6.53027C20.833 6.82191 20.8468 7.12116 20.8496 7.48047V11C20.8496 11.4694 20.4694 11.8496 20 11.8496C19.5306 11.8496 19.1504 11.4694 19.1504 11V7.86133C19.1504 7.24467 19.1446 7.06741 19.1084 6.9082C19.0719 6.74784 19.0118 6.5937 18.9297 6.45117C18.8482 6.30969 18.7313 6.17551 18.3125 5.72266L17.5156 4.86133C17.0494 4.35709 16.9109 4.21564 16.7598 4.11719C16.6074 4.01799 16.439 3.9449 16.2627 3.90039C16.0878 3.85628 15.89 3.84961 15.2031 3.84961H8C7.28592 3.84961 6.80099 3.85028 6.42676 3.88086C6.06274 3.91063 5.87852 3.96529 5.75098 4.03027C5.44061 4.18845 5.18845 4.44061 5.03027 4.75098C4.96529 4.87852 4.91063 5.06274 4.88086 5.42676C4.85028 5.80099 4.84961 6.28592 4.84961 7V17C4.84961 17.7141 4.85028 18.199 4.88086 18.5732C4.91063 18.9373 4.96529 19.1215 5.03027 19.249C5.18844 19.5594 5.44062 19.8116 5.75098 19.9697C5.87852 20.0347 6.06274 20.0894 6.42676 20.1191C6.80099 20.1497 7.28592 20.1504 8 20.1504H9.5C9.96944 20.1504 10.3496 20.5306 10.3496 21C10.3496 21.4694 9.96944 21.8496 9.5 21.8496H8C7.31412 21.8496 6.74853 21.851 6.28906 21.8135C5.81981 21.7751 5.38654 21.6926 4.97949 21.4854C4.34916 21.1642 3.83582 20.6508 3.51465 20.0205C3.30736 19.6135 3.22486 19.1802 3.18652 18.7109C3.14901 18.2515 3.15039 17.6859 3.15039 17V7C3.15039 6.31412 3.149 5.74853 3.18652 5.28906C3.22486 4.81981 3.30736 4.38654 3.51465 3.97949C3.83582 3.34915 4.34915 2.83582 4.97949 2.51465C5.38654 2.30736 5.81981 2.22486 6.28906 2.18652C6.74853 2.149 7.31412 2.15039 8 2.15039H15.6279ZM16.5 13.8496C15.0365 13.8496 13.8496 15.0365 13.8496 16.5C13.8496 17.9636 15.0364 19.1504 16.5 19.1504C17.9636 19.1504 19.1504 17.9636 19.1504 16.5C19.1504 15.0364 17.9636 13.8496 16.5 13.8496ZM16 9.65039C16.4694 9.65039 16.8496 10.0306 16.8496 10.5C16.8496 10.9694 16.4694 11.3496 16 11.3496H8C7.53056 11.3496 7.15039 10.9694 7.15039 10.5C7.15039 10.0306 7.53056 9.65039 8 9.65039H16ZM13 6.15039C13.4694 6.15039 13.8496 6.53056 13.8496 7C13.8496 7.46944 13.4694 7.84961 13 7.84961H8C7.53056 7.84961 7.15039 7.46944 7.15039 7C7.15039 6.53056 7.53056 6.15039 8 6.15039H13Z" fill="#1A1A1A"/>
</svg>
