<svg width="24" height="24" viewBox="0 0 24 24" fill="none" xmlns="http://www.w3.org/2000/svg">
<path fill-rule="evenodd" clip-rule="evenodd" d="M1.6499 8.49999C1.6499 5.26913 4.26904 2.64999 7.4999 2.64999H16.4999C19.7308 2.64999 22.3499 5.26913 22.3499 8.49999V15.5C22.3499 18.7309 19.7308 21.35 16.4999 21.35H7.4999C4.26904 21.35 1.6499 18.7309 1.6499 15.5V8.49999ZM7.4999 4.34999C5.20792 4.34999 3.3499 6.20801 3.3499 8.49999V15.5C3.3499 17.792 5.20792 19.65 7.4999 19.65H16.4999C18.7919 19.65 20.6499 17.792 20.6499 15.5V8.49999C20.6499 6.20801 18.7919 4.34999 16.4999 4.34999H7.4999Z" fill="#1A1A1A"/>
<path fill-rule="evenodd" clip-rule="evenodd" d="M14.0659 8.19728C14.0659 7.89677 14.3095 7.65317 14.6101 7.65317H16.9864C18.5993 7.65317 19.9069 8.9607 19.9069 10.5736C19.9069 12.1866 18.5993 13.4941 16.9864 13.4941H15.7578L15.7578 15.4968C15.7578 15.9663 15.3773 16.3468 14.9078 16.3468C14.4384 16.3468 14.0578 15.9663 14.0578 15.4968L14.0577 9.69493C14.0577 9.65469 14.0605 9.6151 14.0659 9.57635V8.19728ZM15.7636 12.0157H17.0031C17.8023 12.0157 18.4503 11.3678 18.4503 10.5685C18.4503 9.76924 17.8023 9.12131 17.0031 9.12131H15.7636V12.0157Z" fill="#1A1A1A"/>
<path fill-rule="evenodd" clip-rule="evenodd" d="M11.9 7.64999C12.3695 7.64999 12.75 8.03055 12.75 8.49999V15.5C12.75 15.9694 12.3695 16.35 11.9 16.35C11.4306 16.35 11.05 15.9694 11.05 15.5V8.49999C11.05 8.03055 11.4306 7.64999 11.9 7.64999Z" fill="#2F3033"/>
<path fill-rule="evenodd" clip-rule="evenodd" d="M9.55042 7.82465C10.0017 7.95409 10.2625 8.42483 10.1331 8.87607L8.22156 15.5396C7.9581 16.458 6.65617 16.4567 6.39467 15.5377L4.4985 8.87434C4.37001 8.42282 4.63188 7.95264 5.08339 7.82415C5.53491 7.69566 6.0051 7.95753 6.13358 8.40905L7.31129 12.5476L8.49899 8.40731C8.62844 7.95607 9.09918 7.6952 9.55042 7.82465Z" fill="#1A1A1A"/>
</svg>
