<svg width="24" height="24" viewBox="0 0 24 24" fill="none" xmlns="http://www.w3.org/2000/svg">
<path d="M10.0098 3.08036C10.429 2.83181 10.9218 2.75298 11.3848 2.87626C11.928 3.02096 12.3722 3.43195 12.5498 4.02372L12.7012 4.56962C13.0554 5.96817 13.4111 8.24695 13.4111 11.7581C13.4111 15.6925 12.9987 18.2329 12.6455 19.6858C12.4875 20.3354 12.0186 20.7939 11.4404 20.9593C10.9441 21.1011 10.4042 21.0182 9.95117 20.7278L9.7627 20.5911L5.29004 16.9222C5.23711 16.8788 5.17093 16.8549 5.10254 16.8548H3.41602C2.462 16.8546 1.68852 16.0813 1.68848 15.1272V8.37236C1.68861 7.41839 2.46206 6.645 3.41602 6.64482H5.12988C5.19395 6.64477 5.25633 6.62364 5.30762 6.58525L9.83496 3.19657L10.0098 3.08036ZM10.8652 4.46122L10.8076 4.49638L6.28027 7.88505C5.94832 8.13352 5.54452 8.26781 5.12988 8.26786H3.41602C3.35827 8.26805 3.31165 8.31459 3.31152 8.37236V15.1272C3.31156 15.1851 3.35821 15.2315 3.41602 15.2317H5.10254C5.5462 15.2318 5.97625 15.386 6.31934 15.6673L10.792 19.3362L10.8574 19.3792C10.9196 19.4099 10.9697 19.407 10.9951 19.3997C11.0128 19.3946 11.0246 19.3862 11.0332 19.3772C11.0408 19.3693 11.057 19.3488 11.0684 19.302L11.1914 18.7581C11.482 17.3651 11.7891 15.1017 11.7891 11.7581C11.789 8.35394 11.4428 6.2128 11.1279 4.96904L10.9961 4.48954C10.9909 4.47234 10.9857 4.46184 10.9824 4.45634C10.9793 4.45116 10.9771 4.44809 10.9766 4.44755C10.9763 4.44732 10.9738 4.44551 10.9668 4.44364C10.9552 4.44072 10.9181 4.43691 10.8652 4.46122ZM17.9277 5.65556C18.2545 5.29362 18.7985 5.24355 19.1836 5.52568L19.2588 5.5872L19.6016 5.9124C21.2692 7.57372 22.2167 9.75832 22.2168 12.0501L22.2041 12.5061C22.0789 14.7817 21.0214 16.9221 19.2588 18.512L19.1836 18.5735C18.7984 18.8558 18.2545 18.8059 17.9277 18.4436C17.5792 18.0571 17.6096 17.4612 17.9961 17.1126L18.2715 16.8518C19.5165 15.6118 20.2325 14.0367 20.3223 12.4007L20.332 12.0501C20.3319 10.2895 19.6055 8.57587 18.2715 7.24736L17.9961 6.98661L17.9277 6.91825C17.6074 6.56411 17.601 6.01785 17.9277 5.65556ZM15.2578 8.48173C15.569 8.13035 16.1066 8.09732 16.458 8.40849C16.9865 8.87648 17.4124 9.43824 17.7051 10.0638L17.8076 10.3001C18.0331 10.8582 18.1504 11.4505 18.1504 12.0501L18.1436 12.3069C18.115 12.8185 18.0009 13.3218 17.8076 13.8001L17.7051 14.0364C17.4124 14.662 16.9865 15.2237 16.458 15.6917C16.1066 16.0028 15.569 15.9697 15.2578 15.6184C14.9468 15.267 14.9797 14.7304 15.3311 14.4192C15.6937 14.0981 15.9753 13.7222 16.165 13.3167L16.2314 13.1634C16.3561 12.855 16.4274 12.5342 16.4453 12.2112L16.4502 12.0501C16.4502 11.6729 16.3768 11.2964 16.2314 10.9368L16.165 10.7835C15.9753 10.378 15.6937 10.0021 15.3311 9.68095C14.9797 9.36981 14.9468 8.83319 15.2578 8.48173Z" fill="#1A1A1A"/>
</svg>
