<svg width="24" height="24" viewBox="0 0 24 24" fill="none" xmlns="http://www.w3.org/2000/svg">
<path fill-rule="evenodd" clip-rule="evenodd" d="M12.0001 2.14941H11.9532C10.4883 2.1494 9.32383 2.1494 8.39325 2.24406C7.43853 2.34118 6.63603 2.54493 5.93261 3.01494C5.37184 3.38963 4.89037 3.87111 4.51567 4.43188C4.04566 5.1353 3.84192 5.93779 3.7448 6.89251C3.65013 7.82311 3.65014 8.98749 3.65015 10.4525V10.4525V10.4994V13.4994V13.5463V13.5463C3.65014 15.0113 3.65013 16.1757 3.7448 17.1063C3.84192 18.061 4.04566 18.8635 4.51567 19.5669C4.89037 20.1277 5.37184 20.6092 5.93261 20.9839C6.63603 21.4539 7.43853 21.6576 8.39325 21.7548C9.32384 21.8494 10.4882 21.8494 11.9532 21.8494H12.0001H12.0471C13.1011 21.8494 13.9996 21.8494 14.7673 21.8142C14.2291 21.3577 13.7888 20.7894 13.4822 20.1451C13.0396 20.1493 12.5487 20.1494 12.0001 20.1494C10.4777 20.1494 9.3998 20.1484 8.56529 20.0635C7.74499 19.98 7.25462 19.8227 6.87708 19.5704C6.50193 19.3197 6.17983 18.9976 5.92917 18.6225C5.67691 18.2449 5.51951 17.7546 5.43607 16.9343C5.35117 16.0998 5.35015 15.0219 5.35015 13.4994V10.4994C5.35015 8.97694 5.35117 7.89907 5.43607 7.06456C5.51951 6.24426 5.67691 5.75389 5.92917 5.37635C6.17983 5.0012 6.50193 4.6791 6.87708 4.42844C7.25462 4.17617 7.74499 4.01878 8.56529 3.93533C9.3998 3.85044 10.4777 3.84941 12.0001 3.84941C13.5226 3.84941 14.6005 3.85044 15.435 3.93533C16.2553 4.01878 16.7457 4.17618 17.1232 4.42844C17.4984 4.6791 17.8205 5.0012 18.0711 5.37635C18.3234 5.75388 18.4808 6.24426 18.5642 7.06456C18.6491 7.89907 18.6501 8.97694 18.6501 10.4994V13.0413C19.2578 13.1202 19.8313 13.3083 20.3501 13.5852V13.5463V13.4994V10.4994V10.4525C20.3502 8.98751 20.3502 7.82312 20.2555 6.89251C20.1584 5.93779 19.9546 5.1353 19.4846 4.43188C19.1099 3.87111 18.6285 3.38963 18.0677 3.01494C17.3643 2.54493 16.5618 2.34118 15.607 2.24406C14.6765 2.1494 13.5121 2.1494 12.0471 2.14941H12.0001ZM12.7003 9.26571C13.2477 9.58963 13.7552 9.94916 14.1845 10.2806C14.8054 10.76 15.1159 10.9997 15.1155 11.4301C15.1151 11.8605 14.8046 12.0994 14.1836 12.5771C13.7568 12.9055 13.2509 13.2627 12.7003 13.5886C12.2243 13.8705 11.7774 14.1009 11.3845 14.2855C10.735 14.5907 10.4102 14.7433 10.0277 14.5255C9.64512 14.3076 9.60545 13.9513 9.52612 13.2386C9.47003 12.7348 9.42871 12.1269 9.42871 11.4293C9.42871 10.7335 9.46983 10.1269 9.5257 9.6238C9.60513 8.90852 9.64485 8.55088 10.0269 8.33286C10.4089 8.11484 10.7355 8.26761 11.3886 8.57316C11.7825 8.75741 12.2287 8.98663 12.7003 9.26571ZM22 17.9998C22 20.2089 20.2091 21.9998 18 21.9998C15.7909 21.9998 14 20.2089 14 17.9998C14 15.7907 15.7909 13.9998 18 13.9998C20.2091 13.9998 22 15.7907 22 17.9998ZM18 15.4998C18.2761 15.4998 18.5 15.7237 18.5 15.9998V17.4998H20C20.2761 17.4998 20.5 17.7237 20.5 17.9998C20.5 18.2759 20.2761 18.4998 20 18.4998H18.0857C17.7622 18.4998 17.5 18.2376 17.5 17.9141V15.9998C17.5 15.7237 17.7239 15.4998 18 15.4998Z" fill="#1A1A1A"/>
</svg>
