<svg width="24" height="24" viewBox="0 0 24 24" fill="none" xmlns="http://www.w3.org/2000/svg">
<path d="M12.8499 8.99995C12.8499 8.53051 12.4693 8.14995 11.9999 8.14995C11.5305 8.14995 11.1499 8.53051 11.1499 8.99995V11.5857C11.1499 12.0764 11.3448 12.5469 11.6918 12.8939L13.8989 15.101C14.2308 15.4329 14.769 15.4329 15.1009 15.101C15.4329 14.769 15.4329 14.2309 15.1009 13.8989L12.8938 11.6918C12.8657 11.6637 12.8499 11.6255 12.8499 11.5857V8.99995Z" fill="#1A1A1A"/>
<path fill-rule="evenodd" clip-rule="evenodd" d="M17.2842 5.91331L16.7884 3.93019C16.5269 2.88404 15.5869 2.15015 14.5086 2.15015H9.35089C8.27255 2.15015 7.33259 2.88405 7.07105 3.93019L6.54352 6.04033C6.45191 6.11301 6.36323 6.19191 6.27754 6.27759C5.65395 6.90119 5.38983 7.68368 5.26732 8.59488C5.14986 9.46855 5.14988 10.5766 5.1499 11.9386V12.0612C5.14988 13.4233 5.14986 14.5314 5.26732 15.405C5.38983 16.3162 5.65395 17.0987 6.27754 17.7223C6.36321 17.808 6.45187 17.8869 6.54346 17.9595L7.07105 20.0699C7.33259 21.1161 8.27255 21.85 9.35089 21.85H14.5086C15.5869 21.85 16.5269 21.1161 16.7884 20.0699L17.2842 18.0866C17.4378 17.9812 17.584 17.8606 17.7223 17.7223C18.3459 17.0987 18.61 16.3162 18.7325 15.405C18.85 14.5313 18.8499 13.4233 18.8499 12.0612V11.9387C18.8499 10.5766 18.85 9.46856 18.7325 8.59488C18.61 7.68368 18.3459 6.90119 17.7223 6.27759C17.5839 6.13927 17.4378 6.01863 17.2842 5.91331ZM11.4587 5.15015H8.51839L8.7203 4.3425C8.79264 4.05314 9.05263 3.85015 9.35089 3.85015H14.5086C14.8068 3.85015 15.0668 4.05314 15.1392 4.3425L15.3411 5.15015H12.5412C12.3849 5.14995 12.2251 5.14995 12.0615 5.14995H11.9386C11.7751 5.14995 11.6149 5.14995 11.4587 5.15015ZM11.9481 17.15C10.5378 17.1499 9.55949 17.1469 8.82135 17.0477C8.09866 16.9505 7.73471 16.7753 7.47962 16.5202C7.22454 16.2651 7.04932 15.9012 6.95216 15.1785C6.85171 14.4314 6.8499 13.4382 6.8499 12C6.8499 10.5617 6.85171 9.56854 6.95216 8.8214C7.04932 8.09871 7.22454 7.73476 7.47962 7.47967C7.73471 7.22459 8.09866 7.04937 8.82135 6.95221C9.48643 6.86279 10.3465 6.85154 11.5419 6.85015H12.4579C13.6533 6.85154 14.5134 6.86279 15.1785 6.95221C15.9011 7.04937 16.2651 7.22459 16.5202 7.47967C16.7753 7.73476 16.9505 8.09871 17.0476 8.8214C17.1481 9.56854 17.1499 10.5617 17.1499 12C17.1499 13.4382 17.1481 14.4314 17.0476 15.1785C16.9505 15.9012 16.7753 16.2651 16.5202 16.5202C16.2651 16.7753 15.9011 16.9505 15.1785 17.0477C14.4403 17.1469 13.462 17.1499 12.0517 17.15H11.9481ZM8.51839 18.85H15.3411L15.1392 19.6576C15.0668 19.947 14.8068 20.15 14.5086 20.15H9.35089C9.05263 20.15 8.79264 19.947 8.7203 19.6576L8.51839 18.85Z" fill="#1A1A1A"/>
</svg>
