<svg width="24" height="24" viewBox="0 0 24 24" fill="none" xmlns="http://www.w3.org/2000/svg">
<path fill-rule="evenodd" clip-rule="evenodd" d="M3.02734 6.15996C3.02734 4.70882 3.81327 3.3715 5.08103 2.66541L5.3393 2.52157C6.57425 1.83375 8.08054 1.84883 9.30148 2.56122L19.0432 8.24531C20.2719 8.9622 21.0273 10.2777 21.0273 11.7002V12.3C21.0273 13.7226 20.2719 15.038 19.0432 15.7549L9.30147 21.439C8.08054 22.1514 6.57425 22.1665 5.3393 21.4787L5.08103 21.3348C3.81327 20.6287 3.02734 19.2914 3.02734 17.8403V6.15996ZM4.72734 6.15996V17.1291L7.36743 15.4364V3.71757C6.95499 3.7029 6.53924 3.79914 6.16649 4.00675L5.90822 4.15059C5.17925 4.5566 4.72734 5.32556 4.72734 6.15996ZM14.3755 10.6589C14.362 10.6501 14.3483 10.6414 14.3344 10.633L9.46205 7.67861C9.43633 7.66301 9.4104 7.64837 9.38431 7.63466L9.06743 7.44266V4.39288L18.1865 9.71364C18.8929 10.1259 19.3273 10.8823 19.3273 11.7002V12.3C19.3273 12.7175 19.2142 13.1189 19.0095 13.4667L14.3755 10.6589ZM14.363 12.9742C14.3891 12.9575 14.4145 12.9401 14.439 12.922L14.629 12.8002L17.6239 14.6148L8.44473 19.9707C7.7427 20.3803 6.87658 20.389 6.16648 19.9935L5.90821 19.8497C5.52837 19.6381 5.22375 19.328 5.0191 18.9614L14.363 12.9742ZM13.0097 11.819L9.06743 9.43037V14.3461L13.0097 11.819Z" fill="#1A1A1A"/>
</svg>
