<svg width="24" height="24" viewBox="0 0 24 24" fill="none" xmlns="http://www.w3.org/2000/svg">
<path fill-rule="evenodd" clip-rule="evenodd" d="M14.3257 4.60153C12.9354 4.10809 11.4342 4.01642 9.9942 4.33702C8.55419 4.65762 7.23366 5.37752 6.18401 6.41418C5.22138 7.3649 4.52231 8.54674 4.15192 9.84374C3.86493 9.97792 3.58927 10.1385 3.32867 10.3242C2.43534 10.9608 1.76386 11.8612 1.40854 12.899C1.05322 13.9369 1.0319 15.0599 1.34758 16.1104C1.66326 17.161 2.30007 18.0863 3.16859 18.7563C4.03711 19.4264 5.09371 19.8076 6.18997 19.8463C6.19338 19.8465 6.19679 19.8466 6.2002 19.8466V19.8494L11.7001 19.8494C11.702 19.8494 11.7038 19.8494 11.7056 19.8494H17.2004C18.5716 19.8494 19.896 19.3514 20.9267 18.4471C21.9574 17.5428 22.6241 16.2945 22.8024 14.935C22.9808 13.5755 22.6587 12.1975 21.8962 11.0579C21.1745 9.97942 20.105 9.18414 18.8695 8.80214C18.6038 8.20642 18.2637 7.64327 17.8549 7.12688C16.9392 5.9702 15.7161 5.09497 14.3257 4.60153ZM17.2504 18.1497C18.1912 18.1378 19.0975 17.7904 19.8055 17.1692C20.5261 16.537 20.9922 15.6643 21.1169 14.7138C21.2416 13.7634 21.0164 12.8 20.4833 12.0033C20.2131 11.5996 19.8733 11.2526 19.4832 10.9764C19.4904 11.0313 19.497 11.0862 19.5031 11.1413C19.6644 12.6077 19.4091 14.0899 18.7667 15.418C18.2506 16.4848 17.5013 17.4175 16.5787 18.1494L17.2504 18.1497ZM11.7036 18.1494C12.8582 18.1488 13.9893 17.8231 14.9675 17.2097C15.9467 16.5956 16.733 15.7181 17.2363 14.6777C17.7397 13.6372 17.9396 12.476 17.8133 11.3271C17.6869 10.1783 17.2394 9.08827 16.522 8.18208C15.8046 7.27589 14.8464 6.5902 13.7571 6.20362C12.6679 5.81704 11.4918 5.74522 10.3636 5.99639C9.23547 6.24756 8.20092 6.81156 7.37858 7.62372C6.86873 8.12726 6.45326 8.71356 6.14791 9.35454C6.22817 9.35106 6.30863 9.34942 6.38924 9.34963C7.48619 9.3525 8.55468 9.6989 9.44466 10.3402C10.3346 10.9815 11.0014 11.8854 11.3513 12.9251C11.7012 13.9647 11.7166 15.0879 11.3954 16.1368C11.258 16.5856 10.7827 16.8381 10.3338 16.7006C9.88493 16.5632 9.63247 16.0879 9.76992 15.639C9.98709 14.9298 9.97666 14.1703 9.74007 13.4673C9.50348 12.7643 9.05263 12.1531 8.45083 11.7194C7.84904 11.2858 7.12653 11.0516 6.38479 11.0496C5.64304 11.0477 4.91931 11.2781 4.31526 11.7086C3.7112 12.1391 3.25715 12.7479 3.01689 13.4497C2.77662 14.1515 2.7622 14.9108 2.97566 15.6212C3.18912 16.3316 3.61973 16.9573 4.20702 17.4103C4.7943 17.8634 5.50876 18.1212 6.25004 18.1474C6.2621 18.1478 6.2741 18.1485 6.28602 18.1494L11.7001 18.1494C11.7013 18.1494 11.7024 18.1494 11.7036 18.1494Z" fill="#1A1A1A"/>
</svg>
