<svg width="24" height="24" viewBox="0 0 24 24" fill="none" xmlns="http://www.w3.org/2000/svg">
<path fill-rule="evenodd" clip-rule="evenodd" d="M14.3257 4.60178C12.9354 4.10834 11.4342 4.01666 9.9942 4.33726C8.55419 4.65786 7.23366 5.37776 6.18401 6.41443C5.22138 7.36514 4.52231 8.54699 4.15192 9.84399C3.86493 9.97816 3.58927 10.1387 3.32867 10.3244C2.43534 10.961 1.76386 11.8615 1.40854 12.8993C1.05322 13.9371 1.0319 15.0601 1.34758 16.1107C1.66326 17.1612 2.30007 18.0865 3.16859 18.7566C4.03711 19.4266 5.09371 19.8078 6.18997 19.8466C6.19338 19.8467 6.19679 19.8468 6.2002 19.8469V19.8497L11.7001 19.8497C11.702 19.8497 11.7038 19.8497 11.7056 19.8497H17.2004C18.5716 19.8497 19.896 19.3514 20.9267 18.4471C21.9574 17.5428 22.6241 16.2945 22.8024 14.935C22.9808 13.5755 22.6587 12.1975 21.8962 11.0579C21.1745 9.97938 20.1049 9.18409 18.8694 8.80211C18.6037 8.20649 18.2636 7.64343 17.8549 7.12713C16.9392 5.97045 15.7161 5.09522 14.3257 4.60178ZM17.2504 18.1497C18.1912 18.1378 19.0975 17.7904 19.8055 17.1692C20.5261 16.537 20.9922 15.6643 21.1169 14.7138C21.2416 13.7634 21.0164 12.8 20.4833 12.0033C20.2131 11.5996 19.8732 11.2526 19.4832 10.9764C19.4904 11.0313 19.497 11.0864 19.5031 11.1416C19.6644 12.608 19.4091 14.0902 18.7667 15.4182C18.2506 16.4851 17.5013 17.4177 16.5787 18.1497H17.2504ZM11.7036 18.1497C12.8582 18.149 13.9893 17.8234 14.9675 17.2099C15.9467 16.5959 16.733 15.7183 17.2363 14.6779C17.7397 13.6375 17.9396 12.4762 17.8133 11.3274C17.6869 10.1785 17.2394 9.08851 16.522 8.18232C15.8046 7.27614 14.8464 6.59045 13.7571 6.20387C12.6679 5.81729 11.4918 5.74547 10.3636 5.99664C9.23547 6.24781 8.20092 6.8118 7.37858 7.62397C6.86873 8.12751 6.45326 8.7138 6.14791 9.35479C6.22817 9.35131 6.30863 9.34966 6.38924 9.34987C7.48619 9.35274 8.55468 9.69915 9.44466 10.3404C10.3346 10.9817 11.0014 11.8857 11.3513 12.9253C11.7012 13.965 11.7166 15.0881 11.3954 16.137C11.258 16.5859 10.7827 16.8383 10.3338 16.7009C9.88493 16.5634 9.63247 16.0881 9.76992 15.6393C9.98709 14.93 9.97666 14.1706 9.74007 13.4676C9.50348 12.7645 9.05263 12.1533 8.45083 11.7197C7.84904 11.286 7.12653 11.0518 6.38479 11.0499C5.64304 11.0479 4.91931 11.2784 4.31526 11.7088C3.7112 12.1393 3.25715 12.7482 3.01689 13.4499C2.77662 14.1517 2.7622 14.9111 2.97566 15.6215C3.18912 16.3318 3.61973 16.9575 4.20702 17.4106C4.7943 17.8637 5.50876 18.1214 6.25004 18.1476C6.2621 18.1481 6.2741 18.1487 6.28602 18.1497L11.7001 18.1497C11.7013 18.1497 11.7024 18.1497 11.7036 18.1497Z" fill="#1A1A1A"/>
</svg>
