<svg width="24" height="24" viewBox="0 0 24 24" fill="none" xmlns="http://www.w3.org/2000/svg">
<path d="M19.4999 3.65002C19.6151 3.65002 19.725 3.67296 19.8252 3.71452C19.9255 3.756 20.0194 3.81749 20.1009 3.89898C20.1824 3.98048 20.2439 4.0744 20.2854 4.17466C20.3269 4.27488 20.3499 4.38477 20.3499 4.50002V9.50002C20.3499 9.96947 19.9693 10.35 19.4999 10.35C19.0304 10.35 18.6499 9.96947 18.6499 9.50002V6.55211L13.8645 11.3374C13.5326 11.6694 12.9944 11.6694 12.6625 11.3374C12.3305 11.0055 12.3305 10.4673 12.6625 10.1353L17.4478 5.35002H14.4999C14.0304 5.35002 13.6499 4.96947 13.6499 4.50002C13.6499 4.03058 14.0304 3.65002 14.4999 3.65002H19.4999Z" fill="#1A1A1A"/>
<path d="M3.6499 19.488C3.64943 19.525 3.65135 19.562 3.65567 19.5988C3.66573 19.685 3.68867 19.7672 3.72252 19.8435C3.85466 20.1414 4.15302 20.3492 4.4999 20.3492H9.4999C9.96934 20.3492 10.3499 19.9687 10.3499 19.4992C10.3499 19.0298 9.96934 18.6492 9.4999 18.6492H6.55172L11.1136 14.0874C11.4455 13.7555 11.4455 13.2173 11.1136 12.8853C10.7816 12.5534 10.2435 12.5534 9.91151 12.8853L5.3499 17.4469V14.4992C5.3499 14.0298 4.96934 13.6492 4.4999 13.6492C4.03046 13.6492 3.6499 14.0298 3.6499 14.4992V19.488Z" fill="#1A1A1A"/>
</svg>
