<svg width="24" height="24" viewBox="0 0 24 24" fill="none" xmlns="http://www.w3.org/2000/svg">
<path d="M3.39886 3.39898C3.73081 3.06704 4.269 3.06704 4.60094 3.39898L9.64985 8.44789L9.64985 5.49924C9.64985 5.0298 10.0304 4.64924 10.4999 4.64924C10.9693 4.64924 11.3499 5.0298 11.3499 5.49924V10.4992C11.3499 10.9687 10.9693 11.3492 10.4999 11.3492H5.49985C5.03041 11.3492 4.64985 10.9687 4.64985 10.4992C4.64985 10.0298 5.03041 9.64924 5.49985 9.64924H8.44704L3.39886 4.60107C3.06692 4.26912 3.06692 3.73093 3.39886 3.39898Z" fill="#1A1A1A"/>
<path d="M13.4999 12.65C13.0305 12.65 12.6499 13.0306 12.6499 13.5V18.5C12.6499 18.9695 13.0305 19.35 13.4999 19.35C13.9693 19.35 14.3499 18.9695 14.3499 18.5V15.5521L19.3989 20.6011C19.7308 20.933 20.269 20.933 20.6009 20.6011C20.9329 20.2691 20.9329 19.7309 20.6009 19.399L15.552 14.35H18.4999C18.9693 14.35 19.3499 13.9695 19.3499 13.5C19.3499 13.0306 18.9693 12.65 18.4999 12.65H13.4999Z" fill="#1A1A1A"/>
</svg>
