<svg width="24" height="24" viewBox="0 0 24 24" fill="none" xmlns="http://www.w3.org/2000/svg">
<path d="M20.6009 3.39898C20.2689 3.06704 19.7308 3.06704 19.3988 3.39898L14.3499 8.44789L14.3499 5.49924C14.3499 5.0298 13.9693 4.64924 13.4999 4.64924C13.0305 4.64924 12.6499 5.0298 12.6499 5.49924V10.4992C12.6499 10.9687 13.0305 11.3492 13.4999 11.3492H18.4999C18.9693 11.3492 19.3499 10.9687 19.3499 10.4992C19.3499 10.0298 18.9693 9.64924 18.4999 9.64924H15.5527L20.6009 4.60107C20.9328 4.26912 20.9328 3.73093 20.6009 3.39898Z" fill="#1A1A1A"/>
<path d="M10.4999 12.65C10.9693 12.65 11.3499 13.0306 11.3499 13.5V18.5C11.3499 18.9695 10.9693 19.35 10.4999 19.35C10.0304 19.35 9.64985 18.9695 9.64985 18.5V15.5521L4.60089 20.6011C4.26895 20.933 3.73076 20.933 3.39881 20.6011C3.06687 20.2691 3.06687 19.7309 3.39881 19.399L8.44777 14.35H5.49985C5.03041 14.35 4.64985 13.9695 4.64985 13.5C4.64985 13.0306 5.03041 12.65 5.49985 12.65H10.4999Z" fill="#1A1A1A"/>
</svg>
