<svg width="24" height="24" viewBox="0 0 24 24" fill="none" xmlns="http://www.w3.org/2000/svg">
<path d="M19.8499 16.3363C19.8499 15.8669 19.4693 15.4863 18.9999 15.4863C18.5304 15.4863 18.1499 15.8669 18.1499 16.3363V18.4863H15.9999C15.5305 18.4863 15.1499 18.8669 15.1499 19.3363C15.1499 19.8058 15.5305 20.1863 15.9999 20.1863H18.1499V22.3363C18.1499 22.8058 18.5304 23.1863 18.9999 23.1863C19.4693 23.1863 19.8499 22.8058 19.8499 22.3363V20.1863H21.9999C22.4693 20.1863 22.8499 19.8058 22.8499 19.3363C22.8499 18.8669 22.4693 18.4863 21.9999 18.4863H19.8499V16.3363Z" fill="#1A1A1A"/>
<path d="M12 4.25039C12.9941 4.25039 13.8 3.4445 13.8 2.45039C13.8 1.45628 12.9941 0.650391 12 0.650391C11.0058 0.650391 10.2 1.45628 10.2 2.45039C10.2 3.4445 11.0058 4.25039 12 4.25039Z" fill="#1A1A1A"/>
<path d="M12.7671 5.375H11.2957L11.2599 5.37802C6.26968 5.79973 2.40137 10.2071 2.40137 15.4503C2.40137 16.0702 2.46937 16.6821 2.53148 17.2409L2.53718 17.2922L2.54269 17.3221C3.05679 20.113 5.3564 22.1537 8.15035 22.1537H14C14.4694 22.1537 14.85 21.7731 14.85 21.3037C14.85 20.8342 14.4694 20.4537 14 20.4537H8.15035C6.24516 20.4537 4.60658 19.0717 4.21993 17.0428C4.15684 16.4746 4.10137 15.9586 4.10137 15.4503C4.10137 11.0356 7.34021 7.43444 11.3683 7.075H12.6944C16.3119 7.39777 19.2858 10.3298 19.8151 14.1179C19.8801 14.5828 20.3096 14.9071 20.7746 14.8421C21.2395 14.7772 21.5637 14.3476 21.4988 13.8827C20.8659 9.35321 17.2831 5.75664 12.8028 5.37802L12.7671 5.375Z" fill="#1A1A1A"/>
<path fill-rule="evenodd" clip-rule="evenodd" d="M12 1.65C12.4694 1.65 12.85 2.03056 12.85 2.5V6C12.85 6.46944 12.4694 6.85 12 6.85C11.5306 6.85 11.15 6.46944 11.15 6V2.5C11.15 2.03056 11.5306 1.65 12 1.65Z" fill="#1A1A1A"/>
<path d="M8.3999 12.3563C8.3999 11.8869 8.78046 11.5063 9.2499 11.5063Lnan nanL9.2499 11.5063C9.71934 11.5063 10.0999 11.8869 10.0999 12.3563V13.8063C10.0999 14.2758 9.71934 14.6563 9.2499 14.6563Lnan nanL9.2499 14.6563C8.78046 14.6563 8.3999 14.2758 8.3999 13.8063V12.3563Z" fill="#1A1A1A"/>
<path d="M13.6023 12.3563C13.6023 11.8869 13.9829 11.5063 14.4523 11.5063Lnan nanL14.4523 11.5063C14.9217 11.5063 15.3023 11.8869 15.3023 12.3563V13.8063C15.3023 14.2758 14.9217 14.6563 14.4523 14.6563Lnan nanL14.4523 14.6563C13.9829 14.6563 13.6023 14.2758 13.6023 13.8063V12.3563Z" fill="#1A1A1A"/>
</svg>
