<svg width="24" height="24" viewBox="0 0 24 24" fill="none" xmlns="http://www.w3.org/2000/svg">
<path fill-rule="evenodd" clip-rule="evenodd" d="M19.5674 4.3334C18.3415 3.10746 16.3538 3.10745 15.1279 4.3334L7.9767 11.4846C7.91272 11.4835 7.84867 11.4839 7.78459 11.4856C7.17114 11.5017 6.56743 11.6428 6.01035 11.9001C5.46023 12.1543 4.96698 12.5166 4.55998 12.9653C3.98332 13.5475 3.69729 14.135 3.59785 14.7479C3.51947 15.2309 3.56755 15.7129 3.60391 16.0775C3.60973 16.1358 3.61524 16.1911 3.61989 16.2429C3.65693 16.6555 3.66413 16.9897 3.56065 17.3502C3.45863 17.7056 3.22708 18.1572 2.67084 18.733C2.35163 19.0633 2.35269 19.5876 2.67323 19.9166C3.84341 21.118 5.4229 21.4907 6.9287 21.3041C8.39046 21.1229 9.83506 20.4141 10.9222 19.3531C11.3744 18.9463 11.7397 18.4522 11.9962 17.9006C12.2549 17.3441 12.3974 16.7408 12.4151 16.1274C12.417 16.0595 12.4175 15.9917 12.4164 15.924L19.5674 8.77294C20.7934 7.54699 20.7934 5.55934 19.5674 4.3334ZM11.946 13.9902L18.3653 7.57085C18.9274 7.0088 18.9274 6.09753 18.3653 5.53548C17.8033 4.97343 16.892 4.97343 16.33 5.53548L9.91058 11.9549C10.3498 12.173 10.7513 12.4616 11.0988 12.8099C11.4437 13.1556 11.7296 13.5543 11.946 13.9902ZM8.94736 13.3849C8.59214 13.2429 8.21171 13.1749 7.82931 13.185C7.44691 13.195 7.07059 13.283 6.72332 13.4434C6.37606 13.6038 6.06516 13.8334 5.80962 14.118C5.79943 14.1294 5.78893 14.1405 5.77814 14.1513C5.41809 14.5113 5.31372 14.7871 5.2759 15.0201C5.23573 15.2677 5.25804 15.504 5.2934 15.8787C5.29964 15.9448 5.3063 16.0153 5.31308 16.0909C5.355 16.5578 5.38728 17.1482 5.19467 17.8192C5.06426 18.2736 4.84083 18.7328 4.49375 19.2072C5.13321 19.5889 5.90322 19.7182 6.7196 19.617C7.8122 19.4816 8.9317 18.9342 9.7668 18.105L9.7916 18.0802L9.79355 18.0782C9.81693 18.0549 9.84133 18.0331 9.86661 18.013C10.1111 17.7749 10.3105 17.494 10.4547 17.1839C10.6159 16.837 10.7048 16.4609 10.7158 16.0785C10.7268 15.6961 10.6597 15.3155 10.5186 14.96C10.3775 14.6044 10.1654 14.2813 9.89529 14.0105C9.62513 13.7397 9.30258 13.5268 8.94736 13.3849Z" fill="#1A1A1A"/>
<path d="M5.95239 4.17191C5.88143 4.03805 5.68965 4.03805 5.61868 4.17191L5.11732 5.11755L4.17168 5.61891C4.03782 5.68988 4.03782 5.88165 4.17168 5.95262L5.11732 6.45398L5.61868 7.39962C5.68965 7.53348 5.88143 7.53348 5.95239 7.39962L6.45375 6.45398L7.39939 5.95262C7.53325 5.88165 7.53325 5.68988 7.39939 5.61891L6.45375 5.11755L5.95239 4.17191Z" fill="#1A1A1A"/>
<path d="M17.9521 15.7433C17.8811 15.6095 17.6894 15.6095 17.6184 15.7433L16.8201 17.2491L15.3143 18.0475C15.1804 18.1184 15.1804 18.3102 15.3143 18.3812L16.8201 19.1795L17.6184 20.6853C17.6894 20.8192 17.8811 20.8192 17.9521 20.6853L18.7505 19.1795L20.2563 18.3812C20.3901 18.3102 20.3901 18.1184 20.2563 18.0475L18.7505 17.2491L17.9521 15.7433Z" fill="#1A1A1A"/>
</svg>
