<svg width="24" height="24" viewBox="0 0 24 24" fill="none" xmlns="http://www.w3.org/2000/svg">
<path d="M19.8985 11.2489C20.2305 10.917 20.7687 10.917 21.1007 11.2489C21.4326 11.5809 21.4326 12.1191 21.1007 12.4511L13.712 19.8398C13.5315 20.0203 13.3615 20.1902 13.2071 20.3212C13.0394 20.4635 12.8346 20.6097 12.5714 20.6952C12.2001 20.8158 11.8001 20.8158 11.4288 20.6952C11.1656 20.6097 10.9607 20.4635 10.7931 20.3212C10.6387 20.1902 10.4686 20.0202 10.2882 19.8398L2.89852 12.4511C2.56674 12.1193 2.56699 11.5809 2.89852 11.2489C3.23046 10.917 3.76872 10.917 4.10067 11.2489L11.4698 18.6171C11.6777 18.825 11.7977 18.9447 11.8927 19.0253C11.9314 19.0582 11.9551 19.0739 11.9659 19.081C11.9885 19.0863 12.0117 19.0863 12.0343 19.081C12.0451 19.0739 12.0689 19.0581 12.1075 19.0253C12.2024 18.9447 12.3225 18.825 12.5304 18.6171L19.8985 11.2489Z" fill="#1A1A1A"/>
<path d="M19.8985 3.24894C20.2305 2.91701 20.7687 2.91703 21.1007 3.24894C21.4326 3.58089 21.4326 4.11915 21.1007 4.45109L13.712 11.8398C13.5315 12.0203 13.3615 12.1902 13.2071 12.3212C13.0394 12.4635 12.8346 12.6097 12.5714 12.6952C12.2001 12.8158 11.8001 12.8158 11.4288 12.6952C11.1656 12.6097 10.9607 12.4635 10.7931 12.3212C10.6387 12.1902 10.4686 12.0202 10.2882 11.8398L2.89852 4.45109C2.56674 4.11928 2.56699 3.58091 2.89852 3.24894C3.23046 2.91701 3.76872 2.91703 4.10067 3.24894L11.4698 10.6171C11.6777 10.825 11.7977 10.9447 11.8927 11.0253C11.9314 11.0582 11.9551 11.0739 11.9659 11.081C11.9885 11.0863 12.0117 11.0863 12.0343 11.081C12.0451 11.0739 12.0689 11.0581 12.1075 11.0253C12.2024 10.9447 12.3225 10.825 12.5304 10.6171L19.8985 3.24894Z" fill="#1A1A1A"/>
</svg>
