<svg width="24" height="24" viewBox="0 0 24 24" fill="none" xmlns="http://www.w3.org/2000/svg">
<path fill-rule="evenodd" clip-rule="evenodd" d="M11.9999 20.1496C7.49878 20.1496 3.8499 16.5007 3.8499 11.9996C3.8499 7.49849 7.49878 3.84961 11.9999 3.84961C16.501 3.84961 20.1499 7.49849 20.1499 11.9996C20.1499 16.5007 16.501 20.1496 11.9999 20.1496ZM2.1499 11.9996C2.1499 17.4396 6.5599 21.8496 11.9999 21.8496C17.4399 21.8496 21.8499 17.4396 21.8499 11.9996C21.8499 6.5596 17.4399 2.14961 11.9999 2.14961C6.5599 2.14961 2.1499 6.5596 2.1499 11.9996ZM11.9999 7.15039C12.4693 7.15039 12.8499 7.53095 12.8499 8.00039V12.0004C12.8499 12.4698 12.4693 12.8504 11.9999 12.8504C11.5305 12.8504 11.1499 12.4698 11.1499 12.0004V8.00039C11.1499 7.53095 11.5305 7.15039 11.9999 7.15039ZM12.8499 15.0004C12.8499 14.5309 12.4693 14.1504 11.9999 14.1504C11.5305 14.1504 11.1499 14.531 11.1499 15.0005C11.1499 15.4699 11.5305 15.8505 11.9999 15.8505C12.4693 15.8505 12.8499 15.4698 12.8499 15.0004Z" fill="#1A1A1A"/>
</svg>
