<svg width="24" height="24" viewBox="0 0 24 24" fill="none" xmlns="http://www.w3.org/2000/svg">
<path d="M16.5954 7.6783C16.9289 8.00877 16.9313 8.54695 16.6008 8.88037L14.7001 10.798L16.5899 12.6371C16.9263 12.9645 16.9336 13.5027 16.6062 13.8391C16.2788 14.1755 15.7407 14.1828 15.4043 13.8554L12.8998 11.418C12.7372 11.2598 12.6447 11.0433 12.6426 10.8165C12.6406 10.5897 12.7292 10.3716 12.8889 10.2105L15.3934 7.68364C15.7238 7.35023 16.262 7.34783 16.5954 7.6783Z" fill="#1A1A1A"/>
<path d="M9.61113 8.19265C9.61113 7.72321 9.23057 7.34265 8.76113 7.34265C8.29169 7.34265 7.91113 7.72321 7.91113 8.19265V13.3355C7.91113 13.8049 8.29169 14.1855 8.76113 14.1855C9.23057 14.1855 9.61113 13.8049 9.61113 13.3355V8.19265Z" fill="#1A1A1A"/>
<path fill-rule="evenodd" clip-rule="evenodd" d="M22.3488 18.044C22.3495 18.0294 22.3499 18.0148 22.3499 18V9.00002C22.3499 5.76916 19.7308 3.15002 16.4999 3.15002H7.4999C4.26904 3.15002 1.6499 5.76916 1.6499 9.00002V13C1.6499 16.2309 4.26904 18.85 7.4999 18.85H17.1486L18.7962 20.3108C20.1741 21.5325 22.3488 20.5543 22.3488 18.7127V18.044ZM7.4999 4.85002C5.20792 4.85002 3.3499 6.70804 3.3499 9.00002V13C3.3499 15.292 5.20792 17.15 7.4999 17.15H17.4712C17.679 17.15 17.8796 17.2261 18.035 17.364L19.924 19.0388C20.2051 19.288 20.6488 19.0884 20.6488 18.7127V18C20.6488 17.9853 20.6492 17.9706 20.6499 17.9561V9.00002C20.6499 6.70804 18.7919 4.85002 16.4999 4.85002H7.4999Z" fill="#1A1A1A"/>
</svg>
