<svg width="24" height="24" viewBox="0 0 24 24" fill="none" xmlns="http://www.w3.org/2000/svg">
<path fill-rule="evenodd" clip-rule="evenodd" d="M7.1499 7.4999C7.1499 4.82132 9.32132 2.6499 11.9999 2.6499C14.6785 2.6499 16.8499 4.82132 16.8499 7.4999C16.8499 10.1785 14.6785 12.3499 11.9999 12.3499C9.32132 12.3499 7.1499 10.1785 7.1499 7.4999ZM11.9999 4.3499C10.2602 4.3499 8.8499 5.76021 8.8499 7.4999C8.8499 9.2396 10.2602 10.6499 11.9999 10.6499C13.7396 10.6499 15.1499 9.2396 15.1499 7.4999C15.1499 5.76021 13.7396 4.3499 11.9999 4.3499Z" fill="#1A1A1A"/>
<path d="M14.036 13.6499H8.9999C5.76904 13.6499 3.1499 16.269 3.1499 19.4999C3.1499 20.5216 3.97818 21.3499 4.9999 21.3499H14.036C13.48 20.8886 13.0255 20.3091 12.711 19.6499H4.9999C4.91706 19.6499 4.8499 19.5827 4.8499 19.4999C4.8499 17.2079 6.70792 15.3499 8.9999 15.3499H12.711C13.0255 14.6907 13.48 14.1112 14.036 13.6499Z" fill="#1A1A1A"/>
<path fill-rule="evenodd" clip-rule="evenodd" d="M17.2265 13.6499C15.1002 13.6499 13.3765 15.3736 13.3765 17.4999C13.3765 19.6262 15.1002 21.3499 17.2265 21.3499C19.3528 21.3499 21.0765 19.6262 21.0765 17.4999C21.0765 15.3736 19.3528 13.6499 17.2265 13.6499ZM15.0765 17.4999C15.0765 16.3125 16.0391 15.3499 17.2265 15.3499C18.4139 15.3499 19.3765 16.3125 19.3765 17.4999C19.3765 18.6873 18.4139 19.6499 17.2265 19.6499C16.0391 19.6499 15.0765 18.6873 15.0765 17.4999Z" fill="#1A1A1A"/>
</svg>
