<svg width="24" height="24" viewBox="0 0 24 24" fill="none" xmlns="http://www.w3.org/2000/svg">
<path d="M11.9999 12.7883L9.85083 13.9063C9.59169 14.0411 9.29032 13.8207 9.34019 13.5329L9.74942 11.171L8.01865 9.50083C7.8074 9.29698 7.92287 8.93935 8.21344 8.89752L10.6097 8.55259L11.6841 6.39783C11.8141 6.13728 12.1858 6.13723 12.3158 6.39775L13.3911 8.55259L15.7864 8.89749C16.0769 8.93933 16.1924 9.29695 15.9812 9.5008L14.2504 11.171L14.6589 13.533C14.7087 13.8208 14.4073 14.0411 14.1482 13.9063L11.9999 12.7883Z" fill="#1A1A1A"/>
<path fill-rule="evenodd" clip-rule="evenodd" d="M17.4689 20.9502L12.0001 18.0888L6.53116 20.9502C5.37918 21.5529 4.24072 20.5817 4.24072 19.4654V8.4367C4.24072 7.44329 4.24071 6.6514 4.29294 6.01212C4.34648 5.35688 4.45864 4.79539 4.72107 4.28035C5.14359 3.4511 5.8178 2.7769 6.64705 2.35437C7.16209 2.09195 7.72358 1.97978 8.37881 1.92624C9.0181 1.87401 9.80998 1.87402 10.8034 1.87402H13.1967C14.1901 1.87402 14.982 1.87401 15.6213 1.92624C16.2765 1.97978 16.838 2.09195 17.3531 2.35437C18.1823 2.77689 18.8565 3.4511 19.279 4.28035C19.5415 4.79539 19.6536 5.35688 19.7072 6.01211C19.7594 6.6514 19.7594 7.44329 19.7594 8.43671V19.4654C19.7594 20.5817 18.6209 21.5529 17.4689 20.9502ZM13.1636 3.39269C14.1976 3.39269 14.9274 3.39328 15.4976 3.43987C16.0589 3.48573 16.3983 3.57235 16.6636 3.70751C17.2071 3.98444 17.649 4.42631 17.9259 4.96981C18.0611 5.23507 18.1477 5.57447 18.1935 6.13578C18.2401 6.70596 18.2407 7.4358 18.2407 8.4698V19.4654C18.2407 19.5484 18.2042 19.5883 18.1848 19.6017C18.1814 19.604 18.1786 19.6055 18.1767 19.6064L18.173 19.6046L12.0001 16.3748L5.82712 19.6046L5.82341 19.6064C5.82148 19.6055 5.81874 19.604 5.81528 19.6016C5.79593 19.5883 5.75939 19.5484 5.75939 19.4654V8.46981C5.75939 7.4358 5.75998 6.70597 5.80657 6.13578C5.85243 5.57447 5.93905 5.23507 6.07421 4.96981C6.35114 4.42631 6.79301 3.98444 7.33651 3.70751C7.60177 3.57235 7.94116 3.48573 8.50248 3.43987C9.07266 3.39328 9.8025 3.39269 10.8365 3.39269L13.1636 3.39269Z" fill="#1A1A1A"/>
</svg>
