<svg width="24" height="24" viewBox="0 0 24 24" fill="none" xmlns="http://www.w3.org/2000/svg">
<path d="M6.79229 3.15003H16.9077C17.8012 3.14999 18.5563 3.14996 19.1578 3.23083C19.7967 3.31673 20.3881 3.50763 20.8653 3.98478C21.3424 4.46192 21.5333 5.05334 21.6192 5.69223C21.7001 6.29376 21.7 7.04879 21.7 7.94234V11.8942C21.223 11.485 20.641 11.1947 20 11.0693V8.00003C20 7.03319 19.9982 6.39357 19.9344 5.91875C19.8738 5.46837 19.7718 5.2955 19.6632 5.18686C19.5545 5.07822 19.3817 4.97622 18.9313 4.91567C18.4565 4.85184 17.8168 4.85003 16.85 4.85003H6.85C5.88317 4.85003 5.24355 4.85184 4.76872 4.91567C4.31835 4.97622 4.14547 5.07822 4.03683 5.18686C3.92819 5.2955 3.8262 5.46837 3.76565 5.91875C3.70181 6.39357 3.70001 7.03319 3.70001 8.00003V13C3.70001 13.9669 3.70181 14.6065 3.76565 15.0813C3.8262 15.5317 3.92819 15.7046 4.03683 15.8132C4.14547 15.9218 4.31835 16.0238 4.76872 16.0844C5.24355 16.1482 5.88317 16.15 6.85 16.15H12V18.2858C12 19.2802 12.3908 20.1834 13.0271 20.85H6.85C6.38056 20.85 6 20.4695 6 20C6 19.5306 6.38056 19.15 6.85 19.15H11L11 17.85L6.79232 17.85C5.89877 17.8501 5.14373 17.8501 4.5422 17.7692C3.90332 17.6833 3.3119 17.4924 2.83475 17.0153C2.3576 16.5381 2.1667 15.9467 2.08081 15.3078C1.99994 14.7063 1.99997 13.9513 2 13.0578V7.94232C1.99997 7.04882 1.99994 6.29373 2.08081 5.69223C2.1667 5.05334 2.3576 4.46192 2.83475 3.98478C3.3119 3.50763 3.90332 3.31673 4.5422 3.23083C5.1437 3.14996 5.89879 3.14999 6.79229 3.15003Z" fill="#1A1A1A"/>
<path d="M18.35 15.0001C18.35 14.5307 17.9695 14.1501 17.5 14.1501C17.0306 14.1501 16.65 14.5307 16.65 15.0001V15.9141C16.65 16.2663 16.7986 16.6021 17.0592 16.839L17.9283 17.6291C18.2756 17.9448 18.8132 17.9192 19.129 17.5719C19.4448 17.2245 19.4192 16.6869 19.0718 16.3712L18.35 15.715V15.0001Z" fill="#1A1A1A"/>
<path fill-rule="evenodd" clip-rule="evenodd" d="M13.15 14.7144C13.15 13.2982 14.2981 12.1501 15.7143 12.1501H19.2828C20.699 12.1501 21.8471 13.2982 21.8471 14.7144V18.2858C21.8471 19.702 20.699 20.8501 19.2828 20.8501H15.7143C14.2981 20.8501 13.15 19.702 13.15 18.2858V14.7144ZM15.7143 13.8501C15.237 13.8501 14.85 14.2371 14.85 14.7144V18.2858C14.85 18.7632 15.237 19.1501 15.7143 19.1501H19.2828C19.7602 19.1501 20.1471 18.7632 20.1471 18.2858V14.7144C20.1471 14.2371 19.7602 13.8501 19.2828 13.8501H15.7143Z" fill="#1A1A1A"/>
</svg>
