<svg width="24" height="24" viewBox="0 0 24 24" fill="none" xmlns="http://www.w3.org/2000/svg">
<path d="M12.8499 2.50039C12.8499 2.03095 12.4693 1.65039 11.9999 1.65039C11.5305 1.65039 11.1499 2.03095 11.1499 2.50039V21.5004C11.1499 21.9698 11.5305 22.3504 11.9999 22.3504C12.4693 22.3504 12.8499 21.9698 12.8499 21.5004V2.50039Z" fill="#1A1A1A"/>
<path d="M6.9999 3.15039H9.9999V4.85039H6.9999C5.26021 4.85039 3.8499 6.26069 3.8499 8.00039V16.0004C3.8499 17.7401 5.26021 19.1504 6.9999 19.1504H9.9999V20.8504H6.9999C4.32132 20.8504 2.1499 18.679 2.1499 16.0004V8.00039C2.1499 5.32181 4.32132 3.15039 6.9999 3.15039Z" fill="#1A1A1A"/>
<path fill-rule="evenodd" clip-rule="evenodd" d="M16.9478 4.85039L13.9999 7.79831V10.2025L18.6009 5.60143C18.6659 5.5365 18.7181 5.46366 18.7576 5.38603C19.5103 5.89309 20.0321 6.71662 20.1323 7.66586L13.9999 13.7983V16.2025L20.1499 10.0525V13.6483L14.6478 19.1504H13.9999V20.8504H16.9999C19.6785 20.8504 21.8499 18.679 21.8499 16.0004V8.00039C21.8499 5.32181 19.6785 3.15039 16.9999 3.15039H13.9999V4.85039H16.9478ZM20.1495 16.0529C20.1217 17.7509 18.7504 19.1222 17.0524 19.15L20.1495 16.0529Z" fill="#1A1A1A"/>
</svg>
