<svg width="24" height="24" viewBox="0 0 24 24" fill="none" xmlns="http://www.w3.org/2000/svg">
<path d="M7.99624 17.15H15.9972V18.85H7.99624C6.42223 18.85 5.14624 17.574 5.14624 16V4.00002C5.14624 3.53058 5.5268 3.15002 5.99624 3.15002C6.46568 3.15002 6.84624 3.53058 6.84624 4.00002V16C6.84624 16.6352 7.36111 17.15 7.99624 17.15Z" fill="#1A1A1A"/>
<path d="M21.9962 18.85H19.9972V17.15H21.9962C22.4657 17.15 22.8462 17.5306 22.8462 18C22.8462 18.4695 22.4657 18.85 21.9962 18.85Z" fill="#1A1A1A"/>
<path d="M1.99673 5.15002H3.99906V6.85002H1.99673C1.52729 6.85002 1.14673 6.46947 1.14673 6.00002C1.14673 5.53058 1.52729 5.15002 1.99673 5.15002Z" fill="#1A1A1A"/>
<path d="M15.9967 6.85002H7.99906V5.15002H15.9967C17.5707 5.15002 18.8467 6.42601 18.8467 8.00002V20C18.8467 20.4695 18.4662 20.85 17.9967 20.85C17.5273 20.85 17.1467 20.4695 17.1467 20V8.00002C17.1467 7.3649 16.6319 6.85002 15.9967 6.85002Z" fill="#1A1A1A"/>
</svg>
