<svg width="24" height="24" viewBox="0 0 24 24" fill="none" xmlns="http://www.w3.org/2000/svg">
<path fill-rule="evenodd" clip-rule="evenodd" d="M13.2925 5.57137C13.2925 4.15515 14.4405 3.00708 15.8568 3.00708C17.273 3.00708 18.4211 4.15515 18.4211 5.57137V9.16636C18.9208 9.14674 19.4314 9.27278 19.8865 9.55957C21.0847 10.3146 21.4438 11.898 20.6888 13.0962L18.4095 16.7129C17.9156 17.541 16.9892 18.7358 15.7654 19.7132C14.5414 20.6907 12.9279 21.5219 11.0951 21.4201C9.11359 21.31 7.10567 20.9223 5.57502 19.8814C3.98258 18.7986 3.00656 17.0772 3.00656 14.5714L3.00656 14.1429H3.00537V8.1429C3.00537 6.72669 4.15344 5.57861 5.56966 5.57861C6.61615 5.57861 7.51622 6.20548 7.91486 7.1042C8.24424 6.95025 8.61175 6.86426 8.99934 6.86426C9.6582 6.86426 10.259 7.11274 10.7132 7.5211C11.1674 7.11274 11.7682 6.86426 12.4271 6.86426C12.7308 6.86426 13.0221 6.91705 13.2925 7.01396V5.57137ZM16.7211 5.57137V9.90016C16.5828 10.0364 16.4579 10.1905 16.3499 10.3618L15.114 12.323C15.0671 12.3169 15.0202 12.3119 14.9731 12.3079C14.9851 12.2069 14.9914 12.1042 14.9914 12V10.9285H14.9925V5.57137C14.9925 5.09403 15.3794 4.70708 15.8568 4.70708C16.3341 4.70708 16.7211 5.09403 16.7211 5.57137ZM11.7611 14.4769C11.366 14.371 11.0086 14.173 10.7132 13.9074C10.259 14.3158 9.6582 14.5643 8.99934 14.5643C7.58313 14.5643 6.43506 13.4162 6.43506 12V11.3572H6.43394V8.1429C6.43394 7.66557 6.04699 7.27861 5.56966 7.27861C5.09233 7.27861 4.70537 7.66557 4.70537 8.1429V14.1428H4.70656V14.5714C4.70656 16.5656 5.44482 17.7371 6.53095 18.4757C7.67888 19.2563 9.31381 19.6185 11.1894 19.7227C12.4424 19.7923 13.6525 19.225 14.7045 18.3848C15.752 17.5483 16.5515 16.5116 16.9541 15.8344L16.9597 15.8249L19.2505 12.1898C19.505 11.786 19.384 11.2523 18.9801 10.9978C18.5763 10.7433 18.0426 10.8644 17.7881 11.2682L16.4703 13.3594C16.4677 13.4678 16.4442 13.5776 16.3975 13.6831C16.2074 14.1123 15.7053 14.3061 15.2761 14.116C15.0339 14.0087 14.7661 13.9729 14.5043 14.0128C14.2425 14.0527 13.9975 14.1666 13.7982 14.3411C13.599 14.5156 13.4537 14.7434 13.3797 14.9977C13.3056 15.252 13.3058 15.5221 13.3802 15.7763C13.512 16.2269 13.2536 16.699 12.8031 16.8309C12.3525 16.9627 11.8804 16.7043 11.7486 16.2538C11.5832 15.6885 11.5828 15.0877 11.7475 14.5223C11.7519 14.5071 11.7564 14.492 11.7611 14.4769ZM9.86279 9.42854L9.863 9.39534C9.84555 8.93339 9.46556 8.56426 8.99934 8.56426C8.52201 8.56426 8.13506 8.95121 8.13506 9.42854V12C8.13506 12.4773 8.52201 12.8643 8.99934 12.8643C9.46556 12.8643 9.84555 12.4951 9.863 12.0332L9.86279 12V9.42854ZM12.4271 12.8643C11.9609 12.8643 11.5809 12.4951 11.5634 12.0332L11.5636 12V9.42854L11.5634 9.39534C11.5809 8.9334 11.9609 8.56426 12.4271 8.56426C12.9044 8.56426 13.2914 8.95121 13.2914 9.42854V12C13.2914 12.4773 12.9044 12.8643 12.4271 12.8643Z" fill="#1A1A1A"/>
</svg>
