<svg width="24" height="24" viewBox="0 0 24 24" fill="none" xmlns="http://www.w3.org/2000/svg">
<path d="M12.8499 3.00039C12.8499 2.53095 12.4693 2.15039 11.9999 2.15039C11.5305 2.15039 11.1499 2.53095 11.1499 3.00039V10.0004C11.1499 10.4698 11.5305 10.8504 11.9999 10.8504C12.4693 10.8504 12.8499 10.4698 12.8499 10.0004V3.00039Z" fill="#1A1A1A"/>
<path d="M8.38176 4.69777C8.80241 4.48937 8.97446 3.97942 8.76606 3.55877C8.55765 3.13813 8.0477 2.96607 7.62706 3.17448C5.63779 4.16005 4.0398 5.78872 3.09223 7.79637C2.14466 9.80402 1.90309 12.0729 2.40669 14.235C2.9103 16.3972 4.12954 18.3258 5.8667 19.7082C7.60385 21.0905 9.75704 21.8454 11.9771 21.8506C14.1971 21.8557 16.3537 21.1108 18.0973 19.7365C19.8408 18.3623 21.069 16.4393 21.5827 14.2795C22.0963 12.1197 21.8652 9.84977 20.927 7.83775C19.9888 5.82572 18.3983 4.18965 16.4137 3.19486C15.994 2.98451 15.4833 3.15419 15.2729 3.57387C15.0625 3.99354 15.2322 4.50428 15.6519 4.71464C17.294 5.53774 18.61 6.89144 19.3863 8.55621C20.1626 10.221 20.3538 12.0992 19.9288 13.8862C19.5038 15.6733 18.4876 17.2643 17.045 18.4014C15.6023 19.5385 13.8179 20.1549 11.981 20.1506C10.1441 20.1463 8.36256 19.5217 6.92522 18.3779C5.48788 17.2342 4.47906 15.6384 4.06238 13.8494C3.64569 12.0604 3.84557 10.1831 4.62959 8.52198C5.41362 6.86083 6.73582 5.51324 8.38176 4.69777Z" fill="#1A1A1A"/>
</svg>
