<svg width="24" height="24" viewBox="0 0 24 24" fill="none" xmlns="http://www.w3.org/2000/svg">
<path d="M17.0555 14.6993C17.3875 14.3673 17.9257 14.3673 18.2577 14.6993C18.5894 15.0312 18.5894 15.5685 18.2577 15.9004L12.6004 21.5577L12.536 21.6163C12.2022 21.8883 11.7104 21.8686 11.3993 21.5577L5.74204 15.9004L5.68344 15.836C5.41147 15.5022 5.4311 15.0104 5.74204 14.6993C6.05324 14.3881 6.54587 14.3684 6.87973 14.6407L6.94418 14.6993L11.9998 19.7549L17.0555 14.6993ZM11.4637 2.38383C11.7975 2.11171 12.2893 2.13137 12.6004 2.44243L18.2577 8.09965L18.3163 8.16313C18.5885 8.49696 18.5688 8.98962 18.2577 9.30082C17.9465 9.61202 17.4538 9.63172 17.12 9.35942L17.0555 9.30082L11.9998 4.24516L6.94418 9.30082C6.61224 9.63277 6.07398 9.63277 5.74204 9.30082C5.41028 8.96897 5.41042 8.43159 5.74204 8.09965L11.3993 2.44243L11.4637 2.38383Z" fill="#1A1A1A"/>
</svg>
