<svg width="24" height="24" viewBox="0 0 24 24" fill="none" xmlns="http://www.w3.org/2000/svg">
<path d="M10.5 11.9688C10.9693 11.9688 11.3494 12.3491 11.3496 12.8184C11.3496 13.2878 10.9694 13.668 10.5 13.668H10C7.15586 13.668 4.84981 15.9743 4.84961 18.8184V20.4688C4.84952 20.9381 4.46939 21.3184 4 21.3184C3.53061 21.3184 3.15048 20.9381 3.15039 20.4688V18.8184C3.15059 15.0354 6.21697 11.9688 10 11.9688H10.5ZM16.8232 15.9424C19.323 15.9424 21.3494 17.969 21.3496 20.4688C21.3495 20.9381 20.9694 21.3184 20.5 21.3184C20.0306 21.3184 19.6505 20.9381 19.6504 20.4688C19.6502 18.9079 18.3841 17.6416 16.8232 17.6416H16.1768C14.6159 17.6416 13.3498 18.9079 13.3496 20.4688C13.3495 20.9381 12.9694 21.3184 12.5 21.3184C12.0306 21.3184 11.6505 20.9381 11.6504 20.4688C11.6506 17.9691 13.677 15.9424 16.1768 15.9424H16.8232ZM16.5 8.9668C18.1567 8.9668 19.4998 10.3102 19.5 11.9668C19.5 13.6237 18.1569 14.9668 16.5 14.9668C14.8431 14.9668 13.5 13.6237 13.5 11.9668C13.5002 10.3102 14.8433 8.9668 16.5 8.9668ZM16.5 10.667C15.7822 10.667 15.2004 11.249 15.2002 11.9668C15.2002 12.6848 15.782 13.2666 16.5 13.2666C17.218 13.2666 17.7998 12.6848 17.7998 11.9668C17.7996 11.249 17.2178 10.667 16.5 10.667ZM9.78613 2.69043C12.0345 2.6905 13.8572 4.51338 13.8574 6.76172C13.8574 9.01027 12.0347 10.8329 9.78613 10.833C7.53761 10.8329 5.71484 9.01026 5.71484 6.76172C5.71508 4.51338 7.53776 2.69051 9.78613 2.69043ZM9.78613 4.39062C8.47664 4.3907 7.41528 5.45227 7.41504 6.76172C7.41504 8.07138 8.47649 9.13274 9.78613 9.13281C11.0958 9.13275 12.1572 8.07138 12.1572 6.76172C12.157 5.45226 11.0956 4.39069 9.78613 4.39062Z" fill="#1A1A1A"/>
</svg>
