<svg width="24" height="24" viewBox="0 0 24 24" fill="none" xmlns="http://www.w3.org/2000/svg">
<path d="M12 7.85039C11.0234 7.85039 10.35 8.5658 10.35 9.30808C10.35 9.77752 9.96947 10.1581 9.50002 10.1581C9.03058 10.1581 8.65002 9.77752 8.65002 9.30808C8.65002 7.50136 10.2152 6.15039 12 6.15039C13.7848 6.15039 15.35 7.50136 15.35 9.30808C15.35 10.8185 14.2475 12.0173 12.85 12.363V13.0004C12.85 13.4698 12.4695 13.8504 12 13.8504C11.5306 13.8504 11.15 13.4698 11.15 13.0004V12.1158C11.15 11.3393 11.7642 10.8421 12.3416 10.7345C13.1372 10.5863 13.65 9.962 13.65 9.30808C13.65 8.5658 12.9766 7.85039 12 7.85039Z" fill="#1A1A1A"/>
<path d="M12.85 16.0004C12.85 15.5309 12.4695 15.1504 12 15.1504C11.5306 15.1504 11.15 15.5309 11.15 16.0004C11.15 16.4698 11.5306 16.8505 12 16.8505C12.4695 16.8505 12.85 16.4698 12.85 16.0004Z" fill="#1A1A1A"/>
<path fill-rule="evenodd" clip-rule="evenodd" d="M2.15002 6.50039C2.15002 4.09795 4.09759 2.15039 6.50002 2.15039H17.5C19.9025 2.15039 21.85 4.09795 21.85 6.50039V15.0506C21.85 16.2043 21.3917 17.3108 20.5759 18.1266L18.1262 20.5763C17.3104 21.3921 16.204 21.8504 15.0503 21.8504H6.50002C4.09759 21.8504 2.15002 19.9028 2.15002 17.5004V6.50039ZM6.50002 3.85039C5.03647 3.85039 3.85002 5.03684 3.85002 6.50039V17.5004C3.85002 18.9639 5.03647 20.1504 6.50002 20.1504H15.0503C15.7531 20.1504 16.4271 19.8712 16.9241 19.3742L19.3739 16.9245C19.8708 16.4275 20.15 15.7535 20.15 15.0506V6.50039C20.15 5.03684 18.9636 3.85039 17.5 3.85039H6.50002Z" fill="#1A1A1A"/>
</svg>
