<svg width="24" height="24" viewBox="0 0 24 24" fill="none" xmlns="http://www.w3.org/2000/svg">
<path fill-rule="evenodd" clip-rule="evenodd" d="M13.1772 1.949C12.527 1.29878 11.4728 1.29878 10.8225 1.949L9.86795 2.9036C8.69632 4.07523 8.69055 5.97123 9.85064 7.14999H6.9999C4.87361 7.14999 3.1499 8.8737 3.1499 11V18C3.1499 20.1263 4.87361 21.85 6.9999 21.85H16.9999C19.1262 21.85 20.8499 20.1263 20.8499 18V11C20.8499 8.8737 19.1262 7.14999 16.9999 7.14999H14.1491C15.3092 5.97123 15.3034 4.07523 14.1318 2.9036L13.1772 1.949ZM11.9044 3.03087C11.9571 2.97815 12.0426 2.97815 12.0953 3.03087L13.0499 3.98547C13.6299 4.5654 13.6299 5.50565 13.0499 6.08558C12.47 6.6655 11.5298 6.6655 10.9498 6.08558C10.3699 5.50565 10.3699 4.5654 10.9498 3.98547L11.9044 3.03087ZM6.9999 8.84999C5.81249 8.84999 4.8499 9.81258 4.8499 11V13.3512L5.05365 13.5365C5.8737 14.2819 7.12606 14.2819 7.94611 13.5365L9.4101 12.2056C10.8786 10.8706 13.1212 10.8706 14.5897 12.2056L16.0536 13.5365C16.8737 14.282 18.1261 14.282 18.9461 13.5365L19.1499 13.3512V11C19.1499 9.81258 18.1873 8.84999 16.9999 8.84999H6.9999ZM4.8499 18V15.4249C6.22694 16.0782 7.90865 15.868 9.08965 14.7944L10.5536 13.4635C11.3737 12.718 12.6261 12.718 13.4461 13.4635L14.9101 14.7944C16.0911 15.868 17.7728 16.0782 19.1499 15.4249V18C19.1499 19.1874 18.1873 20.15 16.9999 20.15H6.9999C5.81249 20.15 4.8499 19.1874 4.8499 18Z" fill="#2F3033"/>
</svg>
