<svg width="24" height="24" viewBox="0 0 24 24" fill="none" xmlns="http://www.w3.org/2000/svg">
<path fill-rule="evenodd" clip-rule="evenodd" d="M17.122 5.68771C17.1273 5.17811 16.5708 4.8609 16.135 5.12512L5.24243 11.7296C4.67333 12.0747 4.92902 12.9506 5.59439 12.9353L11.1358 12.8078C11.8091 12.7923 12.4376 13.1439 12.7768 13.7257L15.7763 18.8724C16.1086 19.4426 16.981 19.2118 16.9878 18.5518L17.122 5.68771ZM15.2536 3.67146C16.8291 2.71618 18.8411 3.86304 18.8219 5.70543L18.6877 18.5696C18.6629 20.9557 15.5091 21.79 14.3075 19.7284L11.308 14.5817C11.2805 14.5346 11.2295 14.5061 11.175 14.5073L5.6335 14.6348C3.22793 14.6902 2.30349 11.5235 4.36103 10.276L15.2536 3.67146Z" fill="#1A1A1A"/>
</svg>
