<svg width="24" height="24" viewBox="0 0 24 24" fill="none" xmlns="http://www.w3.org/2000/svg">
<path d="M16.6768 5.97289C16.7826 5.70852 17.0386 5.53516 17.3234 5.53516C17.816 5.53516 18.1529 6.03272 17.9699 6.49013L17.527 7.59742C17.4212 7.8618 17.1652 8.03516 16.8804 8.03516C16.3878 8.03516 16.0509 7.53759 16.2339 7.08018L16.6768 5.97289Z" fill="#1A1A1A"/>
<path d="M13.0272 5.97289C12.9214 5.70852 12.6653 5.53516 12.3806 5.53516C11.888 5.53516 11.5511 6.03272 11.734 6.49013L12.177 7.59742C12.2827 7.8618 12.5388 8.03516 12.8235 8.03516C13.3162 8.03516 13.653 7.53759 13.4701 7.08018L13.0272 5.97289Z" fill="#1A1A1A"/>
<path fill-rule="evenodd" clip-rule="evenodd" d="M9.14995 6.57461C9.14995 4.44831 10.8737 2.72461 13 2.72461H17C19.1262 2.72461 20.85 4.44831 20.85 6.57461C20.85 8.70091 19.1262 10.4246 17 10.4246H15.6999V11.9583H19.1499C19.6194 11.9583 19.9999 12.3389 19.9999 12.8083C19.9999 13.2778 19.6194 13.6583 19.1499 13.6583H15.6999V15.0164H20.1499C20.6194 15.0164 20.9999 15.397 20.9999 15.8664C20.9999 16.3358 20.6194 16.7164 20.1499 16.7164H9.84995C9.3805 16.7164 8.99995 16.3358 8.99995 15.8664C8.99995 15.397 9.3805 15.0164 9.84995 15.0164H13.9999V13.6583H10.8499C10.3805 13.6583 9.99995 13.2778 9.99995 12.8083C9.99995 12.3389 10.3805 11.9583 10.8499 11.9583H13.9999V10.4246H13C10.8737 10.4246 9.14995 8.70091 9.14995 6.57461ZM17 8.72461H15.6999V4.42461H17C18.1874 4.42461 19.15 5.3872 19.15 6.57461C19.15 7.76202 18.1874 8.72461 17 8.72461ZM13 4.42461H13.9999V8.72461H13C11.8125 8.72461 10.85 7.76202 10.85 6.57461C10.85 5.3872 11.8125 4.42461 13 4.42461Z" fill="#1A1A1A"/>
<path d="M10.1286 18.0742C9.7489 18.0742 9.40749 18.3054 9.26649 18.6579L9.00927 19.3009C8.76531 19.9108 9.21447 20.5742 9.87134 20.5742C10.251 20.5742 10.5924 20.3431 10.7334 19.9906L10.9906 19.3475C11.2346 18.7376 10.7854 18.0742 10.1286 18.0742Z" fill="#1A1A1A"/>
<path d="M14.2334 18.6579C14.0924 18.3054 13.751 18.0742 13.3713 18.0742C12.7145 18.0742 12.2653 18.7376 12.5093 19.3475L12.7665 19.9906C12.9075 20.3431 13.2489 20.5742 13.6286 20.5742C14.2854 20.5742 14.7346 19.9108 14.4906 19.3009L14.2334 18.6579Z" fill="#1A1A1A"/>
<path d="M16.3713 18.0742C16.751 18.0742 17.0924 18.3054 17.2334 18.6579L17.4906 19.3009C17.7346 19.9108 17.2854 20.5742 16.6286 20.5742C16.2489 20.5742 15.9075 20.3431 15.7665 19.9906L15.5093 19.3475C15.2653 18.7376 15.7145 18.0742 16.3713 18.0742Z" fill="#1A1A1A"/>
<path d="M20.2334 18.6579C20.0924 18.3054 19.751 18.0742 19.3713 18.0742C18.7145 18.0742 18.2653 18.7376 18.5093 19.3475L18.7665 19.9906C18.9075 20.3431 19.2489 20.5742 19.6286 20.5742C20.2854 20.5742 20.7346 19.9108 20.4906 19.3009L20.2334 18.6579Z" fill="#1A1A1A"/>
<path fill-rule="evenodd" clip-rule="evenodd" d="M7.98345 8.07461C7.98345 6.77674 6.93132 5.72461 5.63345 5.72461L5.07925 5.72461C3.78138 5.72461 2.72925 6.77674 2.72925 8.07461V15.0746C2.72925 16.3725 3.78138 17.4246 5.07925 17.4246H5.63345C6.93132 17.4246 7.98345 16.3725 7.98345 15.0746L7.98345 8.07461ZM5.63345 7.42461C5.99243 7.42461 6.28345 7.71562 6.28345 8.07461L6.28345 15.0746C6.28345 15.4336 5.99243 15.7246 5.63345 15.7246H5.07925C4.72026 15.7246 4.42925 15.4336 4.42925 15.0746L4.42925 8.07461C4.42925 7.71562 4.72026 7.42461 5.07925 7.42461H5.63345Z" fill="#1A1A1A"/>
</svg>
