<svg width="24" height="24" viewBox="0 0 24 24" fill="none" xmlns="http://www.w3.org/2000/svg">
<path fill-rule="evenodd" clip-rule="evenodd" d="M15.9364 3.14999H8.0634C7.11428 3.14999 6.35026 3.14998 5.73189 3.2005C5.0957 3.25248 4.53919 3.36215 4.02504 3.62412C3.20654 4.04117 2.54107 4.70663 2.12402 5.52514C1.86206 6.03928 1.75239 6.59579 1.70041 7.23198C1.64989 7.85035 1.64989 8.61436 1.6499 9.56348V14.4365C1.64989 15.3856 1.64989 16.1496 1.70041 16.768C1.75239 17.4042 1.86206 17.9607 2.12402 18.4749C2.54107 19.2934 3.20654 19.9588 4.02504 20.3759C4.53919 20.6378 5.0957 20.7475 5.73189 20.7995C6.35026 20.85 7.11426 20.85 8.06338 20.85H11.0701C11.7933 20.85 12.3666 20.2398 12.3214 19.5181C12.0275 14.8144 8.1269 11.15 3.41405 11.15H3.3499V9.59999C3.3499 8.60588 3.35056 7.91141 3.39476 7.37042C3.43815 6.83935 3.51923 6.53147 3.63874 6.29692C3.8928 5.79829 4.2982 5.39289 4.79683 5.13883C5.03138 5.01932 5.33926 4.93825 5.87033 4.89486C6.41132 4.85066 7.10578 4.84999 8.0999 4.84999H15.8999C16.894 4.84999 17.5885 4.85066 18.1295 4.89486C18.6605 4.93825 18.9684 5.01932 19.203 5.13883C19.7016 5.39289 20.107 5.79829 20.3611 6.29692C20.4806 6.53147 20.5617 6.83935 20.605 7.37042C20.6492 7.91141 20.6499 8.60588 20.6499 9.59999V12C20.6499 12.4694 21.0305 12.85 21.4999 12.85C21.9693 12.85 22.3499 12.4694 22.3499 12V9.56355C22.3499 8.61444 22.3499 7.85035 22.2994 7.23198C22.2474 6.59579 22.1378 6.03928 21.8758 5.52514C21.4587 4.70663 20.7933 4.04117 19.9748 3.62412C19.4606 3.36215 18.9041 3.25248 18.2679 3.2005C17.6495 3.14998 16.8855 3.14999 15.9364 3.14999ZM3.3499 14.4V12.85H3.41405C7.06931 12.85 10.121 15.573 10.5796 19.15H8.0999C7.10578 19.15 6.41132 19.1493 5.87033 19.1051C5.33926 19.0617 5.03138 18.9807 4.79683 18.8612C4.2982 18.6071 3.8928 18.2017 3.63874 17.7031C3.51923 17.4685 3.43815 17.1606 3.39476 16.6296C3.35056 16.0886 3.3499 15.3941 3.3499 14.4Z" fill="#1A1A1A"/>
<path fill-rule="evenodd" clip-rule="evenodd" d="M15.4999 6.14999C13.9259 6.14999 12.6499 7.42598 12.6499 8.99999C12.6499 10.574 13.9259 11.85 15.4999 11.85C17.0739 11.85 18.3499 10.574 18.3499 8.99999C18.3499 7.42598 17.0739 6.14999 15.4999 6.14999ZM14.3499 8.99999C14.3499 8.36487 14.8648 7.84999 15.4999 7.84999C16.135 7.84999 16.6499 8.36487 16.6499 8.99999C16.6499 9.63512 16.135 10.15 15.4999 10.15C14.8648 10.15 14.3499 9.63512 14.3499 8.99999Z" fill="#1A1A1A"/>
<path d="M19.8988 17.101L18.8499 16.0521V21C18.8499 21.4694 18.4693 21.85 17.9999 21.85C17.5304 21.85 17.1499 21.4694 17.1499 21V16.0521L16.1009 17.101C15.7689 17.433 15.2308 17.433 14.8988 17.101C14.5669 16.7691 14.5669 16.2309 14.8988 15.899L16.6917 14.1061C17.4142 13.3836 18.5855 13.3836 19.308 14.1061L21.1009 15.899C21.4328 16.2309 21.4328 16.7691 21.1009 17.101C20.7689 17.433 20.2308 17.433 19.8988 17.101Z" fill="#1A1A1A"/>
</svg>
