<svg width="24" height="24" viewBox="0 0 24 24" fill="none" xmlns="http://www.w3.org/2000/svg">
<path d="M16.1499 3.15041V4.85043L13.3499 4.85039V3.15039L16.1499 3.15041Z" fill="#1A1A1A"/>
<path d="M18.1295 4.89525C18.0406 4.88799 17.9477 4.88191 17.8499 4.87681V3.17488C17.9962 3.18156 18.1354 3.19007 18.2679 3.2009C18.9041 3.25288 19.4606 3.36254 19.9748 3.62451C20.7933 4.04156 21.4587 4.70703 21.8758 5.52553C22.1378 6.03968 22.2474 6.59618 22.2994 7.23238C22.3162 7.4384 22.3274 7.66058 22.3349 7.90039L20.6341 7.90039C20.6276 7.70759 20.6182 7.53236 20.605 7.37081C20.5617 6.83975 20.4806 6.53186 20.3611 6.29732C20.107 5.79869 19.7016 5.39329 19.203 5.13922C18.9684 5.01972 18.6605 4.93864 18.1295 4.89525Z" fill="#1A1A1A"/>
<path d="M20.6499 9.60039V12.0004C20.6499 12.4698 21.0305 12.8504 21.4999 12.8504C21.9693 12.8504 22.3499 12.4698 22.3499 12.0004V9.60039H20.6499Z" fill="#1A1A1A"/>
<path d="M11.6499 3.15039H8.8499V4.85039H11.6499V3.15039Z" fill="#1A1A1A"/>
<path fill-rule="evenodd" clip-rule="evenodd" d="M5.73189 3.2009C6.13801 3.16772 6.60696 3.15633 7.1499 3.15243V4.85254C6.63311 4.85632 6.21971 4.86671 5.87033 4.89525C5.33926 4.93864 5.03138 5.01972 4.79683 5.13922C4.2982 5.39329 3.8928 5.79869 3.63874 6.29732C3.51923 6.53186 3.43815 6.83975 3.39476 7.37081C3.35056 7.91181 3.3499 8.60627 3.3499 9.60039V11.1504H3.41405C8.12689 11.1504 12.0275 14.8148 12.3214 19.5184C12.3666 20.2402 11.7933 20.8504 11.0701 20.8504H8.06346C7.11435 20.8504 6.35025 20.8504 5.73189 20.7999C5.0957 20.7479 4.53919 20.6382 4.02504 20.3763C3.20654 19.9592 2.54107 19.2938 2.12402 18.4752C1.86206 17.9611 1.75239 17.4046 1.70041 16.7684C1.64989 16.15 1.64989 15.386 1.6499 14.4369V9.56389C1.64989 8.61476 1.64989 7.85075 1.70041 7.23238C1.75239 6.59618 1.86206 6.03968 2.12402 5.52553C2.54107 4.70703 3.20654 4.04156 4.02504 3.62451C4.53919 3.36254 5.0957 3.25288 5.73189 3.2009ZM3.3499 12.8504V14.4004C3.3499 15.3945 3.35056 16.089 3.39476 16.63C3.43815 17.161 3.51923 17.4689 3.63874 17.7035C3.8928 18.2021 4.2982 18.6075 4.79683 18.8616C5.03138 18.9811 5.33926 19.0621 5.87033 19.1055C6.41132 19.1497 7.10578 19.1504 8.0999 19.1504H10.5796C10.121 15.5734 7.06931 12.8504 3.41405 12.8504H3.3499Z" fill="#1A1A1A"/>
<path fill-rule="evenodd" clip-rule="evenodd" d="M12.6499 9.00039C12.6499 7.42638 13.9259 6.15039 15.4999 6.15039C17.0739 6.15039 18.3499 7.42638 18.3499 9.00039C18.3499 10.5744 17.0739 11.8504 15.4999 11.8504C13.9259 11.8504 12.6499 10.5744 12.6499 9.00039ZM15.4999 7.85039C14.8648 7.85039 14.3499 8.36526 14.3499 9.00039C14.3499 9.63552 14.8648 10.1504 15.4999 10.1504C16.135 10.1504 16.6499 9.63552 16.6499 9.00039C16.6499 8.36526 16.135 7.85039 15.4999 7.85039Z" fill="#1A1A1A"/>
<path d="M18.6898 20.5904L19.6568 18.6564L21.5908 17.6894C21.9593 17.5051 21.9593 16.9792 21.5908 16.795L19.6568 15.828L18.6898 13.894C18.5056 13.5255 17.9797 13.5255 17.7954 13.894L16.8284 15.828L14.8944 16.795C14.5259 16.9792 14.5259 17.5051 14.8944 17.6894L16.8284 18.6564L17.7954 20.5904C17.9797 20.9589 18.5056 20.9589 18.6898 20.5904Z" fill="#1A1A1A"/>
</svg>
