<svg width="24" height="24" viewBox="0 0 24 24" fill="none" xmlns="http://www.w3.org/2000/svg">
<path d="M12 2.15039C17.44 2.15039 21.8496 6.56 21.8496 12C21.8496 17.44 17.44 21.8496 12 21.8496C6.56 21.8496 2.15039 17.44 2.15039 12C2.15039 6.56 6.56 2.15039 12 2.15039ZM12 3.84961C7.49888 3.84961 3.84961 7.49888 3.84961 12C3.84961 16.5011 7.49888 20.1504 12 20.1504C16.5011 20.1504 20.1504 16.5011 20.1504 12C20.1504 7.49888 16.5011 3.84961 12 3.84961ZM12.25 10.3496C12.7194 10.3496 13.0996 10.7308 13.0996 11.2002V15.6504H13.2002L13.2871 15.6543C13.7156 15.6979 14.0498 16.06 14.0498 16.5C14.0498 16.94 13.7156 17.3021 13.2871 17.3457L13.2002 17.3496H11C10.5306 17.3496 10.1504 16.9694 10.1504 16.5C10.1504 16.0306 10.5306 15.6504 11 15.6504H11.4004V12.0498H11C10.5306 12.0498 10.1505 11.6695 10.1504 11.2002C10.1504 10.7308 10.5306 10.3496 11 10.3496H12.25ZM12 6.7998C12.6627 6.7998 13.2002 7.33726 13.2002 8C13.2002 8.66274 12.6627 9.2002 12 9.2002C11.3373 9.2002 10.7998 8.66274 10.7998 8C10.7998 7.33726 11.3373 6.7998 12 6.7998Z" fill="#1A1A1A"/>
</svg>
