<svg width="24" height="24" viewBox="0 0 24 24" fill="none" xmlns="http://www.w3.org/2000/svg">
<path fill-rule="evenodd" clip-rule="evenodd" d="M3.83373 3.42678C3.8704 3.40352 3.91231 3.37616 3.95922 3.34554C4.57326 2.94468 6.04271 1.98539 7.77987 2.37409L7.80689 2.38014L7.83346 2.38793C8.90574 2.70238 10.0194 3.5568 10.418 4.72427C10.9236 5.8899 10.6093 7.0093 10.4114 7.71383L10.3907 7.78771C10.2733 8.30284 10.1254 8.61647 10.0243 8.83101C10.0125 8.85589 10.0014 8.87944 9.99109 8.90181C9.92278 9.04945 9.89325 9.11838 9.89722 9.33348C9.90865 9.95193 10.026 10.4256 10.3615 11.1701C10.5216 11.5254 10.64 11.7241 10.7526 11.9131C10.783 11.9641 10.8129 12.0143 10.8432 12.0668C11.0119 12.3593 11.135 12.6402 11.2059 13.1132L11.2146 13.1598C11.2936 13.5819 11.5147 14.7622 10.8106 15.8166L10.7881 15.8502L10.7626 15.8815C9.98906 16.8307 8.85511 16.9343 8.50814 16.966C8.48882 16.9677 8.47194 16.9693 8.45769 16.9707L8.44627 16.9719L8.43481 16.9727C6.91715 17.0862 5.63328 16.2477 4.76045 15.475C4.06858 14.8626 3.46392 14.1179 3.20328 13.7969C3.14287 13.7225 3.1009 13.6709 3.08066 13.6489L3.01157 13.574L2.96214 13.4849C2.89797 13.3692 2.81728 13.2353 2.7261 13.0839C2.0841 12.0181 0.921677 10.0883 1.3367 7.59018C1.40753 7.16386 1.89415 4.95246 3.76229 3.47744L3.79671 3.45026L3.83373 3.42678ZM8.81545 5.29243C8.64547 4.7667 8.05402 4.23364 7.38164 4.02721C6.3837 3.81743 5.50182 4.37958 4.83952 4.80175L4.78332 4.83755C3.44177 5.91851 3.0607 7.58603 3.01372 7.8688C2.7092 9.7017 3.51101 11.061 4.15595 12.1543C4.24157 12.2994 4.32442 12.4399 4.40155 12.5761C4.47644 12.6623 4.55813 12.7625 4.64895 12.8739C4.94118 13.2325 5.32801 13.7071 5.88724 14.2021C6.65334 14.8803 7.48422 15.3346 8.29765 15.2782C8.64578 15.2427 9.10883 15.1907 9.41899 14.838C9.69973 14.3846 9.61014 13.8436 9.53059 13.4024L9.52808 13.3884L9.52603 13.3744C9.49126 13.1364 9.45095 13.0555 9.37045 12.9159C9.35076 12.8818 9.32802 12.8437 9.3025 12.801C9.18719 12.6081 9.01515 12.3203 8.81156 11.8685C8.40752 10.9718 8.21423 10.2693 8.19752 9.36489C8.18742 8.81854 8.30815 8.49072 8.44822 8.18798C8.46071 8.16099 8.47302 8.13477 8.48517 8.10892C8.57754 7.91227 8.66023 7.73625 8.73677 7.39419L8.74153 7.37293L8.74736 7.35195C8.97009 6.55145 9.11482 5.96945 8.84927 5.38015L8.82993 5.33723L8.81545 5.29243Z" fill="#1A1A1A"/>
<path fill-rule="evenodd" clip-rule="evenodd" d="M17.6202 6.6585C17.5772 6.65236 17.5277 6.64464 17.4724 6.63599C16.7479 6.52279 15.014 6.25189 13.59 7.31996L13.5678 7.33657L13.5468 7.35459C12.6984 8.08181 12.034 9.31833 12.1503 10.5465C12.1681 11.8169 12.9146 12.7083 13.3845 13.2694L13.4337 13.3282C13.7524 13.7496 14.0161 13.9748 14.1964 14.1289C14.2173 14.1467 14.2371 14.1637 14.2558 14.1798C14.3787 14.2863 14.4339 14.3371 14.5187 14.5348C14.7623 15.1033 14.85 15.5834 14.85 16.4C14.85 16.7897 14.8236 17.0195 14.7986 17.2381C14.7919 17.297 14.7852 17.3552 14.7792 17.4154C14.7456 17.7514 14.7487 18.0581 14.8784 18.5185L14.8896 18.5645C14.991 18.9818 15.2743 20.1488 16.3495 20.8208L16.3837 20.8422L16.4198 20.8602C17.5151 21.4078 18.5914 21.0364 18.9208 20.9227C18.9391 20.9164 18.9552 20.9109 18.9688 20.9063L18.9796 20.9027L18.9904 20.8988C20.4207 20.3787 21.2467 19.0868 21.7251 18.0238C22.1043 17.1812 22.3496 16.2538 22.4554 15.8541C22.4799 15.7614 22.4969 15.6971 22.5063 15.6688L22.5386 15.5721L22.547 15.4705C22.558 15.3387 22.5765 15.1834 22.5975 15.0079C22.7449 13.7724 23.0119 11.5355 21.6072 9.42847C21.3675 9.06888 20.0153 7.25264 17.7061 6.67534L17.6636 6.6647L17.6202 6.6585ZM13.8448 10.4061C13.7837 9.85694 14.104 9.12797 14.6322 8.66352C15.4558 8.06228 16.4908 8.21248 17.2681 8.32529L17.334 8.33485C19.0012 8.76921 20.0337 10.133 20.1927 10.3715C21.2234 11.9174 21.0508 13.4861 20.9119 14.7478C20.8935 14.9153 20.8757 15.0774 20.8613 15.2333C20.8284 15.3427 20.7951 15.4676 20.7581 15.6065C20.639 16.0535 20.4813 16.6451 20.1748 17.3262C19.755 18.2592 19.1841 19.0148 18.4193 19.2975C18.0873 19.4081 17.6438 19.551 17.2161 19.3569C16.7739 19.0588 16.6333 18.5287 16.5246 18.0938L16.5211 18.0801L16.5173 18.0664C16.4512 17.8352 16.4547 17.7449 16.4707 17.5845C16.4747 17.5453 16.4798 17.5013 16.4855 17.4519C16.5114 17.2286 16.55 16.8955 16.55 16.4C16.55 15.4165 16.4376 14.6966 16.0812 13.8651C15.866 13.3629 15.6212 13.1136 15.3691 12.8951C15.3467 12.8756 15.3247 12.8568 15.303 12.8382C15.138 12.6969 14.9903 12.5704 14.78 12.29L14.7669 12.2725L14.7529 12.2558C14.221 11.6175 13.85 11.1463 13.85 10.5V10.4529L13.8448 10.4061Z" fill="#1A1A1A"/>
</svg>
