<svg width="24" height="24" viewBox="0 0 24 24" fill="none" xmlns="http://www.w3.org/2000/svg">
<path d="M9.00003 15.1499C8.53058 15.1499 8.15003 15.5305 8.15003 15.9999C8.15003 16.4693 8.53058 16.8499 9.00003 16.8499H15C15.4695 16.8499 15.85 16.4693 15.85 15.9999C15.85 15.5305 15.4695 15.1499 15 15.1499H9.00003Z" fill="#1A1A1A"/>
<path fill-rule="evenodd" clip-rule="evenodd" d="M16.0598 4.1499H7.94021C6.81266 4.14987 5.88117 4.14985 5.14359 4.24901C4.36855 4.35322 3.68159 4.58073 3.13122 5.1311C2.58085 5.68147 2.35334 6.36843 2.24914 7.14347C2.14997 7.88104 2.15 8.8125 2.15003 9.94006V14.0597C2.15 15.1873 2.14997 16.1188 2.24914 16.8563C2.35334 17.6314 2.58085 18.3183 3.13122 18.8687C3.68159 19.4191 4.36855 19.6466 5.14359 19.7508C5.88117 19.85 6.81263 19.8499 7.94019 19.8499H16.0598C17.1874 19.8499 18.1189 19.85 18.8565 19.7508C19.6315 19.6466 20.3185 19.4191 20.8688 18.8687C21.4192 18.3183 21.6467 17.6314 21.7509 16.8563C21.8501 16.1188 21.8501 15.1873 21.85 14.0597V9.94012C21.8501 8.81256 21.8501 7.88105 21.7509 7.14347C21.6467 6.36843 21.4192 5.68147 20.8688 5.1311C20.3185 4.58073 19.6315 4.35322 18.8565 4.24901C18.1189 4.14985 17.1874 4.14987 16.0598 4.1499ZM4.3333 6.33318C4.51516 6.15132 4.78358 6.01271 5.37011 5.93386C5.98109 5.85171 6.79749 5.84991 8.00003 5.84991H16C17.2026 5.84991 18.019 5.85171 18.6299 5.93386C19.2165 6.01271 19.4849 6.15132 19.6668 6.33318C19.8486 6.51504 19.9872 6.78346 20.0661 7.36999C20.1482 7.98097 20.15 8.79737 20.15 9.99991V13.9999C20.15 15.2024 20.1482 16.0188 20.0661 16.6298C19.9872 17.2164 19.8486 17.4848 19.6668 17.6666C19.4849 17.8485 19.2165 17.9871 18.6299 18.066C18.019 18.1481 17.2026 18.1499 16 18.1499H8.00003C6.79749 18.1499 5.98109 18.1481 5.37011 18.066C4.78358 17.9871 4.51516 17.8485 4.3333 17.6666C4.15144 17.4848 4.01283 17.2164 3.93398 16.6298C3.85183 16.0188 3.85003 15.2024 3.85003 13.9999V9.99991C3.85003 8.79737 3.85183 7.98097 3.93398 7.36999C4.01283 6.78346 4.15144 6.51504 4.3333 6.33318Z" fill="#1A1A1A"/>
</svg>
