<svg width="24" height="24" viewBox="0 0 24 24" fill="none" xmlns="http://www.w3.org/2000/svg">
<path fill-rule="evenodd" clip-rule="evenodd" d="M6.00002 8.15058C3.87373 8.15058 2.15002 9.87429 2.15002 12.0006V18.0006C2.15002 20.1269 3.87373 21.8506 6.00002 21.8506H7.35002V21.8492H15.0959C17.7803 21.8492 20.1202 20.0222 20.7712 17.418L21.8925 12.933C22.5 10.5031 20.6621 8.14923 18.1574 8.14923H15.0683L15.7283 5.28896C16.1669 3.38857 15.0888 1.46625 13.2385 0.849499C12.5739 0.627949 11.8464 0.918149 11.5167 1.53633L8.31449 7.54039C8.11463 7.91514 7.72449 8.14922 7.29978 8.14922L6.49808 8.14921C6.48191 8.14921 6.46579 8.14967 6.44973 8.15058H6.00002ZM5.64807 20.1219V9.87925C4.62809 10.0472 3.85002 10.933 3.85002 12.0006V18.0006C3.85002 19.0681 4.62809 19.954 5.64807 20.1219ZM7.35002 9.84878C8.38301 9.83064 9.32707 9.25431 9.81449 8.34039L12.9065 2.54296C13.798 2.94848 14.2966 3.93282 14.0719 4.9067L13.1715 8.8081C13.1133 9.0605 13.1733 9.32568 13.3346 9.5284C13.4958 9.73111 13.7407 9.84923 13.9998 9.84923H18.1574C19.5562 9.84923 20.5825 11.1637 20.2433 12.5207L19.122 17.0057C18.6601 18.8531 17.0002 20.1492 15.0959 20.1492H7.35002V9.84878Z" fill="#1A1A1A"/>
</svg>
