<svg width="24" height="24" viewBox="0 0 24 24" fill="none" xmlns="http://www.w3.org/2000/svg">
<path d="M12.8499 15.0004C12.8499 14.5309 12.4693 14.1504 11.9999 14.1504C11.5305 14.1504 11.1499 14.5309 11.1499 15.0004V16.0004C11.1499 16.4698 11.5305 16.8504 11.9999 16.8504C12.4693 16.8504 12.8499 16.4698 12.8499 16.0004V15.0004Z" fill="#1A1A1A"/>
<path fill-rule="evenodd" clip-rule="evenodd" d="M6.1499 8.00039C6.1499 4.76952 8.76904 2.15039 11.9999 2.15039C15.2308 2.15039 17.8499 4.76953 17.8499 8.00039V9.27319C18.1659 9.33305 18.4634 9.4251 18.7478 9.57002C19.4722 9.93913 20.0612 10.5281 20.4303 11.2525C20.665 11.7132 20.761 12.208 20.8062 12.7608C20.8499 13.2958 20.8499 13.9549 20.8499 14.7646V16.2362C20.8499 17.0459 20.8499 17.705 20.8062 18.24C20.761 18.7928 20.665 19.2876 20.4303 19.7483C20.0612 20.4727 19.4722 21.0617 18.7478 21.4308C18.2871 21.6655 17.7923 21.7615 17.2395 21.8067C16.7045 21.8504 16.0454 21.8504 15.2358 21.8504H8.76405C7.95442 21.8504 7.29531 21.8504 6.76029 21.8067C6.20747 21.7615 5.71271 21.6655 5.25204 21.4308C4.52762 21.0617 3.93864 20.4727 3.56953 19.7483C3.33481 19.2876 3.23877 18.7928 3.1936 18.24C3.14989 17.705 3.14989 17.0459 3.1499 16.2363V14.7645C3.14989 13.9549 3.14989 13.2958 3.1936 12.7608C3.23877 12.208 3.33481 11.7132 3.56953 11.2525C3.93864 10.5281 4.52762 9.93913 5.25204 9.57002C5.53645 9.4251 5.83386 9.33305 6.1499 9.27319V8.00039ZM16.1499 8.00039V9.15331C15.8689 9.15038 15.5648 9.15039 15.2359 9.15039H8.76404C8.4351 9.15039 8.13092 9.15038 7.8499 9.15331V8.00039C7.8499 5.70841 9.70792 3.85039 11.9999 3.85039C14.2919 3.85039 16.1499 5.70841 16.1499 8.00039ZM6.89873 10.8884C6.45103 10.925 6.20489 10.9925 6.02382 11.0847C5.61928 11.2909 5.29037 11.6198 5.08424 12.0243C4.99198 12.2054 4.92453 12.4515 4.88795 12.8992C4.85056 13.3568 4.8499 13.9463 4.8499 14.8004V16.2004C4.8499 17.0545 4.85056 17.644 4.88795 18.1016C4.92453 18.5493 4.99198 18.7954 5.08424 18.9765C5.29037 19.381 5.61928 19.7099 6.02382 19.9161C6.20489 20.0083 6.45103 20.0758 6.89873 20.1123C7.35634 20.1497 7.9458 20.1504 8.7999 20.1504H15.1999C16.054 20.1504 16.6435 20.1497 17.1011 20.1123C17.5488 20.0758 17.7949 20.0083 17.976 19.9161C18.3805 19.7099 18.7094 19.381 18.9156 18.9765C19.0078 18.7954 19.0753 18.5493 19.1119 18.1016C19.1492 17.644 19.1499 17.0545 19.1499 16.2004V14.8004C19.1499 13.9463 19.1492 13.3568 19.1119 12.8992C19.0753 12.4515 19.0078 12.2054 18.9156 12.0243C18.7094 11.6198 18.3805 11.2909 17.976 11.0847C17.7949 10.9925 17.5488 10.925 17.1011 10.8884C16.6435 10.8511 16.054 10.8504 15.1999 10.8504H8.7999C7.9458 10.8504 7.35634 10.8511 6.89873 10.8884Z" fill="#1A1A1A"/>
</svg>
