<svg width="24" height="24" viewBox="0 0 24 24" fill="none" xmlns="http://www.w3.org/2000/svg">
<path fill-rule="evenodd" clip-rule="evenodd" d="M11.6707 3.76639C10.7459 4.45395 9.18814 5.7398 7.84806 7.45791C6.45396 9.24529 5.3499 11.4295 5.3499 13.849C5.3499 15.6067 5.77305 16.9135 6.49125 17.9251C7.09669 18.7778 7.94657 19.4695 9.03638 20.0426C8.79624 18.7053 8.74266 17.2281 9.47085 15.7313C9.6308 15.4025 9.98309 15.2128 10.3456 15.2603C10.7082 15.3079 10.9997 15.5819 11.0695 15.9408C11.2765 17.0045 11.4657 17.7579 11.837 18.4368C12.1997 19.0999 12.7707 19.7508 13.8332 20.5139C13.8559 20.5303 13.8881 20.5346 13.9165 20.5226C15.4588 19.8729 16.6269 19.0769 17.4135 18.0392C18.1905 17.014 18.6499 15.6808 18.6499 13.849C18.6499 10.498 17.0586 8.09682 15.961 6.84055C15.8087 7.33282 15.6164 7.89163 15.4113 8.31313C15.269 8.60564 14.9722 8.79129 14.647 8.79129C14.3217 8.79129 14.0249 8.60564 13.8826 8.31313L13.2867 7.08814C13.2895 7.09395 13.2926 7.1004 13.2822 7.07895L12.6322 5.74278C12.6374 5.75361 12.6424 5.76369 12.627 5.73222L11.6707 3.76639ZM10.7671 2.32039C11.6057 1.70546 12.7282 2.05413 13.1533 2.928L14.5504 5.79978C14.7629 5.43958 15.0998 5.17743 15.4901 5.0641C16.0201 4.91017 16.6237 5.04238 17.0496 5.50783C18.2965 6.87034 20.3499 9.736 20.3499 13.849C20.3499 15.9856 19.8061 17.6969 18.7683 19.0661C17.7399 20.4229 16.2813 21.3711 14.5764 22.0893C14.0052 22.3299 13.3471 22.2579 12.8415 21.8947C11.9053 21.2223 11.2309 20.5722 10.7342 19.8733C10.7665 20.0433 10.8028 20.2156 10.8422 20.3906C11.0677 21.3922 10.0833 22.3971 9.00939 21.9176C7.41128 21.2039 6.05623 20.2488 5.1051 18.9092C4.14844 17.5618 3.6499 15.8951 3.6499 13.849C3.6499 10.9066 4.9881 8.36052 6.50759 6.41238C8.03069 4.45962 9.79075 3.03631 10.7671 2.32039Z" fill="#1A1A1A"/>
</svg>
