<svg width="24" height="24" viewBox="0 0 24 24" fill="none" xmlns="http://www.w3.org/2000/svg">
<path fill-rule="evenodd" clip-rule="evenodd" d="M17.9993 0.864258C15.6363 0.864258 13.7207 2.77984 13.7207 5.14283C13.7207 7.50582 15.6363 9.4214 17.9993 9.4214C20.3623 9.4214 22.2778 7.50582 22.2778 5.14283C22.2778 2.77984 20.3623 0.864258 17.9993 0.864258ZM15.4207 5.14283C15.4207 3.71872 16.5752 2.56426 17.9993 2.56426C19.4234 2.56426 20.5778 3.71872 20.5778 5.14283C20.5778 6.56693 19.4234 7.7214 17.9993 7.7214C16.5752 7.7214 15.4207 6.56693 15.4207 5.14283Z" fill="#1A1A1A"/>
<path d="M12.7249 3.85002C12.875 3.23573 13.1296 2.66242 13.4688 2.15002H10.4344C5.82497 2.15002 2.14966 6.03944 2.14966 10.7599C2.14966 13.8854 3.75447 16.6348 6.17278 18.1448C6.29784 18.2229 6.4251 18.2977 6.55443 18.3691L6.55632 18.3701L6.56662 18.3758C6.70179 18.45 6.8398 18.5209 6.97938 18.5875C7.03263 18.6129 7.08618 18.6378 7.14 18.662L13.5717 21.6774C14.7664 22.2374 15.964 21.35 16.0711 20.2477C16.0874 20.0795 16.0629 19.914 16.0505 19.8369C16.0346 19.7379 16.0144 19.6467 16.0014 19.5918C15.9838 19.5173 15.9623 19.4511 15.9418 19.3952C15.9173 19.3284 15.9182 19.2455 15.9721 19.1471C16.0292 19.0429 16.1341 18.9488 16.2635 18.9025C19.5309 17.7334 21.8497 14.5156 21.8497 10.7599C21.8497 10.1983 21.7976 9.6485 21.6982 9.1156C21.2402 9.54238 20.7082 9.89088 20.1236 10.1398C20.1409 10.3439 20.1497 10.5507 20.1497 10.7599C20.1497 13.813 18.2675 16.3799 15.6907 17.3019C14.6932 17.6588 13.9107 18.7953 14.3459 19.981L14.3478 19.9862C14.3556 20.0197 14.3651 20.0638 14.3716 20.1039L14.3693 20.1077C14.3615 20.1199 14.3503 20.1307 14.3387 20.1378C14.3277 20.1446 14.3207 20.1455 14.3189 20.1456C14.318 20.1457 14.3164 20.1458 14.3136 20.1452C14.3109 20.1447 14.3042 20.1432 14.2934 20.1381L7.87584 17.1294L7.04958 16.6881C5.14028 15.4845 3.84966 13.287 3.84966 10.7599C3.84966 6.90902 6.83168 3.85002 10.4344 3.85002H12.7249Z" fill="#1A1A1A"/>
</svg>
