<svg width="24" height="24" viewBox="0 0 24 24" fill="none" xmlns="http://www.w3.org/2000/svg">
<path d="M9.59739 5.35C10.3753 5.35 10.5894 5.35846 10.7719 5.4132C10.9583 5.46916 11.1321 5.56093 11.2835 5.68339C11.4315 5.80319 11.5592 5.97524 11.9979 6.61774L12.2854 7.03888L12.2981 7.05776C12.3453 7.12837 12.4505 7.28568 12.5997 7.40642C12.7251 7.5079 12.8692 7.58396 13.0237 7.63033C13.2075 7.68551 13.3968 7.68369 13.4817 7.68287L13.5045 7.68271H16.9813C17.6986 7.68271 18.1855 7.68337 18.5617 7.71411C18.928 7.74403 19.1138 7.79817 19.2426 7.86382C19.5553 8.02313 19.8095 8.27732 19.9688 8.58998C20.0344 8.71881 20.0886 8.90465 20.1185 9.2709C20.1492 9.64708 20.1499 10.134 20.1499 10.8513V12.1664C20.1499 12.6358 20.5305 13.0164 20.9999 13.0164C21.4693 13.0164 21.8499 12.6358 21.8499 12.1664V10.8163C21.8499 10.1428 21.8499 9.5861 21.8129 9.13247C21.7743 8.66108 21.6916 8.22662 21.4835 7.81819C21.1612 7.18566 20.647 6.6714 20.0144 6.34911C19.606 6.141 19.1715 6.05827 18.7001 6.01975C18.2465 5.98269 17.6899 5.9827 17.0163 5.98271L13.6227 5.98271L13.3418 5.57118C12.9917 5.0576 12.7199 4.65882 12.3527 4.36178C12.0296 4.10034 11.6586 3.9044 11.2605 3.78493C10.8082 3.6492 10.3255 3.64953 9.70398 3.64995L6.98348 3.65C6.30994 3.64999 5.75328 3.64998 5.29966 3.68704C4.82827 3.72555 4.39382 3.80829 3.98538 4.01639C3.35285 4.33868 2.83859 4.85295 2.5163 5.48548C2.30819 5.89391 2.22546 6.32837 2.18695 6.79975C2.14988 7.25337 2.14989 7.81002 2.1499 8.48356V15.5164C2.14989 16.19 2.14988 16.7466 2.18695 17.2002C2.22546 17.6716 2.30819 18.1061 2.5163 18.5145C2.83859 19.147 3.35285 19.6613 3.98538 19.9836C4.39382 20.1917 4.82827 20.2744 5.29966 20.313C5.75328 20.35 6.30994 20.35 6.98349 20.35H10.4999C10.9693 20.35 11.3499 19.9694 11.3499 19.5C11.3499 19.0306 10.9693 18.65 10.4999 18.65H7.01851C6.30116 18.65 5.81427 18.6493 5.43809 18.6186C5.07184 18.5887 4.886 18.5345 4.75717 18.4689C4.44451 18.3096 4.19032 18.0554 4.03101 17.7427C3.96536 17.6139 3.91122 17.4281 3.8813 17.0618C3.85056 16.6856 3.8499 16.1987 3.8499 15.4814V8.5186C3.8499 7.80125 3.85056 7.31436 3.8813 6.93819C3.91122 6.57193 3.96536 6.3861 4.03101 6.25726C4.19032 5.94461 4.44451 5.69041 4.75717 5.5311C4.886 5.46546 5.07184 5.41132 5.43809 5.38139C5.81427 5.35066 6.30116 5.35 7.01851 5.35H9.59739Z" fill="#1A1A1A"/>
<path d="M17.3495 20.6009C17.0175 20.9329 16.4793 20.9329 16.1474 20.6009L12.8974 17.3509C12.5654 17.019 12.5655 16.4808 12.8974 16.1488L16.1474 12.8989C16.4793 12.5669 17.0175 12.5669 17.3495 12.8989C17.6814 13.2308 17.6814 13.769 17.3495 14.1009L15.5505 15.8999H21.4994C21.9688 15.8999 22.3494 16.2805 22.3494 16.7499C22.3494 17.2193 21.9688 17.5999 21.4994 17.5999H15.5505L17.3495 19.3989C17.6814 19.7308 17.6814 20.269 17.3495 20.6009Z" fill="#1A1A1A"/>
</svg>
