<svg width="24" height="24" viewBox="0 0 24 24" fill="none" xmlns="http://www.w3.org/2000/svg">
<path d="M12 1.80957C12.5359 1.80957 13.024 2.09083 14 2.6543L19.0938 5.5957C20.0692 6.15889 20.5573 6.44049 20.8252 6.9043C21.0931 7.3684 21.0938 7.9325 21.0938 9.05957V14.9404L21.0889 15.6875C21.0763 16.3432 21.0262 16.7476 20.8252 17.0957L20.7139 17.2617C20.4277 17.6342 19.9474 17.9114 19.0938 18.4043L14 21.3457L13.3516 21.7148C12.7771 22.032 12.402 22.1904 12 22.1904L11.7998 22.1777C11.4671 22.1336 11.127 21.9791 10.6484 21.7148L10 21.3457L4.90625 18.4043C4.05258 17.9114 3.57234 17.6342 3.28613 17.2617L3.1748 17.0957C2.90686 16.6316 2.90625 16.0675 2.90625 14.9404V9.05957C2.90625 7.9325 2.90686 7.3684 3.1748 6.9043C3.37574 6.55648 3.70052 6.31118 4.26172 5.97266L4.90625 5.5957L10 2.6543C10.976 2.09083 11.4641 1.80957 12 1.80957ZM11.8662 3.56934C11.649 3.66774 11.366 3.82879 10.8496 4.12695L5.75684 7.06738C5.24029 7.36561 4.95943 7.53006 4.76562 7.66895C4.70901 7.70952 4.6748 7.7396 4.6543 7.75781C4.64874 7.78445 4.63883 7.82946 4.63184 7.90039C4.60846 8.13768 4.60645 8.46314 4.60645 9.05957V14.9404C4.60645 15.5369 4.60846 15.8623 4.63184 16.0996C4.63875 16.1697 4.64875 16.2144 4.6543 16.2412C4.67473 16.2594 4.70856 16.2902 4.76562 16.3311C4.95943 16.4699 5.24029 16.6344 5.75684 16.9326L10.8496 19.873C11.366 20.1712 11.649 20.3323 11.8662 20.4307C11.9303 20.4597 11.974 20.4738 12 20.4824C12.026 20.4738 12.0697 20.4597 12.1338 20.4307C12.351 20.3323 12.634 20.1712 13.1504 19.873L18.2432 16.9326C18.7597 16.6344 19.0406 16.4699 19.2344 16.3311C19.2909 16.2905 19.3242 16.2594 19.3447 16.2412C19.3503 16.2145 19.3612 16.1699 19.3682 16.0996C19.3915 15.8623 19.3936 15.5369 19.3936 14.9404V9.05957C19.3936 8.46314 19.3915 8.13768 19.3682 7.90039C19.3612 7.82929 19.3503 7.78443 19.3447 7.75781C19.3241 7.73957 19.2905 7.70916 19.2344 7.66895C19.0406 7.53006 18.7597 7.36561 18.2432 7.06738L13.1504 4.12695C12.634 3.82879 12.351 3.66774 12.1338 3.56934C12.0694 3.54018 12.0259 3.52516 12 3.5166C11.9741 3.52516 11.9306 3.54018 11.8662 3.56934ZM15.9238 9.21191C16.2702 8.87997 16.8323 8.87997 17.1787 9.21191C17.5247 9.54379 17.5247 10.0812 17.1787 10.4131L12.6992 14.7061C11.9453 15.4285 10.7226 15.4285 9.96875 14.7061L7.57617 12.4131C7.23025 12.0812 7.23025 11.5438 7.57617 11.2119C7.92255 10.88 8.48468 10.88 8.83105 11.2119L11.2236 13.5039C11.2848 13.5625 11.3832 13.5625 11.4443 13.5039L15.9238 9.21191Z" fill="#1A1A1A"/>
</svg>
