<svg width="24" height="24" viewBox="0 0 24 24" fill="none" xmlns="http://www.w3.org/2000/svg">
<path d="M22.0702 18.482C21.7935 19.0838 21.0566 19.4 20.3988 19.0889L19.1808 18.5129C19.1222 19.9556 17.934 21.1072 16.4769 21.1072H4.52254C3.02798 21.1072 1.81641 19.8957 1.81641 18.4011V13.1905L3.51641 12.0363V18.4011C3.51641 18.9568 3.96687 19.4072 4.52254 19.4072H16.4769C17.0326 19.4072 17.4831 18.9568 17.4831 18.4011V15.8296L20.4832 17.2483V9.26613L17.4831 10.6849V8.11336C17.4831 7.55769 17.0326 7.10723 16.4769 7.10723H10.7765L13.2805 5.40723H16.4769C17.934 5.40723 19.1222 6.55884 19.1808 8.00154L20.3988 7.42553C21.0566 7.11449 21.7935 7.43066 22.0702 8.03246V18.482Z" fill="#2F3033"/>
<path fill-rule="evenodd" clip-rule="evenodd" d="M13.1777 12.7641L12.5236 14.456L11.8694 12.7641L10.1666 12.1142L11.8694 11.4643L12.5236 9.77248L13.1777 11.4643L14.8806 12.1142L13.1777 12.7641Z" fill="#2F3033"/>
<path fill-rule="evenodd" clip-rule="evenodd" d="M1.81673 5.85682C1.81673 4.36004 3.1974 3.24468 4.66074 3.55933L13.3432 5.42625C13.6738 5.49735 13.9309 5.7577 13.9977 6.08924C14.0646 6.42077 13.9285 6.76039 13.6513 6.95407L3.1535 14.2874C2.8938 14.4688 2.55475 14.4908 2.27383 14.3443C1.99291 14.1979 1.81673 13.9074 1.81673 13.5906V5.85682ZM4.30337 5.22135C3.89862 5.13432 3.51673 5.44282 3.51673 5.85682V11.96L11.0779 6.67802L4.30337 5.22135Z" fill="#2F3033"/>
</svg>
