<svg width="24" height="24" viewBox="0 0 24 24" fill="none" xmlns="http://www.w3.org/2000/svg">
<path d="M12.7231 21.4714L13.2355 22.1496V22.1496L12.7231 21.4714ZM11.2658 21.4693L10.7515 22.1461H10.7515L11.2658 21.4693ZM11.9937 1.50107C6.99725 1.50107 2.81675 5.44477 2.81675 10.3916H4.51675C4.51675 6.4453 7.87327 3.20107 11.9937 3.20107V1.50107ZM21.1834 10.3916C21.1834 5.44393 17.002 1.50107 11.9937 1.50107V3.20107C16.1278 3.20107 19.4834 6.44614 19.4834 10.3916H21.1834ZM13.2355 22.1496C14.2759 21.3635 16.2349 19.7704 17.9419 17.7333C19.6292 15.7196 21.1834 13.1386 21.1834 10.3916H19.4834C19.4834 12.5292 18.2486 14.7203 16.6388 16.6415C15.0487 18.5392 13.2026 20.0437 12.2107 20.7932L13.2355 22.1496ZM10.7515 22.1461C11.4893 22.7067 12.4959 22.7084 13.2355 22.1496L12.2107 20.7932C12.0791 20.8926 11.9116 20.8925 11.78 20.7925L10.7515 22.1461ZM2.81675 10.3916C2.81675 13.1268 4.36925 15.7058 6.05331 17.7203C7.75739 19.7587 9.71311 21.357 10.7515 22.1461L11.78 20.7925C10.7896 20.0399 8.94582 18.5298 7.35759 16.6299C5.74935 14.7061 4.51675 12.5171 4.51675 10.3916H2.81675ZM11.9925 12.8336C10.4372 12.8336 9.18444 11.6037 9.18444 10.048H7.48444C7.48444 12.5623 9.51818 14.5336 11.9925 14.5336V12.8336ZM14.8178 10.048C14.8178 11.5988 13.5542 12.8336 11.9925 12.8336V14.5336C14.4632 14.5336 16.5178 12.5673 16.5178 10.048H14.8178ZM11.9925 7.20026C13.533 7.20026 14.8178 8.49191 14.8178 10.048H16.5178C16.5178 7.56559 14.4844 5.50026 11.9925 5.50026V7.20026ZM9.18444 10.048C9.18444 8.48692 10.4583 7.20026 11.9925 7.20026V5.50026C9.49705 5.50026 7.48444 7.57058 7.48444 10.048H9.18444Z" fill="#1A1A1A"/>
</svg>
