<svg width="24" height="24" viewBox="0 0 24 24" fill="none" xmlns="http://www.w3.org/2000/svg">
<path fill-rule="evenodd" clip-rule="evenodd" d="M11.9999 3.85039C7.49878 3.85039 3.8499 7.49927 3.8499 12.0004C3.8499 16.5015 7.49878 20.1504 11.9999 20.1504C16.501 20.1504 20.1499 16.5015 20.1499 12.0004C20.1499 7.49927 16.501 3.85039 11.9999 3.85039ZM2.1499 12.0004C2.1499 6.56039 6.5599 2.15039 11.9999 2.15039C17.4399 2.15039 21.8499 6.56039 21.8499 12.0004C21.8499 17.4404 17.4399 21.8504 11.9999 21.8504C6.5599 21.8504 2.1499 17.4404 2.1499 12.0004ZM11.9999 7.85039C11.0233 7.85039 10.3499 8.5658 10.3499 9.30808C10.3499 9.77752 9.96934 10.1581 9.4999 10.1581C9.03046 10.1581 8.6499 9.77752 8.6499 9.30808C8.6499 7.50136 10.2151 6.15039 11.9999 6.15039C13.7847 6.15039 15.3499 7.50136 15.3499 9.30808C15.3499 10.8185 14.2473 12.0173 12.8499 12.363V13.0004C12.8499 13.4698 12.4693 13.8504 11.9999 13.8504C11.5305 13.8504 11.1499 13.4698 11.1499 13.0004V12.1158C11.1499 11.3393 11.7641 10.8421 12.3415 10.7345C13.1371 10.5863 13.6499 9.962 13.6499 9.30808C13.6499 8.5658 12.9765 7.85039 11.9999 7.85039ZM12.8499 16.0004C12.8499 15.5309 12.4693 15.1504 11.9999 15.1504C11.5305 15.1504 11.1499 15.531 11.1499 16.0005C11.1499 16.4699 11.5305 16.8505 11.9999 16.8505C12.4693 16.8505 12.8499 16.4698 12.8499 16.0004Z" fill="#1A1A1A"/>
</svg>
