<svg width="24" height="24" viewBox="0 0 24 24" fill="none" xmlns="http://www.w3.org/2000/svg">
<path fill-rule="evenodd" clip-rule="evenodd" d="M11.9999 2.15039C6.5599 2.15039 2.1499 6.56039 2.1499 12.0004C2.1499 17.4404 6.5599 21.8504 11.9999 21.8504C17.4399 21.8504 21.8499 17.4404 21.8499 12.0004C21.8499 6.56039 17.4399 2.15039 11.9999 2.15039ZM10.3499 9.30769C10.3499 8.56541 11.0233 7.85 11.9999 7.85C12.9765 7.85 13.6499 8.56541 13.6499 9.30769C13.6499 9.96161 13.137 10.5859 12.3415 10.7341C11.7641 10.8417 11.1499 11.339 11.1499 12.1154V13C11.1499 13.4694 11.5304 13.85 11.9999 13.85C12.4693 13.85 12.8499 13.4694 12.8499 13V12.3627C14.2473 12.0169 15.3499 10.8181 15.3499 9.30769C15.3499 7.50097 13.7847 6.15 11.9999 6.15C10.2151 6.15 8.64988 7.50097 8.64988 9.30769C8.64988 9.77713 9.03044 10.1577 9.49988 10.1577C9.96932 10.1577 10.3499 9.77713 10.3499 9.30769ZM11.9999 15.15C12.4693 15.15 12.8499 15.5306 12.8499 16C12.8499 16.4694 12.4693 16.8501 11.9999 16.8501C11.5304 16.8501 11.1499 16.4694 11.1499 16C11.1499 15.5306 11.5304 15.15 11.9999 15.15Z" fill="#1A1A1A"/>
</svg>
