<svg width="24" height="24" viewBox="0 0 24 24" fill="none" xmlns="http://www.w3.org/2000/svg">
<path d="M15.8765 8.04347C16.1534 7.91719 16.357 7.65579 16.357 7.35144C16.357 6.90436 15.9343 6.5739 15.5213 6.74522C14.6902 7.09 14.0161 7.61174 13.4868 8.31043C12.7623 9.20214 12.4001 10.2889 12.4001 11.5429C12.4001 12.351 12.5672 12.9919 12.9574 13.4935C13.3196 13.9951 13.8212 14.2737 14.4621 14.2737L14.4921 14.2735C14.5046 14.2737 14.5172 14.2738 14.5298 14.2738C15.6029 14.2738 16.4727 13.404 16.4727 12.3309C16.4727 11.2579 15.6029 10.388 14.5298 10.388C14.3422 10.388 14.1608 10.4146 13.9892 10.4642C14.0017 9.85321 14.1728 9.62648 14.6015 9.09067C14.9258 8.6366 15.3508 8.28319 15.8765 8.04347Z" fill="#1A1A1A"/>
<path d="M10.2761 8.04347C10.553 7.91719 10.7566 7.65579 10.7566 7.35144C10.7566 6.90436 10.3339 6.5739 9.92093 6.74522C9.08984 7.09 8.41576 7.61174 7.88645 8.31043C7.16194 9.20214 6.79968 10.2889 6.79968 11.5429C6.79968 12.351 6.96688 12.9919 7.357 13.4935C7.71926 13.9951 8.22084 14.2737 8.86176 14.2737L8.89173 14.2735C8.90427 14.2737 8.91684 14.2738 8.92944 14.2738C10.0025 14.2738 10.8724 13.404 10.8724 12.3309C10.8724 11.2579 10.0025 10.388 8.92944 10.388C8.74183 10.388 8.56042 10.4146 8.38879 10.4642C8.40136 9.85321 8.57244 9.62648 9.00109 9.09067C9.32543 8.6366 9.75043 8.28319 10.2761 8.04347Z" fill="#1A1A1A"/>
<path fill-rule="evenodd" clip-rule="evenodd" d="M10.4337 2.15039C5.82423 2.15039 2.14893 6.0398 2.14893 10.7602C2.14893 13.8858 3.75374 16.6352 6.17204 18.1452C6.29711 18.2233 6.42459 18.2982 6.55392 18.3695L6.55559 18.3705L6.56646 18.3765C6.70163 18.4507 6.83907 18.5212 6.97865 18.5879C7.0319 18.6133 7.08544 18.6381 7.13927 18.6624L13.571 21.6777C14.7657 22.2378 15.9632 21.3503 16.0703 20.248C16.0867 20.0799 16.0621 19.9143 16.0498 19.8373C16.0339 19.7382 16.0136 19.6471 16.0007 19.5922C15.9831 19.5177 15.9616 19.4515 15.9411 19.3956C15.9166 19.3288 15.9175 19.2459 15.9714 19.1475C16.0285 19.0433 16.1334 18.9492 16.2627 18.9029C19.5301 17.7337 21.8489 14.5159 21.8489 10.7602C21.8489 6.0398 18.1736 2.15039 13.5641 2.15039H10.4337ZM14.2926 20.1385L7.87511 17.1298L7.04884 16.6884C5.13955 15.4849 3.84893 13.2874 3.84893 10.7602C3.84893 6.90939 6.83095 3.85039 10.4337 3.85039H13.5641C17.1669 3.85039 20.1489 6.90939 20.1489 10.7602C20.1489 13.8134 18.2668 16.3802 15.69 17.3022C14.6924 17.6592 13.91 18.7956 14.3452 19.9814L14.3471 19.9866C14.3549 20.0201 14.3644 20.0642 14.3709 20.1043L14.3686 20.1081C14.3607 20.1203 14.3496 20.131 14.338 20.1382C14.327 20.145 14.3182 20.146 14.3182 20.146C14.3182 20.146 14.3157 20.1461 14.3129 20.1456C14.3102 20.1451 14.3035 20.1436 14.2926 20.1385Z" fill="#1A1A1A"/>
</svg>
