<svg width="24" height="24" viewBox="0 0 24 24" fill="none" xmlns="http://www.w3.org/2000/svg">
<path d="M8.60104 10.3984C8.93298 10.7303 8.93298 11.2685 8.60104 11.6005C8.26909 11.9324 7.7309 11.9324 7.39896 11.6005L4.10606 8.30756C3.38359 7.58509 3.38359 6.41374 4.10606 5.69127L7.39896 2.39837C7.7309 2.06643 8.26909 2.06643 8.60104 2.39837C8.93298 2.73032 8.93298 3.26851 8.60104 3.60045L6.0513 6.1502H13.9998C17.783 6.1502 20.8498 9.21704 20.8498 13.0002C20.8498 16.7833 17.783 19.8502 13.9998 19.8502H4.9998C4.53036 19.8502 4.1498 19.4696 4.1498 19.0002C4.1498 18.5308 4.53036 18.1502 4.9998 18.1502H13.9998C16.8441 18.1502 19.1498 15.8445 19.1498 13.0002C19.1498 10.1559 16.8441 7.8502 13.9998 7.8502H6.05286L8.60104 10.3984Z" fill="#1A1A1A"/>
</svg>
