<svg width="24" height="24" viewBox="0 0 24 24" fill="none" xmlns="http://www.w3.org/2000/svg">
<path fill-rule="evenodd" clip-rule="evenodd" d="M12.8499 2.50039C12.8499 2.03095 12.4693 1.65039 11.9999 1.65039C11.5304 1.65039 11.1499 2.03095 11.1499 2.50039V3.69902C7.49098 4.12038 4.6499 7.2286 4.6499 11.0004V17.1504H2.9999C2.53046 17.1504 2.1499 17.5309 2.1499 18.0004C2.1499 18.4698 2.53046 18.8504 2.9999 18.8504H20.9999C21.4693 18.8504 21.8499 18.4698 21.8499 18.0004C21.8499 17.5309 21.4693 17.1504 20.9999 17.1504H19.3499V11.0004C19.3499 7.22857 16.5088 4.12033 12.8499 3.69901V2.50039ZM17.6499 17.1504V11.0004C17.6499 7.87998 15.1203 5.35039 11.9999 5.35039C8.87949 5.35039 6.3499 7.87998 6.3499 11.0004V17.1504H17.6499Z" fill="#1A1A1A"/>
<path d="M8.10889 21.5004C8.10889 21.0309 8.48944 20.6504 8.95889 20.6504H15.0416C15.5111 20.6504 15.8916 21.0309 15.8916 21.5004C15.8916 21.9698 15.5111 22.3504 15.0416 22.3504H8.95889C8.48944 22.3504 8.10889 21.9698 8.10889 21.5004Z" fill="#1A1A1A"/>
</svg>
