<svg width="24" height="24" viewBox="0 0 24 24" fill="none" xmlns="http://www.w3.org/2000/svg">
<path d="M15.8509 2.35107C16.1829 2.01912 16.1829 1.48093 15.8509 1.14898C15.519 0.817038 14.9808 0.817038 14.6489 1.14898L11.3989 4.39898C11.0669 4.73093 11.0669 5.26912 11.3989 5.60106L14.6489 8.85106C14.9808 9.18301 15.519 9.18301 15.8509 8.85106C16.1829 8.51912 16.1829 7.98093 15.8509 7.64898L14.0519 5.8499H15.9984C18.0143 5.8499 19.6484 7.48406 19.6484 9.4999C19.6484 9.96934 20.029 10.3499 20.4984 10.3499C20.9679 10.3499 21.3484 9.96934 21.3484 9.4999C21.3484 6.54518 18.9532 4.1499 15.9984 4.1499H14.0521L15.8509 2.35107Z" fill="#1A1A1A"/>
<path fill-rule="evenodd" clip-rule="evenodd" d="M7.14654 10.15H12.8529C13.5232 10.15 14.0774 10.15 14.5291 10.1869C14.9986 10.2253 15.4316 10.3077 15.8388 10.5152C16.4691 10.8363 16.9816 11.3488 17.3028 11.9792C17.5103 12.3863 17.5927 12.8194 17.631 13.2888C17.6679 13.7405 17.6679 14.2947 17.6679 14.965V17.035C17.6679 17.7053 17.6679 18.2596 17.631 18.7112C17.5927 19.1807 17.5103 19.6137 17.3028 20.0209C16.9816 20.6512 16.4691 21.1637 15.8388 21.4849C15.4316 21.6924 14.9986 21.7748 14.5291 21.8131C14.0774 21.85 13.5232 21.85 12.8529 21.85H7.14655C6.47624 21.85 5.92202 21.85 5.47033 21.8131C5.00089 21.7748 4.56786 21.6924 4.16068 21.4849C3.53033 21.1637 3.01785 20.6512 2.69667 20.0209C2.4892 19.6137 2.40678 19.1807 2.36843 18.7112C2.33152 18.2596 2.33153 17.7053 2.33154 17.035V14.965C2.33153 14.2947 2.33152 13.7405 2.36843 13.2888C2.40678 12.8194 2.4892 12.3863 2.69667 11.9792C3.01785 11.3488 3.53033 10.8363 4.16068 10.5152C4.56786 10.3077 5.00089 10.2253 5.47033 10.1869C5.922 10.15 6.47626 10.15 7.14654 10.15ZM5.60877 11.8813C5.24445 11.911 5.06005 11.9649 4.93246 12.0299C4.62199 12.1881 4.36957 12.4405 4.21138 12.7509C4.14637 12.8785 4.09255 13.0629 4.06278 13.4272C4.03221 13.8015 4.03154 14.2859 4.03154 15V17C4.03154 17.7141 4.03221 18.1986 4.06278 18.5728C4.09255 18.9371 4.14637 19.1215 4.21138 19.2491C4.36957 19.5596 4.62199 19.812 4.93246 19.9702C5.06005 20.0352 5.24445 20.089 5.60877 20.1188C5.98301 20.1494 6.46745 20.15 7.18155 20.15H12.8179C13.532 20.15 14.0164 20.1494 14.3907 20.1188C14.755 20.089 14.9394 20.0352 15.067 19.9702C15.3775 19.812 15.6299 19.5596 15.7881 19.2491C15.8531 19.1215 15.9069 18.9371 15.9367 18.5728C15.9672 18.1986 15.9679 17.7141 15.9679 17V15C15.9679 14.2859 15.9672 13.8015 15.9367 13.4272C15.9069 13.0629 15.8531 12.8785 15.7881 12.7509C15.6299 12.4405 15.3775 12.1881 15.067 12.0299C14.9394 11.9649 14.755 11.911 14.3907 11.8813C14.0164 11.8507 13.532 11.85 12.8179 11.85H7.18154C6.46745 11.85 5.98301 11.8507 5.60877 11.8813Z" fill="#1A1A1A"/>
</svg>
