<svg width="24" height="24" viewBox="0 0 24 24" fill="none" xmlns="http://www.w3.org/2000/svg">
<path fill-rule="evenodd" clip-rule="evenodd" d="M6.85826 9.42843C8.45839 9.42843 9.8025 8.33227 10.1806 6.8499H16.8583C18.0457 6.8499 19.0083 7.81249 19.0083 8.9999C19.0083 10.1873 18.0457 11.1499 16.8583 11.1499H7.8583C5.732 11.1499 4.0083 12.8736 4.0083 14.9999C4.0083 17.1262 5.732 18.8499 7.8583 18.8499H14.0359C14.414 20.3323 15.7581 21.4284 17.3583 21.4284C19.2518 21.4284 20.7868 19.8934 20.7868 17.9999C20.7868 16.1063 19.2518 14.5713 17.3583 14.5713C15.7581 14.5713 14.414 15.6675 14.0359 17.1499H7.8583C6.67089 17.1499 5.7083 16.1873 5.7083 14.9999C5.7083 13.8125 6.67089 12.8499 7.8583 12.8499H16.8583C18.9846 12.8499 20.7083 11.1262 20.7083 8.9999C20.7083 6.87361 18.9846 5.1499 16.8583 5.1499H10.1807C9.80255 3.66749 8.45842 2.57129 6.85826 2.57129C4.96471 2.57129 3.42969 4.10631 3.42969 5.99986C3.42969 7.89341 4.96471 9.42843 6.85826 9.42843ZM19.0868 17.9999C19.0868 18.9545 18.3129 19.7284 17.3583 19.7284C16.4036 19.7284 15.6297 18.9545 15.6297 17.9999C15.6297 17.0452 16.4036 16.2713 17.3583 16.2713C18.3129 16.2713 19.0868 17.0452 19.0868 17.9999Z" fill="#1A1A1A"/>
</svg>
