<svg width="24" height="24" viewBox="0 0 24 24" fill="none" xmlns="http://www.w3.org/2000/svg">
<path d="M12.25 9.84875C12.7191 9.84901 13.0993 10.2303 13.0996 10.6993V15.1495H13.2002L13.2871 15.1534C13.7152 15.1973 14.0496 15.5595 14.0498 15.9991C14.0497 16.439 13.7154 16.801 13.2871 16.8448L13.2002 16.8497H11C10.5308 16.8495 10.1505 16.4684 10.1504 15.9991C10.1507 15.53 10.5309 15.1497 11 15.1495H11.4004V11.5489H11C10.5308 11.5487 10.1506 11.1685 10.1504 10.6993C10.1507 10.2302 10.5309 9.84895 11 9.84875H12.25Z" fill="#1A1A1A"/>
<path d="M12.001 6.29992C12.6633 6.30038 13.2012 6.83766 13.2012 7.50011C13.2011 8.16252 12.6633 8.69985 12.001 8.70031C11.3383 8.70031 10.8008 8.1628 10.8008 7.50011C10.8008 6.83737 11.3382 6.29992 12.001 6.29992Z" fill="#1A1A1A"/>
<path fill-rule="evenodd" clip-rule="evenodd" d="M10.7031 2.01574C11.5479 1.75183 12.4531 1.75176 13.2979 2.01574L17.7979 3.42199C19.6136 3.98956 20.8505 5.67095 20.8506 7.57336V14.4435C20.8505 14.9533 20.7203 15.4548 20.4727 15.9005C18.9355 18.6674 16.4512 20.7866 13.4766 21.8683L13.0908 22.0079C12.3861 22.2641 11.6139 22.2642 10.9092 22.0079L10.5234 21.8683C7.54891 20.7866 5.06446 18.6673 3.52734 15.9005C3.27979 15.4548 3.15045 14.9533 3.15039 14.4435V7.57336C3.15051 5.67085 4.38719 3.98947 6.20312 3.42199L10.7031 2.01574ZM12.791 3.63781C12.2764 3.477 11.7246 3.47706 11.21 3.63781L6.70996 5.04406C5.60374 5.38975 4.8507 6.4144 4.85059 7.57336V14.4435C4.85064 14.6644 4.90637 14.8822 5.01367 15.0753C6.35194 17.484 8.51487 19.3289 11.1045 20.2706L11.4902 20.4103C11.8197 20.5301 12.1812 20.5301 12.5107 20.4103L12.8955 20.2706C15.4851 19.3289 17.648 17.484 18.9863 15.0753C19.0936 14.8822 19.1503 14.6644 19.1504 14.4435V7.57336C19.1503 6.41452 18.397 5.38986 17.291 5.04406L12.791 3.63781Z" fill="#1A1A1A"/>
</svg>
