<svg width="24" height="24" viewBox="0 0 24 24" fill="none" xmlns="http://www.w3.org/2000/svg">
<path d="M3.9999 9.3496C4.46934 9.3496 4.8499 8.96904 4.8499 8.4996V6.9996C4.8499 5.81219 5.81249 4.8496 6.9999 4.8496H8.4999C8.96934 4.8496 9.3499 4.46904 9.3499 3.9996C9.3499 3.53016 8.96934 3.1496 8.4999 3.1496H6.9999C4.87361 3.1496 3.1499 4.8733 3.1499 6.9996V8.4996C3.1499 8.96904 3.53046 9.3496 3.9999 9.3496Z" fill="#1A1A1A"/>
<path d="M20.0001 14.6504C19.5307 14.6504 19.1501 15.0309 19.1501 15.5004V17.0004C19.1501 18.1878 18.1875 19.1504 17.0001 19.1504H15.5001C15.0307 19.1504 14.6501 19.5309 14.6501 20.0004C14.6501 20.4698 15.0307 20.8504 15.5001 20.8504H17.0001C19.1264 20.8504 20.8501 19.1267 20.8501 17.0004V15.5004C20.8501 15.0309 20.4695 14.6504 20.0001 14.6504Z" fill="#1A1A1A"/>
<path d="M19.1501 8.4996C19.1501 8.96904 19.5307 9.3496 20.0001 9.3496C20.4695 9.3496 20.8501 8.96904 20.8501 8.4996V6.9996C20.8501 4.8733 19.1264 3.1496 17.0001 3.1496H15.5001C15.0307 3.1496 14.6501 3.53016 14.6501 3.9996C14.6501 4.46904 15.0307 4.8496 15.5001 4.8496H17.0001C18.1875 4.8496 19.1501 5.81218 19.1501 6.9996V8.4996Z" fill="#1A1A1A"/>
<path d="M3.9999 14.6504C4.46934 14.6504 4.8499 15.0309 4.8499 15.5004V17.0004C4.8499 18.1878 5.81249 19.1504 6.9999 19.1504H8.4999C8.96934 19.1504 9.3499 19.5309 9.3499 20.0004C9.3499 20.4698 8.96934 20.8504 8.4999 20.8504H6.9999C4.87361 20.8504 3.1499 19.1267 3.1499 17.0004V15.5004C3.1499 15.0309 3.53046 14.6504 3.9999 14.6504Z" fill="#1A1A1A"/>
<path d="M4.9999 11.1504C4.53046 11.1504 4.1499 11.5309 4.1499 12.0004C4.1499 12.4698 4.53046 12.8504 4.9999 12.8504H18.9999C19.4693 12.8504 19.8499 12.4698 19.8499 12.0004C19.8499 11.5309 19.4693 11.1504 18.9999 11.1504H4.9999Z" fill="#1A1A1A"/>
</svg>
