<svg width="24" height="24" viewBox="0 0 24 24" fill="none" xmlns="http://www.w3.org/2000/svg">
<path fill-rule="evenodd" clip-rule="evenodd" d="M11.9491 1.72461H12.0507C13.8825 1.7246 15.3267 1.72459 16.4742 1.84892C17.6482 1.97612 18.6122 2.24158 19.4384 2.84186C19.9351 3.20269 20.3718 3.63943 20.7327 4.13607C21.3329 4.96228 21.5984 5.92627 21.7256 7.10031C21.8499 8.24785 21.8499 9.69198 21.8499 11.5238V11.6255C21.8499 13.4572 21.8499 14.9014 21.7256 16.0489C21.5984 17.223 21.3329 18.1869 20.7327 19.0132C20.3718 19.5098 19.9351 19.9465 19.4384 20.3074C18.6122 20.9076 17.6482 21.1731 16.4742 21.3003C15.3267 21.4246 13.8825 21.4246 12.0508 21.4246H11.9491C10.1173 21.4246 8.67315 21.4246 7.52561 21.3003C6.35156 21.1731 5.38757 20.9076 4.56136 20.3074C4.06473 19.9465 3.62798 19.5098 3.26715 19.0132C2.66688 18.1869 2.40141 17.223 2.27421 16.0489C2.14988 14.9014 2.14989 13.4572 2.1499 11.6254V11.5238C2.14989 9.692 2.14988 8.24786 2.27421 7.10031C2.40141 5.92627 2.66688 4.96228 3.26715 4.13607C3.62798 3.63943 4.06473 3.20269 4.56136 2.84186C5.38757 2.24158 6.35156 1.97612 7.52561 1.84892C8.67315 1.72459 10.1173 1.7246 11.9491 1.72461ZM7.70872 3.53903C6.67932 3.65056 6.04871 3.86255 5.56059 4.21719C5.20828 4.47316 4.89845 4.78299 4.64248 5.1353C4.28785 5.62342 4.07585 6.25402 3.96432 7.28343C3.86879 8.16519 3.85301 9.26524 3.85041 10.7246H20.1494C20.1468 9.26524 20.131 8.16519 20.0355 7.28343C19.924 6.25402 19.712 5.62342 19.3573 5.1353C19.1014 4.78299 18.7915 4.47316 18.4392 4.21719C17.9511 3.86255 17.3205 3.65056 16.2911 3.53903C15.2458 3.42578 13.8937 3.42461 11.9999 3.42461C10.1061 3.42461 8.75403 3.42578 7.70872 3.53903ZM3.96432 15.8658C3.86879 14.984 3.85301 13.884 3.85041 12.4246H11.1499V19.7241C9.69054 19.7215 8.59049 19.7057 7.70872 19.6102C6.67932 19.4987 6.04871 19.2867 5.56059 18.932C5.20828 18.6761 4.89845 18.3662 4.64248 18.0139C4.28785 17.5258 4.07585 16.8952 3.96432 15.8658ZM12.8499 19.7241C14.3093 19.7215 15.4093 19.7057 16.2911 19.6102C17.3205 19.4987 17.9511 19.2867 18.4392 18.932C18.7915 18.6761 19.1014 18.3662 19.3573 18.0139C19.712 17.5258 19.924 16.8952 20.0355 15.8658C20.131 14.984 20.1468 13.884 20.1494 12.4246H12.8499V19.7241Z" fill="#1A1A1A"/>
</svg>
