<svg width="24" height="24" viewBox="0 0 24 24" fill="none" xmlns="http://www.w3.org/2000/svg">
<path fill-rule="evenodd" clip-rule="evenodd" d="M7.2499 3.15039C4.98553 3.15039 3.1499 4.98602 3.1499 7.25039C3.1499 9.51476 4.98553 11.3504 7.2499 11.3504H9.90899L9.92687 11.3504C9.98686 11.3506 10.0921 11.351 10.192 11.3366C10.785 11.2514 11.2509 10.7855 11.3362 10.1925C11.3505 10.0926 11.3502 9.98736 11.3499 9.92737L11.3499 9.90948V7.25039C11.3499 4.98602 9.51427 3.15039 7.2499 3.15039ZM4.8499 7.25039C4.8499 5.92491 5.92442 4.85039 7.2499 4.85039C8.57539 4.85039 9.6499 5.92491 9.6499 7.25039V9.65039H7.2499C5.92442 9.65039 4.8499 8.57587 4.8499 7.25039Z" fill="#1A1A1A"/>
<path fill-rule="evenodd" clip-rule="evenodd" d="M10.192 12.6642C10.0921 12.6499 9.98686 12.6502 9.92687 12.6504L9.90899 12.6505H7.2499C4.98553 12.6505 3.1499 14.4861 3.1499 16.7505C3.1499 19.0149 4.98553 20.8505 7.2499 20.8505C9.51427 20.8505 11.3499 19.0149 11.3499 16.7505V14.0914L11.3499 14.0735C11.3502 14.0135 11.3505 13.9083 11.3362 13.8084C11.2509 13.2154 10.785 12.7495 10.192 12.6642ZM7.2499 14.3505H9.6499V16.7505C9.6499 18.076 8.57539 19.1505 7.2499 19.1505C5.92442 19.1505 4.8499 18.076 4.8499 16.7505C4.8499 15.425 5.92442 14.3505 7.2499 14.3505Z" fill="#1A1A1A"/>
<path fill-rule="evenodd" clip-rule="evenodd" d="M12.65 7.25039C12.65 4.98602 14.4856 3.15039 16.75 3.15039C19.0144 3.15039 20.85 4.98602 20.85 7.25039C20.85 9.51476 19.0144 11.3504 16.75 11.3504H14.0909L14.073 11.3504C14.013 11.3506 13.9078 11.351 13.8079 11.3366C13.2149 11.2514 12.749 10.7855 12.6637 10.1925C12.6494 10.0926 12.6497 9.98735 12.65 9.92735L12.65 9.90948V7.25039ZM16.75 4.85039C15.4245 4.85039 14.35 5.92491 14.35 7.25039V9.65039H16.75C18.0755 9.65039 19.15 8.57587 19.15 7.25039C19.15 5.92491 18.0755 4.85039 16.75 4.85039Z" fill="#1A1A1A"/>
<path fill-rule="evenodd" clip-rule="evenodd" d="M14.0909 12.6505L14.073 12.6504C14.013 12.6502 13.9078 12.6499 13.8079 12.6642C13.2149 12.7495 12.749 13.2154 12.6637 13.8084C12.6494 13.9083 12.6497 14.0135 12.65 14.0735L12.65 14.0914V16.7505C12.65 19.0149 14.4856 20.8505 16.75 20.8505C19.0144 20.8505 20.85 19.0149 20.85 16.7505C20.85 14.4861 19.0144 12.6505 16.75 12.6505H14.0909ZM14.35 16.7505V14.3505H16.75C18.0755 14.3505 19.15 15.425 19.15 16.7505C19.15 18.076 18.0755 19.1505 16.75 19.1505C15.4245 19.1505 14.35 18.076 14.35 16.7505Z" fill="#1A1A1A"/>
</svg>
