<svg width="24" height="24" viewBox="0 0 24 24" fill="none" xmlns="http://www.w3.org/2000/svg">
<path d="M16.7844 9.69632C17.0713 9.98318 17.0713 10.4483 16.7844 10.7351L13.7325 13.787C13.424 14.0955 12.8965 13.877 12.8965 13.4408V11.6848H10.3913C9.74546 11.6848 9.14056 12.0012 8.77217 12.5317L8 13.6436V11.7035C8 10.0705 9.32386 8.74659 10.9569 8.74659H12.8965V6.99068C12.8965 6.55441 13.424 6.33592 13.7325 6.64441L16.7844 9.69632Z" fill="#1A1A1A"/>
<path fill-rule="evenodd" clip-rule="evenodd" d="M6.9422 3.1499C6.04867 3.14987 5.29362 3.14984 4.6921 3.23071C4.05322 3.31661 3.4618 3.50751 2.98465 3.98465C2.50751 4.4618 2.31661 5.05322 2.23071 5.6921C2.14984 6.29362 2.14987 7.04863 2.1499 7.94215V13.0576C2.14987 13.9511 2.14984 14.7062 2.23071 15.3077C2.31661 15.9466 2.50751 16.538 2.98465 17.0152C3.4618 17.4923 4.05322 17.6832 4.6921 17.7691C5.29363 17.85 6.04867 17.8499 6.94222 17.8499H11.1499V19.1499H6.9999C6.53046 19.1499 6.1499 19.5305 6.1499 19.9999C6.1499 20.4693 6.53046 20.8499 6.9999 20.8499H16.9999C17.4693 20.8499 17.8499 20.4693 17.8499 19.9999C17.8499 19.5305 17.4693 19.1499 16.9999 19.1499H12.8499V17.8499H17.0576C17.9511 17.8499 18.7062 17.85 19.3077 17.7691C19.9466 17.6832 20.538 17.4923 21.0152 17.0152C21.4923 16.538 21.6832 15.9466 21.7691 15.3077C21.85 14.7062 21.8499 13.9511 21.8499 13.0576V7.94222C21.8499 7.04867 21.85 6.29363 21.7691 5.6921C21.6832 5.05322 21.4923 4.4618 21.0152 3.98465C20.538 3.50751 19.9466 3.31661 19.3077 3.23071C18.7062 3.14984 17.9512 3.14987 17.0577 3.1499H6.9422ZM4.18673 5.18673C4.29537 5.07809 4.46825 4.9761 4.91862 4.91555C5.39345 4.85171 6.03307 4.84991 6.99991 4.84991H16.9999C17.9667 4.84991 18.6064 4.85171 19.0812 4.91555C19.5316 4.9761 19.7044 5.07809 19.8131 5.18673C19.9217 5.29537 20.0237 5.46825 20.0843 5.91862C20.1481 6.39345 20.1499 7.03307 20.1499 7.99991V12.9999C20.1499 13.9667 20.1481 14.6064 20.0843 15.0812C20.0237 15.5316 19.9217 15.7044 19.8131 15.8131C19.7044 15.9217 19.5316 16.0237 19.0812 16.0843C18.6064 16.1481 17.9667 16.1499 16.9999 16.1499H6.99991C6.03307 16.1499 5.39345 16.1481 4.91862 16.0843C4.46825 16.0237 4.29537 15.9217 4.18673 15.8131C4.07809 15.7044 3.9761 15.5316 3.91555 15.0812C3.85171 14.6064 3.84991 13.9667 3.84991 12.9999V7.99991C3.84991 7.03307 3.85171 6.39345 3.91555 5.91862C3.9761 5.46825 4.07809 5.29537 4.18673 5.18673Z" fill="#1A1A1A"/>
</svg>
