<svg width="24" height="24" viewBox="0 0 24 24" fill="none" xmlns="http://www.w3.org/2000/svg">
<path fill-rule="evenodd" clip-rule="evenodd" d="M14 3.64999C13.5305 3.64999 13.15 4.03055 13.15 4.49999C13.15 4.96944 13.5305 5.34999 14 5.34999H17.4683C15.6357 7.17937 13.2141 8.44632 10.8413 9.28622C8.29437 10.1877 5.87414 10.5723 4.45278 10.6513C3.98406 10.6773 3.62519 11.0784 3.65123 11.5471C3.67727 12.0159 4.07836 12.3747 4.54708 12.3487C6.12571 12.261 8.70548 11.8456 11.4086 10.8888C13.9102 10.0033 16.5781 8.63266 18.65 6.57242V9.49999C18.65 9.96944 19.0305 10.35 19.5 10.35C19.9694 10.35 20.35 9.96944 20.35 9.49999V4.49999C20.35 4.03055 19.9694 3.64999 19.5 3.64999H14ZM19.85 13C19.85 12.5306 19.4694 12.15 19 12.15C18.5305 12.15 18.15 12.5306 18.15 13V20C18.15 20.4694 18.5305 20.85 19 20.85C19.4694 20.85 19.85 20.4694 19.85 20V13ZM12 14.15C12.4694 14.15 12.85 14.5306 12.85 15L12.85 20C12.85 20.4694 12.4694 20.85 12 20.85C11.5305 20.85 11.15 20.4694 11.15 20L11.15 15C11.15 14.5306 11.5305 14.15 12 14.15ZM4.99996 16.15C5.46941 16.15 5.84996 16.5306 5.84996 17L5.84996 20C5.84996 20.4694 5.46941 20.85 4.99996 20.85C4.53052 20.85 4.14996 20.4694 4.14996 20L4.14996 17C4.14996 16.5306 4.53052 16.15 4.99996 16.15Z" fill="#2F3033"/>
</svg>
