<svg width="24" height="24" viewBox="0 0 24 24" fill="none" xmlns="http://www.w3.org/2000/svg">
<path fill-rule="evenodd" clip-rule="evenodd" d="M23.9721 8.74387C23.9047 7.91023 23.3571 7.09715 22.7534 6.42309C22.1191 5.71482 21.288 5.01339 20.4156 4.39653C19.5411 3.77815 18.599 3.22638 17.7281 2.82636C16.8881 2.44048 16.0087 2.14565 15.2948 2.14995L15.2369 2.1503L15.1797 2.15848C14.8614 2.20395 14.6409 2.40308 14.5267 2.52869C14.3832 2.68641 14.2624 2.88709 14.1639 3.1263L14.1558 3.14599C14.0664 3.36356 13.914 3.73445 13.5939 4.06332C13.2888 4.37683 12.7986 4.68466 11.9471 4.67499C11.1158 4.66554 10.6664 4.33636 10.3996 4.02191C10.1346 3.70957 10.0254 3.3857 9.96836 3.21659C9.96244 3.19905 9.95708 3.18316 9.95217 3.16914C9.78164 2.6819 9.35722 2.24949 8.8076 2.17098C8.71688 2.15802 8.62489 2.16043 8.58734 2.16146C8.52678 2.16314 8.45467 2.16744 8.37265 2.17504C8.20803 2.19029 7.99273 2.21981 7.73549 2.27303C7.22047 2.37959 6.53106 2.58248 5.73929 2.9613C4.15004 3.72167 2.17656 5.17752 0.380269 7.92818C0.153862 8.26348 0.144968 8.6338 0.177404 8.89324C0.21144 9.16549 0.304472 9.43418 0.411515 9.67414C0.627357 10.158 0.968837 10.6759 1.33763 11.1398C1.70878 11.6067 2.13885 12.0582 2.55712 12.3999C2.76557 12.5701 2.98919 12.728 3.216 12.8457C3.42575 12.9545 3.72485 13.0751 4.05886 13.0618C4.2656 13.0535 4.4602 13.0163 4.64087 12.9603C4.58606 13.9699 4.53599 15.0827 4.50955 16.094C4.48753 16.9364 4.48149 17.7231 4.50441 18.3251C4.51576 18.6231 4.53493 18.8981 4.56749 19.12C4.58349 19.229 4.60629 19.3508 4.64231 19.4663L4.64263 19.4673C4.65921 19.5205 4.70507 19.6676 4.81565 19.816C4.91971 19.9772 5.0506 20.0976 5.15393 20.1808C5.29039 20.2908 5.44754 20.3898 5.61017 20.4788C5.93627 20.6571 6.34863 20.8298 6.81499 20.9878C7.75129 21.305 8.98035 21.5887 10.3365 21.7356C11.8986 21.9048 13.6917 21.8986 15.4256 21.5133C15.3224 21.3798 15.2156 21.2485 15.1056 21.12C15.0119 21.0103 14.916 20.903 14.8184 20.7981C14.573 20.5345 14.3071 20.2772 14.0236 20.0332C12.852 20.1836 11.649 20.1678 10.5195 20.0455C9.2788 19.9111 8.17192 19.6526 7.36056 19.3777C6.9531 19.2396 6.6387 19.1037 6.42603 18.9873C6.34511 18.9431 6.28805 18.9066 6.25044 18.8796L6.24947 18.8731C6.23008 18.741 6.2137 18.5369 6.20318 18.2604C6.18235 17.7134 6.18724 16.9697 6.20897 16.1384C6.25231 14.4804 6.36091 12.5326 6.44795 11.2448L6.66976 7.96297L4.88577 10.7264C4.82778 10.8162 4.6856 10.9916 4.49413 11.1396C4.32436 11.2708 4.17006 11.3394 4.0435 11.3581C4.03215 11.3532 4.01736 11.3462 3.99892 11.3367C3.90962 11.2903 3.78539 11.2081 3.6325 11.0832C3.32812 10.8346 2.98163 10.476 2.6684 10.0819C2.35282 9.68495 2.10211 9.29108 1.96405 8.98158C1.91776 8.87781 1.89144 8.7996 1.87734 8.7458C3.48209 6.33005 5.18456 5.11127 6.473 4.49482C7.13122 4.17989 7.68868 4.01872 8.07992 3.93777C8.20445 3.91201 8.31151 3.8945 8.39894 3.88276C8.48874 4.13593 8.69574 4.64132 9.10329 5.1217C9.65839 5.77601 10.559 6.35932 11.9277 6.37488C13.2761 6.3902 14.2048 5.87304 14.8121 5.24905C15.3078 4.73974 15.566 4.1813 15.6854 3.89636C16.0198 3.96695 16.4722 4.12019 17.0185 4.37116C17.7821 4.72192 18.6337 5.2186 19.4342 5.78459C20.2368 6.3521 20.962 6.97099 21.487 7.55724C22.002 8.13231 22.2243 8.56581 22.2701 8.8233C22.1788 9.63581 21.6862 10.2545 21.0753 10.7047C20.7631 10.9348 20.439 11.1053 20.1678 11.2177C19.9903 11.2913 19.8626 11.3291 19.7908 11.3475C19.7472 11.3192 19.6887 11.2745 19.6181 11.2102C19.4385 11.0467 19.2667 10.8359 19.1705 10.6989L17.314 8.05579L17.6289 11.2703C17.6517 11.5023 17.6752 11.7575 17.6988 12.03C18.2862 12.082 18.8542 12.387 19.2162 12.9437C19.309 13.0865 19.4061 13.228 19.507 13.3675C19.4995 13.2563 19.4917 13.146 19.4839 13.0369C19.5828 13.0566 19.6891 13.0666 19.801 13.0616C20.088 13.0485 20.4648 12.935 20.8191 12.788C21.2006 12.6298 21.6477 12.3947 22.0838 12.0733C22.9504 11.4346 23.8523 10.3911 23.9722 8.87968L23.9776 8.81177L23.9721 8.74387ZM6.20198 18.8408C6.20198 18.8408 6.20384 18.8424 6.20684 18.8455C6.20433 18.8433 6.20198 18.8408 6.20198 18.8408Z" fill="#1A1A1A"/>
<path fill-rule="evenodd" clip-rule="evenodd" d="M18.2492 13.5656C17.9075 13.0396 17.139 13.0353 16.7915 13.5574C16.5434 13.9302 16.2705 14.2937 15.9791 14.6398C15.8763 14.7619 15.7713 14.8817 15.6644 14.9989C15.3523 15.3411 15.0084 15.6778 14.6369 15.9958C14.2998 16.2842 13.9412 16.5563 13.564 16.8028C13.0327 17.15 13.0383 17.9303 13.5745 18.2699C13.9543 18.5105 14.3158 18.777 14.6557 19.0611C15.0174 19.3635 15.3536 19.6849 15.6605 20.0146C15.7692 20.1313 15.8758 20.2508 15.98 20.3726C16.2722 20.7142 16.5449 21.0738 16.7924 21.4441C17.1401 21.9646 17.9065 21.9603 18.2483 21.436C18.4907 21.0644 18.759 20.7033 19.0483 20.3598C19.1462 20.2437 19.2463 20.1296 19.3486 20.018C19.6527 19.6859 19.9865 19.3633 20.3466 19.0603C20.6844 18.7763 21.0445 18.5103 21.4243 18.2705C21.9617 17.9311 21.9673 17.1492 21.4347 16.8021C21.0576 16.5563 20.7002 16.2849 20.3653 15.9965C19.9954 15.6782 19.6541 15.3402 19.3447 14.9955C19.2441 14.8834 19.1455 14.769 19.049 14.6527C18.7605 14.3047 18.4921 13.9396 18.2492 13.5656ZM17.2796 15.7346C17.3578 15.6418 17.4348 15.5478 17.5106 15.4528C17.5858 15.5487 17.6624 15.6437 17.7402 15.7376C17.8508 15.8709 17.9639 16.0021 18.0795 16.1309C18.4348 16.5268 18.828 16.9163 19.2562 17.2849C19.3497 17.3654 19.445 17.445 19.5419 17.5235C19.4437 17.6009 19.3472 17.6796 19.2524 17.7593C18.8334 18.1117 18.4467 18.4858 18.095 18.8697C17.9767 18.9988 17.861 19.1306 17.7482 19.2645C17.6676 19.3602 17.5884 19.457 17.5107 19.555C17.4324 19.458 17.3528 19.3622 17.2719 19.2676C17.1523 19.1278 17.0298 18.9905 16.9048 18.8562C16.5518 18.4771 16.1644 18.1066 15.746 17.7568C15.6517 17.678 15.5557 17.6001 15.4581 17.5234C15.5545 17.4457 15.6492 17.367 15.7422 17.2873C16.1699 16.9213 16.5639 16.5354 16.9204 16.1445C17.0426 16.0106 17.1625 15.8738 17.2796 15.7346Z" fill="#1A1A1A"/>
</svg>
