<svg width="24" height="24" viewBox="0 0 24 24" fill="none" xmlns="http://www.w3.org/2000/svg">
<path fill-rule="evenodd" clip-rule="evenodd" d="M16.4756 11.1143C16.8821 10.8797 17.402 11.0184 17.6367 11.4248L18.1367 12.291C18.3653 12.687 18.2388 13.1908 17.8564 13.4336H21.1504C21.6196 13.4338 21.9998 13.814 22 14.2832C22 14.7525 21.6197 15.1336 21.1504 15.1338H20.4268L20.418 15.1582C19.9476 16.4124 19.2544 17.5554 18.3838 18.5391C18.9749 19.0042 19.6261 19.3982 20.3252 19.709L20.9951 20.0068C21.4241 20.1975 21.6174 20.6999 21.4268 21.1289C21.2361 21.5579 20.7337 21.7512 20.3047 21.5605L19.6348 21.2627C18.7332 20.862 17.899 20.3442 17.1504 19.7285C16.4018 20.3442 15.5675 20.8619 14.666 21.2627L13.9961 21.5605C13.5671 21.7512 13.0647 21.5579 12.874 21.1289C12.6834 20.7 12.8767 20.1975 13.3057 20.0068L13.9756 19.709C14.6747 19.3982 15.3259 19.0042 15.917 18.5391C15.0462 17.5553 14.3532 16.4116 13.8828 15.1572L13.873 15.1338H13.1504C12.6809 15.1338 12.2998 14.7526 12.2998 14.2832C12.3 13.8139 12.6811 13.4336 13.1504 13.4336H16.9443C16.8324 13.3626 16.735 13.2643 16.6641 13.1416L16.1641 12.2754C15.9293 11.8688 16.069 11.349 16.4756 11.1143ZM15.7109 15.1338C16.0817 15.9498 16.5684 16.701 17.1504 17.3672C17.7322 16.701 18.2181 15.9496 18.5889 15.1338H15.7109Z" fill="#1A1A1A"/>
<path d="M4 14.6504C4.46925 14.6504 4.84937 15.0308 4.84961 15.5V17C4.84961 18.1874 5.81259 19.1504 7 19.1504H8.5C8.96925 19.1504 9.34937 19.5308 9.34961 20C9.34961 20.4694 8.9694 20.8505 8.5 20.8506H7C4.8737 20.8506 3.15039 19.1263 3.15039 17V15.5C3.15063 15.0308 3.5307 14.6504 4 14.6504Z" fill="#1A1A1A"/>
<path d="M11.1504 7C11.6197 7.00026 12 7.38125 12 7.85059V8L11.9932 8.25684C11.8765 10.5623 10.1983 12.4543 7.99512 12.8994C7.99842 12.9325 8 12.9661 8 13V14C8 14.5523 7.55228 15 7 15C6.44772 15 6 14.5523 6 14V13C6 12.9661 6.00061 12.9325 6.00391 12.8994C3.80122 12.454 2.12348 10.5619 2.00684 8.25684L2 8V7.85059C2 7.38109 2.38109 7 2.85059 7C3.31986 7.00026 3.7002 7.38125 3.7002 7.85059V8C3.7002 9.82254 5.17746 11.2998 7 11.2998C8.82254 11.2998 10.2998 9.82254 10.2998 8V7.85059C10.2998 7.38109 10.6809 7 11.1504 7Z" fill="#1A1A1A"/>
<path d="M7 2C8.10457 2 9 2.89543 9 4V8C9 9.10457 8.10457 10 7 10C5.89543 10 5 9.10457 5 8V4C5 2.89543 5.89543 2 7 2Z" fill="#1A1A1A"/>
<path d="M17 3.14941C19.1263 3.14941 20.8506 4.8737 20.8506 7V8.5C20.8504 8.96929 20.4693 9.34961 20 9.34961C19.5307 9.34956 19.1506 8.96925 19.1504 8.5V7C19.1504 5.81259 18.1874 4.84961 17 4.84961H15.5C15.0307 4.84956 14.6506 4.46925 14.6504 4C14.6504 3.53059 15.0306 3.14947 15.5 3.14941H17Z" fill="#1A1A1A"/>
</svg>
