<svg width="24" height="24" viewBox="0 0 24 24" fill="none" xmlns="http://www.w3.org/2000/svg">
<path fill-rule="evenodd" clip-rule="evenodd" d="M7.17476 6.98912C5.69266 6.32191 3.98947 7.28775 3.80124 8.90217L3.78237 9.06394C3.55496 11.0143 3.55496 12.9846 3.78237 14.935L3.79961 15.0828C3.98864 16.704 5.69992 17.6731 7.18743 17.0012C8.7617 16.2902 10.2536 15.4096 11.6367 14.3751C11.6543 14.5619 11.674 14.7485 11.6957 14.935L11.7129 15.0828C11.902 16.704 13.6133 17.6731 15.1008 17.0012C16.7069 16.2758 18.2273 15.3739 19.6339 14.3122L19.9279 14.0902C21.3165 13.0421 21.3174 10.9569 19.9299 9.90739L19.6422 9.68982C18.2301 8.62182 16.7025 7.7159 15.0881 6.98912C13.606 6.32191 11.9028 7.28775 11.7146 8.90217L11.6957 9.06394C11.6741 9.24936 11.6545 9.43495 11.637 9.62069C10.2506 8.58269 8.75423 7.70017 7.17476 6.98912ZM5.4898 9.09905C5.54487 8.62666 6.04324 8.34405 6.47691 8.53928C7.97518 9.21378 9.3929 10.0545 10.7034 11.0457L10.9911 11.2633C11.4787 11.6321 11.4784 12.365 10.9904 12.7334L10.6964 12.9553C9.39044 13.9411 7.97886 14.7784 6.48769 15.4519C6.04882 15.6501 5.54394 15.3642 5.48817 14.8859L5.47093 14.7381C5.25878 12.9185 5.25878 11.0804 5.47093 9.26082L5.4898 9.09905ZM13.4031 9.09905C13.4582 8.62666 13.9566 8.34405 14.3902 8.53928C15.8885 9.21378 17.3062 10.0545 18.6167 11.0457L18.9044 11.2633C19.3921 11.6321 19.3917 12.365 18.9037 12.7334L18.6097 12.9553C17.3038 13.9411 15.8922 14.7784 14.401 15.4519C13.9622 15.6501 13.4573 15.3642 13.4015 14.8859L13.3843 14.7381C13.1721 12.9185 13.1721 11.0804 13.3843 9.26082L13.4031 9.09905Z" fill="#1A1A1A"/>
</svg>
