<svg width="24" height="24" viewBox="0 0 24 24" fill="none" xmlns="http://www.w3.org/2000/svg">
<path d="M10.3499 6.00039C10.3499 5.53095 9.96935 5.15039 9.4999 5.15039C9.03046 5.15039 8.6499 5.53095 8.6499 6.00039V7.50039C8.6499 7.96983 9.03046 8.35039 9.4999 8.35039C9.96935 8.35039 10.3499 7.96983 10.3499 7.50039V6.00039Z" fill="#1A1A1A"/>
<path d="M12.9999 5.15039C13.4693 5.15039 13.8499 5.53095 13.8499 6.00039V7.50039C13.8499 7.96983 13.4693 8.35039 12.9999 8.35039C12.5305 8.35039 12.1499 7.96983 12.1499 7.50039V6.00039C12.1499 5.53095 12.5305 5.15039 12.9999 5.15039Z" fill="#1A1A1A"/>
<path d="M17.3499 6.00039C17.3499 5.53095 16.9693 5.15039 16.4999 5.15039C16.0305 5.15039 15.6499 5.53095 15.6499 6.00039V7.50039C15.6499 7.96983 16.0305 8.35039 16.4999 8.35039C16.9693 8.35039 17.3499 7.96983 17.3499 7.50039V6.00039Z" fill="#1A1A1A"/>
<path fill-rule="evenodd" clip-rule="evenodd" d="M3.1499 13.8593C3.1499 13.1194 3.43764 12.4085 3.95228 11.8769L4.32614 11.4908C4.5338 11.2763 4.6499 10.9894 4.6499 10.6909V6.50039C4.6499 4.09795 6.59746 2.15039 8.9999 2.15039H16.4999C18.9023 2.15039 20.8499 4.09795 20.8499 6.50039V17.5004C20.8499 19.9028 18.9023 21.8504 16.4999 21.8504H7.4999C5.09746 21.8504 3.1499 19.9028 3.1499 17.5004V13.8593ZM5.17367 13.0594C4.96601 13.2739 4.8499 13.5607 4.8499 13.8593L4.8499 17.5004C4.8499 18.9639 6.03635 20.1504 7.4999 20.1504H16.4999C17.9635 20.1504 19.1499 18.9639 19.1499 17.5004V6.50039C19.1499 5.03684 17.9635 3.85039 16.4999 3.85039H8.9999C7.53635 3.85039 6.3499 5.03684 6.3499 6.50039V10.6909C6.3499 11.4308 6.06217 12.1416 5.54753 12.6732L5.17367 13.0594Z" fill="#1A1A1A"/>
</svg>
