<svg width="24" height="24" viewBox="0 0 24 24" fill="none" xmlns="http://www.w3.org/2000/svg">
<path d="M11.999 2.15039C17.439 2.15039 21.8486 6.56 21.8486 12C21.8486 17.44 17.439 21.8496 11.999 21.8496C6.55902 21.8496 2.14941 17.44 2.14941 12C2.14941 6.56 6.55902 2.15039 11.999 2.15039ZM11.999 3.84961C7.4979 3.84961 3.84863 7.49888 3.84863 12C3.84863 16.5011 7.4979 20.1504 11.999 20.1504C16.5001 20.1504 20.1494 16.5011 20.1494 12C20.1494 7.49888 16.5001 3.84961 11.999 3.84961ZM10.0215 7.09082C10.1637 7.02236 10.3179 7.14834 10.2969 7.30469C10.2623 7.56008 10.2442 7.82104 10.2441 8.08594C10.2442 11.2603 12.8178 13.834 15.9922 13.834C16.2243 13.834 16.453 13.8194 16.6777 13.792C16.8343 13.7729 16.9582 13.9283 16.8877 14.0693C16.0377 15.7623 14.2862 16.9248 12.2627 16.9248C9.40585 16.9247 7.08993 14.6088 7.08984 11.752C7.08984 9.69832 8.28732 7.92597 10.0215 7.09082Z" fill="#2F3033"/>
</svg>
