<svg width="24" height="24" viewBox="0 0 24 24" fill="none" xmlns="http://www.w3.org/2000/svg">
<path d="M8.99941 7.72144C8.52997 7.72144 8.14941 8.10199 8.14941 8.57144C8.14941 9.04088 8.52997 9.42144 8.99941 9.42144H14.7574C15.2269 9.42144 15.6074 9.04088 15.6074 8.57144C15.6074 8.10199 15.2269 7.72144 14.7574 7.72144H8.99941Z" fill="#1A1A1A"/>
<path d="M8.99941 10.8147C8.52997 10.8147 8.14941 11.1953 8.14941 11.6647C8.14941 12.1342 8.52997 12.5147 8.99941 12.5147H13.4184C13.8878 12.5147 14.2684 12.1342 14.2684 11.6647C14.2684 11.1953 13.8878 10.8147 13.4184 10.8147H8.99941Z" fill="#1A1A1A"/>
<path fill-rule="evenodd" clip-rule="evenodd" d="M11.9999 2.40002C7.74059 2.40002 4.1499 5.89788 4.1499 10.2744C4.1499 12.5142 5.25635 14.7316 6.52328 16.5568C7.80421 18.4022 9.33038 19.9614 10.3349 20.9055C11.2808 21.7946 12.7324 21.7678 13.6502 20.8593C14.6454 19.8743 16.1733 18.2491 17.4582 16.3906C18.7222 14.5621 19.8499 12.3691 19.8499 10.2744C19.8499 5.89788 16.2592 2.40002 11.9999 2.40002ZM5.8499 10.2744C5.8499 6.84607 8.67015 4.10002 11.9999 4.10002C15.3297 4.10002 18.1499 6.84607 18.1499 10.2744C18.1499 11.8273 17.281 13.6574 16.0598 15.4239C14.8594 17.1602 13.4135 18.7017 12.4543 19.6511C12.182 19.9207 11.7734 19.9246 11.4991 19.6668C10.5385 18.764 9.10616 17.2966 7.91981 15.5875C6.71946 13.8581 5.8499 11.9931 5.8499 10.2744Z" fill="#1A1A1A"/>
</svg>
