<svg width="24" height="24" viewBox="0 0 24 24" fill="none" xmlns="http://www.w3.org/2000/svg">
<path fill-rule="evenodd" clip-rule="evenodd" d="M5.8657 3.36814C5.81813 3.30932 5.73422 3.29512 5.66996 3.33501C4.47796 4.07487 3.69602 4.94968 3.75987 6.03259C3.8724 7.9412 4.73957 11.2854 8.726 15.2718C12.7124 19.2582 16.0566 20.1254 17.9652 20.2379C19.0481 20.3018 19.9229 19.5198 20.6628 18.3278C20.7027 18.2635 20.6885 18.1796 20.6297 18.1321L17.024 15.2161C16.9729 15.1748 16.9008 15.1716 16.8461 15.2082L15.1875 16.3202C14.8029 16.578 14.2866 16.677 13.7929 16.4846C13.0994 16.2143 11.601 15.5032 10.0476 13.9498C8.49453 12.3968 7.80524 10.9205 7.54529 10.2328C7.3599 9.74234 7.46224 9.23474 7.71509 8.85758L8.8274 7.19845C8.86402 7.14384 8.86079 7.07173 8.81944 7.0206L5.8657 3.36814ZM4.77345 1.89062C5.56606 1.39866 6.60094 1.5738 7.18755 2.29916L10.1413 5.95163C10.6513 6.58223 10.6911 7.47147 10.2394 8.14511L9.17495 9.7329C9.40157 10.2971 9.98346 11.4815 11.2497 12.7478C12.5215 14.0195 13.7326 14.6229 14.3112 14.861L15.8995 13.7961C16.5731 13.3445 17.4624 13.3843 18.093 13.8943L21.6986 16.8102C22.424 17.3968 22.5991 18.4317 22.1072 19.2243C21.3079 20.512 19.9531 22.0581 17.8651 21.935C15.5124 21.7963 11.7838 20.7338 7.52392 16.4739C3.26399 12.2139 2.20153 8.48534 2.06282 6.13265C1.93972 4.04473 3.48573 2.68989 4.77345 1.89062Z" fill="#1A1A1A"/>
</svg>
