<svg width="24" height="24" viewBox="0 0 24 24" fill="none" xmlns="http://www.w3.org/2000/svg">
<path fill-rule="evenodd" clip-rule="evenodd" d="M17.0056 3.10679C17.728 2.38432 18.8994 2.38432 19.6219 3.10679L21.0361 4.52101C21.7586 5.24348 21.7586 6.41483 21.0361 7.1373L13.3654 14.808C13.1583 15.0151 12.905 15.1701 12.6263 15.2602L9.60607 16.2366C8.55824 16.5754 7.56747 15.5846 7.90624 14.5368L8.88271 11.5165C8.97281 11.2379 9.12777 10.9846 9.33485 10.7775L17.0056 3.10679ZM18.4198 4.30888C18.3612 4.2503 18.2662 4.2503 18.2077 4.30888L16.6092 5.90738L18.2355 7.53372L19.834 5.93522C19.8926 5.87664 19.8926 5.78167 19.834 5.72309L18.4198 4.30888ZM17.0334 8.73581L15.4071 7.10946L10.5369 11.9796C10.5201 11.9964 10.5076 12.0169 10.5003 12.0395L9.73436 14.4085L12.1034 13.6426C12.126 13.6353 12.1465 13.6227 12.1633 13.6059L17.0334 8.73581Z" fill="#1A1A1A"/>
<path d="M7.4649 2.65021L11.9999 2.65021C12.4693 2.65021 12.8499 3.03077 12.8499 3.50021C12.8499 3.96965 12.4693 4.35021 11.9999 4.35021H7.4999C6.78581 4.35021 6.30136 4.35087 5.92713 4.38145C5.56281 4.41121 5.37841 4.46504 5.25082 4.53005C4.94035 4.68824 4.68793 4.94066 4.52974 5.25113C4.46473 5.37872 4.41091 5.56312 4.38114 5.92743C4.35056 6.30167 4.3499 6.78612 4.3499 7.50021V16.5002C4.3499 17.2143 4.35056 17.6987 4.38114 18.073C4.41091 18.4373 4.46473 18.6217 4.52974 18.7493C4.68793 19.0598 4.94035 19.3122 5.25082 19.4704C5.37841 19.5354 5.56281 19.5892 5.92713 19.619C6.30136 19.6495 6.78581 19.6502 7.4999 19.6502H16.4999C17.214 19.6502 17.6984 19.6495 18.0727 19.619C18.437 19.5892 18.6214 19.5354 18.749 19.4704C19.0595 19.3122 19.3119 19.0598 19.4701 18.7493C19.5351 18.6217 19.5889 18.4373 19.6187 18.073C19.6492 17.6987 19.6499 17.2143 19.6499 16.5002V12.0002C19.6499 11.5308 20.0305 11.1502 20.4999 11.1502C20.9693 11.1502 21.3499 11.5308 21.3499 12.0002V16.5352C21.3499 17.2055 21.3499 17.7597 21.313 18.2114C21.2747 18.6809 21.1922 19.1139 20.9848 19.5211C20.6636 20.1514 20.1511 20.6639 19.5208 20.9851C19.1136 21.1926 18.6806 21.275 18.2111 21.3133C17.7594 21.3502 17.2052 21.3502 16.5349 21.3502H7.46496C6.79463 21.3502 6.24039 21.3502 5.78869 21.3133C5.31925 21.275 4.88622 21.1926 4.47904 20.9851C3.84869 20.6639 3.33621 20.1514 3.01503 19.5211C2.80756 19.1139 2.72514 18.6809 2.68679 18.2114C2.64988 17.7597 2.64989 17.2055 2.6499 16.5352V7.4652C2.64989 6.7949 2.64988 6.24068 2.68679 5.789C2.72514 5.31955 2.80756 4.88653 3.01503 4.47934C3.33621 3.849 3.84869 3.33651 4.47904 3.01534C4.88622 2.80787 5.31925 2.72545 5.78869 2.68709C6.24037 2.65019 6.79459 2.6502 7.4649 2.65021Z" fill="#1A1A1A"/>
</svg>
