<svg width="24" height="24" viewBox="0 0 24 24" fill="none" xmlns="http://www.w3.org/2000/svg">
<path d="M12.3213 20.1436C12.7901 20.1256 13.1848 20.4911 13.2031 20.96C13.2213 21.429 12.8558 21.8246 12.3867 21.8428C12.2584 21.8477 12.1295 21.8496 12 21.8496C11.8705 21.8496 11.7416 21.8477 11.6133 21.8428C11.1442 21.8246 10.7787 21.429 10.7969 20.96C10.8152 20.4911 11.2099 20.1256 11.6787 20.1436C11.7852 20.1477 11.8925 20.1504 12 20.1504C12.1075 20.1504 12.2148 20.1477 12.3213 20.1436ZM7.45898 19.8193C7.64351 19.4197 8.09943 19.2308 8.50684 19.3711L8.58789 19.4033L8.87988 19.5312C8.97847 19.5721 9.07823 19.6114 9.17871 19.6484C9.61892 19.8111 9.84407 20.2999 9.68164 20.7402C9.51911 21.1806 9.03025 21.4057 8.58984 21.2432C8.46824 21.1983 8.3478 21.151 8.22852 21.1016L7.875 20.9473L7.79785 20.9062C7.42712 20.6871 7.27486 20.2188 7.45898 19.8193ZM15.4932 19.3711C15.9006 19.2308 16.3565 19.4197 16.541 19.8193C16.7374 20.2454 16.551 20.7505 16.125 20.9473L15.7715 21.1016C15.6522 21.151 15.5318 21.1983 15.4102 21.2432C14.9697 21.4057 14.4809 21.1806 14.3184 20.7402C14.1559 20.2999 14.3811 19.8111 14.8213 19.6484C15.022 19.5744 15.2192 19.4924 15.4121 19.4033L15.4932 19.3711ZM17.9854 17.5322C18.3041 17.1877 18.8419 17.1667 19.1865 17.4854C19.5308 17.8041 19.5519 18.342 19.2334 18.6865C19.0584 18.8758 18.8758 19.0584 18.6865 19.2334C18.342 19.5519 17.8041 19.5308 17.4854 19.1865C17.1667 18.8419 17.1877 18.3041 17.5322 17.9854C17.689 17.8404 17.8404 17.689 17.9854 17.5322ZM4.81348 17.4854C5.1367 17.1864 5.63015 17.1862 5.95312 17.4717L6.01465 17.5322L6.2373 17.7627L6.46777 17.9854L6.52832 18.0469C6.81377 18.3698 6.81358 18.8633 6.51465 19.1865C6.21592 19.5092 5.72495 19.5477 5.38086 19.2891L5.31348 19.2334L5.03516 18.9648L4.7666 18.6865L4.71094 18.6191C4.45229 18.275 4.49079 17.7841 4.81348 17.4854ZM4.46875 15.1201L4.59668 15.4121L4.62891 15.4932C4.76916 15.9006 4.58026 16.3565 4.18066 16.541C3.78122 16.7251 3.31286 16.5729 3.09375 16.2021L3.05273 16.125L2.89844 15.7715C2.84896 15.6522 2.80171 15.5318 2.75684 15.4102L3.55371 15.1162L4.35156 14.8213C4.38865 14.9218 4.42786 15.0215 4.46875 15.1201ZM19.6484 14.8213C19.8111 14.3811 20.2999 14.1559 20.7402 14.3184C21.1806 14.4809 21.4057 14.9697 21.2432 15.4102C21.1535 15.653 21.055 15.8916 20.9473 16.125L20.9062 16.2021C20.6871 16.5729 20.2188 16.7251 19.8193 16.541C19.3931 16.3442 19.2065 15.8383 19.4033 15.4121L19.5312 15.1201C19.5721 15.0215 19.6114 14.9218 19.6484 14.8213ZM3.25977 14.3184C3.70006 14.1559 4.18895 14.3811 4.35156 14.8213L2.75684 15.4102C2.5943 14.9697 2.81936 14.4809 3.25977 14.3184ZM11.5 6.15039C11.9694 6.15039 12.3496 6.53056 12.3496 7V11.6504H15.5L15.5869 11.6543C16.0155 11.6978 16.3496 12.0599 16.3496 12.5C16.3496 12.9401 16.0155 13.3022 15.5869 13.3457L15.5 13.3496H11.5C11.0306 13.3496 10.6504 12.9694 10.6504 12.5V7C10.6504 6.53056 11.0306 6.15039 11.5 6.15039ZM3.04004 10.7969C3.50886 10.8152 3.87442 11.2099 3.85645 11.6787L3.84961 12C3.84961 12.1075 3.85233 12.2148 3.85645 12.3213C3.87442 12.7901 3.50886 13.1848 3.04004 13.2031C2.57095 13.2213 2.17537 12.8558 2.15723 12.3867C2.15227 12.2584 2.15039 12.1295 2.15039 12C2.15039 11.8705 2.15226 11.7416 2.15723 11.6133L2.16504 11.5264C2.2252 11.0999 2.60035 10.7799 3.04004 10.7969ZM21.8428 12.3867C21.8246 12.8558 21.429 13.2213 20.96 13.2031C20.4911 13.1848 20.1256 12.7901 20.1436 12.3213L21.8428 12.3867ZM21.8496 12C21.8496 12.1295 21.8477 12.2584 21.8428 12.3867L20.9932 12.3535L20.1436 12.3213C20.1477 12.2148 20.1504 12.1075 20.1504 12C20.1504 11.8925 20.1477 11.7852 20.1436 11.6787L20.9932 11.6465L21.8428 11.6133C21.8477 11.7416 21.8496 11.8705 21.8496 12ZM20.96 10.7969C21.429 10.7787 21.8246 11.1442 21.8428 11.6133L20.1436 11.6787C20.1256 11.2099 20.4911 10.8152 20.96 10.7969ZM4.35156 9.17871C4.18895 9.61892 3.70006 9.84407 3.25977 9.68164C2.81936 9.51911 2.5943 9.03025 2.75684 8.58984L4.35156 9.17871ZM19.8193 7.45898C20.2188 7.27486 20.6871 7.42712 20.9062 7.79785L20.9473 7.875L21.1016 8.22852C21.151 8.3478 21.1983 8.46824 21.2432 8.58984C21.4057 9.03025 21.1806 9.51911 20.7402 9.68164C20.2999 9.84407 19.8111 9.61892 19.6484 9.17871C19.6114 9.07823 19.5721 8.97847 19.5312 8.87988L19.4033 8.58789L19.3711 8.50684C19.2308 8.09943 19.4197 7.64351 19.8193 7.45898ZM3.09375 7.79785C3.31286 7.42712 3.78122 7.27486 4.18066 7.45898C4.60686 7.65579 4.79349 8.1617 4.59668 8.58789L4.46875 8.87988C4.42786 8.97847 4.38865 9.07823 4.35156 9.17871L3.55371 8.88379L2.75684 8.58984C2.84648 8.34695 2.94496 8.10841 3.05273 7.875L3.09375 7.79785ZM5.31348 4.7666C5.65802 4.44806 6.1959 4.46917 6.51465 4.81348C6.83335 5.15808 6.81229 5.69589 6.46777 6.01465C6.311 6.15964 6.15964 6.311 6.01465 6.46777C5.69589 6.81229 5.15808 6.83335 4.81348 6.51465C4.46917 6.1959 4.44806 5.65802 4.7666 5.31348C4.94163 5.12422 5.12422 4.94163 5.31348 4.7666ZM17.4854 4.81348C17.7841 4.49079 18.275 4.45229 18.6191 4.71094L18.6865 4.7666L18.9648 5.03516L19.2334 5.31348L19.2891 5.38086C19.5477 5.72495 19.5092 6.21592 19.1865 6.51465C18.8633 6.81358 18.3698 6.81377 18.0469 6.52832L17.9854 6.46777L17.7627 6.2373L17.5322 6.01465L17.4717 5.95312C17.1862 5.63015 17.1864 5.1367 17.4854 4.81348ZM8.58984 2.75684C9.03025 2.5943 9.51911 2.81936 9.68164 3.25977C9.84407 3.70006 9.61892 4.18895 9.17871 4.35156C8.97802 4.42563 8.78084 4.50759 8.58789 4.59668L8.50684 4.62891C8.09943 4.76916 7.64351 4.58026 7.45898 4.18066C7.26258 3.75458 7.44898 3.24946 7.875 3.05273L8.22852 2.89844C8.3478 2.84896 8.46824 2.80171 8.58984 2.75684ZM14.3184 3.25977C14.4809 2.81936 14.9697 2.5943 15.4102 2.75684L15.7715 2.89844L16.125 3.05273L16.2021 3.09375C16.5729 3.31286 16.7251 3.78122 16.541 4.18066C16.3565 4.58026 15.9006 4.76916 15.4932 4.62891L15.4121 4.59668L15.1201 4.46875C15.0215 4.42786 14.9218 4.38865 14.8213 4.35156C14.3811 4.18895 14.1559 3.70006 14.3184 3.25977ZM12.3867 2.15723L12.4736 2.16504C12.9001 2.2252 13.2201 2.60035 13.2031 3.04004C13.1848 3.50886 12.7901 3.87442 12.3213 3.85645L12 3.84961C11.8925 3.84961 11.7852 3.85233 11.6787 3.85645L11.6465 3.00684L11.6133 2.15723C11.7416 2.15227 11.8705 2.15039 12 2.15039C12.1295 2.15039 12.2584 2.15226 12.3867 2.15723ZM11.6787 3.85645C11.2099 3.87442 10.8152 3.50886 10.7969 3.04004C10.7787 2.57095 11.1442 2.17537 11.6133 2.15723L11.6787 3.85645Z" fill="#1A1A1A"/>
</svg>
