<svg width="24" height="24" viewBox="0 0 24 24" fill="none" xmlns="http://www.w3.org/2000/svg">
<path d="M14.5947 2.15039C15.5273 2.15049 16.4353 2.45053 17.1846 3.00586L19.0898 4.41797C20.1968 5.23843 20.8496 6.53521 20.8496 7.91309V17.5C20.8496 19.9024 18.9024 21.8505 16.5 21.8506H7.5C5.09756 21.8506 3.15039 19.9024 3.15039 17.5V6.5C3.1506 4.09774 5.09769 2.15039 7.5 2.15039H14.5947ZM7.5 3.85059C6.03658 3.85059 4.84982 5.03662 4.84961 6.5V17.5C4.84961 18.9636 6.03645 20.1504 7.5 20.1504H16.5C17.9635 20.1503 19.1504 18.9635 19.1504 17.5V7.91309C19.1504 7.07383 18.7523 6.28402 18.0781 5.78418L16.1719 4.37109C15.7156 4.033 15.1627 3.85069 14.5947 3.85059H7.5ZM13.4473 7.31445C13.7648 7.18322 14.1301 7.25607 14.373 7.49902L16.4014 9.52637C16.733 9.85818 16.7328 10.3966 16.4014 10.7285C16.0695 11.0604 15.5312 11.0603 15.1992 10.7285L14.6221 10.1504V15.8047C14.6221 16.274 14.2417 16.655 13.7725 16.6553C13.303 16.6553 12.9229 16.2741 12.9229 15.8047V8.09961C12.923 7.75598 13.1298 7.44597 13.4473 7.31445ZM10.5273 7.25C10.9968 7.25004 11.3779 7.63117 11.3779 8.10059V15.8057C11.3778 16.1494 11.1701 16.4593 10.8525 16.5908C10.5351 16.7221 10.1698 16.6491 9.92676 16.4062L7.89941 14.3789C7.5675 14.047 7.56757 13.5087 7.89941 13.1768C8.23129 12.8452 8.76871 12.8452 9.10059 13.1768L9.67773 13.7539V8.10059C9.67773 7.63128 10.0581 7.25021 10.5273 7.25Z" fill="#1A1A1A"/>
</svg>
