<svg width="24" height="24" viewBox="0 0 24 24" fill="none" xmlns="http://www.w3.org/2000/svg">
<path fill-rule="evenodd" clip-rule="evenodd" d="M12 2.6499C9.32144 2.6499 7.15002 4.82132 7.15002 7.4999C7.15002 10.1785 9.32144 12.3499 12 12.3499C14.6786 12.3499 16.85 10.1785 16.85 7.4999C16.85 4.82132 14.6786 2.6499 12 2.6499ZM8.85002 7.4999C8.85002 5.76021 10.2603 4.3499 12 4.3499C13.7397 4.3499 15.15 5.76021 15.15 7.4999C15.15 9.2396 13.7397 10.6499 12 10.6499C10.2603 10.6499 8.85002 9.2396 8.85002 7.4999Z" fill="#1A1A1A"/>
<path fill-rule="evenodd" clip-rule="evenodd" d="M9.00002 13.6499C5.76916 13.6499 3.15002 16.269 3.15002 19.4999C3.15002 20.5216 3.9783 21.3499 5.00002 21.3499H19C20.0218 21.3499 20.85 20.5216 20.85 19.4999C20.85 16.269 18.2309 13.6499 15 13.6499H9.00002ZM4.85002 19.4999C4.85002 17.2079 6.70804 15.3499 9.00002 15.3499H15C17.292 15.3499 19.15 17.2079 19.15 19.4999C19.15 19.5827 19.0829 19.6499 19 19.6499H5.00002C4.91718 19.6499 4.85002 19.5827 4.85002 19.4999Z" fill="#1A1A1A"/>
</svg>
