<svg width="24" height="24" viewBox="0 0 24 24" fill="none" xmlns="http://www.w3.org/2000/svg">
<g clip-path="url(#clip0_83120_53535)">
<path d="M3.85205 7.6748C3.79312 7.88913 3.74955 8.15386 3.72119 8.50098C3.67226 9.10026 3.67139 9.86811 3.67139 10.96V13.04C3.67139 14.1319 3.67226 14.8997 3.72119 15.499C3.76935 16.0885 3.85995 16.4399 3.99854 16.7119C4.28613 17.2764 4.74466 17.7358 5.30908 18.0234C5.58106 18.162 5.93254 18.2526 6.52197 18.3008C7.12124 18.3497 7.8891 18.3496 8.98096 18.3496H11.7476C12.8394 18.3496 13.6073 18.3497 14.2065 18.3008C14.2927 18.2937 14.3733 18.2813 14.4497 18.2725L15.8599 19.6826C15.3998 19.8607 14.9036 19.9495 14.3452 19.9951C13.6685 20.0504 12.8306 20.0498 11.7837 20.0498H8.94482C7.89796 20.0498 7.06002 20.0504 6.3833 19.9951C5.68886 19.9384 5.0891 19.8191 4.5376 19.5381C3.65324 19.0875 2.93449 18.3678 2.48389 17.4834C2.20292 16.9319 2.0836 16.3322 2.02686 15.6377C1.97159 14.9611 1.97118 14.1238 1.97119 13.0771V10.9229C1.97118 9.87623 1.97159 9.03892 2.02686 8.3623C2.0836 7.66783 2.20292 7.06812 2.48389 6.5166C2.50717 6.47091 2.5334 6.42663 2.55811 6.38184L3.85205 7.6748ZM11.7837 3.9502C12.8305 3.95019 13.6685 3.94959 14.3452 4.00488C15.0397 4.06163 15.6394 4.18094 16.1909 4.46191C17.0753 4.91252 17.794 5.63224 18.2446 6.5166C18.4241 6.8689 18.5387 7.24425 18.6128 7.65527C18.9118 7.45423 19.1781 7.28177 19.4116 7.15234C19.7394 6.97068 20.138 6.79354 20.5874 6.81738C21.1885 6.84937 21.7453 7.14409 22.1099 7.62305C22.3824 7.98122 22.4605 8.41095 22.4946 8.78418C22.5288 9.15764 22.5288 9.63144 22.5288 10.1855V14.4951C22.5288 15.0495 22.5288 15.5239 22.4946 15.8975C22.4605 16.2706 22.3823 16.6995 22.1099 17.0576C21.7632 17.5132 21.2424 17.7987 20.6753 17.8535L17.5161 14.6934C17.521 14.6912 17.5258 14.6886 17.5308 14.6865C17.8248 14.5621 18.1641 14.6131 18.4087 14.8184C18.4819 14.8799 18.592 14.9558 18.8306 15.1182L19.1567 15.3398C19.6572 15.6804 19.9842 15.9025 20.2358 16.042C20.4146 16.1411 20.4929 16.1612 20.5093 16.165C20.6031 16.1567 20.6899 16.111 20.7495 16.0381C20.7556 16.0224 20.7826 15.9459 20.8013 15.7422C20.8275 15.4558 20.8286 15.061 20.8286 14.4561V10.2256C20.8286 9.62022 20.8275 9.22496 20.8013 8.93848C20.7826 8.73503 20.7556 8.65925 20.7495 8.64355C20.6899 8.57047 20.6032 8.52491 20.5093 8.5166C20.4929 8.52042 20.4147 8.54048 20.2358 8.63965C19.9843 8.7791 19.6571 9.00035 19.1567 9.34082L18.8306 9.5625C18.6149 9.70928 18.5037 9.78626 18.4263 9.84863C18.1748 10.051 17.8298 10.0933 17.5366 9.95801C17.2436 9.82262 17.0525 9.53266 17.0435 9.20996C17.0143 8.17193 16.9216 7.66419 16.73 7.28809C16.4424 6.72364 15.9839 6.26418 15.4194 5.97656C15.1475 5.83798 14.796 5.74738 14.2065 5.69922C13.6073 5.65026 12.8394 5.65039 11.7476 5.65039H8.98096C8.80405 5.65039 8.63565 5.65211 8.4751 5.65234L6.80322 3.98047C7.39888 3.95187 8.10447 3.95019 8.94482 3.9502H11.7837Z" fill="#1A1A1A"/>
<path d="M4.10094 3.39892C3.769 3.06698 3.23081 3.06698 2.89886 3.39892C2.56692 3.73087 2.56692 4.26906 2.89886 4.601L18.8989 20.601C19.2308 20.9329 19.769 20.9329 20.1009 20.601C20.4329 20.2691 20.4329 19.7309 20.1009 19.3989L4.10094 3.39892Z" fill="#1A1A1A"/>
</g>
<defs>
<clipPath id="clip0_83120_53535">
<rect width="24" height="24" fill="white"/>
</clipPath>
</defs>
</svg>
