<svg width="24" height="24" viewBox="0 0 24 24" fill="none" xmlns="http://www.w3.org/2000/svg">
<path d="M4.85039 8.49941C4.85039 8.96886 4.46983 9.34941 4.00039 9.34941C3.53095 9.34941 3.15039 8.96886 3.15039 8.49941L3.15039 6.99941C3.15039 4.87312 4.87409 3.14941 7.00039 3.14941L8.50039 3.14941C8.96983 3.14941 9.35039 3.52997 9.35039 3.99941C9.35039 4.46886 8.96983 4.84941 8.50039 4.84941H7.00039C5.81298 4.84941 4.85039 5.812 4.85039 6.99941V8.49941Z" fill="var(------icon_primary, black)" fill-opacity="0.9"/>
<path d="M19.1506 15.5002C19.1506 15.0308 19.5311 14.6502 20.0006 14.6502C20.47 14.6502 20.8506 15.0308 20.8506 15.5002V17.0002C20.8506 19.1265 19.1269 20.8502 17.0006 20.8502H15.5006C15.0311 20.8502 14.6506 20.4696 14.6506 20.0002C14.6506 19.5308 15.0311 19.1502 15.5006 19.1502H17.0006C18.188 19.1502 19.1506 18.1876 19.1506 17.0002V15.5002Z" fill="var(------icon_primary, black)" fill-opacity="0.9"/>
<path d="M20.0006 9.34941C19.5311 9.34941 19.1506 8.96886 19.1506 8.49941V6.99941C19.1506 5.812 18.188 4.84941 17.0006 4.84941H15.5006C15.0311 4.84941 14.6506 4.46886 14.6506 3.99941C14.6506 3.52997 15.0311 3.14941 15.5006 3.14941L17.0006 3.14941C19.1269 3.14941 20.8506 4.87312 20.8506 6.99941V8.49941C20.8506 8.96886 20.47 9.34941 20.0006 9.34941Z" fill="var(------icon_primary, black)" fill-opacity="0.9"/>
<path d="M4.85039 15.5002C4.85039 15.0308 4.46983 14.6502 4.00039 14.6502C3.53095 14.6502 3.15039 15.0308 3.15039 15.5002L3.15039 17.0002C3.15039 19.1265 4.87409 20.8502 7.00039 20.8502H8.50039C8.96983 20.8502 9.35039 20.4696 9.35039 20.0002C9.35039 19.5308 8.96983 19.1502 8.50039 19.1502H7.00039C5.81298 19.1502 4.85039 18.1876 4.85039 17.0002V15.5002Z" fill="var(------icon_primary, black)" fill-opacity="0.9"/>
</svg>
