<svg width="24" height="24" viewBox="0 0 24 24" fill="none" xmlns="http://www.w3.org/2000/svg">
<path fill-rule="evenodd" clip-rule="evenodd" d="M4.39935 4.39886C4.7313 4.06692 5.26949 4.06692 5.60143 4.39886L12.0004 10.7978L18.3994 4.39886C18.7313 4.06692 19.2695 4.06692 19.6014 4.39886C19.9334 4.73081 19.9334 5.269 19.6014 5.60094L13.2025 11.9999L19.6014 18.3989C19.9334 18.7308 19.9334 19.269 19.6014 19.6009C19.2695 19.9329 18.7313 19.9329 18.3994 19.6009L12.0004 13.202L5.60143 19.6009C5.26949 19.9329 4.7313 19.9329 4.39935 19.6009C4.0674 19.269 4.0674 18.7308 4.39935 18.3989L10.7983 11.9999L4.39935 5.60094C4.0674 5.269 4.0674 4.73081 4.39935 4.39886Z" fill="var(------icon_primary, #1A1A1A)"/>
</svg>
