<svg width="16" height="16" viewBox="0 0 16 16" fill="none" xmlns="http://www.w3.org/2000/svg">
<path d="M3.23343 5.66628C3.23343 5.97924 2.97973 6.23294 2.66676 6.23294C2.3538 6.23294 2.1001 5.97924 2.1001 5.66628V4.66628C2.1001 3.24875 3.24923 2.09961 4.66676 2.09961H5.66676C5.97973 2.09961 6.23343 2.35331 6.23343 2.66628C6.23343 2.97924 5.97973 3.23294 5.66676 3.23294L4.66676 3.23294C3.87516 3.23294 3.23343 3.87467 3.23343 4.66628L3.23343 5.66628Z" fill="var(------icon_secondary, #3C3C43)" fill-opacity="0.75"/>
<path d="M12.7669 10.3335C12.7669 10.0205 13.0206 9.7668 13.3336 9.7668C13.6465 9.7668 13.9002 10.0205 13.9002 10.3335V11.3335C13.9002 12.751 12.7511 13.9001 11.3336 13.9001H10.3336C10.0206 13.9001 9.76689 13.6464 9.76689 13.3335C9.76689 13.0205 10.0206 12.7668 10.3336 12.7668H11.3336C12.1252 12.7668 12.7669 12.1251 12.7669 11.3335V10.3335Z" fill="var(------icon_secondary, #3C3C43)" fill-opacity="0.75"/>
<path d="M13.3336 6.23294C13.0206 6.23294 12.7669 5.97924 12.7669 5.66628V4.66628C12.7669 3.87467 12.1252 3.23294 11.3336 3.23294L10.3336 3.23294C10.0206 3.23294 9.76689 2.97924 9.76689 2.66628C9.76689 2.35331 10.0206 2.09961 10.3336 2.09961H11.3336C12.7511 2.09961 13.9002 3.24875 13.9002 4.66628V5.66628C13.9002 5.97924 13.6465 6.23294 13.3336 6.23294Z" fill="var(------icon_secondary, #3C3C43)" fill-opacity="0.75"/>
<path d="M3.23343 10.3335C3.23343 10.0205 2.97973 9.7668 2.66676 9.7668C2.3538 9.7668 2.1001 10.0205 2.1001 10.3335V11.3335C2.1001 12.751 3.24923 13.9001 4.66676 13.9001H5.66676C5.97973 13.9001 6.23343 13.6464 6.23343 13.3335C6.23343 13.0205 5.97973 12.7668 5.66676 12.7668H4.66676C3.87516 12.7668 3.23343 12.1251 3.23343 11.3335L3.23343 10.3335Z" fill="var(------icon_secondary, #3C3C43)" fill-opacity="0.75"/>
</svg>
