<svg width="28" height="28" viewBox="0 0 28 28" fill="none" xmlns="http://www.w3.org/2000/svg">
<path d="M5.65814 9.91549C5.65814 10.4632 5.21415 10.9072 4.66647 10.9072C4.11879 10.9072 3.6748 10.4632 3.6748 9.91549V8.16549C3.6748 5.68482 5.68579 3.67383 8.16647 3.67383H9.91647C10.4642 3.67383 10.9081 4.11781 10.9081 4.66549C10.9081 5.21318 10.4642 5.65716 9.91647 5.65716H8.16647C6.78116 5.65716 5.65814 6.78018 5.65814 8.16549V9.91549Z" fill="var(------icon_primary, #1A1A1A)"/>
<path d="M22.3417 18.0831C22.3417 17.5354 22.7857 17.0914 23.3334 17.0914C23.881 17.0914 24.325 17.5354 24.325 18.0831V19.8331C24.325 22.3138 22.314 24.3247 19.8334 24.3247H18.0834C17.5357 24.3247 17.0917 23.8808 17.0917 23.3331C17.0917 22.7854 17.5357 22.3414 18.0834 22.3414H19.8334C21.2187 22.3414 22.3417 21.2184 22.3417 19.8331V18.0831Z" fill="var(------icon_primary, #1A1A1A)"/>
<path d="M23.3334 10.9072C22.7857 10.9072 22.3417 10.4632 22.3417 9.91549V8.16549C22.3417 6.78018 21.2187 5.65716 19.8334 5.65716H18.0834C17.5357 5.65716 17.0917 5.21318 17.0917 4.66549C17.0917 4.11781 17.5357 3.67383 18.0834 3.67383H19.8334C22.314 3.67383 24.325 5.68482 24.325 8.16549V9.91549C24.325 10.4632 23.881 10.9072 23.3334 10.9072Z" fill="var(------icon_primary, #1A1A1A)"/>
<path d="M5.65814 18.0831C5.65814 17.5354 5.21415 17.0914 4.66647 17.0914C4.11879 17.0914 3.6748 17.5354 3.6748 18.0831V19.8331C3.6748 22.3138 5.68579 24.3247 8.16647 24.3247H9.91647C10.4642 24.3247 10.9081 23.8808 10.9081 23.3331C10.9081 22.7854 10.4642 22.3414 9.91647 22.3414H8.16647C6.78116 22.3414 5.65814 21.2184 5.65814 19.8331V18.0831Z" fill="var(------icon_primary, #1A1A1A)"/>
</svg>
